<svg xmlns="http://www.w3.org/2000/svg" width="229" height="241"><rect x="0" y="0" width="229" height="241" fill="rgb(255,255,255)"></rect><rect x="0" y="0" width="50" height="25" fill="rgba(100,100,100,1)"><title>1</title></rect><rect x="0" y="28" width="50" height="25" fill="rgba(100,100,100,1)"><title>1</title></rect><rect x="0" y="56" width="50" height="25" fill="rgba(100,100,100,1)"><title>1</title></rect><rect x="0" y="84" width="50" height="25" fill="rgba(100,100,100,1)"><title>1</title></rect><rect x="0" y="112" width="50" height="25" fill="rgba(100,100,100,1)"><title>1</title></rect><rect x="0" y="140" width="50" height="25" fill="rgba(100,100,100,1)"><title>1</title></rect><rect x="0" y="168" width="50" height="25" fill="rgba(100,100,100,1)"><title>1</title></rect><rect x="0" y="196" width="50" height="25" fill="rgba(100,100,100,1)"><title>1</title></rect><rect x="53" y="0" width="50" height="25" fill="rgba(100,100,100,1)"><title>1</title></rect><rect x="53" y="28" width="50" height="25" fill="rgba(100,100,100,1)"><title>1</title></rect><rect x="53" y="56" width="50" height="25" fill="rgba(100,100,100,1)"><title>1</title></rect><rect x="53" y="84" width="50" height="25" fill="rgba(100,100,100,1)"><title>1</title></rect><rect x="53" y="112" width="50" height="25" fill="rgba(100,100,100,1)"><title>1</title></rect><rect x="53" y="140" width="50" height="25" fill="rgba(100,100,100,1)"><title>1</title></rect><rect x="53" y="168" width="50" height="25" fill="rgba(100,100,100,1)"><title>1</title></rect><rect x="53" y="196" width="50" height="25" fill="rgba(100,100,100,1)"><title>1</title></rect><rect x="106" y="0" width="50" height="25" fill="rgba(100,100,100,1)"><title>1</title></rect><rect x="106" y="28" width="50" height="25" fill="rgba(100,100,100,1)"><title>1</title></rect><rect x="106" y="56" width="50" height="25" fill="rgba(100,100,100,1)"><title>1</title></rect><rect x="106" y="84" width="50" height="25" fill="rgba(100,100,100,1)"><title>1</title></rect><rect x="106" y="112" width="50" height="25" fill="rgba(100,100,100,1)"><title>1</title></rect><rect x="106" y="140" width="50" height="25" fill="rgba(100,100,100,1)"><title>1</title></rect><rect x="106" y="168" width="50" height="25" fill="rgba(100,100,100,1)"><title>1</title></rect><rect x="106" y="196" width="50" height="25" fill="rgba(100,100,100,1)"><title>1</title></rect><rect x="159" y="112" width="50" height="25" fill="rgba(100,100,100,1)"><title>1</title></rect><rect x="159" y="140" width="50" height="25" fill="rgba(100,100,100,1)"><title>1</title></rect><rect x="159" y="168" width="50" height="25" fill="rgba(100,100,100,1)"><title>1</title></rect><rect x="159" y="196" width="50" height="25" fill="rgba(100,100,100,1)"><title>1</title></rect><line x1="25" y1="12" x2="25" y2="40" stroke="black" stroke-width="1"></line><line x1="25" y1="12" x2="25" y2="68" stroke="black" stroke-width="1"></line><line x1="25" y1="40" x2="25" y2="96" stroke="black" stroke-width="1"></line><line x1="25" y1="68" x2="25" y2="96" stroke="black" stroke-width="1"></line><line x1="25" y1="68" x2="25" y2="124" stroke="black" stroke-width="1"></line><line x1="25" y1="96" x2="25" y2="152" stroke="black" stroke-width="1"></line><line x1="25" y1="124" x2="25" y2="152" stroke="black" stroke-width="1"></line><line x1="25" y1="124" x2="25" y2="180" stroke="black" stroke-width="1"></line><line x1="25" y1="152" x2="25" y2="208" stroke="black" stroke-width="1"></line><line x1="25" y1="180" x2="25" y2="208" stroke="black" stroke-width="1"></line><line x1="25" y1="180" x2="78" y2="208" stroke="black" stroke-width="1"></line><line x1="25" y1="208" x2="78" y2="180" stroke="black" stroke-width="1"></line><line x1="78" y1="208" x2="78" y2="152" stroke="black" stroke-width="1"></line><line x1="78" y1="208" x2="78" y2="180" stroke="black" stroke-width="1"></line><line x1="78" y1="180" x2="78" y2="124" stroke="black" stroke-width="1"></line><line x1="78" y1="152" x2="78" y2="124" stroke="black" stroke-width="1"></line><line x1="78" y1="152" x2="78" y2="96" stroke="black" stroke-width="1"></line><line x1="78" y1="124" x2="78" y2="68" stroke="black" stroke-width="1"></line><line x1="78" y1="96" x2="131" y2="12" stroke="black" stroke-width="1"></line><line x1="78" y1="96" x2="78" y2="68" stroke="black" stroke-width="1"></line><line x1="78" y1="68" x2="131" y2="40" stroke="black" stroke-width="1"></line><line x1="78" y1="40" x2="131" y2="68" stroke="black" stroke-width="1"></line><line x1="78" y1="40" x2="78" y2="12" stroke="black" stroke-width="1"></line><line x1="78" y1="12" x2="131" y2="96" stroke="black" stroke-width="1"></line><line x1="131" y1="12" x2="131" y2="40" stroke="black" stroke-width="1"></line><line x1="131" y1="12" x2="131" y2="124" stroke="black" stroke-width="1"></line><line x1="131" y1="40" x2="131" y2="152" stroke="black" stroke-width="1"></line><line x1="131" y1="68" x2="131" y2="96" stroke="black" stroke-width="1"></line><line x1="131" y1="68" x2="131" y2="180" stroke="black" stroke-width="1"></line><line x1="131" y1="96" x2="131" y2="124" stroke="black" stroke-width="1"></line><line x1="131" y1="96" x2="184" y2="180" stroke="black" stroke-width="1"></line><line x1="131" y1="124" x2="184" y2="208" stroke="black" stroke-width="1"></line><line x1="131" y1="124" x2="131" y2="152" stroke="black" stroke-width="1"></line><line x1="131" y1="152" x2="131" y2="208" stroke="black" stroke-width="1"></line><line x1="131" y1="180" x2="184" y2="180" stroke="black" stroke-width="1"></line><line x1="131" y1="180" x2="184" y2="152" stroke="black" stroke-width="1"></line><line x1="184" y1="180" x2="184" y2="124" stroke="black" stroke-width="1"></line><line x1="184" y1="208" x2="131" y2="208" stroke="black" stroke-width="1"></line><line x1="184" y1="152" x2="184" y2="124" stroke="black" stroke-width="1"></line></svg>