<svg xmlns="http://www.w3.org/2000/svg" width="653" height="605"><rect x="0" y="0" width="653" height="605" fill="rgb(255,255,255)"></rect><rect x="0" y="28" width="50" height="25" fill="rgba(100,100,100,1)"><title>1</title></rect><rect x="0" y="56" width="50" height="25" fill="rgba(100,100,100,1)"><title>1</title></rect><rect x="0" y="84" width="50" height="25" fill="rgba(100,100,100,1)"><title>1</title></rect><rect x="0" y="112" width="50" height="25" fill="rgba(100,100,100,1)"><title>1</title></rect><rect x="0" y="140" width="50" height="25" fill="rgba(100,100,100,1)"><title>1</title></rect><rect x="0" y="168" width="50" height="25" fill="rgba(100,100,100,1)"><title>1</title></rect><rect x="0" y="196" width="50" height="25" fill="rgba(100,100,100,1)"><title>1</title></rect><rect x="0" y="224" width="50" height="25" fill="rgba(100,100,100,1)"><title>1</title></rect><rect x="0" y="252" width="50" height="25" fill="rgba(100,100,100,1)"><title>1</title></rect><rect x="0" y="280" width="50" height="25" fill="rgba(100,100,100,1)"><title>1</title></rect><rect x="0" y="308" width="50" height="25" fill="rgba(100,100,100,1)"><title>1</title></rect><rect x="0" y="336" width="50" height="25" fill="rgba(100,100,100,1)"><title>1</title></rect><rect x="0" y="364" width="50" height="25" fill="rgba(100,100,100,1)"><title>1</title></rect><rect x="0" y="392" width="50" height="25" fill="rgba(100,100,100,1)"><title>1</title></rect><rect x="0" y="420" width="50" height="25" fill="rgba(100,100,100,1)"><title>1</title></rect><rect x="0" y="448" width="50" height="25" fill="rgba(100,100,100,1)"><title>1</title></rect><rect x="0" y="476" width="50" height="25" fill="rgba(100,100,100,1)"><title>1</title></rect><rect x="0" y="504" width="50" height="25" fill="rgba(100,100,100,1)"><title>1</title></rect><rect x="0" y="532" width="50" height="25" fill="rgba(100,100,100,1)"><title>1</title></rect><rect x="0" y="560" width="50" height="25" fill="rgba(100,100,100,1)"><title>1</title></rect><rect x="53" y="56" width="50" height="25" fill="rgba(100,100,100,1)"><title>1</title></rect><rect x="53" y="84" width="50" height="25" fill="rgba(100,100,100,1)"><title>1</title></rect><rect x="53" y="112" width="50" height="25" fill="rgba(100,100,100,1)"><title>1</title></rect><rect x="53" y="140" width="50" height="25" fill="rgba(100,100,100,1)"><title>1</title></rect><rect x="53" y="168" width="50" height="25" fill="rgba(100,100,100,1)"><title>1</title></rect><rect x="53" y="196" width="50" height="25" fill="rgba(100,100,100,1)"><title>1</title></rect><rect x="53" y="224" width="50" height="25" fill="rgba(100,100,100,1)"><title>1</title></rect><rect x="53" y="252" width="50" height="25" fill="rgba(100,100,100,1)"><title>1</title></rect><rect x="53" y="280" width="50" height="25" fill="rgba(100,100,100,1)"><title>1</title></rect><rect x="53" y="308" width="50" height="25" fill="rgba(100,100,100,1)"><title>1</title></rect><rect x="53" y="336" width="50" height="25" fill="rgba(100,100,100,1)"><title>1</title></rect><rect x="53" y="364" width="50" height="25" fill="rgba(100,100,100,1)"><title>1</title></rect><rect x="53" y="392" width="50" height="25" fill="rgba(100,100,100,1)"><title>1</title></rect><rect x="53" y="420" width="50" height="25" fill="rgba(100,100,100,1)"><title>1</title></rect><rect x="53" y="448" width="50" height="25" fill="rgba(100,100,100,1)"><title>1</title></rect><rect x="53" y="476" width="50" height="25" fill="rgba(100,100,100,1)"><title>1</title></rect><rect x="53" y="504" width="50" height="25" fill="rgba(100,100,100,1)"><title>1</title></rect><rect x="53" y="532" width="50" height="25" fill="rgba(100,100,100,1)"><title>1</title></rect><rect x="106" y="56" width="50" height="25" fill="rgba(100,100,100,1)"><title>1</title></rect><rect x="106" y="84" width="50" height="25" fill="rgba(100,100,100,1)"><title>1</title></rect><rect x="106" y="112" width="50" height="25" fill="rgba(100,100,100,1)"><title>1</title></rect><rect x="106" y="140" width="50" height="25" fill="rgba(100,100,100,1)"><title>1</title></rect><rect x="106" y="168" width="50" height="25" fill="rgba(100,100,100,1)"><title>1</title></rect><rect x="106" y="196" width="50" height="25" fill="rgba(100,100,100,1)"><title>1</title></rect><rect x="106" y="224" width="50" height="25" fill="rgba(100,100,100,1)"><title>1</title></rect><rect x="106" y="252" width="50" height="25" fill="rgba(100,100,100,1)"><title>1</title></rect><rect x="106" y="280" width="50" height="25" fill="rgba(100,100,100,1)"><title>1</title></rect><rect x="106" y="308" width="50" height="25" fill="rgba(100,100,100,1)"><title>1</title></rect><rect x="106" y="336" width="50" height="25" fill="rgba(100,100,100,1)"><title>1</title></rect><rect x="106" y="364" width="50" height="25" fill="rgba(100,100,100,1)"><title>1</title></rect><rect x="106" y="392" width="50" height="25" fill="rgba(100,100,100,1)"><title>1</title></rect><rect x="106" y="420" width="50" height="25" fill="rgba(100,100,100,1)"><title>1</title></rect><rect x="106" y="448" width="50" height="25" fill="rgba(100,100,100,1)"><title>1</title></rect><rect x="106" y="476" width="50" height="25" fill="rgba(100,100,100,1)"><title>1</title></rect><rect x="106" y="504" width="50" height="25" fill="rgba(100,100,100,1)"><title>1</title></rect><rect x="106" y="532" width="50" height="25" fill="rgba(100,100,100,1)"><title>1</title></rect><rect x="159" y="28" width="50" height="25" fill="rgba(100,100,100,1)"><title>1</title></rect><rect x="159" y="56" width="50" height="25" fill="rgba(100,100,100,1)"><title>1</title></rect><rect x="159" y="84" width="50" height="25" fill="rgba(100,100,100,1)"><title>1</title></rect><rect x="159" y="112" width="50" height="25" fill="rgba(100,100,100,1)"><title>1</title></rect><rect x="159" y="140" width="50" height="25" fill="rgba(100,100,100,1)"><title>1</title></rect><rect x="159" y="168" width="50" height="25" fill="rgba(100,100,100,1)"><title>1</title></rect><rect x="159" y="196" width="50" height="25" fill="rgba(100,100,100,1)"><title>1</title></rect><rect x="159" y="224" width="50" height="25" fill="rgba(100,100,100,1)"><title>1</title></rect><rect x="159" y="252" width="50" height="25" fill="rgba(100,100,100,1)"><title>1</title></rect><rect x="159" y="280" width="50" height="25" fill="rgba(100,100,100,1)"><title>1</title></rect><rect x="159" y="308" width="50" height="25" fill="rgba(100,100,100,1)"><title>1</title></rect><rect x="159" y="336" width="50" height="25" fill="rgba(100,100,100,1)"><title>1</title></rect><rect x="159" y="364" width="50" height="25" fill="rgba(100,100,100,1)"><title>1</title></rect><rect x="159" y="392" width="50" height="25" fill="rgba(100,100,100,1)"><title>1</title></rect><rect x="159" y="420" width="50" height="25" fill="rgba(100,100,100,1)"><title>1</title></rect><rect x="159" y="448" width="50" height="25" fill="rgba(100,100,100,1)"><title>1</title></rect><rect x="159" y="476" width="50" height="25" fill="rgba(100,100,100,1)"><title>1</title></rect><rect x="159" y="504" width="50" height="25" fill="rgba(100,100,100,1)"><title>1</title></rect><rect x="212" y="28" width="50" height="25" fill="rgba(100,100,100,1)"><title>1</title></rect><rect x="212" y="56" width="50" height="25" fill="rgba(100,100,100,1)"><title>1</title></rect><rect x="212" y="84" width="50" height="25" fill="rgba(100,100,100,1)"><title>1</title></rect><rect x="212" y="112" width="50" height="25" fill="rgba(100,100,100,1)"><title>1</title></rect><rect x="212" y="140" width="50" height="25" fill="rgba(100,100,100,1)"><title>1</title></rect><rect x="212" y="168" width="50" height="25" fill="rgba(100,100,100,1)"><title>1</title></rect><rect x="212" y="196" width="50" height="25" fill="rgba(100,100,100,1)"><title>1</title></rect><rect x="212" y="224" width="50" height="25" fill="rgba(100,100,100,1)"><title>1</title></rect><rect x="212" y="252" width="50" height="25" fill="rgba(100,100,100,1)"><title>1</title></rect><rect x="212" y="280" width="50" height="25" fill="rgba(100,100,100,1)"><title>1</title></rect><rect x="212" y="308" width="50" height="25" fill="rgba(100,100,100,1)"><title>1</title></rect><rect x="212" y="336" width="50" height="25" fill="rgba(100,100,100,1)"><title>1</title></rect><rect x="212" y="364" width="50" height="25" fill="rgba(100,100,100,1)"><title>1</title></rect><rect x="212" y="392" width="50" height="25" fill="rgba(100,100,100,1)"><title>1</title></rect><rect x="212" y="420" width="50" height="25" fill="rgba(100,100,100,1)"><title>1</title></rect><rect x="212" y="448" width="50" height="25" fill="rgba(100,100,100,1)"><title>1</title></rect><rect x="212" y="476" width="50" height="25" fill="rgba(100,100,100,1)"><title>1</title></rect><rect x="212" y="504" width="50" height="25" fill="rgba(100,100,100,1)"><title>1</title></rect><rect x="265" y="84" width="50" height="25" fill="rgba(100,100,100,1)"><title>1</title></rect><rect x="265" y="112" width="50" height="25" fill="rgba(100,100,100,1)"><title>1</title></rect><rect x="265" y="140" width="50" height="25" fill="rgba(100,100,100,1)"><title>1</title></rect><rect x="265" y="168" width="50" height="25" fill="rgba(100,100,100,1)"><title>1</title></rect><rect x="265" y="196" width="50" height="25" fill="rgba(100,100,100,1)"><title>1</title></rect><rect x="265" y="224" width="50" height="25" fill="rgba(100,100,100,1)"><title>1</title></rect><rect x="265" y="252" width="50" height="25" fill="rgba(100,100,100,1)"><title>1</title></rect><rect x="265" y="280" width="50" height="25" fill="rgba(100,100,100,1)"><title>1</title></rect><rect x="265" y="308" width="50" height="25" fill="rgba(100,100,100,1)"><title>1</title></rect><rect x="265" y="336" width="50" height="25" fill="rgba(100,100,100,1)"><title>1</title></rect><rect x="265" y="364" width="50" height="25" fill="rgba(100,100,100,1)"><title>1</title></rect><rect x="265" y="392" width="50" height="25" fill="rgba(100,100,100,1)"><title>1</title></rect><rect x="265" y="420" width="50" height="25" fill="rgba(100,100,100,1)"><title>1</title></rect><rect x="265" y="448" width="50" height="25" fill="rgba(100,100,100,1)"><title>1</title></rect><rect x="265" y="476" width="50" height="25" fill="rgba(100,100,100,1)"><title>1</title></rect><rect x="265" y="504" width="50" height="25" fill="rgba(100,100,100,1)"><title>1</title></rect><rect x="318" y="56" width="50" height="25" fill="rgba(100,100,100,1)"><title>1</title></rect><rect x="318" y="84" width="50" height="25" fill="rgba(100,100,100,1)"><title>1</title></rect><rect x="318" y="112" width="50" height="25" fill="rgba(100,100,100,1)"><title>1</title></rect><rect x="318" y="140" width="50" height="25" fill="rgba(100,100,100,1)"><title>1</title></rect><rect x="318" y="168" width="50" height="25" fill="rgba(100,100,100,1)"><title>1</title></rect><rect x="318" y="196" width="50" height="25" fill="rgba(100,100,100,1)"><title>1</title></rect><rect x="318" y="224" width="50" height="25" fill="rgba(100,100,100,1)"><title>1</title></rect><rect x="318" y="252" width="50" height="25" fill="rgba(100,100,100,1)"><title>1</title></rect><rect x="318" y="280" width="50" height="25" fill="rgba(100,100,100,1)"><title>1</title></rect><rect x="318" y="308" width="50" height="25" fill="rgba(100,100,100,1)"><title>1</title></rect><rect x="318" y="336" width="50" height="25" fill="rgba(100,100,100,1)"><title>1</title></rect><rect x="318" y="364" width="50" height="25" fill="rgba(100,100,100,1)"><title>1</title></rect><rect x="318" y="392" width="50" height="25" fill="rgba(100,100,100,1)"><title>1</title></rect><rect x="318" y="420" width="50" height="25" fill="rgba(100,100,100,1)"><title>1</title></rect><rect x="318" y="448" width="50" height="25" fill="rgba(100,100,100,1)"><title>1</title></rect><rect x="318" y="476" width="50" height="25" fill="rgba(100,100,100,1)"><title>1</title></rect><rect x="371" y="84" width="50" height="25" fill="rgba(100,100,100,1)"><title>1</title></rect><rect x="371" y="112" width="50" height="25" fill="rgba(100,100,100,1)"><title>1</title></rect><rect x="371" y="140" width="50" height="25" fill="rgba(100,100,100,1)"><title>1</title></rect><rect x="371" y="168" width="50" height="25" fill="rgba(100,100,100,1)"><title>1</title></rect><rect x="371" y="196" width="50" height="25" fill="rgba(100,100,100,1)"><title>1</title></rect><rect x="371" y="224" width="50" height="25" fill="rgba(100,100,100,1)"><title>1</title></rect><rect x="371" y="252" width="50" height="25" fill="rgba(100,100,100,1)"><title>1</title></rect><rect x="371" y="280" width="50" height="25" fill="rgba(100,100,100,1)"><title>1</title></rect><rect x="371" y="308" width="50" height="25" fill="rgba(100,100,100,1)"><title>1</title></rect><rect x="371" y="336" width="50" height="25" fill="rgba(100,100,100,1)"><title>1</title></rect><rect x="371" y="364" width="50" height="25" fill="rgba(100,100,100,1)"><title>1</title></rect><rect x="371" y="392" width="50" height="25" fill="rgba(100,100,100,1)"><title>1</title></rect><rect x="371" y="420" width="50" height="25" fill="rgba(100,100,100,1)"><title>1</title></rect><rect x="424" y="84" width="50" height="25" fill="rgba(100,100,100,1)"><title>1</title></rect><rect x="424" y="112" width="50" height="25" fill="rgba(100,100,100,1)"><title>1</title></rect><rect x="424" y="140" width="50" height="25" fill="rgba(100,100,100,1)"><title>1</title></rect><rect x="424" y="168" width="50" height="25" fill="rgba(100,100,100,1)"><title>1</title></rect><rect x="424" y="196" width="50" height="25" fill="rgba(100,100,100,1)"><title>1</title></rect><rect x="424" y="224" width="50" height="25" fill="rgba(100,100,100,1)"><title>1</title></rect><rect x="424" y="252" width="50" height="25" fill="rgba(100,100,100,1)"><title>1</title></rect><rect x="424" y="280" width="50" height="25" fill="rgba(100,100,100,1)"><title>1</title></rect><rect x="424" y="308" width="50" height="25" fill="rgba(100,100,100,1)"><title>1</title></rect><rect x="424" y="336" width="50" height="25" fill="rgba(100,100,100,1)"><title>1</title></rect><rect x="424" y="364" width="50" height="25" fill="rgba(100,100,100,1)"><title>1</title></rect><rect x="424" y="392" width="50" height="25" fill="rgba(100,100,100,1)"><title>1</title></rect><rect x="424" y="420" width="50" height="25" fill="rgba(100,100,100,1)"><title>1</title></rect><rect x="424" y="448" width="50" height="25" fill="rgba(100,100,100,1)"><title>1</title></rect><rect x="477" y="84" width="50" height="25" fill="rgba(100,100,100,1)"><title>1</title></rect><rect x="477" y="112" width="50" height="25" fill="rgba(100,100,100,1)"><title>1</title></rect><rect x="477" y="140" width="50" height="25" fill="rgba(100,100,100,1)"><title>1</title></rect><rect x="477" y="168" width="50" height="25" fill="rgba(100,100,100,1)"><title>1</title></rect><rect x="477" y="196" width="50" height="25" fill="rgba(100,100,100,1)"><title>1</title></rect><rect x="477" y="224" width="50" height="25" fill="rgba(100,100,100,1)"><title>1</title></rect><rect x="477" y="252" width="50" height="25" fill="rgba(100,100,100,1)"><title>1</title></rect><rect x="477" y="280" width="50" height="25" fill="rgba(100,100,100,1)"><title>1</title></rect><rect x="477" y="308" width="50" height="25" fill="rgba(100,100,100,1)"><title>1</title></rect><rect x="477" y="336" width="50" height="25" fill="rgba(100,100,100,1)"><title>1</title></rect><rect x="477" y="364" width="50" height="25" fill="rgba(100,100,100,1)"><title>1</title></rect><rect x="477" y="392" width="50" height="25" fill="rgba(100,100,100,1)"><title>1</title></rect><rect x="477" y="420" width="50" height="25" fill="rgba(100,100,100,1)"><title>1</title></rect><rect x="477" y="448" width="50" height="25" fill="rgba(100,100,100,1)"><title>1</title></rect><rect x="477" y="476" width="50" height="25" fill="rgba(100,100,100,1)"><title>1</title></rect><rect x="530" y="112" width="50" height="25" fill="rgba(100,100,100,1)"><title>1</title></rect><rect x="530" y="140" width="50" height="25" fill="rgba(100,100,100,1)"><title>1</title></rect><rect x="530" y="168" width="50" height="25" fill="rgba(100,100,100,1)"><title>1</title></rect><rect x="530" y="196" width="50" height="25" fill="rgba(100,100,100,1)"><title>1</title></rect><rect x="530" y="224" width="50" height="25" fill="rgba(100,100,100,1)"><title>1</title></rect><rect x="530" y="252" width="50" height="25" fill="rgba(100,100,100,1)"><title>1</title></rect><rect x="530" y="280" width="50" height="25" fill="rgba(100,100,100,1)"><title>1</title></rect><rect x="530" y="308" width="50" height="25" fill="rgba(100,100,100,1)"><title>1</title></rect><rect x="530" y="336" width="50" height="25" fill="rgba(100,100,100,1)"><title>1</title></rect><rect x="530" y="364" width="50" height="25" fill="rgba(100,100,100,1)"><title>1</title></rect><rect x="530" y="392" width="50" height="25" fill="rgba(100,100,100,1)"><title>1</title></rect><rect x="530" y="420" width="50" height="25" fill="rgba(100,100,100,1)"><title>1</title></rect><rect x="530" y="448" width="50" height="25" fill="rgba(100,100,100,1)"><title>1</title></rect><rect x="530" y="504" width="50" height="25" fill="rgba(100,100,100,1)"><title>1</title></rect><rect x="530" y="532" width="50" height="25" fill="rgba(100,100,100,1)"><title>1</title></rect><rect x="583" y="28" width="50" height="25" fill="rgba(100,100,100,1)"><title>1</title></rect><rect x="583" y="56" width="50" height="25" fill="rgba(100,100,100,1)"><title>1</title></rect><rect x="583" y="84" width="50" height="25" fill="rgba(100,100,100,1)"><title>1</title></rect><rect x="583" y="112" width="50" height="25" fill="rgba(100,100,100,1)"><title>1</title></rect><rect x="583" y="140" width="50" height="25" fill="rgba(100,100,100,1)"><title>1</title></rect><rect x="583" y="168" width="50" height="25" fill="rgba(100,100,100,1)"><title>1</title></rect><rect x="583" y="196" width="50" height="25" fill="rgba(100,100,100,1)"><title>1</title></rect><rect x="583" y="224" width="50" height="25" fill="rgba(100,100,100,1)"><title>1</title></rect><rect x="583" y="252" width="50" height="25" fill="rgba(100,100,100,1)"><title>1</title></rect><rect x="583" y="280" width="50" height="25" fill="rgba(100,100,100,1)"><title>1</title></rect><rect x="583" y="308" width="50" height="25" fill="rgba(100,100,100,1)"><title>1</title></rect><rect x="583" y="336" width="50" height="25" fill="rgba(100,100,100,1)"><title>1</title></rect><rect x="583" y="364" width="50" height="25" fill="rgba(100,100,100,1)"><title>1</title></rect><rect x="583" y="392" width="50" height="25" fill="rgba(100,100,100,1)"><title>1</title></rect><rect x="583" y="420" width="50" height="25" fill="rgba(100,100,100,1)"><title>1</title></rect><rect x="583" y="448" width="50" height="25" fill="rgba(100,100,100,1)"><title>1</title></rect><rect x="583" y="476" width="50" height="25" fill="rgba(100,100,100,1)"><title>1</title></rect><rect x="583" y="504" width="50" height="25" fill="rgba(100,100,100,1)"><title>1</title></rect><rect x="583" y="532" width="50" height="25" fill="rgba(100,100,100,1)"><title>1</title></rect><line x1="25" y1="208" x2="25" y2="292" stroke="black" stroke-width="1"></line><line x1="25" y1="208" x2="25" y2="124" stroke="black" stroke-width="1"></line><line x1="25" y1="292" x2="25" y2="264" stroke="black" stroke-width="1"></line><line x1="25" y1="292" x2="25" y2="376" stroke="black" stroke-width="1"></line><line x1="25" y1="376" x2="25" y2="320" stroke="black" stroke-width="1"></line><line x1="25" y1="376" x2="25" y2="404" stroke="black" stroke-width="1"></line><line x1="25" y1="404" x2="131" y2="516" stroke="black" stroke-width="1"></line><line x1="25" y1="404" x2="25" y2="432" stroke="black" stroke-width="1"></line><line x1="131" y1="516" x2="131" y2="544" stroke="black" stroke-width="1"></line><line x1="131" y1="516" x2="78" y2="460" stroke="black" stroke-width="1"></line><line x1="131" y1="544" x2="78" y2="488" stroke="black" stroke-width="1"></line><line x1="131" y1="544" x2="78" y2="544" stroke="black" stroke-width="1"></line><line x1="78" y1="544" x2="78" y2="516" stroke="black" stroke-width="1"></line><line x1="78" y1="544" x2="25" y2="572" stroke="black" stroke-width="1"></line><line x1="25" y1="572" x2="25" y2="544" stroke="black" stroke-width="1"></line><line x1="25" y1="572" x2="25" y2="516" stroke="black" stroke-width="1"></line><line x1="25" y1="544" x2="25" y2="488" stroke="black" stroke-width="1"></line><line x1="25" y1="124" x2="25" y2="264" stroke="black" stroke-width="1"></line><line x1="25" y1="124" x2="25" y2="96" stroke="black" stroke-width="1"></line><line x1="25" y1="264" x2="25" y2="152" stroke="black" stroke-width="1"></line><line x1="25" y1="264" x2="25" y2="320" stroke="black" stroke-width="1"></line><line x1="25" y1="320" x2="78" y2="292" stroke="black" stroke-width="1"></line><line x1="25" y1="320" x2="25" y2="432" stroke="black" stroke-width="1"></line><line x1="25" y1="432" x2="78" y2="460" stroke="black" stroke-width="1"></line><line x1="25" y1="432" x2="78" y2="320" stroke="black" stroke-width="1"></line><line x1="78" y1="460" x2="25" y2="348" stroke="black" stroke-width="1"></line><line x1="78" y1="460" x2="78" y2="488" stroke="black" stroke-width="1"></line><line x1="78" y1="488" x2="78" y2="376" stroke="black" stroke-width="1"></line><line x1="78" y1="488" x2="78" y2="516" stroke="black" stroke-width="1"></line><line x1="78" y1="516" x2="25" y2="516" stroke="black" stroke-width="1"></line><line x1="78" y1="516" x2="131" y2="404" stroke="black" stroke-width="1"></line><line x1="25" y1="516" x2="78" y2="432" stroke="black" stroke-width="1"></line><line x1="25" y1="516" x2="25" y2="488" stroke="black" stroke-width="1"></line><line x1="25" y1="488" x2="25" y2="460" stroke="black" stroke-width="1"></line><line x1="25" y1="96" x2="25" y2="40" stroke="black" stroke-width="1"></line><line x1="25" y1="96" x2="25" y2="152" stroke="black" stroke-width="1"></line><line x1="25" y1="152" x2="78" y2="96" stroke="black" stroke-width="1"></line><line x1="25" y1="152" x2="78" y2="292" stroke="black" stroke-width="1"></line><line x1="78" y1="292" x2="78" y2="320" stroke="black" stroke-width="1"></line><line x1="78" y1="292" x2="78" y2="152" stroke="black" stroke-width="1"></line><line x1="78" y1="320" x2="78" y2="208" stroke="black" stroke-width="1"></line><line x1="78" y1="320" x2="25" y2="348" stroke="black" stroke-width="1"></line><line x1="25" y1="348" x2="78" y2="236" stroke="black" stroke-width="1"></line><line x1="25" y1="348" x2="78" y2="376" stroke="black" stroke-width="1"></line><line x1="78" y1="376" x2="78" y2="180" stroke="black" stroke-width="1"></line><line x1="78" y1="376" x2="131" y2="404" stroke="black" stroke-width="1"></line><line x1="131" y1="404" x2="131" y2="236" stroke="black" stroke-width="1"></line><line x1="131" y1="404" x2="78" y2="432" stroke="black" stroke-width="1"></line><line x1="78" y1="432" x2="78" y2="348" stroke="black" stroke-width="1"></line><line x1="78" y1="432" x2="25" y2="460" stroke="black" stroke-width="1"></line><line x1="25" y1="460" x2="78" y2="404" stroke="black" stroke-width="1"></line><line x1="25" y1="40" x2="78" y2="68" stroke="black" stroke-width="1"></line><line x1="25" y1="40" x2="78" y2="96" stroke="black" stroke-width="1"></line><line x1="78" y1="96" x2="78" y2="152" stroke="black" stroke-width="1"></line><line x1="78" y1="96" x2="25" y2="68" stroke="black" stroke-width="1"></line><line x1="78" y1="152" x2="78" y2="124" stroke="black" stroke-width="1"></line><line x1="78" y1="152" x2="78" y2="208" stroke="black" stroke-width="1"></line><line x1="78" y1="208" x2="131" y2="152" stroke="black" stroke-width="1"></line><line x1="78" y1="208" x2="78" y2="236" stroke="black" stroke-width="1"></line><line x1="78" y1="236" x2="131" y2="124" stroke="black" stroke-width="1"></line><line x1="78" y1="236" x2="78" y2="180" stroke="black" stroke-width="1"></line><line x1="78" y1="180" x2="131" y2="68" stroke="black" stroke-width="1"></line><line x1="78" y1="180" x2="131" y2="236" stroke="black" stroke-width="1"></line><line x1="131" y1="236" x2="184" y2="124" stroke="black" stroke-width="1"></line><line x1="131" y1="236" x2="78" y2="348" stroke="black" stroke-width="1"></line><line x1="78" y1="348" x2="131" y2="208" stroke="black" stroke-width="1"></line><line x1="78" y1="348" x2="78" y2="404" stroke="black" stroke-width="1"></line><line x1="78" y1="404" x2="131" y2="320" stroke="black" stroke-width="1"></line><line x1="78" y1="68" x2="131" y2="96" stroke="black" stroke-width="1"></line><line x1="78" y1="68" x2="25" y2="68" stroke="black" stroke-width="1"></line><line x1="25" y1="68" x2="78" y2="124" stroke="black" stroke-width="1"></line><line x1="25" y1="68" x2="25" y2="180" stroke="black" stroke-width="1"></line><line x1="78" y1="124" x2="25" y2="236" stroke="black" stroke-width="1"></line><line x1="78" y1="124" x2="131" y2="152" stroke="black" stroke-width="1"></line><line x1="131" y1="152" x2="78" y2="264" stroke="black" stroke-width="1"></line><line x1="131" y1="152" x2="131" y2="124" stroke="black" stroke-width="1"></line><line x1="131" y1="124" x2="131" y2="264" stroke="black" stroke-width="1"></line><line x1="131" y1="124" x2="131" y2="68" stroke="black" stroke-width="1"></line><line x1="131" y1="68" x2="184" y2="124" stroke="black" stroke-width="1"></line><line x1="131" y1="68" x2="184" y2="236" stroke="black" stroke-width="1"></line><line x1="184" y1="124" x2="131" y2="208" stroke="black" stroke-width="1"></line><line x1="184" y1="124" x2="184" y2="264" stroke="black" stroke-width="1"></line><line x1="131" y1="208" x2="131" y2="320" stroke="black" stroke-width="1"></line><line x1="131" y1="208" x2="184" y2="292" stroke="black" stroke-width="1"></line><line x1="131" y1="320" x2="184" y2="348" stroke="black" stroke-width="1"></line><line x1="131" y1="96" x2="184" y2="152" stroke="black" stroke-width="1"></line><line x1="131" y1="96" x2="25" y2="180" stroke="black" stroke-width="1"></line><line x1="25" y1="180" x2="131" y2="180" stroke="black" stroke-width="1"></line><line x1="25" y1="180" x2="25" y2="236" stroke="black" stroke-width="1"></line><line x1="25" y1="236" x2="131" y2="292" stroke="black" stroke-width="1"></line><line x1="25" y1="236" x2="78" y2="264" stroke="black" stroke-width="1"></line><line x1="78" y1="264" x2="131" y2="376" stroke="black" stroke-width="1"></line><line x1="78" y1="264" x2="131" y2="264" stroke="black" stroke-width="1"></line><line x1="131" y1="264" x2="184" y2="236" stroke="black" stroke-width="1"></line><line x1="131" y1="264" x2="131" y2="460" stroke="black" stroke-width="1"></line><line x1="184" y1="236" x2="184" y2="432" stroke="black" stroke-width="1"></line><line x1="184" y1="236" x2="184" y2="264" stroke="black" stroke-width="1"></line><line x1="184" y1="264" x2="184" y2="404" stroke="black" stroke-width="1"></line><line x1="184" y1="264" x2="184" y2="292" stroke="black" stroke-width="1"></line><line x1="184" y1="292" x2="184" y2="460" stroke="black" stroke-width="1"></line><line x1="184" y1="292" x2="184" y2="348" stroke="black" stroke-width="1"></line><line x1="184" y1="348" x2="184" y2="488" stroke="black" stroke-width="1"></line><line x1="184" y1="152" x2="131" y2="180" stroke="black" stroke-width="1"></line><line x1="184" y1="152" x2="184" y2="40" stroke="black" stroke-width="1"></line><line x1="131" y1="180" x2="184" y2="96" stroke="black" stroke-width="1"></line><line x1="131" y1="180" x2="131" y2="292" stroke="black" stroke-width="1"></line><line x1="131" y1="292" x2="184" y2="180" stroke="black" stroke-width="1"></line><line x1="131" y1="292" x2="131" y2="376" stroke="black" stroke-width="1"></line><line x1="131" y1="376" x2="131" y2="460" stroke="black" stroke-width="1"></line><line x1="131" y1="376" x2="131" y2="348" stroke="black" stroke-width="1"></line><line x1="131" y1="460" x2="131" y2="432" stroke="black" stroke-width="1"></line><line x1="131" y1="460" x2="184" y2="432" stroke="black" stroke-width="1"></line><line x1="184" y1="432" x2="131" y2="488" stroke="black" stroke-width="1"></line><line x1="184" y1="432" x2="184" y2="404" stroke="black" stroke-width="1"></line><line x1="184" y1="404" x2="184" y2="516" stroke="black" stroke-width="1"></line><line x1="184" y1="404" x2="184" y2="460" stroke="black" stroke-width="1"></line><line x1="184" y1="460" x2="237" y2="516" stroke="black" stroke-width="1"></line><line x1="184" y1="460" x2="184" y2="488" stroke="black" stroke-width="1"></line><line x1="184" y1="488" x2="237" y2="488" stroke="black" stroke-width="1"></line><line x1="184" y1="40" x2="184" y2="96" stroke="black" stroke-width="1"></line><line x1="184" y1="40" x2="184" y2="68" stroke="black" stroke-width="1"></line><line x1="184" y1="96" x2="237" y2="96" stroke="black" stroke-width="1"></line><line x1="184" y1="96" x2="184" y2="180" stroke="black" stroke-width="1"></line><line x1="184" y1="180" x2="131" y2="348" stroke="black" stroke-width="1"></line><line x1="184" y1="180" x2="237" y2="152" stroke="black" stroke-width="1"></line><line x1="131" y1="348" x2="184" y2="208" stroke="black" stroke-width="1"></line><line x1="131" y1="348" x2="131" y2="432" stroke="black" stroke-width="1"></line><line x1="131" y1="432" x2="184" y2="320" stroke="black" stroke-width="1"></line><line x1="131" y1="432" x2="131" y2="488" stroke="black" stroke-width="1"></line><line x1="131" y1="488" x2="184" y2="376" stroke="black" stroke-width="1"></line><line x1="131" y1="488" x2="184" y2="516" stroke="black" stroke-width="1"></line><line x1="184" y1="516" x2="237" y2="460" stroke="black" stroke-width="1"></line><line x1="184" y1="516" x2="237" y2="516" stroke="black" stroke-width="1"></line><line x1="237" y1="516" x2="290" y2="516" stroke="black" stroke-width="1"></line><line x1="237" y1="516" x2="237" y2="488" stroke="black" stroke-width="1"></line><line x1="237" y1="488" x2="290" y2="488" stroke="black" stroke-width="1"></line><line x1="184" y1="68" x2="237" y2="96" stroke="black" stroke-width="1"></line><line x1="184" y1="68" x2="237" y2="40" stroke="black" stroke-width="1"></line><line x1="237" y1="96" x2="237" y2="68" stroke="black" stroke-width="1"></line><line x1="237" y1="96" x2="237" y2="152" stroke="black" stroke-width="1"></line><line x1="237" y1="152" x2="237" y2="124" stroke="black" stroke-width="1"></line><line x1="237" y1="152" x2="184" y2="208" stroke="black" stroke-width="1"></line><line x1="184" y1="208" x2="237" y2="180" stroke="black" stroke-width="1"></line><line x1="184" y1="208" x2="184" y2="320" stroke="black" stroke-width="1"></line><line x1="184" y1="320" x2="184" y2="376" stroke="black" stroke-width="1"></line><line x1="184" y1="320" x2="237" y2="236" stroke="black" stroke-width="1"></line><line x1="184" y1="376" x2="237" y2="460" stroke="black" stroke-width="1"></line><line x1="184" y1="376" x2="237" y2="320" stroke="black" stroke-width="1"></line><line x1="237" y1="460" x2="290" y2="516" stroke="black" stroke-width="1"></line><line x1="237" y1="460" x2="237" y2="376" stroke="black" stroke-width="1"></line><line x1="290" y1="516" x2="237" y2="432" stroke="black" stroke-width="1"></line><line x1="290" y1="516" x2="290" y2="488" stroke="black" stroke-width="1"></line><line x1="290" y1="488" x2="290" y2="460" stroke="black" stroke-width="1"></line><line x1="237" y1="40" x2="290" y2="96" stroke="black" stroke-width="1"></line><line x1="237" y1="40" x2="237" y2="68" stroke="black" stroke-width="1"></line><line x1="237" y1="68" x2="290" y2="124" stroke="black" stroke-width="1"></line><line x1="237" y1="68" x2="237" y2="124" stroke="black" stroke-width="1"></line><line x1="237" y1="124" x2="290" y2="152" stroke="black" stroke-width="1"></line><line x1="237" y1="124" x2="237" y2="180" stroke="black" stroke-width="1"></line><line x1="237" y1="180" x2="290" y2="208" stroke="black" stroke-width="1"></line><line x1="237" y1="180" x2="237" y2="236" stroke="black" stroke-width="1"></line><line x1="237" y1="236" x2="237" y2="208" stroke="black" stroke-width="1"></line><line x1="237" y1="236" x2="237" y2="320" stroke="black" stroke-width="1"></line><line x1="237" y1="320" x2="237" y2="376" stroke="black" stroke-width="1"></line><line x1="237" y1="320" x2="237" y2="292" stroke="black" stroke-width="1"></line><line x1="237" y1="376" x2="237" y2="348" stroke="black" stroke-width="1"></line><line x1="237" y1="376" x2="237" y2="432" stroke="black" stroke-width="1"></line><line x1="237" y1="432" x2="237" y2="404" stroke="black" stroke-width="1"></line><line x1="237" y1="432" x2="290" y2="460" stroke="black" stroke-width="1"></line><line x1="290" y1="460" x2="290" y2="432" stroke="black" stroke-width="1"></line><line x1="290" y1="460" x2="343" y2="488" stroke="black" stroke-width="1"></line><line x1="343" y1="488" x2="343" y2="460" stroke="black" stroke-width="1"></line><line x1="290" y1="96" x2="343" y2="96" stroke="black" stroke-width="1"></line><line x1="290" y1="96" x2="290" y2="124" stroke="black" stroke-width="1"></line><line x1="290" y1="124" x2="343" y2="124" stroke="black" stroke-width="1"></line><line x1="290" y1="124" x2="290" y2="152" stroke="black" stroke-width="1"></line><line x1="290" y1="152" x2="290" y2="180" stroke="black" stroke-width="1"></line><line x1="290" y1="152" x2="290" y2="208" stroke="black" stroke-width="1"></line><line x1="290" y1="208" x2="290" y2="236" stroke="black" stroke-width="1"></line><line x1="290" y1="208" x2="237" y2="208" stroke="black" stroke-width="1"></line><line x1="237" y1="208" x2="237" y2="292" stroke="black" stroke-width="1"></line><line x1="237" y1="208" x2="237" y2="264" stroke="black" stroke-width="1"></line><line x1="237" y1="292" x2="290" y2="320" stroke="black" stroke-width="1"></line><line x1="237" y1="292" x2="237" y2="348" stroke="black" stroke-width="1"></line><line x1="237" y1="348" x2="290" y2="348" stroke="black" stroke-width="1"></line><line x1="237" y1="348" x2="237" y2="404" stroke="black" stroke-width="1"></line><line x1="237" y1="404" x2="290" y2="376" stroke="black" stroke-width="1"></line><line x1="237" y1="404" x2="290" y2="432" stroke="black" stroke-width="1"></line><line x1="290" y1="432" x2="290" y2="404" stroke="black" stroke-width="1"></line><line x1="290" y1="432" x2="343" y2="460" stroke="black" stroke-width="1"></line><line x1="343" y1="460" x2="396" y2="348" stroke="black" stroke-width="1"></line><line x1="343" y1="96" x2="343" y2="124" stroke="black" stroke-width="1"></line><line x1="343" y1="96" x2="343" y2="68" stroke="black" stroke-width="1"></line><line x1="343" y1="124" x2="343" y2="152" stroke="black" stroke-width="1"></line><line x1="343" y1="124" x2="290" y2="180" stroke="black" stroke-width="1"></line><line x1="290" y1="180" x2="343" y2="208" stroke="black" stroke-width="1"></line><line x1="290" y1="180" x2="290" y2="236" stroke="black" stroke-width="1"></line><line x1="290" y1="236" x2="237" y2="264" stroke="black" stroke-width="1"></line><line x1="290" y1="236" x2="290" y2="264" stroke="black" stroke-width="1"></line><line x1="237" y1="264" x2="290" y2="292" stroke="black" stroke-width="1"></line><line x1="237" y1="264" x2="290" y2="320" stroke="black" stroke-width="1"></line><line x1="290" y1="320" x2="343" y2="292" stroke="black" stroke-width="1"></line><line x1="290" y1="320" x2="290" y2="348" stroke="black" stroke-width="1"></line><line x1="290" y1="348" x2="343" y2="348" stroke="black" stroke-width="1"></line><line x1="290" y1="348" x2="290" y2="376" stroke="black" stroke-width="1"></line><line x1="290" y1="376" x2="343" y2="404" stroke="black" stroke-width="1"></line><line x1="290" y1="376" x2="290" y2="404" stroke="black" stroke-width="1"></line><line x1="290" y1="404" x2="343" y2="432" stroke="black" stroke-width="1"></line><line x1="290" y1="404" x2="396" y2="348" stroke="black" stroke-width="1"></line><line x1="396" y1="348" x2="396" y2="320" stroke="black" stroke-width="1"></line><line x1="396" y1="348" x2="449" y2="348" stroke="black" stroke-width="1"></line><line x1="449" y1="348" x2="449" y2="320" stroke="black" stroke-width="1"></line><line x1="343" y1="68" x2="396" y2="96" stroke="black" stroke-width="1"></line><line x1="343" y1="68" x2="343" y2="152" stroke="black" stroke-width="1"></line><line x1="343" y1="152" x2="343" y2="208" stroke="black" stroke-width="1"></line><line x1="343" y1="152" x2="396" y2="152" stroke="black" stroke-width="1"></line><line x1="343" y1="208" x2="290" y2="264" stroke="black" stroke-width="1"></line><line x1="343" y1="208" x2="343" y2="180" stroke="black" stroke-width="1"></line><line x1="290" y1="264" x2="343" y2="236" stroke="black" stroke-width="1"></line><line x1="290" y1="264" x2="290" y2="292" stroke="black" stroke-width="1"></line><line x1="290" y1="292" x2="343" y2="264" stroke="black" stroke-width="1"></line><line x1="290" y1="292" x2="343" y2="292" stroke="black" stroke-width="1"></line><line x1="343" y1="292" x2="396" y2="292" stroke="black" stroke-width="1"></line><line x1="343" y1="292" x2="343" y2="348" stroke="black" stroke-width="1"></line><line x1="343" y1="348" x2="343" y2="320" stroke="black" stroke-width="1"></line><line x1="343" y1="348" x2="343" y2="404" stroke="black" stroke-width="1"></line><line x1="343" y1="404" x2="343" y2="376" stroke="black" stroke-width="1"></line><line x1="343" y1="404" x2="343" y2="432" stroke="black" stroke-width="1"></line><line x1="343" y1="432" x2="396" y2="432" stroke="black" stroke-width="1"></line><line x1="343" y1="432" x2="396" y2="320" stroke="black" stroke-width="1"></line><line x1="396" y1="320" x2="449" y2="376" stroke="black" stroke-width="1"></line><line x1="396" y1="320" x2="449" y2="320" stroke="black" stroke-width="1"></line><line x1="449" y1="320" x2="449" y2="404" stroke="black" stroke-width="1"></line><line x1="396" y1="96" x2="396" y2="152" stroke="black" stroke-width="1"></line><line x1="396" y1="96" x2="449" y2="96" stroke="black" stroke-width="1"></line><line x1="396" y1="152" x2="396" y2="124" stroke="black" stroke-width="1"></line><line x1="396" y1="152" x2="343" y2="180" stroke="black" stroke-width="1"></line><line x1="343" y1="180" x2="343" y2="236" stroke="black" stroke-width="1"></line><line x1="343" y1="180" x2="396" y2="180" stroke="black" stroke-width="1"></line><line x1="343" y1="236" x2="343" y2="264" stroke="black" stroke-width="1"></line><line x1="343" y1="236" x2="396" y2="208" stroke="black" stroke-width="1"></line><line x1="343" y1="264" x2="396" y2="292" stroke="black" stroke-width="1"></line><line x1="343" y1="264" x2="396" y2="236" stroke="black" stroke-width="1"></line><line x1="396" y1="292" x2="396" y2="264" stroke="black" stroke-width="1"></line><line x1="396" y1="292" x2="343" y2="320" stroke="black" stroke-width="1"></line><line x1="343" y1="320" x2="343" y2="376" stroke="black" stroke-width="1"></line><line x1="343" y1="320" x2="449" y2="292" stroke="black" stroke-width="1"></line><line x1="343" y1="376" x2="396" y2="376" stroke="black" stroke-width="1"></line><line x1="343" y1="376" x2="396" y2="432" stroke="black" stroke-width="1"></line><line x1="396" y1="432" x2="396" y2="404" stroke="black" stroke-width="1"></line><line x1="396" y1="432" x2="449" y2="376" stroke="black" stroke-width="1"></line><line x1="449" y1="376" x2="449" y2="432" stroke="black" stroke-width="1"></line><line x1="449" y1="376" x2="449" y2="404" stroke="black" stroke-width="1"></line><line x1="449" y1="404" x2="449" y2="460" stroke="black" stroke-width="1"></line><line x1="449" y1="96" x2="502" y2="96" stroke="black" stroke-width="1"></line><line x1="449" y1="96" x2="396" y2="124" stroke="black" stroke-width="1"></line><line x1="396" y1="124" x2="449" y2="124" stroke="black" stroke-width="1"></line><line x1="396" y1="124" x2="396" y2="180" stroke="black" stroke-width="1"></line><line x1="396" y1="180" x2="396" y2="208" stroke="black" stroke-width="1"></line><line x1="396" y1="180" x2="449" y2="152" stroke="black" stroke-width="1"></line><line x1="396" y1="208" x2="449" y2="180" stroke="black" stroke-width="1"></line><line x1="396" y1="208" x2="396" y2="236" stroke="black" stroke-width="1"></line><line x1="396" y1="236" x2="449" y2="208" stroke="black" stroke-width="1"></line><line x1="396" y1="236" x2="396" y2="264" stroke="black" stroke-width="1"></line><line x1="396" y1="264" x2="449" y2="292" stroke="black" stroke-width="1"></line><line x1="396" y1="264" x2="449" y2="236" stroke="black" stroke-width="1"></line><line x1="449" y1="292" x2="449" y2="264" stroke="black" stroke-width="1"></line><line x1="449" y1="292" x2="396" y2="376" stroke="black" stroke-width="1"></line><line x1="396" y1="376" x2="502" y2="320" stroke="black" stroke-width="1"></line><line x1="396" y1="376" x2="396" y2="404" stroke="black" stroke-width="1"></line><line x1="396" y1="404" x2="502" y2="376" stroke="black" stroke-width="1"></line><line x1="396" y1="404" x2="449" y2="432" stroke="black" stroke-width="1"></line><line x1="449" y1="432" x2="555" y2="432" stroke="black" stroke-width="1"></line><line x1="449" y1="432" x2="449" y2="460" stroke="black" stroke-width="1"></line><line x1="449" y1="460" x2="502" y2="460" stroke="black" stroke-width="1"></line><line x1="502" y1="96" x2="502" y2="236" stroke="black" stroke-width="1"></line><line x1="502" y1="96" x2="449" y2="124" stroke="black" stroke-width="1"></line><line x1="449" y1="124" x2="502" y2="208" stroke="black" stroke-width="1"></line><line x1="449" y1="124" x2="449" y2="152" stroke="black" stroke-width="1"></line><line x1="449" y1="152" x2="502" y2="152" stroke="black" stroke-width="1"></line><line x1="449" y1="152" x2="449" y2="180" stroke="black" stroke-width="1"></line><line x1="449" y1="180" x2="502" y2="124" stroke="black" stroke-width="1"></line><line x1="449" y1="180" x2="449" y2="208" stroke="black" stroke-width="1"></line><line x1="449" y1="208" x2="449" y2="236" stroke="black" stroke-width="1"></line><line x1="449" y1="208" x2="502" y2="180" stroke="black" stroke-width="1"></line><line x1="449" y1="236" x2="555" y2="124" stroke="black" stroke-width="1"></line><line x1="449" y1="236" x2="449" y2="264" stroke="black" stroke-width="1"></line><line x1="449" y1="264" x2="555" y2="152" stroke="black" stroke-width="1"></line><line x1="449" y1="264" x2="502" y2="320" stroke="black" stroke-width="1"></line><line x1="502" y1="320" x2="555" y2="264" stroke="black" stroke-width="1"></line><line x1="502" y1="320" x2="502" y2="376" stroke="black" stroke-width="1"></line><line x1="502" y1="376" x2="608" y2="404" stroke="black" stroke-width="1"></line><line x1="502" y1="376" x2="555" y2="432" stroke="black" stroke-width="1"></line><line x1="555" y1="432" x2="608" y2="432" stroke="black" stroke-width="1"></line><line x1="555" y1="432" x2="502" y2="460" stroke="black" stroke-width="1"></line><line x1="502" y1="460" x2="555" y2="404" stroke="black" stroke-width="1"></line><line x1="502" y1="236" x2="502" y2="208" stroke="black" stroke-width="1"></line><line x1="502" y1="236" x2="502" y2="432" stroke="black" stroke-width="1"></line><line x1="502" y1="208" x2="502" y2="348" stroke="black" stroke-width="1"></line><line x1="502" y1="208" x2="502" y2="152" stroke="black" stroke-width="1"></line><line x1="502" y1="152" x2="502" y2="292" stroke="black" stroke-width="1"></line><line x1="502" y1="152" x2="502" y2="124" stroke="black" stroke-width="1"></line><line x1="502" y1="124" x2="502" y2="180" stroke="black" stroke-width="1"></line><line x1="502" y1="124" x2="502" y2="264" stroke="black" stroke-width="1"></line><line x1="502" y1="180" x2="555" y2="292" stroke="black" stroke-width="1"></line><line x1="502" y1="180" x2="555" y2="124" stroke="black" stroke-width="1"></line><line x1="555" y1="124" x2="555" y2="208" stroke="black" stroke-width="1"></line><line x1="555" y1="124" x2="555" y2="152" stroke="black" stroke-width="1"></line><line x1="555" y1="152" x2="555" y2="180" stroke="black" stroke-width="1"></line><line x1="555" y1="152" x2="555" y2="264" stroke="black" stroke-width="1"></line><line x1="555" y1="264" x2="555" y2="236" stroke="black" stroke-width="1"></line><line x1="555" y1="264" x2="608" y2="404" stroke="black" stroke-width="1"></line><line x1="608" y1="404" x2="608" y2="348" stroke="black" stroke-width="1"></line><line x1="608" y1="404" x2="608" y2="432" stroke="black" stroke-width="1"></line><line x1="608" y1="432" x2="608" y2="320" stroke="black" stroke-width="1"></line><line x1="608" y1="432" x2="555" y2="404" stroke="black" stroke-width="1"></line><line x1="555" y1="404" x2="608" y2="292" stroke="black" stroke-width="1"></line><line x1="502" y1="432" x2="502" y2="348" stroke="black" stroke-width="1"></line><line x1="502" y1="432" x2="608" y2="516" stroke="black" stroke-width="1"></line><line x1="502" y1="348" x2="502" y2="292" stroke="black" stroke-width="1"></line><line x1="502" y1="348" x2="555" y2="460" stroke="black" stroke-width="1"></line><line x1="502" y1="292" x2="502" y2="264" stroke="black" stroke-width="1"></line><line x1="502" y1="292" x2="502" y2="404" stroke="black" stroke-width="1"></line><line x1="502" y1="264" x2="555" y2="292" stroke="black" stroke-width="1"></line><line x1="502" y1="264" x2="555" y2="376" stroke="black" stroke-width="1"></line><line x1="555" y1="292" x2="555" y2="208" stroke="black" stroke-width="1"></line><line x1="555" y1="292" x2="555" y2="348" stroke="black" stroke-width="1"></line><line x1="555" y1="208" x2="555" y2="320" stroke="black" stroke-width="1"></line><line x1="555" y1="208" x2="555" y2="180" stroke="black" stroke-width="1"></line><line x1="555" y1="180" x2="608" y2="264" stroke="black" stroke-width="1"></line><line x1="555" y1="180" x2="555" y2="236" stroke="black" stroke-width="1"></line><line x1="555" y1="236" x2="608" y2="348" stroke="black" stroke-width="1"></line><line x1="555" y1="236" x2="608" y2="236" stroke="black" stroke-width="1"></line><line x1="608" y1="348" x2="608" y2="180" stroke="black" stroke-width="1"></line><line x1="608" y1="348" x2="608" y2="320" stroke="black" stroke-width="1"></line><line x1="608" y1="320" x2="608" y2="292" stroke="black" stroke-width="1"></line><line x1="608" y1="320" x2="608" y2="152" stroke="black" stroke-width="1"></line><line x1="608" y1="292" x2="608" y2="124" stroke="black" stroke-width="1"></line><line x1="608" y1="516" x2="555" y2="544" stroke="black" stroke-width="1"></line><line x1="608" y1="516" x2="555" y2="460" stroke="black" stroke-width="1"></line><line x1="555" y1="460" x2="608" y2="544" stroke="black" stroke-width="1"></line><line x1="555" y1="460" x2="502" y2="404" stroke="black" stroke-width="1"></line><line x1="502" y1="404" x2="502" y2="488" stroke="black" stroke-width="1"></line><line x1="502" y1="404" x2="555" y2="376" stroke="black" stroke-width="1"></line><line x1="555" y1="376" x2="555" y2="516" stroke="black" stroke-width="1"></line><line x1="555" y1="376" x2="555" y2="348" stroke="black" stroke-width="1"></line><line x1="555" y1="348" x2="608" y2="488" stroke="black" stroke-width="1"></line><line x1="555" y1="348" x2="555" y2="320" stroke="black" stroke-width="1"></line><line x1="555" y1="320" x2="608" y2="460" stroke="black" stroke-width="1"></line><line x1="555" y1="320" x2="608" y2="264" stroke="black" stroke-width="1"></line><line x1="608" y1="264" x2="608" y2="236" stroke="black" stroke-width="1"></line><line x1="608" y1="264" x2="608" y2="376" stroke="black" stroke-width="1"></line><line x1="608" y1="236" x2="608" y2="208" stroke="black" stroke-width="1"></line><line x1="608" y1="236" x2="608" y2="180" stroke="black" stroke-width="1"></line><line x1="608" y1="180" x2="608" y2="152" stroke="black" stroke-width="1"></line><line x1="608" y1="180" x2="608" y2="96" stroke="black" stroke-width="1"></line><line x1="608" y1="152" x2="608" y2="68" stroke="black" stroke-width="1"></line><line x1="608" y1="152" x2="608" y2="124" stroke="black" stroke-width="1"></line><line x1="608" y1="124" x2="608" y2="40" stroke="black" stroke-width="1"></line><line x1="555" y1="544" x2="608" y2="544" stroke="black" stroke-width="1"></line><line x1="608" y1="544" x2="502" y2="488" stroke="black" stroke-width="1"></line><line x1="502" y1="488" x2="555" y2="516" stroke="black" stroke-width="1"></line><line x1="555" y1="516" x2="608" y2="488" stroke="black" stroke-width="1"></line><line x1="608" y1="488" x2="608" y2="460" stroke="black" stroke-width="1"></line><line x1="608" y1="460" x2="608" y2="376" stroke="black" stroke-width="1"></line><line x1="608" y1="376" x2="608" y2="208" stroke="black" stroke-width="1"></line><line x1="608" y1="208" x2="608" y2="96" stroke="black" stroke-width="1"></line><line x1="608" y1="96" x2="608" y2="68" stroke="black" stroke-width="1"></line><line x1="608" y1="68" x2="608" y2="40" stroke="black" stroke-width="1"></line></svg>