<svg xmlns="http://www.w3.org/2000/svg" width="248" height="227"><rect x="11" y="11" width="20" height="20" fill="rgb(230,230,230)"></rect><text x="21" y="21" text-anchor="middle" alignment-baseline="middle" fill="black">C</text><rect x="55" y="11" width="20" height="20" fill="rgb(230,230,230)"></rect><text x="65" y="21" text-anchor="middle" alignment-baseline="middle" fill="black">C</text><rect x="11" y="33" width="20" height="20" fill="rgb(230,230,230)"></rect><text x="21" y="43" text-anchor="middle" alignment-baseline="middle" fill="black">C</text><rect x="11" y="77" width="20" height="20" fill="rgb(230,230,230)"></rect><text x="21" y="87" text-anchor="middle" alignment-baseline="middle" fill="black">C</text><rect x="11" y="99" width="20" height="20" fill="rgb(230,230,230)"></rect><text x="21" y="109" text-anchor="middle" alignment-baseline="middle" fill="black">C</text><rect x="11" y="121" width="20" height="20" fill="rgb(230,230,230)"></rect><text x="21" y="131" text-anchor="middle" alignment-baseline="middle" fill="black">C</text><rect x="11" y="165" width="20" height="20" fill="rgb(230,230,230)"></rect><text x="21" y="175" text-anchor="middle" alignment-baseline="middle" fill="black">C</text><rect x="11" y="143" width="20" height="20" fill="rgb(230,230,230)"></rect><text x="21" y="153" text-anchor="middle" alignment-baseline="middle" fill="black">C</text><rect x="11" y="187" width="20" height="20" fill="rgb(230,230,230)"></rect><text x="21" y="197" text-anchor="middle" alignment-baseline="middle" fill="black">C</text><rect x="11" y="55" width="20" height="20" fill="rgb(230,230,230)"></rect><text x="21" y="65" text-anchor="middle" alignment-baseline="middle" fill="black">C</text><rect x="55" y="33" width="20" height="20" fill="rgb(230,230,230)"></rect><text x="65" y="43" text-anchor="middle" alignment-baseline="middle" fill="black">C</text><rect x="99" y="55" width="20" height="20" fill="rgb(230,230,230)"></rect><text x="109" y="65" text-anchor="middle" alignment-baseline="middle" fill="black">C</text><rect x="55" y="77" width="20" height="20" fill="rgb(230,230,230)"></rect><text x="65" y="87" text-anchor="middle" alignment-baseline="middle" fill="black">C</text><rect x="55" y="99" width="20" height="20" fill="rgb(230,230,230)"></rect><text x="65" y="109" text-anchor="middle" alignment-baseline="middle" fill="black">C</text><rect x="55" y="121" width="20" height="20" fill="rgb(230,230,230)"></rect><text x="65" y="131" text-anchor="middle" alignment-baseline="middle" fill="black">C</text><rect x="55" y="143" width="20" height="20" fill="rgb(230,230,230)"></rect><text x="65" y="153" text-anchor="middle" alignment-baseline="middle" fill="black">C</text><rect x="55" y="165" width="20" height="20" fill="rgb(230,230,230)"></rect><text x="65" y="175" text-anchor="middle" alignment-baseline="middle" fill="black">C</text><rect x="55" y="187" width="20" height="20" fill="rgb(230,230,230)"></rect><text x="65" y="197" text-anchor="middle" alignment-baseline="middle" fill="black">C</text><rect x="99" y="33" width="20" height="20" fill="rgb(230,230,230)"></rect><text x="109" y="43" text-anchor="middle" alignment-baseline="middle" fill="black">C</text><rect x="99" y="11" width="20" height="20" fill="rgb(230,230,230)"></rect><text x="109" y="21" text-anchor="middle" alignment-baseline="middle" fill="black">C</text><rect x="56" y="55" width="40" height="20" fill="rgb(230,230,230)"></rect><text x="76" y="65" text-anchor="middle" alignment-baseline="middle" fill="black">*</text><rect x="100" y="77" width="40" height="20" fill="rgb(230,230,230)"></rect><text x="120" y="87" text-anchor="middle" alignment-baseline="middle" fill="black">*</text><rect x="100" y="99" width="40" height="20" fill="rgb(230,230,230)"></rect><text x="120" y="109" text-anchor="middle" alignment-baseline="middle" fill="black">*</text><rect x="100" y="121" width="40" height="20" fill="rgb(230,230,230)"></rect><text x="120" y="131" text-anchor="middle" alignment-baseline="middle" fill="black">*</text><rect x="100" y="143" width="40" height="20" fill="rgb(230,230,230)"></rect><text x="120" y="153" text-anchor="middle" alignment-baseline="middle" fill="black">*</text><rect x="144" y="165" width="40" height="20" fill="rgb(230,230,230)"></rect><text x="164" y="175" text-anchor="middle" alignment-baseline="middle" fill="black">*</text><rect x="100" y="187" width="40" height="20" fill="rgb(230,230,230)"></rect><text x="120" y="197" text-anchor="middle" alignment-baseline="middle" fill="black">*</text><rect x="144" y="33" width="40" height="20" fill="rgb(230,230,230)"></rect><text x="164" y="43" text-anchor="middle" alignment-baseline="middle" fill="black">*</text><rect x="144" y="55" width="40" height="20" fill="rgb(230,230,230)"></rect><text x="164" y="65" text-anchor="middle" alignment-baseline="middle" fill="black">*</text><rect x="188" y="55" width="40" height="20" fill="rgb(230,230,230)"></rect><text x="208" y="65" text-anchor="middle" alignment-baseline="middle" fill="black">*</text><rect x="143" y="77" width="20" height="20" fill="rgb(230,230,230)"></rect><text x="153" y="87" text-anchor="middle" alignment-baseline="middle" fill="black">L</text><rect x="143" y="99" width="20" height="20" fill="rgb(230,230,230)"></rect><text x="153" y="109" text-anchor="middle" alignment-baseline="middle" fill="black">L</text><rect x="143" y="121" width="20" height="20" fill="rgb(230,230,230)"></rect><text x="153" y="131" text-anchor="middle" alignment-baseline="middle" fill="black">L</text><rect x="187" y="143" width="20" height="20" fill="rgb(230,230,230)"></rect><text x="197" y="153" text-anchor="middle" alignment-baseline="middle" fill="black">L</text><rect x="99" y="165" width="20" height="20" fill="rgb(230,230,230)"></rect><text x="109" y="175" text-anchor="middle" alignment-baseline="middle" fill="black">L</text><rect x="187" y="187" width="20" height="20" fill="rgb(230,230,230)"></rect><text x="197" y="197" text-anchor="middle" alignment-baseline="middle" fill="black">L</text><rect x="143" y="11" width="20" height="20" fill="rgb(230,230,230)"></rect><text x="153" y="21" text-anchor="middle" alignment-baseline="middle" fill="black">L</text><rect x="187" y="33" width="20" height="20" fill="rgb(230,230,230)"></rect><text x="197" y="43" text-anchor="middle" alignment-baseline="middle" fill="black">L</text><rect x="187" y="11" width="20" height="20" fill="rgb(230,230,230)"></rect><text x="197" y="21" text-anchor="middle" alignment-baseline="middle" fill="black">L</text><rect x="187" y="77" width="20" height="20" fill="rgb(230,230,230)"></rect><text x="197" y="87" text-anchor="middle" alignment-baseline="middle" fill="black">L</text><line x1="26" y1="26" x2="86" y2="70" stroke="red" stroke-width="1" /><line x1="70" y1="26" x2="86" y2="70" stroke="red" stroke-width="1" /><line x1="66" y1="70" x2="158" y2="92" stroke="red" stroke-width="1" /><line x1="26" y1="48" x2="130" y2="92" stroke="red" stroke-width="1" /><line x1="26" y1="92" x2="130" y2="92" stroke="red" stroke-width="1" /><line x1="110" y1="92" x2="158" y2="114" stroke="red" stroke-width="1" /><line x1="26" y1="136" x2="130" y2="114" stroke="red" stroke-width="1" /><line x1="26" y1="114" x2="130" y2="114" stroke="red" stroke-width="1" /><line x1="110" y1="114" x2="158" y2="136" stroke="red" stroke-width="1" /><line x1="26" y1="180" x2="130" y2="136" stroke="red" stroke-width="1" /><line x1="26" y1="158" x2="130" y2="136" stroke="red" stroke-width="1" /><line x1="110" y1="136" x2="202" y2="158" stroke="red" stroke-width="1" /><line x1="26" y1="70" x2="130" y2="158" stroke="red" stroke-width="1" /><line x1="26" y1="202" x2="130" y2="158" stroke="red" stroke-width="1" /><line x1="110" y1="158" x2="114" y2="180" stroke="red" stroke-width="1" /><line x1="70" y1="48" x2="174" y2="180" stroke="red" stroke-width="1" /><line x1="114" y1="70" x2="174" y2="180" stroke="red" stroke-width="1" /><line x1="154" y1="180" x2="202" y2="202" stroke="red" stroke-width="1" /><line x1="70" y1="92" x2="130" y2="202" stroke="red" stroke-width="1" /><line x1="70" y1="114" x2="130" y2="202" stroke="red" stroke-width="1" /><line x1="110" y1="202" x2="158" y2="26" stroke="red" stroke-width="1" /><line x1="70" y1="136" x2="174" y2="48" stroke="red" stroke-width="1" /><line x1="70" y1="158" x2="174" y2="48" stroke="red" stroke-width="1" /><line x1="154" y1="48" x2="202" y2="48" stroke="red" stroke-width="1" /><line x1="70" y1="180" x2="174" y2="70" stroke="red" stroke-width="1" /><line x1="70" y1="202" x2="174" y2="70" stroke="red" stroke-width="1" /><line x1="154" y1="70" x2="202" y2="26" stroke="red" stroke-width="1" /><line x1="114" y1="48" x2="218" y2="70" stroke="red" stroke-width="1" /><line x1="114" y1="26" x2="218" y2="70" stroke="red" stroke-width="1" /><line x1="198" y1="70" x2="202" y2="92" stroke="red" stroke-width="1" /></svg>