<svg xmlns="http://www.w3.org/2000/svg" width="763" height="205"><rect x="0" y="0" width="763" height="205" fill="rgb(255,255,255)"></rect><line x1="50" y1="150" x2="743" y2="150" stroke="black" stroke-width="1" /><line x1="50" y1="50" x2="50" y2="150" stroke="black" stroke-width="1" /><line x1="50" y1="50" x2="53" y2="50" stroke="blue" stroke-width="2" /><line x1="53" y1="50" x2="56" y2="50" stroke="blue" stroke-width="2" /><line x1="56" y1="50" x2="59" y2="55" stroke="blue" stroke-width="2" /><line x1="59" y1="55" x2="62" y2="119" stroke="blue" stroke-width="2" /><line x1="62" y1="119" x2="65" y2="129" stroke="blue" stroke-width="2" /><line x1="65" y1="129" x2="68" y2="129" stroke="blue" stroke-width="2" /><line x1="68" y1="129" x2="71" y2="131" stroke="blue" stroke-width="2" /><line x1="71" y1="131" x2="74" y2="131" stroke="blue" stroke-width="2" /><line x1="74" y1="131" x2="77" y2="132" stroke="blue" stroke-width="2" /><line x1="77" y1="132" x2="80" y2="132" stroke="blue" stroke-width="2" /><line x1="80" y1="132" x2="83" y2="133" stroke="blue" stroke-width="2" /><line x1="83" y1="133" x2="86" y2="133" stroke="blue" stroke-width="2" /><line x1="86" y1="133" x2="89" y2="133" stroke="blue" stroke-width="2" /><line x1="89" y1="133" x2="92" y2="133" stroke="blue" stroke-width="2" /><line x1="92" y1="133" x2="95" y2="133" stroke="blue" stroke-width="2" /><line x1="95" y1="133" x2="98" y2="136" stroke="blue" stroke-width="2" /><line x1="98" y1="136" x2="101" y2="136" stroke="blue" stroke-width="2" /><line x1="101" y1="136" x2="104" y2="137" stroke="blue" stroke-width="2" /><line x1="104" y1="137" x2="107" y2="137" stroke="blue" stroke-width="2" /><line x1="107" y1="137" x2="110" y2="138" stroke="blue" stroke-width="2" /><line x1="110" y1="138" x2="113" y2="139" stroke="blue" stroke-width="2" /><line x1="113" y1="139" x2="116" y2="139" stroke="blue" stroke-width="2" /><line x1="116" y1="139" x2="119" y2="139" stroke="blue" stroke-width="2" /><line x1="119" y1="139" x2="122" y2="140" stroke="blue" stroke-width="2" /><line x1="122" y1="140" x2="125" y2="140" stroke="blue" stroke-width="2" /><line x1="125" y1="140" x2="128" y2="140" stroke="blue" stroke-width="2" /><line x1="128" y1="140" x2="131" y2="140" stroke="blue" stroke-width="2" /><line x1="131" y1="140" x2="134" y2="140" stroke="blue" stroke-width="2" /><line x1="134" y1="140" x2="137" y2="141" stroke="blue" stroke-width="2" /><line x1="137" y1="141" x2="140" y2="141" stroke="blue" stroke-width="2" /><line x1="140" y1="141" x2="143" y2="141" stroke="blue" stroke-width="2" /><line x1="143" y1="141" x2="146" y2="141" stroke="blue" stroke-width="2" /><line x1="146" y1="141" x2="149" y2="141" stroke="blue" stroke-width="2" /><line x1="149" y1="141" x2="152" y2="141" stroke="blue" stroke-width="2" /><line x1="152" y1="141" x2="155" y2="141" stroke="blue" stroke-width="2" /><line x1="155" y1="141" x2="158" y2="141" stroke="blue" stroke-width="2" /><line x1="158" y1="141" x2="161" y2="141" stroke="blue" stroke-width="2" /><line x1="161" y1="141" x2="164" y2="141" stroke="blue" stroke-width="2" /><line x1="164" y1="141" x2="167" y2="141" stroke="blue" stroke-width="2" /><line x1="167" y1="141" x2="170" y2="141" stroke="blue" stroke-width="2" /><line x1="170" y1="141" x2="173" y2="141" stroke="blue" stroke-width="2" /><line x1="173" y1="141" x2="176" y2="141" stroke="blue" stroke-width="2" /><line x1="176" y1="141" x2="179" y2="142" stroke="blue" stroke-width="2" /><line x1="179" y1="142" x2="182" y2="142" stroke="blue" stroke-width="2" /><line x1="182" y1="142" x2="185" y2="142" stroke="blue" stroke-width="2" /><line x1="185" y1="142" x2="188" y2="142" stroke="blue" stroke-width="2" /><line x1="188" y1="142" x2="191" y2="142" stroke="blue" stroke-width="2" /><line x1="191" y1="142" x2="194" y2="142" stroke="blue" stroke-width="2" /><line x1="194" y1="142" x2="197" y2="142" stroke="blue" stroke-width="2" /><line x1="197" y1="142" x2="200" y2="142" stroke="blue" stroke-width="2" /><line x1="200" y1="142" x2="203" y2="142" stroke="blue" stroke-width="2" /><line x1="203" y1="142" x2="206" y2="142" stroke="blue" stroke-width="2" /><line x1="206" y1="142" x2="209" y2="142" stroke="blue" stroke-width="2" /><line x1="209" y1="142" x2="212" y2="142" stroke="blue" stroke-width="2" /><line x1="212" y1="142" x2="215" y2="142" stroke="blue" stroke-width="2" /><line x1="215" y1="142" x2="218" y2="142" stroke="blue" stroke-width="2" /><line x1="218" y1="142" x2="221" y2="143" stroke="blue" stroke-width="2" /><line x1="221" y1="143" x2="224" y2="143" stroke="blue" stroke-width="2" /><line x1="224" y1="143" x2="227" y2="144" stroke="blue" stroke-width="2" /><line x1="227" y1="144" x2="230" y2="144" stroke="blue" stroke-width="2" /><line x1="230" y1="144" x2="233" y2="144" stroke="blue" stroke-width="2" /><line x1="233" y1="144" x2="236" y2="144" stroke="blue" stroke-width="2" /><line x1="236" y1="144" x2="239" y2="144" stroke="blue" stroke-width="2" /><line x1="239" y1="144" x2="242" y2="144" stroke="blue" stroke-width="2" /><line x1="242" y1="144" x2="245" y2="145" stroke="blue" stroke-width="2" /><line x1="245" y1="145" x2="248" y2="145" stroke="blue" stroke-width="2" /><line x1="248" y1="145" x2="251" y2="145" stroke="blue" stroke-width="2" /><line x1="251" y1="145" x2="254" y2="145" stroke="blue" stroke-width="2" /><line x1="254" y1="145" x2="257" y2="145" stroke="blue" stroke-width="2" /><line x1="257" y1="145" x2="260" y2="145" stroke="blue" stroke-width="2" /><line x1="260" y1="145" x2="263" y2="145" stroke="blue" stroke-width="2" /><line x1="263" y1="145" x2="266" y2="145" stroke="blue" stroke-width="2" /><line x1="266" y1="145" x2="269" y2="145" stroke="blue" stroke-width="2" /><line x1="269" y1="145" x2="272" y2="145" stroke="blue" stroke-width="2" /><line x1="272" y1="145" x2="275" y2="145" stroke="blue" stroke-width="2" /><line x1="275" y1="145" x2="278" y2="145" stroke="blue" stroke-width="2" /><line x1="278" y1="145" x2="281" y2="145" stroke="blue" stroke-width="2" /><line x1="281" y1="145" x2="284" y2="145" stroke="blue" stroke-width="2" /><line x1="284" y1="145" x2="287" y2="145" stroke="blue" stroke-width="2" /><line x1="287" y1="145" x2="290" y2="145" stroke="blue" stroke-width="2" /><line x1="290" y1="145" x2="293" y2="145" stroke="blue" stroke-width="2" /><line x1="293" y1="145" x2="296" y2="145" stroke="blue" stroke-width="2" /><line x1="296" y1="145" x2="299" y2="145" stroke="blue" stroke-width="2" /><line x1="299" y1="145" x2="302" y2="145" stroke="blue" stroke-width="2" /><line x1="302" y1="145" x2="305" y2="145" stroke="blue" stroke-width="2" /><line x1="305" y1="145" x2="308" y2="145" stroke="blue" stroke-width="2" /><line x1="308" y1="145" x2="311" y2="145" stroke="blue" stroke-width="2" /><line x1="311" y1="145" x2="314" y2="145" stroke="blue" stroke-width="2" /><line x1="314" y1="145" x2="317" y2="145" stroke="blue" stroke-width="2" /><line x1="317" y1="145" x2="320" y2="145" stroke="blue" stroke-width="2" /><line x1="320" y1="145" x2="323" y2="145" stroke="blue" stroke-width="2" /><line x1="323" y1="145" x2="326" y2="146" stroke="blue" stroke-width="2" /><line x1="326" y1="146" x2="329" y2="146" stroke="blue" stroke-width="2" /><line x1="329" y1="146" x2="332" y2="146" stroke="blue" stroke-width="2" /><line x1="332" y1="146" x2="335" y2="146" stroke="blue" stroke-width="2" /><line x1="335" y1="146" x2="338" y2="146" stroke="blue" stroke-width="2" /><line x1="338" y1="146" x2="341" y2="146" stroke="blue" stroke-width="2" /><line x1="341" y1="146" x2="344" y2="146" stroke="blue" stroke-width="2" /><line x1="344" y1="146" x2="347" y2="146" stroke="blue" stroke-width="2" /><line x1="347" y1="146" x2="350" y2="146" stroke="blue" stroke-width="2" /><line x1="350" y1="146" x2="353" y2="146" stroke="blue" stroke-width="2" /><line x1="353" y1="146" x2="356" y2="146" stroke="blue" stroke-width="2" /><line x1="356" y1="146" x2="359" y2="146" stroke="blue" stroke-width="2" /><line x1="359" y1="146" x2="362" y2="146" stroke="blue" stroke-width="2" /><line x1="362" y1="146" x2="365" y2="146" stroke="blue" stroke-width="2" /><line x1="365" y1="146" x2="368" y2="146" stroke="blue" stroke-width="2" /><line x1="368" y1="146" x2="371" y2="146" stroke="blue" stroke-width="2" /><line x1="371" y1="146" x2="374" y2="146" stroke="blue" stroke-width="2" /><line x1="374" y1="146" x2="377" y2="146" stroke="blue" stroke-width="2" /><line x1="377" y1="146" x2="380" y2="146" stroke="blue" stroke-width="2" /><line x1="380" y1="146" x2="383" y2="146" stroke="blue" stroke-width="2" /><line x1="383" y1="146" x2="386" y2="146" stroke="blue" stroke-width="2" /><line x1="386" y1="146" x2="389" y2="146" stroke="blue" stroke-width="2" /><line x1="389" y1="146" x2="392" y2="146" stroke="blue" stroke-width="2" /><line x1="392" y1="146" x2="395" y2="146" stroke="blue" stroke-width="2" /><line x1="395" y1="146" x2="398" y2="146" stroke="blue" stroke-width="2" /><line x1="398" y1="146" x2="401" y2="146" stroke="blue" stroke-width="2" /><line x1="401" y1="146" x2="404" y2="146" stroke="blue" stroke-width="2" /><line x1="404" y1="146" x2="407" y2="146" stroke="blue" stroke-width="2" /><line x1="407" y1="146" x2="410" y2="146" stroke="blue" stroke-width="2" /><line x1="410" y1="146" x2="413" y2="146" stroke="blue" stroke-width="2" /><line x1="413" y1="146" x2="416" y2="146" stroke="blue" stroke-width="2" /><line x1="416" y1="146" x2="419" y2="146" stroke="blue" stroke-width="2" /><line x1="419" y1="146" x2="422" y2="146" stroke="blue" stroke-width="2" /><line x1="422" y1="146" x2="425" y2="146" stroke="blue" stroke-width="2" /><line x1="425" y1="146" x2="428" y2="146" stroke="blue" stroke-width="2" /><line x1="428" y1="146" x2="431" y2="146" stroke="blue" stroke-width="2" /><line x1="431" y1="146" x2="434" y2="146" stroke="blue" stroke-width="2" /><line x1="434" y1="146" x2="437" y2="146" stroke="blue" stroke-width="2" /><line x1="437" y1="146" x2="440" y2="146" stroke="blue" stroke-width="2" /><line x1="440" y1="146" x2="443" y2="146" stroke="blue" stroke-width="2" /><line x1="443" y1="146" x2="446" y2="146" stroke="blue" stroke-width="2" /><line x1="446" y1="146" x2="449" y2="146" stroke="blue" stroke-width="2" /><line x1="449" y1="146" x2="452" y2="146" stroke="blue" stroke-width="2" /><line x1="452" y1="146" x2="455" y2="146" stroke="blue" stroke-width="2" /><line x1="455" y1="146" x2="458" y2="146" stroke="blue" stroke-width="2" /><line x1="458" y1="146" x2="461" y2="146" stroke="blue" stroke-width="2" /><line x1="461" y1="146" x2="464" y2="146" stroke="blue" stroke-width="2" /><line x1="464" y1="146" x2="467" y2="146" stroke="blue" stroke-width="2" /><line x1="467" y1="146" x2="470" y2="146" stroke="blue" stroke-width="2" /><line x1="470" y1="146" x2="473" y2="146" stroke="blue" stroke-width="2" /><line x1="473" y1="146" x2="476" y2="146" stroke="blue" stroke-width="2" /><line x1="476" y1="146" x2="479" y2="146" stroke="blue" stroke-width="2" /><line x1="479" y1="146" x2="482" y2="146" stroke="blue" stroke-width="2" /><line x1="482" y1="146" x2="485" y2="146" stroke="blue" stroke-width="2" /><line x1="485" y1="146" x2="488" y2="146" stroke="blue" stroke-width="2" /><line x1="488" y1="146" x2="491" y2="146" stroke="blue" stroke-width="2" /><line x1="491" y1="146" x2="494" y2="146" stroke="blue" stroke-width="2" /><line x1="494" y1="146" x2="497" y2="146" stroke="blue" stroke-width="2" /><line x1="497" y1="146" x2="500" y2="146" stroke="blue" stroke-width="2" /><line x1="500" y1="146" x2="503" y2="146" stroke="blue" stroke-width="2" /><line x1="503" y1="146" x2="506" y2="146" stroke="blue" stroke-width="2" /><line x1="506" y1="146" x2="509" y2="146" stroke="blue" stroke-width="2" /><line x1="509" y1="146" x2="512" y2="146" stroke="blue" stroke-width="2" /><line x1="512" y1="146" x2="515" y2="146" stroke="blue" stroke-width="2" /><line x1="515" y1="146" x2="518" y2="146" stroke="blue" stroke-width="2" /><line x1="518" y1="146" x2="521" y2="146" stroke="blue" stroke-width="2" /><line x1="521" y1="146" x2="524" y2="146" stroke="blue" stroke-width="2" /><line x1="524" y1="146" x2="527" y2="146" stroke="blue" stroke-width="2" /><line x1="527" y1="146" x2="530" y2="146" stroke="blue" stroke-width="2" /><line x1="530" y1="146" x2="533" y2="146" stroke="blue" stroke-width="2" /><line x1="533" y1="146" x2="536" y2="146" stroke="blue" stroke-width="2" /><line x1="536" y1="146" x2="539" y2="146" stroke="blue" stroke-width="2" /><line x1="539" y1="146" x2="542" y2="146" stroke="blue" stroke-width="2" /><line x1="542" y1="146" x2="545" y2="146" stroke="blue" stroke-width="2" /><line x1="545" y1="146" x2="548" y2="146" stroke="blue" stroke-width="2" /><line x1="548" y1="146" x2="551" y2="146" stroke="blue" stroke-width="2" /><line x1="551" y1="146" x2="554" y2="146" stroke="blue" stroke-width="2" /><line x1="554" y1="146" x2="557" y2="146" stroke="blue" stroke-width="2" /><line x1="557" y1="146" x2="560" y2="146" stroke="blue" stroke-width="2" /><line x1="560" y1="146" x2="563" y2="146" stroke="blue" stroke-width="2" /><line x1="563" y1="146" x2="566" y2="146" stroke="blue" stroke-width="2" /><line x1="566" y1="146" x2="569" y2="146" stroke="blue" stroke-width="2" /><line x1="569" y1="146" x2="572" y2="146" stroke="blue" stroke-width="2" /><line x1="572" y1="146" x2="575" y2="146" stroke="blue" stroke-width="2" /><line x1="575" y1="146" x2="578" y2="146" stroke="blue" stroke-width="2" /><line x1="578" y1="146" x2="581" y2="146" stroke="blue" stroke-width="2" /><line x1="581" y1="146" x2="584" y2="146" stroke="blue" stroke-width="2" /><line x1="584" y1="146" x2="587" y2="146" stroke="blue" stroke-width="2" /><line x1="587" y1="146" x2="590" y2="146" stroke="blue" stroke-width="2" /><line x1="590" y1="146" x2="593" y2="146" stroke="blue" stroke-width="2" /><line x1="593" y1="146" x2="596" y2="146" stroke="blue" stroke-width="2" /><line x1="596" y1="146" x2="599" y2="146" stroke="blue" stroke-width="2" /><line x1="599" y1="146" x2="602" y2="146" stroke="blue" stroke-width="2" /><line x1="602" y1="146" x2="605" y2="146" stroke="blue" stroke-width="2" /><line x1="605" y1="146" x2="608" y2="146" stroke="blue" stroke-width="2" /><line x1="608" y1="146" x2="611" y2="146" stroke="blue" stroke-width="2" /><line x1="611" y1="146" x2="614" y2="146" stroke="blue" stroke-width="2" /><line x1="614" y1="146" x2="617" y2="146" stroke="blue" stroke-width="2" /><line x1="617" y1="146" x2="620" y2="146" stroke="blue" stroke-width="2" /><line x1="620" y1="146" x2="623" y2="146" stroke="blue" stroke-width="2" /><line x1="623" y1="146" x2="626" y2="146" stroke="blue" stroke-width="2" /><line x1="626" y1="146" x2="629" y2="146" stroke="blue" stroke-width="2" /><line x1="629" y1="146" x2="632" y2="146" stroke="blue" stroke-width="2" /><line x1="632" y1="146" x2="635" y2="146" stroke="blue" stroke-width="2" /><line x1="635" y1="146" x2="638" y2="146" stroke="blue" stroke-width="2" /><line x1="638" y1="146" x2="641" y2="146" stroke="blue" stroke-width="2" /><line x1="641" y1="146" x2="644" y2="146" stroke="blue" stroke-width="2" /><line x1="644" y1="146" x2="647" y2="146" stroke="blue" stroke-width="2" /><line x1="647" y1="146" x2="650" y2="146" stroke="blue" stroke-width="2" /><line x1="650" y1="146" x2="653" y2="146" stroke="blue" stroke-width="2" /><line x1="653" y1="146" x2="656" y2="146" stroke="blue" stroke-width="2" /><line x1="656" y1="146" x2="659" y2="146" stroke="blue" stroke-width="2" /><line x1="659" y1="146" x2="662" y2="146" stroke="blue" stroke-width="2" /><line x1="662" y1="146" x2="665" y2="146" stroke="blue" stroke-width="2" /><line x1="665" y1="146" x2="668" y2="146" stroke="blue" stroke-width="2" /><line x1="668" y1="146" x2="671" y2="146" stroke="blue" stroke-width="2" /><line x1="671" y1="146" x2="674" y2="146" stroke="blue" stroke-width="2" /><line x1="674" y1="146" x2="677" y2="146" stroke="blue" stroke-width="2" /><line x1="677" y1="146" x2="680" y2="146" stroke="blue" stroke-width="2" /><line x1="680" y1="146" x2="683" y2="146" stroke="blue" stroke-width="2" /><line x1="683" y1="146" x2="686" y2="146" stroke="blue" stroke-width="2" /><line x1="686" y1="146" x2="689" y2="146" stroke="blue" stroke-width="2" /><line x1="689" y1="146" x2="692" y2="146" stroke="blue" stroke-width="2" /><line x1="692" y1="146" x2="695" y2="146" stroke="blue" stroke-width="2" /><line x1="695" y1="146" x2="698" y2="146" stroke="blue" stroke-width="2" /><line x1="698" y1="146" x2="701" y2="146" stroke="blue" stroke-width="2" /><line x1="701" y1="146" x2="704" y2="146" stroke="blue" stroke-width="2" /><line x1="704" y1="146" x2="707" y2="146" stroke="blue" stroke-width="2" /><line x1="707" y1="146" x2="710" y2="146" stroke="blue" stroke-width="2" /><line x1="710" y1="146" x2="713" y2="146" stroke="blue" stroke-width="2" /><line x1="713" y1="146" x2="716" y2="146" stroke="blue" stroke-width="2" /><line x1="716" y1="146" x2="719" y2="146" stroke="blue" stroke-width="2" /><line x1="719" y1="146" x2="722" y2="146" stroke="blue" stroke-width="2" /><line x1="722" y1="146" x2="725" y2="146" stroke="blue" stroke-width="2" /><line x1="725" y1="146" x2="728" y2="146" stroke="blue" stroke-width="2" /><line x1="728" y1="146" x2="731" y2="146" stroke="blue" stroke-width="2" /><line x1="731" y1="146" x2="734" y2="146" stroke="blue" stroke-width="2" /><line x1="734" y1="146" x2="737" y2="146" stroke="blue" stroke-width="2" /><line x1="737" y1="146" x2="740" y2="146" stroke="blue" stroke-width="2" /><line x1="740" y1="146" x2="743" y2="146" stroke="blue" stroke-width="2" /><text x="381" y="25" fill="black" font-size="16" text-anchor="middle">Sat count over time</text><text x="396" y="185" fill="black" font-size="12" text-anchor="middle">Number</text><text x="25" y="100" fill="black" font-size="12" text-anchor="middle" transform="rotate(-90 25 100)">Count</text></svg>