<svg xmlns="http://www.w3.org/2000/svg" width="1087" height="205"><rect x="0" y="0" width="1087" height="205" fill="rgb(255,255,255)"></rect><line x1="50" y1="150" x2="1067" y2="150" stroke="black" stroke-width="1" /><line x1="50" y1="50" x2="50" y2="150" stroke="black" stroke-width="1" /><line x1="50" y1="50" x2="53" y2="58" stroke="blue" stroke-width="2" /><line x1="53" y1="58" x2="56" y2="58" stroke="blue" stroke-width="2" /><line x1="56" y1="58" x2="59" y2="64" stroke="blue" stroke-width="2" /><line x1="59" y1="64" x2="62" y2="64" stroke="blue" stroke-width="2" /><line x1="62" y1="64" x2="65" y2="81" stroke="blue" stroke-width="2" /><line x1="65" y1="81" x2="68" y2="81" stroke="blue" stroke-width="2" /><line x1="68" y1="81" x2="71" y2="83" stroke="blue" stroke-width="2" /><line x1="71" y1="83" x2="74" y2="83" stroke="blue" stroke-width="2" /><line x1="74" y1="83" x2="77" y2="83" stroke="blue" stroke-width="2" /><line x1="77" y1="83" x2="80" y2="84" stroke="blue" stroke-width="2" /><line x1="80" y1="84" x2="83" y2="84" stroke="blue" stroke-width="2" /><line x1="83" y1="84" x2="86" y2="84" stroke="blue" stroke-width="2" /><line x1="86" y1="84" x2="89" y2="84" stroke="blue" stroke-width="2" /><line x1="89" y1="84" x2="92" y2="85" stroke="blue" stroke-width="2" /><line x1="92" y1="85" x2="95" y2="85" stroke="blue" stroke-width="2" /><line x1="95" y1="85" x2="98" y2="85" stroke="blue" stroke-width="2" /><line x1="98" y1="85" x2="101" y2="85" stroke="blue" stroke-width="2" /><line x1="101" y1="85" x2="104" y2="85" stroke="blue" stroke-width="2" /><line x1="104" y1="85" x2="107" y2="102" stroke="blue" stroke-width="2" /><line x1="107" y1="102" x2="110" y2="107" stroke="blue" stroke-width="2" /><line x1="110" y1="107" x2="113" y2="107" stroke="blue" stroke-width="2" /><line x1="113" y1="107" x2="116" y2="107" stroke="blue" stroke-width="2" /><line x1="116" y1="107" x2="119" y2="108" stroke="blue" stroke-width="2" /><line x1="119" y1="108" x2="122" y2="110" stroke="blue" stroke-width="2" /><line x1="122" y1="110" x2="125" y2="112" stroke="blue" stroke-width="2" /><line x1="125" y1="112" x2="128" y2="112" stroke="blue" stroke-width="2" /><line x1="128" y1="112" x2="131" y2="113" stroke="blue" stroke-width="2" /><line x1="131" y1="113" x2="134" y2="113" stroke="blue" stroke-width="2" /><line x1="134" y1="113" x2="137" y2="113" stroke="blue" stroke-width="2" /><line x1="137" y1="113" x2="140" y2="113" stroke="blue" stroke-width="2" /><line x1="140" y1="113" x2="143" y2="113" stroke="blue" stroke-width="2" /><line x1="143" y1="113" x2="146" y2="113" stroke="blue" stroke-width="2" /><line x1="146" y1="113" x2="149" y2="114" stroke="blue" stroke-width="2" /><line x1="149" y1="114" x2="152" y2="114" stroke="blue" stroke-width="2" /><line x1="152" y1="114" x2="155" y2="114" stroke="blue" stroke-width="2" /><line x1="155" y1="114" x2="158" y2="114" stroke="blue" stroke-width="2" /><line x1="158" y1="114" x2="161" y2="114" stroke="blue" stroke-width="2" /><line x1="161" y1="114" x2="164" y2="115" stroke="blue" stroke-width="2" /><line x1="164" y1="115" x2="167" y2="115" stroke="blue" stroke-width="2" /><line x1="167" y1="115" x2="170" y2="115" stroke="blue" stroke-width="2" /><line x1="170" y1="115" x2="173" y2="116" stroke="blue" stroke-width="2" /><line x1="173" y1="116" x2="176" y2="116" stroke="blue" stroke-width="2" /><line x1="176" y1="116" x2="179" y2="121" stroke="blue" stroke-width="2" /><line x1="179" y1="121" x2="182" y2="121" stroke="blue" stroke-width="2" /><line x1="182" y1="121" x2="185" y2="121" stroke="blue" stroke-width="2" /><line x1="185" y1="121" x2="188" y2="121" stroke="blue" stroke-width="2" /><line x1="188" y1="121" x2="191" y2="121" stroke="blue" stroke-width="2" /><line x1="191" y1="121" x2="194" y2="121" stroke="blue" stroke-width="2" /><line x1="194" y1="121" x2="197" y2="121" stroke="blue" stroke-width="2" /><line x1="197" y1="121" x2="200" y2="121" stroke="blue" stroke-width="2" /><line x1="200" y1="121" x2="203" y2="121" stroke="blue" stroke-width="2" /><line x1="203" y1="121" x2="206" y2="121" stroke="blue" stroke-width="2" /><line x1="206" y1="121" x2="209" y2="121" stroke="blue" stroke-width="2" /><line x1="209" y1="121" x2="212" y2="121" stroke="blue" stroke-width="2" /><line x1="212" y1="121" x2="215" y2="121" stroke="blue" stroke-width="2" /><line x1="215" y1="121" x2="218" y2="121" stroke="blue" stroke-width="2" /><line x1="218" y1="121" x2="221" y2="122" stroke="blue" stroke-width="2" /><line x1="221" y1="122" x2="224" y2="122" stroke="blue" stroke-width="2" /><line x1="224" y1="122" x2="227" y2="122" stroke="blue" stroke-width="2" /><line x1="227" y1="122" x2="230" y2="122" stroke="blue" stroke-width="2" /><line x1="230" y1="122" x2="233" y2="122" stroke="blue" stroke-width="2" /><line x1="233" y1="122" x2="236" y2="122" stroke="blue" stroke-width="2" /><line x1="236" y1="122" x2="239" y2="122" stroke="blue" stroke-width="2" /><line x1="239" y1="122" x2="242" y2="122" stroke="blue" stroke-width="2" /><line x1="242" y1="122" x2="245" y2="122" stroke="blue" stroke-width="2" /><line x1="245" y1="122" x2="248" y2="122" stroke="blue" stroke-width="2" /><line x1="248" y1="122" x2="251" y2="122" stroke="blue" stroke-width="2" /><line x1="251" y1="122" x2="254" y2="122" stroke="blue" stroke-width="2" /><line x1="254" y1="122" x2="257" y2="122" stroke="blue" stroke-width="2" /><line x1="257" y1="122" x2="260" y2="122" stroke="blue" stroke-width="2" /><line x1="260" y1="122" x2="263" y2="122" stroke="blue" stroke-width="2" /><line x1="263" y1="122" x2="266" y2="125" stroke="blue" stroke-width="2" /><line x1="266" y1="125" x2="269" y2="125" stroke="blue" stroke-width="2" /><line x1="269" y1="125" x2="272" y2="126" stroke="blue" stroke-width="2" /><line x1="272" y1="126" x2="275" y2="126" stroke="blue" stroke-width="2" /><line x1="275" y1="126" x2="278" y2="126" stroke="blue" stroke-width="2" /><line x1="278" y1="126" x2="281" y2="128" stroke="blue" stroke-width="2" /><line x1="281" y1="128" x2="284" y2="128" stroke="blue" stroke-width="2" /><line x1="284" y1="128" x2="287" y2="128" stroke="blue" stroke-width="2" /><line x1="287" y1="128" x2="290" y2="128" stroke="blue" stroke-width="2" /><line x1="290" y1="128" x2="293" y2="128" stroke="blue" stroke-width="2" /><line x1="293" y1="128" x2="296" y2="128" stroke="blue" stroke-width="2" /><line x1="296" y1="128" x2="299" y2="128" stroke="blue" stroke-width="2" /><line x1="299" y1="128" x2="302" y2="129" stroke="blue" stroke-width="2" /><line x1="302" y1="129" x2="305" y2="129" stroke="blue" stroke-width="2" /><line x1="305" y1="129" x2="308" y2="129" stroke="blue" stroke-width="2" /><line x1="308" y1="129" x2="311" y2="129" stroke="blue" stroke-width="2" /><line x1="311" y1="129" x2="314" y2="129" stroke="blue" stroke-width="2" /><line x1="314" y1="129" x2="317" y2="129" stroke="blue" stroke-width="2" /><line x1="317" y1="129" x2="320" y2="129" stroke="blue" stroke-width="2" /><line x1="320" y1="129" x2="323" y2="129" stroke="blue" stroke-width="2" /><line x1="323" y1="129" x2="326" y2="129" stroke="blue" stroke-width="2" /><line x1="326" y1="129" x2="329" y2="130" stroke="blue" stroke-width="2" /><line x1="329" y1="130" x2="332" y2="131" stroke="blue" stroke-width="2" /><line x1="332" y1="131" x2="335" y2="131" stroke="blue" stroke-width="2" /><line x1="335" y1="131" x2="338" y2="131" stroke="blue" stroke-width="2" /><line x1="338" y1="131" x2="341" y2="131" stroke="blue" stroke-width="2" /><line x1="341" y1="131" x2="344" y2="132" stroke="blue" stroke-width="2" /><line x1="344" y1="132" x2="347" y2="132" stroke="blue" stroke-width="2" /><line x1="347" y1="132" x2="350" y2="132" stroke="blue" stroke-width="2" /><line x1="350" y1="132" x2="353" y2="132" stroke="blue" stroke-width="2" /><line x1="353" y1="132" x2="356" y2="132" stroke="blue" stroke-width="2" /><line x1="356" y1="132" x2="359" y2="132" stroke="blue" stroke-width="2" /><line x1="359" y1="132" x2="362" y2="132" stroke="blue" stroke-width="2" /><line x1="362" y1="132" x2="365" y2="132" stroke="blue" stroke-width="2" /><line x1="365" y1="132" x2="368" y2="132" stroke="blue" stroke-width="2" /><line x1="368" y1="132" x2="371" y2="133" stroke="blue" stroke-width="2" /><line x1="371" y1="133" x2="374" y2="133" stroke="blue" stroke-width="2" /><line x1="374" y1="133" x2="377" y2="133" stroke="blue" stroke-width="2" /><line x1="377" y1="133" x2="380" y2="133" stroke="blue" stroke-width="2" /><line x1="380" y1="133" x2="383" y2="133" stroke="blue" stroke-width="2" /><line x1="383" y1="133" x2="386" y2="133" stroke="blue" stroke-width="2" /><line x1="386" y1="133" x2="389" y2="133" stroke="blue" stroke-width="2" /><line x1="389" y1="133" x2="392" y2="133" stroke="blue" stroke-width="2" /><line x1="392" y1="133" x2="395" y2="133" stroke="blue" stroke-width="2" /><line x1="395" y1="133" x2="398" y2="133" stroke="blue" stroke-width="2" /><line x1="398" y1="133" x2="401" y2="133" stroke="blue" stroke-width="2" /><line x1="401" y1="133" x2="404" y2="133" stroke="blue" stroke-width="2" /><line x1="404" y1="133" x2="407" y2="133" stroke="blue" stroke-width="2" /><line x1="407" y1="133" x2="410" y2="133" stroke="blue" stroke-width="2" /><line x1="410" y1="133" x2="413" y2="133" stroke="blue" stroke-width="2" /><line x1="413" y1="133" x2="416" y2="133" stroke="blue" stroke-width="2" /><line x1="416" y1="133" x2="419" y2="134" stroke="blue" stroke-width="2" /><line x1="419" y1="134" x2="422" y2="134" stroke="blue" stroke-width="2" /><line x1="422" y1="134" x2="425" y2="134" stroke="blue" stroke-width="2" /><line x1="425" y1="134" x2="428" y2="134" stroke="blue" stroke-width="2" /><line x1="428" y1="134" x2="431" y2="134" stroke="blue" stroke-width="2" /><line x1="431" y1="134" x2="434" y2="134" stroke="blue" stroke-width="2" /><line x1="434" y1="134" x2="437" y2="134" stroke="blue" stroke-width="2" /><line x1="437" y1="134" x2="440" y2="134" stroke="blue" stroke-width="2" /><line x1="440" y1="134" x2="443" y2="134" stroke="blue" stroke-width="2" /><line x1="443" y1="134" x2="446" y2="135" stroke="blue" stroke-width="2" /><line x1="446" y1="135" x2="449" y2="135" stroke="blue" stroke-width="2" /><line x1="449" y1="135" x2="452" y2="135" stroke="blue" stroke-width="2" /><line x1="452" y1="135" x2="455" y2="135" stroke="blue" stroke-width="2" /><line x1="455" y1="135" x2="458" y2="135" stroke="blue" stroke-width="2" /><line x1="458" y1="135" x2="461" y2="135" stroke="blue" stroke-width="2" /><line x1="461" y1="135" x2="464" y2="135" stroke="blue" stroke-width="2" /><line x1="464" y1="135" x2="467" y2="135" stroke="blue" stroke-width="2" /><line x1="467" y1="135" x2="470" y2="135" stroke="blue" stroke-width="2" /><line x1="470" y1="135" x2="473" y2="135" stroke="blue" stroke-width="2" /><line x1="473" y1="135" x2="476" y2="135" stroke="blue" stroke-width="2" /><line x1="476" y1="135" x2="479" y2="135" stroke="blue" stroke-width="2" /><line x1="479" y1="135" x2="482" y2="135" stroke="blue" stroke-width="2" /><line x1="482" y1="135" x2="485" y2="135" stroke="blue" stroke-width="2" /><line x1="485" y1="135" x2="488" y2="135" stroke="blue" stroke-width="2" /><line x1="488" y1="135" x2="491" y2="135" stroke="blue" stroke-width="2" /><line x1="491" y1="135" x2="494" y2="135" stroke="blue" stroke-width="2" /><line x1="494" y1="135" x2="497" y2="135" stroke="blue" stroke-width="2" /><line x1="497" y1="135" x2="500" y2="135" stroke="blue" stroke-width="2" /><line x1="500" y1="135" x2="503" y2="135" stroke="blue" stroke-width="2" /><line x1="503" y1="135" x2="506" y2="135" stroke="blue" stroke-width="2" /><line x1="506" y1="135" x2="509" y2="135" stroke="blue" stroke-width="2" /><line x1="509" y1="135" x2="512" y2="135" stroke="blue" stroke-width="2" /><line x1="512" y1="135" x2="515" y2="135" stroke="blue" stroke-width="2" /><line x1="515" y1="135" x2="518" y2="135" stroke="blue" stroke-width="2" /><line x1="518" y1="135" x2="521" y2="135" stroke="blue" stroke-width="2" /><line x1="521" y1="135" x2="524" y2="135" stroke="blue" stroke-width="2" /><line x1="524" y1="135" x2="527" y2="135" stroke="blue" stroke-width="2" /><line x1="527" y1="135" x2="530" y2="137" stroke="blue" stroke-width="2" /><line x1="530" y1="137" x2="533" y2="137" stroke="blue" stroke-width="2" /><line x1="533" y1="137" x2="536" y2="137" stroke="blue" stroke-width="2" /><line x1="536" y1="137" x2="539" y2="137" stroke="blue" stroke-width="2" /><line x1="539" y1="137" x2="542" y2="137" stroke="blue" stroke-width="2" /><line x1="542" y1="137" x2="545" y2="137" stroke="blue" stroke-width="2" /><line x1="545" y1="137" x2="548" y2="137" stroke="blue" stroke-width="2" /><line x1="548" y1="137" x2="551" y2="138" stroke="blue" stroke-width="2" /><line x1="551" y1="138" x2="554" y2="138" stroke="blue" stroke-width="2" /><line x1="554" y1="138" x2="557" y2="138" stroke="blue" stroke-width="2" /><line x1="557" y1="138" x2="560" y2="138" stroke="blue" stroke-width="2" /><line x1="560" y1="138" x2="563" y2="138" stroke="blue" stroke-width="2" /><line x1="563" y1="138" x2="566" y2="138" stroke="blue" stroke-width="2" /><line x1="566" y1="138" x2="569" y2="138" stroke="blue" stroke-width="2" /><line x1="569" y1="138" x2="572" y2="138" stroke="blue" stroke-width="2" /><line x1="572" y1="138" x2="575" y2="138" stroke="blue" stroke-width="2" /><line x1="575" y1="138" x2="578" y2="138" stroke="blue" stroke-width="2" /><line x1="578" y1="138" x2="581" y2="138" stroke="blue" stroke-width="2" /><line x1="581" y1="138" x2="584" y2="138" stroke="blue" stroke-width="2" /><line x1="584" y1="138" x2="587" y2="138" stroke="blue" stroke-width="2" /><line x1="587" y1="138" x2="590" y2="138" stroke="blue" stroke-width="2" /><line x1="590" y1="138" x2="593" y2="138" stroke="blue" stroke-width="2" /><line x1="593" y1="138" x2="596" y2="138" stroke="blue" stroke-width="2" /><line x1="596" y1="138" x2="599" y2="138" stroke="blue" stroke-width="2" /><line x1="599" y1="138" x2="602" y2="138" stroke="blue" stroke-width="2" /><line x1="602" y1="138" x2="605" y2="138" stroke="blue" stroke-width="2" /><line x1="605" y1="138" x2="608" y2="139" stroke="blue" stroke-width="2" /><line x1="608" y1="139" x2="611" y2="139" stroke="blue" stroke-width="2" /><line x1="611" y1="139" x2="614" y2="139" stroke="blue" stroke-width="2" /><line x1="614" y1="139" x2="617" y2="139" stroke="blue" stroke-width="2" /><line x1="617" y1="139" x2="620" y2="139" stroke="blue" stroke-width="2" /><line x1="620" y1="139" x2="623" y2="139" stroke="blue" stroke-width="2" /><line x1="623" y1="139" x2="626" y2="139" stroke="blue" stroke-width="2" /><line x1="626" y1="139" x2="629" y2="140" stroke="blue" stroke-width="2" /><line x1="629" y1="140" x2="632" y2="140" stroke="blue" stroke-width="2" /><line x1="632" y1="140" x2="635" y2="140" stroke="blue" stroke-width="2" /><line x1="635" y1="140" x2="638" y2="140" stroke="blue" stroke-width="2" /><line x1="638" y1="140" x2="641" y2="140" stroke="blue" stroke-width="2" /><line x1="641" y1="140" x2="644" y2="140" stroke="blue" stroke-width="2" /><line x1="644" y1="140" x2="647" y2="140" stroke="blue" stroke-width="2" /><line x1="647" y1="140" x2="650" y2="140" stroke="blue" stroke-width="2" /><line x1="650" y1="140" x2="653" y2="140" stroke="blue" stroke-width="2" /><line x1="653" y1="140" x2="656" y2="140" stroke="blue" stroke-width="2" /><line x1="656" y1="140" x2="659" y2="140" stroke="blue" stroke-width="2" /><line x1="659" y1="140" x2="662" y2="140" stroke="blue" stroke-width="2" /><line x1="662" y1="140" x2="665" y2="140" stroke="blue" stroke-width="2" /><line x1="665" y1="140" x2="668" y2="140" stroke="blue" stroke-width="2" /><line x1="668" y1="140" x2="671" y2="140" stroke="blue" stroke-width="2" /><line x1="671" y1="140" x2="674" y2="140" stroke="blue" stroke-width="2" /><line x1="674" y1="140" x2="677" y2="140" stroke="blue" stroke-width="2" /><line x1="677" y1="140" x2="680" y2="140" stroke="blue" stroke-width="2" /><line x1="680" y1="140" x2="683" y2="140" stroke="blue" stroke-width="2" /><line x1="683" y1="140" x2="686" y2="140" stroke="blue" stroke-width="2" /><line x1="686" y1="140" x2="689" y2="140" stroke="blue" stroke-width="2" /><line x1="689" y1="140" x2="692" y2="140" stroke="blue" stroke-width="2" /><line x1="692" y1="140" x2="695" y2="140" stroke="blue" stroke-width="2" /><line x1="695" y1="140" x2="698" y2="140" stroke="blue" stroke-width="2" /><line x1="698" y1="140" x2="701" y2="140" stroke="blue" stroke-width="2" /><line x1="701" y1="140" x2="704" y2="140" stroke="blue" stroke-width="2" /><line x1="704" y1="140" x2="707" y2="140" stroke="blue" stroke-width="2" /><line x1="707" y1="140" x2="710" y2="140" stroke="blue" stroke-width="2" /><line x1="710" y1="140" x2="713" y2="140" stroke="blue" stroke-width="2" /><line x1="713" y1="140" x2="716" y2="140" stroke="blue" stroke-width="2" /><line x1="716" y1="140" x2="719" y2="140" stroke="blue" stroke-width="2" /><line x1="719" y1="140" x2="722" y2="140" stroke="blue" stroke-width="2" /><line x1="722" y1="140" x2="725" y2="140" stroke="blue" stroke-width="2" /><line x1="725" y1="140" x2="728" y2="140" stroke="blue" stroke-width="2" /><line x1="728" y1="140" x2="731" y2="140" stroke="blue" stroke-width="2" /><line x1="731" y1="140" x2="734" y2="140" stroke="blue" stroke-width="2" /><line x1="734" y1="140" x2="737" y2="140" stroke="blue" stroke-width="2" /><line x1="737" y1="140" x2="740" y2="140" stroke="blue" stroke-width="2" /><line x1="740" y1="140" x2="743" y2="140" stroke="blue" stroke-width="2" /><line x1="743" y1="140" x2="746" y2="140" stroke="blue" stroke-width="2" /><line x1="746" y1="140" x2="749" y2="140" stroke="blue" stroke-width="2" /><line x1="749" y1="140" x2="752" y2="140" stroke="blue" stroke-width="2" /><line x1="752" y1="140" x2="755" y2="140" stroke="blue" stroke-width="2" /><line x1="755" y1="140" x2="758" y2="140" stroke="blue" stroke-width="2" /><line x1="758" y1="140" x2="761" y2="140" stroke="blue" stroke-width="2" /><line x1="761" y1="140" x2="764" y2="140" stroke="blue" stroke-width="2" /><line x1="764" y1="140" x2="767" y2="140" stroke="blue" stroke-width="2" /><line x1="767" y1="140" x2="770" y2="140" stroke="blue" stroke-width="2" /><line x1="770" y1="140" x2="773" y2="140" stroke="blue" stroke-width="2" /><line x1="773" y1="140" x2="776" y2="140" stroke="blue" stroke-width="2" /><line x1="776" y1="140" x2="779" y2="140" stroke="blue" stroke-width="2" /><line x1="779" y1="140" x2="782" y2="140" stroke="blue" stroke-width="2" /><line x1="782" y1="140" x2="785" y2="141" stroke="blue" stroke-width="2" /><line x1="785" y1="141" x2="788" y2="141" stroke="blue" stroke-width="2" /><line x1="788" y1="141" x2="791" y2="141" stroke="blue" stroke-width="2" /><line x1="791" y1="141" x2="794" y2="141" stroke="blue" stroke-width="2" /><line x1="794" y1="141" x2="797" y2="141" stroke="blue" stroke-width="2" /><line x1="797" y1="141" x2="800" y2="141" stroke="blue" stroke-width="2" /><line x1="800" y1="141" x2="803" y2="141" stroke="blue" stroke-width="2" /><line x1="803" y1="141" x2="806" y2="141" stroke="blue" stroke-width="2" /><line x1="806" y1="141" x2="809" y2="141" stroke="blue" stroke-width="2" /><line x1="809" y1="141" x2="812" y2="141" stroke="blue" stroke-width="2" /><line x1="812" y1="141" x2="815" y2="141" stroke="blue" stroke-width="2" /><line x1="815" y1="141" x2="818" y2="141" stroke="blue" stroke-width="2" /><line x1="818" y1="141" x2="821" y2="141" stroke="blue" stroke-width="2" /><line x1="821" y1="141" x2="824" y2="141" stroke="blue" stroke-width="2" /><line x1="824" y1="141" x2="827" y2="141" stroke="blue" stroke-width="2" /><line x1="827" y1="141" x2="830" y2="141" stroke="blue" stroke-width="2" /><line x1="830" y1="141" x2="833" y2="141" stroke="blue" stroke-width="2" /><line x1="833" y1="141" x2="836" y2="141" stroke="blue" stroke-width="2" /><line x1="836" y1="141" x2="839" y2="141" stroke="blue" stroke-width="2" /><line x1="839" y1="141" x2="842" y2="141" stroke="blue" stroke-width="2" /><line x1="842" y1="141" x2="845" y2="141" stroke="blue" stroke-width="2" /><line x1="845" y1="141" x2="848" y2="141" stroke="blue" stroke-width="2" /><line x1="848" y1="141" x2="851" y2="141" stroke="blue" stroke-width="2" /><line x1="851" y1="141" x2="854" y2="141" stroke="blue" stroke-width="2" /><line x1="854" y1="141" x2="857" y2="141" stroke="blue" stroke-width="2" /><line x1="857" y1="141" x2="860" y2="141" stroke="blue" stroke-width="2" /><line x1="860" y1="141" x2="863" y2="141" stroke="blue" stroke-width="2" /><line x1="863" y1="141" x2="866" y2="141" stroke="blue" stroke-width="2" /><line x1="866" y1="141" x2="869" y2="141" stroke="blue" stroke-width="2" /><line x1="869" y1="141" x2="872" y2="141" stroke="blue" stroke-width="2" /><line x1="872" y1="141" x2="875" y2="141" stroke="blue" stroke-width="2" /><line x1="875" y1="141" x2="878" y2="141" stroke="blue" stroke-width="2" /><line x1="878" y1="141" x2="881" y2="141" stroke="blue" stroke-width="2" /><line x1="881" y1="141" x2="884" y2="141" stroke="blue" stroke-width="2" /><line x1="884" y1="141" x2="887" y2="141" stroke="blue" stroke-width="2" /><line x1="887" y1="141" x2="890" y2="141" stroke="blue" stroke-width="2" /><line x1="890" y1="141" x2="893" y2="141" stroke="blue" stroke-width="2" /><line x1="893" y1="141" x2="896" y2="141" stroke="blue" stroke-width="2" /><line x1="896" y1="141" x2="899" y2="141" stroke="blue" stroke-width="2" /><line x1="899" y1="141" x2="902" y2="141" stroke="blue" stroke-width="2" /><line x1="902" y1="141" x2="905" y2="141" stroke="blue" stroke-width="2" /><line x1="905" y1="141" x2="908" y2="141" stroke="blue" stroke-width="2" /><line x1="908" y1="141" x2="911" y2="141" stroke="blue" stroke-width="2" /><line x1="911" y1="141" x2="914" y2="141" stroke="blue" stroke-width="2" /><line x1="914" y1="141" x2="917" y2="141" stroke="blue" stroke-width="2" /><line x1="917" y1="141" x2="920" y2="141" stroke="blue" stroke-width="2" /><line x1="920" y1="141" x2="923" y2="141" stroke="blue" stroke-width="2" /><line x1="923" y1="141" x2="926" y2="141" stroke="blue" stroke-width="2" /><line x1="926" y1="141" x2="929" y2="141" stroke="blue" stroke-width="2" /><line x1="929" y1="141" x2="932" y2="141" stroke="blue" stroke-width="2" /><line x1="932" y1="141" x2="935" y2="141" stroke="blue" stroke-width="2" /><line x1="935" y1="141" x2="938" y2="141" stroke="blue" stroke-width="2" /><line x1="938" y1="141" x2="941" y2="141" stroke="blue" stroke-width="2" /><line x1="941" y1="141" x2="944" y2="141" stroke="blue" stroke-width="2" /><line x1="944" y1="141" x2="947" y2="141" stroke="blue" stroke-width="2" /><line x1="947" y1="141" x2="950" y2="141" stroke="blue" stroke-width="2" /><line x1="950" y1="141" x2="953" y2="141" stroke="blue" stroke-width="2" /><line x1="953" y1="141" x2="956" y2="141" stroke="blue" stroke-width="2" /><line x1="956" y1="141" x2="959" y2="141" stroke="blue" stroke-width="2" /><line x1="959" y1="141" x2="962" y2="141" stroke="blue" stroke-width="2" /><line x1="962" y1="141" x2="965" y2="141" stroke="blue" stroke-width="2" /><line x1="965" y1="141" x2="968" y2="141" stroke="blue" stroke-width="2" /><line x1="968" y1="141" x2="971" y2="141" stroke="blue" stroke-width="2" /><line x1="971" y1="141" x2="974" y2="141" stroke="blue" stroke-width="2" /><line x1="974" y1="141" x2="977" y2="141" stroke="blue" stroke-width="2" /><line x1="977" y1="141" x2="980" y2="141" stroke="blue" stroke-width="2" /><line x1="980" y1="141" x2="983" y2="141" stroke="blue" stroke-width="2" /><line x1="983" y1="141" x2="986" y2="141" stroke="blue" stroke-width="2" /><line x1="986" y1="141" x2="989" y2="141" stroke="blue" stroke-width="2" /><line x1="989" y1="141" x2="992" y2="141" stroke="blue" stroke-width="2" /><line x1="992" y1="141" x2="995" y2="141" stroke="blue" stroke-width="2" /><line x1="995" y1="141" x2="998" y2="141" stroke="blue" stroke-width="2" /><line x1="998" y1="141" x2="1001" y2="141" stroke="blue" stroke-width="2" /><line x1="1001" y1="141" x2="1004" y2="141" stroke="blue" stroke-width="2" /><line x1="1004" y1="141" x2="1007" y2="141" stroke="blue" stroke-width="2" /><line x1="1007" y1="141" x2="1010" y2="141" stroke="blue" stroke-width="2" /><line x1="1010" y1="141" x2="1013" y2="141" stroke="blue" stroke-width="2" /><line x1="1013" y1="141" x2="1016" y2="141" stroke="blue" stroke-width="2" /><line x1="1016" y1="141" x2="1019" y2="141" stroke="blue" stroke-width="2" /><line x1="1019" y1="141" x2="1022" y2="141" stroke="blue" stroke-width="2" /><line x1="1022" y1="141" x2="1025" y2="141" stroke="blue" stroke-width="2" /><line x1="1025" y1="141" x2="1028" y2="141" stroke="blue" stroke-width="2" /><line x1="1028" y1="141" x2="1031" y2="141" stroke="blue" stroke-width="2" /><line x1="1031" y1="141" x2="1034" y2="141" stroke="blue" stroke-width="2" /><line x1="1034" y1="141" x2="1037" y2="141" stroke="blue" stroke-width="2" /><line x1="1037" y1="141" x2="1040" y2="141" stroke="blue" stroke-width="2" /><line x1="1040" y1="141" x2="1043" y2="141" stroke="blue" stroke-width="2" /><line x1="1043" y1="141" x2="1046" y2="141" stroke="blue" stroke-width="2" /><line x1="1046" y1="141" x2="1049" y2="141" stroke="blue" stroke-width="2" /><line x1="1049" y1="141" x2="1052" y2="141" stroke="blue" stroke-width="2" /><line x1="1052" y1="141" x2="1055" y2="141" stroke="blue" stroke-width="2" /><line x1="1055" y1="141" x2="1058" y2="141" stroke="blue" stroke-width="2" /><line x1="1058" y1="141" x2="1061" y2="141" stroke="blue" stroke-width="2" /><line x1="1061" y1="141" x2="1064" y2="141" stroke="blue" stroke-width="2" /><line x1="1064" y1="141" x2="1067" y2="141" stroke="blue" stroke-width="2" /><text x="543" y="25" fill="black" font-size="16" text-anchor="middle">Sat count over time</text><text x="558" y="185" fill="black" font-size="12" text-anchor="middle">Number</text><text x="25" y="100" fill="black" font-size="12" text-anchor="middle" transform="rotate(-90 25 100)">Count</text></svg>