<svg xmlns="http://www.w3.org/2000/svg" width="478" height="205"><rect x="0" y="0" width="478" height="205" fill="rgb(255,255,255)"></rect><line x1="50" y1="150" x2="458" y2="150" stroke="black" stroke-width="1" /><line x1="50" y1="50" x2="50" y2="150" stroke="black" stroke-width="1" /><line x1="50" y1="50" x2="53" y2="123" stroke="blue" stroke-width="2" /><line x1="53" y1="123" x2="56" y2="123" stroke="blue" stroke-width="2" /><line x1="56" y1="123" x2="59" y2="123" stroke="blue" stroke-width="2" /><line x1="59" y1="123" x2="62" y2="123" stroke="blue" stroke-width="2" /><line x1="62" y1="123" x2="65" y2="137" stroke="blue" stroke-width="2" /><line x1="65" y1="137" x2="68" y2="137" stroke="blue" stroke-width="2" /><line x1="68" y1="137" x2="71" y2="138" stroke="blue" stroke-width="2" /><line x1="71" y1="138" x2="74" y2="138" stroke="blue" stroke-width="2" /><line x1="74" y1="138" x2="77" y2="138" stroke="blue" stroke-width="2" /><line x1="77" y1="138" x2="80" y2="138" stroke="blue" stroke-width="2" /><line x1="80" y1="138" x2="83" y2="138" stroke="blue" stroke-width="2" /><line x1="83" y1="138" x2="86" y2="138" stroke="blue" stroke-width="2" /><line x1="86" y1="138" x2="89" y2="138" stroke="blue" stroke-width="2" /><line x1="89" y1="138" x2="92" y2="138" stroke="blue" stroke-width="2" /><line x1="92" y1="138" x2="95" y2="138" stroke="blue" stroke-width="2" /><line x1="95" y1="138" x2="98" y2="138" stroke="blue" stroke-width="2" /><line x1="98" y1="138" x2="101" y2="138" stroke="blue" stroke-width="2" /><line x1="101" y1="138" x2="104" y2="138" stroke="blue" stroke-width="2" /><line x1="104" y1="138" x2="107" y2="138" stroke="blue" stroke-width="2" /><line x1="107" y1="138" x2="110" y2="138" stroke="blue" stroke-width="2" /><line x1="110" y1="138" x2="113" y2="138" stroke="blue" stroke-width="2" /><line x1="113" y1="138" x2="116" y2="139" stroke="blue" stroke-width="2" /><line x1="116" y1="139" x2="119" y2="140" stroke="blue" stroke-width="2" /><line x1="119" y1="140" x2="122" y2="140" stroke="blue" stroke-width="2" /><line x1="122" y1="140" x2="125" y2="140" stroke="blue" stroke-width="2" /><line x1="125" y1="140" x2="128" y2="140" stroke="blue" stroke-width="2" /><line x1="128" y1="140" x2="131" y2="140" stroke="blue" stroke-width="2" /><line x1="131" y1="140" x2="134" y2="140" stroke="blue" stroke-width="2" /><line x1="134" y1="140" x2="137" y2="140" stroke="blue" stroke-width="2" /><line x1="137" y1="140" x2="140" y2="141" stroke="blue" stroke-width="2" /><line x1="140" y1="141" x2="143" y2="141" stroke="blue" stroke-width="2" /><line x1="143" y1="141" x2="146" y2="141" stroke="blue" stroke-width="2" /><line x1="146" y1="141" x2="149" y2="141" stroke="blue" stroke-width="2" /><line x1="149" y1="141" x2="152" y2="142" stroke="blue" stroke-width="2" /><line x1="152" y1="142" x2="155" y2="142" stroke="blue" stroke-width="2" /><line x1="155" y1="142" x2="158" y2="143" stroke="blue" stroke-width="2" /><line x1="158" y1="143" x2="161" y2="143" stroke="blue" stroke-width="2" /><line x1="161" y1="143" x2="164" y2="143" stroke="blue" stroke-width="2" /><line x1="164" y1="143" x2="167" y2="143" stroke="blue" stroke-width="2" /><line x1="167" y1="143" x2="170" y2="143" stroke="blue" stroke-width="2" /><line x1="170" y1="143" x2="173" y2="143" stroke="blue" stroke-width="2" /><line x1="173" y1="143" x2="176" y2="143" stroke="blue" stroke-width="2" /><line x1="176" y1="143" x2="179" y2="143" stroke="blue" stroke-width="2" /><line x1="179" y1="143" x2="182" y2="143" stroke="blue" stroke-width="2" /><line x1="182" y1="143" x2="185" y2="143" stroke="blue" stroke-width="2" /><line x1="185" y1="143" x2="188" y2="143" stroke="blue" stroke-width="2" /><line x1="188" y1="143" x2="191" y2="143" stroke="blue" stroke-width="2" /><line x1="191" y1="143" x2="194" y2="143" stroke="blue" stroke-width="2" /><line x1="194" y1="143" x2="197" y2="144" stroke="blue" stroke-width="2" /><line x1="197" y1="144" x2="200" y2="144" stroke="blue" stroke-width="2" /><line x1="200" y1="144" x2="203" y2="144" stroke="blue" stroke-width="2" /><line x1="203" y1="144" x2="206" y2="144" stroke="blue" stroke-width="2" /><line x1="206" y1="144" x2="209" y2="144" stroke="blue" stroke-width="2" /><line x1="209" y1="144" x2="212" y2="144" stroke="blue" stroke-width="2" /><line x1="212" y1="144" x2="215" y2="144" stroke="blue" stroke-width="2" /><line x1="215" y1="144" x2="218" y2="144" stroke="blue" stroke-width="2" /><line x1="218" y1="144" x2="221" y2="144" stroke="blue" stroke-width="2" /><line x1="221" y1="144" x2="224" y2="144" stroke="blue" stroke-width="2" /><line x1="224" y1="144" x2="227" y2="145" stroke="blue" stroke-width="2" /><line x1="227" y1="145" x2="230" y2="145" stroke="blue" stroke-width="2" /><line x1="230" y1="145" x2="233" y2="145" stroke="blue" stroke-width="2" /><line x1="233" y1="145" x2="236" y2="145" stroke="blue" stroke-width="2" /><line x1="236" y1="145" x2="239" y2="145" stroke="blue" stroke-width="2" /><line x1="239" y1="145" x2="242" y2="145" stroke="blue" stroke-width="2" /><line x1="242" y1="145" x2="245" y2="145" stroke="blue" stroke-width="2" /><line x1="245" y1="145" x2="248" y2="145" stroke="blue" stroke-width="2" /><line x1="248" y1="145" x2="251" y2="145" stroke="blue" stroke-width="2" /><line x1="251" y1="145" x2="254" y2="145" stroke="blue" stroke-width="2" /><line x1="254" y1="145" x2="257" y2="145" stroke="blue" stroke-width="2" /><line x1="257" y1="145" x2="260" y2="145" stroke="blue" stroke-width="2" /><line x1="260" y1="145" x2="263" y2="145" stroke="blue" stroke-width="2" /><line x1="263" y1="145" x2="266" y2="145" stroke="blue" stroke-width="2" /><line x1="266" y1="145" x2="269" y2="145" stroke="blue" stroke-width="2" /><line x1="269" y1="145" x2="272" y2="145" stroke="blue" stroke-width="2" /><line x1="272" y1="145" x2="275" y2="145" stroke="blue" stroke-width="2" /><line x1="275" y1="145" x2="278" y2="145" stroke="blue" stroke-width="2" /><line x1="278" y1="145" x2="281" y2="145" stroke="blue" stroke-width="2" /><line x1="281" y1="145" x2="284" y2="145" stroke="blue" stroke-width="2" /><line x1="284" y1="145" x2="287" y2="145" stroke="blue" stroke-width="2" /><line x1="287" y1="145" x2="290" y2="145" stroke="blue" stroke-width="2" /><line x1="290" y1="145" x2="293" y2="145" stroke="blue" stroke-width="2" /><line x1="293" y1="145" x2="296" y2="145" stroke="blue" stroke-width="2" /><line x1="296" y1="145" x2="299" y2="145" stroke="blue" stroke-width="2" /><line x1="299" y1="145" x2="302" y2="145" stroke="blue" stroke-width="2" /><line x1="302" y1="145" x2="305" y2="146" stroke="blue" stroke-width="2" /><line x1="305" y1="146" x2="308" y2="146" stroke="blue" stroke-width="2" /><line x1="308" y1="146" x2="311" y2="146" stroke="blue" stroke-width="2" /><line x1="311" y1="146" x2="314" y2="146" stroke="blue" stroke-width="2" /><line x1="314" y1="146" x2="317" y2="146" stroke="blue" stroke-width="2" /><line x1="317" y1="146" x2="320" y2="146" stroke="blue" stroke-width="2" /><line x1="320" y1="146" x2="323" y2="146" stroke="blue" stroke-width="2" /><line x1="323" y1="146" x2="326" y2="146" stroke="blue" stroke-width="2" /><line x1="326" y1="146" x2="329" y2="146" stroke="blue" stroke-width="2" /><line x1="329" y1="146" x2="332" y2="146" stroke="blue" stroke-width="2" /><line x1="332" y1="146" x2="335" y2="146" stroke="blue" stroke-width="2" /><line x1="335" y1="146" x2="338" y2="146" stroke="blue" stroke-width="2" /><line x1="338" y1="146" x2="341" y2="146" stroke="blue" stroke-width="2" /><line x1="341" y1="146" x2="344" y2="146" stroke="blue" stroke-width="2" /><line x1="344" y1="146" x2="347" y2="146" stroke="blue" stroke-width="2" /><line x1="347" y1="146" x2="350" y2="146" stroke="blue" stroke-width="2" /><line x1="350" y1="146" x2="353" y2="146" stroke="blue" stroke-width="2" /><line x1="353" y1="146" x2="356" y2="146" stroke="blue" stroke-width="2" /><line x1="356" y1="146" x2="359" y2="146" stroke="blue" stroke-width="2" /><line x1="359" y1="146" x2="362" y2="146" stroke="blue" stroke-width="2" /><line x1="362" y1="146" x2="365" y2="146" stroke="blue" stroke-width="2" /><line x1="365" y1="146" x2="368" y2="146" stroke="blue" stroke-width="2" /><line x1="368" y1="146" x2="371" y2="146" stroke="blue" stroke-width="2" /><line x1="371" y1="146" x2="374" y2="146" stroke="blue" stroke-width="2" /><line x1="374" y1="146" x2="377" y2="146" stroke="blue" stroke-width="2" /><line x1="377" y1="146" x2="380" y2="146" stroke="blue" stroke-width="2" /><line x1="380" y1="146" x2="383" y2="146" stroke="blue" stroke-width="2" /><line x1="383" y1="146" x2="386" y2="146" stroke="blue" stroke-width="2" /><line x1="386" y1="146" x2="389" y2="146" stroke="blue" stroke-width="2" /><line x1="389" y1="146" x2="392" y2="146" stroke="blue" stroke-width="2" /><line x1="392" y1="146" x2="395" y2="146" stroke="blue" stroke-width="2" /><line x1="395" y1="146" x2="398" y2="146" stroke="blue" stroke-width="2" /><line x1="398" y1="146" x2="401" y2="146" stroke="blue" stroke-width="2" /><line x1="401" y1="146" x2="404" y2="146" stroke="blue" stroke-width="2" /><line x1="404" y1="146" x2="407" y2="146" stroke="blue" stroke-width="2" /><line x1="407" y1="146" x2="410" y2="146" stroke="blue" stroke-width="2" /><line x1="410" y1="146" x2="413" y2="146" stroke="blue" stroke-width="2" /><line x1="413" y1="146" x2="416" y2="146" stroke="blue" stroke-width="2" /><line x1="416" y1="146" x2="419" y2="146" stroke="blue" stroke-width="2" /><line x1="419" y1="146" x2="422" y2="146" stroke="blue" stroke-width="2" /><line x1="422" y1="146" x2="425" y2="146" stroke="blue" stroke-width="2" /><line x1="425" y1="146" x2="428" y2="146" stroke="blue" stroke-width="2" /><line x1="428" y1="146" x2="431" y2="146" stroke="blue" stroke-width="2" /><line x1="431" y1="146" x2="434" y2="146" stroke="blue" stroke-width="2" /><line x1="434" y1="146" x2="437" y2="146" stroke="blue" stroke-width="2" /><line x1="437" y1="146" x2="440" y2="146" stroke="blue" stroke-width="2" /><line x1="440" y1="146" x2="443" y2="146" stroke="blue" stroke-width="2" /><line x1="443" y1="146" x2="446" y2="146" stroke="blue" stroke-width="2" /><line x1="446" y1="146" x2="449" y2="146" stroke="blue" stroke-width="2" /><line x1="449" y1="146" x2="452" y2="146" stroke="blue" stroke-width="2" /><line x1="452" y1="146" x2="455" y2="146" stroke="blue" stroke-width="2" /><line x1="455" y1="146" x2="458" y2="146" stroke="blue" stroke-width="2" /><text x="239" y="25" fill="black" font-size="16" text-anchor="middle">Sat count over time</text><text x="254" y="185" fill="black" font-size="12" text-anchor="middle">Number</text><text x="25" y="100" fill="black" font-size="12" text-anchor="middle" transform="rotate(-90 25 100)">Count</text></svg>