<svg xmlns="http://www.w3.org/2000/svg" width="271" height="205"><rect x="0" y="0" width="271" height="205" fill="rgb(255,255,255)"></rect><line x1="50" y1="150" x2="251" y2="150" stroke="black" stroke-width="1" /><line x1="50" y1="50" x2="50" y2="150" stroke="black" stroke-width="1" /><line x1="50" y1="50" x2="53" y2="54" stroke="blue" stroke-width="2" /><line x1="53" y1="54" x2="56" y2="99" stroke="blue" stroke-width="2" /><line x1="56" y1="99" x2="59" y2="101" stroke="blue" stroke-width="2" /><line x1="59" y1="101" x2="62" y2="120" stroke="blue" stroke-width="2" /><line x1="62" y1="120" x2="65" y2="121" stroke="blue" stroke-width="2" /><line x1="65" y1="121" x2="68" y2="126" stroke="blue" stroke-width="2" /><line x1="68" y1="126" x2="71" y2="127" stroke="blue" stroke-width="2" /><line x1="71" y1="127" x2="74" y2="129" stroke="blue" stroke-width="2" /><line x1="74" y1="129" x2="77" y2="129" stroke="blue" stroke-width="2" /><line x1="77" y1="129" x2="80" y2="132" stroke="blue" stroke-width="2" /><line x1="80" y1="132" x2="83" y2="133" stroke="blue" stroke-width="2" /><line x1="83" y1="133" x2="86" y2="135" stroke="blue" stroke-width="2" /><line x1="86" y1="135" x2="89" y2="136" stroke="blue" stroke-width="2" /><line x1="89" y1="136" x2="92" y2="138" stroke="blue" stroke-width="2" /><line x1="92" y1="138" x2="95" y2="139" stroke="blue" stroke-width="2" /><line x1="95" y1="139" x2="98" y2="142" stroke="blue" stroke-width="2" /><line x1="98" y1="142" x2="101" y2="142" stroke="blue" stroke-width="2" /><line x1="101" y1="142" x2="104" y2="142" stroke="blue" stroke-width="2" /><line x1="104" y1="142" x2="107" y2="143" stroke="blue" stroke-width="2" /><line x1="107" y1="143" x2="110" y2="144" stroke="blue" stroke-width="2" /><line x1="110" y1="144" x2="113" y2="144" stroke="blue" stroke-width="2" /><line x1="113" y1="144" x2="116" y2="144" stroke="blue" stroke-width="2" /><line x1="116" y1="144" x2="119" y2="144" stroke="blue" stroke-width="2" /><line x1="119" y1="144" x2="122" y2="144" stroke="blue" stroke-width="2" /><line x1="122" y1="144" x2="125" y2="144" stroke="blue" stroke-width="2" /><line x1="125" y1="144" x2="128" y2="144" stroke="blue" stroke-width="2" /><line x1="128" y1="144" x2="131" y2="145" stroke="blue" stroke-width="2" /><line x1="131" y1="145" x2="134" y2="146" stroke="blue" stroke-width="2" /><line x1="134" y1="146" x2="137" y2="146" stroke="blue" stroke-width="2" /><line x1="137" y1="146" x2="140" y2="146" stroke="blue" stroke-width="2" /><line x1="140" y1="146" x2="143" y2="146" stroke="blue" stroke-width="2" /><line x1="143" y1="146" x2="146" y2="146" stroke="blue" stroke-width="2" /><line x1="146" y1="146" x2="149" y2="146" stroke="blue" stroke-width="2" /><line x1="149" y1="146" x2="152" y2="146" stroke="blue" stroke-width="2" /><line x1="152" y1="146" x2="155" y2="146" stroke="blue" stroke-width="2" /><line x1="155" y1="146" x2="158" y2="146" stroke="blue" stroke-width="2" /><line x1="158" y1="146" x2="161" y2="146" stroke="blue" stroke-width="2" /><line x1="161" y1="146" x2="164" y2="146" stroke="blue" stroke-width="2" /><line x1="164" y1="146" x2="167" y2="147" stroke="blue" stroke-width="2" /><line x1="167" y1="147" x2="170" y2="147" stroke="blue" stroke-width="2" /><line x1="170" y1="147" x2="173" y2="147" stroke="blue" stroke-width="2" /><line x1="173" y1="147" x2="176" y2="147" stroke="blue" stroke-width="2" /><line x1="176" y1="147" x2="179" y2="148" stroke="blue" stroke-width="2" /><line x1="179" y1="148" x2="182" y2="148" stroke="blue" stroke-width="2" /><line x1="182" y1="148" x2="185" y2="148" stroke="blue" stroke-width="2" /><line x1="185" y1="148" x2="188" y2="148" stroke="blue" stroke-width="2" /><line x1="188" y1="148" x2="191" y2="148" stroke="blue" stroke-width="2" /><line x1="191" y1="148" x2="194" y2="148" stroke="blue" stroke-width="2" /><line x1="194" y1="148" x2="197" y2="148" stroke="blue" stroke-width="2" /><line x1="197" y1="148" x2="200" y2="148" stroke="blue" stroke-width="2" /><line x1="200" y1="148" x2="203" y2="148" stroke="blue" stroke-width="2" /><line x1="203" y1="148" x2="206" y2="148" stroke="blue" stroke-width="2" /><line x1="206" y1="148" x2="209" y2="148" stroke="blue" stroke-width="2" /><line x1="209" y1="148" x2="212" y2="148" stroke="blue" stroke-width="2" /><line x1="212" y1="148" x2="215" y2="148" stroke="blue" stroke-width="2" /><line x1="215" y1="148" x2="218" y2="148" stroke="blue" stroke-width="2" /><line x1="218" y1="148" x2="221" y2="148" stroke="blue" stroke-width="2" /><line x1="221" y1="148" x2="224" y2="148" stroke="blue" stroke-width="2" /><line x1="224" y1="148" x2="227" y2="148" stroke="blue" stroke-width="2" /><line x1="227" y1="148" x2="230" y2="148" stroke="blue" stroke-width="2" /><line x1="230" y1="148" x2="233" y2="148" stroke="blue" stroke-width="2" /><line x1="233" y1="148" x2="236" y2="148" stroke="blue" stroke-width="2" /><line x1="236" y1="148" x2="239" y2="148" stroke="blue" stroke-width="2" /><line x1="239" y1="148" x2="242" y2="148" stroke="blue" stroke-width="2" /><line x1="242" y1="148" x2="245" y2="148" stroke="blue" stroke-width="2" /><line x1="245" y1="148" x2="248" y2="148" stroke="blue" stroke-width="2" /><line x1="248" y1="148" x2="251" y2="148" stroke="blue" stroke-width="2" /><text x="135" y="25" fill="black" font-size="16" text-anchor="middle">Sat count over time</text><text x="150" y="185" fill="black" font-size="12" text-anchor="middle">Number</text><text x="25" y="100" fill="black" font-size="12" text-anchor="middle" transform="rotate(-90 25 100)">Count</text></svg>