<svg xmlns="http://www.w3.org/2000/svg" width="388" height="213"><rect x="0" y="0" width="388" height="213" fill="rgb(255,255,255)"></rect><rect x="0" y="0" width="50" height="25" fill="rgb(100,100,100)"><title>1</title></rect><rect x="0" y="28" width="50" height="25" fill="rgb(100,100,100)"><title>1</title></rect><rect x="0" y="56" width="50" height="25" fill="rgb(100,100,100)"><title>1</title></rect><rect x="0" y="84" width="50" height="25" fill="rgb(100,100,100)"><title>1</title></rect><rect x="0" y="112" width="50" height="25" fill="rgb(100,100,100)"><title>1</title></rect><rect x="0" y="140" width="50" height="25" fill="rgb(100,100,100)"><title>1</title></rect><rect x="53" y="0" width="50" height="25" fill="rgb(100,100,100)"><title>1</title></rect><rect x="53" y="28" width="50" height="25" fill="rgb(100,100,100)"><title>1</title></rect><rect x="53" y="56" width="50" height="25" fill="rgb(100,100,100)"><title>1</title></rect><rect x="53" y="84" width="50" height="25" fill="rgb(100,100,100)"><title>1</title></rect><rect x="53" y="112" width="50" height="25" fill="rgb(100,100,100)"><title>1</title></rect><rect x="53" y="140" width="50" height="25" fill="rgb(100,100,100)"><title>1</title></rect><rect x="106" y="0" width="50" height="25" fill="rgb(100,100,100)"><title>1</title></rect><rect x="106" y="28" width="50" height="25" fill="rgb(100,100,100)"><title>1</title></rect><rect x="106" y="56" width="50" height="25" fill="rgb(100,100,100)"><title>1</title></rect><rect x="106" y="84" width="50" height="25" fill="rgb(100,100,100)"><title>1</title></rect><rect x="106" y="112" width="50" height="25" fill="rgb(100,100,100)"><title>1</title></rect><rect x="159" y="0" width="50" height="25" fill="rgb(100,100,100)"><title>1</title></rect><rect x="159" y="28" width="50" height="25" fill="rgb(100,100,100)"><title>1</title></rect><rect x="159" y="56" width="50" height="25" fill="rgb(100,100,100)"><title>1</title></rect><rect x="159" y="84" width="50" height="25" fill="rgb(100,100,100)"><title>1</title></rect><rect x="159" y="112" width="50" height="25" fill="rgb(100,100,100)"><title>1</title></rect><rect x="159" y="140" width="50" height="25" fill="rgb(100,100,100)"><title>1</title></rect><rect x="212" y="56" width="50" height="25" fill="rgb(100,100,100)"><title>1</title></rect><rect x="212" y="84" width="50" height="25" fill="rgb(100,100,100)"><title>1</title></rect><rect x="212" y="112" width="50" height="25" fill="rgb(100,100,100)"><title>1</title></rect><rect x="212" y="140" width="50" height="25" fill="rgb(100,100,100)"><title>1</title></rect><rect x="212" y="168" width="50" height="25" fill="rgb(100,100,100)"><title>1</title></rect><rect x="265" y="0" width="50" height="25" fill="rgb(100,100,100)"><title>1</title></rect><rect x="265" y="28" width="50" height="25" fill="rgb(100,100,100)"><title>1</title></rect><rect x="265" y="56" width="50" height="25" fill="rgb(100,100,100)"><title>1</title></rect><rect x="265" y="84" width="50" height="25" fill="rgb(100,100,100)"><title>1</title></rect><rect x="265" y="112" width="50" height="25" fill="rgb(100,100,100)"><title>1</title></rect><rect x="265" y="140" width="50" height="25" fill="rgb(100,100,100)"><title>1</title></rect><rect x="265" y="168" width="50" height="25" fill="rgb(100,100,100)"><title>1</title></rect><rect x="318" y="0" width="50" height="25" fill="rgb(100,100,100)"><title>1</title></rect><rect x="318" y="28" width="50" height="25" fill="rgb(100,100,100)"><title>1</title></rect><rect x="318" y="84" width="50" height="25" fill="rgb(100,100,100)"><title>1</title></rect><rect x="318" y="112" width="50" height="25" fill="rgb(100,100,100)"><title>1</title></rect><rect x="318" y="140" width="50" height="25" fill="rgb(100,100,100)"><title>1</title></rect><line x1="78" y1="68" x2="25" y2="68" stroke="black" stroke-width="1" /><line x1="78" y1="68" x2="25" y2="96" stroke="black" stroke-width="1" /><line x1="78" y1="68" x2="78" y2="96" stroke="black" stroke-width="1" /><line x1="78" y1="68" x2="131" y2="96" stroke="black" stroke-width="1" /><line x1="78" y1="68" x2="131" y2="68" stroke="black" stroke-width="1" /><line x1="78" y1="68" x2="25" y2="40" stroke="black" stroke-width="1" /><line x1="78" y1="68" x2="78" y2="40" stroke="black" stroke-width="1" /><line x1="25" y1="68" x2="78" y2="68" stroke="black" stroke-width="1" /><line x1="25" y1="68" x2="25" y2="96" stroke="black" stroke-width="1" /><line x1="25" y1="68" x2="25" y2="40" stroke="black" stroke-width="1" /><line x1="25" y1="96" x2="78" y2="68" stroke="black" stroke-width="1" /><line x1="25" y1="96" x2="25" y2="68" stroke="black" stroke-width="1" /><line x1="25" y1="96" x2="78" y2="96" stroke="black" stroke-width="1" /><line x1="25" y1="96" x2="25" y2="124" stroke="black" stroke-width="1" /><line x1="78" y1="96" x2="78" y2="68" stroke="black" stroke-width="1" /><line x1="78" y1="96" x2="25" y2="96" stroke="black" stroke-width="1" /><line x1="78" y1="96" x2="131" y2="96" stroke="black" stroke-width="1" /><line x1="78" y1="96" x2="25" y2="124" stroke="black" stroke-width="1" /><line x1="78" y1="96" x2="131" y2="124" stroke="black" stroke-width="1" /><line x1="78" y1="96" x2="78" y2="124" stroke="black" stroke-width="1" /><line x1="131" y1="96" x2="78" y2="68" stroke="black" stroke-width="1" /><line x1="131" y1="96" x2="78" y2="96" stroke="black" stroke-width="1" /><line x1="131" y1="96" x2="131" y2="124" stroke="black" stroke-width="1" /><line x1="131" y1="96" x2="184" y2="124" stroke="black" stroke-width="1" /><line x1="131" y1="96" x2="131" y2="68" stroke="black" stroke-width="1" /><line x1="131" y1="96" x2="184" y2="96" stroke="black" stroke-width="1" /><line x1="25" y1="124" x2="25" y2="96" stroke="black" stroke-width="1" /><line x1="25" y1="124" x2="78" y2="96" stroke="black" stroke-width="1" /><line x1="25" y1="124" x2="25" y2="152" stroke="black" stroke-width="1" /><line x1="25" y1="124" x2="78" y2="124" stroke="black" stroke-width="1" /><line x1="25" y1="152" x2="25" y2="124" stroke="black" stroke-width="1" /><line x1="25" y1="152" x2="78" y2="152" stroke="black" stroke-width="1" /><line x1="25" y1="152" x2="78" y2="124" stroke="black" stroke-width="1" /><line x1="131" y1="124" x2="78" y2="96" stroke="black" stroke-width="1" /><line x1="131" y1="124" x2="131" y2="96" stroke="black" stroke-width="1" /><line x1="131" y1="124" x2="78" y2="152" stroke="black" stroke-width="1" /><line x1="131" y1="124" x2="78" y2="124" stroke="black" stroke-width="1" /><line x1="131" y1="124" x2="184" y2="124" stroke="black" stroke-width="1" /><line x1="131" y1="124" x2="184" y2="152" stroke="black" stroke-width="1" /><line x1="78" y1="152" x2="25" y2="152" stroke="black" stroke-width="1" /><line x1="78" y1="152" x2="131" y2="124" stroke="black" stroke-width="1" /><line x1="78" y1="152" x2="78" y2="124" stroke="black" stroke-width="1" /><line x1="78" y1="152" x2="184" y2="152" stroke="black" stroke-width="1" /><line x1="78" y1="124" x2="78" y2="96" stroke="black" stroke-width="1" /><line x1="78" y1="124" x2="25" y2="124" stroke="black" stroke-width="1" /><line x1="78" y1="124" x2="25" y2="152" stroke="black" stroke-width="1" /><line x1="78" y1="124" x2="131" y2="124" stroke="black" stroke-width="1" /><line x1="78" y1="124" x2="78" y2="152" stroke="black" stroke-width="1" /><line x1="290" y1="124" x2="343" y2="124" stroke="black" stroke-width="1" /><line x1="290" y1="124" x2="290" y2="152" stroke="black" stroke-width="1" /><line x1="290" y1="124" x2="237" y2="124" stroke="black" stroke-width="1" /><line x1="290" y1="124" x2="290" y2="96" stroke="black" stroke-width="1" /><line x1="290" y1="124" x2="237" y2="96" stroke="black" stroke-width="1" /><line x1="343" y1="124" x2="290" y2="124" stroke="black" stroke-width="1" /><line x1="343" y1="124" x2="343" y2="152" stroke="black" stroke-width="1" /><line x1="343" y1="124" x2="290" y2="152" stroke="black" stroke-width="1" /><line x1="343" y1="124" x2="343" y2="96" stroke="black" stroke-width="1" /><line x1="343" y1="124" x2="290" y2="96" stroke="black" stroke-width="1" /><line x1="290" y1="180" x2="343" y2="152" stroke="black" stroke-width="1" /><line x1="290" y1="180" x2="290" y2="152" stroke="black" stroke-width="1" /><line x1="290" y1="180" x2="237" y2="152" stroke="black" stroke-width="1" /><line x1="343" y1="152" x2="343" y2="124" stroke="black" stroke-width="1" /><line x1="343" y1="152" x2="290" y2="180" stroke="black" stroke-width="1" /><line x1="343" y1="152" x2="290" y2="152" stroke="black" stroke-width="1" /><line x1="290" y1="152" x2="290" y2="124" stroke="black" stroke-width="1" /><line x1="290" y1="152" x2="343" y2="124" stroke="black" stroke-width="1" /><line x1="290" y1="152" x2="290" y2="180" stroke="black" stroke-width="1" /><line x1="290" y1="152" x2="343" y2="152" stroke="black" stroke-width="1" /><line x1="290" y1="152" x2="237" y2="124" stroke="black" stroke-width="1" /><line x1="290" y1="152" x2="237" y2="180" stroke="black" stroke-width="1" /><line x1="290" y1="152" x2="237" y2="152" stroke="black" stroke-width="1" /><line x1="184" y1="124" x2="131" y2="96" stroke="black" stroke-width="1" /><line x1="184" y1="124" x2="131" y2="124" stroke="black" stroke-width="1" /><line x1="184" y1="124" x2="237" y2="124" stroke="black" stroke-width="1" /><line x1="184" y1="124" x2="184" y2="152" stroke="black" stroke-width="1" /><line x1="184" y1="124" x2="237" y2="180" stroke="black" stroke-width="1" /><line x1="184" y1="124" x2="184" y2="96" stroke="black" stroke-width="1" /><line x1="184" y1="124" x2="237" y2="96" stroke="black" stroke-width="1" /><line x1="237" y1="124" x2="290" y2="124" stroke="black" stroke-width="1" /><line x1="237" y1="124" x2="290" y2="152" stroke="black" stroke-width="1" /><line x1="237" y1="124" x2="184" y2="124" stroke="black" stroke-width="1" /><line x1="237" y1="124" x2="237" y2="180" stroke="black" stroke-width="1" /><line x1="237" y1="124" x2="237" y2="96" stroke="black" stroke-width="1" /><line x1="184" y1="152" x2="131" y2="124" stroke="black" stroke-width="1" /><line x1="184" y1="152" x2="78" y2="152" stroke="black" stroke-width="1" /><line x1="184" y1="152" x2="184" y2="124" stroke="black" stroke-width="1" /><line x1="184" y1="152" x2="237" y2="180" stroke="black" stroke-width="1" /><line x1="184" y1="152" x2="237" y2="152" stroke="black" stroke-width="1" /><line x1="237" y1="180" x2="290" y2="152" stroke="black" stroke-width="1" /><line x1="237" y1="180" x2="184" y2="124" stroke="black" stroke-width="1" /><line x1="237" y1="180" x2="237" y2="124" stroke="black" stroke-width="1" /><line x1="237" y1="180" x2="184" y2="152" stroke="black" stroke-width="1" /><line x1="237" y1="180" x2="237" y2="152" stroke="black" stroke-width="1" /><line x1="237" y1="152" x2="290" y2="180" stroke="black" stroke-width="1" /><line x1="237" y1="152" x2="290" y2="152" stroke="black" stroke-width="1" /><line x1="237" y1="152" x2="184" y2="152" stroke="black" stroke-width="1" /><line x1="237" y1="152" x2="237" y2="180" stroke="black" stroke-width="1" /><line x1="184" y1="12" x2="131" y2="12" stroke="black" stroke-width="1" /><line x1="184" y1="12" x2="184" y2="40" stroke="black" stroke-width="1" /><line x1="184" y1="12" x2="131" y2="40" stroke="black" stroke-width="1" /><line x1="184" y1="12" x2="290" y2="12" stroke="black" stroke-width="1" /><line x1="131" y1="12" x2="184" y2="12" stroke="black" stroke-width="1" /><line x1="131" y1="12" x2="131" y2="40" stroke="black" stroke-width="1" /><line x1="131" y1="12" x2="78" y2="12" stroke="black" stroke-width="1" /><line x1="131" y1="12" x2="78" y2="40" stroke="black" stroke-width="1" /><line x1="184" y1="40" x2="184" y2="12" stroke="black" stroke-width="1" /><line x1="184" y1="40" x2="131" y2="40" stroke="black" stroke-width="1" /><line x1="184" y1="40" x2="184" y2="68" stroke="black" stroke-width="1" /><line x1="184" y1="40" x2="290" y2="12" stroke="black" stroke-width="1" /><line x1="184" y1="40" x2="290" y2="68" stroke="black" stroke-width="1" /><line x1="184" y1="40" x2="290" y2="40" stroke="black" stroke-width="1" /><line x1="184" y1="40" x2="237" y2="68" stroke="black" stroke-width="1" /><line x1="131" y1="40" x2="184" y2="12" stroke="black" stroke-width="1" /><line x1="131" y1="40" x2="131" y2="12" stroke="black" stroke-width="1" /><line x1="131" y1="40" x2="184" y2="40" stroke="black" stroke-width="1" /><line x1="131" y1="40" x2="184" y2="68" stroke="black" stroke-width="1" /><line x1="131" y1="40" x2="78" y2="40" stroke="black" stroke-width="1" /><line x1="184" y1="68" x2="184" y2="40" stroke="black" stroke-width="1" /><line x1="184" y1="68" x2="131" y2="40" stroke="black" stroke-width="1" /><line x1="184" y1="68" x2="131" y2="68" stroke="black" stroke-width="1" /><line x1="184" y1="68" x2="78" y2="40" stroke="black" stroke-width="1" /><line x1="184" y1="68" x2="184" y2="96" stroke="black" stroke-width="1" /><line x1="184" y1="68" x2="237" y2="68" stroke="black" stroke-width="1" /><line x1="25" y1="12" x2="78" y2="12" stroke="black" stroke-width="1" /><line x1="25" y1="12" x2="25" y2="40" stroke="black" stroke-width="1" /><line x1="78" y1="12" x2="131" y2="12" stroke="black" stroke-width="1" /><line x1="78" y1="12" x2="25" y2="12" stroke="black" stroke-width="1" /><line x1="78" y1="12" x2="25" y2="40" stroke="black" stroke-width="1" /><line x1="78" y1="12" x2="78" y2="40" stroke="black" stroke-width="1" /><line x1="131" y1="68" x2="78" y2="68" stroke="black" stroke-width="1" /><line x1="131" y1="68" x2="131" y2="96" stroke="black" stroke-width="1" /><line x1="131" y1="68" x2="184" y2="68" stroke="black" stroke-width="1" /><line x1="131" y1="68" x2="78" y2="40" stroke="black" stroke-width="1" /><line x1="131" y1="68" x2="184" y2="96" stroke="black" stroke-width="1" /><line x1="25" y1="40" x2="78" y2="68" stroke="black" stroke-width="1" /><line x1="25" y1="40" x2="25" y2="68" stroke="black" stroke-width="1" /><line x1="25" y1="40" x2="25" y2="12" stroke="black" stroke-width="1" /><line x1="25" y1="40" x2="78" y2="12" stroke="black" stroke-width="1" /><line x1="25" y1="40" x2="78" y2="40" stroke="black" stroke-width="1" /><line x1="78" y1="40" x2="78" y2="68" stroke="black" stroke-width="1" /><line x1="78" y1="40" x2="131" y2="12" stroke="black" stroke-width="1" /><line x1="78" y1="40" x2="131" y2="40" stroke="black" stroke-width="1" /><line x1="78" y1="40" x2="184" y2="68" stroke="black" stroke-width="1" /><line x1="78" y1="40" x2="78" y2="12" stroke="black" stroke-width="1" /><line x1="78" y1="40" x2="131" y2="68" stroke="black" stroke-width="1" /><line x1="78" y1="40" x2="25" y2="40" stroke="black" stroke-width="1" /><line x1="343" y1="40" x2="343" y2="12" stroke="black" stroke-width="1" /><line x1="343" y1="40" x2="290" y2="68" stroke="black" stroke-width="1" /><line x1="343" y1="40" x2="290" y2="40" stroke="black" stroke-width="1" /><line x1="343" y1="40" x2="343" y2="96" stroke="black" stroke-width="1" /><line x1="343" y1="12" x2="343" y2="40" stroke="black" stroke-width="1" /><line x1="343" y1="12" x2="290" y2="12" stroke="black" stroke-width="1" /><line x1="343" y1="12" x2="290" y2="40" stroke="black" stroke-width="1" /><line x1="290" y1="12" x2="184" y2="12" stroke="black" stroke-width="1" /><line x1="290" y1="12" x2="184" y2="40" stroke="black" stroke-width="1" /><line x1="290" y1="12" x2="343" y2="12" stroke="black" stroke-width="1" /><line x1="290" y1="12" x2="290" y2="40" stroke="black" stroke-width="1" /><line x1="290" y1="68" x2="184" y2="40" stroke="black" stroke-width="1" /><line x1="290" y1="68" x2="343" y2="40" stroke="black" stroke-width="1" /><line x1="290" y1="68" x2="290" y2="40" stroke="black" stroke-width="1" /><line x1="290" y1="68" x2="343" y2="96" stroke="black" stroke-width="1" /><line x1="290" y1="68" x2="290" y2="96" stroke="black" stroke-width="1" /><line x1="290" y1="68" x2="237" y2="68" stroke="black" stroke-width="1" /><line x1="290" y1="40" x2="184" y2="40" stroke="black" stroke-width="1" /><line x1="290" y1="40" x2="343" y2="40" stroke="black" stroke-width="1" /><line x1="290" y1="40" x2="343" y2="12" stroke="black" stroke-width="1" /><line x1="290" y1="40" x2="290" y2="12" stroke="black" stroke-width="1" /><line x1="290" y1="40" x2="290" y2="68" stroke="black" stroke-width="1" /><line x1="343" y1="96" x2="343" y2="124" stroke="black" stroke-width="1" /><line x1="343" y1="96" x2="343" y2="40" stroke="black" stroke-width="1" /><line x1="343" y1="96" x2="290" y2="68" stroke="black" stroke-width="1" /><line x1="343" y1="96" x2="290" y2="96" stroke="black" stroke-width="1" /><line x1="290" y1="96" x2="290" y2="124" stroke="black" stroke-width="1" /><line x1="290" y1="96" x2="343" y2="124" stroke="black" stroke-width="1" /><line x1="290" y1="96" x2="290" y2="68" stroke="black" stroke-width="1" /><line x1="290" y1="96" x2="343" y2="96" stroke="black" stroke-width="1" /><line x1="290" y1="96" x2="237" y2="68" stroke="black" stroke-width="1" /><line x1="290" y1="96" x2="237" y2="96" stroke="black" stroke-width="1" /><line x1="184" y1="96" x2="131" y2="96" stroke="black" stroke-width="1" /><line x1="184" y1="96" x2="184" y2="124" stroke="black" stroke-width="1" /><line x1="184" y1="96" x2="184" y2="68" stroke="black" stroke-width="1" /><line x1="184" y1="96" x2="131" y2="68" stroke="black" stroke-width="1" /><line x1="184" y1="96" x2="237" y2="68" stroke="black" stroke-width="1" /><line x1="184" y1="96" x2="237" y2="96" stroke="black" stroke-width="1" /><line x1="237" y1="68" x2="184" y2="40" stroke="black" stroke-width="1" /><line x1="237" y1="68" x2="184" y2="68" stroke="black" stroke-width="1" /><line x1="237" y1="68" x2="290" y2="68" stroke="black" stroke-width="1" /><line x1="237" y1="68" x2="290" y2="96" stroke="black" stroke-width="1" /><line x1="237" y1="68" x2="184" y2="96" stroke="black" stroke-width="1" /><line x1="237" y1="68" x2="237" y2="96" stroke="black" stroke-width="1" /><line x1="237" y1="96" x2="290" y2="124" stroke="black" stroke-width="1" /><line x1="237" y1="96" x2="184" y2="124" stroke="black" stroke-width="1" /><line x1="237" y1="96" x2="237" y2="124" stroke="black" stroke-width="1" /><line x1="237" y1="96" x2="290" y2="96" stroke="black" stroke-width="1" /><line x1="237" y1="96" x2="184" y2="96" stroke="black" stroke-width="1" /><line x1="237" y1="96" x2="237" y2="68" stroke="black" stroke-width="1" /></svg>