<svg xmlns="http://www.w3.org/2000/svg" width="176" height="101"><rect x="0" y="0" width="176" height="101" fill="rgb(255,255,255)"></rect><rect x="0" y="0" width="50" height="25" fill="rgba(100,100,100,1)"><title>1</title></rect><rect x="0" y="28" width="50" height="25" fill="rgba(100,100,100,1)"><title>1</title></rect><rect x="0" y="56" width="50" height="25" fill="rgba(100,100,100,1)"><title>1</title></rect><rect x="53" y="0" width="50" height="25" fill="rgba(100,100,100,1)"><title>1</title></rect><rect x="53" y="28" width="50" height="25" fill="rgba(100,100,100,1)"><title>1</title></rect><rect x="53" y="56" width="50" height="25" fill="rgba(100,100,100,1)"><title>1</title></rect><rect x="106" y="0" width="50" height="25" fill="rgba(100,100,100,1)"><title>1</title></rect><rect x="106" y="28" width="50" height="25" fill="rgba(100,100,100,1)"><title>1</title></rect><rect x="106" y="56" width="50" height="25" fill="rgba(100,100,100,1)"><title>1</title></rect><line x1="25" y1="68" x2="78" y2="68" stroke="black" stroke-width="1" /><line x1="25" y1="68" x2="25" y2="40" stroke="black" stroke-width="1" /><line x1="78" y1="68" x2="25" y2="68" stroke="black" stroke-width="1" /><line x1="78" y1="68" x2="25" y2="40" stroke="black" stroke-width="1" /><line x1="78" y1="68" x2="131" y2="68" stroke="black" stroke-width="1" /><line x1="78" y1="68" x2="78" y2="40" stroke="black" stroke-width="1" /><line x1="25" y1="12" x2="25" y2="40" stroke="black" stroke-width="1" /><line x1="25" y1="12" x2="78" y2="12" stroke="black" stroke-width="1" /><line x1="25" y1="40" x2="25" y2="68" stroke="black" stroke-width="1" /><line x1="25" y1="40" x2="78" y2="68" stroke="black" stroke-width="1" /><line x1="25" y1="40" x2="25" y2="12" stroke="black" stroke-width="1" /><line x1="25" y1="40" x2="78" y2="12" stroke="black" stroke-width="1" /><line x1="25" y1="40" x2="78" y2="40" stroke="black" stroke-width="1" /><line x1="131" y1="68" x2="78" y2="68" stroke="black" stroke-width="1" /><line x1="131" y1="68" x2="131" y2="40" stroke="black" stroke-width="1" /><line x1="131" y1="68" x2="78" y2="40" stroke="black" stroke-width="1" /><line x1="131" y1="40" x2="131" y2="68" stroke="black" stroke-width="1" /><line x1="131" y1="40" x2="78" y2="40" stroke="black" stroke-width="1" /><line x1="78" y1="12" x2="25" y2="12" stroke="black" stroke-width="1" /><line x1="78" y1="12" x2="25" y2="40" stroke="black" stroke-width="1" /><line x1="78" y1="12" x2="131" y2="12" stroke="black" stroke-width="1" /><line x1="78" y1="12" x2="78" y2="40" stroke="black" stroke-width="1" /><line x1="131" y1="12" x2="78" y2="12" stroke="black" stroke-width="1" /><line x1="131" y1="12" x2="78" y2="40" stroke="black" stroke-width="1" /><line x1="78" y1="40" x2="78" y2="68" stroke="black" stroke-width="1" /><line x1="78" y1="40" x2="25" y2="40" stroke="black" stroke-width="1" /><line x1="78" y1="40" x2="131" y2="68" stroke="black" stroke-width="1" /><line x1="78" y1="40" x2="131" y2="40" stroke="black" stroke-width="1" /><line x1="78" y1="40" x2="78" y2="12" stroke="black" stroke-width="1" /><line x1="78" y1="40" x2="131" y2="12" stroke="black" stroke-width="1" /></svg>