<svg xmlns="http://www.w3.org/2000/svg" width="490" height="645"><rect x="210" y="341" width="40" height="20" fill="rgb(230,230,230)"><title>0</title></rect><text x="230" y="351" text-anchor="middle" alignment-baseline="middle" fill="black">+</text><rect x="210" y="319" width="40" height="20" fill="rgb(230,230,230)"><title>1</title></rect><text x="230" y="329" text-anchor="middle" alignment-baseline="middle" fill="black">+</text><rect x="386" y="297" width="40" height="20" fill="rgb(230,230,230)"><title>2</title></rect><text x="406" y="307" text-anchor="middle" alignment-baseline="middle" fill="black">+</text><rect x="386" y="253" width="40" height="20" fill="rgb(230,230,230)"><title>3</title></rect><text x="406" y="263" text-anchor="middle" alignment-baseline="middle" fill="black">+</text><rect x="78" y="517" width="40" height="20" fill="rgb(230,230,230)"><title>4</title></rect><text x="98" y="527" text-anchor="middle" alignment-baseline="middle" fill="black">+</text><rect x="78" y="539" width="40" height="20" fill="rgb(230,230,230)"><title>5</title></rect><text x="98" y="549" text-anchor="middle" alignment-baseline="middle" fill="black">+</text><rect x="386" y="231" width="40" height="20" fill="rgb(230,230,230)"><title>6</title></rect><text x="406" y="241" text-anchor="middle" alignment-baseline="middle" fill="black">+</text><rect x="386" y="187" width="40" height="20" fill="rgb(230,230,230)"><title>7</title></rect><text x="406" y="197" text-anchor="middle" alignment-baseline="middle" fill="black">+</text><rect x="210" y="539" width="40" height="20" fill="rgb(230,230,230)"><title>8</title></rect><text x="230" y="549" text-anchor="middle" alignment-baseline="middle" fill="black">+</text><rect x="210" y="561" width="40" height="20" fill="rgb(230,230,230)"><title>9</title></rect><text x="230" y="571" text-anchor="middle" alignment-baseline="middle" fill="black">+</text><rect x="386" y="495" width="40" height="20" fill="rgb(230,230,230)"><title>10</title></rect><text x="406" y="505" text-anchor="middle" alignment-baseline="middle" fill="black">+</text><rect x="342" y="561" width="40" height="20" fill="rgb(230,230,230)"><title>11</title></rect><text x="362" y="571" text-anchor="middle" alignment-baseline="middle" fill="black">+</text><rect x="34" y="187" width="40" height="20" fill="rgb(230,230,230)"><title>12</title></rect><text x="54" y="197" text-anchor="middle" alignment-baseline="middle" fill="black">+</text><rect x="78" y="121" width="40" height="20" fill="rgb(230,230,230)"><title>13</title></rect><text x="98" y="131" text-anchor="middle" alignment-baseline="middle" fill="black">+</text><rect x="298" y="495" width="40" height="20" fill="rgb(230,230,230)"><title>14</title></rect><text x="318" y="505" text-anchor="middle" alignment-baseline="middle" fill="black">+</text><rect x="298" y="539" width="40" height="20" fill="rgb(230,230,230)"><title>15</title></rect><text x="318" y="549" text-anchor="middle" alignment-baseline="middle" fill="black">+</text><rect x="342" y="77" width="40" height="20" fill="rgb(230,230,230)"><title>16</title></rect><text x="362" y="87" text-anchor="middle" alignment-baseline="middle" fill="black">+</text><rect x="254" y="121" width="40" height="20" fill="rgb(230,230,230)"><title>17</title></rect><text x="274" y="131" text-anchor="middle" alignment-baseline="middle" fill="black">+</text><rect x="430" y="319" width="40" height="20" fill="rgb(230,230,230)"><title>18</title></rect><text x="450" y="329" text-anchor="middle" alignment-baseline="middle" fill="black">+</text><rect x="430" y="297" width="40" height="20" fill="rgb(230,230,230)"><title>19</title></rect><text x="450" y="307" text-anchor="middle" alignment-baseline="middle" fill="black">+</text><rect x="254" y="143" width="40" height="20" fill="rgb(230,230,230)"><title>20</title></rect><text x="274" y="153" text-anchor="middle" alignment-baseline="middle" fill="black">+</text><rect x="210" y="297" width="40" height="20" fill="rgb(230,230,230)"><title>21</title></rect><text x="230" y="307" text-anchor="middle" alignment-baseline="middle" fill="black">+</text><rect x="430" y="429" width="40" height="20" fill="rgb(230,230,230)"><title>22</title></rect><text x="450" y="439" text-anchor="middle" alignment-baseline="middle" fill="black">+</text><rect x="430" y="407" width="40" height="20" fill="rgb(230,230,230)"><title>23</title></rect><text x="450" y="417" text-anchor="middle" alignment-baseline="middle" fill="black">+</text><rect x="78" y="473" width="40" height="20" fill="rgb(230,230,230)"><title>24</title></rect><text x="98" y="483" text-anchor="middle" alignment-baseline="middle" fill="black">+</text><rect x="78" y="495" width="40" height="20" fill="rgb(230,230,230)"><title>25</title></rect><text x="98" y="505" text-anchor="middle" alignment-baseline="middle" fill="black">+</text><rect x="430" y="341" width="40" height="20" fill="rgb(230,230,230)"><title>26</title></rect><text x="450" y="351" text-anchor="middle" alignment-baseline="middle" fill="black">+</text><rect x="430" y="363" width="40" height="20" fill="rgb(230,230,230)"><title>27</title></rect><text x="450" y="373" text-anchor="middle" alignment-baseline="middle" fill="black">+</text><rect x="386" y="517" width="40" height="20" fill="rgb(230,230,230)"><title>28</title></rect><text x="406" y="527" text-anchor="middle" alignment-baseline="middle" fill="black">+</text><rect x="430" y="451" width="40" height="20" fill="rgb(230,230,230)"><title>29</title></rect><text x="450" y="461" text-anchor="middle" alignment-baseline="middle" fill="black">+</text><rect x="298" y="605" width="40" height="20" fill="rgb(230,230,230)"><title>30</title></rect><text x="318" y="615" text-anchor="middle" alignment-baseline="middle" fill="black">+</text><rect x="254" y="561" width="40" height="20" fill="rgb(230,230,230)"><title>31</title></rect><text x="274" y="571" text-anchor="middle" alignment-baseline="middle" fill="black">+</text><rect x="34" y="253" width="40" height="20" fill="rgb(230,230,230)"><title>32</title></rect><text x="54" y="263" text-anchor="middle" alignment-baseline="middle" fill="black">+</text><rect x="78" y="143" width="40" height="20" fill="rgb(230,230,230)"><title>33</title></rect><text x="98" y="153" text-anchor="middle" alignment-baseline="middle" fill="black">+</text><rect x="254" y="539" width="40" height="20" fill="rgb(230,230,230)"><title>34</title></rect><text x="274" y="549" text-anchor="middle" alignment-baseline="middle" fill="black">+</text><rect x="298" y="561" width="40" height="20" fill="rgb(230,230,230)"><title>35</title></rect><text x="318" y="571" text-anchor="middle" alignment-baseline="middle" fill="black">+</text><rect x="298" y="33" width="40" height="20" fill="rgb(230,230,230)"><title>36</title></rect><text x="318" y="43" text-anchor="middle" alignment-baseline="middle" fill="black">+</text><rect x="254" y="99" width="40" height="20" fill="rgb(230,230,230)"><title>37</title></rect><text x="274" y="109" text-anchor="middle" alignment-baseline="middle" fill="black">+</text><rect x="342" y="385" width="40" height="20" fill="rgb(230,230,230)"><title>38</title></rect><text x="362" y="395" text-anchor="middle" alignment-baseline="middle" fill="black">+</text><rect x="342" y="407" width="40" height="20" fill="rgb(230,230,230)"><title>39</title></rect><text x="362" y="417" text-anchor="middle" alignment-baseline="middle" fill="black">+</text><rect x="254" y="165" width="40" height="20" fill="rgb(230,230,230)"><title>40</title></rect><text x="274" y="175" text-anchor="middle" alignment-baseline="middle" fill="black">+</text><rect x="210" y="275" width="40" height="20" fill="rgb(230,230,230)"><title>41</title></rect><text x="230" y="285" text-anchor="middle" alignment-baseline="middle" fill="black">+</text><rect x="298" y="517" width="40" height="20" fill="rgb(230,230,230)"><title>42</title></rect><text x="318" y="527" text-anchor="middle" alignment-baseline="middle" fill="black">+</text><rect x="342" y="495" width="40" height="20" fill="rgb(230,230,230)"><title>43</title></rect><text x="362" y="505" text-anchor="middle" alignment-baseline="middle" fill="black">+</text><rect x="34" y="473" width="40" height="20" fill="rgb(230,230,230)"><title>44</title></rect><text x="54" y="483" text-anchor="middle" alignment-baseline="middle" fill="black">+</text><rect x="122" y="517" width="40" height="20" fill="rgb(230,230,230)"><title>45</title></rect><text x="142" y="527" text-anchor="middle" alignment-baseline="middle" fill="black">+</text><rect x="386" y="473" width="40" height="20" fill="rgb(230,230,230)"><title>46</title></rect><text x="406" y="483" text-anchor="middle" alignment-baseline="middle" fill="black">+</text><rect x="342" y="517" width="40" height="20" fill="rgb(230,230,230)"><title>47</title></rect><text x="362" y="527" text-anchor="middle" alignment-baseline="middle" fill="black">+</text><rect x="430" y="385" width="40" height="20" fill="rgb(230,230,230)"><title>48</title></rect><text x="450" y="395" text-anchor="middle" alignment-baseline="middle" fill="black">+</text><rect x="430" y="231" width="40" height="20" fill="rgb(230,230,230)"><title>49</title></rect><text x="450" y="241" text-anchor="middle" alignment-baseline="middle" fill="black">+</text><rect x="342" y="539" width="40" height="20" fill="rgb(230,230,230)"><title>50</title></rect><text x="362" y="549" text-anchor="middle" alignment-baseline="middle" fill="black">+</text><rect x="254" y="583" width="40" height="20" fill="rgb(230,230,230)"><title>51</title></rect><text x="274" y="593" text-anchor="middle" alignment-baseline="middle" fill="black">+</text><rect x="122" y="99" width="40" height="20" fill="rgb(230,230,230)"><title>52</title></rect><text x="142" y="109" text-anchor="middle" alignment-baseline="middle" fill="black">+</text><rect x="166" y="33" width="40" height="20" fill="rgb(230,230,230)"><title>53</title></rect><text x="186" y="43" text-anchor="middle" alignment-baseline="middle" fill="black">+</text><rect x="166" y="539" width="40" height="20" fill="rgb(230,230,230)"><title>54</title></rect><text x="186" y="549" text-anchor="middle" alignment-baseline="middle" fill="black">+</text><rect x="298" y="583" width="40" height="20" fill="rgb(230,230,230)"><title>55</title></rect><text x="318" y="593" text-anchor="middle" alignment-baseline="middle" fill="black">+</text><rect x="298" y="55" width="40" height="20" fill="rgb(230,230,230)"><title>56</title></rect><text x="318" y="65" text-anchor="middle" alignment-baseline="middle" fill="black">+</text><rect x="254" y="77" width="40" height="20" fill="rgb(230,230,230)"><title>57</title></rect><text x="274" y="87" text-anchor="middle" alignment-baseline="middle" fill="black">+</text><rect x="386" y="363" width="40" height="20" fill="rgb(230,230,230)"><title>58</title></rect><text x="406" y="373" text-anchor="middle" alignment-baseline="middle" fill="black">+</text><rect x="342" y="451" width="40" height="20" fill="rgb(230,230,230)"><title>59</title></rect><text x="362" y="461" text-anchor="middle" alignment-baseline="middle" fill="black">+</text><rect x="254" y="187" width="40" height="20" fill="rgb(230,230,230)"><title>60</title></rect><text x="274" y="197" text-anchor="middle" alignment-baseline="middle" fill="black">+</text><rect x="210" y="253" width="40" height="20" fill="rgb(230,230,230)"><title>61</title></rect><text x="230" y="263" text-anchor="middle" alignment-baseline="middle" fill="black">+</text><rect x="254" y="517" width="40" height="20" fill="rgb(230,230,230)"><title>62</title></rect><text x="274" y="527" text-anchor="middle" alignment-baseline="middle" fill="black">+</text><rect x="342" y="473" width="40" height="20" fill="rgb(230,230,230)"><title>63</title></rect><text x="362" y="483" text-anchor="middle" alignment-baseline="middle" fill="black">+</text><rect x="34" y="407" width="40" height="20" fill="rgb(230,230,230)"><title>64</title></rect><text x="54" y="417" text-anchor="middle" alignment-baseline="middle" fill="black">+</text><rect x="210" y="517" width="40" height="20" fill="rgb(230,230,230)"><title>65</title></rect><text x="230" y="527" text-anchor="middle" alignment-baseline="middle" fill="black">+</text><rect x="386" y="429" width="40" height="20" fill="rgb(230,230,230)"><title>66</title></rect><text x="406" y="439" text-anchor="middle" alignment-baseline="middle" fill="black">+</text><rect x="386" y="407" width="40" height="20" fill="rgb(230,230,230)"><title>67</title></rect><text x="406" y="417" text-anchor="middle" alignment-baseline="middle" fill="black">+</text><rect x="386" y="209" width="40" height="20" fill="rgb(230,230,230)"><title>68</title></rect><text x="406" y="219" text-anchor="middle" alignment-baseline="middle" fill="black">+</text><rect x="298" y="77" width="40" height="20" fill="rgb(230,230,230)"><title>69</title></rect><text x="318" y="87" text-anchor="middle" alignment-baseline="middle" fill="black">+</text><rect x="386" y="385" width="40" height="20" fill="rgb(230,230,230)"><title>70</title></rect><text x="406" y="395" text-anchor="middle" alignment-baseline="middle" fill="black">+</text><rect x="386" y="451" width="40" height="20" fill="rgb(230,230,230)"><title>71</title></rect><text x="406" y="461" text-anchor="middle" alignment-baseline="middle" fill="black">+</text><rect x="122" y="121" width="40" height="20" fill="rgb(230,230,230)"><title>72</title></rect><text x="142" y="131" text-anchor="middle" alignment-baseline="middle" fill="black">+</text><rect x="298" y="99" width="40" height="20" fill="rgb(230,230,230)"><title>73</title></rect><text x="318" y="109" text-anchor="middle" alignment-baseline="middle" fill="black">+</text><rect x="34" y="429" width="40" height="20" fill="rgb(230,230,230)"><title>74</title></rect><text x="54" y="439" text-anchor="middle" alignment-baseline="middle" fill="black">+</text><rect x="166" y="517" width="40" height="20" fill="rgb(230,230,230)"><title>75</title></rect><text x="186" y="527" text-anchor="middle" alignment-baseline="middle" fill="black">+</text><rect x="298" y="121" width="40" height="20" fill="rgb(230,230,230)"><title>76</title></rect><text x="318" y="131" text-anchor="middle" alignment-baseline="middle" fill="black">+</text><rect x="254" y="55" width="40" height="20" fill="rgb(230,230,230)"><title>77</title></rect><text x="274" y="65" text-anchor="middle" alignment-baseline="middle" fill="black">+</text><rect x="342" y="253" width="40" height="20" fill="rgb(230,230,230)"><title>78</title></rect><text x="362" y="263" text-anchor="middle" alignment-baseline="middle" fill="black">+</text><rect x="386" y="341" width="40" height="20" fill="rgb(230,230,230)"><title>79</title></rect><text x="406" y="351" text-anchor="middle" alignment-baseline="middle" fill="black">+</text><rect x="254" y="209" width="40" height="20" fill="rgb(230,230,230)"><title>80</title></rect><text x="274" y="219" text-anchor="middle" alignment-baseline="middle" fill="black">+</text><rect x="210" y="231" width="40" height="20" fill="rgb(230,230,230)"><title>81</title></rect><text x="230" y="241" text-anchor="middle" alignment-baseline="middle" fill="black">+</text><rect x="166" y="495" width="40" height="20" fill="rgb(230,230,230)"><title>82</title></rect><text x="186" y="505" text-anchor="middle" alignment-baseline="middle" fill="black">+</text><rect x="298" y="319" width="40" height="20" fill="rgb(230,230,230)"><title>83</title></rect><text x="318" y="329" text-anchor="middle" alignment-baseline="middle" fill="black">+</text><rect x="122" y="165" width="40" height="20" fill="rgb(230,230,230)"><title>84</title></rect><text x="142" y="175" text-anchor="middle" alignment-baseline="middle" fill="black">+</text><rect x="122" y="187" width="40" height="20" fill="rgb(230,230,230)"><title>85</title></rect><text x="142" y="197" text-anchor="middle" alignment-baseline="middle" fill="black">+</text><rect x="342" y="429" width="40" height="20" fill="rgb(230,230,230)"><title>86</title></rect><text x="362" y="439" text-anchor="middle" alignment-baseline="middle" fill="black">+</text><rect x="298" y="385" width="40" height="20" fill="rgb(230,230,230)"><title>87</title></rect><text x="318" y="395" text-anchor="middle" alignment-baseline="middle" fill="black">+</text><rect x="386" y="319" width="40" height="20" fill="rgb(230,230,230)"><title>88</title></rect><text x="406" y="329" text-anchor="middle" alignment-baseline="middle" fill="black">+</text><rect x="342" y="187" width="40" height="20" fill="rgb(230,230,230)"><title>89</title></rect><text x="362" y="197" text-anchor="middle" alignment-baseline="middle" fill="black">+</text><rect x="342" y="341" width="40" height="20" fill="rgb(230,230,230)"><title>90</title></rect><text x="362" y="351" text-anchor="middle" alignment-baseline="middle" fill="black">+</text><rect x="298" y="253" width="40" height="20" fill="rgb(230,230,230)"><title>91</title></rect><text x="318" y="263" text-anchor="middle" alignment-baseline="middle" fill="black">+</text><rect x="78" y="165" width="40" height="20" fill="rgb(230,230,230)"><title>92</title></rect><text x="98" y="175" text-anchor="middle" alignment-baseline="middle" fill="black">+</text><rect x="298" y="143" width="40" height="20" fill="rgb(230,230,230)"><title>93</title></rect><text x="318" y="153" text-anchor="middle" alignment-baseline="middle" fill="black">+</text><rect x="78" y="187" width="40" height="20" fill="rgb(230,230,230)"><title>94</title></rect><text x="98" y="197" text-anchor="middle" alignment-baseline="middle" fill="black">+</text><rect x="122" y="143" width="40" height="20" fill="rgb(230,230,230)"><title>95</title></rect><text x="142" y="153" text-anchor="middle" alignment-baseline="middle" fill="black">+</text><rect x="342" y="165" width="40" height="20" fill="rgb(230,230,230)"><title>96</title></rect><text x="362" y="175" text-anchor="middle" alignment-baseline="middle" fill="black">+</text><rect x="254" y="33" width="40" height="20" fill="rgb(230,230,230)"><title>97</title></rect><text x="274" y="43" text-anchor="middle" alignment-baseline="middle" fill="black">+</text><rect x="298" y="231" width="40" height="20" fill="rgb(230,230,230)"><title>98</title></rect><text x="318" y="241" text-anchor="middle" alignment-baseline="middle" fill="black">+</text><rect x="298" y="209" width="40" height="20" fill="rgb(230,230,230)"><title>99</title></rect><text x="318" y="219" text-anchor="middle" alignment-baseline="middle" fill="black">+</text><rect x="254" y="231" width="40" height="20" fill="rgb(230,230,230)"><title>100</title></rect><text x="274" y="241" text-anchor="middle" alignment-baseline="middle" fill="black">+</text><rect x="210" y="209" width="40" height="20" fill="rgb(230,230,230)"><title>101</title></rect><text x="230" y="219" text-anchor="middle" alignment-baseline="middle" fill="black">+</text><rect x="34" y="385" width="40" height="20" fill="rgb(230,230,230)"><title>102</title></rect><text x="54" y="395" text-anchor="middle" alignment-baseline="middle" fill="black">+</text><rect x="78" y="429" width="40" height="20" fill="rgb(230,230,230)"><title>103</title></rect><text x="98" y="439" text-anchor="middle" alignment-baseline="middle" fill="black">+</text><rect x="210" y="187" width="40" height="20" fill="rgb(230,230,230)"><title>104</title></rect><text x="230" y="197" text-anchor="middle" alignment-baseline="middle" fill="black">+</text><rect x="210" y="165" width="40" height="20" fill="rgb(230,230,230)"><title>105</title></rect><text x="230" y="175" text-anchor="middle" alignment-baseline="middle" fill="black">+</text><rect x="298" y="473" width="40" height="20" fill="rgb(230,230,230)"><title>106</title></rect><text x="318" y="483" text-anchor="middle" alignment-baseline="middle" fill="black">+</text><rect x="298" y="429" width="40" height="20" fill="rgb(230,230,230)"><title>107</title></rect><text x="318" y="439" text-anchor="middle" alignment-baseline="middle" fill="black">+</text><rect x="78" y="451" width="40" height="20" fill="rgb(230,230,230)"><title>108</title></rect><text x="98" y="461" text-anchor="middle" alignment-baseline="middle" fill="black">+</text><rect x="122" y="495" width="40" height="20" fill="rgb(230,230,230)"><title>109</title></rect><text x="142" y="505" text-anchor="middle" alignment-baseline="middle" fill="black">+</text><rect x="298" y="275" width="40" height="20" fill="rgb(230,230,230)"><title>110</title></rect><text x="318" y="285" text-anchor="middle" alignment-baseline="middle" fill="black">+</text><rect x="78" y="231" width="40" height="20" fill="rgb(230,230,230)"><title>111</title></rect><text x="98" y="241" text-anchor="middle" alignment-baseline="middle" fill="black">+</text><rect x="34" y="363" width="40" height="20" fill="rgb(230,230,230)"><title>112</title></rect><text x="54" y="373" text-anchor="middle" alignment-baseline="middle" fill="black">+</text><rect x="122" y="231" width="40" height="20" fill="rgb(230,230,230)"><title>113</title></rect><text x="142" y="241" text-anchor="middle" alignment-baseline="middle" fill="black">+</text><rect x="78" y="209" width="40" height="20" fill="rgb(230,230,230)"><title>114</title></rect><text x="98" y="219" text-anchor="middle" alignment-baseline="middle" fill="black">+</text><rect x="166" y="187" width="40" height="20" fill="rgb(230,230,230)"><title>115</title></rect><text x="186" y="197" text-anchor="middle" alignment-baseline="middle" fill="black">+</text><rect x="386" y="275" width="40" height="20" fill="rgb(230,230,230)"><title>116</title></rect><text x="406" y="285" text-anchor="middle" alignment-baseline="middle" fill="black">+</text><rect x="342" y="209" width="40" height="20" fill="rgb(230,230,230)"><title>117</title></rect><text x="362" y="219" text-anchor="middle" alignment-baseline="middle" fill="black">+</text><rect x="342" y="231" width="40" height="20" fill="rgb(230,230,230)"><title>118</title></rect><text x="362" y="241" text-anchor="middle" alignment-baseline="middle" fill="black">+</text><rect x="298" y="187" width="40" height="20" fill="rgb(230,230,230)"><title>119</title></rect><text x="318" y="197" text-anchor="middle" alignment-baseline="middle" fill="black">+</text><rect x="166" y="231" width="40" height="20" fill="rgb(230,230,230)"><title>120</title></rect><text x="186" y="241" text-anchor="middle" alignment-baseline="middle" fill="black">+</text><rect x="166" y="209" width="40" height="20" fill="rgb(230,230,230)"><title>121</title></rect><text x="186" y="219" text-anchor="middle" alignment-baseline="middle" fill="black">+</text><rect x="-10" y="297" width="40" height="20" fill="rgb(230,230,230)"><title>122</title></rect><text x="10" y="307" text-anchor="middle" alignment-baseline="middle" fill="black">+</text><rect x="34" y="341" width="40" height="20" fill="rgb(230,230,230)"><title>123</title></rect><text x="54" y="351" text-anchor="middle" alignment-baseline="middle" fill="black">+</text><rect x="166" y="143" width="40" height="20" fill="rgb(230,230,230)"><title>124</title></rect><text x="186" y="153" text-anchor="middle" alignment-baseline="middle" fill="black">+</text><rect x="210" y="143" width="40" height="20" fill="rgb(230,230,230)"><title>125</title></rect><text x="230" y="153" text-anchor="middle" alignment-baseline="middle" fill="black">+</text><rect x="254" y="495" width="40" height="20" fill="rgb(230,230,230)"><title>126</title></rect><text x="274" y="505" text-anchor="middle" alignment-baseline="middle" fill="black">+</text><rect x="298" y="451" width="40" height="20" fill="rgb(230,230,230)"><title>127</title></rect><text x="318" y="461" text-anchor="middle" alignment-baseline="middle" fill="black">+</text><rect x="78" y="341" width="40" height="20" fill="rgb(230,230,230)"><title>128</title></rect><text x="98" y="351" text-anchor="middle" alignment-baseline="middle" fill="black">+</text><rect x="122" y="473" width="40" height="20" fill="rgb(230,230,230)"><title>129</title></rect><text x="142" y="483" text-anchor="middle" alignment-baseline="middle" fill="black">+</text><rect x="298" y="341" width="40" height="20" fill="rgb(230,230,230)"><title>130</title></rect><text x="318" y="351" text-anchor="middle" alignment-baseline="middle" fill="black">+</text><rect x="166" y="297" width="40" height="20" fill="rgb(230,230,230)"><title>131</title></rect><text x="186" y="307" text-anchor="middle" alignment-baseline="middle" fill="black">+</text><rect x="122" y="451" width="40" height="20" fill="rgb(230,230,230)"><title>132</title></rect><text x="142" y="461" text-anchor="middle" alignment-baseline="middle" fill="black">+</text><rect x="122" y="253" width="40" height="20" fill="rgb(230,230,230)"><title>133</title></rect><text x="142" y="263" text-anchor="middle" alignment-baseline="middle" fill="black">+</text><rect x="78" y="363" width="40" height="20" fill="rgb(230,230,230)"><title>134</title></rect><text x="98" y="373" text-anchor="middle" alignment-baseline="middle" fill="black">+</text><rect x="34" y="319" width="40" height="20" fill="rgb(230,230,230)"><title>135</title></rect><text x="54" y="329" text-anchor="middle" alignment-baseline="middle" fill="black">+</text><rect x="342" y="319" width="40" height="20" fill="rgb(230,230,230)"><title>136</title></rect><text x="362" y="329" text-anchor="middle" alignment-baseline="middle" fill="black">+</text><rect x="342" y="363" width="40" height="20" fill="rgb(230,230,230)"><title>137</title></rect><text x="362" y="373" text-anchor="middle" alignment-baseline="middle" fill="black">+</text><rect x="342" y="275" width="40" height="20" fill="rgb(230,230,230)"><title>138</title></rect><text x="362" y="285" text-anchor="middle" alignment-baseline="middle" fill="black">+</text><rect x="298" y="165" width="40" height="20" fill="rgb(230,230,230)"><title>139</title></rect><text x="318" y="175" text-anchor="middle" alignment-baseline="middle" fill="black">+</text><rect x="122" y="275" width="40" height="20" fill="rgb(230,230,230)"><title>140</title></rect><text x="142" y="285" text-anchor="middle" alignment-baseline="middle" fill="black">+</text><rect x="166" y="253" width="40" height="20" fill="rgb(230,230,230)"><title>141</title></rect><text x="186" y="263" text-anchor="middle" alignment-baseline="middle" fill="black">+</text><rect x="34" y="297" width="40" height="20" fill="rgb(230,230,230)"><title>142</title></rect><text x="54" y="307" text-anchor="middle" alignment-baseline="middle" fill="black">+</text><rect x="78" y="319" width="40" height="20" fill="rgb(230,230,230)"><title>143</title></rect><text x="98" y="329" text-anchor="middle" alignment-baseline="middle" fill="black">+</text><rect x="166" y="121" width="40" height="20" fill="rgb(230,230,230)"><title>144</title></rect><text x="186" y="131" text-anchor="middle" alignment-baseline="middle" fill="black">+</text><rect x="210" y="121" width="40" height="20" fill="rgb(230,230,230)"><title>145</title></rect><text x="230" y="131" text-anchor="middle" alignment-baseline="middle" fill="black">+</text><rect x="122" y="319" width="40" height="20" fill="rgb(230,230,230)"><title>146</title></rect><text x="142" y="329" text-anchor="middle" alignment-baseline="middle" fill="black">+</text><rect x="122" y="297" width="40" height="20" fill="rgb(230,230,230)"><title>147</title></rect><text x="142" y="307" text-anchor="middle" alignment-baseline="middle" fill="black">+</text><rect x="166" y="165" width="40" height="20" fill="rgb(230,230,230)"><title>148</title></rect><text x="186" y="175" text-anchor="middle" alignment-baseline="middle" fill="black">+</text><rect x="122" y="209" width="40" height="20" fill="rgb(230,230,230)"><title>149</title></rect><text x="142" y="219" text-anchor="middle" alignment-baseline="middle" fill="black">+</text><rect x="298" y="363" width="40" height="20" fill="rgb(230,230,230)"><title>150</title></rect><text x="318" y="373" text-anchor="middle" alignment-baseline="middle" fill="black">+</text><rect x="166" y="275" width="40" height="20" fill="rgb(230,230,230)"><title>151</title></rect><text x="186" y="285" text-anchor="middle" alignment-baseline="middle" fill="black">+</text><rect x="210" y="495" width="40" height="20" fill="rgb(230,230,230)"><title>152</title></rect><text x="230" y="505" text-anchor="middle" alignment-baseline="middle" fill="black">+</text><rect x="122" y="341" width="40" height="20" fill="rgb(230,230,230)"><title>153</title></rect><text x="142" y="351" text-anchor="middle" alignment-baseline="middle" fill="black">+</text><rect x="78" y="407" width="40" height="20" fill="rgb(230,230,230)"><title>154</title></rect><text x="98" y="417" text-anchor="middle" alignment-baseline="middle" fill="black">+</text><rect x="78" y="385" width="40" height="20" fill="rgb(230,230,230)"><title>155</title></rect><text x="98" y="395" text-anchor="middle" alignment-baseline="middle" fill="black">+</text><rect x="298" y="297" width="40" height="20" fill="rgb(230,230,230)"><title>156</title></rect><text x="318" y="307" text-anchor="middle" alignment-baseline="middle" fill="black">+</text><rect x="254" y="341" width="40" height="20" fill="rgb(230,230,230)"><title>157</title></rect><text x="274" y="351" text-anchor="middle" alignment-baseline="middle" fill="black">+</text><rect x="298" y="407" width="40" height="20" fill="rgb(230,230,230)"><title>158</title></rect><text x="318" y="417" text-anchor="middle" alignment-baseline="middle" fill="black">+</text><rect x="342" y="297" width="40" height="20" fill="rgb(230,230,230)"><title>159</title></rect><text x="362" y="307" text-anchor="middle" alignment-baseline="middle" fill="black">+</text><rect x="166" y="363" width="40" height="20" fill="rgb(230,230,230)"><title>160</title></rect><text x="186" y="373" text-anchor="middle" alignment-baseline="middle" fill="black">+</text><rect x="122" y="363" width="40" height="20" fill="rgb(230,230,230)"><title>161</title></rect><text x="142" y="373" text-anchor="middle" alignment-baseline="middle" fill="black">+</text><rect x="34" y="275" width="40" height="20" fill="rgb(230,230,230)"><title>162</title></rect><text x="54" y="285" text-anchor="middle" alignment-baseline="middle" fill="black">+</text><rect x="78" y="297" width="40" height="20" fill="rgb(230,230,230)"><title>163</title></rect><text x="98" y="307" text-anchor="middle" alignment-baseline="middle" fill="black">+</text><rect x="166" y="99" width="40" height="20" fill="rgb(230,230,230)"><title>164</title></rect><text x="186" y="109" text-anchor="middle" alignment-baseline="middle" fill="black">+</text><rect x="210" y="99" width="40" height="20" fill="rgb(230,230,230)"><title>165</title></rect><text x="230" y="109" text-anchor="middle" alignment-baseline="middle" fill="black">+</text><rect x="166" y="385" width="40" height="20" fill="rgb(230,230,230)"><title>166</title></rect><text x="186" y="395" text-anchor="middle" alignment-baseline="middle" fill="black">+</text><rect x="210" y="363" width="40" height="20" fill="rgb(230,230,230)"><title>167</title></rect><text x="230" y="373" text-anchor="middle" alignment-baseline="middle" fill="black">+</text><rect x="166" y="55" width="40" height="20" fill="rgb(230,230,230)"><title>168</title></rect><text x="186" y="65" text-anchor="middle" alignment-baseline="middle" fill="black">+</text><rect x="210" y="11" width="40" height="20" fill="rgb(230,230,230)"><title>169</title></rect><text x="230" y="21" text-anchor="middle" alignment-baseline="middle" fill="black">+</text><rect x="254" y="451" width="40" height="20" fill="rgb(230,230,230)"><title>170</title></rect><text x="274" y="461" text-anchor="middle" alignment-baseline="middle" fill="black">+</text><rect x="166" y="407" width="40" height="20" fill="rgb(230,230,230)"><title>171</title></rect><text x="186" y="417" text-anchor="middle" alignment-baseline="middle" fill="black">+</text><rect x="254" y="473" width="40" height="20" fill="rgb(230,230,230)"><title>172</title></rect><text x="274" y="483" text-anchor="middle" alignment-baseline="middle" fill="black">+</text><rect x="122" y="385" width="40" height="20" fill="rgb(230,230,230)"><title>173</title></rect><text x="142" y="395" text-anchor="middle" alignment-baseline="middle" fill="black">+</text><rect x="166" y="429" width="40" height="20" fill="rgb(230,230,230)"><title>174</title></rect><text x="186" y="439" text-anchor="middle" alignment-baseline="middle" fill="black">+</text><rect x="122" y="429" width="40" height="20" fill="rgb(230,230,230)"><title>175</title></rect><text x="142" y="439" text-anchor="middle" alignment-baseline="middle" fill="black">+</text><rect x="254" y="253" width="40" height="20" fill="rgb(230,230,230)"><title>176</title></rect><text x="274" y="263" text-anchor="middle" alignment-baseline="middle" fill="black">+</text><rect x="254" y="319" width="40" height="20" fill="rgb(230,230,230)"><title>177</title></rect><text x="274" y="329" text-anchor="middle" alignment-baseline="middle" fill="black">+</text><rect x="166" y="451" width="40" height="20" fill="rgb(230,230,230)"><title>178</title></rect><text x="186" y="461" text-anchor="middle" alignment-baseline="middle" fill="black">+</text><rect x="210" y="429" width="40" height="20" fill="rgb(230,230,230)"><title>179</title></rect><text x="230" y="439" text-anchor="middle" alignment-baseline="middle" fill="black">+</text><rect x="166" y="319" width="40" height="20" fill="rgb(230,230,230)"><title>180</title></rect><text x="186" y="329" text-anchor="middle" alignment-baseline="middle" fill="black">+</text><rect x="166" y="341" width="40" height="20" fill="rgb(230,230,230)"><title>181</title></rect><text x="186" y="351" text-anchor="middle" alignment-baseline="middle" fill="black">+</text><rect x="78" y="253" width="40" height="20" fill="rgb(230,230,230)"><title>182</title></rect><text x="98" y="263" text-anchor="middle" alignment-baseline="middle" fill="black">+</text><rect x="78" y="275" width="40" height="20" fill="rgb(230,230,230)"><title>183</title></rect><text x="98" y="285" text-anchor="middle" alignment-baseline="middle" fill="black">+</text><rect x="166" y="77" width="40" height="20" fill="rgb(230,230,230)"><title>184</title></rect><text x="186" y="87" text-anchor="middle" alignment-baseline="middle" fill="black">+</text><rect x="210" y="77" width="40" height="20" fill="rgb(230,230,230)"><title>185</title></rect><text x="230" y="87" text-anchor="middle" alignment-baseline="middle" fill="black">+</text><rect x="210" y="407" width="40" height="20" fill="rgb(230,230,230)"><title>186</title></rect><text x="230" y="417" text-anchor="middle" alignment-baseline="middle" fill="black">+</text><rect x="210" y="385" width="40" height="20" fill="rgb(230,230,230)"><title>187</title></rect><text x="230" y="395" text-anchor="middle" alignment-baseline="middle" fill="black">+</text><rect x="210" y="55" width="40" height="20" fill="rgb(230,230,230)"><title>188</title></rect><text x="230" y="65" text-anchor="middle" alignment-baseline="middle" fill="black">+</text><rect x="210" y="33" width="40" height="20" fill="rgb(230,230,230)"><title>189</title></rect><text x="230" y="43" text-anchor="middle" alignment-baseline="middle" fill="black">+</text><rect x="254" y="363" width="40" height="20" fill="rgb(230,230,230)"><title>190</title></rect><text x="274" y="373" text-anchor="middle" alignment-baseline="middle" fill="black">+</text><rect x="254" y="385" width="40" height="20" fill="rgb(230,230,230)"><title>191</title></rect><text x="274" y="395" text-anchor="middle" alignment-baseline="middle" fill="black">+</text><rect x="254" y="407" width="40" height="20" fill="rgb(230,230,230)"><title>192</title></rect><text x="274" y="417" text-anchor="middle" alignment-baseline="middle" fill="black">+</text><rect x="254" y="429" width="40" height="20" fill="rgb(230,230,230)"><title>193</title></rect><text x="274" y="439" text-anchor="middle" alignment-baseline="middle" fill="black">+</text><rect x="166" y="473" width="40" height="20" fill="rgb(230,230,230)"><title>194</title></rect><text x="186" y="483" text-anchor="middle" alignment-baseline="middle" fill="black">+</text><rect x="122" y="407" width="40" height="20" fill="rgb(230,230,230)"><title>195</title></rect><text x="142" y="417" text-anchor="middle" alignment-baseline="middle" fill="black">+</text><rect x="254" y="275" width="40" height="20" fill="rgb(230,230,230)"><title>196</title></rect><text x="274" y="285" text-anchor="middle" alignment-baseline="middle" fill="black">+</text><rect x="254" y="297" width="40" height="20" fill="rgb(230,230,230)"><title>197</title></rect><text x="274" y="307" text-anchor="middle" alignment-baseline="middle" fill="black">+</text><rect x="210" y="473" width="40" height="20" fill="rgb(230,230,230)"><title>198</title></rect><text x="230" y="483" text-anchor="middle" alignment-baseline="middle" fill="black">+</text><rect x="210" y="451" width="40" height="20" fill="rgb(230,230,230)"><title>199</title></rect><text x="230" y="461" text-anchor="middle" alignment-baseline="middle" fill="black">+</text></svg>