<svg xmlns="http://www.w3.org/2000/svg" width="370" height="370"><rect x="0" y="0" width="370" height="370" fill="rgb(255,255,255)"></rect><rect x="0" y="0" width="350" height="350" fill="rgba(255,255,255,1)"></rect><rect x="0" y="0" width="50" height="25" fill="rgba(100,0,0,0.1)"></rect><text x="25" y="12" text-anchor="middle" alignment-baseline="middle" fill="black">0</text><rect x="0" y="25" width="50" height="25" fill="rgba(100,0,0,0.1)"></rect><text x="25" y="37" text-anchor="middle" alignment-baseline="middle" fill="black">1</text><rect x="0" y="50" width="50" height="25" fill="rgba(100,0,0,0.1)"></rect><text x="25" y="62" text-anchor="middle" alignment-baseline="middle" fill="black">2</text><rect x="0" y="75" width="50" height="25" fill="rgba(100,0,0,0.1)"></rect><text x="25" y="87" text-anchor="middle" alignment-baseline="middle" fill="black">3</text><rect x="0" y="100" width="50" height="25" fill="rgba(100,0,0,0.1)"></rect><text x="25" y="112" text-anchor="middle" alignment-baseline="middle" fill="black">4</text><rect x="0" y="125" width="50" height="25" fill="rgba(100,0,0,0.1)"></rect><text x="25" y="137" text-anchor="middle" alignment-baseline="middle" fill="black">5</text><rect x="0" y="150" width="50" height="25" fill="rgba(100,0,0,0.1)"></rect><text x="25" y="162" text-anchor="middle" alignment-baseline="middle" fill="black">6</text><rect x="0" y="175" width="50" height="25" fill="rgba(100,0,0,0.1)"></rect><text x="25" y="187" text-anchor="middle" alignment-baseline="middle" fill="black">7</text><rect x="0" y="200" width="50" height="25" fill="rgba(100,0,0,0.1)"></rect><text x="25" y="212" text-anchor="middle" alignment-baseline="middle" fill="black">8</text><rect x="0" y="225" width="50" height="25" fill="rgba(100,0,0,0.1)"></rect><text x="25" y="237" text-anchor="middle" alignment-baseline="middle" fill="black">9</text><rect x="0" y="250" width="50" height="25" fill="rgba(100,0,0,0.1)"></rect><text x="25" y="262" text-anchor="middle" alignment-baseline="middle" fill="black">10</text><rect x="50" y="250" width="50" height="25" fill="rgba(100,0,0,0.1)"></rect><text x="75" y="262" text-anchor="middle" alignment-baseline="middle" fill="black">11</text><rect x="50" y="225" width="50" height="25" fill="rgba(100,0,0,0.1)"></rect><text x="75" y="237" text-anchor="middle" alignment-baseline="middle" fill="black">12</text><rect x="50" y="200" width="50" height="25" fill="rgba(100,0,0,0.1)"></rect><text x="75" y="212" text-anchor="middle" alignment-baseline="middle" fill="black">13</text><rect x="50" y="175" width="50" height="25" fill="rgba(100,0,0,0.1)"></rect><text x="75" y="187" text-anchor="middle" alignment-baseline="middle" fill="black">14</text><rect x="50" y="150" width="50" height="25" fill="rgba(100,0,0,0.1)"></rect><text x="75" y="162" text-anchor="middle" alignment-baseline="middle" fill="black">15</text><rect x="50" y="125" width="50" height="25" fill="rgba(100,0,0,0.1)"></rect><text x="75" y="137" text-anchor="middle" alignment-baseline="middle" fill="black">16</text><rect x="50" y="100" width="50" height="25" fill="rgba(100,0,0,0.1)"></rect><text x="75" y="112" text-anchor="middle" alignment-baseline="middle" fill="black">17</text><rect x="50" y="75" width="50" height="25" fill="rgba(100,0,0,0.1)"></rect><text x="75" y="87" text-anchor="middle" alignment-baseline="middle" fill="black">18</text><rect x="50" y="50" width="50" height="25" fill="rgba(100,0,0,0.1)"></rect><text x="75" y="62" text-anchor="middle" alignment-baseline="middle" fill="black">19</text><rect x="50" y="25" width="50" height="25" fill="rgba(100,0,0,0.1)"></rect><text x="75" y="37" text-anchor="middle" alignment-baseline="middle" fill="black">20</text><rect x="50" y="0" width="50" height="25" fill="rgba(100,0,0,0.1)"></rect><text x="75" y="12" text-anchor="middle" alignment-baseline="middle" fill="black">21</text><rect x="100" y="0" width="50" height="25" fill="rgba(100,0,0,0.1)"></rect><text x="125" y="12" text-anchor="middle" alignment-baseline="middle" fill="black">22</text><rect x="100" y="25" width="50" height="25" fill="rgba(100,0,0,0.1)"></rect><text x="125" y="37" text-anchor="middle" alignment-baseline="middle" fill="black">23</text><rect x="100" y="50" width="50" height="25" fill="rgba(100,0,0,0.1)"></rect><text x="125" y="62" text-anchor="middle" alignment-baseline="middle" fill="black">24</text><rect x="100" y="75" width="50" height="25" fill="rgba(100,0,0,0.1)"></rect><text x="125" y="87" text-anchor="middle" alignment-baseline="middle" fill="black">25</text><rect x="100" y="100" width="50" height="25" fill="rgba(100,0,0,0.1)"></rect><text x="125" y="112" text-anchor="middle" alignment-baseline="middle" fill="black">26</text><rect x="100" y="125" width="50" height="25" fill="rgba(100,0,0,0.1)"></rect><text x="125" y="137" text-anchor="middle" alignment-baseline="middle" fill="black">27</text><rect x="100" y="150" width="50" height="25" fill="rgba(100,0,0,0.1)"></rect><text x="125" y="162" text-anchor="middle" alignment-baseline="middle" fill="black">28</text><rect x="100" y="175" width="50" height="25" fill="rgba(100,0,0,0.1)"></rect><text x="125" y="187" text-anchor="middle" alignment-baseline="middle" fill="black">29</text><rect x="100" y="200" width="50" height="25" fill="rgba(100,0,0,0.1)"></rect><text x="125" y="212" text-anchor="middle" alignment-baseline="middle" fill="black">30</text><rect x="100" y="225" width="50" height="25" fill="rgba(100,0,0,0.1)"></rect><text x="125" y="237" text-anchor="middle" alignment-baseline="middle" fill="black">31</text><rect x="100" y="250" width="50" height="25" fill="rgba(100,0,0,0.1)"></rect><text x="125" y="262" text-anchor="middle" alignment-baseline="middle" fill="black">32</text><rect x="150" y="250" width="50" height="25" fill="rgba(100,0,0,0.1)"></rect><text x="175" y="262" text-anchor="middle" alignment-baseline="middle" fill="black">33</text><rect x="150" y="225" width="50" height="25" fill="rgba(100,0,0,0.1)"></rect><text x="175" y="237" text-anchor="middle" alignment-baseline="middle" fill="black">34</text><rect x="150" y="200" width="50" height="25" fill="rgba(100,0,0,0.1)"></rect><text x="175" y="212" text-anchor="middle" alignment-baseline="middle" fill="black">35</text><rect x="150" y="175" width="50" height="25" fill="rgba(100,0,0,0.1)"></rect><text x="175" y="187" text-anchor="middle" alignment-baseline="middle" fill="black">36</text><rect x="150" y="150" width="50" height="25" fill="rgba(100,0,0,0.1)"></rect><text x="175" y="162" text-anchor="middle" alignment-baseline="middle" fill="black">37</text><rect x="150" y="125" width="50" height="25" fill="rgba(100,0,0,0.1)"></rect><text x="175" y="137" text-anchor="middle" alignment-baseline="middle" fill="black">38</text><rect x="150" y="100" width="50" height="25" fill="rgba(100,0,0,0.1)"></rect><text x="175" y="112" text-anchor="middle" alignment-baseline="middle" fill="black">39</text><rect x="200" y="50" width="50" height="25" fill="rgba(100,0,0,0.1)"></rect><text x="225" y="62" text-anchor="middle" alignment-baseline="middle" fill="black">40</text><rect x="150" y="50" width="50" height="25" fill="rgba(100,0,0,0.1)"></rect><text x="175" y="62" text-anchor="middle" alignment-baseline="middle" fill="black">41</text><rect x="150" y="25" width="50" height="25" fill="rgba(100,0,0,0.1)"></rect><text x="175" y="37" text-anchor="middle" alignment-baseline="middle" fill="black">42</text><rect x="150" y="0" width="50" height="25" fill="rgba(100,0,0,0.1)"></rect><text x="175" y="12" text-anchor="middle" alignment-baseline="middle" fill="black">43</text><rect x="200" y="0" width="50" height="25" fill="rgba(100,0,0,0.1)"></rect><text x="225" y="12" text-anchor="middle" alignment-baseline="middle" fill="black">44</text><rect x="200" y="25" width="50" height="25" fill="rgba(100,0,0,0.1)"></rect><text x="225" y="37" text-anchor="middle" alignment-baseline="middle" fill="black">45</text><rect x="150" y="75" width="50" height="25" fill="rgba(100,0,0,0.1)"></rect><text x="175" y="87" text-anchor="middle" alignment-baseline="middle" fill="black">46</text><rect x="200" y="75" width="50" height="25" fill="rgba(100,0,0,0.1)"></rect><text x="225" y="87" text-anchor="middle" alignment-baseline="middle" fill="black">47</text><rect x="200" y="100" width="50" height="25" fill="rgba(100,0,0,0.1)"></rect><text x="225" y="112" text-anchor="middle" alignment-baseline="middle" fill="black">48</text><rect x="200" y="125" width="50" height="25" fill="rgba(100,0,0,0.1)"></rect><text x="225" y="137" text-anchor="middle" alignment-baseline="middle" fill="black">49</text><rect x="200" y="150" width="50" height="25" fill="rgba(100,0,0,0.1)"></rect><text x="225" y="162" text-anchor="middle" alignment-baseline="middle" fill="black">50</text><rect x="200" y="175" width="50" height="25" fill="rgba(100,0,0,0.1)"></rect><text x="225" y="187" text-anchor="middle" alignment-baseline="middle" fill="black">51</text><rect x="200" y="200" width="50" height="50" fill="rgba(100,0,0,0.1)"></rect><text x="225" y="225" text-anchor="middle" alignment-baseline="middle" fill="black">52</text><line x1="25" y1="12" x2="25" y2="37" stroke="black" stroke-width="1"></line><line x1="25" y1="12" x2="25" y2="162" stroke="black" stroke-width="1"></line><line x1="25" y1="37" x2="25" y2="187" stroke="black" stroke-width="1"></line><line x1="25" y1="37" x2="25" y2="62" stroke="black" stroke-width="1"></line><line x1="25" y1="62" x2="25" y2="212" stroke="black" stroke-width="1"></line><line x1="25" y1="62" x2="25" y2="87" stroke="black" stroke-width="1"></line><line x1="25" y1="87" x2="25" y2="237" stroke="black" stroke-width="1"></line><line x1="25" y1="112" x2="25" y2="137" stroke="black" stroke-width="1"></line><line x1="25" y1="112" x2="25" y2="262" stroke="black" stroke-width="1"></line><line x1="25" y1="137" x2="75" y2="262" stroke="black" stroke-width="1"></line><line x1="25" y1="162" x2="75" y2="237" stroke="black" stroke-width="1"></line><line x1="25" y1="162" x2="25" y2="187" stroke="black" stroke-width="1"></line><line x1="25" y1="187" x2="75" y2="212" stroke="black" stroke-width="1"></line><line x1="25" y1="212" x2="75" y2="187" stroke="black" stroke-width="1"></line><line x1="25" y1="212" x2="25" y2="237" stroke="black" stroke-width="1"></line><line x1="25" y1="237" x2="75" y2="162" stroke="black" stroke-width="1"></line><line x1="25" y1="262" x2="75" y2="262" stroke="black" stroke-width="1"></line><line x1="25" y1="262" x2="75" y2="137" stroke="black" stroke-width="1"></line><line x1="75" y1="262" x2="75" y2="112" stroke="black" stroke-width="1"></line><line x1="75" y1="237" x2="75" y2="87" stroke="black" stroke-width="1"></line><line x1="75" y1="237" x2="75" y2="212" stroke="black" stroke-width="1"></line><line x1="75" y1="212" x2="75" y2="62" stroke="black" stroke-width="1"></line><line x1="75" y1="187" x2="75" y2="37" stroke="black" stroke-width="1"></line><line x1="75" y1="187" x2="75" y2="162" stroke="black" stroke-width="1"></line><line x1="75" y1="162" x2="75" y2="12" stroke="black" stroke-width="1"></line><line x1="75" y1="137" x2="125" y2="12" stroke="black" stroke-width="1"></line><line x1="75" y1="137" x2="75" y2="112" stroke="black" stroke-width="1"></line><line x1="75" y1="112" x2="125" y2="37" stroke="black" stroke-width="1"></line><line x1="75" y1="87" x2="125" y2="62" stroke="black" stroke-width="1"></line><line x1="75" y1="87" x2="75" y2="62" stroke="black" stroke-width="1"></line><line x1="75" y1="62" x2="125" y2="87" stroke="black" stroke-width="1"></line><line x1="75" y1="37" x2="125" y2="37" stroke="black" stroke-width="1"></line><line x1="75" y1="37" x2="125" y2="112" stroke="black" stroke-width="1"></line><line x1="75" y1="37" x2="75" y2="12" stroke="black" stroke-width="1"></line><line x1="75" y1="12" x2="125" y2="137" stroke="black" stroke-width="1"></line><line x1="125" y1="12" x2="125" y2="37" stroke="black" stroke-width="1"></line><line x1="125" y1="12" x2="125" y2="162" stroke="black" stroke-width="1"></line><line x1="125" y1="37" x2="125" y2="187" stroke="black" stroke-width="1"></line><line x1="125" y1="62" x2="125" y2="212" stroke="black" stroke-width="1"></line><line x1="125" y1="62" x2="125" y2="87" stroke="black" stroke-width="1"></line><line x1="125" y1="87" x2="125" y2="237" stroke="black" stroke-width="1"></line><line x1="125" y1="112" x2="125" y2="262" stroke="black" stroke-width="1"></line><line x1="125" y1="112" x2="125" y2="137" stroke="black" stroke-width="1"></line><line x1="125" y1="137" x2="175" y2="262" stroke="black" stroke-width="1"></line><line x1="125" y1="162" x2="125" y2="187" stroke="black" stroke-width="1"></line><line x1="125" y1="162" x2="175" y2="237" stroke="black" stroke-width="1"></line><line x1="125" y1="187" x2="175" y2="212" stroke="black" stroke-width="1"></line><line x1="125" y1="212" x2="175" y2="212" stroke="black" stroke-width="1"></line><line x1="125" y1="212" x2="175" y2="187" stroke="black" stroke-width="1"></line><line x1="125" y1="212" x2="125" y2="237" stroke="black" stroke-width="1"></line><line x1="125" y1="237" x2="175" y2="162" stroke="black" stroke-width="1"></line><line x1="125" y1="262" x2="175" y2="137" stroke="black" stroke-width="1"></line><line x1="125" y1="262" x2="175" y2="262" stroke="black" stroke-width="1"></line><line x1="175" y1="262" x2="175" y2="112" stroke="black" stroke-width="1"></line><line x1="175" y1="237" x2="175" y2="212" stroke="black" stroke-width="1"></line><line x1="175" y1="187" x2="225" y2="62" stroke="black" stroke-width="1"></line><line x1="175" y1="187" x2="175" y2="162" stroke="black" stroke-width="1"></line><line x1="175" y1="162" x2="175" y2="62" stroke="black" stroke-width="1"></line><line x1="175" y1="137" x2="175" y2="37" stroke="black" stroke-width="1"></line><line x1="175" y1="137" x2="175" y2="112" stroke="black" stroke-width="1"></line><line x1="175" y1="112" x2="175" y2="12" stroke="black" stroke-width="1"></line><line x1="225" y1="62" x2="225" y2="12" stroke="black" stroke-width="1"></line><line x1="225" y1="62" x2="175" y2="62" stroke="black" stroke-width="1"></line><line x1="175" y1="62" x2="225" y2="37" stroke="black" stroke-width="1"></line><line x1="175" y1="62" x2="175" y2="37" stroke="black" stroke-width="1"></line><line x1="175" y1="37" x2="175" y2="87" stroke="black" stroke-width="1"></line><line x1="175" y1="37" x2="175" y2="12" stroke="black" stroke-width="1"></line><line x1="175" y1="12" x2="225" y2="87" stroke="black" stroke-width="1"></line><line x1="225" y1="12" x2="225" y2="112" stroke="black" stroke-width="1"></line><line x1="225" y1="12" x2="225" y2="37" stroke="black" stroke-width="1"></line><line x1="225" y1="37" x2="225" y2="137" stroke="black" stroke-width="1"></line><line x1="175" y1="87" x2="225" y2="162" stroke="black" stroke-width="1"></line><line x1="175" y1="87" x2="225" y2="87" stroke="black" stroke-width="1"></line><line x1="225" y1="87" x2="225" y2="187" stroke="black" stroke-width="1"></line><line x1="225" y1="112" x2="225" y2="137" stroke="black" stroke-width="1"></line><line x1="225" y1="162" x2="225" y2="187" stroke="black" stroke-width="1"></line></svg>