<svg xmlns="http://www.w3.org/2000/svg" width="424" height="381"><rect x="0" y="0" width="424" height="381" fill="rgb(255,255,255)"></rect><rect x="0" y="0" width="380" height="340" fill="rgba(255,255,255,1)"></rect><rect x="33" y="55" width="20" height="20" fill="rgba(230,230,230,1)"></rect><text x="43" y="65" text-anchor="middle" alignment-baseline="middle" fill="black">C</text><rect x="77" y="165" width="20" height="20" fill="rgba(230,230,230,1)"></rect><text x="87" y="175" text-anchor="middle" alignment-baseline="middle" fill="black">C</text><rect x="77" y="121" width="20" height="20" fill="rgba(230,230,230,1)"></rect><text x="87" y="131" text-anchor="middle" alignment-baseline="middle" fill="black">C</text><rect x="77" y="77" width="20" height="20" fill="rgba(230,230,230,1)"></rect><text x="87" y="87" text-anchor="middle" alignment-baseline="middle" fill="black">C</text><rect x="77" y="55" width="20" height="20" fill="rgba(230,230,230,1)"></rect><text x="87" y="65" text-anchor="middle" alignment-baseline="middle" fill="black">C</text><rect x="121" y="33" width="20" height="20" fill="rgba(230,230,230,1)"></rect><text x="131" y="43" text-anchor="middle" alignment-baseline="middle" fill="black">C</text><rect x="121" y="77" width="20" height="20" fill="rgba(230,230,230,1)"></rect><text x="131" y="87" text-anchor="middle" alignment-baseline="middle" fill="black">C</text><rect x="121" y="121" width="20" height="20" fill="rgba(230,230,230,1)"></rect><text x="131" y="131" text-anchor="middle" alignment-baseline="middle" fill="black">C</text><rect x="121" y="165" width="20" height="20" fill="rgba(230,230,230,1)"></rect><text x="131" y="175" text-anchor="middle" alignment-baseline="middle" fill="black">C</text><rect x="33" y="231" width="20" height="20" fill="rgba(230,230,230,1)"></rect><text x="43" y="241" text-anchor="middle" alignment-baseline="middle" fill="black">C</text><rect x="33" y="319" width="20" height="20" fill="rgba(230,230,230,1)"></rect><text x="43" y="329" text-anchor="middle" alignment-baseline="middle" fill="black">C</text><rect x="77" y="341" width="20" height="20" fill="rgba(230,230,230,1)"></rect><text x="87" y="351" text-anchor="middle" alignment-baseline="middle" fill="black">C</text><rect x="77" y="319" width="20" height="20" fill="rgba(230,230,230,1)"></rect><text x="87" y="329" text-anchor="middle" alignment-baseline="middle" fill="black">C</text><rect x="77" y="275" width="20" height="20" fill="rgba(230,230,230,1)"></rect><text x="87" y="285" text-anchor="middle" alignment-baseline="middle" fill="black">C</text><rect x="77" y="231" width="20" height="20" fill="rgba(230,230,230,1)"></rect><text x="87" y="241" text-anchor="middle" alignment-baseline="middle" fill="black">C</text><rect x="121" y="209" width="20" height="20" fill="rgba(230,230,230,1)"></rect><text x="131" y="219" text-anchor="middle" alignment-baseline="middle" fill="black">C</text><rect x="121" y="275" width="20" height="20" fill="rgba(230,230,230,1)"></rect><text x="131" y="285" text-anchor="middle" alignment-baseline="middle" fill="black">C</text><rect x="121" y="319" width="20" height="20" fill="rgba(230,230,230,1)"></rect><text x="131" y="329" text-anchor="middle" alignment-baseline="middle" fill="black">C</text><rect x="121" y="341" width="20" height="20" fill="rgba(230,230,230,1)"></rect><text x="131" y="351" text-anchor="middle" alignment-baseline="middle" fill="black">C</text><rect x="231" y="231" width="20" height="20" fill="rgba(230,230,230,1)"></rect><text x="241" y="241" text-anchor="middle" alignment-baseline="middle" fill="black">C</text><rect x="231" y="297" width="20" height="20" fill="rgba(230,230,230,1)"></rect><text x="241" y="307" text-anchor="middle" alignment-baseline="middle" fill="black">C</text><rect x="231" y="341" width="20" height="20" fill="rgba(230,230,230,1)"></rect><text x="241" y="351" text-anchor="middle" alignment-baseline="middle" fill="black">C</text><rect x="275" y="319" width="20" height="20" fill="rgba(230,230,230,1)"></rect><text x="285" y="329" text-anchor="middle" alignment-baseline="middle" fill="black">C</text><rect x="275" y="275" width="20" height="20" fill="rgba(230,230,230,1)"></rect><text x="285" y="285" text-anchor="middle" alignment-baseline="middle" fill="black">C</text><rect x="275" y="209" width="20" height="20" fill="rgba(230,230,230,1)"></rect><text x="285" y="219" text-anchor="middle" alignment-baseline="middle" fill="black">C</text><rect x="319" y="231" width="20" height="20" fill="rgba(230,230,230,1)"></rect><text x="329" y="241" text-anchor="middle" alignment-baseline="middle" fill="black">C</text><rect x="319" y="275" width="20" height="20" fill="rgba(230,230,230,1)"></rect><text x="329" y="285" text-anchor="middle" alignment-baseline="middle" fill="black">C</text><rect x="319" y="319" width="20" height="20" fill="rgba(230,230,230,1)"></rect><text x="329" y="329" text-anchor="middle" alignment-baseline="middle" fill="black">C</text><rect x="319" y="341" width="20" height="20" fill="rgba(230,230,230,1)"></rect><text x="329" y="351" text-anchor="middle" alignment-baseline="middle" fill="black">C</text><rect x="231" y="55" width="20" height="20" fill="rgba(230,230,230,1)"></rect><text x="241" y="65" text-anchor="middle" alignment-baseline="middle" fill="black">C</text><rect x="231" y="121" width="20" height="20" fill="rgba(230,230,230,1)"></rect><text x="241" y="131" text-anchor="middle" alignment-baseline="middle" fill="black">C</text><rect x="231" y="165" width="20" height="20" fill="rgba(230,230,230,1)"></rect><text x="241" y="175" text-anchor="middle" alignment-baseline="middle" fill="black">C</text><rect x="275" y="121" width="20" height="20" fill="rgba(230,230,230,1)"></rect><text x="285" y="131" text-anchor="middle" alignment-baseline="middle" fill="black">C</text><rect x="275" y="77" width="20" height="20" fill="rgba(230,230,230,1)"></rect><text x="285" y="87" text-anchor="middle" alignment-baseline="middle" fill="black">C</text><rect x="275" y="33" width="20" height="20" fill="rgba(230,230,230,1)"></rect><text x="285" y="43" text-anchor="middle" alignment-baseline="middle" fill="black">C</text><rect x="319" y="55" width="20" height="20" fill="rgba(230,230,230,1)"></rect><text x="329" y="65" text-anchor="middle" alignment-baseline="middle" fill="black">C</text><rect x="319" y="77" width="20" height="20" fill="rgba(230,230,230,1)"></rect><text x="329" y="87" text-anchor="middle" alignment-baseline="middle" fill="black">C</text><rect x="319" y="121" width="20" height="20" fill="rgba(230,230,230,1)"></rect><text x="329" y="131" text-anchor="middle" alignment-baseline="middle" fill="black">C</text><rect x="319" y="165" width="20" height="20" fill="rgba(230,230,230,1)"></rect><text x="329" y="175" text-anchor="middle" alignment-baseline="middle" fill="black">C</text><rect x="363" y="143" width="20" height="20" fill="rgba(230,230,230,1)"></rect><text x="373" y="153" text-anchor="middle" alignment-baseline="middle" fill="black">C</text><rect x="34" y="77" width="40" height="20" fill="rgba(230,230,230,1)"></rect><text x="54" y="87" text-anchor="middle" alignment-baseline="middle" fill="black">=</text><rect x="34" y="99" width="40" height="20" fill="rgba(230,230,230,1)"></rect><text x="54" y="109" text-anchor="middle" alignment-baseline="middle" fill="black">=</text><rect x="34" y="165" width="40" height="20" fill="rgba(230,230,230,1)"></rect><text x="54" y="175" text-anchor="middle" alignment-baseline="middle" fill="black">=</text><rect x="78" y="143" width="40" height="20" fill="rgba(230,230,230,1)"></rect><text x="98" y="153" text-anchor="middle" alignment-baseline="middle" fill="black">=</text><rect x="78" y="99" width="40" height="20" fill="rgba(230,230,230,1)"></rect><text x="98" y="109" text-anchor="middle" alignment-baseline="middle" fill="black">=</text><rect x="78" y="33" width="40" height="20" fill="rgba(230,230,230,1)"></rect><text x="98" y="43" text-anchor="middle" alignment-baseline="middle" fill="black">=</text><rect x="122" y="55" width="40" height="20" fill="rgba(230,230,230,1)"></rect><text x="142" y="65" text-anchor="middle" alignment-baseline="middle" fill="black">=</text><rect x="122" y="99" width="40" height="20" fill="rgba(230,230,230,1)"></rect><text x="142" y="109" text-anchor="middle" alignment-baseline="middle" fill="black">=</text><rect x="122" y="143" width="40" height="20" fill="rgba(230,230,230,1)"></rect><text x="142" y="153" text-anchor="middle" alignment-baseline="middle" fill="black">=</text><rect x="34" y="253" width="40" height="20" fill="rgba(230,230,230,1)"></rect><text x="54" y="263" text-anchor="middle" alignment-baseline="middle" fill="black">=</text><rect x="34" y="275" width="40" height="20" fill="rgba(230,230,230,1)"></rect><text x="54" y="285" text-anchor="middle" alignment-baseline="middle" fill="black">=</text><rect x="34" y="297" width="40" height="20" fill="rgba(230,230,230,1)"></rect><text x="54" y="307" text-anchor="middle" alignment-baseline="middle" fill="black">=</text><rect x="34" y="341" width="40" height="20" fill="rgba(230,230,230,1)"></rect><text x="54" y="351" text-anchor="middle" alignment-baseline="middle" fill="black">=</text><rect x="78" y="297" width="40" height="20" fill="rgba(230,230,230,1)"></rect><text x="98" y="307" text-anchor="middle" alignment-baseline="middle" fill="black">=</text><rect x="78" y="253" width="40" height="20" fill="rgba(230,230,230,1)"></rect><text x="98" y="263" text-anchor="middle" alignment-baseline="middle" fill="black">=</text><rect x="78" y="209" width="40" height="20" fill="rgba(230,230,230,1)"></rect><text x="98" y="219" text-anchor="middle" alignment-baseline="middle" fill="black">=</text><rect x="122" y="231" width="40" height="20" fill="rgba(230,230,230,1)"></rect><text x="142" y="241" text-anchor="middle" alignment-baseline="middle" fill="black">=</text><rect x="122" y="253" width="40" height="20" fill="rgba(230,230,230,1)"></rect><text x="142" y="263" text-anchor="middle" alignment-baseline="middle" fill="black">=</text><rect x="122" y="297" width="40" height="20" fill="rgba(230,230,230,1)"></rect><text x="142" y="307" text-anchor="middle" alignment-baseline="middle" fill="black">=</text><rect x="232" y="253" width="40" height="20" fill="rgba(230,230,230,1)"></rect><text x="252" y="263" text-anchor="middle" alignment-baseline="middle" fill="black">=</text><rect x="232" y="275" width="40" height="20" fill="rgba(230,230,230,1)"></rect><text x="252" y="285" text-anchor="middle" alignment-baseline="middle" fill="black">=</text><rect x="232" y="319" width="40" height="20" fill="rgba(230,230,230,1)"></rect><text x="252" y="329" text-anchor="middle" alignment-baseline="middle" fill="black">=</text><rect x="276" y="341" width="40" height="20" fill="rgba(230,230,230,1)"></rect><text x="296" y="351" text-anchor="middle" alignment-baseline="middle" fill="black">=</text><rect x="276" y="297" width="40" height="20" fill="rgba(230,230,230,1)"></rect><text x="296" y="307" text-anchor="middle" alignment-baseline="middle" fill="black">=</text><rect x="276" y="253" width="40" height="20" fill="rgba(230,230,230,1)"></rect><text x="296" y="263" text-anchor="middle" alignment-baseline="middle" fill="black">=</text><rect x="276" y="231" width="40" height="20" fill="rgba(230,230,230,1)"></rect><text x="296" y="241" text-anchor="middle" alignment-baseline="middle" fill="black">=</text><rect x="320" y="209" width="40" height="20" fill="rgba(230,230,230,1)"></rect><text x="340" y="219" text-anchor="middle" alignment-baseline="middle" fill="black">=</text><rect x="320" y="253" width="40" height="20" fill="rgba(230,230,230,1)"></rect><text x="340" y="263" text-anchor="middle" alignment-baseline="middle" fill="black">=</text><rect x="320" y="297" width="40" height="20" fill="rgba(230,230,230,1)"></rect><text x="340" y="307" text-anchor="middle" alignment-baseline="middle" fill="black">=</text><rect x="232" y="77" width="40" height="20" fill="rgba(230,230,230,1)"></rect><text x="252" y="87" text-anchor="middle" alignment-baseline="middle" fill="black">=</text><rect x="232" y="99" width="40" height="20" fill="rgba(230,230,230,1)"></rect><text x="252" y="109" text-anchor="middle" alignment-baseline="middle" fill="black">=</text><rect x="232" y="143" width="40" height="20" fill="rgba(230,230,230,1)"></rect><text x="252" y="153" text-anchor="middle" alignment-baseline="middle" fill="black">=</text><rect x="276" y="165" width="40" height="20" fill="rgba(230,230,230,1)"></rect><text x="296" y="175" text-anchor="middle" alignment-baseline="middle" fill="black">=</text><rect x="276" y="143" width="40" height="20" fill="rgba(230,230,230,1)"></rect><text x="296" y="153" text-anchor="middle" alignment-baseline="middle" fill="black">=</text><rect x="276" y="99" width="40" height="20" fill="rgba(230,230,230,1)"></rect><text x="296" y="109" text-anchor="middle" alignment-baseline="middle" fill="black">=</text><rect x="276" y="55" width="40" height="20" fill="rgba(230,230,230,1)"></rect><text x="296" y="65" text-anchor="middle" alignment-baseline="middle" fill="black">=</text><rect x="320" y="33" width="40" height="20" fill="rgba(230,230,230,1)"></rect><text x="340" y="43" text-anchor="middle" alignment-baseline="middle" fill="black">=</text><rect x="320" y="99" width="40" height="20" fill="rgba(230,230,230,1)"></rect><text x="340" y="109" text-anchor="middle" alignment-baseline="middle" fill="black">=</text><rect x="320" y="143" width="40" height="20" fill="rgba(230,230,230,1)"></rect><text x="340" y="153" text-anchor="middle" alignment-baseline="middle" fill="black">=</text><rect x="364" y="165" width="40" height="20" fill="rgba(230,230,230,1)"></rect><text x="384" y="175" text-anchor="middle" alignment-baseline="middle" fill="black">=</text><rect x="33" y="143" width="20" height="20" fill="rgba(230,230,230,1)"></rect><text x="43" y="153" text-anchor="middle" alignment-baseline="middle" fill="black">C</text><rect x="33" y="121" width="20" height="20" fill="rgba(230,230,230,1)"></rect><text x="43" y="131" text-anchor="middle" alignment-baseline="middle" fill="black">L</text><circle cx="372" cy="196" r="5" fill="rgb(101,67,33)"></circle><circle cx="350" cy="196" r="5" fill="rgb(101,67,33)"></circle><line x1="330" y1="302" x2="373" y2="197" stroke="red" stroke-width="1" /><line x1="330" y1="312" x2="373" y2="199" stroke="green" stroke-width="1" /><line x1="350" y1="302" x2="351" y2="197" stroke="red" stroke-width="1" /><line x1="350" y1="312" x2="351" y2="199" stroke="green" stroke-width="1" /><line x1="262" y1="82" x2="373" y2="197" stroke="red" stroke-width="1" /><line x1="242" y1="82" x2="373" y2="197" stroke="red" stroke-width="1" /><line x1="262" y1="82" x2="351" y2="197" stroke="red" stroke-width="1" /><line x1="262" y1="82" x2="373" y2="197" stroke="red" stroke-width="1" /><line x1="242" y1="82" x2="373" y2="197" stroke="red" stroke-width="1" /><line x1="262" y1="82" x2="351" y2="197" stroke="red" stroke-width="1" /><line x1="38" y1="148" x2="44" y2="82" stroke="red" stroke-width="1" /><line x1="38" y1="70" x2="44" y2="92" stroke="green" stroke-width="1" /><line x1="44" y1="104" x2="44" y2="82" stroke="red" stroke-width="1" /><line x1="44" y1="82" x2="44" y2="104" stroke="red" stroke-width="1" /><line x1="82" y1="180" x2="44" y2="114" stroke="green" stroke-width="1" /><line x1="44" y1="104" x2="44" y2="170" stroke="red" stroke-width="1" /><line x1="44" y1="170" x2="44" y2="104" stroke="red" stroke-width="1" /><line x1="82" y1="136" x2="44" y2="180" stroke="green" stroke-width="1" /><line x1="44" y1="170" x2="88" y2="148" stroke="red" stroke-width="1" /><line x1="88" y1="148" x2="44" y2="170" stroke="red" stroke-width="1" /><line x1="82" y1="92" x2="88" y2="158" stroke="green" stroke-width="1" /><line x1="88" y1="104" x2="88" y2="148" stroke="red" stroke-width="1" /><line x1="88" y1="148" x2="88" y2="104" stroke="red" stroke-width="1" /><line x1="82" y1="70" x2="88" y2="114" stroke="green" stroke-width="1" /><line x1="88" y1="104" x2="88" y2="38" stroke="red" stroke-width="1" /><line x1="88" y1="38" x2="88" y2="104" stroke="red" stroke-width="1" /><line x1="126" y1="48" x2="88" y2="48" stroke="green" stroke-width="1" /><line x1="88" y1="38" x2="132" y2="60" stroke="red" stroke-width="1" /><line x1="132" y1="60" x2="88" y2="38" stroke="red" stroke-width="1" /><line x1="126" y1="92" x2="132" y2="70" stroke="green" stroke-width="1" /><line x1="132" y1="104" x2="132" y2="60" stroke="red" stroke-width="1" /><line x1="132" y1="60" x2="132" y2="104" stroke="red" stroke-width="1" /><line x1="126" y1="136" x2="132" y2="114" stroke="green" stroke-width="1" /><line x1="132" y1="104" x2="132" y2="148" stroke="red" stroke-width="1" /><line x1="132" y1="148" x2="132" y2="104" stroke="red" stroke-width="1" /><line x1="126" y1="180" x2="132" y2="158" stroke="green" stroke-width="1" /><line x1="44" y1="258" x2="132" y2="148" stroke="red" stroke-width="1" /><line x1="132" y1="148" x2="44" y2="258" stroke="red" stroke-width="1" /><line x1="38" y1="246" x2="44" y2="268" stroke="green" stroke-width="1" /><line x1="44" y1="280" x2="44" y2="258" stroke="red" stroke-width="1" /><line x1="44" y1="258" x2="44" y2="280" stroke="red" stroke-width="1" /><line x1="38" y1="334" x2="44" y2="290" stroke="green" stroke-width="1" /><line x1="44" y1="280" x2="44" y2="302" stroke="red" stroke-width="1" /><line x1="44" y1="302" x2="44" y2="280" stroke="red" stroke-width="1" /><line x1="82" y1="356" x2="44" y2="312" stroke="green" stroke-width="1" /><line x1="44" y1="346" x2="44" y2="302" stroke="red" stroke-width="1" /><line x1="44" y1="302" x2="44" y2="346" stroke="red" stroke-width="1" /><line x1="82" y1="334" x2="44" y2="356" stroke="green" stroke-width="1" /><line x1="88" y1="302" x2="44" y2="346" stroke="red" stroke-width="1" /><line x1="44" y1="346" x2="88" y2="302" stroke="red" stroke-width="1" /><line x1="82" y1="290" x2="88" y2="312" stroke="green" stroke-width="1" /><line x1="88" y1="258" x2="88" y2="302" stroke="red" stroke-width="1" /><line x1="88" y1="302" x2="88" y2="258" stroke="red" stroke-width="1" /><line x1="82" y1="246" x2="88" y2="268" stroke="green" stroke-width="1" /><line x1="88" y1="258" x2="88" y2="214" stroke="red" stroke-width="1" /><line x1="88" y1="214" x2="88" y2="258" stroke="red" stroke-width="1" /><line x1="126" y1="224" x2="88" y2="224" stroke="green" stroke-width="1" /><line x1="88" y1="214" x2="132" y2="236" stroke="red" stroke-width="1" /><line x1="132" y1="236" x2="88" y2="214" stroke="red" stroke-width="1" /><line x1="126" y1="290" x2="132" y2="246" stroke="green" stroke-width="1" /><line x1="132" y1="236" x2="132" y2="258" stroke="red" stroke-width="1" /><line x1="132" y1="258" x2="132" y2="236" stroke="red" stroke-width="1" /><line x1="126" y1="334" x2="132" y2="268" stroke="green" stroke-width="1" /><line x1="132" y1="302" x2="132" y2="258" stroke="red" stroke-width="1" /><line x1="132" y1="258" x2="132" y2="302" stroke="red" stroke-width="1" /><line x1="126" y1="356" x2="132" y2="312" stroke="green" stroke-width="1" /><line x1="242" y1="258" x2="132" y2="302" stroke="red" stroke-width="1" /><line x1="132" y1="302" x2="242" y2="258" stroke="red" stroke-width="1" /><line x1="236" y1="246" x2="242" y2="268" stroke="green" stroke-width="1" /><line x1="242" y1="258" x2="242" y2="280" stroke="red" stroke-width="1" /><line x1="242" y1="280" x2="242" y2="258" stroke="red" stroke-width="1" /><line x1="236" y1="312" x2="242" y2="290" stroke="green" stroke-width="1" /><line x1="242" y1="324" x2="242" y2="280" stroke="red" stroke-width="1" /><line x1="242" y1="280" x2="242" y2="324" stroke="red" stroke-width="1" /><line x1="236" y1="356" x2="242" y2="334" stroke="green" stroke-width="1" /><line x1="242" y1="324" x2="286" y2="346" stroke="red" stroke-width="1" /><line x1="286" y1="346" x2="242" y2="324" stroke="red" stroke-width="1" /><line x1="280" y1="334" x2="286" y2="356" stroke="green" stroke-width="1" /><line x1="286" y1="302" x2="286" y2="346" stroke="red" stroke-width="1" /><line x1="286" y1="346" x2="286" y2="302" stroke="red" stroke-width="1" /><line x1="280" y1="290" x2="286" y2="312" stroke="green" stroke-width="1" /><line x1="286" y1="302" x2="286" y2="258" stroke="red" stroke-width="1" /><line x1="286" y1="258" x2="286" y2="302" stroke="red" stroke-width="1" /><line x1="280" y1="224" x2="286" y2="268" stroke="green" stroke-width="1" /><line x1="286" y1="236" x2="286" y2="258" stroke="red" stroke-width="1" /><line x1="286" y1="258" x2="286" y2="236" stroke="red" stroke-width="1" /><line x1="324" y1="246" x2="286" y2="246" stroke="green" stroke-width="1" /><line x1="286" y1="236" x2="330" y2="214" stroke="red" stroke-width="1" /><line x1="330" y1="214" x2="286" y2="236" stroke="red" stroke-width="1" /><line x1="324" y1="290" x2="330" y2="224" stroke="green" stroke-width="1" /><line x1="330" y1="258" x2="330" y2="214" stroke="red" stroke-width="1" /><line x1="330" y1="214" x2="330" y2="258" stroke="red" stroke-width="1" /><line x1="324" y1="334" x2="330" y2="268" stroke="green" stroke-width="1" /><line x1="330" y1="258" x2="330" y2="302" stroke="red" stroke-width="1" /><line x1="330" y1="302" x2="330" y2="258" stroke="red" stroke-width="1" /><line x1="324" y1="356" x2="330" y2="312" stroke="green" stroke-width="1" /><line x1="236" y1="70" x2="242" y2="92" stroke="green" stroke-width="1" /><line x1="242" y1="104" x2="242" y2="82" stroke="red" stroke-width="1" /><line x1="242" y1="82" x2="242" y2="104" stroke="red" stroke-width="1" /><line x1="236" y1="136" x2="242" y2="114" stroke="green" stroke-width="1" /><line x1="242" y1="104" x2="242" y2="148" stroke="red" stroke-width="1" /><line x1="242" y1="148" x2="242" y2="104" stroke="red" stroke-width="1" /><line x1="236" y1="180" x2="242" y2="158" stroke="green" stroke-width="1" /><line x1="286" y1="170" x2="242" y2="148" stroke="red" stroke-width="1" /><line x1="242" y1="148" x2="286" y2="170" stroke="red" stroke-width="1" /><line x1="280" y1="136" x2="286" y2="180" stroke="green" stroke-width="1" /><line x1="286" y1="148" x2="286" y2="170" stroke="red" stroke-width="1" /><line x1="286" y1="170" x2="286" y2="148" stroke="red" stroke-width="1" /><line x1="280" y1="92" x2="286" y2="158" stroke="green" stroke-width="1" /><line x1="286" y1="104" x2="286" y2="148" stroke="red" stroke-width="1" /><line x1="286" y1="148" x2="286" y2="104" stroke="red" stroke-width="1" /><line x1="280" y1="48" x2="286" y2="114" stroke="green" stroke-width="1" /><line x1="286" y1="60" x2="286" y2="104" stroke="red" stroke-width="1" /><line x1="286" y1="104" x2="286" y2="60" stroke="red" stroke-width="1" /><line x1="324" y1="70" x2="286" y2="70" stroke="green" stroke-width="1" /><line x1="286" y1="60" x2="330" y2="38" stroke="red" stroke-width="1" /><line x1="330" y1="38" x2="286" y2="60" stroke="red" stroke-width="1" /><line x1="324" y1="92" x2="330" y2="48" stroke="green" stroke-width="1" /><line x1="330" y1="104" x2="330" y2="38" stroke="red" stroke-width="1" /><line x1="330" y1="38" x2="330" y2="104" stroke="red" stroke-width="1" /><line x1="324" y1="136" x2="330" y2="114" stroke="green" stroke-width="1" /><line x1="330" y1="148" x2="330" y2="104" stroke="red" stroke-width="1" /><line x1="330" y1="104" x2="330" y2="148" stroke="red" stroke-width="1" /><line x1="324" y1="180" x2="330" y2="158" stroke="green" stroke-width="1" /><line x1="330" y1="148" x2="374" y2="170" stroke="red" stroke-width="1" /><line x1="374" y1="170" x2="330" y2="148" stroke="red" stroke-width="1" /><line x1="368" y1="158" x2="374" y2="180" stroke="green" stroke-width="1" /><line x1="64" y1="104" x2="64" y2="82" stroke="red" stroke-width="1" /><line x1="64" y1="82" x2="64" y2="104" stroke="red" stroke-width="1" /><line x1="64" y1="170" x2="64" y2="104" stroke="red" stroke-width="1" /><line x1="64" y1="104" x2="64" y2="170" stroke="red" stroke-width="1" /><line x1="108" y1="148" x2="64" y2="170" stroke="red" stroke-width="1" /><line x1="64" y1="170" x2="108" y2="148" stroke="red" stroke-width="1" /><line x1="108" y1="148" x2="108" y2="104" stroke="red" stroke-width="1" /><line x1="108" y1="104" x2="108" y2="148" stroke="red" stroke-width="1" /><line x1="108" y1="104" x2="108" y2="38" stroke="red" stroke-width="1" /><line x1="108" y1="38" x2="108" y2="104" stroke="red" stroke-width="1" /><line x1="152" y1="60" x2="108" y2="38" stroke="red" stroke-width="1" /><line x1="108" y1="38" x2="152" y2="60" stroke="red" stroke-width="1" /><line x1="152" y1="60" x2="152" y2="104" stroke="red" stroke-width="1" /><line x1="152" y1="104" x2="152" y2="60" stroke="red" stroke-width="1" /><line x1="152" y1="104" x2="152" y2="148" stroke="red" stroke-width="1" /><line x1="152" y1="148" x2="152" y2="104" stroke="red" stroke-width="1" /><line x1="64" y1="258" x2="152" y2="148" stroke="red" stroke-width="1" /><line x1="152" y1="148" x2="64" y2="258" stroke="red" stroke-width="1" /><line x1="64" y1="258" x2="64" y2="280" stroke="red" stroke-width="1" /><line x1="64" y1="280" x2="64" y2="258" stroke="red" stroke-width="1" /><line x1="64" y1="302" x2="64" y2="280" stroke="red" stroke-width="1" /><line x1="64" y1="280" x2="64" y2="302" stroke="red" stroke-width="1" /><line x1="64" y1="346" x2="64" y2="302" stroke="red" stroke-width="1" /><line x1="64" y1="302" x2="64" y2="346" stroke="red" stroke-width="1" /><line x1="64" y1="346" x2="108" y2="302" stroke="red" stroke-width="1" /><line x1="108" y1="302" x2="64" y2="346" stroke="red" stroke-width="1" /><line x1="108" y1="258" x2="108" y2="302" stroke="red" stroke-width="1" /><line x1="108" y1="302" x2="108" y2="258" stroke="red" stroke-width="1" /><line x1="108" y1="214" x2="108" y2="258" stroke="red" stroke-width="1" /><line x1="108" y1="258" x2="108" y2="214" stroke="red" stroke-width="1" /><line x1="108" y1="214" x2="152" y2="236" stroke="red" stroke-width="1" /><line x1="152" y1="236" x2="108" y2="214" stroke="red" stroke-width="1" /><line x1="152" y1="236" x2="152" y2="258" stroke="red" stroke-width="1" /><line x1="152" y1="258" x2="152" y2="236" stroke="red" stroke-width="1" /><line x1="152" y1="302" x2="152" y2="258" stroke="red" stroke-width="1" /><line x1="152" y1="258" x2="152" y2="302" stroke="red" stroke-width="1" /><line x1="262" y1="258" x2="152" y2="302" stroke="red" stroke-width="1" /><line x1="152" y1="302" x2="262" y2="258" stroke="red" stroke-width="1" /><line x1="262" y1="258" x2="262" y2="280" stroke="red" stroke-width="1" /><line x1="262" y1="280" x2="262" y2="258" stroke="red" stroke-width="1" /><line x1="262" y1="280" x2="262" y2="324" stroke="red" stroke-width="1" /><line x1="262" y1="324" x2="262" y2="280" stroke="red" stroke-width="1" /><line x1="262" y1="324" x2="306" y2="346" stroke="red" stroke-width="1" /><line x1="306" y1="346" x2="262" y2="324" stroke="red" stroke-width="1" /><line x1="306" y1="346" x2="306" y2="302" stroke="red" stroke-width="1" /><line x1="306" y1="302" x2="306" y2="346" stroke="red" stroke-width="1" /><line x1="306" y1="302" x2="306" y2="258" stroke="red" stroke-width="1" /><line x1="306" y1="258" x2="306" y2="302" stroke="red" stroke-width="1" /><line x1="306" y1="236" x2="306" y2="258" stroke="red" stroke-width="1" /><line x1="306" y1="258" x2="306" y2="236" stroke="red" stroke-width="1" /><line x1="350" y1="214" x2="306" y2="236" stroke="red" stroke-width="1" /><line x1="306" y1="236" x2="350" y2="214" stroke="red" stroke-width="1" /><line x1="350" y1="214" x2="350" y2="258" stroke="red" stroke-width="1" /><line x1="350" y1="258" x2="350" y2="214" stroke="red" stroke-width="1" /><line x1="350" y1="258" x2="350" y2="302" stroke="red" stroke-width="1" /><line x1="350" y1="302" x2="350" y2="258" stroke="red" stroke-width="1" /><line x1="262" y1="104" x2="262" y2="82" stroke="red" stroke-width="1" /><line x1="262" y1="82" x2="262" y2="104" stroke="red" stroke-width="1" /><line x1="262" y1="104" x2="262" y2="148" stroke="red" stroke-width="1" /><line x1="262" y1="148" x2="262" y2="104" stroke="red" stroke-width="1" /><line x1="306" y1="170" x2="262" y2="148" stroke="red" stroke-width="1" /><line x1="262" y1="148" x2="306" y2="170" stroke="red" stroke-width="1" /><line x1="306" y1="170" x2="306" y2="148" stroke="red" stroke-width="1" /><line x1="306" y1="148" x2="306" y2="170" stroke="red" stroke-width="1" /><line x1="306" y1="148" x2="306" y2="104" stroke="red" stroke-width="1" /><line x1="306" y1="104" x2="306" y2="148" stroke="red" stroke-width="1" /><line x1="306" y1="60" x2="306" y2="104" stroke="red" stroke-width="1" /><line x1="306" y1="104" x2="306" y2="60" stroke="red" stroke-width="1" /><line x1="306" y1="60" x2="350" y2="38" stroke="red" stroke-width="1" /><line x1="350" y1="38" x2="306" y2="60" stroke="red" stroke-width="1" /><line x1="350" y1="38" x2="350" y2="104" stroke="red" stroke-width="1" /><line x1="350" y1="104" x2="350" y2="38" stroke="red" stroke-width="1" /><line x1="350" y1="104" x2="350" y2="148" stroke="red" stroke-width="1" /><line x1="350" y1="148" x2="350" y2="104" stroke="red" stroke-width="1" /><line x1="350" y1="148" x2="394" y2="170" stroke="red" stroke-width="1" /><line x1="394" y1="170" x2="350" y2="148" stroke="red" stroke-width="1" /><line x1="64" y1="82" x2="38" y2="126" stroke="red" stroke-width="1" /></svg>