<svg xmlns="http://www.w3.org/2000/svg" width="700" height="680"><rect x="0" y="0" width="700" height="680" fill="rgb(255,255,255)"></rect><rect x="0" y="0" width="680" height="660" fill="rgb(255,255,255)"></rect><rect x="231" y="231" width="20" height="20" fill="rgb(230,230,230)"></rect><text x="241" y="241" text-anchor="middle" alignment-baseline="middle" fill="black">C</text><rect x="231" y="253" width="20" height="20" fill="rgb(230,230,230)"></rect><text x="241" y="263" text-anchor="middle" alignment-baseline="middle" fill="black">C</text><rect x="231" y="275" width="20" height="20" fill="rgb(230,230,230)"></rect><text x="241" y="285" text-anchor="middle" alignment-baseline="middle" fill="black">C</text><rect x="231" y="297" width="20" height="20" fill="rgb(230,230,230)"></rect><text x="241" y="307" text-anchor="middle" alignment-baseline="middle" fill="black">C</text><rect x="231" y="319" width="20" height="20" fill="rgb(230,230,230)"></rect><text x="241" y="329" text-anchor="middle" alignment-baseline="middle" fill="black">C</text><rect x="231" y="341" width="20" height="20" fill="rgb(230,230,230)"></rect><text x="241" y="351" text-anchor="middle" alignment-baseline="middle" fill="black">C</text><rect x="231" y="363" width="20" height="20" fill="rgb(230,230,230)"></rect><text x="241" y="373" text-anchor="middle" alignment-baseline="middle" fill="black">C</text><rect x="231" y="385" width="20" height="20" fill="rgb(230,230,230)"></rect><text x="241" y="395" text-anchor="middle" alignment-baseline="middle" fill="black">C</text><rect x="231" y="407" width="20" height="20" fill="rgb(230,230,230)"></rect><text x="241" y="417" text-anchor="middle" alignment-baseline="middle" fill="black">C</text><rect x="231" y="429" width="20" height="20" fill="rgb(230,230,230)"></rect><text x="241" y="439" text-anchor="middle" alignment-baseline="middle" fill="black">C</text><rect x="231" y="451" width="20" height="20" fill="rgb(230,230,230)"></rect><text x="241" y="461" text-anchor="middle" alignment-baseline="middle" fill="black">C</text><rect x="231" y="473" width="20" height="20" fill="rgb(230,230,230)"></rect><text x="241" y="483" text-anchor="middle" alignment-baseline="middle" fill="black">C</text><rect x="231" y="495" width="20" height="20" fill="rgb(230,230,230)"></rect><text x="241" y="505" text-anchor="middle" alignment-baseline="middle" fill="black">C</text><rect x="275" y="495" width="20" height="20" fill="rgb(230,230,230)"></rect><text x="285" y="505" text-anchor="middle" alignment-baseline="middle" fill="black">C</text><rect x="275" y="473" width="20" height="20" fill="rgb(230,230,230)"></rect><text x="285" y="483" text-anchor="middle" alignment-baseline="middle" fill="black">C</text><rect x="275" y="451" width="20" height="20" fill="rgb(230,230,230)"></rect><text x="285" y="461" text-anchor="middle" alignment-baseline="middle" fill="black">C</text><rect x="275" y="429" width="20" height="20" fill="rgb(230,230,230)"></rect><text x="285" y="439" text-anchor="middle" alignment-baseline="middle" fill="black">C</text><rect x="275" y="407" width="20" height="20" fill="rgb(230,230,230)"></rect><text x="285" y="417" text-anchor="middle" alignment-baseline="middle" fill="black">C</text><rect x="275" y="385" width="20" height="20" fill="rgb(230,230,230)"></rect><text x="285" y="395" text-anchor="middle" alignment-baseline="middle" fill="black">C</text><rect x="275" y="363" width="20" height="20" fill="rgb(230,230,230)"></rect><text x="285" y="373" text-anchor="middle" alignment-baseline="middle" fill="black">C</text><rect x="275" y="341" width="20" height="20" fill="rgb(230,230,230)"></rect><text x="285" y="351" text-anchor="middle" alignment-baseline="middle" fill="black">C</text><rect x="275" y="319" width="20" height="20" fill="rgb(230,230,230)"></rect><text x="285" y="329" text-anchor="middle" alignment-baseline="middle" fill="black">C</text><rect x="275" y="297" width="20" height="20" fill="rgb(230,230,230)"></rect><text x="285" y="307" text-anchor="middle" alignment-baseline="middle" fill="black">C</text><rect x="275" y="275" width="20" height="20" fill="rgb(230,230,230)"></rect><text x="285" y="285" text-anchor="middle" alignment-baseline="middle" fill="black">C</text><rect x="275" y="253" width="20" height="20" fill="rgb(230,230,230)"></rect><text x="285" y="263" text-anchor="middle" alignment-baseline="middle" fill="black">C</text><rect x="275" y="231" width="20" height="20" fill="rgb(230,230,230)"></rect><text x="285" y="241" text-anchor="middle" alignment-baseline="middle" fill="black">C</text><rect x="319" y="231" width="20" height="20" fill="rgb(230,230,230)"></rect><text x="329" y="241" text-anchor="middle" alignment-baseline="middle" fill="black">C</text><rect x="319" y="253" width="20" height="20" fill="rgb(230,230,230)"></rect><text x="329" y="263" text-anchor="middle" alignment-baseline="middle" fill="black">C</text><rect x="319" y="275" width="20" height="20" fill="rgb(230,230,230)"></rect><text x="329" y="285" text-anchor="middle" alignment-baseline="middle" fill="black">C</text><rect x="319" y="297" width="20" height="20" fill="rgb(230,230,230)"></rect><text x="329" y="307" text-anchor="middle" alignment-baseline="middle" fill="black">C</text><rect x="319" y="319" width="20" height="20" fill="rgb(230,230,230)"></rect><text x="329" y="329" text-anchor="middle" alignment-baseline="middle" fill="black">C</text><rect x="319" y="341" width="20" height="20" fill="rgb(230,230,230)"></rect><text x="329" y="351" text-anchor="middle" alignment-baseline="middle" fill="black">C</text><rect x="319" y="363" width="20" height="20" fill="rgb(230,230,230)"></rect><text x="329" y="373" text-anchor="middle" alignment-baseline="middle" fill="black">C</text><rect x="319" y="385" width="20" height="20" fill="rgb(230,230,230)"></rect><text x="329" y="395" text-anchor="middle" alignment-baseline="middle" fill="black">C</text><rect x="319" y="407" width="20" height="20" fill="rgb(230,230,230)"></rect><text x="329" y="417" text-anchor="middle" alignment-baseline="middle" fill="black">C</text><rect x="319" y="429" width="20" height="20" fill="rgb(230,230,230)"></rect><text x="329" y="439" text-anchor="middle" alignment-baseline="middle" fill="black">C</text><rect x="319" y="451" width="20" height="20" fill="rgb(230,230,230)"></rect><text x="329" y="461" text-anchor="middle" alignment-baseline="middle" fill="black">C</text><rect x="319" y="473" width="20" height="20" fill="rgb(230,230,230)"></rect><text x="329" y="483" text-anchor="middle" alignment-baseline="middle" fill="black">C</text><rect x="319" y="495" width="20" height="20" fill="rgb(230,230,230)"></rect><text x="329" y="505" text-anchor="middle" alignment-baseline="middle" fill="black">C</text><rect x="363" y="495" width="20" height="20" fill="rgb(230,230,230)"></rect><text x="373" y="505" text-anchor="middle" alignment-baseline="middle" fill="black">C</text><rect x="364" y="473" width="40" height="20" fill="rgb(230,230,230)"></rect><text x="384" y="483" text-anchor="middle" alignment-baseline="middle" fill="black">=</text><rect x="364" y="451" width="40" height="20" fill="rgb(230,230,230)"></rect><text x="384" y="461" text-anchor="middle" alignment-baseline="middle" fill="black">=</text><rect x="364" y="429" width="40" height="20" fill="rgb(230,230,230)"></rect><text x="384" y="439" text-anchor="middle" alignment-baseline="middle" fill="black">=</text><rect x="364" y="407" width="40" height="20" fill="rgb(230,230,230)"></rect><text x="384" y="417" text-anchor="middle" alignment-baseline="middle" fill="black">=</text><rect x="364" y="385" width="40" height="20" fill="rgb(230,230,230)"></rect><text x="384" y="395" text-anchor="middle" alignment-baseline="middle" fill="black">=</text><rect x="364" y="363" width="40" height="20" fill="rgb(230,230,230)"></rect><text x="384" y="373" text-anchor="middle" alignment-baseline="middle" fill="black">=</text><rect x="364" y="341" width="40" height="20" fill="rgb(230,230,230)"></rect><text x="384" y="351" text-anchor="middle" alignment-baseline="middle" fill="black">=</text><rect x="364" y="319" width="40" height="20" fill="rgb(230,230,230)"></rect><text x="384" y="329" text-anchor="middle" alignment-baseline="middle" fill="black">=</text><rect x="364" y="297" width="40" height="20" fill="rgb(230,230,230)"></rect><text x="384" y="307" text-anchor="middle" alignment-baseline="middle" fill="black">=</text><rect x="364" y="275" width="40" height="20" fill="rgb(230,230,230)"></rect><text x="384" y="285" text-anchor="middle" alignment-baseline="middle" fill="black">=</text><rect x="364" y="253" width="40" height="20" fill="rgb(230,230,230)"></rect><text x="384" y="263" text-anchor="middle" alignment-baseline="middle" fill="black">=</text><rect x="364" y="231" width="40" height="20" fill="rgb(230,230,230)"></rect><text x="384" y="241" text-anchor="middle" alignment-baseline="middle" fill="black">=</text><rect x="408" y="231" width="40" height="20" fill="rgb(230,230,230)"></rect><text x="428" y="241" text-anchor="middle" alignment-baseline="middle" fill="black">=</text><rect x="408" y="253" width="40" height="20" fill="rgb(230,230,230)"></rect><text x="428" y="263" text-anchor="middle" alignment-baseline="middle" fill="black">=</text><rect x="408" y="275" width="40" height="20" fill="rgb(230,230,230)"></rect><text x="428" y="285" text-anchor="middle" alignment-baseline="middle" fill="black">=</text><rect x="408" y="297" width="40" height="20" fill="rgb(230,230,230)"></rect><text x="428" y="307" text-anchor="middle" alignment-baseline="middle" fill="black">=</text><rect x="408" y="319" width="40" height="20" fill="rgb(230,230,230)"></rect><text x="428" y="329" text-anchor="middle" alignment-baseline="middle" fill="black">=</text><rect x="408" y="341" width="40" height="20" fill="rgb(230,230,230)"></rect><text x="428" y="351" text-anchor="middle" alignment-baseline="middle" fill="black">=</text><rect x="408" y="363" width="40" height="20" fill="rgb(230,230,230)"></rect><text x="428" y="373" text-anchor="middle" alignment-baseline="middle" fill="black">=</text><rect x="408" y="385" width="40" height="20" fill="rgb(230,230,230)"></rect><text x="428" y="395" text-anchor="middle" alignment-baseline="middle" fill="black">=</text><rect x="408" y="407" width="40" height="20" fill="rgb(230,230,230)"></rect><text x="428" y="417" text-anchor="middle" alignment-baseline="middle" fill="black">=</text><rect x="408" y="429" width="40" height="20" fill="rgb(230,230,230)"></rect><text x="428" y="439" text-anchor="middle" alignment-baseline="middle" fill="black">=</text><rect x="408" y="451" width="40" height="20" fill="rgb(230,230,230)"></rect><text x="428" y="461" text-anchor="middle" alignment-baseline="middle" fill="black">=</text><rect x="408" y="473" width="40" height="20" fill="rgb(230,230,230)"></rect><text x="428" y="483" text-anchor="middle" alignment-baseline="middle" fill="black">=</text><rect x="408" y="495" width="40" height="20" fill="rgb(230,230,230)"></rect><text x="428" y="505" text-anchor="middle" alignment-baseline="middle" fill="black">=</text><rect x="452" y="495" width="40" height="20" fill="rgb(230,230,230)"></rect><text x="472" y="505" text-anchor="middle" alignment-baseline="middle" fill="black">=</text><rect x="452" y="473" width="40" height="20" fill="rgb(230,230,230)"></rect><text x="472" y="483" text-anchor="middle" alignment-baseline="middle" fill="black">=</text><rect x="452" y="451" width="40" height="20" fill="rgb(230,230,230)"></rect><text x="472" y="461" text-anchor="middle" alignment-baseline="middle" fill="black">=</text><rect x="452" y="429" width="40" height="20" fill="rgb(230,230,230)"></rect><text x="472" y="439" text-anchor="middle" alignment-baseline="middle" fill="black">=</text><rect x="452" y="407" width="40" height="20" fill="rgb(230,230,230)"></rect><text x="472" y="417" text-anchor="middle" alignment-baseline="middle" fill="black">=</text><rect x="452" y="385" width="40" height="20" fill="rgb(230,230,230)"></rect><text x="472" y="395" text-anchor="middle" alignment-baseline="middle" fill="black">=</text><rect x="452" y="363" width="40" height="20" fill="rgb(230,230,230)"></rect><text x="472" y="373" text-anchor="middle" alignment-baseline="middle" fill="black">=</text><rect x="452" y="341" width="40" height="20" fill="rgb(230,230,230)"></rect><text x="472" y="351" text-anchor="middle" alignment-baseline="middle" fill="black">=</text><rect x="452" y="319" width="40" height="20" fill="rgb(230,230,230)"></rect><text x="472" y="329" text-anchor="middle" alignment-baseline="middle" fill="black">=</text><rect x="452" y="297" width="40" height="20" fill="rgb(230,230,230)"></rect><text x="472" y="307" text-anchor="middle" alignment-baseline="middle" fill="black">=</text><rect x="452" y="275" width="40" height="20" fill="rgb(230,230,230)"></rect><text x="472" y="285" text-anchor="middle" alignment-baseline="middle" fill="black">=</text><rect x="452" y="253" width="40" height="20" fill="rgb(230,230,230)"></rect><text x="472" y="263" text-anchor="middle" alignment-baseline="middle" fill="black">=</text><rect x="452" y="231" width="40" height="20" fill="rgb(230,230,230)"></rect><text x="472" y="241" text-anchor="middle" alignment-baseline="middle" fill="black">=</text><rect x="496" y="231" width="40" height="20" fill="rgb(230,230,230)"></rect><text x="516" y="241" text-anchor="middle" alignment-baseline="middle" fill="black">=</text><rect x="496" y="253" width="40" height="20" fill="rgb(230,230,230)"></rect><text x="516" y="263" text-anchor="middle" alignment-baseline="middle" fill="black">=</text><rect x="495" y="275" width="20" height="20" fill="rgb(230,230,230)"></rect><text x="505" y="285" text-anchor="middle" alignment-baseline="middle" fill="black">C</text><rect x="495" y="297" width="20" height="20" fill="rgb(230,230,230)"></rect><text x="505" y="307" text-anchor="middle" alignment-baseline="middle" fill="black">L</text><line x1="374" y1="478" x2="374" y2="456" stroke="red" stroke-width="1" /><line x1="374" y1="456" x2="374" y2="478" stroke="red" stroke-width="1" /><line x1="374" y1="434" x2="374" y2="456" stroke="red" stroke-width="1" /><line x1="374" y1="456" x2="374" y2="434" stroke="red" stroke-width="1" /><line x1="374" y1="434" x2="374" y2="412" stroke="red" stroke-width="1" /><line x1="374" y1="412" x2="374" y2="434" stroke="red" stroke-width="1" /><line x1="236" y1="312" x2="374" y2="422" stroke="green" stroke-width="1" /><line x1="374" y1="390" x2="374" y2="412" stroke="red" stroke-width="1" /><line x1="374" y1="412" x2="374" y2="390" stroke="red" stroke-width="1" /><line x1="236" y1="334" x2="374" y2="400" stroke="green" stroke-width="1" /><line x1="374" y1="368" x2="374" y2="390" stroke="red" stroke-width="1" /><line x1="374" y1="390" x2="374" y2="368" stroke="red" stroke-width="1" /><line x1="236" y1="356" x2="374" y2="378" stroke="green" stroke-width="1" /><line x1="374" y1="346" x2="374" y2="368" stroke="red" stroke-width="1" /><line x1="374" y1="368" x2="374" y2="346" stroke="red" stroke-width="1" /><line x1="236" y1="378" x2="374" y2="356" stroke="green" stroke-width="1" /><line x1="374" y1="324" x2="374" y2="346" stroke="red" stroke-width="1" /><line x1="374" y1="346" x2="374" y2="324" stroke="red" stroke-width="1" /><line x1="236" y1="400" x2="374" y2="334" stroke="green" stroke-width="1" /><line x1="374" y1="302" x2="374" y2="324" stroke="red" stroke-width="1" /><line x1="374" y1="324" x2="374" y2="302" stroke="red" stroke-width="1" /><line x1="236" y1="422" x2="374" y2="312" stroke="green" stroke-width="1" /><line x1="374" y1="302" x2="374" y2="280" stroke="red" stroke-width="1" /><line x1="374" y1="280" x2="374" y2="302" stroke="red" stroke-width="1" /><line x1="374" y1="258" x2="374" y2="280" stroke="red" stroke-width="1" /><line x1="374" y1="280" x2="374" y2="258" stroke="red" stroke-width="1" /><line x1="374" y1="236" x2="374" y2="258" stroke="red" stroke-width="1" /><line x1="374" y1="258" x2="374" y2="236" stroke="red" stroke-width="1" /><line x1="418" y1="236" x2="374" y2="236" stroke="red" stroke-width="1" /><line x1="374" y1="236" x2="418" y2="236" stroke="red" stroke-width="1" /><line x1="418" y1="236" x2="418" y2="258" stroke="red" stroke-width="1" /><line x1="418" y1="258" x2="418" y2="236" stroke="red" stroke-width="1" /><line x1="418" y1="258" x2="418" y2="280" stroke="red" stroke-width="1" /><line x1="418" y1="280" x2="418" y2="258" stroke="red" stroke-width="1" /><line x1="418" y1="302" x2="418" y2="280" stroke="red" stroke-width="1" /><line x1="418" y1="280" x2="418" y2="302" stroke="red" stroke-width="1" /><line x1="418" y1="302" x2="418" y2="324" stroke="red" stroke-width="1" /><line x1="418" y1="324" x2="418" y2="302" stroke="red" stroke-width="1" /><line x1="280" y1="444" x2="418" y2="334" stroke="green" stroke-width="1" /><line x1="418" y1="346" x2="418" y2="324" stroke="red" stroke-width="1" /><line x1="418" y1="324" x2="418" y2="346" stroke="red" stroke-width="1" /><line x1="280" y1="422" x2="418" y2="356" stroke="green" stroke-width="1" /><line x1="418" y1="368" x2="418" y2="346" stroke="red" stroke-width="1" /><line x1="418" y1="346" x2="418" y2="368" stroke="red" stroke-width="1" /><line x1="280" y1="400" x2="418" y2="378" stroke="green" stroke-width="1" /><line x1="418" y1="390" x2="418" y2="368" stroke="red" stroke-width="1" /><line x1="418" y1="368" x2="418" y2="390" stroke="red" stroke-width="1" /><line x1="280" y1="378" x2="418" y2="400" stroke="green" stroke-width="1" /><line x1="418" y1="390" x2="418" y2="412" stroke="red" stroke-width="1" /><line x1="418" y1="412" x2="418" y2="390" stroke="red" stroke-width="1" /><line x1="280" y1="356" x2="418" y2="422" stroke="green" stroke-width="1" /><line x1="418" y1="434" x2="418" y2="412" stroke="red" stroke-width="1" /><line x1="418" y1="412" x2="418" y2="434" stroke="red" stroke-width="1" /><line x1="280" y1="334" x2="418" y2="444" stroke="green" stroke-width="1" /><line x1="418" y1="456" x2="418" y2="434" stroke="red" stroke-width="1" /><line x1="418" y1="434" x2="418" y2="456" stroke="red" stroke-width="1" /><line x1="418" y1="456" x2="418" y2="478" stroke="red" stroke-width="1" /><line x1="418" y1="478" x2="418" y2="456" stroke="red" stroke-width="1" /><line x1="418" y1="478" x2="418" y2="500" stroke="red" stroke-width="1" /><line x1="418" y1="500" x2="418" y2="478" stroke="red" stroke-width="1" /><line x1="462" y1="500" x2="418" y2="500" stroke="red" stroke-width="1" /><line x1="418" y1="500" x2="462" y2="500" stroke="red" stroke-width="1" /><line x1="462" y1="500" x2="462" y2="478" stroke="red" stroke-width="1" /><line x1="462" y1="478" x2="462" y2="500" stroke="red" stroke-width="1" /><line x1="462" y1="478" x2="462" y2="456" stroke="red" stroke-width="1" /><line x1="462" y1="456" x2="462" y2="478" stroke="red" stroke-width="1" /><line x1="462" y1="434" x2="462" y2="456" stroke="red" stroke-width="1" /><line x1="462" y1="456" x2="462" y2="434" stroke="red" stroke-width="1" /><line x1="462" y1="412" x2="462" y2="434" stroke="red" stroke-width="1" /><line x1="462" y1="434" x2="462" y2="412" stroke="red" stroke-width="1" /><line x1="324" y1="312" x2="462" y2="422" stroke="green" stroke-width="1" /><line x1="462" y1="412" x2="462" y2="390" stroke="red" stroke-width="1" /><line x1="462" y1="390" x2="462" y2="412" stroke="red" stroke-width="1" /><line x1="324" y1="334" x2="462" y2="400" stroke="green" stroke-width="1" /><line x1="462" y1="390" x2="462" y2="368" stroke="red" stroke-width="1" /><line x1="462" y1="368" x2="462" y2="390" stroke="red" stroke-width="1" /><line x1="324" y1="356" x2="462" y2="378" stroke="green" stroke-width="1" /><line x1="462" y1="346" x2="462" y2="368" stroke="red" stroke-width="1" /><line x1="462" y1="368" x2="462" y2="346" stroke="red" stroke-width="1" /><line x1="324" y1="378" x2="462" y2="356" stroke="green" stroke-width="1" /><line x1="462" y1="324" x2="462" y2="346" stroke="red" stroke-width="1" /><line x1="462" y1="346" x2="462" y2="324" stroke="red" stroke-width="1" /><line x1="324" y1="400" x2="462" y2="334" stroke="green" stroke-width="1" /><line x1="462" y1="302" x2="462" y2="324" stroke="red" stroke-width="1" /><line x1="462" y1="324" x2="462" y2="302" stroke="red" stroke-width="1" /><line x1="324" y1="422" x2="462" y2="312" stroke="green" stroke-width="1" /><line x1="462" y1="280" x2="462" y2="302" stroke="red" stroke-width="1" /><line x1="462" y1="302" x2="462" y2="280" stroke="red" stroke-width="1" /><line x1="462" y1="280" x2="462" y2="258" stroke="red" stroke-width="1" /><line x1="462" y1="258" x2="462" y2="280" stroke="red" stroke-width="1" /><line x1="462" y1="258" x2="462" y2="236" stroke="red" stroke-width="1" /><line x1="462" y1="236" x2="462" y2="258" stroke="red" stroke-width="1" /><line x1="462" y1="236" x2="506" y2="236" stroke="red" stroke-width="1" /><line x1="506" y1="236" x2="462" y2="236" stroke="red" stroke-width="1" /><line x1="506" y1="236" x2="506" y2="258" stroke="red" stroke-width="1" /><line x1="506" y1="258" x2="506" y2="236" stroke="red" stroke-width="1" /><line x1="394" y1="478" x2="394" y2="456" stroke="red" stroke-width="1" /><line x1="394" y1="456" x2="394" y2="478" stroke="red" stroke-width="1" /><line x1="394" y1="434" x2="394" y2="456" stroke="red" stroke-width="1" /><line x1="394" y1="456" x2="394" y2="434" stroke="red" stroke-width="1" /><line x1="394" y1="412" x2="394" y2="434" stroke="red" stroke-width="1" /><line x1="394" y1="434" x2="394" y2="412" stroke="red" stroke-width="1" /><line x1="394" y1="390" x2="394" y2="412" stroke="red" stroke-width="1" /><line x1="394" y1="412" x2="394" y2="390" stroke="red" stroke-width="1" /><line x1="394" y1="368" x2="394" y2="390" stroke="red" stroke-width="1" /><line x1="394" y1="390" x2="394" y2="368" stroke="red" stroke-width="1" /><line x1="394" y1="368" x2="394" y2="346" stroke="red" stroke-width="1" /><line x1="394" y1="346" x2="394" y2="368" stroke="red" stroke-width="1" /><line x1="394" y1="324" x2="394" y2="346" stroke="red" stroke-width="1" /><line x1="394" y1="346" x2="394" y2="324" stroke="red" stroke-width="1" /><line x1="394" y1="302" x2="394" y2="324" stroke="red" stroke-width="1" /><line x1="394" y1="324" x2="394" y2="302" stroke="red" stroke-width="1" /><line x1="394" y1="302" x2="394" y2="280" stroke="red" stroke-width="1" /><line x1="394" y1="280" x2="394" y2="302" stroke="red" stroke-width="1" /><line x1="394" y1="280" x2="394" y2="258" stroke="red" stroke-width="1" /><line x1="394" y1="258" x2="394" y2="280" stroke="red" stroke-width="1" /><line x1="394" y1="258" x2="394" y2="236" stroke="red" stroke-width="1" /><line x1="394" y1="236" x2="394" y2="258" stroke="red" stroke-width="1" /><line x1="394" y1="236" x2="438" y2="236" stroke="red" stroke-width="1" /><line x1="438" y1="236" x2="394" y2="236" stroke="red" stroke-width="1" /><line x1="438" y1="236" x2="438" y2="258" stroke="red" stroke-width="1" /><line x1="438" y1="258" x2="438" y2="236" stroke="red" stroke-width="1" /><line x1="438" y1="280" x2="438" y2="258" stroke="red" stroke-width="1" /><line x1="438" y1="258" x2="438" y2="280" stroke="red" stroke-width="1" /><line x1="438" y1="280" x2="438" y2="302" stroke="red" stroke-width="1" /><line x1="438" y1="302" x2="438" y2="280" stroke="red" stroke-width="1" /><line x1="438" y1="302" x2="438" y2="324" stroke="red" stroke-width="1" /><line x1="438" y1="324" x2="438" y2="302" stroke="red" stroke-width="1" /><line x1="438" y1="324" x2="438" y2="346" stroke="red" stroke-width="1" /><line x1="438" y1="346" x2="438" y2="324" stroke="red" stroke-width="1" /><line x1="438" y1="368" x2="438" y2="346" stroke="red" stroke-width="1" /><line x1="438" y1="346" x2="438" y2="368" stroke="red" stroke-width="1" /><line x1="438" y1="390" x2="438" y2="368" stroke="red" stroke-width="1" /><line x1="438" y1="368" x2="438" y2="390" stroke="red" stroke-width="1" /><line x1="438" y1="390" x2="438" y2="412" stroke="red" stroke-width="1" /><line x1="438" y1="412" x2="438" y2="390" stroke="red" stroke-width="1" /><line x1="438" y1="412" x2="438" y2="434" stroke="red" stroke-width="1" /><line x1="438" y1="434" x2="438" y2="412" stroke="red" stroke-width="1" /><line x1="438" y1="456" x2="438" y2="434" stroke="red" stroke-width="1" /><line x1="438" y1="434" x2="438" y2="456" stroke="red" stroke-width="1" /><line x1="438" y1="478" x2="438" y2="456" stroke="red" stroke-width="1" /><line x1="438" y1="456" x2="438" y2="478" stroke="red" stroke-width="1" /><line x1="438" y1="500" x2="438" y2="478" stroke="red" stroke-width="1" /><line x1="438" y1="478" x2="438" y2="500" stroke="red" stroke-width="1" /><line x1="482" y1="500" x2="438" y2="500" stroke="red" stroke-width="1" /><line x1="438" y1="500" x2="482" y2="500" stroke="red" stroke-width="1" /><line x1="482" y1="478" x2="482" y2="500" stroke="red" stroke-width="1" /><line x1="482" y1="500" x2="482" y2="478" stroke="red" stroke-width="1" /><line x1="482" y1="478" x2="482" y2="456" stroke="red" stroke-width="1" /><line x1="482" y1="456" x2="482" y2="478" stroke="red" stroke-width="1" /><line x1="482" y1="456" x2="482" y2="434" stroke="red" stroke-width="1" /><line x1="482" y1="434" x2="482" y2="456" stroke="red" stroke-width="1" /><line x1="482" y1="434" x2="482" y2="412" stroke="red" stroke-width="1" /><line x1="482" y1="412" x2="482" y2="434" stroke="red" stroke-width="1" /><line x1="482" y1="390" x2="482" y2="412" stroke="red" stroke-width="1" /><line x1="482" y1="412" x2="482" y2="390" stroke="red" stroke-width="1" /><line x1="482" y1="390" x2="482" y2="368" stroke="red" stroke-width="1" /><line x1="482" y1="368" x2="482" y2="390" stroke="red" stroke-width="1" /><line x1="482" y1="368" x2="482" y2="346" stroke="red" stroke-width="1" /><line x1="482" y1="346" x2="482" y2="368" stroke="red" stroke-width="1" /><line x1="482" y1="346" x2="482" y2="324" stroke="red" stroke-width="1" /><line x1="482" y1="324" x2="482" y2="346" stroke="red" stroke-width="1" /><line x1="482" y1="324" x2="482" y2="302" stroke="red" stroke-width="1" /><line x1="482" y1="302" x2="482" y2="324" stroke="red" stroke-width="1" /><line x1="482" y1="302" x2="482" y2="280" stroke="red" stroke-width="1" /><line x1="482" y1="280" x2="482" y2="302" stroke="red" stroke-width="1" /><line x1="482" y1="258" x2="482" y2="280" stroke="red" stroke-width="1" /><line x1="482" y1="280" x2="482" y2="258" stroke="red" stroke-width="1" /><line x1="482" y1="236" x2="482" y2="258" stroke="red" stroke-width="1" /><line x1="482" y1="258" x2="482" y2="236" stroke="red" stroke-width="1" /><line x1="526" y1="236" x2="482" y2="236" stroke="red" stroke-width="1" /><line x1="482" y1="236" x2="526" y2="236" stroke="red" stroke-width="1" /><line x1="526" y1="236" x2="526" y2="258" stroke="red" stroke-width="1" /><line x1="526" y1="258" x2="526" y2="236" stroke="red" stroke-width="1" /></svg>