<svg xmlns="http://www.w3.org/2000/svg" width="580" height="491"><rect x="0" y="0" width="580" height="491" fill="rgb(255,255,255)"></rect><rect x="0" y="0" width="560" height="440" fill="rgba(255,255,255,1)"></rect><rect x="429" y="209" width="20" height="20" fill="rgba(230,230,230,1)"></rect><text x="439" y="219" text-anchor="middle" alignment-baseline="middle" fill="black">C</text><rect x="473" y="275" width="20" height="20" fill="rgba(230,230,230,1)"></rect><text x="483" y="285" text-anchor="middle" alignment-baseline="middle" fill="black">C</text><rect x="473" y="231" width="20" height="20" fill="rgba(230,230,230,1)"></rect><text x="483" y="241" text-anchor="middle" alignment-baseline="middle" fill="black">C</text><rect x="473" y="187" width="20" height="20" fill="rgba(230,230,230,1)"></rect><text x="483" y="197" text-anchor="middle" alignment-baseline="middle" fill="black">C</text><rect x="517" y="187" width="20" height="20" fill="rgba(230,230,230,1)"></rect><text x="527" y="197" text-anchor="middle" alignment-baseline="middle" fill="black">C</text><rect x="517" y="231" width="20" height="20" fill="rgba(230,230,230,1)"></rect><text x="527" y="241" text-anchor="middle" alignment-baseline="middle" fill="black">C</text><rect x="517" y="275" width="20" height="20" fill="rgba(230,230,230,1)"></rect><text x="527" y="285" text-anchor="middle" alignment-baseline="middle" fill="black">C</text><rect x="429" y="363" width="20" height="20" fill="rgba(230,230,230,1)"></rect><text x="439" y="373" text-anchor="middle" alignment-baseline="middle" fill="black">C</text><rect x="429" y="451" width="20" height="20" fill="rgba(230,230,230,1)"></rect><text x="439" y="461" text-anchor="middle" alignment-baseline="middle" fill="black">C</text><rect x="473" y="429" width="20" height="20" fill="rgba(230,230,230,1)"></rect><text x="483" y="439" text-anchor="middle" alignment-baseline="middle" fill="black">C</text><rect x="473" y="385" width="20" height="20" fill="rgba(230,230,230,1)"></rect><text x="483" y="395" text-anchor="middle" alignment-baseline="middle" fill="black">C</text><rect x="473" y="341" width="20" height="20" fill="rgba(230,230,230,1)"></rect><text x="483" y="351" text-anchor="middle" alignment-baseline="middle" fill="black">C</text><rect x="517" y="341" width="20" height="20" fill="rgba(230,230,230,1)"></rect><text x="527" y="351" text-anchor="middle" alignment-baseline="middle" fill="black">C</text><rect x="517" y="385" width="20" height="20" fill="rgba(230,230,230,1)"></rect><text x="527" y="395" text-anchor="middle" alignment-baseline="middle" fill="black">C</text><rect x="517" y="429" width="20" height="20" fill="rgba(230,230,230,1)"></rect><text x="527" y="439" text-anchor="middle" alignment-baseline="middle" fill="black">C</text><rect x="231" y="363" width="20" height="20" fill="rgba(230,230,230,1)"></rect><text x="241" y="373" text-anchor="middle" alignment-baseline="middle" fill="black">C</text><rect x="231" y="451" width="20" height="20" fill="rgba(230,230,230,1)"></rect><text x="241" y="461" text-anchor="middle" alignment-baseline="middle" fill="black">C</text><rect x="275" y="429" width="20" height="20" fill="rgba(230,230,230,1)"></rect><text x="285" y="439" text-anchor="middle" alignment-baseline="middle" fill="black">C</text><rect x="275" y="385" width="20" height="20" fill="rgba(230,230,230,1)"></rect><text x="285" y="395" text-anchor="middle" alignment-baseline="middle" fill="black">C</text><rect x="275" y="341" width="20" height="20" fill="rgba(230,230,230,1)"></rect><text x="285" y="351" text-anchor="middle" alignment-baseline="middle" fill="black">C</text><rect x="319" y="341" width="20" height="20" fill="rgba(230,230,230,1)"></rect><text x="329" y="351" text-anchor="middle" alignment-baseline="middle" fill="black">C</text><rect x="319" y="385" width="20" height="20" fill="rgba(230,230,230,1)"></rect><text x="329" y="395" text-anchor="middle" alignment-baseline="middle" fill="black">C</text><rect x="319" y="429" width="20" height="20" fill="rgba(230,230,230,1)"></rect><text x="329" y="439" text-anchor="middle" alignment-baseline="middle" fill="black">C</text><rect x="231" y="209" width="20" height="20" fill="rgba(230,230,230,1)"></rect><text x="241" y="219" text-anchor="middle" alignment-baseline="middle" fill="black">C</text><rect x="231" y="297" width="20" height="20" fill="rgba(230,230,230,1)"></rect><text x="241" y="307" text-anchor="middle" alignment-baseline="middle" fill="black">C</text><rect x="275" y="275" width="20" height="20" fill="rgba(230,230,230,1)"></rect><text x="285" y="285" text-anchor="middle" alignment-baseline="middle" fill="black">C</text><rect x="275" y="231" width="20" height="20" fill="rgba(230,230,230,1)"></rect><text x="285" y="241" text-anchor="middle" alignment-baseline="middle" fill="black">C</text><rect x="275" y="187" width="20" height="20" fill="rgba(230,230,230,1)"></rect><text x="285" y="197" text-anchor="middle" alignment-baseline="middle" fill="black">C</text><rect x="319" y="187" width="20" height="20" fill="rgba(230,230,230,1)"></rect><text x="329" y="197" text-anchor="middle" alignment-baseline="middle" fill="black">C</text><rect x="319" y="231" width="20" height="20" fill="rgba(230,230,230,1)"></rect><text x="329" y="241" text-anchor="middle" alignment-baseline="middle" fill="black">C</text><rect x="319" y="275" width="20" height="20" fill="rgba(230,230,230,1)"></rect><text x="329" y="285" text-anchor="middle" alignment-baseline="middle" fill="black">C</text><rect x="363" y="297" width="20" height="20" fill="rgba(230,230,230,1)"></rect><text x="373" y="307" text-anchor="middle" alignment-baseline="middle" fill="black">C</text><rect x="33" y="209" width="20" height="20" fill="rgba(230,230,230,1)"></rect><text x="43" y="219" text-anchor="middle" alignment-baseline="middle" fill="black">C</text><rect x="33" y="297" width="20" height="20" fill="rgba(230,230,230,1)"></rect><text x="43" y="307" text-anchor="middle" alignment-baseline="middle" fill="black">C</text><rect x="77" y="275" width="20" height="20" fill="rgba(230,230,230,1)"></rect><text x="87" y="285" text-anchor="middle" alignment-baseline="middle" fill="black">C</text><rect x="77" y="231" width="20" height="20" fill="rgba(230,230,230,1)"></rect><text x="87" y="241" text-anchor="middle" alignment-baseline="middle" fill="black">C</text><rect x="77" y="209" width="20" height="20" fill="rgba(230,230,230,1)"></rect><text x="87" y="219" text-anchor="middle" alignment-baseline="middle" fill="black">C</text><rect x="121" y="187" width="20" height="20" fill="rgba(230,230,230,1)"></rect><text x="131" y="197" text-anchor="middle" alignment-baseline="middle" fill="black">C</text><rect x="121" y="231" width="20" height="20" fill="rgba(230,230,230,1)"></rect><text x="131" y="241" text-anchor="middle" alignment-baseline="middle" fill="black">C</text><rect x="121" y="275" width="20" height="20" fill="rgba(230,230,230,1)"></rect><text x="131" y="285" text-anchor="middle" alignment-baseline="middle" fill="black">C</text><rect x="430" y="231" width="40" height="20" fill="rgba(230,230,230,1)"></rect><text x="450" y="241" text-anchor="middle" alignment-baseline="middle" fill="black">=</text><rect x="430" y="253" width="40" height="20" fill="rgba(230,230,230,1)"></rect><text x="450" y="263" text-anchor="middle" alignment-baseline="middle" fill="black">=</text><rect x="474" y="297" width="40" height="20" fill="rgba(230,230,230,1)"></rect><text x="494" y="307" text-anchor="middle" alignment-baseline="middle" fill="black">=</text><rect x="474" y="253" width="40" height="20" fill="rgba(230,230,230,1)"></rect><text x="494" y="263" text-anchor="middle" alignment-baseline="middle" fill="black">=</text><rect x="474" y="209" width="40" height="20" fill="rgba(230,230,230,1)"></rect><text x="494" y="219" text-anchor="middle" alignment-baseline="middle" fill="black">=</text><rect x="518" y="209" width="40" height="20" fill="rgba(230,230,230,1)"></rect><text x="538" y="219" text-anchor="middle" alignment-baseline="middle" fill="black">=</text><rect x="518" y="253" width="40" height="20" fill="rgba(230,230,230,1)"></rect><text x="538" y="263" text-anchor="middle" alignment-baseline="middle" fill="black">=</text><rect x="430" y="385" width="40" height="20" fill="rgba(230,230,230,1)"></rect><text x="450" y="395" text-anchor="middle" alignment-baseline="middle" fill="black">=</text><rect x="430" y="407" width="40" height="20" fill="rgba(230,230,230,1)"></rect><text x="450" y="417" text-anchor="middle" alignment-baseline="middle" fill="black">=</text><rect x="430" y="429" width="40" height="20" fill="rgba(230,230,230,1)"></rect><text x="450" y="439" text-anchor="middle" alignment-baseline="middle" fill="black">=</text><rect x="474" y="451" width="40" height="20" fill="rgba(230,230,230,1)"></rect><text x="494" y="461" text-anchor="middle" alignment-baseline="middle" fill="black">=</text><rect x="474" y="407" width="40" height="20" fill="rgba(230,230,230,1)"></rect><text x="494" y="417" text-anchor="middle" alignment-baseline="middle" fill="black">=</text><rect x="474" y="363" width="40" height="20" fill="rgba(230,230,230,1)"></rect><text x="494" y="373" text-anchor="middle" alignment-baseline="middle" fill="black">=</text><rect x="518" y="363" width="40" height="20" fill="rgba(230,230,230,1)"></rect><text x="538" y="373" text-anchor="middle" alignment-baseline="middle" fill="black">=</text><rect x="518" y="407" width="40" height="20" fill="rgba(230,230,230,1)"></rect><text x="538" y="417" text-anchor="middle" alignment-baseline="middle" fill="black">=</text><rect x="232" y="385" width="40" height="20" fill="rgba(230,230,230,1)"></rect><text x="252" y="395" text-anchor="middle" alignment-baseline="middle" fill="black">=</text><rect x="232" y="407" width="40" height="20" fill="rgba(230,230,230,1)"></rect><text x="252" y="417" text-anchor="middle" alignment-baseline="middle" fill="black">=</text><rect x="232" y="429" width="40" height="20" fill="rgba(230,230,230,1)"></rect><text x="252" y="439" text-anchor="middle" alignment-baseline="middle" fill="black">=</text><rect x="276" y="451" width="40" height="20" fill="rgba(230,230,230,1)"></rect><text x="296" y="461" text-anchor="middle" alignment-baseline="middle" fill="black">=</text><rect x="276" y="407" width="40" height="20" fill="rgba(230,230,230,1)"></rect><text x="296" y="417" text-anchor="middle" alignment-baseline="middle" fill="black">=</text><rect x="276" y="363" width="40" height="20" fill="rgba(230,230,230,1)"></rect><text x="296" y="373" text-anchor="middle" alignment-baseline="middle" fill="black">=</text><rect x="320" y="363" width="40" height="20" fill="rgba(230,230,230,1)"></rect><text x="340" y="373" text-anchor="middle" alignment-baseline="middle" fill="black">=</text><rect x="320" y="407" width="40" height="20" fill="rgba(230,230,230,1)"></rect><text x="340" y="417" text-anchor="middle" alignment-baseline="middle" fill="black">=</text><rect x="232" y="231" width="40" height="20" fill="rgba(230,230,230,1)"></rect><text x="252" y="241" text-anchor="middle" alignment-baseline="middle" fill="black">=</text><rect x="232" y="253" width="40" height="20" fill="rgba(230,230,230,1)"></rect><text x="252" y="263" text-anchor="middle" alignment-baseline="middle" fill="black">=</text><rect x="232" y="275" width="40" height="20" fill="rgba(230,230,230,1)"></rect><text x="252" y="285" text-anchor="middle" alignment-baseline="middle" fill="black">=</text><rect x="276" y="297" width="40" height="20" fill="rgba(230,230,230,1)"></rect><text x="296" y="307" text-anchor="middle" alignment-baseline="middle" fill="black">=</text><rect x="276" y="253" width="40" height="20" fill="rgba(230,230,230,1)"></rect><text x="296" y="263" text-anchor="middle" alignment-baseline="middle" fill="black">=</text><rect x="276" y="209" width="40" height="20" fill="rgba(230,230,230,1)"></rect><text x="296" y="219" text-anchor="middle" alignment-baseline="middle" fill="black">=</text><rect x="320" y="209" width="40" height="20" fill="rgba(230,230,230,1)"></rect><text x="340" y="219" text-anchor="middle" alignment-baseline="middle" fill="black">=</text><rect x="320" y="253" width="40" height="20" fill="rgba(230,230,230,1)"></rect><text x="340" y="263" text-anchor="middle" alignment-baseline="middle" fill="black">=</text><rect x="320" y="297" width="40" height="20" fill="rgba(230,230,230,1)"></rect><text x="340" y="307" text-anchor="middle" alignment-baseline="middle" fill="black">=</text><rect x="34" y="231" width="40" height="20" fill="rgba(230,230,230,1)"></rect><text x="54" y="241" text-anchor="middle" alignment-baseline="middle" fill="black">=</text><rect x="34" y="253" width="40" height="20" fill="rgba(230,230,230,1)"></rect><text x="54" y="263" text-anchor="middle" alignment-baseline="middle" fill="black">=</text><rect x="34" y="275" width="40" height="20" fill="rgba(230,230,230,1)"></rect><text x="54" y="285" text-anchor="middle" alignment-baseline="middle" fill="black">=</text><rect x="78" y="297" width="40" height="20" fill="rgba(230,230,230,1)"></rect><text x="98" y="307" text-anchor="middle" alignment-baseline="middle" fill="black">=</text><rect x="78" y="253" width="40" height="20" fill="rgba(230,230,230,1)"></rect><text x="98" y="263" text-anchor="middle" alignment-baseline="middle" fill="black">=</text><rect x="78" y="187" width="40" height="20" fill="rgba(230,230,230,1)"></rect><text x="98" y="197" text-anchor="middle" alignment-baseline="middle" fill="black">=</text><rect x="122" y="209" width="40" height="20" fill="rgba(230,230,230,1)"></rect><text x="142" y="219" text-anchor="middle" alignment-baseline="middle" fill="black">=</text><rect x="122" y="253" width="40" height="20" fill="rgba(230,230,230,1)"></rect><text x="142" y="263" text-anchor="middle" alignment-baseline="middle" fill="black">=</text><rect x="429" y="297" width="20" height="20" fill="rgba(230,230,230,1)"></rect><text x="439" y="307" text-anchor="middle" alignment-baseline="middle" fill="black">C</text><rect x="429" y="275" width="20" height="20" fill="rgba(230,230,230,1)"></rect><text x="439" y="285" text-anchor="middle" alignment-baseline="middle" fill="black">L</text><circle cx="416" cy="394" r="5" fill="rgb(101,67,33)"></circle><circle cx="394" cy="394" r="5" fill="rgb(101,67,33)"></circle><circle cx="416" cy="416" r="5" fill="rgb(101,67,33)"></circle><circle cx="394" cy="416" r="5" fill="rgb(101,67,33)"></circle><circle cx="218" cy="240" r="5" fill="rgb(101,67,33)"></circle><circle cx="196" cy="240" r="5" fill="rgb(101,67,33)"></circle><circle cx="218" cy="262" r="5" fill="rgb(101,67,33)"></circle><circle cx="196" cy="262" r="5" fill="rgb(101,67,33)"></circle><line x1="417" y1="395" x2="395" y2="395" stroke="red" stroke-width="1" /><line x1="417" y1="397" x2="395" y2="397" stroke="green" stroke-width="1" /><line x1="417" y1="417" x2="395" y2="417" stroke="red" stroke-width="1" /><line x1="417" y1="419" x2="395" y2="419" stroke="green" stroke-width="1" /><line x1="219" y1="241" x2="197" y2="241" stroke="red" stroke-width="1" /><line x1="219" y1="243" x2="197" y2="243" stroke="green" stroke-width="1" /><line x1="219" y1="263" x2="197" y2="263" stroke="red" stroke-width="1" /><line x1="219" y1="265" x2="197" y2="265" stroke="green" stroke-width="1" /><line x1="528" y1="412" x2="417" y2="395" stroke="red" stroke-width="1" /><line x1="528" y1="422" x2="417" y2="397" stroke="green" stroke-width="1" /><line x1="548" y1="412" x2="417" y2="417" stroke="red" stroke-width="1" /><line x1="548" y1="422" x2="417" y2="419" stroke="green" stroke-width="1" /><line x1="262" y1="390" x2="395" y2="395" stroke="red" stroke-width="1" /><line x1="242" y1="390" x2="395" y2="395" stroke="red" stroke-width="1" /><line x1="262" y1="390" x2="395" y2="417" stroke="red" stroke-width="1" /><line x1="262" y1="390" x2="395" y2="395" stroke="red" stroke-width="1" /><line x1="242" y1="390" x2="395" y2="395" stroke="red" stroke-width="1" /><line x1="262" y1="390" x2="395" y2="417" stroke="red" stroke-width="1" /><line x1="330" y1="302" x2="219" y2="241" stroke="red" stroke-width="1" /><line x1="330" y1="312" x2="219" y2="243" stroke="green" stroke-width="1" /><line x1="350" y1="302" x2="219" y2="263" stroke="red" stroke-width="1" /><line x1="350" y1="312" x2="219" y2="265" stroke="green" stroke-width="1" /><line x1="64" y1="236" x2="197" y2="241" stroke="red" stroke-width="1" /><line x1="44" y1="236" x2="197" y2="241" stroke="red" stroke-width="1" /><line x1="64" y1="236" x2="197" y2="263" stroke="red" stroke-width="1" /><line x1="64" y1="236" x2="197" y2="241" stroke="red" stroke-width="1" /><line x1="44" y1="236" x2="197" y2="241" stroke="red" stroke-width="1" /><line x1="64" y1="236" x2="197" y2="263" stroke="red" stroke-width="1" /><line x1="434" y1="302" x2="440" y2="236" stroke="red" stroke-width="1" /><line x1="434" y1="224" x2="440" y2="246" stroke="green" stroke-width="1" /><line x1="440" y1="258" x2="440" y2="236" stroke="red" stroke-width="1" /><line x1="440" y1="236" x2="440" y2="258" stroke="red" stroke-width="1" /><line x1="478" y1="290" x2="440" y2="268" stroke="green" stroke-width="1" /><line x1="440" y1="258" x2="484" y2="302" stroke="red" stroke-width="1" /><line x1="484" y1="302" x2="440" y2="258" stroke="red" stroke-width="1" /><line x1="478" y1="246" x2="484" y2="312" stroke="green" stroke-width="1" /><line x1="484" y1="258" x2="484" y2="302" stroke="red" stroke-width="1" /><line x1="484" y1="302" x2="484" y2="258" stroke="red" stroke-width="1" /><line x1="478" y1="202" x2="484" y2="268" stroke="green" stroke-width="1" /><line x1="484" y1="258" x2="484" y2="214" stroke="red" stroke-width="1" /><line x1="484" y1="214" x2="484" y2="258" stroke="red" stroke-width="1" /><line x1="522" y1="202" x2="484" y2="224" stroke="green" stroke-width="1" /><line x1="484" y1="214" x2="528" y2="214" stroke="red" stroke-width="1" /><line x1="528" y1="214" x2="484" y2="214" stroke="red" stroke-width="1" /><line x1="522" y1="246" x2="528" y2="224" stroke="green" stroke-width="1" /><line x1="528" y1="214" x2="528" y2="258" stroke="red" stroke-width="1" /><line x1="528" y1="258" x2="528" y2="214" stroke="red" stroke-width="1" /><line x1="522" y1="290" x2="528" y2="268" stroke="green" stroke-width="1" /><line x1="440" y1="390" x2="528" y2="258" stroke="red" stroke-width="1" /><line x1="528" y1="258" x2="440" y2="390" stroke="red" stroke-width="1" /><line x1="434" y1="378" x2="440" y2="400" stroke="green" stroke-width="1" /><line x1="440" y1="412" x2="440" y2="390" stroke="red" stroke-width="1" /><line x1="440" y1="390" x2="440" y2="412" stroke="red" stroke-width="1" /><line x1="434" y1="466" x2="440" y2="422" stroke="green" stroke-width="1" /><line x1="440" y1="412" x2="440" y2="434" stroke="red" stroke-width="1" /><line x1="440" y1="434" x2="440" y2="412" stroke="red" stroke-width="1" /><line x1="478" y1="444" x2="440" y2="444" stroke="green" stroke-width="1" /><line x1="484" y1="456" x2="440" y2="434" stroke="red" stroke-width="1" /><line x1="440" y1="434" x2="484" y2="456" stroke="red" stroke-width="1" /><line x1="478" y1="400" x2="484" y2="466" stroke="green" stroke-width="1" /><line x1="484" y1="456" x2="484" y2="412" stroke="red" stroke-width="1" /><line x1="484" y1="412" x2="484" y2="456" stroke="red" stroke-width="1" /><line x1="478" y1="356" x2="484" y2="422" stroke="green" stroke-width="1" /><line x1="484" y1="412" x2="484" y2="368" stroke="red" stroke-width="1" /><line x1="484" y1="368" x2="484" y2="412" stroke="red" stroke-width="1" /><line x1="522" y1="356" x2="484" y2="378" stroke="green" stroke-width="1" /><line x1="528" y1="368" x2="484" y2="368" stroke="red" stroke-width="1" /><line x1="484" y1="368" x2="528" y2="368" stroke="red" stroke-width="1" /><line x1="522" y1="400" x2="528" y2="378" stroke="green" stroke-width="1" /><line x1="528" y1="412" x2="528" y2="368" stroke="red" stroke-width="1" /><line x1="528" y1="368" x2="528" y2="412" stroke="red" stroke-width="1" /><line x1="522" y1="444" x2="528" y2="422" stroke="green" stroke-width="1" /><line x1="236" y1="378" x2="242" y2="400" stroke="green" stroke-width="1" /><line x1="242" y1="390" x2="242" y2="412" stroke="red" stroke-width="1" /><line x1="242" y1="412" x2="242" y2="390" stroke="red" stroke-width="1" /><line x1="236" y1="466" x2="242" y2="422" stroke="green" stroke-width="1" /><line x1="242" y1="412" x2="242" y2="434" stroke="red" stroke-width="1" /><line x1="242" y1="434" x2="242" y2="412" stroke="red" stroke-width="1" /><line x1="280" y1="444" x2="242" y2="444" stroke="green" stroke-width="1" /><line x1="242" y1="434" x2="286" y2="456" stroke="red" stroke-width="1" /><line x1="286" y1="456" x2="242" y2="434" stroke="red" stroke-width="1" /><line x1="280" y1="400" x2="286" y2="466" stroke="green" stroke-width="1" /><line x1="286" y1="412" x2="286" y2="456" stroke="red" stroke-width="1" /><line x1="286" y1="456" x2="286" y2="412" stroke="red" stroke-width="1" /><line x1="280" y1="356" x2="286" y2="422" stroke="green" stroke-width="1" /><line x1="286" y1="368" x2="286" y2="412" stroke="red" stroke-width="1" /><line x1="286" y1="412" x2="286" y2="368" stroke="red" stroke-width="1" /><line x1="324" y1="356" x2="286" y2="378" stroke="green" stroke-width="1" /><line x1="330" y1="368" x2="286" y2="368" stroke="red" stroke-width="1" /><line x1="286" y1="368" x2="330" y2="368" stroke="red" stroke-width="1" /><line x1="324" y1="400" x2="330" y2="378" stroke="green" stroke-width="1" /><line x1="330" y1="412" x2="330" y2="368" stroke="red" stroke-width="1" /><line x1="330" y1="368" x2="330" y2="412" stroke="red" stroke-width="1" /><line x1="324" y1="444" x2="330" y2="422" stroke="green" stroke-width="1" /><line x1="330" y1="412" x2="242" y2="236" stroke="red" stroke-width="1" /><line x1="242" y1="236" x2="330" y2="412" stroke="red" stroke-width="1" /><line x1="236" y1="224" x2="242" y2="246" stroke="green" stroke-width="1" /><line x1="242" y1="258" x2="242" y2="236" stroke="red" stroke-width="1" /><line x1="242" y1="236" x2="242" y2="258" stroke="red" stroke-width="1" /><line x1="236" y1="312" x2="242" y2="268" stroke="green" stroke-width="1" /><line x1="242" y1="258" x2="242" y2="280" stroke="red" stroke-width="1" /><line x1="242" y1="280" x2="242" y2="258" stroke="red" stroke-width="1" /><line x1="280" y1="290" x2="242" y2="290" stroke="green" stroke-width="1" /><line x1="286" y1="302" x2="242" y2="280" stroke="red" stroke-width="1" /><line x1="242" y1="280" x2="286" y2="302" stroke="red" stroke-width="1" /><line x1="280" y1="246" x2="286" y2="312" stroke="green" stroke-width="1" /><line x1="286" y1="258" x2="286" y2="302" stroke="red" stroke-width="1" /><line x1="286" y1="302" x2="286" y2="258" stroke="red" stroke-width="1" /><line x1="280" y1="202" x2="286" y2="268" stroke="green" stroke-width="1" /><line x1="286" y1="214" x2="286" y2="258" stroke="red" stroke-width="1" /><line x1="286" y1="258" x2="286" y2="214" stroke="red" stroke-width="1" /><line x1="324" y1="202" x2="286" y2="224" stroke="green" stroke-width="1" /><line x1="330" y1="214" x2="286" y2="214" stroke="red" stroke-width="1" /><line x1="286" y1="214" x2="330" y2="214" stroke="red" stroke-width="1" /><line x1="324" y1="246" x2="330" y2="224" stroke="green" stroke-width="1" /><line x1="330" y1="258" x2="330" y2="214" stroke="red" stroke-width="1" /><line x1="330" y1="214" x2="330" y2="258" stroke="red" stroke-width="1" /><line x1="324" y1="290" x2="330" y2="268" stroke="green" stroke-width="1" /><line x1="330" y1="302" x2="330" y2="258" stroke="red" stroke-width="1" /><line x1="330" y1="258" x2="330" y2="302" stroke="red" stroke-width="1" /><line x1="368" y1="312" x2="330" y2="312" stroke="green" stroke-width="1" /><line x1="38" y1="224" x2="44" y2="246" stroke="green" stroke-width="1" /><line x1="44" y1="258" x2="44" y2="236" stroke="red" stroke-width="1" /><line x1="44" y1="236" x2="44" y2="258" stroke="red" stroke-width="1" /><line x1="38" y1="312" x2="44" y2="268" stroke="green" stroke-width="1" /><line x1="44" y1="280" x2="44" y2="258" stroke="red" stroke-width="1" /><line x1="44" y1="258" x2="44" y2="280" stroke="red" stroke-width="1" /><line x1="82" y1="290" x2="44" y2="290" stroke="green" stroke-width="1" /><line x1="44" y1="280" x2="88" y2="302" stroke="red" stroke-width="1" /><line x1="88" y1="302" x2="44" y2="280" stroke="red" stroke-width="1" /><line x1="82" y1="246" x2="88" y2="312" stroke="green" stroke-width="1" /><line x1="88" y1="302" x2="88" y2="258" stroke="red" stroke-width="1" /><line x1="88" y1="258" x2="88" y2="302" stroke="red" stroke-width="1" /><line x1="82" y1="224" x2="88" y2="268" stroke="green" stroke-width="1" /><line x1="88" y1="192" x2="88" y2="258" stroke="red" stroke-width="1" /><line x1="88" y1="258" x2="88" y2="192" stroke="red" stroke-width="1" /><line x1="126" y1="202" x2="88" y2="202" stroke="green" stroke-width="1" /><line x1="132" y1="214" x2="88" y2="192" stroke="red" stroke-width="1" /><line x1="88" y1="192" x2="132" y2="214" stroke="red" stroke-width="1" /><line x1="126" y1="246" x2="132" y2="224" stroke="green" stroke-width="1" /><line x1="132" y1="214" x2="132" y2="258" stroke="red" stroke-width="1" /><line x1="132" y1="258" x2="132" y2="214" stroke="red" stroke-width="1" /><line x1="126" y1="290" x2="132" y2="268" stroke="green" stroke-width="1" /><line x1="460" y1="258" x2="460" y2="236" stroke="red" stroke-width="1" /><line x1="460" y1="236" x2="460" y2="258" stroke="red" stroke-width="1" /><line x1="504" y1="302" x2="460" y2="258" stroke="red" stroke-width="1" /><line x1="460" y1="258" x2="504" y2="302" stroke="red" stroke-width="1" /><line x1="504" y1="302" x2="504" y2="258" stroke="red" stroke-width="1" /><line x1="504" y1="258" x2="504" y2="302" stroke="red" stroke-width="1" /><line x1="504" y1="258" x2="504" y2="214" stroke="red" stroke-width="1" /><line x1="504" y1="214" x2="504" y2="258" stroke="red" stroke-width="1" /><line x1="504" y1="214" x2="548" y2="214" stroke="red" stroke-width="1" /><line x1="548" y1="214" x2="504" y2="214" stroke="red" stroke-width="1" /><line x1="548" y1="258" x2="548" y2="214" stroke="red" stroke-width="1" /><line x1="548" y1="214" x2="548" y2="258" stroke="red" stroke-width="1" /><line x1="548" y1="258" x2="460" y2="390" stroke="red" stroke-width="1" /><line x1="460" y1="390" x2="548" y2="258" stroke="red" stroke-width="1" /><line x1="460" y1="412" x2="460" y2="390" stroke="red" stroke-width="1" /><line x1="460" y1="390" x2="460" y2="412" stroke="red" stroke-width="1" /><line x1="460" y1="412" x2="460" y2="434" stroke="red" stroke-width="1" /><line x1="460" y1="434" x2="460" y2="412" stroke="red" stroke-width="1" /><line x1="504" y1="456" x2="460" y2="434" stroke="red" stroke-width="1" /><line x1="460" y1="434" x2="504" y2="456" stroke="red" stroke-width="1" /><line x1="504" y1="456" x2="504" y2="412" stroke="red" stroke-width="1" /><line x1="504" y1="412" x2="504" y2="456" stroke="red" stroke-width="1" /><line x1="504" y1="368" x2="504" y2="412" stroke="red" stroke-width="1" /><line x1="504" y1="412" x2="504" y2="368" stroke="red" stroke-width="1" /><line x1="548" y1="368" x2="504" y2="368" stroke="red" stroke-width="1" /><line x1="504" y1="368" x2="548" y2="368" stroke="red" stroke-width="1" /><line x1="548" y1="368" x2="548" y2="412" stroke="red" stroke-width="1" /><line x1="548" y1="412" x2="548" y2="368" stroke="red" stroke-width="1" /><line x1="262" y1="412" x2="262" y2="390" stroke="red" stroke-width="1" /><line x1="262" y1="390" x2="262" y2="412" stroke="red" stroke-width="1" /><line x1="262" y1="434" x2="262" y2="412" stroke="red" stroke-width="1" /><line x1="262" y1="412" x2="262" y2="434" stroke="red" stroke-width="1" /><line x1="306" y1="456" x2="262" y2="434" stroke="red" stroke-width="1" /><line x1="262" y1="434" x2="306" y2="456" stroke="red" stroke-width="1" /><line x1="306" y1="456" x2="306" y2="412" stroke="red" stroke-width="1" /><line x1="306" y1="412" x2="306" y2="456" stroke="red" stroke-width="1" /><line x1="306" y1="368" x2="306" y2="412" stroke="red" stroke-width="1" /><line x1="306" y1="412" x2="306" y2="368" stroke="red" stroke-width="1" /><line x1="350" y1="368" x2="306" y2="368" stroke="red" stroke-width="1" /><line x1="306" y1="368" x2="350" y2="368" stroke="red" stroke-width="1" /><line x1="350" y1="412" x2="350" y2="368" stroke="red" stroke-width="1" /><line x1="350" y1="368" x2="350" y2="412" stroke="red" stroke-width="1" /><line x1="262" y1="236" x2="350" y2="412" stroke="red" stroke-width="1" /><line x1="350" y1="412" x2="262" y2="236" stroke="red" stroke-width="1" /><line x1="262" y1="236" x2="262" y2="258" stroke="red" stroke-width="1" /><line x1="262" y1="258" x2="262" y2="236" stroke="red" stroke-width="1" /><line x1="262" y1="258" x2="262" y2="280" stroke="red" stroke-width="1" /><line x1="262" y1="280" x2="262" y2="258" stroke="red" stroke-width="1" /><line x1="306" y1="302" x2="262" y2="280" stroke="red" stroke-width="1" /><line x1="262" y1="280" x2="306" y2="302" stroke="red" stroke-width="1" /><line x1="306" y1="258" x2="306" y2="302" stroke="red" stroke-width="1" /><line x1="306" y1="302" x2="306" y2="258" stroke="red" stroke-width="1" /><line x1="306" y1="214" x2="306" y2="258" stroke="red" stroke-width="1" /><line x1="306" y1="258" x2="306" y2="214" stroke="red" stroke-width="1" /><line x1="306" y1="214" x2="350" y2="214" stroke="red" stroke-width="1" /><line x1="350" y1="214" x2="306" y2="214" stroke="red" stroke-width="1" /><line x1="350" y1="214" x2="350" y2="258" stroke="red" stroke-width="1" /><line x1="350" y1="258" x2="350" y2="214" stroke="red" stroke-width="1" /><line x1="350" y1="302" x2="350" y2="258" stroke="red" stroke-width="1" /><line x1="350" y1="258" x2="350" y2="302" stroke="red" stroke-width="1" /><line x1="64" y1="258" x2="64" y2="236" stroke="red" stroke-width="1" /><line x1="64" y1="236" x2="64" y2="258" stroke="red" stroke-width="1" /><line x1="64" y1="280" x2="64" y2="258" stroke="red" stroke-width="1" /><line x1="64" y1="258" x2="64" y2="280" stroke="red" stroke-width="1" /><line x1="108" y1="302" x2="64" y2="280" stroke="red" stroke-width="1" /><line x1="64" y1="280" x2="108" y2="302" stroke="red" stroke-width="1" /><line x1="108" y1="302" x2="108" y2="258" stroke="red" stroke-width="1" /><line x1="108" y1="258" x2="108" y2="302" stroke="red" stroke-width="1" /><line x1="108" y1="192" x2="108" y2="258" stroke="red" stroke-width="1" /><line x1="108" y1="258" x2="108" y2="192" stroke="red" stroke-width="1" /><line x1="152" y1="214" x2="108" y2="192" stroke="red" stroke-width="1" /><line x1="108" y1="192" x2="152" y2="214" stroke="red" stroke-width="1" /><line x1="152" y1="258" x2="152" y2="214" stroke="red" stroke-width="1" /><line x1="152" y1="214" x2="152" y2="258" stroke="red" stroke-width="1" /><line x1="460" y1="236" x2="434" y2="280" stroke="red" stroke-width="1" /></svg>