<svg xmlns="http://www.w3.org/2000/svg" width="420" height="400"><rect x="0" y="0" width="420" height="400" fill="rgb(255,255,255)"></rect><rect x="0" y="0" width="400" height="380" fill="rgba(255,255,255,1)"></rect><rect x="77" y="99" width="20" height="20" fill="rgba(230,230,230,1)"></rect><text x="87" y="109" text-anchor="middle" alignment-baseline="middle" fill="black">C</text><rect x="77" y="231" width="20" height="20" fill="rgba(230,230,230,1)"></rect><text x="87" y="241" text-anchor="middle" alignment-baseline="middle" fill="black">C</text><rect x="77" y="275" width="20" height="20" fill="rgba(230,230,230,1)"></rect><text x="87" y="285" text-anchor="middle" alignment-baseline="middle" fill="black">C</text><rect x="77" y="319" width="20" height="20" fill="rgba(230,230,230,1)"></rect><text x="87" y="329" text-anchor="middle" alignment-baseline="middle" fill="black">C</text><rect x="77" y="341" width="20" height="20" fill="rgba(230,230,230,1)"></rect><text x="87" y="351" text-anchor="middle" alignment-baseline="middle" fill="black">C</text><rect x="99" y="319" width="20" height="20" fill="rgba(230,230,230,1)"></rect><text x="109" y="329" text-anchor="middle" alignment-baseline="middle" fill="black">C</text><rect x="121" y="275" width="20" height="20" fill="rgba(230,230,230,1)"></rect><text x="131" y="285" text-anchor="middle" alignment-baseline="middle" fill="black">C</text><rect x="121" y="231" width="20" height="20" fill="rgba(230,230,230,1)"></rect><text x="131" y="241" text-anchor="middle" alignment-baseline="middle" fill="black">C</text><rect x="121" y="165" width="20" height="20" fill="rgba(230,230,230,1)"></rect><text x="131" y="175" text-anchor="middle" alignment-baseline="middle" fill="black">C</text><rect x="121" y="121" width="20" height="20" fill="rgba(230,230,230,1)"></rect><text x="131" y="131" text-anchor="middle" alignment-baseline="middle" fill="black">C</text><rect x="121" y="77" width="20" height="20" fill="rgba(230,230,230,1)"></rect><text x="131" y="87" text-anchor="middle" alignment-baseline="middle" fill="black">C</text><rect x="165" y="99" width="20" height="20" fill="rgba(230,230,230,1)"></rect><text x="175" y="109" text-anchor="middle" alignment-baseline="middle" fill="black">C</text><rect x="165" y="121" width="20" height="20" fill="rgba(230,230,230,1)"></rect><text x="175" y="131" text-anchor="middle" alignment-baseline="middle" fill="black">C</text><rect x="165" y="165" width="20" height="20" fill="rgba(230,230,230,1)"></rect><text x="175" y="175" text-anchor="middle" alignment-baseline="middle" fill="black">C</text><rect x="165" y="209" width="20" height="20" fill="rgba(230,230,230,1)"></rect><text x="175" y="219" text-anchor="middle" alignment-baseline="middle" fill="black">C</text><rect x="165" y="253" width="20" height="20" fill="rgba(230,230,230,1)"></rect><text x="175" y="263" text-anchor="middle" alignment-baseline="middle" fill="black">C</text><rect x="143" y="319" width="20" height="20" fill="rgba(230,230,230,1)"></rect><text x="153" y="329" text-anchor="middle" alignment-baseline="middle" fill="black">C</text><rect x="209" y="341" width="20" height="20" fill="rgba(230,230,230,1)"></rect><text x="219" y="351" text-anchor="middle" alignment-baseline="middle" fill="black">C</text><rect x="209" y="297" width="20" height="20" fill="rgba(230,230,230,1)"></rect><text x="219" y="307" text-anchor="middle" alignment-baseline="middle" fill="black">C</text><rect x="187" y="253" width="20" height="20" fill="rgba(230,230,230,1)"></rect><text x="197" y="263" text-anchor="middle" alignment-baseline="middle" fill="black">C</text><rect x="209" y="231" width="20" height="20" fill="rgba(230,230,230,1)"></rect><text x="219" y="241" text-anchor="middle" alignment-baseline="middle" fill="black">C</text><rect x="209" y="187" width="20" height="20" fill="rgba(230,230,230,1)"></rect><text x="219" y="197" text-anchor="middle" alignment-baseline="middle" fill="black">C</text><rect x="209" y="143" width="20" height="20" fill="rgba(230,230,230,1)"></rect><text x="219" y="153" text-anchor="middle" alignment-baseline="middle" fill="black">C</text><rect x="209" y="99" width="20" height="20" fill="rgba(230,230,230,1)"></rect><text x="219" y="109" text-anchor="middle" alignment-baseline="middle" fill="black">C</text><rect x="231" y="99" width="20" height="20" fill="rgba(230,230,230,1)"></rect><text x="241" y="109" text-anchor="middle" alignment-baseline="middle" fill="black">C</text><rect x="253" y="143" width="20" height="20" fill="rgba(230,230,230,1)"></rect><text x="263" y="153" text-anchor="middle" alignment-baseline="middle" fill="black">C</text><rect x="253" y="187" width="20" height="20" fill="rgba(230,230,230,1)"></rect><text x="263" y="197" text-anchor="middle" alignment-baseline="middle" fill="black">C</text><rect x="253" y="231" width="20" height="20" fill="rgba(230,230,230,1)"></rect><text x="263" y="241" text-anchor="middle" alignment-baseline="middle" fill="black">C</text><rect x="231" y="231" width="20" height="20" fill="rgba(230,230,230,1)"></rect><text x="241" y="241" text-anchor="middle" alignment-baseline="middle" fill="black">C</text><rect x="231" y="297" width="20" height="20" fill="rgba(230,230,230,1)"></rect><text x="241" y="307" text-anchor="middle" alignment-baseline="middle" fill="black">C</text><rect x="253" y="341" width="20" height="20" fill="rgba(230,230,230,1)"></rect><text x="263" y="351" text-anchor="middle" alignment-baseline="middle" fill="black">C</text><rect x="297" y="319" width="20" height="20" fill="rgba(230,230,230,1)"></rect><text x="307" y="329" text-anchor="middle" alignment-baseline="middle" fill="black">C</text><rect x="297" y="253" width="20" height="20" fill="rgba(230,230,230,1)"></rect><text x="307" y="263" text-anchor="middle" alignment-baseline="middle" fill="black">C</text><rect x="297" y="209" width="20" height="20" fill="rgba(230,230,230,1)"></rect><text x="307" y="219" text-anchor="middle" alignment-baseline="middle" fill="black">C</text><rect x="297" y="165" width="20" height="20" fill="rgba(230,230,230,1)"></rect><text x="307" y="175" text-anchor="middle" alignment-baseline="middle" fill="black">C</text><rect x="297" y="121" width="20" height="20" fill="rgba(230,230,230,1)"></rect><text x="307" y="131" text-anchor="middle" alignment-baseline="middle" fill="black">C</text><rect x="297" y="99" width="20" height="20" fill="rgba(230,230,230,1)"></rect><text x="307" y="109" text-anchor="middle" alignment-baseline="middle" fill="black">C</text><rect x="341" y="77" width="20" height="20" fill="rgba(230,230,230,1)"></rect><text x="351" y="87" text-anchor="middle" alignment-baseline="middle" fill="black">C</text><rect x="319" y="121" width="20" height="20" fill="rgba(230,230,230,1)"></rect><text x="329" y="131" text-anchor="middle" alignment-baseline="middle" fill="black">C</text><rect x="341" y="165" width="20" height="20" fill="rgba(230,230,230,1)"></rect><text x="351" y="175" text-anchor="middle" alignment-baseline="middle" fill="black">C</text><rect x="78" y="121" width="40" height="20" fill="rgba(230,230,230,1)"></rect><text x="98" y="131" text-anchor="middle" alignment-baseline="middle" fill="black">=</text><rect x="78" y="143" width="40" height="20" fill="rgba(230,230,230,1)"></rect><text x="98" y="153" text-anchor="middle" alignment-baseline="middle" fill="black">=</text><rect x="78" y="209" width="40" height="20" fill="rgba(230,230,230,1)"></rect><text x="98" y="219" text-anchor="middle" alignment-baseline="middle" fill="black">=</text><rect x="78" y="253" width="40" height="20" fill="rgba(230,230,230,1)"></rect><text x="98" y="263" text-anchor="middle" alignment-baseline="middle" fill="black">=</text><rect x="78" y="297" width="40" height="20" fill="rgba(230,230,230,1)"></rect><text x="98" y="307" text-anchor="middle" alignment-baseline="middle" fill="black">=</text><rect x="122" y="341" width="40" height="20" fill="rgba(230,230,230,1)"></rect><text x="142" y="351" text-anchor="middle" alignment-baseline="middle" fill="black">=</text><rect x="122" y="297" width="40" height="20" fill="rgba(230,230,230,1)"></rect><text x="142" y="307" text-anchor="middle" alignment-baseline="middle" fill="black">=</text><rect x="122" y="253" width="40" height="20" fill="rgba(230,230,230,1)"></rect><text x="142" y="263" text-anchor="middle" alignment-baseline="middle" fill="black">=</text><rect x="122" y="209" width="40" height="20" fill="rgba(230,230,230,1)"></rect><text x="142" y="219" text-anchor="middle" alignment-baseline="middle" fill="black">=</text><rect x="122" y="187" width="40" height="20" fill="rgba(230,230,230,1)"></rect><text x="142" y="197" text-anchor="middle" alignment-baseline="middle" fill="black">=</text><rect x="122" y="143" width="40" height="20" fill="rgba(230,230,230,1)"></rect><text x="142" y="153" text-anchor="middle" alignment-baseline="middle" fill="black">=</text><rect x="122" y="99" width="40" height="20" fill="rgba(230,230,230,1)"></rect><text x="142" y="109" text-anchor="middle" alignment-baseline="middle" fill="black">=</text><rect x="166" y="77" width="40" height="20" fill="rgba(230,230,230,1)"></rect><text x="186" y="87" text-anchor="middle" alignment-baseline="middle" fill="black">=</text><rect x="166" y="143" width="40" height="20" fill="rgba(230,230,230,1)"></rect><text x="186" y="153" text-anchor="middle" alignment-baseline="middle" fill="black">=</text><rect x="166" y="187" width="40" height="20" fill="rgba(230,230,230,1)"></rect><text x="186" y="197" text-anchor="middle" alignment-baseline="middle" fill="black">=</text><rect x="166" y="231" width="40" height="20" fill="rgba(230,230,230,1)"></rect><text x="186" y="241" text-anchor="middle" alignment-baseline="middle" fill="black">=</text><rect x="166" y="275" width="40" height="20" fill="rgba(230,230,230,1)"></rect><text x="186" y="285" text-anchor="middle" alignment-baseline="middle" fill="black">=</text><rect x="166" y="297" width="40" height="20" fill="rgba(230,230,230,1)"></rect><text x="186" y="307" text-anchor="middle" alignment-baseline="middle" fill="black">=</text><rect x="166" y="341" width="40" height="20" fill="rgba(230,230,230,1)"></rect><text x="186" y="351" text-anchor="middle" alignment-baseline="middle" fill="black">=</text><rect x="210" y="319" width="40" height="20" fill="rgba(230,230,230,1)"></rect><text x="230" y="329" text-anchor="middle" alignment-baseline="middle" fill="black">=</text><rect x="210" y="275" width="40" height="20" fill="rgba(230,230,230,1)"></rect><text x="230" y="285" text-anchor="middle" alignment-baseline="middle" fill="black">=</text><rect x="210" y="209" width="40" height="20" fill="rgba(230,230,230,1)"></rect><text x="230" y="219" text-anchor="middle" alignment-baseline="middle" fill="black">=</text><rect x="210" y="165" width="40" height="20" fill="rgba(230,230,230,1)"></rect><text x="230" y="175" text-anchor="middle" alignment-baseline="middle" fill="black">=</text><rect x="210" y="121" width="40" height="20" fill="rgba(230,230,230,1)"></rect><text x="230" y="131" text-anchor="middle" alignment-baseline="middle" fill="black">=</text><rect x="210" y="77" width="40" height="20" fill="rgba(230,230,230,1)"></rect><text x="230" y="87" text-anchor="middle" alignment-baseline="middle" fill="black">=</text><rect x="254" y="77" width="40" height="20" fill="rgba(230,230,230,1)"></rect><text x="274" y="87" text-anchor="middle" alignment-baseline="middle" fill="black">=</text><rect x="254" y="121" width="40" height="20" fill="rgba(230,230,230,1)"></rect><text x="274" y="131" text-anchor="middle" alignment-baseline="middle" fill="black">=</text><rect x="254" y="165" width="40" height="20" fill="rgba(230,230,230,1)"></rect><text x="274" y="175" text-anchor="middle" alignment-baseline="middle" fill="black">=</text><rect x="254" y="209" width="40" height="20" fill="rgba(230,230,230,1)"></rect><text x="274" y="219" text-anchor="middle" alignment-baseline="middle" fill="black">=</text><rect x="254" y="297" width="40" height="20" fill="rgba(230,230,230,1)"></rect><text x="274" y="307" text-anchor="middle" alignment-baseline="middle" fill="black">=</text><rect x="254" y="319" width="40" height="20" fill="rgba(230,230,230,1)"></rect><text x="274" y="329" text-anchor="middle" alignment-baseline="middle" fill="black">=</text><rect x="298" y="341" width="40" height="20" fill="rgba(230,230,230,1)"></rect><text x="318" y="351" text-anchor="middle" alignment-baseline="middle" fill="black">=</text><rect x="298" y="297" width="40" height="20" fill="rgba(230,230,230,1)"></rect><text x="318" y="307" text-anchor="middle" alignment-baseline="middle" fill="black">=</text><rect x="320" y="275" width="40" height="20" fill="rgba(230,230,230,1)"></rect><text x="340" y="285" text-anchor="middle" alignment-baseline="middle" fill="black">=</text><rect x="320" y="231" width="40" height="20" fill="rgba(230,230,230,1)"></rect><text x="340" y="241" text-anchor="middle" alignment-baseline="middle" fill="black">=</text><rect x="320" y="187" width="40" height="20" fill="rgba(230,230,230,1)"></rect><text x="340" y="197" text-anchor="middle" alignment-baseline="middle" fill="black">=</text><rect x="298" y="143" width="40" height="20" fill="rgba(230,230,230,1)"></rect><text x="318" y="153" text-anchor="middle" alignment-baseline="middle" fill="black">=</text><rect x="298" y="77" width="40" height="20" fill="rgba(230,230,230,1)"></rect><text x="318" y="87" text-anchor="middle" alignment-baseline="middle" fill="black">=</text><rect x="342" y="99" width="40" height="20" fill="rgba(230,230,230,1)"></rect><text x="362" y="109" text-anchor="middle" alignment-baseline="middle" fill="black">=</text><rect x="342" y="143" width="40" height="20" fill="rgba(230,230,230,1)"></rect><text x="362" y="153" text-anchor="middle" alignment-baseline="middle" fill="black">=</text><rect x="77" y="187" width="20" height="20" fill="rgba(230,230,230,1)"></rect><text x="87" y="197" text-anchor="middle" alignment-baseline="middle" fill="black">C</text><rect x="77" y="165" width="20" height="20" fill="rgba(230,230,230,1)"></rect><text x="87" y="175" text-anchor="middle" alignment-baseline="middle" fill="black">L</text><rect x="253" y="253" width="40" height="40" fill="rgba(101,101,101,1)"></rect><text x="273" y="273" text-anchor="middle" alignment-baseline="middle" fill="black">SS</text><line x1="82" y1="192" x2="88" y2="126" stroke="red" stroke-width="1" /><line x1="82" y1="114" x2="88" y2="136" stroke="green" stroke-width="1" /><line x1="88" y1="148" x2="88" y2="126" stroke="red" stroke-width="1" /><line x1="88" y1="126" x2="88" y2="148" stroke="red" stroke-width="1" /><line x1="82" y1="246" x2="88" y2="158" stroke="green" stroke-width="1" /><line x1="88" y1="148" x2="88" y2="214" stroke="red" stroke-width="1" /><line x1="88" y1="214" x2="88" y2="148" stroke="red" stroke-width="1" /><line x1="82" y1="290" x2="88" y2="224" stroke="green" stroke-width="1" /><line x1="88" y1="214" x2="88" y2="258" stroke="red" stroke-width="1" /><line x1="88" y1="258" x2="88" y2="214" stroke="red" stroke-width="1" /><line x1="82" y1="334" x2="88" y2="268" stroke="green" stroke-width="1" /><line x1="88" y1="302" x2="88" y2="258" stroke="red" stroke-width="1" /><line x1="88" y1="258" x2="88" y2="302" stroke="red" stroke-width="1" /><line x1="82" y1="356" x2="88" y2="312" stroke="green" stroke-width="1" /><line x1="88" y1="302" x2="132" y2="346" stroke="red" stroke-width="1" /><line x1="132" y1="346" x2="88" y2="302" stroke="red" stroke-width="1" /><line x1="104" y1="334" x2="132" y2="356" stroke="green" stroke-width="1" /><line x1="132" y1="346" x2="132" y2="302" stroke="red" stroke-width="1" /><line x1="132" y1="302" x2="132" y2="346" stroke="red" stroke-width="1" /><line x1="126" y1="290" x2="132" y2="312" stroke="green" stroke-width="1" /><line x1="132" y1="258" x2="132" y2="302" stroke="red" stroke-width="1" /><line x1="132" y1="302" x2="132" y2="258" stroke="red" stroke-width="1" /><line x1="126" y1="246" x2="132" y2="268" stroke="green" stroke-width="1" /><line x1="132" y1="258" x2="132" y2="214" stroke="red" stroke-width="1" /><line x1="132" y1="214" x2="132" y2="258" stroke="red" stroke-width="1" /><line x1="126" y1="180" x2="132" y2="224" stroke="green" stroke-width="1" /><line x1="132" y1="192" x2="132" y2="214" stroke="red" stroke-width="1" /><line x1="132" y1="214" x2="132" y2="192" stroke="red" stroke-width="1" /><line x1="126" y1="136" x2="132" y2="202" stroke="green" stroke-width="1" /><line x1="132" y1="148" x2="132" y2="192" stroke="red" stroke-width="1" /><line x1="132" y1="192" x2="132" y2="148" stroke="red" stroke-width="1" /><line x1="126" y1="92" x2="132" y2="158" stroke="green" stroke-width="1" /><line x1="132" y1="104" x2="132" y2="148" stroke="red" stroke-width="1" /><line x1="132" y1="148" x2="132" y2="104" stroke="red" stroke-width="1" /><line x1="170" y1="114" x2="132" y2="114" stroke="green" stroke-width="1" /><line x1="132" y1="104" x2="176" y2="82" stroke="red" stroke-width="1" /><line x1="176" y1="82" x2="132" y2="104" stroke="red" stroke-width="1" /><line x1="170" y1="136" x2="176" y2="92" stroke="green" stroke-width="1" /><line x1="176" y1="82" x2="176" y2="148" stroke="red" stroke-width="1" /><line x1="176" y1="148" x2="176" y2="82" stroke="red" stroke-width="1" /><line x1="170" y1="180" x2="176" y2="158" stroke="green" stroke-width="1" /><line x1="176" y1="192" x2="176" y2="148" stroke="red" stroke-width="1" /><line x1="176" y1="148" x2="176" y2="192" stroke="red" stroke-width="1" /><line x1="170" y1="224" x2="176" y2="202" stroke="green" stroke-width="1" /><line x1="176" y1="192" x2="176" y2="236" stroke="red" stroke-width="1" /><line x1="176" y1="236" x2="176" y2="192" stroke="red" stroke-width="1" /><line x1="170" y1="268" x2="176" y2="246" stroke="green" stroke-width="1" /><line x1="176" y1="236" x2="176" y2="280" stroke="red" stroke-width="1" /><line x1="176" y1="280" x2="176" y2="236" stroke="red" stroke-width="1" /><line x1="148" y1="334" x2="176" y2="290" stroke="green" stroke-width="1" /><line x1="176" y1="302" x2="176" y2="280" stroke="red" stroke-width="1" /><line x1="176" y1="280" x2="176" y2="302" stroke="red" stroke-width="1" /><line x1="214" y1="356" x2="176" y2="312" stroke="green" stroke-width="1" /><line x1="176" y1="302" x2="176" y2="346" stroke="red" stroke-width="1" /><line x1="176" y1="346" x2="176" y2="302" stroke="red" stroke-width="1" /><line x1="214" y1="312" x2="176" y2="356" stroke="green" stroke-width="1" /><line x1="176" y1="346" x2="220" y2="324" stroke="red" stroke-width="1" /><line x1="220" y1="324" x2="176" y2="346" stroke="red" stroke-width="1" /><line x1="192" y1="268" x2="220" y2="334" stroke="green" stroke-width="1" /><line x1="220" y1="324" x2="220" y2="280" stroke="red" stroke-width="1" /><line x1="220" y1="280" x2="220" y2="324" stroke="red" stroke-width="1" /><line x1="214" y1="246" x2="220" y2="290" stroke="green" stroke-width="1" /><line x1="220" y1="280" x2="220" y2="214" stroke="red" stroke-width="1" /><line x1="220" y1="214" x2="220" y2="280" stroke="red" stroke-width="1" /><line x1="214" y1="202" x2="220" y2="224" stroke="green" stroke-width="1" /><line x1="220" y1="170" x2="220" y2="214" stroke="red" stroke-width="1" /><line x1="220" y1="214" x2="220" y2="170" stroke="red" stroke-width="1" /><line x1="214" y1="158" x2="220" y2="180" stroke="green" stroke-width="1" /><line x1="220" y1="170" x2="220" y2="126" stroke="red" stroke-width="1" /><line x1="220" y1="126" x2="220" y2="170" stroke="red" stroke-width="1" /><line x1="214" y1="114" x2="220" y2="136" stroke="green" stroke-width="1" /><line x1="220" y1="82" x2="220" y2="126" stroke="red" stroke-width="1" /><line x1="220" y1="126" x2="220" y2="82" stroke="red" stroke-width="1" /><line x1="236" y1="114" x2="220" y2="92" stroke="green" stroke-width="1" /><line x1="264" y1="82" x2="220" y2="82" stroke="red" stroke-width="1" /><line x1="220" y1="82" x2="264" y2="82" stroke="red" stroke-width="1" /><line x1="258" y1="158" x2="264" y2="92" stroke="green" stroke-width="1" /><line x1="264" y1="82" x2="264" y2="126" stroke="red" stroke-width="1" /><line x1="264" y1="126" x2="264" y2="82" stroke="red" stroke-width="1" /><line x1="258" y1="202" x2="264" y2="136" stroke="green" stroke-width="1" /><line x1="264" y1="170" x2="264" y2="126" stroke="red" stroke-width="1" /><line x1="264" y1="126" x2="264" y2="170" stroke="red" stroke-width="1" /><line x1="258" y1="246" x2="264" y2="180" stroke="green" stroke-width="1" /><line x1="264" y1="170" x2="264" y2="214" stroke="red" stroke-width="1" /><line x1="264" y1="214" x2="264" y2="170" stroke="red" stroke-width="1" /><line x1="236" y1="246" x2="264" y2="224" stroke="green" stroke-width="1" /><line x1="264" y1="214" x2="264" y2="302" stroke="red" stroke-width="1" /><line x1="264" y1="302" x2="264" y2="214" stroke="red" stroke-width="1" /><line x1="236" y1="312" x2="264" y2="312" stroke="green" stroke-width="1" /><line x1="264" y1="324" x2="264" y2="302" stroke="red" stroke-width="1" /><line x1="264" y1="302" x2="264" y2="324" stroke="red" stroke-width="1" /><line x1="258" y1="356" x2="264" y2="334" stroke="green" stroke-width="1" /><line x1="264" y1="324" x2="308" y2="346" stroke="red" stroke-width="1" /><line x1="308" y1="346" x2="264" y2="324" stroke="red" stroke-width="1" /><line x1="302" y1="334" x2="308" y2="356" stroke="green" stroke-width="1" /><line x1="308" y1="346" x2="308" y2="302" stroke="red" stroke-width="1" /><line x1="308" y1="302" x2="308" y2="346" stroke="red" stroke-width="1" /><line x1="302" y1="268" x2="308" y2="312" stroke="green" stroke-width="1" /><line x1="330" y1="280" x2="308" y2="302" stroke="red" stroke-width="1" /><line x1="308" y1="302" x2="330" y2="280" stroke="red" stroke-width="1" /><line x1="302" y1="224" x2="330" y2="290" stroke="green" stroke-width="1" /><line x1="330" y1="280" x2="330" y2="236" stroke="red" stroke-width="1" /><line x1="330" y1="236" x2="330" y2="280" stroke="red" stroke-width="1" /><line x1="302" y1="180" x2="330" y2="246" stroke="green" stroke-width="1" /><line x1="330" y1="192" x2="330" y2="236" stroke="red" stroke-width="1" /><line x1="330" y1="236" x2="330" y2="192" stroke="red" stroke-width="1" /><line x1="302" y1="136" x2="330" y2="202" stroke="green" stroke-width="1" /><line x1="308" y1="148" x2="330" y2="192" stroke="red" stroke-width="1" /><line x1="330" y1="192" x2="308" y2="148" stroke="red" stroke-width="1" /><line x1="302" y1="114" x2="308" y2="158" stroke="green" stroke-width="1" /><line x1="308" y1="148" x2="308" y2="82" stroke="red" stroke-width="1" /><line x1="308" y1="82" x2="308" y2="148" stroke="red" stroke-width="1" /><line x1="346" y1="92" x2="308" y2="92" stroke="green" stroke-width="1" /><line x1="352" y1="104" x2="308" y2="82" stroke="red" stroke-width="1" /><line x1="308" y1="82" x2="352" y2="104" stroke="red" stroke-width="1" /><line x1="324" y1="136" x2="352" y2="114" stroke="green" stroke-width="1" /><line x1="352" y1="104" x2="352" y2="148" stroke="red" stroke-width="1" /><line x1="352" y1="148" x2="352" y2="104" stroke="red" stroke-width="1" /><line x1="346" y1="180" x2="352" y2="158" stroke="green" stroke-width="1" /><line x1="108" y1="126" x2="108" y2="148" stroke="red" stroke-width="1" /><line x1="108" y1="148" x2="108" y2="126" stroke="red" stroke-width="1" /><line x1="108" y1="148" x2="108" y2="214" stroke="red" stroke-width="1" /><line x1="108" y1="214" x2="108" y2="148" stroke="red" stroke-width="1" /><line x1="108" y1="214" x2="108" y2="258" stroke="red" stroke-width="1" /><line x1="108" y1="258" x2="108" y2="214" stroke="red" stroke-width="1" /><line x1="108" y1="302" x2="108" y2="258" stroke="red" stroke-width="1" /><line x1="108" y1="258" x2="108" y2="302" stroke="red" stroke-width="1" /><line x1="152" y1="346" x2="108" y2="302" stroke="red" stroke-width="1" /><line x1="108" y1="302" x2="152" y2="346" stroke="red" stroke-width="1" /><line x1="152" y1="302" x2="152" y2="346" stroke="red" stroke-width="1" /><line x1="152" y1="346" x2="152" y2="302" stroke="red" stroke-width="1" /><line x1="152" y1="258" x2="152" y2="302" stroke="red" stroke-width="1" /><line x1="152" y1="302" x2="152" y2="258" stroke="red" stroke-width="1" /><line x1="152" y1="214" x2="152" y2="258" stroke="red" stroke-width="1" /><line x1="152" y1="258" x2="152" y2="214" stroke="red" stroke-width="1" /><line x1="152" y1="192" x2="152" y2="214" stroke="red" stroke-width="1" /><line x1="152" y1="214" x2="152" y2="192" stroke="red" stroke-width="1" /><line x1="152" y1="148" x2="152" y2="192" stroke="red" stroke-width="1" /><line x1="152" y1="192" x2="152" y2="148" stroke="red" stroke-width="1" /><line x1="152" y1="148" x2="152" y2="104" stroke="red" stroke-width="1" /><line x1="152" y1="104" x2="152" y2="148" stroke="red" stroke-width="1" /><line x1="196" y1="82" x2="152" y2="104" stroke="red" stroke-width="1" /><line x1="152" y1="104" x2="196" y2="82" stroke="red" stroke-width="1" /><line x1="196" y1="148" x2="196" y2="82" stroke="red" stroke-width="1" /><line x1="196" y1="82" x2="196" y2="148" stroke="red" stroke-width="1" /><line x1="196" y1="192" x2="196" y2="148" stroke="red" stroke-width="1" /><line x1="196" y1="148" x2="196" y2="192" stroke="red" stroke-width="1" /><line x1="196" y1="192" x2="196" y2="236" stroke="red" stroke-width="1" /><line x1="196" y1="236" x2="196" y2="192" stroke="red" stroke-width="1" /><line x1="196" y1="236" x2="196" y2="280" stroke="red" stroke-width="1" /><line x1="196" y1="280" x2="196" y2="236" stroke="red" stroke-width="1" /><line x1="196" y1="302" x2="196" y2="280" stroke="red" stroke-width="1" /><line x1="196" y1="280" x2="196" y2="302" stroke="red" stroke-width="1" /><line x1="196" y1="302" x2="196" y2="346" stroke="red" stroke-width="1" /><line x1="196" y1="346" x2="196" y2="302" stroke="red" stroke-width="1" /><line x1="196" y1="346" x2="240" y2="324" stroke="red" stroke-width="1" /><line x1="240" y1="324" x2="196" y2="346" stroke="red" stroke-width="1" /><line x1="240" y1="324" x2="240" y2="280" stroke="red" stroke-width="1" /><line x1="240" y1="280" x2="240" y2="324" stroke="red" stroke-width="1" /><line x1="240" y1="214" x2="240" y2="280" stroke="red" stroke-width="1" /><line x1="240" y1="280" x2="240" y2="214" stroke="red" stroke-width="1" /><line x1="240" y1="170" x2="240" y2="214" stroke="red" stroke-width="1" /><line x1="240" y1="214" x2="240" y2="170" stroke="red" stroke-width="1" /><line x1="240" y1="170" x2="240" y2="126" stroke="red" stroke-width="1" /><line x1="240" y1="126" x2="240" y2="170" stroke="red" stroke-width="1" /><line x1="240" y1="82" x2="240" y2="126" stroke="red" stroke-width="1" /><line x1="240" y1="126" x2="240" y2="82" stroke="red" stroke-width="1" /><line x1="240" y1="82" x2="284" y2="82" stroke="red" stroke-width="1" /><line x1="284" y1="82" x2="240" y2="82" stroke="red" stroke-width="1" /><line x1="284" y1="82" x2="284" y2="126" stroke="red" stroke-width="1" /><line x1="284" y1="126" x2="284" y2="82" stroke="red" stroke-width="1" /><line x1="284" y1="126" x2="284" y2="170" stroke="red" stroke-width="1" /><line x1="284" y1="170" x2="284" y2="126" stroke="red" stroke-width="1" /><line x1="284" y1="170" x2="284" y2="214" stroke="red" stroke-width="1" /><line x1="284" y1="214" x2="284" y2="170" stroke="red" stroke-width="1" /><line x1="284" y1="302" x2="284" y2="214" stroke="red" stroke-width="1" /><line x1="284" y1="214" x2="284" y2="302" stroke="red" stroke-width="1" /><line x1="284" y1="302" x2="284" y2="324" stroke="red" stroke-width="1" /><line x1="284" y1="324" x2="284" y2="302" stroke="red" stroke-width="1" /><line x1="284" y1="324" x2="328" y2="346" stroke="red" stroke-width="1" /><line x1="328" y1="346" x2="284" y2="324" stroke="red" stroke-width="1" /><line x1="328" y1="302" x2="328" y2="346" stroke="red" stroke-width="1" /><line x1="328" y1="346" x2="328" y2="302" stroke="red" stroke-width="1" /><line x1="350" y1="280" x2="328" y2="302" stroke="red" stroke-width="1" /><line x1="328" y1="302" x2="350" y2="280" stroke="red" stroke-width="1" /><line x1="350" y1="280" x2="350" y2="236" stroke="red" stroke-width="1" /><line x1="350" y1="236" x2="350" y2="280" stroke="red" stroke-width="1" /><line x1="350" y1="192" x2="350" y2="236" stroke="red" stroke-width="1" /><line x1="350" y1="236" x2="350" y2="192" stroke="red" stroke-width="1" /><line x1="350" y1="192" x2="328" y2="148" stroke="red" stroke-width="1" /><line x1="328" y1="148" x2="350" y2="192" stroke="red" stroke-width="1" /><line x1="328" y1="82" x2="328" y2="148" stroke="red" stroke-width="1" /><line x1="328" y1="148" x2="328" y2="82" stroke="red" stroke-width="1" /><line x1="328" y1="82" x2="372" y2="104" stroke="red" stroke-width="1" /><line x1="372" y1="104" x2="328" y2="82" stroke="red" stroke-width="1" /><line x1="372" y1="104" x2="372" y2="148" stroke="red" stroke-width="1" /><line x1="372" y1="148" x2="372" y2="104" stroke="red" stroke-width="1" /><line x1="108" y1="126" x2="82" y2="170" stroke="red" stroke-width="1" /></svg>