<svg xmlns="http://www.w3.org/2000/svg" width="358" height="337"><rect x="0" y="0" width="358" height="337" fill="rgb(255,255,255)"></rect><rect x="0" y="0" width="320" height="300" fill="rgba(255,255,255,1)"></rect><rect x="33" y="55" width="20" height="20" fill="rgba(230,230,230,1)"></rect><text x="43" y="65" text-anchor="middle" alignment-baseline="middle" fill="black">C</text><rect x="33" y="187" width="20" height="20" fill="rgba(230,230,230,1)"></rect><text x="43" y="197" text-anchor="middle" alignment-baseline="middle" fill="black">C</text><rect x="33" y="231" width="20" height="20" fill="rgba(230,230,230,1)"></rect><text x="43" y="241" text-anchor="middle" alignment-baseline="middle" fill="black">C</text><rect x="33" y="275" width="20" height="20" fill="rgba(230,230,230,1)"></rect><text x="43" y="285" text-anchor="middle" alignment-baseline="middle" fill="black">C</text><rect x="33" y="297" width="20" height="20" fill="rgba(230,230,230,1)"></rect><text x="43" y="307" text-anchor="middle" alignment-baseline="middle" fill="black">C</text><rect x="55" y="275" width="20" height="20" fill="rgba(230,230,230,1)"></rect><text x="65" y="285" text-anchor="middle" alignment-baseline="middle" fill="black">C</text><rect x="77" y="231" width="20" height="20" fill="rgba(230,230,230,1)"></rect><text x="87" y="241" text-anchor="middle" alignment-baseline="middle" fill="black">C</text><rect x="77" y="187" width="20" height="20" fill="rgba(230,230,230,1)"></rect><text x="87" y="197" text-anchor="middle" alignment-baseline="middle" fill="black">C</text><rect x="77" y="121" width="20" height="20" fill="rgba(230,230,230,1)"></rect><text x="87" y="131" text-anchor="middle" alignment-baseline="middle" fill="black">C</text><rect x="77" y="77" width="20" height="20" fill="rgba(230,230,230,1)"></rect><text x="87" y="87" text-anchor="middle" alignment-baseline="middle" fill="black">C</text><rect x="77" y="33" width="20" height="20" fill="rgba(230,230,230,1)"></rect><text x="87" y="43" text-anchor="middle" alignment-baseline="middle" fill="black">C</text><rect x="121" y="55" width="20" height="20" fill="rgba(230,230,230,1)"></rect><text x="131" y="65" text-anchor="middle" alignment-baseline="middle" fill="black">C</text><rect x="121" y="77" width="20" height="20" fill="rgba(230,230,230,1)"></rect><text x="131" y="87" text-anchor="middle" alignment-baseline="middle" fill="black">C</text><rect x="121" y="121" width="20" height="20" fill="rgba(230,230,230,1)"></rect><text x="131" y="131" text-anchor="middle" alignment-baseline="middle" fill="black">C</text><rect x="121" y="165" width="20" height="20" fill="rgba(230,230,230,1)"></rect><text x="131" y="175" text-anchor="middle" alignment-baseline="middle" fill="black">C</text><rect x="121" y="209" width="20" height="20" fill="rgba(230,230,230,1)"></rect><text x="131" y="219" text-anchor="middle" alignment-baseline="middle" fill="black">C</text><rect x="99" y="275" width="20" height="20" fill="rgba(230,230,230,1)"></rect><text x="109" y="285" text-anchor="middle" alignment-baseline="middle" fill="black">C</text><rect x="165" y="297" width="20" height="20" fill="rgba(230,230,230,1)"></rect><text x="175" y="307" text-anchor="middle" alignment-baseline="middle" fill="black">C</text><rect x="165" y="253" width="20" height="20" fill="rgba(230,230,230,1)"></rect><text x="175" y="263" text-anchor="middle" alignment-baseline="middle" fill="black">C</text><rect x="143" y="209" width="20" height="20" fill="rgba(230,230,230,1)"></rect><text x="153" y="219" text-anchor="middle" alignment-baseline="middle" fill="black">C</text><rect x="165" y="187" width="20" height="20" fill="rgba(230,230,230,1)"></rect><text x="175" y="197" text-anchor="middle" alignment-baseline="middle" fill="black">C</text><rect x="165" y="143" width="20" height="20" fill="rgba(230,230,230,1)"></rect><text x="175" y="153" text-anchor="middle" alignment-baseline="middle" fill="black">C</text><rect x="165" y="99" width="20" height="20" fill="rgba(230,230,230,1)"></rect><text x="175" y="109" text-anchor="middle" alignment-baseline="middle" fill="black">C</text><rect x="165" y="55" width="20" height="20" fill="rgba(230,230,230,1)"></rect><text x="175" y="65" text-anchor="middle" alignment-baseline="middle" fill="black">C</text><rect x="187" y="55" width="20" height="20" fill="rgba(230,230,230,1)"></rect><text x="197" y="65" text-anchor="middle" alignment-baseline="middle" fill="black">C</text><rect x="209" y="99" width="20" height="20" fill="rgba(230,230,230,1)"></rect><text x="219" y="109" text-anchor="middle" alignment-baseline="middle" fill="black">C</text><rect x="209" y="143" width="20" height="20" fill="rgba(230,230,230,1)"></rect><text x="219" y="153" text-anchor="middle" alignment-baseline="middle" fill="black">C</text><rect x="209" y="187" width="20" height="20" fill="rgba(230,230,230,1)"></rect><text x="219" y="197" text-anchor="middle" alignment-baseline="middle" fill="black">C</text><rect x="187" y="187" width="20" height="20" fill="rgba(230,230,230,1)"></rect><text x="197" y="197" text-anchor="middle" alignment-baseline="middle" fill="black">C</text><rect x="187" y="253" width="20" height="20" fill="rgba(230,230,230,1)"></rect><text x="197" y="263" text-anchor="middle" alignment-baseline="middle" fill="black">C</text><rect x="209" y="297" width="20" height="20" fill="rgba(230,230,230,1)"></rect><text x="219" y="307" text-anchor="middle" alignment-baseline="middle" fill="black">C</text><rect x="253" y="275" width="20" height="20" fill="rgba(230,230,230,1)"></rect><text x="263" y="285" text-anchor="middle" alignment-baseline="middle" fill="black">C</text><rect x="253" y="209" width="20" height="20" fill="rgba(230,230,230,1)"></rect><text x="263" y="219" text-anchor="middle" alignment-baseline="middle" fill="black">C</text><rect x="253" y="165" width="20" height="20" fill="rgba(230,230,230,1)"></rect><text x="263" y="175" text-anchor="middle" alignment-baseline="middle" fill="black">C</text><rect x="253" y="121" width="20" height="20" fill="rgba(230,230,230,1)"></rect><text x="263" y="131" text-anchor="middle" alignment-baseline="middle" fill="black">C</text><rect x="253" y="77" width="20" height="20" fill="rgba(230,230,230,1)"></rect><text x="263" y="87" text-anchor="middle" alignment-baseline="middle" fill="black">C</text><rect x="253" y="55" width="20" height="20" fill="rgba(230,230,230,1)"></rect><text x="263" y="65" text-anchor="middle" alignment-baseline="middle" fill="black">C</text><rect x="297" y="33" width="20" height="20" fill="rgba(230,230,230,1)"></rect><text x="307" y="43" text-anchor="middle" alignment-baseline="middle" fill="black">C</text><rect x="275" y="77" width="20" height="20" fill="rgba(230,230,230,1)"></rect><text x="285" y="87" text-anchor="middle" alignment-baseline="middle" fill="black">C</text><rect x="297" y="121" width="20" height="20" fill="rgba(230,230,230,1)"></rect><text x="307" y="131" text-anchor="middle" alignment-baseline="middle" fill="black">C</text><rect x="34" y="77" width="40" height="20" fill="rgba(230,230,230,1)"></rect><text x="54" y="87" text-anchor="middle" alignment-baseline="middle" fill="black">=</text><rect x="34" y="99" width="40" height="20" fill="rgba(230,230,230,1)"></rect><text x="54" y="109" text-anchor="middle" alignment-baseline="middle" fill="black">=</text><rect x="34" y="165" width="40" height="20" fill="rgba(230,230,230,1)"></rect><text x="54" y="175" text-anchor="middle" alignment-baseline="middle" fill="black">=</text><rect x="34" y="209" width="40" height="20" fill="rgba(230,230,230,1)"></rect><text x="54" y="219" text-anchor="middle" alignment-baseline="middle" fill="black">=</text><rect x="34" y="253" width="40" height="20" fill="rgba(230,230,230,1)"></rect><text x="54" y="263" text-anchor="middle" alignment-baseline="middle" fill="black">=</text><rect x="78" y="297" width="40" height="20" fill="rgba(230,230,230,1)"></rect><text x="98" y="307" text-anchor="middle" alignment-baseline="middle" fill="black">=</text><rect x="78" y="253" width="40" height="20" fill="rgba(230,230,230,1)"></rect><text x="98" y="263" text-anchor="middle" alignment-baseline="middle" fill="black">=</text><rect x="78" y="209" width="40" height="20" fill="rgba(230,230,230,1)"></rect><text x="98" y="219" text-anchor="middle" alignment-baseline="middle" fill="black">=</text><rect x="78" y="165" width="40" height="20" fill="rgba(230,230,230,1)"></rect><text x="98" y="175" text-anchor="middle" alignment-baseline="middle" fill="black">=</text><rect x="78" y="143" width="40" height="20" fill="rgba(230,230,230,1)"></rect><text x="98" y="153" text-anchor="middle" alignment-baseline="middle" fill="black">=</text><rect x="78" y="99" width="40" height="20" fill="rgba(230,230,230,1)"></rect><text x="98" y="109" text-anchor="middle" alignment-baseline="middle" fill="black">=</text><rect x="78" y="55" width="40" height="20" fill="rgba(230,230,230,1)"></rect><text x="98" y="65" text-anchor="middle" alignment-baseline="middle" fill="black">=</text><rect x="122" y="33" width="40" height="20" fill="rgba(230,230,230,1)"></rect><text x="142" y="43" text-anchor="middle" alignment-baseline="middle" fill="black">=</text><rect x="122" y="99" width="40" height="20" fill="rgba(230,230,230,1)"></rect><text x="142" y="109" text-anchor="middle" alignment-baseline="middle" fill="black">=</text><rect x="122" y="143" width="40" height="20" fill="rgba(230,230,230,1)"></rect><text x="142" y="153" text-anchor="middle" alignment-baseline="middle" fill="black">=</text><rect x="122" y="187" width="40" height="20" fill="rgba(230,230,230,1)"></rect><text x="142" y="197" text-anchor="middle" alignment-baseline="middle" fill="black">=</text><rect x="122" y="231" width="40" height="20" fill="rgba(230,230,230,1)"></rect><text x="142" y="241" text-anchor="middle" alignment-baseline="middle" fill="black">=</text><rect x="122" y="253" width="40" height="20" fill="rgba(230,230,230,1)"></rect><text x="142" y="263" text-anchor="middle" alignment-baseline="middle" fill="black">=</text><rect x="122" y="297" width="40" height="20" fill="rgba(230,230,230,1)"></rect><text x="142" y="307" text-anchor="middle" alignment-baseline="middle" fill="black">=</text><rect x="166" y="275" width="40" height="20" fill="rgba(230,230,230,1)"></rect><text x="186" y="285" text-anchor="middle" alignment-baseline="middle" fill="black">=</text><rect x="166" y="231" width="40" height="20" fill="rgba(230,230,230,1)"></rect><text x="186" y="241" text-anchor="middle" alignment-baseline="middle" fill="black">=</text><rect x="166" y="165" width="40" height="20" fill="rgba(230,230,230,1)"></rect><text x="186" y="175" text-anchor="middle" alignment-baseline="middle" fill="black">=</text><rect x="166" y="121" width="40" height="20" fill="rgba(230,230,230,1)"></rect><text x="186" y="131" text-anchor="middle" alignment-baseline="middle" fill="black">=</text><rect x="166" y="77" width="40" height="20" fill="rgba(230,230,230,1)"></rect><text x="186" y="87" text-anchor="middle" alignment-baseline="middle" fill="black">=</text><rect x="166" y="33" width="40" height="20" fill="rgba(230,230,230,1)"></rect><text x="186" y="43" text-anchor="middle" alignment-baseline="middle" fill="black">=</text><rect x="210" y="33" width="40" height="20" fill="rgba(230,230,230,1)"></rect><text x="230" y="43" text-anchor="middle" alignment-baseline="middle" fill="black">=</text><rect x="210" y="77" width="40" height="20" fill="rgba(230,230,230,1)"></rect><text x="230" y="87" text-anchor="middle" alignment-baseline="middle" fill="black">=</text><rect x="210" y="121" width="40" height="20" fill="rgba(230,230,230,1)"></rect><text x="230" y="131" text-anchor="middle" alignment-baseline="middle" fill="black">=</text><rect x="210" y="165" width="40" height="20" fill="rgba(230,230,230,1)"></rect><text x="230" y="175" text-anchor="middle" alignment-baseline="middle" fill="black">=</text><rect x="210" y="253" width="40" height="20" fill="rgba(230,230,230,1)"></rect><text x="230" y="263" text-anchor="middle" alignment-baseline="middle" fill="black">=</text><rect x="210" y="275" width="40" height="20" fill="rgba(230,230,230,1)"></rect><text x="230" y="285" text-anchor="middle" alignment-baseline="middle" fill="black">=</text><rect x="254" y="297" width="40" height="20" fill="rgba(230,230,230,1)"></rect><text x="274" y="307" text-anchor="middle" alignment-baseline="middle" fill="black">=</text><rect x="254" y="253" width="40" height="20" fill="rgba(230,230,230,1)"></rect><text x="274" y="263" text-anchor="middle" alignment-baseline="middle" fill="black">=</text><rect x="276" y="231" width="40" height="20" fill="rgba(230,230,230,1)"></rect><text x="296" y="241" text-anchor="middle" alignment-baseline="middle" fill="black">=</text><rect x="276" y="187" width="40" height="20" fill="rgba(230,230,230,1)"></rect><text x="296" y="197" text-anchor="middle" alignment-baseline="middle" fill="black">=</text><rect x="276" y="143" width="40" height="20" fill="rgba(230,230,230,1)"></rect><text x="296" y="153" text-anchor="middle" alignment-baseline="middle" fill="black">=</text><rect x="254" y="99" width="40" height="20" fill="rgba(230,230,230,1)"></rect><text x="274" y="109" text-anchor="middle" alignment-baseline="middle" fill="black">=</text><rect x="254" y="33" width="40" height="20" fill="rgba(230,230,230,1)"></rect><text x="274" y="43" text-anchor="middle" alignment-baseline="middle" fill="black">=</text><rect x="298" y="55" width="40" height="20" fill="rgba(230,230,230,1)"></rect><text x="318" y="65" text-anchor="middle" alignment-baseline="middle" fill="black">=</text><rect x="298" y="99" width="40" height="20" fill="rgba(230,230,230,1)"></rect><text x="318" y="109" text-anchor="middle" alignment-baseline="middle" fill="black">=</text><rect x="33" y="143" width="20" height="20" fill="rgba(230,230,230,1)"></rect><text x="43" y="153" text-anchor="middle" alignment-baseline="middle" fill="black">C</text><rect x="33" y="121" width="20" height="20" fill="rgba(230,230,230,1)"></rect><text x="43" y="131" text-anchor="middle" alignment-baseline="middle" fill="black">L</text><rect x="209" y="209" width="40" height="40" fill="rgba(101,101,101,1)"></rect><text x="229" y="229" text-anchor="middle" alignment-baseline="middle" fill="black">SS</text><line x1="38" y1="148" x2="44" y2="82" stroke="red" stroke-width="1" /><line x1="38" y1="70" x2="44" y2="92" stroke="green" stroke-width="1" /><line x1="44" y1="82" x2="44" y2="104" stroke="red" stroke-width="1" /><line x1="44" y1="104" x2="44" y2="82" stroke="red" stroke-width="1" /><line x1="38" y1="202" x2="44" y2="114" stroke="green" stroke-width="1" /><line x1="44" y1="104" x2="44" y2="170" stroke="red" stroke-width="1" /><line x1="44" y1="170" x2="44" y2="104" stroke="red" stroke-width="1" /><line x1="38" y1="246" x2="44" y2="180" stroke="green" stroke-width="1" /><line x1="44" y1="214" x2="44" y2="170" stroke="red" stroke-width="1" /><line x1="44" y1="170" x2="44" y2="214" stroke="red" stroke-width="1" /><line x1="38" y1="290" x2="44" y2="224" stroke="green" stroke-width="1" /><line x1="44" y1="214" x2="44" y2="258" stroke="red" stroke-width="1" /><line x1="44" y1="258" x2="44" y2="214" stroke="red" stroke-width="1" /><line x1="38" y1="312" x2="44" y2="268" stroke="green" stroke-width="1" /><line x1="88" y1="302" x2="44" y2="258" stroke="red" stroke-width="1" /><line x1="44" y1="258" x2="88" y2="302" stroke="red" stroke-width="1" /><line x1="60" y1="290" x2="88" y2="312" stroke="green" stroke-width="1" /><line x1="88" y1="302" x2="88" y2="258" stroke="red" stroke-width="1" /><line x1="88" y1="258" x2="88" y2="302" stroke="red" stroke-width="1" /><line x1="82" y1="246" x2="88" y2="268" stroke="green" stroke-width="1" /><line x1="88" y1="214" x2="88" y2="258" stroke="red" stroke-width="1" /><line x1="88" y1="258" x2="88" y2="214" stroke="red" stroke-width="1" /><line x1="82" y1="202" x2="88" y2="224" stroke="green" stroke-width="1" /><line x1="88" y1="214" x2="88" y2="170" stroke="red" stroke-width="1" /><line x1="88" y1="170" x2="88" y2="214" stroke="red" stroke-width="1" /><line x1="82" y1="136" x2="88" y2="180" stroke="green" stroke-width="1" /><line x1="88" y1="148" x2="88" y2="170" stroke="red" stroke-width="1" /><line x1="88" y1="170" x2="88" y2="148" stroke="red" stroke-width="1" /><line x1="82" y1="92" x2="88" y2="158" stroke="green" stroke-width="1" /><line x1="88" y1="104" x2="88" y2="148" stroke="red" stroke-width="1" /><line x1="88" y1="148" x2="88" y2="104" stroke="red" stroke-width="1" /><line x1="82" y1="48" x2="88" y2="114" stroke="green" stroke-width="1" /><line x1="88" y1="104" x2="88" y2="60" stroke="red" stroke-width="1" /><line x1="88" y1="60" x2="88" y2="104" stroke="red" stroke-width="1" /><line x1="126" y1="70" x2="88" y2="70" stroke="green" stroke-width="1" /><line x1="132" y1="38" x2="88" y2="60" stroke="red" stroke-width="1" /><line x1="88" y1="60" x2="132" y2="38" stroke="red" stroke-width="1" /><line x1="126" y1="92" x2="132" y2="48" stroke="green" stroke-width="1" /><line x1="132" y1="104" x2="132" y2="38" stroke="red" stroke-width="1" /><line x1="132" y1="38" x2="132" y2="104" stroke="red" stroke-width="1" /><line x1="126" y1="136" x2="132" y2="114" stroke="green" stroke-width="1" /><line x1="132" y1="104" x2="132" y2="148" stroke="red" stroke-width="1" /><line x1="132" y1="148" x2="132" y2="104" stroke="red" stroke-width="1" /><line x1="126" y1="180" x2="132" y2="158" stroke="green" stroke-width="1" /><line x1="132" y1="148" x2="132" y2="192" stroke="red" stroke-width="1" /><line x1="132" y1="192" x2="132" y2="148" stroke="red" stroke-width="1" /><line x1="126" y1="224" x2="132" y2="202" stroke="green" stroke-width="1" /><line x1="132" y1="192" x2="132" y2="236" stroke="red" stroke-width="1" /><line x1="132" y1="236" x2="132" y2="192" stroke="red" stroke-width="1" /><line x1="104" y1="290" x2="132" y2="246" stroke="green" stroke-width="1" /><line x1="132" y1="236" x2="132" y2="258" stroke="red" stroke-width="1" /><line x1="132" y1="258" x2="132" y2="236" stroke="red" stroke-width="1" /><line x1="170" y1="312" x2="132" y2="268" stroke="green" stroke-width="1" /><line x1="132" y1="258" x2="132" y2="302" stroke="red" stroke-width="1" /><line x1="132" y1="302" x2="132" y2="258" stroke="red" stroke-width="1" /><line x1="170" y1="268" x2="132" y2="312" stroke="green" stroke-width="1" /><line x1="132" y1="302" x2="176" y2="280" stroke="red" stroke-width="1" /><line x1="176" y1="280" x2="132" y2="302" stroke="red" stroke-width="1" /><line x1="148" y1="224" x2="176" y2="290" stroke="green" stroke-width="1" /><line x1="176" y1="236" x2="176" y2="280" stroke="red" stroke-width="1" /><line x1="176" y1="280" x2="176" y2="236" stroke="red" stroke-width="1" /><line x1="170" y1="202" x2="176" y2="246" stroke="green" stroke-width="1" /><line x1="176" y1="170" x2="176" y2="236" stroke="red" stroke-width="1" /><line x1="176" y1="236" x2="176" y2="170" stroke="red" stroke-width="1" /><line x1="170" y1="158" x2="176" y2="180" stroke="green" stroke-width="1" /><line x1="176" y1="170" x2="176" y2="126" stroke="red" stroke-width="1" /><line x1="176" y1="126" x2="176" y2="170" stroke="red" stroke-width="1" /><line x1="170" y1="114" x2="176" y2="136" stroke="green" stroke-width="1" /><line x1="176" y1="82" x2="176" y2="126" stroke="red" stroke-width="1" /><line x1="176" y1="126" x2="176" y2="82" stroke="red" stroke-width="1" /><line x1="170" y1="70" x2="176" y2="92" stroke="green" stroke-width="1" /><line x1="176" y1="82" x2="176" y2="38" stroke="red" stroke-width="1" /><line x1="176" y1="38" x2="176" y2="82" stroke="red" stroke-width="1" /><line x1="192" y1="70" x2="176" y2="48" stroke="green" stroke-width="1" /><line x1="176" y1="38" x2="220" y2="38" stroke="red" stroke-width="1" /><line x1="220" y1="38" x2="176" y2="38" stroke="red" stroke-width="1" /><line x1="214" y1="114" x2="220" y2="48" stroke="green" stroke-width="1" /><line x1="220" y1="82" x2="220" y2="38" stroke="red" stroke-width="1" /><line x1="220" y1="38" x2="220" y2="82" stroke="red" stroke-width="1" /><line x1="214" y1="158" x2="220" y2="92" stroke="green" stroke-width="1" /><line x1="220" y1="126" x2="220" y2="82" stroke="red" stroke-width="1" /><line x1="220" y1="82" x2="220" y2="126" stroke="red" stroke-width="1" /><line x1="214" y1="202" x2="220" y2="136" stroke="green" stroke-width="1" /><line x1="220" y1="170" x2="220" y2="126" stroke="red" stroke-width="1" /><line x1="220" y1="126" x2="220" y2="170" stroke="red" stroke-width="1" /><line x1="192" y1="202" x2="220" y2="180" stroke="green" stroke-width="1" /><line x1="220" y1="170" x2="220" y2="258" stroke="red" stroke-width="1" /><line x1="220" y1="258" x2="220" y2="170" stroke="red" stroke-width="1" /><line x1="192" y1="268" x2="220" y2="268" stroke="green" stroke-width="1" /><line x1="220" y1="280" x2="220" y2="258" stroke="red" stroke-width="1" /><line x1="220" y1="258" x2="220" y2="280" stroke="red" stroke-width="1" /><line x1="214" y1="312" x2="220" y2="290" stroke="green" stroke-width="1" /><line x1="264" y1="302" x2="220" y2="280" stroke="red" stroke-width="1" /><line x1="220" y1="280" x2="264" y2="302" stroke="red" stroke-width="1" /><line x1="258" y1="290" x2="264" y2="312" stroke="green" stroke-width="1" /><line x1="264" y1="302" x2="264" y2="258" stroke="red" stroke-width="1" /><line x1="264" y1="258" x2="264" y2="302" stroke="red" stroke-width="1" /><line x1="258" y1="224" x2="264" y2="268" stroke="green" stroke-width="1" /><line x1="286" y1="236" x2="264" y2="258" stroke="red" stroke-width="1" /><line x1="264" y1="258" x2="286" y2="236" stroke="red" stroke-width="1" /><line x1="258" y1="180" x2="286" y2="246" stroke="green" stroke-width="1" /><line x1="286" y1="192" x2="286" y2="236" stroke="red" stroke-width="1" /><line x1="286" y1="236" x2="286" y2="192" stroke="red" stroke-width="1" /><line x1="258" y1="136" x2="286" y2="202" stroke="green" stroke-width="1" /><line x1="286" y1="192" x2="286" y2="148" stroke="red" stroke-width="1" /><line x1="286" y1="148" x2="286" y2="192" stroke="red" stroke-width="1" /><line x1="258" y1="92" x2="286" y2="158" stroke="green" stroke-width="1" /><line x1="264" y1="104" x2="286" y2="148" stroke="red" stroke-width="1" /><line x1="286" y1="148" x2="264" y2="104" stroke="red" stroke-width="1" /><line x1="258" y1="70" x2="264" y2="114" stroke="green" stroke-width="1" /><line x1="264" y1="38" x2="264" y2="104" stroke="red" stroke-width="1" /><line x1="264" y1="104" x2="264" y2="38" stroke="red" stroke-width="1" /><line x1="302" y1="48" x2="264" y2="48" stroke="green" stroke-width="1" /><line x1="308" y1="60" x2="264" y2="38" stroke="red" stroke-width="1" /><line x1="264" y1="38" x2="308" y2="60" stroke="red" stroke-width="1" /><line x1="280" y1="92" x2="308" y2="70" stroke="green" stroke-width="1" /><line x1="308" y1="104" x2="308" y2="60" stroke="red" stroke-width="1" /><line x1="308" y1="60" x2="308" y2="104" stroke="red" stroke-width="1" /><line x1="302" y1="136" x2="308" y2="114" stroke="green" stroke-width="1" /><line x1="64" y1="104" x2="64" y2="82" stroke="red" stroke-width="1" /><line x1="64" y1="82" x2="64" y2="104" stroke="red" stroke-width="1" /><line x1="64" y1="170" x2="64" y2="104" stroke="red" stroke-width="1" /><line x1="64" y1="104" x2="64" y2="170" stroke="red" stroke-width="1" /><line x1="64" y1="214" x2="64" y2="170" stroke="red" stroke-width="1" /><line x1="64" y1="170" x2="64" y2="214" stroke="red" stroke-width="1" /><line x1="64" y1="214" x2="64" y2="258" stroke="red" stroke-width="1" /><line x1="64" y1="258" x2="64" y2="214" stroke="red" stroke-width="1" /><line x1="108" y1="302" x2="64" y2="258" stroke="red" stroke-width="1" /><line x1="64" y1="258" x2="108" y2="302" stroke="red" stroke-width="1" /><line x1="108" y1="258" x2="108" y2="302" stroke="red" stroke-width="1" /><line x1="108" y1="302" x2="108" y2="258" stroke="red" stroke-width="1" /><line x1="108" y1="258" x2="108" y2="214" stroke="red" stroke-width="1" /><line x1="108" y1="214" x2="108" y2="258" stroke="red" stroke-width="1" /><line x1="108" y1="170" x2="108" y2="214" stroke="red" stroke-width="1" /><line x1="108" y1="214" x2="108" y2="170" stroke="red" stroke-width="1" /><line x1="108" y1="170" x2="108" y2="148" stroke="red" stroke-width="1" /><line x1="108" y1="148" x2="108" y2="170" stroke="red" stroke-width="1" /><line x1="108" y1="148" x2="108" y2="104" stroke="red" stroke-width="1" /><line x1="108" y1="104" x2="108" y2="148" stroke="red" stroke-width="1" /><line x1="108" y1="60" x2="108" y2="104" stroke="red" stroke-width="1" /><line x1="108" y1="104" x2="108" y2="60" stroke="red" stroke-width="1" /><line x1="108" y1="60" x2="152" y2="38" stroke="red" stroke-width="1" /><line x1="152" y1="38" x2="108" y2="60" stroke="red" stroke-width="1" /><line x1="152" y1="104" x2="152" y2="38" stroke="red" stroke-width="1" /><line x1="152" y1="38" x2="152" y2="104" stroke="red" stroke-width="1" /><line x1="152" y1="148" x2="152" y2="104" stroke="red" stroke-width="1" /><line x1="152" y1="104" x2="152" y2="148" stroke="red" stroke-width="1" /><line x1="152" y1="192" x2="152" y2="148" stroke="red" stroke-width="1" /><line x1="152" y1="148" x2="152" y2="192" stroke="red" stroke-width="1" /><line x1="152" y1="192" x2="152" y2="236" stroke="red" stroke-width="1" /><line x1="152" y1="236" x2="152" y2="192" stroke="red" stroke-width="1" /><line x1="152" y1="236" x2="152" y2="258" stroke="red" stroke-width="1" /><line x1="152" y1="258" x2="152" y2="236" stroke="red" stroke-width="1" /><line x1="152" y1="258" x2="152" y2="302" stroke="red" stroke-width="1" /><line x1="152" y1="302" x2="152" y2="258" stroke="red" stroke-width="1" /><line x1="196" y1="280" x2="152" y2="302" stroke="red" stroke-width="1" /><line x1="152" y1="302" x2="196" y2="280" stroke="red" stroke-width="1" /><line x1="196" y1="236" x2="196" y2="280" stroke="red" stroke-width="1" /><line x1="196" y1="280" x2="196" y2="236" stroke="red" stroke-width="1" /><line x1="196" y1="236" x2="196" y2="170" stroke="red" stroke-width="1" /><line x1="196" y1="170" x2="196" y2="236" stroke="red" stroke-width="1" /><line x1="196" y1="170" x2="196" y2="126" stroke="red" stroke-width="1" /><line x1="196" y1="126" x2="196" y2="170" stroke="red" stroke-width="1" /><line x1="196" y1="82" x2="196" y2="126" stroke="red" stroke-width="1" /><line x1="196" y1="126" x2="196" y2="82" stroke="red" stroke-width="1" /><line x1="196" y1="38" x2="196" y2="82" stroke="red" stroke-width="1" /><line x1="196" y1="82" x2="196" y2="38" stroke="red" stroke-width="1" /><line x1="240" y1="38" x2="196" y2="38" stroke="red" stroke-width="1" /><line x1="196" y1="38" x2="240" y2="38" stroke="red" stroke-width="1" /><line x1="240" y1="38" x2="240" y2="82" stroke="red" stroke-width="1" /><line x1="240" y1="82" x2="240" y2="38" stroke="red" stroke-width="1" /><line x1="240" y1="82" x2="240" y2="126" stroke="red" stroke-width="1" /><line x1="240" y1="126" x2="240" y2="82" stroke="red" stroke-width="1" /><line x1="240" y1="170" x2="240" y2="126" stroke="red" stroke-width="1" /><line x1="240" y1="126" x2="240" y2="170" stroke="red" stroke-width="1" /><line x1="240" y1="170" x2="240" y2="258" stroke="red" stroke-width="1" /><line x1="240" y1="258" x2="240" y2="170" stroke="red" stroke-width="1" /><line x1="240" y1="280" x2="240" y2="258" stroke="red" stroke-width="1" /><line x1="240" y1="258" x2="240" y2="280" stroke="red" stroke-width="1" /><line x1="284" y1="302" x2="240" y2="280" stroke="red" stroke-width="1" /><line x1="240" y1="280" x2="284" y2="302" stroke="red" stroke-width="1" /><line x1="284" y1="302" x2="284" y2="258" stroke="red" stroke-width="1" /><line x1="284" y1="258" x2="284" y2="302" stroke="red" stroke-width="1" /><line x1="284" y1="258" x2="306" y2="236" stroke="red" stroke-width="1" /><line x1="306" y1="236" x2="284" y2="258" stroke="red" stroke-width="1" /><line x1="306" y1="192" x2="306" y2="236" stroke="red" stroke-width="1" /><line x1="306" y1="236" x2="306" y2="192" stroke="red" stroke-width="1" /><line x1="306" y1="192" x2="306" y2="148" stroke="red" stroke-width="1" /><line x1="306" y1="148" x2="306" y2="192" stroke="red" stroke-width="1" /><line x1="306" y1="148" x2="284" y2="104" stroke="red" stroke-width="1" /><line x1="284" y1="104" x2="306" y2="148" stroke="red" stroke-width="1" /><line x1="284" y1="104" x2="284" y2="38" stroke="red" stroke-width="1" /><line x1="284" y1="38" x2="284" y2="104" stroke="red" stroke-width="1" /><line x1="328" y1="60" x2="284" y2="38" stroke="red" stroke-width="1" /><line x1="284" y1="38" x2="328" y2="60" stroke="red" stroke-width="1" /><line x1="328" y1="60" x2="328" y2="104" stroke="red" stroke-width="1" /><line x1="328" y1="104" x2="328" y2="60" stroke="red" stroke-width="1" /><line x1="64" y1="82" x2="38" y2="126" stroke="red" stroke-width="1" /></svg>