<svg xmlns="http://www.w3.org/2000/svg" width="292" height="249"><rect x="11" y="11" width="20" height="20" fill="rgb(230,230,230)"></rect><text x="21" y="21" text-anchor="middle" alignment-baseline="middle" fill="black">C</text><rect x="55" y="11" width="20" height="20" fill="rgb(230,230,230)"></rect><text x="65" y="21" text-anchor="middle" alignment-baseline="middle" fill="black">C</text><rect x="99" y="11" width="20" height="20" fill="rgb(230,230,230)"></rect><text x="109" y="21" text-anchor="middle" alignment-baseline="middle" fill="black">C</text><rect x="11" y="33" width="20" height="20" fill="rgb(230,230,230)"></rect><text x="21" y="43" text-anchor="middle" alignment-baseline="middle" fill="black">C</text><rect x="55" y="33" width="20" height="20" fill="rgb(230,230,230)"></rect><text x="65" y="43" text-anchor="middle" alignment-baseline="middle" fill="black">C</text><rect x="99" y="33" width="20" height="20" fill="rgb(230,230,230)"></rect><text x="109" y="43" text-anchor="middle" alignment-baseline="middle" fill="black">C</text><rect x="11" y="121" width="20" height="20" fill="rgb(230,230,230)"></rect><text x="21" y="131" text-anchor="middle" alignment-baseline="middle" fill="black">C</text><rect x="55" y="121" width="20" height="20" fill="rgb(230,230,230)"></rect><text x="65" y="131" text-anchor="middle" alignment-baseline="middle" fill="black">C</text><rect x="99" y="121" width="20" height="20" fill="rgb(230,230,230)"></rect><text x="109" y="131" text-anchor="middle" alignment-baseline="middle" fill="black">C</text><rect x="11" y="143" width="20" height="20" fill="rgb(230,230,230)"></rect><text x="21" y="153" text-anchor="middle" alignment-baseline="middle" fill="black">C</text><rect x="55" y="143" width="20" height="20" fill="rgb(230,230,230)"></rect><text x="65" y="153" text-anchor="middle" alignment-baseline="middle" fill="black">C</text><rect x="99" y="143" width="20" height="20" fill="rgb(230,230,230)"></rect><text x="109" y="153" text-anchor="middle" alignment-baseline="middle" fill="black">C</text><rect x="11" y="165" width="20" height="20" fill="rgb(230,230,230)"></rect><text x="21" y="175" text-anchor="middle" alignment-baseline="middle" fill="black">C</text><rect x="143" y="121" width="20" height="20" fill="rgb(230,230,230)"></rect><text x="153" y="131" text-anchor="middle" alignment-baseline="middle" fill="black">C</text><rect x="187" y="121" width="20" height="20" fill="rgb(230,230,230)"></rect><text x="197" y="131" text-anchor="middle" alignment-baseline="middle" fill="black">C</text><rect x="231" y="121" width="20" height="20" fill="rgb(230,230,230)"></rect><text x="241" y="131" text-anchor="middle" alignment-baseline="middle" fill="black">C</text><rect x="143" y="143" width="20" height="20" fill="rgb(230,230,230)"></rect><text x="153" y="153" text-anchor="middle" alignment-baseline="middle" fill="black">C</text><rect x="187" y="143" width="20" height="20" fill="rgb(230,230,230)"></rect><text x="197" y="153" text-anchor="middle" alignment-baseline="middle" fill="black">C</text><rect x="231" y="143" width="20" height="20" fill="rgb(230,230,230)"></rect><text x="241" y="153" text-anchor="middle" alignment-baseline="middle" fill="black">C</text><rect x="143" y="165" width="20" height="20" fill="rgb(230,230,230)"></rect><text x="153" y="175" text-anchor="middle" alignment-baseline="middle" fill="black">C</text><rect x="12" y="55" width="40" height="20" fill="rgb(230,230,230)"></rect><text x="32" y="65" text-anchor="middle" alignment-baseline="middle" fill="black">=</text><rect x="56" y="55" width="40" height="20" fill="rgb(230,230,230)"></rect><text x="76" y="65" text-anchor="middle" alignment-baseline="middle" fill="black">=</text><rect x="100" y="55" width="40" height="20" fill="rgb(230,230,230)"></rect><text x="120" y="65" text-anchor="middle" alignment-baseline="middle" fill="black">=</text><rect x="12" y="77" width="40" height="20" fill="rgb(230,230,230)"></rect><text x="32" y="87" text-anchor="middle" alignment-baseline="middle" fill="black">=</text><rect x="56" y="77" width="40" height="20" fill="rgb(230,230,230)"></rect><text x="76" y="87" text-anchor="middle" alignment-baseline="middle" fill="black">=</text><rect x="100" y="77" width="40" height="20" fill="rgb(230,230,230)"></rect><text x="120" y="87" text-anchor="middle" alignment-baseline="middle" fill="black">=</text><rect x="56" y="165" width="40" height="20" fill="rgb(230,230,230)"></rect><text x="76" y="175" text-anchor="middle" alignment-baseline="middle" fill="black">=</text><rect x="100" y="165" width="40" height="20" fill="rgb(230,230,230)"></rect><text x="120" y="175" text-anchor="middle" alignment-baseline="middle" fill="black">=</text><rect x="12" y="187" width="40" height="20" fill="rgb(230,230,230)"></rect><text x="32" y="197" text-anchor="middle" alignment-baseline="middle" fill="black">=</text><rect x="56" y="187" width="40" height="20" fill="rgb(230,230,230)"></rect><text x="76" y="197" text-anchor="middle" alignment-baseline="middle" fill="black">=</text><rect x="100" y="187" width="40" height="20" fill="rgb(230,230,230)"></rect><text x="120" y="197" text-anchor="middle" alignment-baseline="middle" fill="black">=</text><rect x="12" y="209" width="40" height="20" fill="rgb(230,230,230)"></rect><text x="32" y="219" text-anchor="middle" alignment-baseline="middle" fill="black">=</text><rect x="56" y="209" width="40" height="20" fill="rgb(230,230,230)"></rect><text x="76" y="219" text-anchor="middle" alignment-baseline="middle" fill="black">=</text><rect x="188" y="165" width="40" height="20" fill="rgb(230,230,230)"></rect><text x="208" y="175" text-anchor="middle" alignment-baseline="middle" fill="black">=</text><rect x="232" y="165" width="40" height="20" fill="rgb(230,230,230)"></rect><text x="252" y="175" text-anchor="middle" alignment-baseline="middle" fill="black">=</text><rect x="144" y="187" width="40" height="20" fill="rgb(230,230,230)"></rect><text x="164" y="197" text-anchor="middle" alignment-baseline="middle" fill="black">=</text><rect x="188" y="187" width="40" height="20" fill="rgb(230,230,230)"></rect><text x="208" y="197" text-anchor="middle" alignment-baseline="middle" fill="black">=</text><rect x="232" y="187" width="40" height="20" fill="rgb(230,230,230)"></rect><text x="252" y="197" text-anchor="middle" alignment-baseline="middle" fill="black">=</text><rect x="144" y="209" width="40" height="20" fill="rgb(230,230,230)"></rect><text x="164" y="219" text-anchor="middle" alignment-baseline="middle" fill="black">=</text><rect x="188" y="209" width="40" height="20" fill="rgb(230,230,230)"></rect><text x="208" y="219" text-anchor="middle" alignment-baseline="middle" fill="black">=</text><rect x="11" y="99" width="20" height="20" fill="rgb(230,230,230)"></rect><text x="21" y="109" text-anchor="middle" alignment-baseline="middle" fill="black">C</text><rect x="55" y="99" width="20" height="20" fill="rgb(230,230,230)"></rect><text x="65" y="109" text-anchor="middle" alignment-baseline="middle" fill="black">L</text><line x1="26" y1="114" x2="42" y2="70" stroke="red" stroke-width="1" /><line x1="26" y1="16" x2="42" y2="60" stroke="green" stroke-width="1" /><line x1="42" y1="70" x2="86" y2="70" stroke="red" stroke-width="1" /><line x1="86" y1="70" x2="42" y2="70" stroke="red" stroke-width="1" /><line x1="70" y1="16" x2="86" y2="60" stroke="green" stroke-width="1" /><line x1="130" y1="70" x2="86" y2="70" stroke="red" stroke-width="1" /><line x1="86" y1="70" x2="130" y2="70" stroke="red" stroke-width="1" /><line x1="114" y1="16" x2="130" y2="60" stroke="green" stroke-width="1" /><line x1="42" y1="92" x2="130" y2="70" stroke="red" stroke-width="1" /><line x1="130" y1="70" x2="42" y2="92" stroke="red" stroke-width="1" /><line x1="26" y1="38" x2="42" y2="82" stroke="green" stroke-width="1" /><line x1="42" y1="92" x2="86" y2="92" stroke="red" stroke-width="1" /><line x1="86" y1="92" x2="42" y2="92" stroke="red" stroke-width="1" /><line x1="70" y1="38" x2="86" y2="82" stroke="green" stroke-width="1" /><line x1="86" y1="92" x2="130" y2="92" stroke="red" stroke-width="1" /><line x1="130" y1="92" x2="86" y2="92" stroke="red" stroke-width="1" /><line x1="114" y1="38" x2="130" y2="82" stroke="green" stroke-width="1" /><line x1="86" y1="180" x2="130" y2="92" stroke="red" stroke-width="1" /><line x1="130" y1="92" x2="86" y2="180" stroke="red" stroke-width="1" /><line x1="26" y1="126" x2="86" y2="170" stroke="green" stroke-width="1" /><line x1="86" y1="180" x2="130" y2="180" stroke="red" stroke-width="1" /><line x1="130" y1="180" x2="86" y2="180" stroke="red" stroke-width="1" /><line x1="70" y1="126" x2="130" y2="170" stroke="green" stroke-width="1" /><line x1="42" y1="202" x2="130" y2="180" stroke="red" stroke-width="1" /><line x1="130" y1="180" x2="42" y2="202" stroke="red" stroke-width="1" /><line x1="114" y1="126" x2="42" y2="192" stroke="green" stroke-width="1" /><line x1="86" y1="202" x2="42" y2="202" stroke="red" stroke-width="1" /><line x1="42" y1="202" x2="86" y2="202" stroke="red" stroke-width="1" /><line x1="26" y1="148" x2="86" y2="192" stroke="green" stroke-width="1" /><line x1="130" y1="202" x2="86" y2="202" stroke="red" stroke-width="1" /><line x1="86" y1="202" x2="130" y2="202" stroke="red" stroke-width="1" /><line x1="70" y1="148" x2="130" y2="192" stroke="green" stroke-width="1" /><line x1="42" y1="224" x2="130" y2="202" stroke="red" stroke-width="1" /><line x1="130" y1="202" x2="42" y2="224" stroke="red" stroke-width="1" /><line x1="114" y1="148" x2="42" y2="214" stroke="green" stroke-width="1" /><line x1="86" y1="224" x2="42" y2="224" stroke="red" stroke-width="1" /><line x1="42" y1="224" x2="86" y2="224" stroke="red" stroke-width="1" /><line x1="26" y1="170" x2="86" y2="214" stroke="green" stroke-width="1" /><line x1="218" y1="180" x2="86" y2="224" stroke="red" stroke-width="1" /><line x1="86" y1="224" x2="218" y2="180" stroke="red" stroke-width="1" /><line x1="158" y1="126" x2="218" y2="170" stroke="green" stroke-width="1" /><line x1="262" y1="180" x2="218" y2="180" stroke="red" stroke-width="1" /><line x1="218" y1="180" x2="262" y2="180" stroke="red" stroke-width="1" /><line x1="202" y1="126" x2="262" y2="170" stroke="green" stroke-width="1" /><line x1="174" y1="202" x2="262" y2="180" stroke="red" stroke-width="1" /><line x1="262" y1="180" x2="174" y2="202" stroke="red" stroke-width="1" /><line x1="246" y1="126" x2="174" y2="192" stroke="green" stroke-width="1" /><line x1="218" y1="202" x2="174" y2="202" stroke="red" stroke-width="1" /><line x1="174" y1="202" x2="218" y2="202" stroke="red" stroke-width="1" /><line x1="158" y1="148" x2="218" y2="192" stroke="green" stroke-width="1" /><line x1="218" y1="202" x2="262" y2="202" stroke="red" stroke-width="1" /><line x1="262" y1="202" x2="218" y2="202" stroke="red" stroke-width="1" /><line x1="202" y1="148" x2="262" y2="192" stroke="green" stroke-width="1" /><line x1="174" y1="224" x2="262" y2="202" stroke="red" stroke-width="1" /><line x1="262" y1="202" x2="174" y2="224" stroke="red" stroke-width="1" /><line x1="246" y1="148" x2="174" y2="214" stroke="green" stroke-width="1" /><line x1="174" y1="224" x2="218" y2="224" stroke="red" stroke-width="1" /><line x1="218" y1="224" x2="174" y2="224" stroke="red" stroke-width="1" /><line x1="158" y1="170" x2="218" y2="214" stroke="green" stroke-width="1" /><line x1="66" y1="70" x2="22" y2="70" stroke="red" stroke-width="1" /><line x1="22" y1="70" x2="66" y2="70" stroke="red" stroke-width="1" /><line x1="110" y1="70" x2="66" y2="70" stroke="red" stroke-width="1" /><line x1="66" y1="70" x2="110" y2="70" stroke="red" stroke-width="1" /><line x1="110" y1="70" x2="22" y2="92" stroke="red" stroke-width="1" /><line x1="22" y1="92" x2="110" y2="70" stroke="red" stroke-width="1" /><line x1="22" y1="92" x2="66" y2="92" stroke="red" stroke-width="1" /><line x1="66" y1="92" x2="22" y2="92" stroke="red" stroke-width="1" /><line x1="66" y1="92" x2="110" y2="92" stroke="red" stroke-width="1" /><line x1="110" y1="92" x2="66" y2="92" stroke="red" stroke-width="1" /><line x1="66" y1="180" x2="110" y2="92" stroke="red" stroke-width="1" /><line x1="110" y1="92" x2="66" y2="180" stroke="red" stroke-width="1" /><line x1="110" y1="180" x2="66" y2="180" stroke="red" stroke-width="1" /><line x1="66" y1="180" x2="110" y2="180" stroke="red" stroke-width="1" /><line x1="22" y1="202" x2="110" y2="180" stroke="red" stroke-width="1" /><line x1="110" y1="180" x2="22" y2="202" stroke="red" stroke-width="1" /><line x1="66" y1="202" x2="22" y2="202" stroke="red" stroke-width="1" /><line x1="22" y1="202" x2="66" y2="202" stroke="red" stroke-width="1" /><line x1="110" y1="202" x2="66" y2="202" stroke="red" stroke-width="1" /><line x1="66" y1="202" x2="110" y2="202" stroke="red" stroke-width="1" /><line x1="22" y1="224" x2="110" y2="202" stroke="red" stroke-width="1" /><line x1="110" y1="202" x2="22" y2="224" stroke="red" stroke-width="1" /><line x1="22" y1="224" x2="66" y2="224" stroke="red" stroke-width="1" /><line x1="66" y1="224" x2="22" y2="224" stroke="red" stroke-width="1" /><line x1="66" y1="224" x2="198" y2="180" stroke="red" stroke-width="1" /><line x1="198" y1="180" x2="66" y2="224" stroke="red" stroke-width="1" /><line x1="198" y1="180" x2="242" y2="180" stroke="red" stroke-width="1" /><line x1="242" y1="180" x2="198" y2="180" stroke="red" stroke-width="1" /><line x1="242" y1="180" x2="154" y2="202" stroke="red" stroke-width="1" /><line x1="154" y1="202" x2="242" y2="180" stroke="red" stroke-width="1" /><line x1="198" y1="202" x2="154" y2="202" stroke="red" stroke-width="1" /><line x1="154" y1="202" x2="198" y2="202" stroke="red" stroke-width="1" /><line x1="198" y1="202" x2="242" y2="202" stroke="red" stroke-width="1" /><line x1="242" y1="202" x2="198" y2="202" stroke="red" stroke-width="1" /><line x1="242" y1="202" x2="154" y2="224" stroke="red" stroke-width="1" /><line x1="154" y1="224" x2="242" y2="202" stroke="red" stroke-width="1" /><line x1="154" y1="224" x2="198" y2="224" stroke="red" stroke-width="1" /><line x1="198" y1="224" x2="154" y2="224" stroke="red" stroke-width="1" /><line x1="22" y1="70" x2="70" y2="114" stroke="red" stroke-width="1" /></svg>