<svg xmlns="http://www.w3.org/2000/svg" width="370" height="370"><rect x="0" y="0" width="370" height="370" fill="rgb(255,255,255)"></rect><rect x="0" y="0" width="350" height="350" fill="rgba(255,255,255,1)"></rect><rect x="0" y="0" width="50" height="25" fill="rgba(100,0,0,0.1)"></rect><text x="25" y="12" text-anchor="middle" alignment-baseline="middle" fill="black">0</text><rect x="0" y="24" width="50" height="25" fill="rgba(100,0,0,0.1)"></rect><text x="25" y="36" text-anchor="middle" alignment-baseline="middle" fill="black">1</text><rect x="0" y="49" width="50" height="25" fill="rgba(100,0,0,0.1)"></rect><text x="25" y="61" text-anchor="middle" alignment-baseline="middle" fill="black">2</text><rect x="0" y="73" width="50" height="25" fill="rgba(100,0,0,0.1)"></rect><text x="25" y="85" text-anchor="middle" alignment-baseline="middle" fill="black">3</text><rect x="0" y="96" width="50" height="25" fill="rgba(100,0,0,0.1)"></rect><text x="25" y="108" text-anchor="middle" alignment-baseline="middle" fill="black">4</text><rect x="0" y="120" width="50" height="25" fill="rgba(100,0,0,0.1)"></rect><text x="25" y="132" text-anchor="middle" alignment-baseline="middle" fill="black">5</text><rect x="0" y="144" width="50" height="25" fill="rgba(100,0,0,0.1)"></rect><text x="25" y="156" text-anchor="middle" alignment-baseline="middle" fill="black">6</text><rect x="49" y="149" width="50" height="25" fill="rgba(100,0,0,0.1)"></rect><text x="74" y="161" text-anchor="middle" alignment-baseline="middle" fill="black">7</text><rect x="1" y="169" width="50" height="25" fill="rgba(100,0,0,0.1)"></rect><text x="26" y="181" text-anchor="middle" alignment-baseline="middle" fill="black">8</text><rect x="2" y="194" width="50" height="25" fill="rgba(100,0,0,0.1)"></rect><text x="27" y="206" text-anchor="middle" alignment-baseline="middle" fill="black">9</text><rect x="56" y="2" width="50" height="25" fill="rgba(100,0,0,0.1)"></rect><text x="81" y="14" text-anchor="middle" alignment-baseline="middle" fill="black">10</text><rect x="49" y="27" width="50" height="25" fill="rgba(100,0,0,0.1)"></rect><text x="74" y="39" text-anchor="middle" alignment-baseline="middle" fill="black">11</text><rect x="49" y="51" width="50" height="25" fill="rgba(100,0,0,0.1)"></rect><text x="74" y="63" text-anchor="middle" alignment-baseline="middle" fill="black">12</text><rect x="49" y="76" width="50" height="25" fill="rgba(100,0,0,0.1)"></rect><text x="74" y="88" text-anchor="middle" alignment-baseline="middle" fill="black">13</text><rect x="50" y="100" width="50" height="25" fill="rgba(100,0,0,0.1)"></rect><text x="75" y="112" text-anchor="middle" alignment-baseline="middle" fill="black">14</text><rect x="50" y="125" width="50" height="25" fill="rgba(100,0,0,0.1)"></rect><text x="75" y="137" text-anchor="middle" alignment-baseline="middle" fill="black">15</text><rect x="98" y="151" width="50" height="25" fill="rgba(100,0,0,0.1)"></rect><text x="123" y="163" text-anchor="middle" alignment-baseline="middle" fill="black">16</text><rect x="52" y="173" width="50" height="25" fill="rgba(100,0,0,0.1)"></rect><text x="77" y="185" text-anchor="middle" alignment-baseline="middle" fill="black">17</text><rect x="52" y="198" width="50" height="25" fill="rgba(100,0,0,0.1)"></rect><text x="77" y="210" text-anchor="middle" alignment-baseline="middle" fill="black">18</text><rect x="55" y="223" width="50" height="25" fill="rgba(100,0,0,0.1)"></rect><text x="80" y="235" text-anchor="middle" alignment-baseline="middle" fill="black">19</text><rect x="149" y="25" width="50" height="25" fill="rgba(100,0,0,0.1)"></rect><text x="174" y="37" text-anchor="middle" alignment-baseline="middle" fill="black">20</text><rect x="99" y="29" width="50" height="25" fill="rgba(100,0,0,0.1)"></rect><text x="124" y="41" text-anchor="middle" alignment-baseline="middle" fill="black">21</text><rect x="99" y="53" width="50" height="25" fill="rgba(100,0,0,0.1)"></rect><text x="124" y="65" text-anchor="middle" alignment-baseline="middle" fill="black">22</text><rect x="99" y="78" width="50" height="25" fill="rgba(100,0,0,0.1)"></rect><text x="124" y="90" text-anchor="middle" alignment-baseline="middle" fill="black">23</text><rect x="99" y="102" width="50" height="25" fill="rgba(100,0,0,0.1)"></rect><text x="124" y="114" text-anchor="middle" alignment-baseline="middle" fill="black">24</text><rect x="99" y="127" width="50" height="25" fill="rgba(100,0,0,0.1)"></rect><text x="124" y="139" text-anchor="middle" alignment-baseline="middle" fill="black">25</text><rect x="148" y="146" width="50" height="25" fill="rgba(100,0,0,0.1)"></rect><text x="173" y="158" text-anchor="middle" alignment-baseline="middle" fill="black">26</text><rect x="151" y="169" width="50" height="25" fill="rgba(100,0,0,0.1)"></rect><text x="176" y="181" text-anchor="middle" alignment-baseline="middle" fill="black">27</text><rect x="102" y="175" width="50" height="25" fill="rgba(100,0,0,0.1)"></rect><text x="127" y="187" text-anchor="middle" alignment-baseline="middle" fill="black">28</text><rect x="101" y="200" width="50" height="25" fill="rgba(100,0,0,0.1)"></rect><text x="126" y="212" text-anchor="middle" alignment-baseline="middle" fill="black">29</text><rect x="149" y="50" width="50" height="25" fill="rgba(100,0,0,0.1)"></rect><text x="174" y="62" text-anchor="middle" alignment-baseline="middle" fill="black">30</text><rect x="148" y="74" width="50" height="25" fill="rgba(100,0,0,0.1)"></rect><text x="173" y="86" text-anchor="middle" alignment-baseline="middle" fill="black">31</text><rect x="149" y="98" width="50" height="25" fill="rgba(100,0,0,0.1)"></rect><text x="174" y="110" text-anchor="middle" alignment-baseline="middle" fill="black">32</text><rect x="149" y="122" width="50" height="25" fill="rgba(100,0,0,0.1)"></rect><text x="174" y="134" text-anchor="middle" alignment-baseline="middle" fill="black">33</text><rect x="247" y="109" width="50" height="25" fill="rgba(100,0,0,0.1)"></rect><text x="272" y="121" text-anchor="middle" alignment-baseline="middle" fill="black">34</text><rect x="198" y="126" width="50" height="25" fill="rgba(100,0,0,0.1)"></rect><text x="223" y="138" text-anchor="middle" alignment-baseline="middle" fill="black">35</text><rect x="198" y="151" width="50" height="25" fill="rgba(100,0,0,0.1)"></rect><text x="223" y="163" text-anchor="middle" alignment-baseline="middle" fill="black">36</text><rect x="200" y="175" width="50" height="25" fill="rgba(100,0,0,0.1)"></rect><text x="225" y="187" text-anchor="middle" alignment-baseline="middle" fill="black">37</text><rect x="151" y="194" width="50" height="25" fill="rgba(100,0,0,0.1)"></rect><text x="176" y="206" text-anchor="middle" alignment-baseline="middle" fill="black">38</text><rect x="150" y="218" width="50" height="25" fill="rgba(100,0,0,0.1)"></rect><text x="175" y="230" text-anchor="middle" alignment-baseline="middle" fill="black">39</text><rect x="199" y="29" width="50" height="25" fill="rgba(100,0,0,0.1)"></rect><text x="224" y="41" text-anchor="middle" alignment-baseline="middle" fill="black">40</text><rect x="198" y="53" width="50" height="25" fill="rgba(100,0,0,0.1)"></rect><text x="223" y="65" text-anchor="middle" alignment-baseline="middle" fill="black">41</text><rect x="198" y="78" width="50" height="25" fill="rgba(100,0,0,0.1)"></rect><text x="223" y="90" text-anchor="middle" alignment-baseline="middle" fill="black">42</text><rect x="198" y="102" width="50" height="25" fill="rgba(100,0,0,0.1)"></rect><text x="223" y="114" text-anchor="middle" alignment-baseline="middle" fill="black">43</text><rect x="248" y="60" width="50" height="25" fill="rgba(100,0,0,0.1)"></rect><text x="273" y="72" text-anchor="middle" alignment-baseline="middle" fill="black">44</text><rect x="250" y="84" width="50" height="25" fill="rgba(100,0,0,0.1)"></rect><text x="275" y="96" text-anchor="middle" alignment-baseline="middle" fill="black">45</text><rect x="247" y="134" width="50" height="25" fill="rgba(100,0,0,0.1)"></rect><text x="272" y="146" text-anchor="middle" alignment-baseline="middle" fill="black">46</text><rect x="294" y="150" width="50" height="25" fill="rgba(100,0,0,0.1)"></rect><text x="319" y="162" text-anchor="middle" alignment-baseline="middle" fill="black">47</text><rect x="250" y="175" width="50" height="25" fill="rgba(100,0,0,0.1)"></rect><text x="275" y="187" text-anchor="middle" alignment-baseline="middle" fill="black">48</text><rect x="216" y="249" width="50" height="25" fill="rgba(100,0,0,0.1)"></rect><text x="241" y="261" text-anchor="middle" alignment-baseline="middle" fill="black">49</text><rect x="200" y="200" width="50" height="50" fill="rgba(100,0,0,0.1)"></rect><text x="225" y="225" text-anchor="middle" alignment-baseline="middle" fill="black">50</text><line x1="25" y1="12" x2="25" y2="37" stroke="black" stroke-width="1" /><line x1="25" y1="12" x2="25" y2="157" stroke="black" stroke-width="1" /><line x1="25" y1="37" x2="74" y2="161" stroke="black" stroke-width="1" /><line x1="25" y1="61" x2="25" y2="85" stroke="black" stroke-width="1" /><line x1="25" y1="61" x2="26" y2="182" stroke="black" stroke-width="1" /><line x1="25" y1="85" x2="27" y2="206" stroke="black" stroke-width="1" /><line x1="25" y1="109" x2="25" y2="133" stroke="black" stroke-width="1" /><line x1="25" y1="109" x2="81" y2="15" stroke="black" stroke-width="1" /><line x1="25" y1="133" x2="74" y2="39" stroke="black" stroke-width="1" /><line x1="25" y1="157" x2="74" y2="161" stroke="black" stroke-width="1" /><line x1="25" y1="157" x2="74" y2="64" stroke="black" stroke-width="1" /><line x1="74" y1="161" x2="74" y2="88" stroke="black" stroke-width="1" /><line x1="26" y1="182" x2="27" y2="206" stroke="black" stroke-width="1" /><line x1="26" y1="182" x2="123" y2="163" stroke="black" stroke-width="1" /><line x1="27" y1="206" x2="77" y2="186" stroke="black" stroke-width="1" /><line x1="81" y1="15" x2="174" y2="37" stroke="black" stroke-width="1" /><line x1="81" y1="15" x2="74" y2="39" stroke="black" stroke-width="1" /><line x1="81" y1="15" x2="74" y2="88" stroke="black" stroke-width="1" /><line x1="74" y1="39" x2="124" y2="41" stroke="black" stroke-width="1" /><line x1="74" y1="64" x2="74" y2="88" stroke="black" stroke-width="1" /><line x1="74" y1="64" x2="124" y2="66" stroke="black" stroke-width="1" /><line x1="74" y1="88" x2="124" y2="90" stroke="black" stroke-width="1" /><line x1="75" y1="113" x2="75" y2="137" stroke="black" stroke-width="1" /><line x1="75" y1="113" x2="173" y2="158" stroke="black" stroke-width="1" /><line x1="75" y1="137" x2="123" y2="163" stroke="black" stroke-width="1" /><line x1="75" y1="137" x2="176" y2="182" stroke="black" stroke-width="1" /><line x1="123" y1="163" x2="174" y2="62" stroke="black" stroke-width="1" /><line x1="123" y1="163" x2="77" y2="186" stroke="black" stroke-width="1" /><line x1="77" y1="186" x2="173" y2="87" stroke="black" stroke-width="1" /><line x1="77" y1="211" x2="174" y2="111" stroke="black" stroke-width="1" /><line x1="77" y1="211" x2="80" y2="236" stroke="black" stroke-width="1" /><line x1="80" y1="236" x2="174" y2="134" stroke="black" stroke-width="1" /><line x1="174" y1="37" x2="176" y2="182" stroke="black" stroke-width="1" /><line x1="174" y1="37" x2="272" y2="122" stroke="black" stroke-width="1" /><line x1="174" y1="37" x2="124" y2="41" stroke="black" stroke-width="1" /><line x1="124" y1="41" x2="124" y2="115" stroke="black" stroke-width="1" /><line x1="124" y1="41" x2="223" y2="139" stroke="black" stroke-width="1" /><line x1="124" y1="66" x2="124" y2="90" stroke="black" stroke-width="1" /><line x1="124" y1="66" x2="223" y2="163" stroke="black" stroke-width="1" /><line x1="124" y1="90" x2="225" y2="187" stroke="black" stroke-width="1" /><line x1="124" y1="115" x2="176" y2="206" stroke="black" stroke-width="1" /><line x1="124" y1="115" x2="124" y2="139" stroke="black" stroke-width="1" /><line x1="124" y1="139" x2="175" y2="231" stroke="black" stroke-width="1" /><line x1="173" y1="158" x2="176" y2="182" stroke="black" stroke-width="1" /><line x1="173" y1="158" x2="224" y2="41" stroke="black" stroke-width="1" /><line x1="176" y1="182" x2="223" y2="66" stroke="black" stroke-width="1" /><line x1="127" y1="188" x2="173" y2="87" stroke="black" stroke-width="1" /><line x1="127" y1="188" x2="223" y2="90" stroke="black" stroke-width="1" /><line x1="127" y1="188" x2="126" y2="213" stroke="black" stroke-width="1" /><line x1="126" y1="213" x2="223" y2="115" stroke="black" stroke-width="1" /><line x1="174" y1="62" x2="173" y2="87" stroke="black" stroke-width="1" /><line x1="174" y1="62" x2="273" y2="72" stroke="black" stroke-width="1" /><line x1="173" y1="87" x2="275" y2="97" stroke="black" stroke-width="1" /><line x1="174" y1="111" x2="272" y2="147" stroke="black" stroke-width="1" /><line x1="174" y1="111" x2="174" y2="134" stroke="black" stroke-width="1" /><line x1="174" y1="134" x2="319" y2="163" stroke="black" stroke-width="1" /><line x1="272" y1="122" x2="275" y2="187" stroke="black" stroke-width="1" /><line x1="272" y1="122" x2="223" y2="139" stroke="black" stroke-width="1" /><line x1="223" y1="139" x2="241" y2="261" stroke="black" stroke-width="1" /><line x1="223" y1="163" x2="223" y2="115" stroke="black" stroke-width="1" /><line x1="223" y1="163" x2="225" y2="187" stroke="black" stroke-width="1" /><line x1="223" y1="163" x2="175" y2="231" stroke="black" stroke-width="1" /><line x1="176" y1="206" x2="175" y2="231" stroke="black" stroke-width="1" /><line x1="224" y1="41" x2="223" y2="66" stroke="black" stroke-width="1" /><line x1="223" y1="90" x2="223" y2="115" stroke="black" stroke-width="1" /><line x1="223" y1="115" x2="272" y2="147" stroke="black" stroke-width="1" /><line x1="273" y1="72" x2="275" y2="97" stroke="black" stroke-width="1" /><line x1="272" y1="147" x2="319" y2="163" stroke="black" stroke-width="1" /><line x1="319" y1="163" x2="275" y2="187" stroke="black" stroke-width="1" /><line x1="275" y1="187" x2="241" y2="261" stroke="black" stroke-width="1" /></svg>