<svg xmlns="http://www.w3.org/2000/svg" width="370" height="370"><rect x="0" y="0" width="370" height="370" fill="rgb(255,255,255)"></rect><rect x="0" y="0" width="350" height="350" fill="rgba(255,255,255,1)"></rect><rect x="1" y="29" width="25" height="25" fill="rgba(100,0,0,0.1)"></rect><text x="13" y="41" text-anchor="middle" alignment-baseline="middle" fill="black">0</text><rect x="0" y="241" width="25" height="25" fill="rgba(100,0,0,0.1)"></rect><text x="12" y="253" text-anchor="middle" alignment-baseline="middle" fill="black">1</text><rect x="29" y="195" width="25" height="25" fill="rgba(100,0,0,0.1)"></rect><text x="41" y="207" text-anchor="middle" alignment-baseline="middle" fill="black">2</text><rect x="47" y="133" width="25" height="25" fill="rgba(100,0,0,0.1)"></rect><text x="59" y="145" text-anchor="middle" alignment-baseline="middle" fill="black">3</text><rect x="0" y="103" width="25" height="25" fill="rgba(100,0,0,0.1)"></rect><text x="12" y="115" text-anchor="middle" alignment-baseline="middle" fill="black">4</text><rect x="2" y="191" width="25" height="25" fill="rgba(100,0,0,0.1)"></rect><text x="14" y="203" text-anchor="middle" alignment-baseline="middle" fill="black">5</text><rect x="78" y="173" width="25" height="25" fill="rgba(100,0,0,0.1)"></rect><text x="90" y="185" text-anchor="middle" alignment-baseline="middle" fill="black">6</text><rect x="49" y="84" width="25" height="25" fill="rgba(100,0,0,0.1)"></rect><text x="61" y="96" text-anchor="middle" alignment-baseline="middle" fill="black">7</text><rect x="102" y="11" width="25" height="25" fill="rgba(100,0,0,0.1)"></rect><text x="114" y="23" text-anchor="middle" alignment-baseline="middle" fill="black">8</text><rect x="76" y="84" width="25" height="25" fill="rgba(100,0,0,0.1)"></rect><text x="88" y="96" text-anchor="middle" alignment-baseline="middle" fill="black">9</text><rect x="117" y="147" width="25" height="25" fill="rgba(100,0,0,0.1)"></rect><text x="129" y="159" text-anchor="middle" alignment-baseline="middle" fill="black">10</text><rect x="101" y="195" width="25" height="25" fill="rgba(100,0,0,0.1)"></rect><text x="113" y="207" text-anchor="middle" alignment-baseline="middle" fill="black">11</text><rect x="148" y="246" width="25" height="25" fill="rgba(100,0,0,0.1)"></rect><text x="160" y="258" text-anchor="middle" alignment-baseline="middle" fill="black">12</text><rect x="163" y="173" width="25" height="25" fill="rgba(100,0,0,0.1)"></rect><text x="175" y="185" text-anchor="middle" alignment-baseline="middle" fill="black">13</text><rect x="149" y="101" width="25" height="25" fill="rgba(100,0,0,0.1)"></rect><text x="161" y="113" text-anchor="middle" alignment-baseline="middle" fill="black">14</text><rect x="146" y="32" width="25" height="25" fill="rgba(100,0,0,0.1)"></rect><text x="158" y="44" text-anchor="middle" alignment-baseline="middle" fill="black">15</text><rect x="195" y="55" width="25" height="25" fill="rgba(100,0,0,0.1)"></rect><text x="207" y="67" text-anchor="middle" alignment-baseline="middle" fill="black">16</text><rect x="200" y="125" width="25" height="25" fill="rgba(100,0,0,0.1)"></rect><text x="212" y="137" text-anchor="middle" alignment-baseline="middle" fill="black">17</text><rect x="189" y="175" width="25" height="25" fill="rgba(100,0,0,0.1)"></rect><text x="201" y="187" text-anchor="middle" alignment-baseline="middle" fill="black">18</text><rect x="199" y="249" width="25" height="25" fill="rgba(100,0,0,0.1)"></rect><text x="211" y="261" text-anchor="middle" alignment-baseline="middle" fill="black">19</text><rect x="249" y="199" width="25" height="25" fill="rgba(100,0,0,0.1)"></rect><text x="261" y="211" text-anchor="middle" alignment-baseline="middle" fill="black">20</text><rect x="30" y="172" width="50" height="25" fill="rgba(100,0,0,0.1)"></rect><text x="55" y="184" text-anchor="middle" alignment-baseline="middle" fill="black">21</text><rect x="52" y="203" width="50" height="25" fill="rgba(100,0,0,0.1)"></rect><text x="77" y="215" text-anchor="middle" alignment-baseline="middle" fill="black">22</text><rect x="51" y="108" width="50" height="25" fill="rgba(100,0,0,0.1)"></rect><text x="76" y="120" text-anchor="middle" alignment-baseline="middle" fill="black">23</text><rect x="47" y="35" width="50" height="25" fill="rgba(100,0,0,0.1)"></rect><text x="72" y="47" text-anchor="middle" alignment-baseline="middle" fill="black">24</text><rect x="96" y="36" width="50" height="25" fill="rgba(100,0,0,0.1)"></rect><text x="121" y="48" text-anchor="middle" alignment-baseline="middle" fill="black">25</text><rect x="100" y="98" width="50" height="25" fill="rgba(100,0,0,0.1)"></rect><text x="125" y="110" text-anchor="middle" alignment-baseline="middle" fill="black">26</text><rect x="113" y="171" width="50" height="25" fill="rgba(100,0,0,0.1)"></rect><text x="138" y="183" text-anchor="middle" alignment-baseline="middle" fill="black">27</text><rect x="99" y="244" width="50" height="25" fill="rgba(100,0,0,0.1)"></rect><text x="124" y="256" text-anchor="middle" alignment-baseline="middle" fill="black">28</text><rect x="137" y="197" width="50" height="25" fill="rgba(100,0,0,0.1)"></rect><text x="162" y="209" text-anchor="middle" alignment-baseline="middle" fill="black">29</text><rect x="150" y="125" width="50" height="25" fill="rgba(100,0,0,0.1)"></rect><text x="175" y="137" text-anchor="middle" alignment-baseline="middle" fill="black">30</text><rect x="146" y="56" width="50" height="25" fill="rgba(100,0,0,0.1)"></rect><text x="171" y="68" text-anchor="middle" alignment-baseline="middle" fill="black">31</text><rect x="204" y="12" width="50" height="25" fill="rgba(100,0,0,0.1)"></rect><text x="229" y="24" text-anchor="middle" alignment-baseline="middle" fill="black">32</text><rect x="216" y="77" width="50" height="25" fill="rgba(100,0,0,0.1)"></rect><text x="241" y="89" text-anchor="middle" alignment-baseline="middle" fill="black">33</text><rect x="213" y="150" width="50" height="25" fill="rgba(100,0,0,0.1)"></rect><text x="238" y="162" text-anchor="middle" alignment-baseline="middle" fill="black">34</text><rect x="224" y="248" width="50" height="25" fill="rgba(100,0,0,0.1)"></rect><text x="249" y="260" text-anchor="middle" alignment-baseline="middle" fill="black">35</text><rect x="249" y="224" width="50" height="25" fill="rgba(100,0,0,0.1)"></rect><text x="274" y="236" text-anchor="middle" alignment-baseline="middle" fill="black">36</text><rect x="263" y="176" width="50" height="25" fill="rgba(100,0,0,0.1)"></rect><text x="288" y="188" text-anchor="middle" alignment-baseline="middle" fill="black">37</text><rect x="0" y="79" width="50" height="25" fill="rgba(100,0,0,0.1)"></rect><text x="25" y="91" text-anchor="middle" alignment-baseline="middle" fill="black">38</text><rect x="0" y="127" width="50" height="25" fill="rgba(100,0,0,0.1)"></rect><text x="25" y="139" text-anchor="middle" alignment-baseline="middle" fill="black">39</text><rect x="0" y="217" width="50" height="25" fill="rgba(100,0,0,0.1)"></rect><text x="25" y="229" text-anchor="middle" alignment-baseline="middle" fill="black">40</text><rect x="67" y="148" width="50" height="25" fill="rgba(100,0,0,0.1)"></rect><text x="92" y="160" text-anchor="middle" alignment-baseline="middle" fill="black">41</text><rect x="49" y="59" width="50" height="25" fill="rgba(100,0,0,0.1)"></rect><text x="74" y="71" text-anchor="middle" alignment-baseline="middle" fill="black">42</text><rect x="52" y="10" width="50" height="25" fill="rgba(100,0,0,0.1)"></rect><text x="77" y="22" text-anchor="middle" alignment-baseline="middle" fill="black">43</text><rect x="98" y="64" width="50" height="25" fill="rgba(100,0,0,0.1)"></rect><text x="123" y="76" text-anchor="middle" alignment-baseline="middle" fill="black">44</text><rect x="100" y="123" width="50" height="25" fill="rgba(100,0,0,0.1)"></rect><text x="125" y="135" text-anchor="middle" alignment-baseline="middle" fill="black">45</text><rect x="101" y="219" width="50" height="25" fill="rgba(100,0,0,0.1)"></rect><text x="126" y="231" text-anchor="middle" alignment-baseline="middle" fill="black">46</text><rect x="150" y="221" width="50" height="25" fill="rgba(100,0,0,0.1)"></rect><text x="175" y="233" text-anchor="middle" alignment-baseline="middle" fill="black">47</text><rect x="164" y="149" width="50" height="25" fill="rgba(100,0,0,0.1)"></rect><text x="189" y="161" text-anchor="middle" alignment-baseline="middle" fill="black">48</text><rect x="167" y="79" width="50" height="25" fill="rgba(100,0,0,0.1)"></rect><text x="192" y="91" text-anchor="middle" alignment-baseline="middle" fill="black">49</text><rect x="155" y="8" width="50" height="25" fill="rgba(100,0,0,0.1)"></rect><text x="180" y="20" text-anchor="middle" alignment-baseline="middle" fill="black">50</text><rect x="216" y="36" width="50" height="25" fill="rgba(100,0,0,0.1)"></rect><text x="241" y="48" text-anchor="middle" alignment-baseline="middle" fill="black">51</text><rect x="212" y="102" width="50" height="25" fill="rgba(100,0,0,0.1)"></rect><text x="237" y="114" text-anchor="middle" alignment-baseline="middle" fill="black">52</text><rect x="213" y="175" width="50" height="25" fill="rgba(100,0,0,0.1)"></rect><text x="238" y="187" text-anchor="middle" alignment-baseline="middle" fill="black">53</text><rect x="274" y="247" width="50" height="25" fill="rgba(100,0,0,0.1)"></rect><text x="299" y="259" text-anchor="middle" alignment-baseline="middle" fill="black">54</text><rect x="0" y="151" width="50" height="25" fill="rgba(100,0,0,0.1)"></rect><text x="25" y="163" text-anchor="middle" alignment-baseline="middle" fill="black">55</text><rect x="49" y="228" width="50" height="25" fill="rgba(100,0,0,0.1)"></rect><text x="74" y="240" text-anchor="middle" alignment-baseline="middle" fill="black">56</text><rect x="0" y="54" width="50" height="25" fill="rgba(100,0,0,0.1)"></rect><text x="25" y="66" text-anchor="middle" alignment-baseline="middle" fill="black">57</text><rect x="200" y="200" width="50" height="50" fill="rgba(100,0,0,0.1)"></rect><text x="225" y="225" text-anchor="middle" alignment-baseline="middle" fill="black">58</text><line x1="14" y1="41" x2="25" y2="66" stroke="black" stroke-width="1" /><line x1="12" y1="254" x2="25" y2="164" stroke="black" stroke-width="1" /><line x1="41" y1="207" x2="55" y2="185" stroke="black" stroke-width="1" /><line x1="60" y1="145" x2="74" y2="241" stroke="black" stroke-width="1" /><line x1="12" y1="115" x2="25" y2="91" stroke="black" stroke-width="1" /><line x1="12" y1="115" x2="55" y2="185" stroke="black" stroke-width="1" /><line x1="15" y1="203" x2="77" y2="216" stroke="black" stroke-width="1" /><line x1="15" y1="203" x2="25" y2="139" stroke="black" stroke-width="1" /><line x1="91" y1="186" x2="76" y2="121" stroke="black" stroke-width="1" /><line x1="91" y1="186" x2="25" y2="230" stroke="black" stroke-width="1" /><line x1="62" y1="96" x2="72" y2="47" stroke="black" stroke-width="1" /><line x1="62" y1="96" x2="92" y2="161" stroke="black" stroke-width="1" /><line x1="114" y1="24" x2="74" y2="72" stroke="black" stroke-width="1" /><line x1="114" y1="24" x2="121" y2="48" stroke="black" stroke-width="1" /><line x1="88" y1="96" x2="125" y2="110" stroke="black" stroke-width="1" /><line x1="88" y1="96" x2="77" y2="23" stroke="black" stroke-width="1" /><line x1="129" y1="159" x2="138" y2="184" stroke="black" stroke-width="1" /><line x1="129" y1="159" x2="123" y2="77" stroke="black" stroke-width="1" /><line x1="114" y1="207" x2="124" y2="256" stroke="black" stroke-width="1" /><line x1="114" y1="207" x2="125" y2="135" stroke="black" stroke-width="1" /><line x1="161" y1="258" x2="126" y2="232" stroke="black" stroke-width="1" /><line x1="161" y1="258" x2="162" y2="209" stroke="black" stroke-width="1" /><line x1="175" y1="185" x2="175" y2="138" stroke="black" stroke-width="1" /><line x1="175" y1="185" x2="175" y2="234" stroke="black" stroke-width="1" /><line x1="162" y1="114" x2="171" y2="68" stroke="black" stroke-width="1" /><line x1="162" y1="114" x2="189" y2="162" stroke="black" stroke-width="1" /><line x1="158" y1="44" x2="229" y2="24" stroke="black" stroke-width="1" /><line x1="158" y1="44" x2="192" y2="92" stroke="black" stroke-width="1" /><line x1="208" y1="67" x2="180" y2="21" stroke="black" stroke-width="1" /><line x1="208" y1="67" x2="241" y2="89" stroke="black" stroke-width="1" /><line x1="212" y1="138" x2="238" y2="162" stroke="black" stroke-width="1" /><line x1="212" y1="138" x2="241" y2="49" stroke="black" stroke-width="1" /><line x1="201" y1="187" x2="249" y2="261" stroke="black" stroke-width="1" /><line x1="201" y1="187" x2="237" y2="114" stroke="black" stroke-width="1" /><line x1="212" y1="261" x2="274" y2="236" stroke="black" stroke-width="1" /><line x1="212" y1="261" x2="238" y2="187" stroke="black" stroke-width="1" /><line x1="262" y1="212" x2="299" y2="260" stroke="black" stroke-width="1" /><line x1="262" y1="212" x2="288" y2="188" stroke="black" stroke-width="1" /><line x1="55" y1="185" x2="74" y2="241" stroke="black" stroke-width="1" /><line x1="55" y1="185" x2="77" y2="216" stroke="black" stroke-width="1" /><line x1="77" y1="216" x2="76" y2="121" stroke="black" stroke-width="1" /><line x1="76" y1="121" x2="72" y2="47" stroke="black" stroke-width="1" /><line x1="72" y1="47" x2="121" y2="48" stroke="black" stroke-width="1" /><line x1="121" y1="48" x2="125" y2="110" stroke="black" stroke-width="1" /><line x1="125" y1="110" x2="138" y2="184" stroke="black" stroke-width="1" /><line x1="138" y1="184" x2="124" y2="256" stroke="black" stroke-width="1" /><line x1="124" y1="256" x2="162" y2="209" stroke="black" stroke-width="1" /><line x1="162" y1="209" x2="175" y2="138" stroke="black" stroke-width="1" /><line x1="175" y1="138" x2="171" y2="68" stroke="black" stroke-width="1" /><line x1="171" y1="68" x2="229" y2="24" stroke="black" stroke-width="1" /><line x1="229" y1="24" x2="241" y2="89" stroke="black" stroke-width="1" /><line x1="241" y1="89" x2="238" y2="162" stroke="black" stroke-width="1" /><line x1="238" y1="162" x2="249" y2="261" stroke="black" stroke-width="1" /><line x1="249" y1="261" x2="274" y2="236" stroke="black" stroke-width="1" /><line x1="274" y1="236" x2="288" y2="188" stroke="black" stroke-width="1" /><line x1="25" y1="91" x2="25" y2="66" stroke="black" stroke-width="1" /><line x1="25" y1="91" x2="25" y2="139" stroke="black" stroke-width="1" /><line x1="25" y1="91" x2="25" y2="164" stroke="black" stroke-width="1" /><line x1="25" y1="139" x2="25" y2="230" stroke="black" stroke-width="1" /><line x1="25" y1="230" x2="92" y2="161" stroke="black" stroke-width="1" /><line x1="92" y1="161" x2="74" y2="72" stroke="black" stroke-width="1" /><line x1="74" y1="72" x2="77" y2="23" stroke="black" stroke-width="1" /><line x1="77" y1="23" x2="123" y2="77" stroke="black" stroke-width="1" /><line x1="123" y1="77" x2="125" y2="135" stroke="black" stroke-width="1" /><line x1="125" y1="135" x2="126" y2="232" stroke="black" stroke-width="1" /><line x1="126" y1="232" x2="175" y2="234" stroke="black" stroke-width="1" /><line x1="175" y1="234" x2="189" y2="162" stroke="black" stroke-width="1" /><line x1="189" y1="162" x2="192" y2="92" stroke="black" stroke-width="1" /><line x1="192" y1="92" x2="180" y2="21" stroke="black" stroke-width="1" /><line x1="180" y1="21" x2="241" y2="49" stroke="black" stroke-width="1" /><line x1="241" y1="49" x2="237" y2="114" stroke="black" stroke-width="1" /><line x1="237" y1="114" x2="238" y2="187" stroke="black" stroke-width="1" /><line x1="238" y1="187" x2="299" y2="260" stroke="black" stroke-width="1" /></svg>