<svg xmlns="http://www.w3.org/2000/svg" width="370" height="370"><rect x="0" y="0" width="370" height="370" fill="rgb(255,255,255)"></rect><rect x="0" y="0" width="350" height="350" fill="rgba(255,255,255,1)"></rect><rect x="0" y="30" width="25" height="25" fill="rgba(100,0,0,0.1)"></rect><text x="12" y="42" text-anchor="middle" alignment-baseline="middle" fill="black">0</text><rect x="0" y="153" width="25" height="25" fill="rgba(100,0,0,0.1)"></rect><text x="12" y="165" text-anchor="middle" alignment-baseline="middle" fill="black">1</text><rect x="0" y="227" width="25" height="25" fill="rgba(100,0,0,0.1)"></rect><text x="12" y="239" text-anchor="middle" alignment-baseline="middle" fill="black">2</text><rect x="25" y="153" width="25" height="25" fill="rgba(100,0,0,0.1)"></rect><text x="37" y="165" text-anchor="middle" alignment-baseline="middle" fill="black">3</text><rect x="47" y="79" width="25" height="25" fill="rgba(100,0,0,0.1)"></rect><text x="59" y="91" text-anchor="middle" alignment-baseline="middle" fill="black">4</text><rect x="44" y="30" width="25" height="25" fill="rgba(100,0,0,0.1)"></rect><text x="56" y="42" text-anchor="middle" alignment-baseline="middle" fill="black">5</text><rect x="75" y="30" width="25" height="25" fill="rgba(100,0,0,0.1)"></rect><text x="87" y="42" text-anchor="middle" alignment-baseline="middle" fill="black">6</text><rect x="98" y="121" width="25" height="25" fill="rgba(100,0,0,0.1)"></rect><text x="110" y="133" text-anchor="middle" alignment-baseline="middle" fill="black">7</text><rect x="97" y="189" width="25" height="25" fill="rgba(100,0,0,0.1)"></rect><text x="109" y="201" text-anchor="middle" alignment-baseline="middle" fill="black">8</text><rect x="158" y="212" width="25" height="25" fill="rgba(100,0,0,0.1)"></rect><text x="170" y="224" text-anchor="middle" alignment-baseline="middle" fill="black">9</text><rect x="149" y="145" width="25" height="25" fill="rgba(100,0,0,0.1)"></rect><text x="161" y="157" text-anchor="middle" alignment-baseline="middle" fill="black">10</text><rect x="147" y="73" width="25" height="25" fill="rgba(100,0,0,0.1)"></rect><text x="159" y="85" text-anchor="middle" alignment-baseline="middle" fill="black">11</text><rect x="201" y="21" width="25" height="25" fill="rgba(100,0,0,0.1)"></rect><text x="213" y="33" text-anchor="middle" alignment-baseline="middle" fill="black">12</text><rect x="223" y="52" width="25" height="25" fill="rgba(100,0,0,0.1)"></rect><text x="235" y="64" text-anchor="middle" alignment-baseline="middle" fill="black">13</text><rect x="215" y="114" width="25" height="25" fill="rgba(100,0,0,0.1)"></rect><text x="227" y="126" text-anchor="middle" alignment-baseline="middle" fill="black">14</text><rect x="223" y="167" width="25" height="25" fill="rgba(100,0,0,0.1)"></rect><text x="235" y="179" text-anchor="middle" alignment-baseline="middle" fill="black">15</text><rect x="0" y="79" width="50" height="25" fill="rgba(100,0,0,0.1)"></rect><text x="25" y="91" text-anchor="middle" alignment-baseline="middle" fill="black">16</text><rect x="0" y="129" width="50" height="25" fill="rgba(100,0,0,0.1)"></rect><text x="25" y="141" text-anchor="middle" alignment-baseline="middle" fill="black">17</text><rect x="0" y="202" width="50" height="25" fill="rgba(100,0,0,0.1)"></rect><text x="25" y="214" text-anchor="middle" alignment-baseline="middle" fill="black">18</text><rect x="49" y="171" width="50" height="25" fill="rgba(100,0,0,0.1)"></rect><text x="74" y="183" text-anchor="middle" alignment-baseline="middle" fill="black">19</text><rect x="48" y="121" width="50" height="25" fill="rgba(100,0,0,0.1)"></rect><text x="73" y="133" text-anchor="middle" alignment-baseline="middle" fill="black">20</text><rect x="50" y="55" width="50" height="25" fill="rgba(100,0,0,0.1)"></rect><text x="75" y="67" text-anchor="middle" alignment-baseline="middle" fill="black">21</text><rect x="100" y="25" width="50" height="25" fill="rgba(100,0,0,0.1)"></rect><text x="125" y="37" text-anchor="middle" alignment-baseline="middle" fill="black">22</text><rect x="99" y="74" width="50" height="25" fill="rgba(100,0,0,0.1)"></rect><text x="124" y="86" text-anchor="middle" alignment-baseline="middle" fill="black">23</text><rect x="99" y="145" width="50" height="25" fill="rgba(100,0,0,0.1)"></rect><text x="124" y="157" text-anchor="middle" alignment-baseline="middle" fill="black">24</text><rect x="109" y="213" width="50" height="25" fill="rgba(100,0,0,0.1)"></rect><text x="134" y="225" text-anchor="middle" alignment-baseline="middle" fill="black">25</text><rect x="172" y="163" width="50" height="25" fill="rgba(100,0,0,0.1)"></rect><text x="197" y="175" text-anchor="middle" alignment-baseline="middle" fill="black">26</text><rect x="166" y="95" width="50" height="25" fill="rgba(100,0,0,0.1)"></rect><text x="191" y="107" text-anchor="middle" alignment-baseline="middle" fill="black">27</text><rect x="174" y="46" width="50" height="25" fill="rgba(100,0,0,0.1)"></rect><text x="199" y="58" text-anchor="middle" alignment-baseline="middle" fill="black">28</text><rect x="229" y="28" width="50" height="25" fill="rgba(100,0,0,0.1)"></rect><text x="254" y="40" text-anchor="middle" alignment-baseline="middle" fill="black">29</text><rect x="240" y="102" width="50" height="25" fill="rgba(100,0,0,0.1)"></rect><text x="265" y="114" text-anchor="middle" alignment-baseline="middle" fill="black">30</text><rect x="248" y="163" width="50" height="25" fill="rgba(100,0,0,0.1)"></rect><text x="273" y="175" text-anchor="middle" alignment-baseline="middle" fill="black">31</text><rect x="0" y="54" width="50" height="25" fill="rgba(100,0,0,0.1)"></rect><text x="25" y="66" text-anchor="middle" alignment-baseline="middle" fill="black">32</text><rect x="0" y="104" width="50" height="25" fill="rgba(100,0,0,0.1)"></rect><text x="25" y="116" text-anchor="middle" alignment-baseline="middle" fill="black">33</text><rect x="0" y="177" width="50" height="25" fill="rgba(100,0,0,0.1)"></rect><text x="25" y="189" text-anchor="middle" alignment-baseline="middle" fill="black">34</text><rect x="48" y="196" width="50" height="25" fill="rgba(100,0,0,0.1)"></rect><text x="73" y="208" text-anchor="middle" alignment-baseline="middle" fill="black">35</text><rect x="50" y="146" width="50" height="25" fill="rgba(100,0,0,0.1)"></rect><text x="75" y="158" text-anchor="middle" alignment-baseline="middle" fill="black">36</text><rect x="65" y="97" width="50" height="25" fill="rgba(100,0,0,0.1)"></rect><text x="90" y="109" text-anchor="middle" alignment-baseline="middle" fill="black">37</text><rect x="50" y="6" width="50" height="25" fill="rgba(100,0,0,0.1)"></rect><text x="75" y="18" text-anchor="middle" alignment-baseline="middle" fill="black">38</text><rect x="100" y="49" width="50" height="25" fill="rgba(100,0,0,0.1)"></rect><text x="125" y="61" text-anchor="middle" alignment-baseline="middle" fill="black">39</text><rect x="115" y="99" width="50" height="25" fill="rgba(100,0,0,0.1)"></rect><text x="140" y="111" text-anchor="middle" alignment-baseline="middle" fill="black">40</text><rect x="113" y="169" width="50" height="25" fill="rgba(100,0,0,0.1)"></rect><text x="138" y="181" text-anchor="middle" alignment-baseline="middle" fill="black">41</text><rect x="154" y="187" width="50" height="25" fill="rgba(100,0,0,0.1)"></rect><text x="179" y="199" text-anchor="middle" alignment-baseline="middle" fill="black">42</text><rect x="162" y="120" width="50" height="25" fill="rgba(100,0,0,0.1)"></rect><text x="187" y="132" text-anchor="middle" alignment-baseline="middle" fill="black">43</text><rect x="171" y="70" width="50" height="25" fill="rgba(100,0,0,0.1)"></rect><text x="196" y="82" text-anchor="middle" alignment-baseline="middle" fill="black">44</text><rect x="151" y="21" width="50" height="25" fill="rgba(100,0,0,0.1)"></rect><text x="176" y="33" text-anchor="middle" alignment-baseline="middle" fill="black">45</text><rect x="220" y="77" width="50" height="25" fill="rgba(100,0,0,0.1)"></rect><text x="245" y="89" text-anchor="middle" alignment-baseline="middle" fill="black">46</text><rect x="212" y="138" width="50" height="25" fill="rgba(100,0,0,0.1)"></rect><text x="237" y="150" text-anchor="middle" alignment-baseline="middle" fill="black">47</text><rect x="200" y="200" width="50" height="50" fill="rgba(100,0,0,0.1)"></rect><text x="225" y="225" text-anchor="middle" alignment-baseline="middle" fill="black">48</text><line x1="12" y1="42" x2="25" y2="67" stroke="black" stroke-width="1" /><line x1="12" y1="42" x2="25" y2="92" stroke="black" stroke-width="1" /><line x1="12" y1="165" x2="25" y2="116" stroke="black" stroke-width="1" /><line x1="12" y1="165" x2="25" y2="141" stroke="black" stroke-width="1" /><line x1="12" y1="239" x2="25" y2="215" stroke="black" stroke-width="1" /><line x1="12" y1="239" x2="25" y2="190" stroke="black" stroke-width="1" /><line x1="38" y1="166" x2="74" y2="184" stroke="black" stroke-width="1" /><line x1="38" y1="166" x2="73" y2="208" stroke="black" stroke-width="1" /><line x1="60" y1="92" x2="75" y2="159" stroke="black" stroke-width="1" /><line x1="60" y1="92" x2="73" y2="134" stroke="black" stroke-width="1" /><line x1="56" y1="43" x2="90" y2="110" stroke="black" stroke-width="1" /><line x1="56" y1="43" x2="75" y2="67" stroke="black" stroke-width="1" /><line x1="88" y1="42" x2="125" y2="37" stroke="black" stroke-width="1" /><line x1="88" y1="42" x2="75" y2="18" stroke="black" stroke-width="1" /><line x1="110" y1="134" x2="124" y2="87" stroke="black" stroke-width="1" /><line x1="110" y1="134" x2="125" y2="62" stroke="black" stroke-width="1" /><line x1="109" y1="202" x2="140" y2="111" stroke="black" stroke-width="1" /><line x1="109" y1="202" x2="124" y2="158" stroke="black" stroke-width="1" /><line x1="170" y1="225" x2="138" y2="182" stroke="black" stroke-width="1" /><line x1="170" y1="225" x2="134" y2="225" stroke="black" stroke-width="1" /><line x1="162" y1="157" x2="197" y2="175" stroke="black" stroke-width="1" /><line x1="162" y1="157" x2="179" y2="200" stroke="black" stroke-width="1" /><line x1="160" y1="85" x2="191" y2="108" stroke="black" stroke-width="1" /><line x1="160" y1="85" x2="187" y2="133" stroke="black" stroke-width="1" /><line x1="213" y1="33" x2="196" y2="83" stroke="black" stroke-width="1" /><line x1="213" y1="33" x2="199" y2="58" stroke="black" stroke-width="1" /><line x1="236" y1="65" x2="176" y2="34" stroke="black" stroke-width="1" /><line x1="236" y1="65" x2="254" y2="40" stroke="black" stroke-width="1" /><line x1="228" y1="126" x2="265" y2="114" stroke="black" stroke-width="1" /><line x1="228" y1="126" x2="245" y2="90" stroke="black" stroke-width="1" /><line x1="236" y1="180" x2="273" y2="176" stroke="black" stroke-width="1" /><line x1="236" y1="180" x2="237" y2="151" stroke="black" stroke-width="1" /><line x1="25" y1="92" x2="25" y2="141" stroke="black" stroke-width="1" /><line x1="25" y1="141" x2="25" y2="215" stroke="black" stroke-width="1" /><line x1="25" y1="215" x2="74" y2="184" stroke="black" stroke-width="1" /><line x1="74" y1="184" x2="73" y2="134" stroke="black" stroke-width="1" /><line x1="73" y1="134" x2="75" y2="67" stroke="black" stroke-width="1" /><line x1="75" y1="67" x2="125" y2="37" stroke="black" stroke-width="1" /><line x1="125" y1="37" x2="124" y2="87" stroke="black" stroke-width="1" /><line x1="124" y1="87" x2="124" y2="158" stroke="black" stroke-width="1" /><line x1="124" y1="158" x2="134" y2="225" stroke="black" stroke-width="1" /><line x1="134" y1="225" x2="197" y2="175" stroke="black" stroke-width="1" /><line x1="197" y1="175" x2="191" y2="108" stroke="black" stroke-width="1" /><line x1="191" y1="108" x2="199" y2="58" stroke="black" stroke-width="1" /><line x1="199" y1="58" x2="254" y2="40" stroke="black" stroke-width="1" /><line x1="254" y1="40" x2="265" y2="114" stroke="black" stroke-width="1" /><line x1="265" y1="114" x2="273" y2="176" stroke="black" stroke-width="1" /><line x1="25" y1="67" x2="25" y2="116" stroke="black" stroke-width="1" /><line x1="25" y1="116" x2="25" y2="190" stroke="black" stroke-width="1" /><line x1="25" y1="190" x2="73" y2="208" stroke="black" stroke-width="1" /><line x1="73" y1="208" x2="75" y2="159" stroke="black" stroke-width="1" /><line x1="75" y1="159" x2="90" y2="110" stroke="black" stroke-width="1" /><line x1="90" y1="110" x2="75" y2="18" stroke="black" stroke-width="1" /><line x1="75" y1="18" x2="125" y2="62" stroke="black" stroke-width="1" /><line x1="125" y1="62" x2="140" y2="111" stroke="black" stroke-width="1" /><line x1="140" y1="111" x2="138" y2="182" stroke="black" stroke-width="1" /><line x1="138" y1="182" x2="179" y2="200" stroke="black" stroke-width="1" /><line x1="179" y1="200" x2="187" y2="133" stroke="black" stroke-width="1" /><line x1="187" y1="133" x2="196" y2="83" stroke="black" stroke-width="1" /><line x1="196" y1="83" x2="176" y2="34" stroke="black" stroke-width="1" /><line x1="176" y1="34" x2="245" y2="90" stroke="black" stroke-width="1" /><line x1="245" y1="90" x2="237" y2="151" stroke="black" stroke-width="1" /></svg>