<svg xmlns="http://www.w3.org/2000/svg" width="370" height="370"><rect x="0" y="0" width="370" height="370" fill="rgb(255,255,255)"></rect><rect x="0" y="0" width="350" height="350" fill="rgba(255,255,255,1)"></rect><rect x="2" y="31" width="25" height="25" fill="rgba(100,0,0,0.1)"></rect><text x="14" y="43" text-anchor="middle" alignment-baseline="middle" fill="black">0</text><rect x="24" y="189" width="25" height="25" fill="rgba(100,0,0,0.1)"></rect><text x="36" y="201" text-anchor="middle" alignment-baseline="middle" fill="black">1</text><rect x="0" y="166" width="25" height="25" fill="rgba(100,0,0,0.1)"></rect><text x="12" y="178" text-anchor="middle" alignment-baseline="middle" fill="black">2</text><rect x="73" y="156" width="25" height="25" fill="rgba(100,0,0,0.1)"></rect><text x="85" y="168" text-anchor="middle" alignment-baseline="middle" fill="black">3</text><rect x="0" y="86" width="25" height="25" fill="rgba(100,0,0,0.1)"></rect><text x="12" y="98" text-anchor="middle" alignment-baseline="middle" fill="black">4</text><rect x="0" y="191" width="25" height="25" fill="rgba(100,0,0,0.1)"></rect><text x="12" y="203" text-anchor="middle" alignment-baseline="middle" fill="black">5</text><rect x="47" y="201" width="25" height="25" fill="rgba(100,0,0,0.1)"></rect><text x="59" y="213" text-anchor="middle" alignment-baseline="middle" fill="black">6</text><rect x="50" y="135" width="25" height="25" fill="rgba(100,0,0,0.1)"></rect><text x="62" y="147" text-anchor="middle" alignment-baseline="middle" fill="black">7</text><rect x="50" y="61" width="25" height="25" fill="rgba(100,0,0,0.1)"></rect><text x="62" y="73" text-anchor="middle" alignment-baseline="middle" fill="black">8</text><rect x="93" y="8" width="25" height="25" fill="rgba(100,0,0,0.1)"></rect><text x="105" y="20" text-anchor="middle" alignment-baseline="middle" fill="black">9</text><rect x="94" y="98" width="25" height="25" fill="rgba(100,0,0,0.1)"></rect><text x="106" y="110" text-anchor="middle" alignment-baseline="middle" fill="black">10</text><rect x="102" y="170" width="25" height="25" fill="rgba(100,0,0,0.1)"></rect><text x="114" y="182" text-anchor="middle" alignment-baseline="middle" fill="black">11</text><rect x="105" y="219" width="25" height="25" fill="rgba(100,0,0,0.1)"></rect><text x="117" y="231" text-anchor="middle" alignment-baseline="middle" fill="black">12</text><rect x="149" y="267" width="25" height="25" fill="rgba(100,0,0,0.1)"></rect><text x="161" y="279" text-anchor="middle" alignment-baseline="middle" fill="black">13</text><rect x="137" y="171" width="25" height="25" fill="rgba(100,0,0,0.1)"></rect><text x="149" y="183" text-anchor="middle" alignment-baseline="middle" fill="black">14</text><rect x="147" y="127" width="25" height="25" fill="rgba(100,0,0,0.1)"></rect><text x="159" y="139" text-anchor="middle" alignment-baseline="middle" fill="black">15</text><rect x="140" y="55" width="25" height="25" fill="rgba(100,0,0,0.1)"></rect><text x="152" y="67" text-anchor="middle" alignment-baseline="middle" fill="black">16</text><rect x="195" y="10" width="25" height="25" fill="rgba(100,0,0,0.1)"></rect><text x="207" y="22" text-anchor="middle" alignment-baseline="middle" fill="black">17</text><rect x="198" y="102" width="25" height="25" fill="rgba(100,0,0,0.1)"></rect><text x="210" y="114" text-anchor="middle" alignment-baseline="middle" fill="black">18</text><rect x="199" y="174" width="25" height="25" fill="rgba(100,0,0,0.1)"></rect><text x="211" y="186" text-anchor="middle" alignment-baseline="middle" fill="black">19</text><rect x="202" y="248" width="25" height="25" fill="rgba(100,0,0,0.1)"></rect><text x="214" y="260" text-anchor="middle" alignment-baseline="middle" fill="black">20</text><rect x="254" y="273" width="25" height="25" fill="rgba(100,0,0,0.1)"></rect><text x="266" y="285" text-anchor="middle" alignment-baseline="middle" fill="black">21</text><rect x="0" y="62" width="50" height="25" fill="rgba(100,0,0,0.1)"></rect><text x="25" y="74" text-anchor="middle" alignment-baseline="middle" fill="black">22</text><rect x="0" y="136" width="50" height="25" fill="rgba(100,0,0,0.1)"></rect><text x="25" y="148" text-anchor="middle" alignment-baseline="middle" fill="black">23</text><rect x="2" y="214" width="50" height="25" fill="rgba(100,0,0,0.1)"></rect><text x="27" y="226" text-anchor="middle" alignment-baseline="middle" fill="black">24</text><rect x="56" y="222" width="50" height="25" fill="rgba(100,0,0,0.1)"></rect><text x="81" y="234" text-anchor="middle" alignment-baseline="middle" fill="black">25</text><rect x="48" y="111" width="50" height="25" fill="rgba(100,0,0,0.1)"></rect><text x="73" y="123" text-anchor="middle" alignment-baseline="middle" fill="black">26</text><rect x="44" y="36" width="50" height="25" fill="rgba(100,0,0,0.1)"></rect><text x="69" y="48" text-anchor="middle" alignment-baseline="middle" fill="black">27</text><rect x="95" y="32" width="50" height="25" fill="rgba(100,0,0,0.1)"></rect><text x="120" y="44" text-anchor="middle" alignment-baseline="middle" fill="black">28</text><rect x="111" y="80" width="50" height="25" fill="rgba(100,0,0,0.1)"></rect><text x="136" y="92" text-anchor="middle" alignment-baseline="middle" fill="black">29</text><rect x="99" y="147" width="50" height="25" fill="rgba(100,0,0,0.1)"></rect><text x="124" y="159" text-anchor="middle" alignment-baseline="middle" fill="black">30</text><rect x="103" y="242" width="50" height="25" fill="rgba(100,0,0,0.1)"></rect><text x="128" y="254" text-anchor="middle" alignment-baseline="middle" fill="black">31</text><rect x="152" y="242" width="50" height="25" fill="rgba(100,0,0,0.1)"></rect><text x="177" y="254" text-anchor="middle" alignment-baseline="middle" fill="black">32</text><rect x="151" y="193" width="50" height="25" fill="rgba(100,0,0,0.1)"></rect><text x="176" y="205" text-anchor="middle" alignment-baseline="middle" fill="black">33</text><rect x="149" y="103" width="50" height="25" fill="rgba(100,0,0,0.1)"></rect><text x="174" y="115" text-anchor="middle" alignment-baseline="middle" fill="black">34</text><rect x="163" y="36" width="50" height="25" fill="rgba(100,0,0,0.1)"></rect><text x="188" y="48" text-anchor="middle" alignment-baseline="middle" fill="black">35</text><rect x="213" y="34" width="50" height="25" fill="rgba(100,0,0,0.1)"></rect><text x="238" y="46" text-anchor="middle" alignment-baseline="middle" fill="black">36</text><rect x="220" y="84" width="50" height="25" fill="rgba(100,0,0,0.1)"></rect><text x="245" y="96" text-anchor="middle" alignment-baseline="middle" fill="black">37</text><rect x="215" y="151" width="50" height="25" fill="rgba(100,0,0,0.1)"></rect><text x="240" y="163" text-anchor="middle" alignment-baseline="middle" fill="black">38</text><rect x="228" y="248" width="50" height="25" fill="rgba(100,0,0,0.1)"></rect><text x="253" y="260" text-anchor="middle" alignment-baseline="middle" fill="black">39</text><rect x="21" y="160" width="50" height="25" fill="rgba(100,0,0,0.1)"></rect><text x="46" y="172" text-anchor="middle" alignment-baseline="middle" fill="black">40</text><rect x="2" y="262" width="50" height="25" fill="rgba(100,0,0,0.1)"></rect><text x="27" y="274" text-anchor="middle" alignment-baseline="middle" fill="black">41</text><rect x="55" y="180" width="50" height="25" fill="rgba(100,0,0,0.1)"></rect><text x="80" y="192" text-anchor="middle" alignment-baseline="middle" fill="black">42</text><rect x="45" y="86" width="50" height="25" fill="rgba(100,0,0,0.1)"></rect><text x="70" y="98" text-anchor="middle" alignment-baseline="middle" fill="black">43</text><rect x="43" y="12" width="50" height="25" fill="rgba(100,0,0,0.1)"></rect><text x="68" y="24" text-anchor="middle" alignment-baseline="middle" fill="black">44</text><rect x="85" y="57" width="50" height="25" fill="rgba(100,0,0,0.1)"></rect><text x="110" y="69" text-anchor="middle" alignment-baseline="middle" fill="black">45</text><rect x="98" y="122" width="50" height="25" fill="rgba(100,0,0,0.1)"></rect><text x="123" y="134" text-anchor="middle" alignment-baseline="middle" fill="black">46</text><rect x="101" y="195" width="50" height="25" fill="rgba(100,0,0,0.1)"></rect><text x="126" y="207" text-anchor="middle" alignment-baseline="middle" fill="black">47</text><rect x="99" y="267" width="50" height="25" fill="rgba(100,0,0,0.1)"></rect><text x="124" y="279" text-anchor="middle" alignment-baseline="middle" fill="black">48</text><rect x="140" y="218" width="50" height="25" fill="rgba(100,0,0,0.1)"></rect><text x="165" y="230" text-anchor="middle" alignment-baseline="middle" fill="black">49</text><rect x="160" y="150" width="50" height="25" fill="rgba(100,0,0,0.1)"></rect><text x="185" y="162" text-anchor="middle" alignment-baseline="middle" fill="black">50</text><rect x="160" y="78" width="50" height="25" fill="rgba(100,0,0,0.1)"></rect><text x="185" y="90" text-anchor="middle" alignment-baseline="middle" fill="black">51</text><rect x="145" y="12" width="50" height="25" fill="rgba(100,0,0,0.1)"></rect><text x="170" y="24" text-anchor="middle" alignment-baseline="middle" fill="black">52</text><rect x="206" y="59" width="50" height="25" fill="rgba(100,0,0,0.1)"></rect><text x="231" y="71" text-anchor="middle" alignment-baseline="middle" fill="black">53</text><rect x="213" y="126" width="50" height="25" fill="rgba(100,0,0,0.1)"></rect><text x="238" y="138" text-anchor="middle" alignment-baseline="middle" fill="black">54</text><rect x="224" y="175" width="50" height="25" fill="rgba(100,0,0,0.1)"></rect><text x="249" y="187" text-anchor="middle" alignment-baseline="middle" fill="black">55</text><rect x="204" y="273" width="50" height="25" fill="rgba(100,0,0,0.1)"></rect><text x="229" y="285" text-anchor="middle" alignment-baseline="middle" fill="black">56</text><rect x="277" y="251" width="50" height="25" fill="rgba(100,0,0,0.1)"></rect><text x="302" y="263" text-anchor="middle" alignment-baseline="middle" fill="black">57</text><rect x="50" y="246" width="50" height="25" fill="rgba(100,0,0,0.1)"></rect><text x="75" y="258" text-anchor="middle" alignment-baseline="middle" fill="black">58</text><rect x="0" y="111" width="50" height="25" fill="rgba(100,0,0,0.1)"></rect><text x="25" y="123" text-anchor="middle" alignment-baseline="middle" fill="black">59</text><rect x="0" y="238" width="50" height="25" fill="rgba(100,0,0,0.1)"></rect><text x="25" y="250" text-anchor="middle" alignment-baseline="middle" fill="black">60</text><rect x="200" y="200" width="50" height="50" fill="rgba(100,0,0,0.1)"></rect><text x="225" y="225" text-anchor="middle" alignment-baseline="middle" fill="black">61</text><line x1="14" y1="43" x2="25" y2="74" stroke="black" stroke-width="1" /><line x1="36" y1="202" x2="25" y2="251" stroke="black" stroke-width="1" /><line x1="12" y1="179" x2="25" y2="123" stroke="black" stroke-width="1" /><line x1="86" y1="168" x2="75" y2="259" stroke="black" stroke-width="1" /><line x1="12" y1="99" x2="46" y2="172" stroke="black" stroke-width="1" /><line x1="12" y1="99" x2="25" y2="74" stroke="black" stroke-width="1" /><line x1="12" y1="203" x2="25" y2="148" stroke="black" stroke-width="1" /><line x1="12" y1="203" x2="27" y2="275" stroke="black" stroke-width="1" /><line x1="60" y1="214" x2="27" y2="227" stroke="black" stroke-width="1" /><line x1="60" y1="214" x2="80" y2="193" stroke="black" stroke-width="1" /><line x1="62" y1="148" x2="81" y2="234" stroke="black" stroke-width="1" /><line x1="62" y1="148" x2="70" y2="98" stroke="black" stroke-width="1" /><line x1="62" y1="73" x2="68" y2="24" stroke="black" stroke-width="1" /><line x1="62" y1="73" x2="73" y2="123" stroke="black" stroke-width="1" /><line x1="105" y1="20" x2="69" y2="49" stroke="black" stroke-width="1" /><line x1="105" y1="20" x2="110" y2="69" stroke="black" stroke-width="1" /><line x1="107" y1="111" x2="120" y2="45" stroke="black" stroke-width="1" /><line x1="107" y1="111" x2="123" y2="135" stroke="black" stroke-width="1" /><line x1="115" y1="183" x2="136" y2="93" stroke="black" stroke-width="1" /><line x1="115" y1="183" x2="126" y2="207" stroke="black" stroke-width="1" /><line x1="117" y1="231" x2="124" y2="279" stroke="black" stroke-width="1" /><line x1="117" y1="231" x2="124" y2="159" stroke="black" stroke-width="1" /><line x1="162" y1="279" x2="128" y2="255" stroke="black" stroke-width="1" /><line x1="162" y1="279" x2="165" y2="230" stroke="black" stroke-width="1" /><line x1="150" y1="183" x2="177" y2="255" stroke="black" stroke-width="1" /><line x1="150" y1="183" x2="185" y2="163" stroke="black" stroke-width="1" /><line x1="160" y1="140" x2="176" y2="205" stroke="black" stroke-width="1" /><line x1="160" y1="140" x2="185" y2="91" stroke="black" stroke-width="1" /><line x1="152" y1="68" x2="170" y2="25" stroke="black" stroke-width="1" /><line x1="152" y1="68" x2="174" y2="115" stroke="black" stroke-width="1" /><line x1="208" y1="23" x2="188" y2="49" stroke="black" stroke-width="1" /><line x1="208" y1="23" x2="231" y2="71" stroke="black" stroke-width="1" /><line x1="211" y1="115" x2="238" y2="47" stroke="black" stroke-width="1" /><line x1="211" y1="115" x2="238" y2="138" stroke="black" stroke-width="1" /><line x1="212" y1="186" x2="245" y2="96" stroke="black" stroke-width="1" /><line x1="212" y1="186" x2="249" y2="188" stroke="black" stroke-width="1" /><line x1="214" y1="261" x2="229" y2="285" stroke="black" stroke-width="1" /><line x1="214" y1="261" x2="240" y2="163" stroke="black" stroke-width="1" /><line x1="266" y1="285" x2="253" y2="261" stroke="black" stroke-width="1" /><line x1="266" y1="285" x2="302" y2="264" stroke="black" stroke-width="1" /><line x1="25" y1="74" x2="25" y2="123" stroke="black" stroke-width="1" /><line x1="25" y1="74" x2="25" y2="148" stroke="black" stroke-width="1" /><line x1="25" y1="148" x2="27" y2="227" stroke="black" stroke-width="1" /><line x1="27" y1="227" x2="81" y2="234" stroke="black" stroke-width="1" /><line x1="81" y1="234" x2="73" y2="123" stroke="black" stroke-width="1" /><line x1="73" y1="123" x2="69" y2="49" stroke="black" stroke-width="1" /><line x1="69" y1="49" x2="120" y2="45" stroke="black" stroke-width="1" /><line x1="120" y1="45" x2="136" y2="93" stroke="black" stroke-width="1" /><line x1="136" y1="93" x2="124" y2="159" stroke="black" stroke-width="1" /><line x1="124" y1="159" x2="128" y2="255" stroke="black" stroke-width="1" /><line x1="128" y1="255" x2="177" y2="255" stroke="black" stroke-width="1" /><line x1="177" y1="255" x2="176" y2="205" stroke="black" stroke-width="1" /><line x1="176" y1="205" x2="174" y2="115" stroke="black" stroke-width="1" /><line x1="174" y1="115" x2="188" y2="49" stroke="black" stroke-width="1" /><line x1="188" y1="49" x2="238" y2="47" stroke="black" stroke-width="1" /><line x1="238" y1="47" x2="245" y2="96" stroke="black" stroke-width="1" /><line x1="245" y1="96" x2="240" y2="163" stroke="black" stroke-width="1" /><line x1="240" y1="163" x2="253" y2="261" stroke="black" stroke-width="1" /><line x1="46" y1="172" x2="25" y2="251" stroke="black" stroke-width="1" /><line x1="46" y1="172" x2="27" y2="275" stroke="black" stroke-width="1" /><line x1="46" y1="172" x2="75" y2="259" stroke="black" stroke-width="1" /><line x1="27" y1="275" x2="80" y2="193" stroke="black" stroke-width="1" /><line x1="80" y1="193" x2="70" y2="98" stroke="black" stroke-width="1" /><line x1="70" y1="98" x2="68" y2="24" stroke="black" stroke-width="1" /><line x1="68" y1="24" x2="110" y2="69" stroke="black" stroke-width="1" /><line x1="110" y1="69" x2="123" y2="135" stroke="black" stroke-width="1" /><line x1="123" y1="135" x2="126" y2="207" stroke="black" stroke-width="1" /><line x1="126" y1="207" x2="124" y2="279" stroke="black" stroke-width="1" /><line x1="124" y1="279" x2="165" y2="230" stroke="black" stroke-width="1" /><line x1="165" y1="230" x2="185" y2="163" stroke="black" stroke-width="1" /><line x1="185" y1="163" x2="185" y2="91" stroke="black" stroke-width="1" /><line x1="185" y1="91" x2="170" y2="25" stroke="black" stroke-width="1" /><line x1="170" y1="25" x2="231" y2="71" stroke="black" stroke-width="1" /><line x1="231" y1="71" x2="238" y2="138" stroke="black" stroke-width="1" /><line x1="238" y1="138" x2="249" y2="188" stroke="black" stroke-width="1" /><line x1="249" y1="188" x2="229" y2="285" stroke="black" stroke-width="1" /><line x1="229" y1="285" x2="302" y2="264" stroke="black" stroke-width="1" /></svg>