<svg xmlns="http://www.w3.org/2000/svg" width="370" height="370"><rect x="0" y="0" width="370" height="370" fill="rgb(255,255,255)"></rect><rect x="0" y="0" width="350" height="350" fill="rgba(255,255,255,1)"></rect><rect x="0" y="29" width="25" height="25" fill="rgba(100,0,0,0.1)"></rect><text x="12" y="41" text-anchor="middle" alignment-baseline="middle" fill="black">0</text><rect x="0" y="175" width="25" height="25" fill="rgba(100,0,0,0.1)"></rect><text x="12" y="187" text-anchor="middle" alignment-baseline="middle" fill="black">1</text><rect x="48" y="143" width="25" height="25" fill="rgba(100,0,0,0.1)"></rect><text x="60" y="155" text-anchor="middle" alignment-baseline="middle" fill="black">2</text><rect x="24" y="199" width="25" height="25" fill="rgba(100,0,0,0.1)"></rect><text x="36" y="211" text-anchor="middle" alignment-baseline="middle" fill="black">3</text><rect x="0" y="102" width="25" height="25" fill="rgba(100,0,0,0.1)"></rect><text x="12" y="114" text-anchor="middle" alignment-baseline="middle" fill="black">4</text><rect x="0" y="199" width="25" height="25" fill="rgba(100,0,0,0.1)"></rect><text x="12" y="211" text-anchor="middle" alignment-baseline="middle" fill="black">5</text><rect x="74" y="173" width="25" height="25" fill="rgba(100,0,0,0.1)"></rect><text x="86" y="185" text-anchor="middle" alignment-baseline="middle" fill="black">6</text><rect x="50" y="91" width="25" height="25" fill="rgba(100,0,0,0.1)"></rect><text x="62" y="103" text-anchor="middle" alignment-baseline="middle" fill="black">7</text><rect x="103" y="20" width="25" height="25" fill="rgba(100,0,0,0.1)"></rect><text x="115" y="32" text-anchor="middle" alignment-baseline="middle" fill="black">8</text><rect x="75" y="90" width="25" height="25" fill="rgba(100,0,0,0.1)"></rect><text x="87" y="102" text-anchor="middle" alignment-baseline="middle" fill="black">9</text><rect x="127" y="148" width="25" height="25" fill="rgba(100,0,0,0.1)"></rect><text x="139" y="160" text-anchor="middle" alignment-baseline="middle" fill="black">10</text><rect x="98" y="193" width="25" height="25" fill="rgba(100,0,0,0.1)"></rect><text x="110" y="205" text-anchor="middle" alignment-baseline="middle" fill="black">11</text><rect x="151" y="247" width="25" height="25" fill="rgba(100,0,0,0.1)"></rect><text x="163" y="259" text-anchor="middle" alignment-baseline="middle" fill="black">12</text><rect x="170" y="172" width="25" height="25" fill="rgba(100,0,0,0.1)"></rect><text x="182" y="184" text-anchor="middle" alignment-baseline="middle" fill="black">13</text><rect x="150" y="99" width="25" height="25" fill="rgba(100,0,0,0.1)"></rect><text x="162" y="111" text-anchor="middle" alignment-baseline="middle" fill="black">14</text><rect x="148" y="35" width="25" height="25" fill="rgba(100,0,0,0.1)"></rect><text x="160" y="47" text-anchor="middle" alignment-baseline="middle" fill="black">15</text><rect x="197" y="52" width="25" height="25" fill="rgba(100,0,0,0.1)"></rect><text x="209" y="64" text-anchor="middle" alignment-baseline="middle" fill="black">16</text><rect x="202" y="123" width="25" height="25" fill="rgba(100,0,0,0.1)"></rect><text x="214" y="135" text-anchor="middle" alignment-baseline="middle" fill="black">17</text><rect x="199" y="175" width="25" height="25" fill="rgba(100,0,0,0.1)"></rect><text x="211" y="187" text-anchor="middle" alignment-baseline="middle" fill="black">18</text><rect x="212" y="249" width="25" height="25" fill="rgba(100,0,0,0.1)"></rect><text x="224" y="261" text-anchor="middle" alignment-baseline="middle" fill="black">19</text><rect x="250" y="199" width="25" height="25" fill="rgba(100,0,0,0.1)"></rect><text x="262" y="211" text-anchor="middle" alignment-baseline="middle" fill="black">20</text><rect x="25" y="174" width="50" height="25" fill="rgba(100,0,0,0.1)"></rect><text x="50" y="186" text-anchor="middle" alignment-baseline="middle" fill="black">21</text><rect x="49" y="198" width="50" height="25" fill="rgba(100,0,0,0.1)"></rect><text x="74" y="210" text-anchor="middle" alignment-baseline="middle" fill="black">22</text><rect x="49" y="116" width="50" height="25" fill="rgba(100,0,0,0.1)"></rect><text x="74" y="128" text-anchor="middle" alignment-baseline="middle" fill="black">23</text><rect x="49" y="42" width="50" height="25" fill="rgba(100,0,0,0.1)"></rect><text x="74" y="54" text-anchor="middle" alignment-baseline="middle" fill="black">24</text><rect x="98" y="45" width="50" height="25" fill="rgba(100,0,0,0.1)"></rect><text x="123" y="57" text-anchor="middle" alignment-baseline="middle" fill="black">25</text><rect x="100" y="99" width="50" height="25" fill="rgba(100,0,0,0.1)"></rect><text x="125" y="111" text-anchor="middle" alignment-baseline="middle" fill="black">26</text><rect x="120" y="173" width="50" height="25" fill="rgba(100,0,0,0.1)"></rect><text x="145" y="185" text-anchor="middle" alignment-baseline="middle" fill="black">27</text><rect x="101" y="242" width="50" height="25" fill="rgba(100,0,0,0.1)"></rect><text x="126" y="254" text-anchor="middle" alignment-baseline="middle" fill="black">28</text><rect x="149" y="197" width="50" height="25" fill="rgba(100,0,0,0.1)"></rect><text x="174" y="209" text-anchor="middle" alignment-baseline="middle" fill="black">29</text><rect x="148" y="123" width="50" height="25" fill="rgba(100,0,0,0.1)"></rect><text x="173" y="135" text-anchor="middle" alignment-baseline="middle" fill="black">30</text><rect x="148" y="60" width="50" height="25" fill="rgba(100,0,0,0.1)"></rect><text x="173" y="72" text-anchor="middle" alignment-baseline="middle" fill="black">31</text><rect x="210" y="28" width="50" height="25" fill="rgba(100,0,0,0.1)"></rect><text x="235" y="40" text-anchor="middle" alignment-baseline="middle" fill="black">32</text><rect x="225" y="78" width="50" height="25" fill="rgba(100,0,0,0.1)"></rect><text x="250" y="90" text-anchor="middle" alignment-baseline="middle" fill="black">33</text><rect x="221" y="149" width="50" height="25" fill="rgba(100,0,0,0.1)"></rect><text x="246" y="161" text-anchor="middle" alignment-baseline="middle" fill="black">34</text><rect x="237" y="248" width="50" height="25" fill="rgba(100,0,0,0.1)"></rect><text x="262" y="260" text-anchor="middle" alignment-baseline="middle" fill="black">35</text><rect x="249" y="224" width="50" height="25" fill="rgba(100,0,0,0.1)"></rect><text x="274" y="236" text-anchor="middle" alignment-baseline="middle" fill="black">36</text><rect x="273" y="179" width="50" height="25" fill="rgba(100,0,0,0.1)"></rect><text x="298" y="191" text-anchor="middle" alignment-baseline="middle" fill="black">37</text><rect x="0" y="78" width="50" height="25" fill="rgba(100,0,0,0.1)"></rect><text x="25" y="90" text-anchor="middle" alignment-baseline="middle" fill="black">38</text><rect x="0" y="150" width="50" height="25" fill="rgba(100,0,0,0.1)"></rect><text x="25" y="162" text-anchor="middle" alignment-baseline="middle" fill="black">39</text><rect x="3" y="223" width="50" height="25" fill="rgba(100,0,0,0.1)"></rect><text x="28" y="235" text-anchor="middle" alignment-baseline="middle" fill="black">40</text><rect x="72" y="148" width="50" height="25" fill="rgba(100,0,0,0.1)"></rect><text x="97" y="160" text-anchor="middle" alignment-baseline="middle" fill="black">41</text><rect x="50" y="66" width="50" height="25" fill="rgba(100,0,0,0.1)"></rect><text x="75" y="78" text-anchor="middle" alignment-baseline="middle" fill="black">42</text><rect x="53" y="17" width="50" height="25" fill="rgba(100,0,0,0.1)"></rect><text x="78" y="29" text-anchor="middle" alignment-baseline="middle" fill="black">43</text><rect x="99" y="74" width="50" height="25" fill="rgba(100,0,0,0.1)"></rect><text x="124" y="86" text-anchor="middle" alignment-baseline="middle" fill="black">44</text><rect x="98" y="124" width="50" height="25" fill="rgba(100,0,0,0.1)"></rect><text x="123" y="136" text-anchor="middle" alignment-baseline="middle" fill="black">45</text><rect x="101" y="217" width="50" height="25" fill="rgba(100,0,0,0.1)"></rect><text x="126" y="229" text-anchor="middle" alignment-baseline="middle" fill="black">46</text><rect x="150" y="222" width="50" height="25" fill="rgba(100,0,0,0.1)"></rect><text x="175" y="234" text-anchor="middle" alignment-baseline="middle" fill="black">47</text><rect x="172" y="148" width="50" height="25" fill="rgba(100,0,0,0.1)"></rect><text x="197" y="160" text-anchor="middle" alignment-baseline="middle" fill="black">48</text><rect x="175" y="84" width="50" height="25" fill="rgba(100,0,0,0.1)"></rect><text x="200" y="96" text-anchor="middle" alignment-baseline="middle" fill="black">49</text><rect x="162" y="12" width="50" height="25" fill="rgba(100,0,0,0.1)"></rect><text x="187" y="24" text-anchor="middle" alignment-baseline="middle" fill="black">50</text><rect x="222" y="53" width="50" height="25" fill="rgba(100,0,0,0.1)"></rect><text x="247" y="65" text-anchor="middle" alignment-baseline="middle" fill="black">51</text><rect x="226" y="107" width="50" height="25" fill="rgba(100,0,0,0.1)"></rect><text x="251" y="119" text-anchor="middle" alignment-baseline="middle" fill="black">52</text><rect x="224" y="175" width="50" height="25" fill="rgba(100,0,0,0.1)"></rect><text x="249" y="187" text-anchor="middle" alignment-baseline="middle" fill="black">53</text><rect x="294" y="244" width="50" height="25" fill="rgba(100,0,0,0.1)"></rect><text x="319" y="256" text-anchor="middle" alignment-baseline="middle" fill="black">54</text><rect x="0" y="54" width="50" height="25" fill="rgba(100,0,0,0.1)"></rect><text x="25" y="66" text-anchor="middle" alignment-baseline="middle" fill="black">55</text><rect x="52" y="223" width="50" height="25" fill="rgba(100,0,0,0.1)"></rect><text x="77" y="235" text-anchor="middle" alignment-baseline="middle" fill="black">56</text><rect x="0" y="126" width="50" height="25" fill="rgba(100,0,0,0.1)"></rect><text x="25" y="138" text-anchor="middle" alignment-baseline="middle" fill="black">57</text><rect x="200" y="200" width="50" height="50" fill="rgba(100,0,0,0.1)"></rect><text x="225" y="225" text-anchor="middle" alignment-baseline="middle" fill="black">58</text><line x1="13" y1="41" x2="25" y2="66" stroke="black" stroke-width="1" /><line x1="12" y1="187" x2="25" y2="138" stroke="black" stroke-width="1" /><line x1="61" y1="155" x2="77" y2="235" stroke="black" stroke-width="1" /><line x1="37" y1="211" x2="50" y2="187" stroke="black" stroke-width="1" /><line x1="12" y1="115" x2="25" y2="91" stroke="black" stroke-width="1" /><line x1="12" y1="115" x2="50" y2="187" stroke="black" stroke-width="1" /><line x1="12" y1="211" x2="74" y2="210" stroke="black" stroke-width="1" /><line x1="12" y1="211" x2="25" y2="163" stroke="black" stroke-width="1" /><line x1="87" y1="186" x2="74" y2="128" stroke="black" stroke-width="1" /><line x1="87" y1="186" x2="28" y2="236" stroke="black" stroke-width="1" /><line x1="63" y1="103" x2="74" y2="54" stroke="black" stroke-width="1" /><line x1="63" y1="103" x2="97" y2="161" stroke="black" stroke-width="1" /><line x1="116" y1="32" x2="75" y2="79" stroke="black" stroke-width="1" /><line x1="116" y1="32" x2="123" y2="57" stroke="black" stroke-width="1" /><line x1="87" y1="103" x2="125" y2="112" stroke="black" stroke-width="1" /><line x1="87" y1="103" x2="78" y2="29" stroke="black" stroke-width="1" /><line x1="140" y1="161" x2="145" y2="185" stroke="black" stroke-width="1" /><line x1="140" y1="161" x2="124" y2="87" stroke="black" stroke-width="1" /><line x1="111" y1="205" x2="126" y2="254" stroke="black" stroke-width="1" /><line x1="111" y1="205" x2="123" y2="137" stroke="black" stroke-width="1" /><line x1="163" y1="259" x2="126" y2="229" stroke="black" stroke-width="1" /><line x1="163" y1="259" x2="174" y2="210" stroke="black" stroke-width="1" /><line x1="183" y1="185" x2="173" y2="136" stroke="black" stroke-width="1" /><line x1="183" y1="185" x2="175" y2="234" stroke="black" stroke-width="1" /><line x1="163" y1="111" x2="173" y2="72" stroke="black" stroke-width="1" /><line x1="163" y1="111" x2="197" y2="160" stroke="black" stroke-width="1" /><line x1="161" y1="48" x2="235" y2="41" stroke="black" stroke-width="1" /><line x1="161" y1="48" x2="200" y2="96" stroke="black" stroke-width="1" /><line x1="210" y1="65" x2="187" y2="24" stroke="black" stroke-width="1" /><line x1="210" y1="65" x2="250" y2="90" stroke="black" stroke-width="1" /><line x1="214" y1="135" x2="246" y2="162" stroke="black" stroke-width="1" /><line x1="214" y1="135" x2="247" y2="65" stroke="black" stroke-width="1" /><line x1="212" y1="187" x2="262" y2="261" stroke="black" stroke-width="1" /><line x1="212" y1="187" x2="251" y2="119" stroke="black" stroke-width="1" /><line x1="224" y1="262" x2="274" y2="236" stroke="black" stroke-width="1" /><line x1="224" y1="262" x2="249" y2="187" stroke="black" stroke-width="1" /><line x1="262" y1="212" x2="319" y2="256" stroke="black" stroke-width="1" /><line x1="262" y1="212" x2="298" y2="192" stroke="black" stroke-width="1" /><line x1="50" y1="187" x2="77" y2="235" stroke="black" stroke-width="1" /><line x1="50" y1="187" x2="74" y2="210" stroke="black" stroke-width="1" /><line x1="74" y1="210" x2="74" y2="128" stroke="black" stroke-width="1" /><line x1="74" y1="128" x2="74" y2="54" stroke="black" stroke-width="1" /><line x1="74" y1="54" x2="123" y2="57" stroke="black" stroke-width="1" /><line x1="123" y1="57" x2="125" y2="112" stroke="black" stroke-width="1" /><line x1="125" y1="112" x2="145" y2="185" stroke="black" stroke-width="1" /><line x1="145" y1="185" x2="126" y2="254" stroke="black" stroke-width="1" /><line x1="126" y1="254" x2="174" y2="210" stroke="black" stroke-width="1" /><line x1="174" y1="210" x2="173" y2="136" stroke="black" stroke-width="1" /><line x1="173" y1="136" x2="173" y2="72" stroke="black" stroke-width="1" /><line x1="173" y1="72" x2="235" y2="41" stroke="black" stroke-width="1" /><line x1="235" y1="41" x2="250" y2="90" stroke="black" stroke-width="1" /><line x1="250" y1="90" x2="246" y2="162" stroke="black" stroke-width="1" /><line x1="246" y1="162" x2="262" y2="261" stroke="black" stroke-width="1" /><line x1="262" y1="261" x2="274" y2="236" stroke="black" stroke-width="1" /><line x1="274" y1="236" x2="298" y2="192" stroke="black" stroke-width="1" /><line x1="25" y1="91" x2="25" y2="138" stroke="black" stroke-width="1" /><line x1="25" y1="91" x2="25" y2="163" stroke="black" stroke-width="1" /><line x1="25" y1="91" x2="25" y2="66" stroke="black" stroke-width="1" /><line x1="25" y1="163" x2="28" y2="236" stroke="black" stroke-width="1" /><line x1="28" y1="236" x2="97" y2="161" stroke="black" stroke-width="1" /><line x1="97" y1="161" x2="75" y2="79" stroke="black" stroke-width="1" /><line x1="75" y1="79" x2="78" y2="29" stroke="black" stroke-width="1" /><line x1="78" y1="29" x2="124" y2="87" stroke="black" stroke-width="1" /><line x1="124" y1="87" x2="123" y2="137" stroke="black" stroke-width="1" /><line x1="123" y1="137" x2="126" y2="229" stroke="black" stroke-width="1" /><line x1="126" y1="229" x2="175" y2="234" stroke="black" stroke-width="1" /><line x1="175" y1="234" x2="197" y2="160" stroke="black" stroke-width="1" /><line x1="197" y1="160" x2="200" y2="96" stroke="black" stroke-width="1" /><line x1="200" y1="96" x2="187" y2="24" stroke="black" stroke-width="1" /><line x1="187" y1="24" x2="247" y2="65" stroke="black" stroke-width="1" /><line x1="247" y1="65" x2="251" y2="119" stroke="black" stroke-width="1" /><line x1="251" y1="119" x2="249" y2="187" stroke="black" stroke-width="1" /><line x1="249" y1="187" x2="319" y2="256" stroke="black" stroke-width="1" /></svg>