<svg xmlns="http://www.w3.org/2000/svg" width="680" height="601"><rect x="0" y="0" width="680" height="601" fill="rgb(255,255,255)"></rect><rect x="0" y="0" width="660" height="580" fill="rgba(255,255,255,1)"></rect><rect x="78" y="99" width="40" height="20" fill="rgba(230,230,230,1)"></rect><text x="98" y="109" text-anchor="middle" alignment-baseline="middle" fill="black">+</text><rect x="78" y="121" width="40" height="20" fill="rgba(230,230,230,1)"></rect><text x="98" y="131" text-anchor="middle" alignment-baseline="middle" fill="black">+</text><rect x="78" y="143" width="40" height="20" fill="rgba(230,230,230,1)"></rect><text x="98" y="153" text-anchor="middle" alignment-baseline="middle" fill="black">+</text><rect x="78" y="165" width="40" height="20" fill="rgba(230,230,230,1)"></rect><text x="98" y="175" text-anchor="middle" alignment-baseline="middle" fill="black">+</text><rect x="78" y="187" width="40" height="20" fill="rgba(230,230,230,1)"></rect><text x="98" y="197" text-anchor="middle" alignment-baseline="middle" fill="black">+</text><rect x="78" y="385" width="40" height="20" fill="rgba(230,230,230,1)"></rect><text x="98" y="395" text-anchor="middle" alignment-baseline="middle" fill="black">+</text><rect x="78" y="407" width="40" height="20" fill="rgba(230,230,230,1)"></rect><text x="98" y="417" text-anchor="middle" alignment-baseline="middle" fill="black">+</text><rect x="78" y="429" width="40" height="20" fill="rgba(230,230,230,1)"></rect><text x="98" y="439" text-anchor="middle" alignment-baseline="middle" fill="black">+</text><rect x="78" y="451" width="40" height="20" fill="rgba(230,230,230,1)"></rect><text x="98" y="461" text-anchor="middle" alignment-baseline="middle" fill="black">+</text><rect x="78" y="473" width="40" height="20" fill="rgba(230,230,230,1)"></rect><text x="98" y="483" text-anchor="middle" alignment-baseline="middle" fill="black">+</text><rect x="78" y="209" width="40" height="20" fill="rgba(230,230,230,1)"></rect><text x="98" y="219" text-anchor="middle" alignment-baseline="middle" fill="black">+</text><rect x="122" y="209" width="40" height="20" fill="rgba(230,230,230,1)"></rect><text x="142" y="219" text-anchor="middle" alignment-baseline="middle" fill="black">+</text><rect x="78" y="231" width="40" height="20" fill="rgba(230,230,230,1)"></rect><text x="98" y="241" text-anchor="middle" alignment-baseline="middle" fill="black">+</text><rect x="78" y="253" width="40" height="20" fill="rgba(230,230,230,1)"></rect><text x="98" y="263" text-anchor="middle" alignment-baseline="middle" fill="black">+</text><rect x="78" y="275" width="40" height="20" fill="rgba(230,230,230,1)"></rect><text x="98" y="285" text-anchor="middle" alignment-baseline="middle" fill="black">+</text><rect x="78" y="495" width="40" height="20" fill="rgba(230,230,230,1)"></rect><text x="98" y="505" text-anchor="middle" alignment-baseline="middle" fill="black">+</text><rect x="122" y="495" width="40" height="20" fill="rgba(230,230,230,1)"></rect><text x="142" y="505" text-anchor="middle" alignment-baseline="middle" fill="black">+</text><rect x="78" y="517" width="40" height="20" fill="rgba(230,230,230,1)"></rect><text x="98" y="527" text-anchor="middle" alignment-baseline="middle" fill="black">+</text><rect x="78" y="539" width="40" height="20" fill="rgba(230,230,230,1)"></rect><text x="98" y="549" text-anchor="middle" alignment-baseline="middle" fill="black">+</text><rect x="78" y="561" width="40" height="20" fill="rgba(230,230,230,1)"></rect><text x="98" y="571" text-anchor="middle" alignment-baseline="middle" fill="black">+</text><rect x="122" y="275" width="40" height="20" fill="rgba(230,230,230,1)"></rect><text x="142" y="285" text-anchor="middle" alignment-baseline="middle" fill="black">+</text><rect x="122" y="253" width="40" height="20" fill="rgba(230,230,230,1)"></rect><text x="142" y="263" text-anchor="middle" alignment-baseline="middle" fill="black">+</text><rect x="122" y="231" width="40" height="20" fill="rgba(230,230,230,1)"></rect><text x="142" y="241" text-anchor="middle" alignment-baseline="middle" fill="black">+</text><rect x="166" y="209" width="40" height="20" fill="rgba(230,230,230,1)"></rect><text x="186" y="219" text-anchor="middle" alignment-baseline="middle" fill="black">+</text><rect x="122" y="187" width="40" height="20" fill="rgba(230,230,230,1)"></rect><text x="142" y="197" text-anchor="middle" alignment-baseline="middle" fill="black">+</text><rect x="122" y="561" width="40" height="20" fill="rgba(230,230,230,1)"></rect><text x="142" y="571" text-anchor="middle" alignment-baseline="middle" fill="black">+</text><rect x="122" y="539" width="40" height="20" fill="rgba(230,230,230,1)"></rect><text x="142" y="549" text-anchor="middle" alignment-baseline="middle" fill="black">+</text><rect x="122" y="517" width="40" height="20" fill="rgba(230,230,230,1)"></rect><text x="142" y="527" text-anchor="middle" alignment-baseline="middle" fill="black">+</text><rect x="166" y="495" width="40" height="20" fill="rgba(230,230,230,1)"></rect><text x="186" y="505" text-anchor="middle" alignment-baseline="middle" fill="black">+</text><rect x="122" y="473" width="40" height="20" fill="rgba(230,230,230,1)"></rect><text x="142" y="483" text-anchor="middle" alignment-baseline="middle" fill="black">+</text><rect x="166" y="143" width="40" height="20" fill="rgba(230,230,230,1)"></rect><text x="186" y="153" text-anchor="middle" alignment-baseline="middle" fill="black">+</text><rect x="122" y="165" width="40" height="20" fill="rgba(230,230,230,1)"></rect><text x="142" y="175" text-anchor="middle" alignment-baseline="middle" fill="black">+</text><rect x="122" y="143" width="40" height="20" fill="rgba(230,230,230,1)"></rect><text x="142" y="153" text-anchor="middle" alignment-baseline="middle" fill="black">+</text><rect x="122" y="121" width="40" height="20" fill="rgba(230,230,230,1)"></rect><text x="142" y="131" text-anchor="middle" alignment-baseline="middle" fill="black">+</text><rect x="122" y="99" width="40" height="20" fill="rgba(230,230,230,1)"></rect><text x="142" y="109" text-anchor="middle" alignment-baseline="middle" fill="black">+</text><rect x="166" y="429" width="40" height="20" fill="rgba(230,230,230,1)"></rect><text x="186" y="439" text-anchor="middle" alignment-baseline="middle" fill="black">+</text><rect x="122" y="451" width="40" height="20" fill="rgba(230,230,230,1)"></rect><text x="142" y="461" text-anchor="middle" alignment-baseline="middle" fill="black">+</text><rect x="122" y="429" width="40" height="20" fill="rgba(230,230,230,1)"></rect><text x="142" y="439" text-anchor="middle" alignment-baseline="middle" fill="black">+</text><rect x="122" y="407" width="40" height="20" fill="rgba(230,230,230,1)"></rect><text x="142" y="417" text-anchor="middle" alignment-baseline="middle" fill="black">+</text><rect x="122" y="385" width="40" height="20" fill="rgba(230,230,230,1)"></rect><text x="142" y="395" text-anchor="middle" alignment-baseline="middle" fill="black">+</text><rect x="144" y="77" width="40" height="20" fill="rgba(230,230,230,1)"></rect><text x="164" y="87" text-anchor="middle" alignment-baseline="middle" fill="black">+</text><rect x="166" y="99" width="40" height="20" fill="rgba(230,230,230,1)"></rect><text x="186" y="109" text-anchor="middle" alignment-baseline="middle" fill="black">+</text><rect x="166" y="121" width="40" height="20" fill="rgba(230,230,230,1)"></rect><text x="186" y="131" text-anchor="middle" alignment-baseline="middle" fill="black">+</text><rect x="210" y="143" width="40" height="20" fill="rgba(230,230,230,1)"></rect><text x="230" y="153" text-anchor="middle" alignment-baseline="middle" fill="black">+</text><rect x="166" y="165" width="40" height="20" fill="rgba(230,230,230,1)"></rect><text x="186" y="175" text-anchor="middle" alignment-baseline="middle" fill="black">+</text><rect x="166" y="363" width="40" height="20" fill="rgba(230,230,230,1)"></rect><text x="186" y="373" text-anchor="middle" alignment-baseline="middle" fill="black">+</text><rect x="166" y="385" width="40" height="20" fill="rgba(230,230,230,1)"></rect><text x="186" y="395" text-anchor="middle" alignment-baseline="middle" fill="black">+</text><rect x="166" y="407" width="40" height="20" fill="rgba(230,230,230,1)"></rect><text x="186" y="417" text-anchor="middle" alignment-baseline="middle" fill="black">+</text><rect x="210" y="429" width="40" height="20" fill="rgba(230,230,230,1)"></rect><text x="230" y="439" text-anchor="middle" alignment-baseline="middle" fill="black">+</text><rect x="166" y="451" width="40" height="20" fill="rgba(230,230,230,1)"></rect><text x="186" y="461" text-anchor="middle" alignment-baseline="middle" fill="black">+</text><rect x="166" y="187" width="40" height="20" fill="rgba(230,230,230,1)"></rect><text x="186" y="197" text-anchor="middle" alignment-baseline="middle" fill="black">+</text><rect x="210" y="209" width="40" height="20" fill="rgba(230,230,230,1)"></rect><text x="230" y="219" text-anchor="middle" alignment-baseline="middle" fill="black">+</text><rect x="166" y="231" width="40" height="20" fill="rgba(230,230,230,1)"></rect><text x="186" y="241" text-anchor="middle" alignment-baseline="middle" fill="black">+</text><rect x="166" y="253" width="40" height="20" fill="rgba(230,230,230,1)"></rect><text x="186" y="263" text-anchor="middle" alignment-baseline="middle" fill="black">+</text><rect x="166" y="275" width="40" height="20" fill="rgba(230,230,230,1)"></rect><text x="186" y="285" text-anchor="middle" alignment-baseline="middle" fill="black">+</text><rect x="166" y="473" width="40" height="20" fill="rgba(230,230,230,1)"></rect><text x="186" y="483" text-anchor="middle" alignment-baseline="middle" fill="black">+</text><rect x="210" y="495" width="40" height="20" fill="rgba(230,230,230,1)"></rect><text x="230" y="505" text-anchor="middle" alignment-baseline="middle" fill="black">+</text><rect x="166" y="517" width="40" height="20" fill="rgba(230,230,230,1)"></rect><text x="186" y="527" text-anchor="middle" alignment-baseline="middle" fill="black">+</text><rect x="166" y="539" width="40" height="20" fill="rgba(230,230,230,1)"></rect><text x="186" y="549" text-anchor="middle" alignment-baseline="middle" fill="black">+</text><rect x="166" y="561" width="40" height="20" fill="rgba(230,230,230,1)"></rect><text x="186" y="571" text-anchor="middle" alignment-baseline="middle" fill="black">+</text><rect x="210" y="253" width="40" height="20" fill="rgba(230,230,230,1)"></rect><text x="230" y="263" text-anchor="middle" alignment-baseline="middle" fill="black">+</text><rect x="210" y="231" width="40" height="20" fill="rgba(230,230,230,1)"></rect><text x="230" y="241" text-anchor="middle" alignment-baseline="middle" fill="black">+</text><rect x="254" y="209" width="40" height="20" fill="rgba(230,230,230,1)"></rect><text x="274" y="219" text-anchor="middle" alignment-baseline="middle" fill="black">+</text><rect x="254" y="187" width="40" height="20" fill="rgba(230,230,230,1)"></rect><text x="274" y="197" text-anchor="middle" alignment-baseline="middle" fill="black">+</text><rect x="210" y="187" width="40" height="20" fill="rgba(230,230,230,1)"></rect><text x="230" y="197" text-anchor="middle" alignment-baseline="middle" fill="black">+</text><rect x="210" y="539" width="40" height="20" fill="rgba(230,230,230,1)"></rect><text x="230" y="549" text-anchor="middle" alignment-baseline="middle" fill="black">+</text><rect x="210" y="517" width="40" height="20" fill="rgba(230,230,230,1)"></rect><text x="230" y="527" text-anchor="middle" alignment-baseline="middle" fill="black">+</text><rect x="254" y="495" width="40" height="20" fill="rgba(230,230,230,1)"></rect><text x="274" y="505" text-anchor="middle" alignment-baseline="middle" fill="black">+</text><rect x="254" y="473" width="40" height="20" fill="rgba(230,230,230,1)"></rect><text x="274" y="483" text-anchor="middle" alignment-baseline="middle" fill="black">+</text><rect x="210" y="473" width="40" height="20" fill="rgba(230,230,230,1)"></rect><text x="230" y="483" text-anchor="middle" alignment-baseline="middle" fill="black">+</text><rect x="210" y="165" width="40" height="20" fill="rgba(230,230,230,1)"></rect><text x="230" y="175" text-anchor="middle" alignment-baseline="middle" fill="black">+</text><rect x="254" y="121" width="40" height="20" fill="rgba(230,230,230,1)"></rect><text x="274" y="131" text-anchor="middle" alignment-baseline="middle" fill="black">+</text><rect x="254" y="143" width="40" height="20" fill="rgba(230,230,230,1)"></rect><text x="274" y="153" text-anchor="middle" alignment-baseline="middle" fill="black">+</text><rect x="210" y="121" width="40" height="20" fill="rgba(230,230,230,1)"></rect><text x="230" y="131" text-anchor="middle" alignment-baseline="middle" fill="black">+</text><rect x="210" y="99" width="40" height="20" fill="rgba(230,230,230,1)"></rect><text x="230" y="109" text-anchor="middle" alignment-baseline="middle" fill="black">+</text><rect x="210" y="451" width="40" height="20" fill="rgba(230,230,230,1)"></rect><text x="230" y="461" text-anchor="middle" alignment-baseline="middle" fill="black">+</text><rect x="254" y="407" width="40" height="20" fill="rgba(230,230,230,1)"></rect><text x="274" y="417" text-anchor="middle" alignment-baseline="middle" fill="black">+</text><rect x="254" y="429" width="40" height="20" fill="rgba(230,230,230,1)"></rect><text x="274" y="439" text-anchor="middle" alignment-baseline="middle" fill="black">+</text><rect x="210" y="407" width="40" height="20" fill="rgba(230,230,230,1)"></rect><text x="230" y="417" text-anchor="middle" alignment-baseline="middle" fill="black">+</text><rect x="210" y="385" width="40" height="20" fill="rgba(230,230,230,1)"></rect><text x="230" y="395" text-anchor="middle" alignment-baseline="middle" fill="black">+</text><rect x="254" y="77" width="40" height="20" fill="rgba(230,230,230,1)"></rect><text x="274" y="87" text-anchor="middle" alignment-baseline="middle" fill="black">+</text><rect x="254" y="99" width="40" height="20" fill="rgba(230,230,230,1)"></rect><text x="274" y="109" text-anchor="middle" alignment-baseline="middle" fill="black">+</text><rect x="298" y="77" width="40" height="20" fill="rgba(230,230,230,1)"></rect><text x="318" y="87" text-anchor="middle" alignment-baseline="middle" fill="black">+</text><rect x="298" y="99" width="40" height="20" fill="rgba(230,230,230,1)"></rect><text x="318" y="109" text-anchor="middle" alignment-baseline="middle" fill="black">+</text><rect x="254" y="165" width="40" height="20" fill="rgba(230,230,230,1)"></rect><text x="274" y="175" text-anchor="middle" alignment-baseline="middle" fill="black">+</text><rect x="254" y="363" width="40" height="20" fill="rgba(230,230,230,1)"></rect><text x="274" y="373" text-anchor="middle" alignment-baseline="middle" fill="black">+</text><rect x="254" y="385" width="40" height="20" fill="rgba(230,230,230,1)"></rect><text x="274" y="395" text-anchor="middle" alignment-baseline="middle" fill="black">+</text><rect x="298" y="385" width="40" height="20" fill="rgba(230,230,230,1)"></rect><text x="318" y="395" text-anchor="middle" alignment-baseline="middle" fill="black">+</text><rect x="298" y="407" width="40" height="20" fill="rgba(230,230,230,1)"></rect><text x="318" y="417" text-anchor="middle" alignment-baseline="middle" fill="black">+</text><rect x="254" y="451" width="40" height="20" fill="rgba(230,230,230,1)"></rect><text x="274" y="461" text-anchor="middle" alignment-baseline="middle" fill="black">+</text><rect x="298" y="121" width="40" height="20" fill="rgba(230,230,230,1)"></rect><text x="318" y="131" text-anchor="middle" alignment-baseline="middle" fill="black">+</text><rect x="298" y="165" width="40" height="20" fill="rgba(230,230,230,1)"></rect><text x="318" y="175" text-anchor="middle" alignment-baseline="middle" fill="black">+</text><rect x="298" y="143" width="40" height="20" fill="rgba(230,230,230,1)"></rect><text x="318" y="153" text-anchor="middle" alignment-baseline="middle" fill="black">+</text><rect x="298" y="187" width="40" height="20" fill="rgba(230,230,230,1)"></rect><text x="318" y="197" text-anchor="middle" alignment-baseline="middle" fill="black">+</text><rect x="298" y="209" width="40" height="20" fill="rgba(230,230,230,1)"></rect><text x="318" y="219" text-anchor="middle" alignment-baseline="middle" fill="black">+</text><rect x="298" y="429" width="40" height="20" fill="rgba(230,230,230,1)"></rect><text x="318" y="439" text-anchor="middle" alignment-baseline="middle" fill="black">+</text><rect x="298" y="473" width="40" height="20" fill="rgba(230,230,230,1)"></rect><text x="318" y="483" text-anchor="middle" alignment-baseline="middle" fill="black">+</text><rect x="298" y="451" width="40" height="20" fill="rgba(230,230,230,1)"></rect><text x="318" y="461" text-anchor="middle" alignment-baseline="middle" fill="black">+</text><rect x="298" y="495" width="40" height="20" fill="rgba(230,230,230,1)"></rect><text x="318" y="505" text-anchor="middle" alignment-baseline="middle" fill="black">+</text><rect x="298" y="517" width="40" height="20" fill="rgba(230,230,230,1)"></rect><text x="318" y="527" text-anchor="middle" alignment-baseline="middle" fill="black">+</text><rect x="253" y="253" width="40" height="40" fill="rgba(101,101,101,1)"></rect><text x="273" y="273" text-anchor="middle" alignment-baseline="middle" fill="black">SS</text><rect x="253" y="539" width="40" height="40" fill="rgba(101,101,101,1)"></rect><text x="273" y="559" text-anchor="middle" alignment-baseline="middle" fill="black">SS</text><circle cx="64" cy="438" r="5" fill="rgb(101,67,33)"></circle><circle cx="108" cy="350" r="5" fill="rgb(101,67,33)"></circle><circle cx="64" cy="460" r="5" fill="rgb(101,67,33)"></circle><circle cx="64" cy="240" r="5" fill="rgb(101,67,33)"></circle><circle cx="152" cy="372" r="5" fill="rgb(101,67,33)"></circle><circle cx="262" cy="350" r="5" fill="rgb(101,67,33)"></circle><circle cx="262" cy="526" r="5" fill="rgb(101,67,33)"></circle><circle cx="262" cy="240" r="5" fill="rgb(101,67,33)"></circle><circle cx="262" cy="328" r="5" fill="rgb(101,67,33)"></circle><circle cx="328" cy="372" r="5" fill="rgb(101,67,33)"></circle><line x1="109" y1="351" x2="65" y2="461" stroke="red" stroke-width="1" /><line x1="109" y1="353" x2="65" y2="463" stroke="green" stroke-width="1" /><line x1="65" y1="241" x2="153" y2="373" stroke="red" stroke-width="1" /><line x1="65" y1="243" x2="153" y2="375" stroke="green" stroke-width="1" /><line x1="263" y1="351" x2="263" y2="527" stroke="red" stroke-width="1" /><line x1="263" y1="353" x2="263" y2="529" stroke="green" stroke-width="1" /><line x1="263" y1="241" x2="263" y2="329" stroke="red" stroke-width="1" /><line x1="263" y1="243" x2="263" y2="331" stroke="green" stroke-width="1" /><line x1="108" y1="280" x2="65" y2="439" stroke="red" stroke-width="1" /><line x1="108" y1="290" x2="65" y2="441" stroke="green" stroke-width="1" /><line x1="88" y1="510" x2="65" y2="441" stroke="green" stroke-width="1" /><line x1="152" y1="192" x2="109" y2="351" stroke="red" stroke-width="1" /><line x1="152" y1="202" x2="109" y2="353" stroke="green" stroke-width="1" /><line x1="132" y1="576" x2="65" y2="463" stroke="green" stroke-width="1" /><line x1="152" y1="104" x2="65" y2="241" stroke="red" stroke-width="1" /><line x1="152" y1="114" x2="65" y2="243" stroke="green" stroke-width="1" /><line x1="176" y1="444" x2="153" y2="375" stroke="green" stroke-width="1" /><line x1="240" y1="192" x2="263" y2="351" stroke="red" stroke-width="1" /><line x1="240" y1="202" x2="263" y2="353" stroke="green" stroke-width="1" /><line x1="220" y1="554" x2="263" y2="529" stroke="green" stroke-width="1" /><line x1="240" y1="104" x2="263" y2="241" stroke="red" stroke-width="1" /><line x1="240" y1="114" x2="263" y2="243" stroke="green" stroke-width="1" /><line x1="220" y1="466" x2="263" y2="331" stroke="green" stroke-width="1" /><line x1="328" y1="214" x2="329" y2="373" stroke="red" stroke-width="1" /><line x1="328" y1="224" x2="329" y2="375" stroke="green" stroke-width="1" /><line x1="308" y1="444" x2="329" y2="375" stroke="green" stroke-width="1" /><line x1="108" y1="114" x2="88" y2="136" stroke="green" stroke-width="1" /><line x1="108" y1="136" x2="88" y2="158" stroke="green" stroke-width="1" /><line x1="108" y1="158" x2="88" y2="180" stroke="green" stroke-width="1" /><line x1="108" y1="180" x2="88" y2="202" stroke="green" stroke-width="1" /><line x1="108" y1="202" x2="88" y2="400" stroke="green" stroke-width="1" /><line x1="108" y1="400" x2="88" y2="422" stroke="green" stroke-width="1" /><line x1="108" y1="422" x2="88" y2="444" stroke="green" stroke-width="1" /><line x1="108" y1="444" x2="88" y2="466" stroke="green" stroke-width="1" /><line x1="108" y1="466" x2="88" y2="488" stroke="green" stroke-width="1" /><line x1="108" y1="104" x2="88" y2="214" stroke="red" stroke-width="1" /><line x1="108" y1="126" x2="132" y2="214" stroke="red" stroke-width="1" /><line x1="108" y1="224" x2="132" y2="224" stroke="green" stroke-width="1" /><line x1="108" y1="148" x2="88" y2="236" stroke="red" stroke-width="1" /><line x1="152" y1="224" x2="88" y2="246" stroke="green" stroke-width="1" /><line x1="108" y1="170" x2="88" y2="258" stroke="red" stroke-width="1" /><line x1="108" y1="246" x2="88" y2="268" stroke="green" stroke-width="1" /><line x1="108" y1="192" x2="88" y2="280" stroke="red" stroke-width="1" /><line x1="108" y1="268" x2="88" y2="290" stroke="green" stroke-width="1" /><line x1="108" y1="390" x2="88" y2="500" stroke="red" stroke-width="1" /><line x1="108" y1="412" x2="132" y2="500" stroke="red" stroke-width="1" /><line x1="108" y1="510" x2="132" y2="510" stroke="green" stroke-width="1" /><line x1="108" y1="434" x2="88" y2="522" stroke="red" stroke-width="1" /><line x1="152" y1="510" x2="88" y2="532" stroke="green" stroke-width="1" /><line x1="108" y1="456" x2="88" y2="544" stroke="red" stroke-width="1" /><line x1="108" y1="532" x2="88" y2="554" stroke="green" stroke-width="1" /><line x1="108" y1="478" x2="88" y2="566" stroke="red" stroke-width="1" /><line x1="108" y1="554" x2="88" y2="576" stroke="green" stroke-width="1" /><line x1="108" y1="214" x2="132" y2="280" stroke="red" stroke-width="1" /><line x1="152" y1="214" x2="132" y2="258" stroke="red" stroke-width="1" /><line x1="152" y1="290" x2="132" y2="268" stroke="green" stroke-width="1" /><line x1="108" y1="236" x2="132" y2="236" stroke="red" stroke-width="1" /><line x1="152" y1="268" x2="132" y2="246" stroke="green" stroke-width="1" /><line x1="108" y1="258" x2="176" y2="214" stroke="red" stroke-width="1" /><line x1="152" y1="246" x2="176" y2="224" stroke="green" stroke-width="1" /><line x1="108" y1="280" x2="132" y2="192" stroke="red" stroke-width="1" /><line x1="196" y1="224" x2="132" y2="202" stroke="green" stroke-width="1" /><line x1="108" y1="500" x2="132" y2="566" stroke="red" stroke-width="1" /><line x1="152" y1="500" x2="132" y2="544" stroke="red" stroke-width="1" /><line x1="152" y1="576" x2="132" y2="554" stroke="green" stroke-width="1" /><line x1="108" y1="522" x2="132" y2="522" stroke="red" stroke-width="1" /><line x1="152" y1="554" x2="132" y2="532" stroke="green" stroke-width="1" /><line x1="108" y1="544" x2="176" y2="500" stroke="red" stroke-width="1" /><line x1="152" y1="532" x2="176" y2="510" stroke="green" stroke-width="1" /><line x1="108" y1="566" x2="132" y2="478" stroke="red" stroke-width="1" /><line x1="196" y1="510" x2="132" y2="488" stroke="green" stroke-width="1" /><line x1="152" y1="280" x2="176" y2="148" stroke="red" stroke-width="1" /><line x1="152" y1="258" x2="132" y2="170" stroke="red" stroke-width="1" /><line x1="196" y1="158" x2="132" y2="180" stroke="green" stroke-width="1" /><line x1="152" y1="236" x2="132" y2="148" stroke="red" stroke-width="1" /><line x1="152" y1="180" x2="132" y2="158" stroke="green" stroke-width="1" /><line x1="196" y1="214" x2="132" y2="126" stroke="red" stroke-width="1" /><line x1="152" y1="158" x2="132" y2="136" stroke="green" stroke-width="1" /><line x1="152" y1="192" x2="132" y2="104" stroke="red" stroke-width="1" /><line x1="152" y1="136" x2="132" y2="114" stroke="green" stroke-width="1" /><line x1="152" y1="566" x2="176" y2="434" stroke="red" stroke-width="1" /><line x1="152" y1="544" x2="132" y2="456" stroke="red" stroke-width="1" /><line x1="196" y1="444" x2="132" y2="466" stroke="green" stroke-width="1" /><line x1="152" y1="522" x2="132" y2="434" stroke="red" stroke-width="1" /><line x1="152" y1="466" x2="132" y2="444" stroke="green" stroke-width="1" /><line x1="196" y1="500" x2="132" y2="412" stroke="red" stroke-width="1" /><line x1="152" y1="444" x2="132" y2="422" stroke="green" stroke-width="1" /><line x1="152" y1="478" x2="132" y2="390" stroke="red" stroke-width="1" /><line x1="152" y1="422" x2="132" y2="400" stroke="green" stroke-width="1" /><line x1="196" y1="148" x2="154" y2="82" stroke="red" stroke-width="1" /><line x1="152" y1="170" x2="176" y2="104" stroke="red" stroke-width="1" /><line x1="174" y1="92" x2="176" y2="114" stroke="green" stroke-width="1" /><line x1="152" y1="148" x2="176" y2="126" stroke="red" stroke-width="1" /><line x1="196" y1="114" x2="176" y2="136" stroke="green" stroke-width="1" /><line x1="152" y1="126" x2="220" y2="148" stroke="red" stroke-width="1" /><line x1="196" y1="136" x2="220" y2="158" stroke="green" stroke-width="1" /><line x1="152" y1="104" x2="176" y2="170" stroke="red" stroke-width="1" /><line x1="240" y1="158" x2="176" y2="180" stroke="green" stroke-width="1" /><line x1="196" y1="434" x2="176" y2="368" stroke="red" stroke-width="1" /><line x1="196" y1="180" x2="176" y2="378" stroke="green" stroke-width="1" /><line x1="152" y1="456" x2="176" y2="390" stroke="red" stroke-width="1" /><line x1="196" y1="378" x2="176" y2="400" stroke="green" stroke-width="1" /><line x1="152" y1="434" x2="176" y2="412" stroke="red" stroke-width="1" /><line x1="196" y1="400" x2="176" y2="422" stroke="green" stroke-width="1" /><line x1="152" y1="412" x2="220" y2="434" stroke="red" stroke-width="1" /><line x1="196" y1="422" x2="220" y2="444" stroke="green" stroke-width="1" /><line x1="152" y1="390" x2="176" y2="456" stroke="red" stroke-width="1" /><line x1="240" y1="444" x2="176" y2="466" stroke="green" stroke-width="1" /><line x1="174" y1="82" x2="176" y2="192" stroke="red" stroke-width="1" /><line x1="196" y1="104" x2="220" y2="214" stroke="red" stroke-width="1" /><line x1="196" y1="202" x2="220" y2="224" stroke="green" stroke-width="1" /><line x1="196" y1="126" x2="176" y2="236" stroke="red" stroke-width="1" /><line x1="240" y1="224" x2="176" y2="246" stroke="green" stroke-width="1" /><line x1="240" y1="148" x2="176" y2="258" stroke="red" stroke-width="1" /><line x1="196" y1="246" x2="176" y2="268" stroke="green" stroke-width="1" /><line x1="196" y1="170" x2="176" y2="280" stroke="red" stroke-width="1" /><line x1="196" y1="268" x2="176" y2="290" stroke="green" stroke-width="1" /><line x1="196" y1="368" x2="176" y2="478" stroke="red" stroke-width="1" /><line x1="196" y1="290" x2="176" y2="488" stroke="green" stroke-width="1" /><line x1="196" y1="390" x2="220" y2="500" stroke="red" stroke-width="1" /><line x1="196" y1="488" x2="220" y2="510" stroke="green" stroke-width="1" /><line x1="196" y1="412" x2="176" y2="522" stroke="red" stroke-width="1" /><line x1="240" y1="510" x2="176" y2="532" stroke="green" stroke-width="1" /><line x1="240" y1="434" x2="176" y2="544" stroke="red" stroke-width="1" /><line x1="196" y1="532" x2="176" y2="554" stroke="green" stroke-width="1" /><line x1="196" y1="456" x2="176" y2="566" stroke="red" stroke-width="1" /><line x1="196" y1="554" x2="176" y2="576" stroke="green" stroke-width="1" /><line x1="196" y1="192" x2="220" y2="258" stroke="red" stroke-width="1" /><line x1="240" y1="214" x2="220" y2="236" stroke="red" stroke-width="1" /><line x1="240" y1="268" x2="220" y2="246" stroke="green" stroke-width="1" /><line x1="196" y1="236" x2="264" y2="214" stroke="red" stroke-width="1" /><line x1="240" y1="246" x2="264" y2="224" stroke="green" stroke-width="1" /><line x1="196" y1="258" x2="264" y2="192" stroke="red" stroke-width="1" /><line x1="284" y1="224" x2="264" y2="202" stroke="green" stroke-width="1" /><line x1="196" y1="280" x2="220" y2="192" stroke="red" stroke-width="1" /><line x1="284" y1="202" x2="220" y2="202" stroke="green" stroke-width="1" /><line x1="196" y1="478" x2="220" y2="544" stroke="red" stroke-width="1" /><line x1="240" y1="500" x2="220" y2="522" stroke="red" stroke-width="1" /><line x1="240" y1="554" x2="220" y2="532" stroke="green" stroke-width="1" /><line x1="196" y1="522" x2="264" y2="500" stroke="red" stroke-width="1" /><line x1="240" y1="532" x2="264" y2="510" stroke="green" stroke-width="1" /><line x1="196" y1="544" x2="264" y2="478" stroke="red" stroke-width="1" /><line x1="284" y1="510" x2="264" y2="488" stroke="green" stroke-width="1" /><line x1="196" y1="566" x2="220" y2="478" stroke="red" stroke-width="1" /><line x1="284" y1="488" x2="220" y2="488" stroke="green" stroke-width="1" /><line x1="240" y1="258" x2="220" y2="170" stroke="red" stroke-width="1" /><line x1="240" y1="236" x2="264" y2="126" stroke="red" stroke-width="1" /><line x1="240" y1="180" x2="264" y2="136" stroke="green" stroke-width="1" /><line x1="284" y1="214" x2="264" y2="148" stroke="red" stroke-width="1" /><line x1="284" y1="136" x2="264" y2="158" stroke="green" stroke-width="1" /><line x1="284" y1="192" x2="220" y2="126" stroke="red" stroke-width="1" /><line x1="284" y1="158" x2="220" y2="136" stroke="green" stroke-width="1" /><line x1="240" y1="192" x2="220" y2="104" stroke="red" stroke-width="1" /><line x1="240" y1="136" x2="220" y2="114" stroke="green" stroke-width="1" /><line x1="240" y1="544" x2="220" y2="456" stroke="red" stroke-width="1" /><line x1="240" y1="522" x2="264" y2="412" stroke="red" stroke-width="1" /><line x1="240" y1="466" x2="264" y2="422" stroke="green" stroke-width="1" /><line x1="284" y1="500" x2="264" y2="434" stroke="red" stroke-width="1" /><line x1="284" y1="422" x2="264" y2="444" stroke="green" stroke-width="1" /><line x1="284" y1="478" x2="220" y2="412" stroke="red" stroke-width="1" /><line x1="284" y1="444" x2="220" y2="422" stroke="green" stroke-width="1" /><line x1="240" y1="478" x2="220" y2="390" stroke="red" stroke-width="1" /><line x1="240" y1="422" x2="220" y2="400" stroke="green" stroke-width="1" /><line x1="240" y1="170" x2="264" y2="82" stroke="red" stroke-width="1" /><line x1="284" y1="126" x2="264" y2="104" stroke="red" stroke-width="1" /><line x1="284" y1="92" x2="264" y2="114" stroke="green" stroke-width="1" /><line x1="284" y1="148" x2="308" y2="82" stroke="red" stroke-width="1" /><line x1="284" y1="114" x2="308" y2="92" stroke="green" stroke-width="1" /><line x1="240" y1="126" x2="308" y2="104" stroke="red" stroke-width="1" /><line x1="328" y1="92" x2="308" y2="114" stroke="green" stroke-width="1" /><line x1="240" y1="104" x2="264" y2="170" stroke="red" stroke-width="1" /><line x1="328" y1="114" x2="264" y2="180" stroke="green" stroke-width="1" /><line x1="240" y1="456" x2="264" y2="368" stroke="red" stroke-width="1" /><line x1="284" y1="180" x2="264" y2="378" stroke="green" stroke-width="1" /><line x1="284" y1="412" x2="264" y2="390" stroke="red" stroke-width="1" /><line x1="284" y1="378" x2="264" y2="400" stroke="green" stroke-width="1" /><line x1="284" y1="434" x2="308" y2="390" stroke="red" stroke-width="1" /><line x1="284" y1="400" x2="308" y2="400" stroke="green" stroke-width="1" /><line x1="240" y1="412" x2="308" y2="412" stroke="red" stroke-width="1" /><line x1="328" y1="400" x2="308" y2="422" stroke="green" stroke-width="1" /><line x1="240" y1="390" x2="264" y2="456" stroke="red" stroke-width="1" /><line x1="328" y1="422" x2="264" y2="466" stroke="green" stroke-width="1" /><line x1="284" y1="82" x2="308" y2="126" stroke="red" stroke-width="1" /><line x1="284" y1="104" x2="308" y2="170" stroke="red" stroke-width="1" /><line x1="328" y1="136" x2="308" y2="180" stroke="green" stroke-width="1" /><line x1="328" y1="82" x2="308" y2="148" stroke="red" stroke-width="1" /><line x1="328" y1="180" x2="308" y2="158" stroke="green" stroke-width="1" /><line x1="328" y1="104" x2="308" y2="192" stroke="red" stroke-width="1" /><line x1="328" y1="158" x2="308" y2="202" stroke="green" stroke-width="1" /><line x1="284" y1="170" x2="308" y2="214" stroke="red" stroke-width="1" /><line x1="328" y1="202" x2="308" y2="224" stroke="green" stroke-width="1" /><line x1="284" y1="368" x2="308" y2="434" stroke="red" stroke-width="1" /><line x1="284" y1="390" x2="308" y2="478" stroke="red" stroke-width="1" /><line x1="328" y1="444" x2="308" y2="488" stroke="green" stroke-width="1" /><line x1="328" y1="390" x2="308" y2="456" stroke="red" stroke-width="1" /><line x1="328" y1="488" x2="308" y2="466" stroke="green" stroke-width="1" /><line x1="328" y1="412" x2="308" y2="500" stroke="red" stroke-width="1" /><line x1="328" y1="466" x2="308" y2="510" stroke="green" stroke-width="1" /><line x1="284" y1="456" x2="308" y2="522" stroke="red" stroke-width="1" /><line x1="328" y1="510" x2="308" y2="532" stroke="green" stroke-width="1" /></svg>