<svg xmlns="http://www.w3.org/2000/svg" width="446" height="403"><rect x="0" y="0" width="446" height="403" fill="rgb(255,255,255)"></rect><rect x="0" y="0" width="400" height="360" fill="rgba(255,255,255,1)"></rect><rect x="166" y="341" width="40" height="20" fill="rgba(230,230,230,1)"></rect><text x="186" y="351" text-anchor="middle" alignment-baseline="middle" fill="black">+</text><rect x="122" y="363" width="40" height="20" fill="rgba(230,230,230,1)"></rect><text x="142" y="373" text-anchor="middle" alignment-baseline="middle" fill="black">+</text><rect x="78" y="363" width="40" height="20" fill="rgba(230,230,230,1)"></rect><text x="98" y="373" text-anchor="middle" alignment-baseline="middle" fill="black">+</text><rect x="34" y="341" width="40" height="20" fill="rgba(230,230,230,1)"></rect><text x="54" y="351" text-anchor="middle" alignment-baseline="middle" fill="black">+</text><rect x="34" y="297" width="40" height="20" fill="rgba(230,230,230,1)"></rect><text x="54" y="307" text-anchor="middle" alignment-baseline="middle" fill="black">+</text><rect x="78" y="253" width="40" height="20" fill="rgba(230,230,230,1)"></rect><text x="98" y="263" text-anchor="middle" alignment-baseline="middle" fill="black">+</text><rect x="78" y="231" width="40" height="20" fill="rgba(230,230,230,1)"></rect><text x="98" y="241" text-anchor="middle" alignment-baseline="middle" fill="black">+</text><rect x="122" y="231" width="40" height="20" fill="rgba(230,230,230,1)"></rect><text x="142" y="241" text-anchor="middle" alignment-baseline="middle" fill="black">+</text><rect x="166" y="231" width="40" height="20" fill="rgba(230,230,230,1)"></rect><text x="186" y="241" text-anchor="middle" alignment-baseline="middle" fill="black">+</text><rect x="188" y="275" width="40" height="20" fill="rgba(230,230,230,1)"></rect><text x="208" y="285" text-anchor="middle" alignment-baseline="middle" fill="black">+</text><rect x="166" y="319" width="40" height="20" fill="rgba(230,230,230,1)"></rect><text x="186" y="329" text-anchor="middle" alignment-baseline="middle" fill="black">+</text><rect x="122" y="341" width="40" height="20" fill="rgba(230,230,230,1)"></rect><text x="142" y="351" text-anchor="middle" alignment-baseline="middle" fill="black">+</text><rect x="78" y="341" width="40" height="20" fill="rgba(230,230,230,1)"></rect><text x="98" y="351" text-anchor="middle" alignment-baseline="middle" fill="black">+</text><rect x="34" y="319" width="40" height="20" fill="rgba(230,230,230,1)"></rect><text x="54" y="329" text-anchor="middle" alignment-baseline="middle" fill="black">+</text><rect x="34" y="275" width="40" height="20" fill="rgba(230,230,230,1)"></rect><text x="54" y="285" text-anchor="middle" alignment-baseline="middle" fill="black">+</text><rect x="78" y="209" width="40" height="20" fill="rgba(230,230,230,1)"></rect><text x="98" y="219" text-anchor="middle" alignment-baseline="middle" fill="black">+</text><rect x="122" y="187" width="40" height="20" fill="rgba(230,230,230,1)"></rect><text x="142" y="197" text-anchor="middle" alignment-baseline="middle" fill="black">+</text><rect x="166" y="187" width="40" height="20" fill="rgba(230,230,230,1)"></rect><text x="186" y="197" text-anchor="middle" alignment-baseline="middle" fill="black">+</text><rect x="210" y="165" width="40" height="20" fill="rgba(230,230,230,1)"></rect><text x="230" y="175" text-anchor="middle" alignment-baseline="middle" fill="black">+</text><rect x="254" y="187" width="40" height="20" fill="rgba(230,230,230,1)"></rect><text x="274" y="197" text-anchor="middle" alignment-baseline="middle" fill="black">+</text><rect x="122" y="297" width="40" height="20" fill="rgba(230,230,230,1)"></rect><text x="142" y="307" text-anchor="middle" alignment-baseline="middle" fill="black">+</text><rect x="122" y="319" width="40" height="20" fill="rgba(230,230,230,1)"></rect><text x="142" y="329" text-anchor="middle" alignment-baseline="middle" fill="black">+</text><rect x="78" y="319" width="40" height="20" fill="rgba(230,230,230,1)"></rect><text x="98" y="329" text-anchor="middle" alignment-baseline="middle" fill="black">+</text><rect x="78" y="297" width="40" height="20" fill="rgba(230,230,230,1)"></rect><text x="98" y="307" text-anchor="middle" alignment-baseline="middle" fill="black">+</text><rect x="34" y="231" width="40" height="20" fill="rgba(230,230,230,1)"></rect><text x="54" y="241" text-anchor="middle" alignment-baseline="middle" fill="black">+</text><rect x="122" y="165" width="40" height="20" fill="rgba(230,230,230,1)"></rect><text x="142" y="175" text-anchor="middle" alignment-baseline="middle" fill="black">+</text><rect x="166" y="165" width="40" height="20" fill="rgba(230,230,230,1)"></rect><text x="186" y="175" text-anchor="middle" alignment-baseline="middle" fill="black">+</text><rect x="210" y="143" width="40" height="20" fill="rgba(230,230,230,1)"></rect><text x="230" y="153" text-anchor="middle" alignment-baseline="middle" fill="black">+</text><rect x="254" y="165" width="40" height="20" fill="rgba(230,230,230,1)"></rect><text x="274" y="175" text-anchor="middle" alignment-baseline="middle" fill="black">+</text><rect x="298" y="187" width="40" height="20" fill="rgba(230,230,230,1)"></rect><text x="318" y="197" text-anchor="middle" alignment-baseline="middle" fill="black">+</text><rect x="122" y="275" width="40" height="20" fill="rgba(230,230,230,1)"></rect><text x="142" y="285" text-anchor="middle" alignment-baseline="middle" fill="black">+</text><rect x="78" y="275" width="40" height="20" fill="rgba(230,230,230,1)"></rect><text x="98" y="285" text-anchor="middle" alignment-baseline="middle" fill="black">+</text><rect x="34" y="253" width="40" height="20" fill="rgba(230,230,230,1)"></rect><text x="54" y="263" text-anchor="middle" alignment-baseline="middle" fill="black">+</text><rect x="34" y="209" width="40" height="20" fill="rgba(230,230,230,1)"></rect><text x="54" y="219" text-anchor="middle" alignment-baseline="middle" fill="black">+</text><rect x="78" y="187" width="40" height="20" fill="rgba(230,230,230,1)"></rect><text x="98" y="197" text-anchor="middle" alignment-baseline="middle" fill="black">+</text><rect x="122" y="209" width="40" height="20" fill="rgba(230,230,230,1)"></rect><text x="142" y="219" text-anchor="middle" alignment-baseline="middle" fill="black">+</text><rect x="166" y="209" width="40" height="20" fill="rgba(230,230,230,1)"></rect><text x="186" y="219" text-anchor="middle" alignment-baseline="middle" fill="black">+</text><rect x="254" y="231" width="40" height="20" fill="rgba(230,230,230,1)"></rect><text x="274" y="241" text-anchor="middle" alignment-baseline="middle" fill="black">+</text><rect x="254" y="209" width="40" height="20" fill="rgba(230,230,230,1)"></rect><text x="274" y="219" text-anchor="middle" alignment-baseline="middle" fill="black">+</text><rect x="298" y="231" width="40" height="20" fill="rgba(230,230,230,1)"></rect><text x="318" y="241" text-anchor="middle" alignment-baseline="middle" fill="black">+</text><rect x="78" y="165" width="40" height="20" fill="rgba(230,230,230,1)"></rect><text x="98" y="175" text-anchor="middle" alignment-baseline="middle" fill="black">+</text><rect x="34" y="187" width="40" height="20" fill="rgba(230,230,230,1)"></rect><text x="54" y="197" text-anchor="middle" alignment-baseline="middle" fill="black">+</text><rect x="34" y="165" width="40" height="20" fill="rgba(230,230,230,1)"></rect><text x="54" y="175" text-anchor="middle" alignment-baseline="middle" fill="black">+</text><rect x="34" y="143" width="40" height="20" fill="rgba(230,230,230,1)"></rect><text x="54" y="153" text-anchor="middle" alignment-baseline="middle" fill="black">+</text><rect x="78" y="143" width="40" height="20" fill="rgba(230,230,230,1)"></rect><text x="98" y="153" text-anchor="middle" alignment-baseline="middle" fill="black">+</text><rect x="122" y="253" width="40" height="20" fill="rgba(230,230,230,1)"></rect><text x="142" y="263" text-anchor="middle" alignment-baseline="middle" fill="black">+</text><rect x="166" y="297" width="40" height="20" fill="rgba(230,230,230,1)"></rect><text x="186" y="307" text-anchor="middle" alignment-baseline="middle" fill="black">+</text><rect x="232" y="275" width="40" height="20" fill="rgba(230,230,230,1)"></rect><text x="252" y="285" text-anchor="middle" alignment-baseline="middle" fill="black">+</text><rect x="232" y="253" width="40" height="20" fill="rgba(230,230,230,1)"></rect><text x="252" y="263" text-anchor="middle" alignment-baseline="middle" fill="black">+</text><rect x="320" y="253" width="40" height="20" fill="rgba(230,230,230,1)"></rect><text x="340" y="263" text-anchor="middle" alignment-baseline="middle" fill="black">+</text><rect x="78" y="121" width="40" height="20" fill="rgba(230,230,230,1)"></rect><text x="98" y="131" text-anchor="middle" alignment-baseline="middle" fill="black">+</text><rect x="34" y="121" width="40" height="20" fill="rgba(230,230,230,1)"></rect><text x="54" y="131" text-anchor="middle" alignment-baseline="middle" fill="black">+</text><rect x="34" y="77" width="40" height="20" fill="rgba(230,230,230,1)"></rect><text x="54" y="87" text-anchor="middle" alignment-baseline="middle" fill="black">+</text><rect x="34" y="99" width="40" height="20" fill="rgba(230,230,230,1)"></rect><text x="54" y="109" text-anchor="middle" alignment-baseline="middle" fill="black">+</text><rect x="122" y="143" width="40" height="20" fill="rgba(230,230,230,1)"></rect><text x="142" y="153" text-anchor="middle" alignment-baseline="middle" fill="black">+</text><rect x="166" y="253" width="40" height="20" fill="rgba(230,230,230,1)"></rect><text x="186" y="263" text-anchor="middle" alignment-baseline="middle" fill="black">+</text><rect x="210" y="297" width="40" height="20" fill="rgba(230,230,230,1)"></rect><text x="230" y="307" text-anchor="middle" alignment-baseline="middle" fill="black">+</text><rect x="254" y="297" width="40" height="20" fill="rgba(230,230,230,1)"></rect><text x="274" y="307" text-anchor="middle" alignment-baseline="middle" fill="black">+</text><rect x="276" y="253" width="40" height="20" fill="rgba(230,230,230,1)"></rect><text x="296" y="263" text-anchor="middle" alignment-baseline="middle" fill="black">+</text><rect x="364" y="231" width="40" height="20" fill="rgba(230,230,230,1)"></rect><text x="384" y="241" text-anchor="middle" alignment-baseline="middle" fill="black">+</text><rect x="78" y="99" width="40" height="20" fill="rgba(230,230,230,1)"></rect><text x="98" y="109" text-anchor="middle" alignment-baseline="middle" fill="black">+</text><rect x="78" y="77" width="40" height="20" fill="rgba(230,230,230,1)"></rect><text x="98" y="87" text-anchor="middle" alignment-baseline="middle" fill="black">+</text><rect x="78" y="55" width="40" height="20" fill="rgba(230,230,230,1)"></rect><text x="98" y="65" text-anchor="middle" alignment-baseline="middle" fill="black">+</text><rect x="122" y="99" width="40" height="20" fill="rgba(230,230,230,1)"></rect><text x="142" y="109" text-anchor="middle" alignment-baseline="middle" fill="black">+</text><rect x="166" y="143" width="40" height="20" fill="rgba(230,230,230,1)"></rect><text x="186" y="153" text-anchor="middle" alignment-baseline="middle" fill="black">+</text><rect x="210" y="187" width="40" height="20" fill="rgba(230,230,230,1)"></rect><text x="230" y="197" text-anchor="middle" alignment-baseline="middle" fill="black">+</text><rect x="276" y="275" width="40" height="20" fill="rgba(230,230,230,1)"></rect><text x="296" y="285" text-anchor="middle" alignment-baseline="middle" fill="black">+</text><rect x="320" y="275" width="40" height="20" fill="rgba(230,230,230,1)"></rect><text x="340" y="285" text-anchor="middle" alignment-baseline="middle" fill="black">+</text><rect x="342" y="209" width="40" height="20" fill="rgba(230,230,230,1)"></rect><text x="362" y="219" text-anchor="middle" alignment-baseline="middle" fill="black">+</text><rect x="298" y="165" width="40" height="20" fill="rgba(230,230,230,1)"></rect><text x="318" y="175" text-anchor="middle" alignment-baseline="middle" fill="black">+</text><rect x="122" y="121" width="40" height="20" fill="rgba(230,230,230,1)"></rect><text x="142" y="131" text-anchor="middle" alignment-baseline="middle" fill="black">+</text><rect x="122" y="77" width="40" height="20" fill="rgba(230,230,230,1)"></rect><text x="142" y="87" text-anchor="middle" alignment-baseline="middle" fill="black">+</text><rect x="122" y="55" width="40" height="20" fill="rgba(230,230,230,1)"></rect><text x="142" y="65" text-anchor="middle" alignment-baseline="middle" fill="black">+</text><rect x="166" y="77" width="40" height="20" fill="rgba(230,230,230,1)"></rect><text x="186" y="87" text-anchor="middle" alignment-baseline="middle" fill="black">+</text><rect x="210" y="121" width="40" height="20" fill="rgba(230,230,230,1)"></rect><text x="230" y="131" text-anchor="middle" alignment-baseline="middle" fill="black">+</text><rect x="254" y="143" width="40" height="20" fill="rgba(230,230,230,1)"></rect><text x="274" y="153" text-anchor="middle" alignment-baseline="middle" fill="black">+</text><rect x="298" y="209" width="40" height="20" fill="rgba(230,230,230,1)"></rect><text x="318" y="219" text-anchor="middle" alignment-baseline="middle" fill="black">+</text><rect x="342" y="187" width="40" height="20" fill="rgba(230,230,230,1)"></rect><text x="362" y="197" text-anchor="middle" alignment-baseline="middle" fill="black">+</text><rect x="342" y="165" width="40" height="20" fill="rgba(230,230,230,1)"></rect><text x="362" y="175" text-anchor="middle" alignment-baseline="middle" fill="black">+</text><rect x="298" y="143" width="40" height="20" fill="rgba(230,230,230,1)"></rect><text x="318" y="153" text-anchor="middle" alignment-baseline="middle" fill="black">+</text><rect x="166" y="121" width="40" height="20" fill="rgba(230,230,230,1)"></rect><text x="186" y="131" text-anchor="middle" alignment-baseline="middle" fill="black">+</text><rect x="166" y="99" width="40" height="20" fill="rgba(230,230,230,1)"></rect><text x="186" y="109" text-anchor="middle" alignment-baseline="middle" fill="black">+</text><rect x="166" y="55" width="40" height="20" fill="rgba(230,230,230,1)"></rect><text x="186" y="65" text-anchor="middle" alignment-baseline="middle" fill="black">+</text><rect x="210" y="77" width="40" height="20" fill="rgba(230,230,230,1)"></rect><text x="230" y="87" text-anchor="middle" alignment-baseline="middle" fill="black">+</text><rect x="254" y="121" width="40" height="20" fill="rgba(230,230,230,1)"></rect><text x="274" y="131" text-anchor="middle" alignment-baseline="middle" fill="black">+</text><rect x="298" y="121" width="40" height="20" fill="rgba(230,230,230,1)"></rect><text x="318" y="131" text-anchor="middle" alignment-baseline="middle" fill="black">+</text><rect x="342" y="121" width="40" height="20" fill="rgba(230,230,230,1)"></rect><text x="362" y="131" text-anchor="middle" alignment-baseline="middle" fill="black">+</text><rect x="386" y="121" width="40" height="20" fill="rgba(230,230,230,1)"></rect><text x="406" y="131" text-anchor="middle" alignment-baseline="middle" fill="black">+</text><rect x="386" y="165" width="40" height="20" fill="rgba(230,230,230,1)"></rect><text x="406" y="175" text-anchor="middle" alignment-baseline="middle" fill="black">+</text><rect x="386" y="187" width="40" height="20" fill="rgba(230,230,230,1)"></rect><text x="406" y="197" text-anchor="middle" alignment-baseline="middle" fill="black">+</text><rect x="210" y="99" width="40" height="20" fill="rgba(230,230,230,1)"></rect><text x="230" y="109" text-anchor="middle" alignment-baseline="middle" fill="black">+</text><rect x="210" y="33" width="40" height="20" fill="rgba(230,230,230,1)"></rect><text x="230" y="43" text-anchor="middle" alignment-baseline="middle" fill="black">+</text><rect x="210" y="55" width="40" height="20" fill="rgba(230,230,230,1)"></rect><text x="230" y="65" text-anchor="middle" alignment-baseline="middle" fill="black">+</text><rect x="254" y="77" width="40" height="20" fill="rgba(230,230,230,1)"></rect><text x="274" y="87" text-anchor="middle" alignment-baseline="middle" fill="black">+</text><rect x="254" y="99" width="40" height="20" fill="rgba(230,230,230,1)"></rect><text x="274" y="109" text-anchor="middle" alignment-baseline="middle" fill="black">+</text><rect x="298" y="99" width="40" height="20" fill="rgba(230,230,230,1)"></rect><text x="318" y="109" text-anchor="middle" alignment-baseline="middle" fill="black">+</text><rect x="342" y="77" width="40" height="20" fill="rgba(230,230,230,1)"></rect><text x="362" y="87" text-anchor="middle" alignment-baseline="middle" fill="black">+</text><rect x="364" y="99" width="40" height="20" fill="rgba(230,230,230,1)"></rect><text x="384" y="109" text-anchor="middle" alignment-baseline="middle" fill="black">+</text><rect x="342" y="143" width="40" height="20" fill="rgba(230,230,230,1)"></rect><text x="362" y="153" text-anchor="middle" alignment-baseline="middle" fill="black">+</text><rect x="386" y="209" width="40" height="20" fill="rgba(230,230,230,1)"></rect><text x="406" y="219" text-anchor="middle" alignment-baseline="middle" fill="black">+</text><rect x="209" y="209" width="40" height="40" fill="rgba(101,101,101,1)"></rect><text x="229" y="229" text-anchor="middle" alignment-baseline="middle" fill="black">SS</text><line x1="196" y1="356" x2="132" y2="378" stroke="green" stroke-width="1" /><line x1="152" y1="378" x2="88" y2="378" stroke="green" stroke-width="1" /><line x1="108" y1="378" x2="44" y2="356" stroke="green" stroke-width="1" /><line x1="64" y1="356" x2="44" y2="312" stroke="green" stroke-width="1" /><line x1="64" y1="312" x2="88" y2="268" stroke="green" stroke-width="1" /><line x1="108" y1="268" x2="88" y2="246" stroke="green" stroke-width="1" /><line x1="108" y1="246" x2="132" y2="246" stroke="green" stroke-width="1" /><line x1="152" y1="246" x2="176" y2="246" stroke="green" stroke-width="1" /><line x1="196" y1="246" x2="198" y2="290" stroke="green" stroke-width="1" /><line x1="196" y1="346" x2="176" y2="324" stroke="red" stroke-width="1" /><line x1="152" y1="368" x2="132" y2="346" stroke="red" stroke-width="1" /><line x1="196" y1="334" x2="132" y2="356" stroke="green" stroke-width="1" /><line x1="108" y1="368" x2="88" y2="346" stroke="red" stroke-width="1" /><line x1="152" y1="356" x2="88" y2="356" stroke="green" stroke-width="1" /><line x1="64" y1="346" x2="44" y2="324" stroke="red" stroke-width="1" /><line x1="108" y1="356" x2="44" y2="334" stroke="green" stroke-width="1" /><line x1="64" y1="302" x2="44" y2="280" stroke="red" stroke-width="1" /><line x1="64" y1="334" x2="44" y2="290" stroke="green" stroke-width="1" /><line x1="108" y1="258" x2="88" y2="214" stroke="red" stroke-width="1" /><line x1="64" y1="290" x2="88" y2="224" stroke="green" stroke-width="1" /><line x1="108" y1="236" x2="132" y2="192" stroke="red" stroke-width="1" /><line x1="108" y1="224" x2="132" y2="202" stroke="green" stroke-width="1" /><line x1="152" y1="236" x2="176" y2="192" stroke="red" stroke-width="1" /><line x1="152" y1="202" x2="176" y2="202" stroke="green" stroke-width="1" /><line x1="196" y1="236" x2="220" y2="170" stroke="red" stroke-width="1" /><line x1="196" y1="202" x2="220" y2="180" stroke="green" stroke-width="1" /><line x1="218" y1="280" x2="264" y2="192" stroke="red" stroke-width="1" /><line x1="240" y1="180" x2="264" y2="202" stroke="green" stroke-width="1" /><line x1="196" y1="324" x2="132" y2="302" stroke="red" stroke-width="1" /><line x1="152" y1="346" x2="132" y2="324" stroke="red" stroke-width="1" /><line x1="152" y1="312" x2="132" y2="334" stroke="green" stroke-width="1" /><line x1="108" y1="346" x2="88" y2="324" stroke="red" stroke-width="1" /><line x1="152" y1="334" x2="88" y2="334" stroke="green" stroke-width="1" /><line x1="64" y1="324" x2="88" y2="302" stroke="red" stroke-width="1" /><line x1="108" y1="334" x2="88" y2="312" stroke="green" stroke-width="1" /><line x1="64" y1="280" x2="44" y2="236" stroke="red" stroke-width="1" /><line x1="108" y1="312" x2="44" y2="246" stroke="green" stroke-width="1" /><line x1="108" y1="214" x2="132" y2="170" stroke="red" stroke-width="1" /><line x1="64" y1="246" x2="132" y2="180" stroke="green" stroke-width="1" /><line x1="152" y1="192" x2="176" y2="170" stroke="red" stroke-width="1" /><line x1="152" y1="180" x2="176" y2="180" stroke="green" stroke-width="1" /><line x1="196" y1="192" x2="220" y2="148" stroke="red" stroke-width="1" /><line x1="196" y1="180" x2="220" y2="158" stroke="green" stroke-width="1" /><line x1="240" y1="170" x2="264" y2="170" stroke="red" stroke-width="1" /><line x1="240" y1="158" x2="264" y2="180" stroke="green" stroke-width="1" /><line x1="284" y1="192" x2="308" y2="192" stroke="red" stroke-width="1" /><line x1="284" y1="180" x2="308" y2="202" stroke="green" stroke-width="1" /><line x1="152" y1="302" x2="132" y2="280" stroke="red" stroke-width="1" /><line x1="152" y1="324" x2="88" y2="280" stroke="red" stroke-width="1" /><line x1="152" y1="290" x2="88" y2="290" stroke="green" stroke-width="1" /><line x1="108" y1="324" x2="44" y2="258" stroke="red" stroke-width="1" /><line x1="108" y1="290" x2="44" y2="268" stroke="green" stroke-width="1" /><line x1="108" y1="302" x2="44" y2="214" stroke="red" stroke-width="1" /><line x1="64" y1="268" x2="44" y2="224" stroke="green" stroke-width="1" /><line x1="64" y1="236" x2="88" y2="192" stroke="red" stroke-width="1" /><line x1="64" y1="224" x2="88" y2="202" stroke="green" stroke-width="1" /><line x1="152" y1="170" x2="132" y2="214" stroke="red" stroke-width="1" /><line x1="108" y1="202" x2="132" y2="224" stroke="green" stroke-width="1" /><line x1="196" y1="170" x2="176" y2="214" stroke="red" stroke-width="1" /><line x1="152" y1="224" x2="176" y2="224" stroke="green" stroke-width="1" /><line x1="240" y1="148" x2="264" y2="236" stroke="red" stroke-width="1" /><line x1="196" y1="224" x2="264" y2="246" stroke="green" stroke-width="1" /><line x1="284" y1="170" x2="264" y2="214" stroke="red" stroke-width="1" /><line x1="284" y1="246" x2="264" y2="224" stroke="green" stroke-width="1" /><line x1="328" y1="192" x2="308" y2="236" stroke="red" stroke-width="1" /><line x1="284" y1="224" x2="308" y2="246" stroke="green" stroke-width="1" /><line x1="152" y1="280" x2="88" y2="170" stroke="red" stroke-width="1" /><line x1="108" y1="280" x2="44" y2="192" stroke="red" stroke-width="1" /><line x1="108" y1="180" x2="44" y2="202" stroke="green" stroke-width="1" /><line x1="64" y1="258" x2="44" y2="170" stroke="red" stroke-width="1" /><line x1="64" y1="202" x2="44" y2="180" stroke="green" stroke-width="1" /><line x1="64" y1="214" x2="44" y2="148" stroke="red" stroke-width="1" /><line x1="64" y1="180" x2="44" y2="158" stroke="green" stroke-width="1" /><line x1="108" y1="192" x2="88" y2="148" stroke="red" stroke-width="1" /><line x1="64" y1="158" x2="88" y2="158" stroke="green" stroke-width="1" /><line x1="152" y1="214" x2="132" y2="258" stroke="red" stroke-width="1" /><line x1="108" y1="158" x2="132" y2="268" stroke="green" stroke-width="1" /><line x1="196" y1="214" x2="176" y2="302" stroke="red" stroke-width="1" /><line x1="152" y1="268" x2="176" y2="312" stroke="green" stroke-width="1" /><line x1="284" y1="236" x2="242" y2="280" stroke="red" stroke-width="1" /><line x1="196" y1="312" x2="242" y2="290" stroke="green" stroke-width="1" /><line x1="284" y1="214" x2="242" y2="258" stroke="red" stroke-width="1" /><line x1="262" y1="290" x2="242" y2="268" stroke="green" stroke-width="1" /><line x1="328" y1="236" x2="330" y2="258" stroke="red" stroke-width="1" /><line x1="262" y1="268" x2="330" y2="268" stroke="green" stroke-width="1" /><line x1="108" y1="170" x2="88" y2="126" stroke="red" stroke-width="1" /><line x1="64" y1="192" x2="44" y2="126" stroke="red" stroke-width="1" /><line x1="108" y1="136" x2="44" y2="136" stroke="green" stroke-width="1" /><line x1="64" y1="170" x2="44" y2="82" stroke="red" stroke-width="1" /><line x1="64" y1="136" x2="44" y2="92" stroke="green" stroke-width="1" /><line x1="64" y1="148" x2="44" y2="104" stroke="red" stroke-width="1" /><line x1="64" y1="92" x2="44" y2="114" stroke="green" stroke-width="1" /><line x1="108" y1="148" x2="132" y2="148" stroke="red" stroke-width="1" /><line x1="64" y1="114" x2="132" y2="158" stroke="green" stroke-width="1" /><line x1="152" y1="258" x2="176" y2="258" stroke="red" stroke-width="1" /><line x1="152" y1="158" x2="176" y2="268" stroke="green" stroke-width="1" /><line x1="196" y1="302" x2="220" y2="302" stroke="red" stroke-width="1" /><line x1="196" y1="268" x2="220" y2="312" stroke="green" stroke-width="1" /><line x1="262" y1="280" x2="264" y2="302" stroke="red" stroke-width="1" /><line x1="240" y1="312" x2="264" y2="312" stroke="green" stroke-width="1" /><line x1="262" y1="258" x2="286" y2="258" stroke="red" stroke-width="1" /><line x1="284" y1="312" x2="286" y2="268" stroke="green" stroke-width="1" /><line x1="350" y1="258" x2="374" y2="236" stroke="red" stroke-width="1" /><line x1="306" y1="268" x2="374" y2="246" stroke="green" stroke-width="1" /><line x1="108" y1="126" x2="88" y2="104" stroke="red" stroke-width="1" /><line x1="64" y1="126" x2="88" y2="82" stroke="red" stroke-width="1" /><line x1="108" y1="114" x2="88" y2="92" stroke="green" stroke-width="1" /><line x1="64" y1="82" x2="88" y2="60" stroke="red" stroke-width="1" /><line x1="108" y1="92" x2="88" y2="70" stroke="green" stroke-width="1" /><line x1="64" y1="104" x2="132" y2="104" stroke="red" stroke-width="1" /><line x1="108" y1="70" x2="132" y2="114" stroke="green" stroke-width="1" /><line x1="152" y1="148" x2="176" y2="148" stroke="red" stroke-width="1" /><line x1="152" y1="114" x2="176" y2="158" stroke="green" stroke-width="1" /><line x1="196" y1="258" x2="220" y2="192" stroke="red" stroke-width="1" /><line x1="196" y1="158" x2="220" y2="202" stroke="green" stroke-width="1" /><line x1="240" y1="302" x2="286" y2="280" stroke="red" stroke-width="1" /><line x1="240" y1="202" x2="286" y2="290" stroke="green" stroke-width="1" /><line x1="284" y1="302" x2="330" y2="280" stroke="red" stroke-width="1" /><line x1="306" y1="290" x2="330" y2="290" stroke="green" stroke-width="1" /><line x1="306" y1="258" x2="352" y2="214" stroke="red" stroke-width="1" /><line x1="350" y1="290" x2="352" y2="224" stroke="green" stroke-width="1" /><line x1="394" y1="236" x2="308" y2="170" stroke="red" stroke-width="1" /><line x1="372" y1="224" x2="308" y2="180" stroke="green" stroke-width="1" /><line x1="108" y1="104" x2="132" y2="126" stroke="red" stroke-width="1" /><line x1="108" y1="82" x2="132" y2="82" stroke="red" stroke-width="1" /><line x1="152" y1="136" x2="132" y2="92" stroke="green" stroke-width="1" /><line x1="108" y1="60" x2="132" y2="60" stroke="red" stroke-width="1" /><line x1="152" y1="92" x2="132" y2="70" stroke="green" stroke-width="1" /><line x1="152" y1="104" x2="176" y2="82" stroke="red" stroke-width="1" /><line x1="152" y1="70" x2="176" y2="92" stroke="green" stroke-width="1" /><line x1="196" y1="148" x2="220" y2="126" stroke="red" stroke-width="1" /><line x1="196" y1="92" x2="220" y2="136" stroke="green" stroke-width="1" /><line x1="240" y1="192" x2="264" y2="148" stroke="red" stroke-width="1" /><line x1="240" y1="136" x2="264" y2="158" stroke="green" stroke-width="1" /><line x1="306" y1="280" x2="308" y2="214" stroke="red" stroke-width="1" /><line x1="284" y1="158" x2="308" y2="224" stroke="green" stroke-width="1" /><line x1="350" y1="280" x2="352" y2="192" stroke="red" stroke-width="1" /><line x1="328" y1="224" x2="352" y2="202" stroke="green" stroke-width="1" /><line x1="372" y1="214" x2="352" y2="170" stroke="red" stroke-width="1" /><line x1="372" y1="202" x2="352" y2="180" stroke="green" stroke-width="1" /><line x1="328" y1="170" x2="308" y2="148" stroke="red" stroke-width="1" /><line x1="372" y1="180" x2="308" y2="158" stroke="green" stroke-width="1" /><line x1="152" y1="126" x2="176" y2="126" stroke="red" stroke-width="1" /><line x1="152" y1="82" x2="176" y2="104" stroke="red" stroke-width="1" /><line x1="196" y1="136" x2="176" y2="114" stroke="green" stroke-width="1" /><line x1="152" y1="60" x2="176" y2="60" stroke="red" stroke-width="1" /><line x1="196" y1="114" x2="176" y2="70" stroke="green" stroke-width="1" /><line x1="196" y1="82" x2="220" y2="82" stroke="red" stroke-width="1" /><line x1="196" y1="70" x2="220" y2="92" stroke="green" stroke-width="1" /><line x1="240" y1="126" x2="264" y2="126" stroke="red" stroke-width="1" /><line x1="240" y1="92" x2="264" y2="136" stroke="green" stroke-width="1" /><line x1="284" y1="148" x2="308" y2="126" stroke="red" stroke-width="1" /><line x1="284" y1="136" x2="308" y2="136" stroke="green" stroke-width="1" /><line x1="328" y1="214" x2="352" y2="126" stroke="red" stroke-width="1" /><line x1="328" y1="136" x2="352" y2="136" stroke="green" stroke-width="1" /><line x1="372" y1="192" x2="396" y2="126" stroke="red" stroke-width="1" /><line x1="372" y1="136" x2="396" y2="136" stroke="green" stroke-width="1" /><line x1="372" y1="170" x2="396" y2="170" stroke="red" stroke-width="1" /><line x1="416" y1="136" x2="396" y2="180" stroke="green" stroke-width="1" /><line x1="328" y1="148" x2="396" y2="192" stroke="red" stroke-width="1" /><line x1="416" y1="180" x2="396" y2="202" stroke="green" stroke-width="1" /><line x1="196" y1="126" x2="220" y2="104" stroke="red" stroke-width="1" /><line x1="196" y1="104" x2="220" y2="38" stroke="red" stroke-width="1" /><line x1="240" y1="114" x2="220" y2="48" stroke="green" stroke-width="1" /><line x1="196" y1="60" x2="220" y2="60" stroke="red" stroke-width="1" /><line x1="240" y1="48" x2="220" y2="70" stroke="green" stroke-width="1" /><line x1="240" y1="82" x2="264" y2="82" stroke="red" stroke-width="1" /><line x1="240" y1="70" x2="264" y2="92" stroke="green" stroke-width="1" /><line x1="284" y1="126" x2="264" y2="104" stroke="red" stroke-width="1" /><line x1="284" y1="92" x2="264" y2="114" stroke="green" stroke-width="1" /><line x1="328" y1="126" x2="308" y2="104" stroke="red" stroke-width="1" /><line x1="284" y1="114" x2="308" y2="114" stroke="green" stroke-width="1" /><line x1="372" y1="126" x2="352" y2="82" stroke="red" stroke-width="1" /><line x1="328" y1="114" x2="352" y2="92" stroke="green" stroke-width="1" /><line x1="416" y1="126" x2="374" y2="104" stroke="red" stroke-width="1" /><line x1="372" y1="92" x2="374" y2="114" stroke="green" stroke-width="1" /><line x1="416" y1="170" x2="352" y2="148" stroke="red" stroke-width="1" /><line x1="394" y1="114" x2="352" y2="158" stroke="green" stroke-width="1" /><line x1="416" y1="192" x2="396" y2="214" stroke="red" stroke-width="1" /><line x1="372" y1="158" x2="396" y2="224" stroke="green" stroke-width="1" /></svg>