<svg xmlns="http://www.w3.org/2000/svg" width="560" height="557"><rect x="0" y="0" width="560" height="557" fill="rgb(255,255,255)"></rect><rect x="0" y="0" width="540" height="500" fill="rgba(255,255,255,1)"></rect><rect x="34" y="33" width="40" height="20" fill="rgba(230,230,230,1)"><title>0</title></rect><text x="54" y="43" text-anchor="middle" alignment-baseline="middle" fill="black">+</text><rect x="78" y="33" width="40" height="20" fill="rgba(230,230,230,1)"><title>1</title></rect><text x="98" y="43" text-anchor="middle" alignment-baseline="middle" fill="black">+</text><rect x="34" y="77" width="40" height="20" fill="rgba(230,230,230,1)"><title>2</title></rect><text x="54" y="87" text-anchor="middle" alignment-baseline="middle" fill="black">+</text><rect x="34" y="99" width="40" height="20" fill="rgba(230,230,230,1)"><title>3</title></rect><text x="54" y="109" text-anchor="middle" alignment-baseline="middle" fill="black">+</text><rect x="34" y="297" width="40" height="20" fill="rgba(230,230,230,1)"><title>4</title></rect><text x="54" y="307" text-anchor="middle" alignment-baseline="middle" fill="black">+</text><rect x="34" y="319" width="40" height="20" fill="rgba(230,230,230,1)"><title>5</title></rect><text x="54" y="329" text-anchor="middle" alignment-baseline="middle" fill="black">+</text><rect x="34" y="341" width="40" height="20" fill="rgba(230,230,230,1)"><title>6</title></rect><text x="54" y="351" text-anchor="middle" alignment-baseline="middle" fill="black">+</text><rect x="34" y="363" width="40" height="20" fill="rgba(230,230,230,1)"><title>7</title></rect><text x="54" y="373" text-anchor="middle" alignment-baseline="middle" fill="black">+</text><rect x="34" y="385" width="40" height="20" fill="rgba(230,230,230,1)"><title>8</title></rect><text x="54" y="395" text-anchor="middle" alignment-baseline="middle" fill="black">+</text><rect x="34" y="407" width="40" height="20" fill="rgba(230,230,230,1)"><title>9</title></rect><text x="54" y="417" text-anchor="middle" alignment-baseline="middle" fill="black">+</text><rect x="34" y="429" width="40" height="20" fill="rgba(230,230,230,1)"><title>10</title></rect><text x="54" y="439" text-anchor="middle" alignment-baseline="middle" fill="black">+</text><rect x="34" y="451" width="40" height="20" fill="rgba(230,230,230,1)"><title>11</title></rect><text x="54" y="461" text-anchor="middle" alignment-baseline="middle" fill="black">+</text><rect x="78" y="99" width="40" height="20" fill="rgba(230,230,230,1)"><title>12</title></rect><text x="98" y="109" text-anchor="middle" alignment-baseline="middle" fill="black">+</text><rect x="34" y="143" width="40" height="20" fill="rgba(230,230,230,1)"><title>13</title></rect><text x="54" y="153" text-anchor="middle" alignment-baseline="middle" fill="black">+</text><rect x="34" y="165" width="40" height="20" fill="rgba(230,230,230,1)"><title>14</title></rect><text x="54" y="175" text-anchor="middle" alignment-baseline="middle" fill="black">+</text><rect x="34" y="187" width="40" height="20" fill="rgba(230,230,230,1)"><title>15</title></rect><text x="54" y="197" text-anchor="middle" alignment-baseline="middle" fill="black">+</text><rect x="34" y="209" width="40" height="20" fill="rgba(230,230,230,1)"><title>16</title></rect><text x="54" y="219" text-anchor="middle" alignment-baseline="middle" fill="black">+</text><rect x="34" y="231" width="40" height="20" fill="rgba(230,230,230,1)"><title>17</title></rect><text x="54" y="241" text-anchor="middle" alignment-baseline="middle" fill="black">+</text><rect x="34" y="473" width="40" height="20" fill="rgba(230,230,230,1)"><title>18</title></rect><text x="54" y="483" text-anchor="middle" alignment-baseline="middle" fill="black">+</text><rect x="34" y="495" width="40" height="20" fill="rgba(230,230,230,1)"><title>19</title></rect><text x="54" y="505" text-anchor="middle" alignment-baseline="middle" fill="black">+</text><rect x="34" y="55" width="40" height="20" fill="rgba(230,230,230,1)"><title>20</title></rect><text x="54" y="65" text-anchor="middle" alignment-baseline="middle" fill="black">+</text><rect x="78" y="55" width="40" height="20" fill="rgba(230,230,230,1)"><title>21</title></rect><text x="98" y="65" text-anchor="middle" alignment-baseline="middle" fill="black">+</text><rect x="78" y="77" width="40" height="20" fill="rgba(230,230,230,1)"><title>22</title></rect><text x="98" y="87" text-anchor="middle" alignment-baseline="middle" fill="black">+</text><rect x="78" y="121" width="40" height="20" fill="rgba(230,230,230,1)"><title>23</title></rect><text x="98" y="131" text-anchor="middle" alignment-baseline="middle" fill="black">+</text><rect x="78" y="297" width="40" height="20" fill="rgba(230,230,230,1)"><title>24</title></rect><text x="98" y="307" text-anchor="middle" alignment-baseline="middle" fill="black">+</text><rect x="78" y="319" width="40" height="20" fill="rgba(230,230,230,1)"><title>25</title></rect><text x="98" y="329" text-anchor="middle" alignment-baseline="middle" fill="black">+</text><rect x="78" y="341" width="40" height="20" fill="rgba(230,230,230,1)"><title>26</title></rect><text x="98" y="351" text-anchor="middle" alignment-baseline="middle" fill="black">+</text><rect x="78" y="363" width="40" height="20" fill="rgba(230,230,230,1)"><title>27</title></rect><text x="98" y="373" text-anchor="middle" alignment-baseline="middle" fill="black">+</text><rect x="78" y="385" width="40" height="20" fill="rgba(230,230,230,1)"><title>28</title></rect><text x="98" y="395" text-anchor="middle" alignment-baseline="middle" fill="black">+</text><rect x="78" y="407" width="40" height="20" fill="rgba(230,230,230,1)"><title>29</title></rect><text x="98" y="417" text-anchor="middle" alignment-baseline="middle" fill="black">+</text><rect x="78" y="429" width="40" height="20" fill="rgba(230,230,230,1)"><title>30</title></rect><text x="98" y="439" text-anchor="middle" alignment-baseline="middle" fill="black">+</text><rect x="78" y="451" width="40" height="20" fill="rgba(230,230,230,1)"><title>31</title></rect><text x="98" y="461" text-anchor="middle" alignment-baseline="middle" fill="black">+</text><rect x="34" y="121" width="40" height="20" fill="rgba(230,230,230,1)"><title>32</title></rect><text x="54" y="131" text-anchor="middle" alignment-baseline="middle" fill="black">+</text><rect x="78" y="143" width="40" height="20" fill="rgba(230,230,230,1)"><title>33</title></rect><text x="98" y="153" text-anchor="middle" alignment-baseline="middle" fill="black">+</text><rect x="78" y="165" width="40" height="20" fill="rgba(230,230,230,1)"><title>34</title></rect><text x="98" y="175" text-anchor="middle" alignment-baseline="middle" fill="black">+</text><rect x="78" y="187" width="40" height="20" fill="rgba(230,230,230,1)"><title>35</title></rect><text x="98" y="197" text-anchor="middle" alignment-baseline="middle" fill="black">+</text><rect x="78" y="209" width="40" height="20" fill="rgba(230,230,230,1)"><title>36</title></rect><text x="98" y="219" text-anchor="middle" alignment-baseline="middle" fill="black">+</text><rect x="122" y="209" width="40" height="20" fill="rgba(230,230,230,1)"><title>37</title></rect><text x="142" y="219" text-anchor="middle" alignment-baseline="middle" fill="black">+</text><rect x="78" y="473" width="40" height="20" fill="rgba(230,230,230,1)"><title>38</title></rect><text x="98" y="483" text-anchor="middle" alignment-baseline="middle" fill="black">+</text><rect x="78" y="495" width="40" height="20" fill="rgba(230,230,230,1)"><title>39</title></rect><text x="98" y="505" text-anchor="middle" alignment-baseline="middle" fill="black">+</text><rect x="122" y="33" width="40" height="20" fill="rgba(230,230,230,1)"><title>40</title></rect><text x="142" y="43" text-anchor="middle" alignment-baseline="middle" fill="black">+</text><rect x="122" y="55" width="40" height="20" fill="rgba(230,230,230,1)"><title>41</title></rect><text x="142" y="65" text-anchor="middle" alignment-baseline="middle" fill="black">+</text><rect x="122" y="77" width="40" height="20" fill="rgba(230,230,230,1)"><title>42</title></rect><text x="142" y="87" text-anchor="middle" alignment-baseline="middle" fill="black">+</text><rect x="122" y="99" width="40" height="20" fill="rgba(230,230,230,1)"><title>43</title></rect><text x="142" y="109" text-anchor="middle" alignment-baseline="middle" fill="black">+</text><rect x="122" y="297" width="40" height="20" fill="rgba(230,230,230,1)"><title>44</title></rect><text x="142" y="307" text-anchor="middle" alignment-baseline="middle" fill="black">+</text><rect x="122" y="319" width="40" height="20" fill="rgba(230,230,230,1)"><title>45</title></rect><text x="142" y="329" text-anchor="middle" alignment-baseline="middle" fill="black">+</text><rect x="122" y="341" width="40" height="20" fill="rgba(230,230,230,1)"><title>46</title></rect><text x="142" y="351" text-anchor="middle" alignment-baseline="middle" fill="black">+</text><rect x="122" y="363" width="40" height="20" fill="rgba(230,230,230,1)"><title>47</title></rect><text x="142" y="373" text-anchor="middle" alignment-baseline="middle" fill="black">+</text><rect x="122" y="385" width="40" height="20" fill="rgba(230,230,230,1)"><title>48</title></rect><text x="142" y="395" text-anchor="middle" alignment-baseline="middle" fill="black">+</text><rect x="122" y="407" width="40" height="20" fill="rgba(230,230,230,1)"><title>49</title></rect><text x="142" y="417" text-anchor="middle" alignment-baseline="middle" fill="black">+</text><rect x="122" y="429" width="40" height="20" fill="rgba(230,230,230,1)"><title>50</title></rect><text x="142" y="439" text-anchor="middle" alignment-baseline="middle" fill="black">+</text><rect x="122" y="451" width="40" height="20" fill="rgba(230,230,230,1)"><title>51</title></rect><text x="142" y="461" text-anchor="middle" alignment-baseline="middle" fill="black">+</text><rect x="122" y="121" width="40" height="20" fill="rgba(230,230,230,1)"><title>52</title></rect><text x="142" y="131" text-anchor="middle" alignment-baseline="middle" fill="black">+</text><rect x="122" y="143" width="40" height="20" fill="rgba(230,230,230,1)"><title>53</title></rect><text x="142" y="153" text-anchor="middle" alignment-baseline="middle" fill="black">+</text><rect x="122" y="165" width="40" height="20" fill="rgba(230,230,230,1)"><title>54</title></rect><text x="142" y="175" text-anchor="middle" alignment-baseline="middle" fill="black">+</text><rect x="122" y="187" width="40" height="20" fill="rgba(230,230,230,1)"><title>55</title></rect><text x="142" y="197" text-anchor="middle" alignment-baseline="middle" fill="black">+</text><rect x="78" y="231" width="40" height="20" fill="rgba(230,230,230,1)"><title>56</title></rect><text x="98" y="241" text-anchor="middle" alignment-baseline="middle" fill="black">+</text><rect x="122" y="253" width="40" height="20" fill="rgba(230,230,230,1)"><title>57</title></rect><text x="142" y="263" text-anchor="middle" alignment-baseline="middle" fill="black">+</text><rect x="122" y="473" width="40" height="20" fill="rgba(230,230,230,1)"><title>58</title></rect><text x="142" y="483" text-anchor="middle" alignment-baseline="middle" fill="black">+</text><rect x="122" y="495" width="40" height="20" fill="rgba(230,230,230,1)"><title>59</title></rect><text x="142" y="505" text-anchor="middle" alignment-baseline="middle" fill="black">+</text><rect x="166" y="33" width="40" height="20" fill="rgba(230,230,230,1)"><title>60</title></rect><text x="186" y="43" text-anchor="middle" alignment-baseline="middle" fill="black">+</text><rect x="166" y="55" width="40" height="20" fill="rgba(230,230,230,1)"><title>61</title></rect><text x="186" y="65" text-anchor="middle" alignment-baseline="middle" fill="black">+</text><rect x="166" y="77" width="40" height="20" fill="rgba(230,230,230,1)"><title>62</title></rect><text x="186" y="87" text-anchor="middle" alignment-baseline="middle" fill="black">+</text><rect x="166" y="99" width="40" height="20" fill="rgba(230,230,230,1)"><title>63</title></rect><text x="186" y="109" text-anchor="middle" alignment-baseline="middle" fill="black">+</text><rect x="166" y="297" width="40" height="20" fill="rgba(230,230,230,1)"><title>64</title></rect><text x="186" y="307" text-anchor="middle" alignment-baseline="middle" fill="black">+</text><rect x="166" y="319" width="40" height="20" fill="rgba(230,230,230,1)"><title>65</title></rect><text x="186" y="329" text-anchor="middle" alignment-baseline="middle" fill="black">+</text><rect x="166" y="341" width="40" height="20" fill="rgba(230,230,230,1)"><title>66</title></rect><text x="186" y="351" text-anchor="middle" alignment-baseline="middle" fill="black">+</text><rect x="166" y="363" width="40" height="20" fill="rgba(230,230,230,1)"><title>67</title></rect><text x="186" y="373" text-anchor="middle" alignment-baseline="middle" fill="black">+</text><rect x="166" y="385" width="40" height="20" fill="rgba(230,230,230,1)"><title>68</title></rect><text x="186" y="395" text-anchor="middle" alignment-baseline="middle" fill="black">+</text><rect x="166" y="407" width="40" height="20" fill="rgba(230,230,230,1)"><title>69</title></rect><text x="186" y="417" text-anchor="middle" alignment-baseline="middle" fill="black">+</text><rect x="166" y="429" width="40" height="20" fill="rgba(230,230,230,1)"><title>70</title></rect><text x="186" y="439" text-anchor="middle" alignment-baseline="middle" fill="black">+</text><rect x="166" y="451" width="40" height="20" fill="rgba(230,230,230,1)"><title>71</title></rect><text x="186" y="461" text-anchor="middle" alignment-baseline="middle" fill="black">+</text><rect x="166" y="121" width="40" height="20" fill="rgba(230,230,230,1)"><title>72</title></rect><text x="186" y="131" text-anchor="middle" alignment-baseline="middle" fill="black">+</text><rect x="166" y="143" width="40" height="20" fill="rgba(230,230,230,1)"><title>73</title></rect><text x="186" y="153" text-anchor="middle" alignment-baseline="middle" fill="black">+</text><rect x="166" y="165" width="40" height="20" fill="rgba(230,230,230,1)"><title>74</title></rect><text x="186" y="175" text-anchor="middle" alignment-baseline="middle" fill="black">+</text><rect x="166" y="187" width="40" height="20" fill="rgba(230,230,230,1)"><title>75</title></rect><text x="186" y="197" text-anchor="middle" alignment-baseline="middle" fill="black">+</text><rect x="166" y="209" width="40" height="20" fill="rgba(230,230,230,1)"><title>76</title></rect><text x="186" y="219" text-anchor="middle" alignment-baseline="middle" fill="black">+</text><rect x="166" y="231" width="40" height="20" fill="rgba(230,230,230,1)"><title>77</title></rect><text x="186" y="241" text-anchor="middle" alignment-baseline="middle" fill="black">+</text><rect x="166" y="473" width="40" height="20" fill="rgba(230,230,230,1)"><title>78</title></rect><text x="186" y="483" text-anchor="middle" alignment-baseline="middle" fill="black">+</text><rect x="166" y="495" width="40" height="20" fill="rgba(230,230,230,1)"><title>79</title></rect><text x="186" y="505" text-anchor="middle" alignment-baseline="middle" fill="black">+</text><rect x="210" y="33" width="40" height="20" fill="rgba(230,230,230,1)"><title>80</title></rect><text x="230" y="43" text-anchor="middle" alignment-baseline="middle" fill="black">+</text><rect x="210" y="55" width="40" height="20" fill="rgba(230,230,230,1)"><title>81</title></rect><text x="230" y="65" text-anchor="middle" alignment-baseline="middle" fill="black">+</text><rect x="210" y="77" width="40" height="20" fill="rgba(230,230,230,1)"><title>82</title></rect><text x="230" y="87" text-anchor="middle" alignment-baseline="middle" fill="black">+</text><rect x="210" y="99" width="40" height="20" fill="rgba(230,230,230,1)"><title>83</title></rect><text x="230" y="109" text-anchor="middle" alignment-baseline="middle" fill="black">+</text><rect x="210" y="297" width="40" height="20" fill="rgba(230,230,230,1)"><title>84</title></rect><text x="230" y="307" text-anchor="middle" alignment-baseline="middle" fill="black">+</text><rect x="210" y="319" width="40" height="20" fill="rgba(230,230,230,1)"><title>85</title></rect><text x="230" y="329" text-anchor="middle" alignment-baseline="middle" fill="black">+</text><rect x="210" y="341" width="40" height="20" fill="rgba(230,230,230,1)"><title>86</title></rect><text x="230" y="351" text-anchor="middle" alignment-baseline="middle" fill="black">+</text><rect x="210" y="363" width="40" height="20" fill="rgba(230,230,230,1)"><title>87</title></rect><text x="230" y="373" text-anchor="middle" alignment-baseline="middle" fill="black">+</text><rect x="210" y="385" width="40" height="20" fill="rgba(230,230,230,1)"><title>88</title></rect><text x="230" y="395" text-anchor="middle" alignment-baseline="middle" fill="black">+</text><rect x="210" y="407" width="40" height="20" fill="rgba(230,230,230,1)"><title>89</title></rect><text x="230" y="417" text-anchor="middle" alignment-baseline="middle" fill="black">+</text><rect x="210" y="429" width="40" height="20" fill="rgba(230,230,230,1)"><title>90</title></rect><text x="230" y="439" text-anchor="middle" alignment-baseline="middle" fill="black">+</text><rect x="254" y="451" width="40" height="20" fill="rgba(230,230,230,1)"><title>91</title></rect><text x="274" y="461" text-anchor="middle" alignment-baseline="middle" fill="black">+</text><rect x="232" y="121" width="40" height="20" fill="rgba(230,230,230,1)"><title>92</title></rect><text x="252" y="131" text-anchor="middle" alignment-baseline="middle" fill="black">+</text><rect x="210" y="143" width="40" height="20" fill="rgba(230,230,230,1)"><title>93</title></rect><text x="230" y="153" text-anchor="middle" alignment-baseline="middle" fill="black">+</text><rect x="210" y="165" width="40" height="20" fill="rgba(230,230,230,1)"><title>94</title></rect><text x="230" y="175" text-anchor="middle" alignment-baseline="middle" fill="black">+</text><rect x="254" y="187" width="40" height="20" fill="rgba(230,230,230,1)"><title>95</title></rect><text x="274" y="197" text-anchor="middle" alignment-baseline="middle" fill="black">+</text><rect x="210" y="187" width="40" height="20" fill="rgba(230,230,230,1)"><title>96</title></rect><text x="230" y="197" text-anchor="middle" alignment-baseline="middle" fill="black">+</text><rect x="210" y="253" width="40" height="20" fill="rgba(230,230,230,1)"><title>97</title></rect><text x="230" y="263" text-anchor="middle" alignment-baseline="middle" fill="black">+</text><rect x="210" y="451" width="40" height="20" fill="rgba(230,230,230,1)"><title>98</title></rect><text x="230" y="461" text-anchor="middle" alignment-baseline="middle" fill="black">+</text><rect x="210" y="517" width="40" height="20" fill="rgba(230,230,230,1)"><title>99</title></rect><text x="230" y="527" text-anchor="middle" alignment-baseline="middle" fill="black">+</text><rect x="209" y="209" width="40" height="40" fill="rgba(101,101,101,1)"></rect><text x="229" y="229" text-anchor="middle" alignment-baseline="middle" fill="black">SS</text><rect x="209" y="473" width="40" height="40" fill="rgba(101,101,101,1)"></rect><text x="229" y="493" text-anchor="middle" alignment-baseline="middle" fill="black">SS</text><circle cx="64" cy="262" r="5" fill="rgb(101,67,33)"></circle><circle cx="20" cy="262" r="5" fill="rgb(101,67,33)"></circle><circle cx="20" cy="350" r="5" fill="rgb(101,67,33)"></circle><circle cx="262" cy="174" r="5" fill="rgb(101,67,33)"></circle><circle cx="262" cy="240" r="5" fill="rgb(101,67,33)"></circle><circle cx="20" cy="306" r="5" fill="rgb(101,67,33)"></circle><circle cx="20" cy="372" r="5" fill="rgb(101,67,33)"></circle><circle cx="64" cy="284" r="5" fill="rgb(101,67,33)"></circle><circle cx="20" cy="394" r="5" fill="rgb(101,67,33)"></circle><circle cx="108" cy="284" r="5" fill="rgb(101,67,33)"></circle><circle cx="218" cy="130" r="5" fill="rgb(101,67,33)"></circle><circle cx="262" cy="416" r="5" fill="rgb(101,67,33)"></circle><circle cx="262" cy="218" r="5" fill="rgb(101,67,33)"></circle><line x1="21" y1="263" x2="21" y2="351" stroke="red" stroke-width="1" /><line x1="21" y1="265" x2="21" y2="353" stroke="green" stroke-width="1" /><line x1="263" y1="175" x2="263" y2="241" stroke="red" stroke-width="1" /><line x1="263" y1="177" x2="263" y2="243" stroke="green" stroke-width="1" /><line x1="21" y1="373" x2="65" y2="285" stroke="red" stroke-width="1" /><line x1="21" y1="375" x2="65" y2="287" stroke="green" stroke-width="1" /><line x1="21" y1="395" x2="109" y2="285" stroke="red" stroke-width="1" /><line x1="21" y1="397" x2="109" y2="287" stroke="green" stroke-width="1" /><line x1="109" y1="285" x2="219" y2="131" stroke="red" stroke-width="1" /><line x1="109" y1="287" x2="219" y2="133" stroke="green" stroke-width="1" /><line x1="263" y1="417" x2="263" y2="219" stroke="red" stroke-width="1" /><line x1="263" y1="419" x2="263" y2="221" stroke="green" stroke-width="1" /><line x1="64" y1="104" x2="65" y2="263" stroke="red" stroke-width="1" /><line x1="64" y1="114" x2="65" y2="265" stroke="green" stroke-width="1" /><line x1="64" y1="104" x2="21" y2="263" stroke="red" stroke-width="1" /><line x1="64" y1="114" x2="21" y2="265" stroke="green" stroke-width="1" /><line x1="44" y1="346" x2="65" y2="263" stroke="red" stroke-width="1" /><line x1="64" y1="434" x2="21" y2="307" stroke="red" stroke-width="1" /><line x1="64" y1="444" x2="21" y2="309" stroke="green" stroke-width="1" /><line x1="44" y1="434" x2="21" y2="351" stroke="red" stroke-width="1" /><line x1="44" y1="148" x2="21" y2="307" stroke="red" stroke-width="1" /><line x1="108" y1="456" x2="21" y2="373" stroke="red" stroke-width="1" /><line x1="108" y1="466" x2="21" y2="375" stroke="green" stroke-width="1" /><line x1="88" y1="170" x2="65" y2="285" stroke="red" stroke-width="1" /><line x1="108" y1="478" x2="21" y2="395" stroke="red" stroke-width="1" /><line x1="108" y1="488" x2="21" y2="397" stroke="green" stroke-width="1" /><line x1="132" y1="60" x2="219" y2="131" stroke="red" stroke-width="1" /><line x1="152" y1="500" x2="263" y2="417" stroke="red" stroke-width="1" /><line x1="152" y1="510" x2="263" y2="419" stroke="green" stroke-width="1" /><line x1="176" y1="82" x2="263" y2="219" stroke="red" stroke-width="1" /><line x1="240" y1="38" x2="263" y2="175" stroke="red" stroke-width="1" /><line x1="240" y1="48" x2="263" y2="177" stroke="green" stroke-width="1" /><line x1="220" y1="368" x2="263" y2="241" stroke="red" stroke-width="1" /><line x1="64" y1="48" x2="44" y2="70" stroke="green" stroke-width="1" /><line x1="64" y1="70" x2="132" y2="48" stroke="green" stroke-width="1" /><line x1="152" y1="48" x2="176" y2="48" stroke="green" stroke-width="1" /><line x1="196" y1="48" x2="220" y2="48" stroke="green" stroke-width="1" /><line x1="108" y1="48" x2="88" y2="70" stroke="green" stroke-width="1" /><line x1="108" y1="70" x2="132" y2="70" stroke="green" stroke-width="1" /><line x1="152" y1="70" x2="176" y2="70" stroke="green" stroke-width="1" /><line x1="196" y1="70" x2="220" y2="70" stroke="green" stroke-width="1" /><line x1="64" y1="92" x2="88" y2="92" stroke="green" stroke-width="1" /><line x1="108" y1="92" x2="132" y2="92" stroke="green" stroke-width="1" /><line x1="152" y1="92" x2="176" y2="92" stroke="green" stroke-width="1" /><line x1="196" y1="92" x2="220" y2="92" stroke="green" stroke-width="1" /><line x1="64" y1="114" x2="88" y2="136" stroke="green" stroke-width="1" /><line x1="108" y1="136" x2="132" y2="114" stroke="green" stroke-width="1" /><line x1="152" y1="114" x2="176" y2="114" stroke="green" stroke-width="1" /><line x1="196" y1="114" x2="220" y2="114" stroke="green" stroke-width="1" /><line x1="64" y1="312" x2="88" y2="312" stroke="green" stroke-width="1" /><line x1="108" y1="312" x2="132" y2="312" stroke="green" stroke-width="1" /><line x1="152" y1="312" x2="176" y2="312" stroke="green" stroke-width="1" /><line x1="196" y1="312" x2="220" y2="312" stroke="green" stroke-width="1" /><line x1="64" y1="334" x2="88" y2="334" stroke="green" stroke-width="1" /><line x1="108" y1="334" x2="132" y2="334" stroke="green" stroke-width="1" /><line x1="152" y1="334" x2="176" y2="334" stroke="green" stroke-width="1" /><line x1="196" y1="334" x2="220" y2="334" stroke="green" stroke-width="1" /><line x1="64" y1="356" x2="88" y2="356" stroke="green" stroke-width="1" /><line x1="108" y1="356" x2="132" y2="356" stroke="green" stroke-width="1" /><line x1="152" y1="356" x2="176" y2="356" stroke="green" stroke-width="1" /><line x1="196" y1="356" x2="220" y2="356" stroke="green" stroke-width="1" /><line x1="64" y1="378" x2="88" y2="378" stroke="green" stroke-width="1" /><line x1="108" y1="378" x2="132" y2="378" stroke="green" stroke-width="1" /><line x1="152" y1="378" x2="176" y2="378" stroke="green" stroke-width="1" /><line x1="196" y1="378" x2="220" y2="378" stroke="green" stroke-width="1" /><line x1="64" y1="400" x2="88" y2="400" stroke="green" stroke-width="1" /><line x1="108" y1="400" x2="132" y2="400" stroke="green" stroke-width="1" /><line x1="152" y1="400" x2="176" y2="400" stroke="green" stroke-width="1" /><line x1="196" y1="400" x2="220" y2="400" stroke="green" stroke-width="1" /><line x1="64" y1="422" x2="88" y2="422" stroke="green" stroke-width="1" /><line x1="108" y1="422" x2="132" y2="422" stroke="green" stroke-width="1" /><line x1="152" y1="422" x2="176" y2="422" stroke="green" stroke-width="1" /><line x1="196" y1="422" x2="220" y2="422" stroke="green" stroke-width="1" /><line x1="64" y1="444" x2="88" y2="444" stroke="green" stroke-width="1" /><line x1="108" y1="444" x2="132" y2="444" stroke="green" stroke-width="1" /><line x1="152" y1="444" x2="176" y2="444" stroke="green" stroke-width="1" /><line x1="196" y1="444" x2="220" y2="444" stroke="green" stroke-width="1" /><line x1="64" y1="466" x2="88" y2="466" stroke="green" stroke-width="1" /><line x1="108" y1="466" x2="132" y2="466" stroke="green" stroke-width="1" /><line x1="152" y1="466" x2="176" y2="466" stroke="green" stroke-width="1" /><line x1="196" y1="466" x2="264" y2="466" stroke="green" stroke-width="1" /><line x1="108" y1="114" x2="44" y2="136" stroke="green" stroke-width="1" /><line x1="64" y1="136" x2="132" y2="136" stroke="green" stroke-width="1" /><line x1="152" y1="136" x2="176" y2="136" stroke="green" stroke-width="1" /><line x1="196" y1="136" x2="242" y2="136" stroke="green" stroke-width="1" /><line x1="64" y1="158" x2="88" y2="158" stroke="green" stroke-width="1" /><line x1="108" y1="158" x2="132" y2="158" stroke="green" stroke-width="1" /><line x1="152" y1="158" x2="176" y2="158" stroke="green" stroke-width="1" /><line x1="196" y1="158" x2="220" y2="158" stroke="green" stroke-width="1" /><line x1="64" y1="180" x2="88" y2="180" stroke="green" stroke-width="1" /><line x1="108" y1="180" x2="132" y2="180" stroke="green" stroke-width="1" /><line x1="152" y1="180" x2="176" y2="180" stroke="green" stroke-width="1" /><line x1="196" y1="180" x2="220" y2="180" stroke="green" stroke-width="1" /><line x1="64" y1="202" x2="88" y2="202" stroke="green" stroke-width="1" /><line x1="108" y1="202" x2="132" y2="202" stroke="green" stroke-width="1" /><line x1="152" y1="202" x2="176" y2="202" stroke="green" stroke-width="1" /><line x1="196" y1="202" x2="264" y2="202" stroke="green" stroke-width="1" /><line x1="64" y1="224" x2="88" y2="224" stroke="green" stroke-width="1" /><line x1="108" y1="224" x2="88" y2="246" stroke="green" stroke-width="1" /><line x1="108" y1="246" x2="176" y2="224" stroke="green" stroke-width="1" /><line x1="196" y1="224" x2="220" y2="202" stroke="green" stroke-width="1" /><line x1="64" y1="246" x2="132" y2="224" stroke="green" stroke-width="1" /><line x1="152" y1="224" x2="132" y2="268" stroke="green" stroke-width="1" /><line x1="152" y1="268" x2="176" y2="246" stroke="green" stroke-width="1" /><line x1="196" y1="246" x2="220" y2="268" stroke="green" stroke-width="1" /><line x1="64" y1="488" x2="88" y2="488" stroke="green" stroke-width="1" /><line x1="108" y1="488" x2="132" y2="488" stroke="green" stroke-width="1" /><line x1="152" y1="488" x2="176" y2="488" stroke="green" stroke-width="1" /><line x1="196" y1="488" x2="220" y2="466" stroke="green" stroke-width="1" /><line x1="64" y1="510" x2="88" y2="510" stroke="green" stroke-width="1" /><line x1="108" y1="510" x2="132" y2="510" stroke="green" stroke-width="1" /><line x1="152" y1="510" x2="176" y2="510" stroke="green" stroke-width="1" /><line x1="196" y1="510" x2="220" y2="532" stroke="green" stroke-width="1" /><line x1="64" y1="38" x2="88" y2="38" stroke="red" stroke-width="1" /><line x1="64" y1="82" x2="44" y2="104" stroke="red" stroke-width="1" /><line x1="64" y1="302" x2="44" y2="324" stroke="red" stroke-width="1" /><line x1="64" y1="346" x2="44" y2="368" stroke="red" stroke-width="1" /><line x1="64" y1="390" x2="44" y2="412" stroke="red" stroke-width="1" /><line x1="64" y1="434" x2="44" y2="456" stroke="red" stroke-width="1" /><line x1="108" y1="104" x2="44" y2="148" stroke="red" stroke-width="1" /><line x1="64" y1="170" x2="44" y2="192" stroke="red" stroke-width="1" /><line x1="64" y1="214" x2="44" y2="236" stroke="red" stroke-width="1" /><line x1="64" y1="478" x2="44" y2="500" stroke="red" stroke-width="1" /><line x1="64" y1="60" x2="88" y2="60" stroke="red" stroke-width="1" /><line x1="108" y1="82" x2="88" y2="126" stroke="red" stroke-width="1" /><line x1="108" y1="302" x2="88" y2="324" stroke="red" stroke-width="1" /><line x1="108" y1="346" x2="88" y2="368" stroke="red" stroke-width="1" /><line x1="108" y1="390" x2="88" y2="412" stroke="red" stroke-width="1" /><line x1="108" y1="434" x2="88" y2="456" stroke="red" stroke-width="1" /><line x1="64" y1="126" x2="88" y2="148" stroke="red" stroke-width="1" /><line x1="108" y1="170" x2="88" y2="192" stroke="red" stroke-width="1" /><line x1="108" y1="214" x2="132" y2="214" stroke="red" stroke-width="1" /><line x1="108" y1="478" x2="88" y2="500" stroke="red" stroke-width="1" /><line x1="152" y1="38" x2="132" y2="60" stroke="red" stroke-width="1" /><line x1="152" y1="82" x2="132" y2="104" stroke="red" stroke-width="1" /><line x1="152" y1="302" x2="132" y2="324" stroke="red" stroke-width="1" /><line x1="152" y1="346" x2="132" y2="368" stroke="red" stroke-width="1" /><line x1="152" y1="390" x2="132" y2="412" stroke="red" stroke-width="1" /><line x1="152" y1="434" x2="132" y2="456" stroke="red" stroke-width="1" /><line x1="152" y1="126" x2="132" y2="148" stroke="red" stroke-width="1" /><line x1="152" y1="170" x2="132" y2="192" stroke="red" stroke-width="1" /><line x1="108" y1="236" x2="132" y2="258" stroke="red" stroke-width="1" /><line x1="152" y1="478" x2="132" y2="500" stroke="red" stroke-width="1" /><line x1="196" y1="38" x2="176" y2="60" stroke="red" stroke-width="1" /><line x1="196" y1="82" x2="176" y2="104" stroke="red" stroke-width="1" /><line x1="196" y1="302" x2="176" y2="324" stroke="red" stroke-width="1" /><line x1="196" y1="346" x2="176" y2="368" stroke="red" stroke-width="1" /><line x1="196" y1="390" x2="176" y2="412" stroke="red" stroke-width="1" /><line x1="196" y1="434" x2="176" y2="456" stroke="red" stroke-width="1" /><line x1="196" y1="126" x2="176" y2="148" stroke="red" stroke-width="1" /><line x1="196" y1="170" x2="176" y2="192" stroke="red" stroke-width="1" /><line x1="196" y1="214" x2="176" y2="236" stroke="red" stroke-width="1" /><line x1="196" y1="478" x2="176" y2="500" stroke="red" stroke-width="1" /><line x1="240" y1="38" x2="220" y2="60" stroke="red" stroke-width="1" /><line x1="240" y1="82" x2="220" y2="104" stroke="red" stroke-width="1" /><line x1="240" y1="302" x2="220" y2="324" stroke="red" stroke-width="1" /><line x1="240" y1="346" x2="220" y2="368" stroke="red" stroke-width="1" /><line x1="240" y1="390" x2="220" y2="412" stroke="red" stroke-width="1" /><line x1="240" y1="434" x2="264" y2="456" stroke="red" stroke-width="1" /><line x1="262" y1="126" x2="220" y2="148" stroke="red" stroke-width="1" /><line x1="240" y1="170" x2="264" y2="192" stroke="red" stroke-width="1" /><line x1="240" y1="192" x2="220" y2="258" stroke="red" stroke-width="1" /><line x1="240" y1="456" x2="220" y2="522" stroke="red" stroke-width="1" /><line x1="64" y1="236" x2="44" y2="60" stroke="red" stroke-width="1" /><line x1="108" y1="302" x2="88" y2="368" stroke="red" stroke-width="1" /><line x1="152" y1="324" x2="132" y2="390" stroke="red" stroke-width="1" /><line x1="152" y1="126" x2="132" y2="192" stroke="red" stroke-width="1" /><line x1="196" y1="346" x2="176" y2="412" stroke="red" stroke-width="1" /><line x1="196" y1="148" x2="176" y2="214" stroke="red" stroke-width="1" /><line x1="240" y1="38" x2="220" y2="104" stroke="red" stroke-width="1" /><line x1="240" y1="368" x2="220" y2="434" stroke="red" stroke-width="1" /><line x1="240" y1="170" x2="220" y2="258" stroke="red" stroke-width="1" /><line x1="64" y1="170" x2="88" y2="60" stroke="red" stroke-width="1" /><line x1="108" y1="324" x2="44" y2="126" stroke="red" stroke-width="1" /><line x1="108" y1="214" x2="132" y2="104" stroke="red" stroke-width="1" /><line x1="152" y1="368" x2="132" y2="170" stroke="red" stroke-width="1" /><line x1="152" y1="478" x2="176" y2="324" stroke="red" stroke-width="1" /><line x1="196" y1="412" x2="176" y2="214" stroke="red" stroke-width="1" /><line x1="284" y1="456" x2="220" y2="456" stroke="red" stroke-width="1" /></svg>