<svg xmlns="http://www.w3.org/2000/svg" width="680" height="601"><rect x="0" y="0" width="680" height="601" fill="rgb(255,255,255)"></rect><rect x="0" y="0" width="660" height="580" fill="rgb(255,255,255)"></rect><rect x="78" y="363" width="40" height="20" fill="rgb(230,230,230)"><title>0</title></rect><text x="98" y="373" text-anchor="middle" alignment-baseline="middle" fill="black">+</text><rect x="78" y="385" width="40" height="20" fill="rgb(230,230,230)"><title>1</title></rect><text x="98" y="395" text-anchor="middle" alignment-baseline="middle" fill="black">+</text><rect x="78" y="77" width="40" height="20" fill="rgb(230,230,230)"><title>2</title></rect><text x="98" y="87" text-anchor="middle" alignment-baseline="middle" fill="black">+</text><rect x="78" y="143" width="40" height="20" fill="rgb(230,230,230)"><title>3</title></rect><text x="98" y="153" text-anchor="middle" alignment-baseline="middle" fill="black">+</text><rect x="78" y="99" width="40" height="20" fill="rgb(230,230,230)"><title>4</title></rect><text x="98" y="109" text-anchor="middle" alignment-baseline="middle" fill="black">+</text><rect x="78" y="121" width="40" height="20" fill="rgb(230,230,230)"><title>5</title></rect><text x="98" y="131" text-anchor="middle" alignment-baseline="middle" fill="black">+</text><rect x="78" y="165" width="40" height="20" fill="rgb(230,230,230)"><title>6</title></rect><text x="98" y="175" text-anchor="middle" alignment-baseline="middle" fill="black">+</text><rect x="78" y="187" width="40" height="20" fill="rgb(230,230,230)"><title>7</title></rect><text x="98" y="197" text-anchor="middle" alignment-baseline="middle" fill="black">+</text><rect x="78" y="407" width="40" height="20" fill="rgb(230,230,230)"><title>8</title></rect><text x="98" y="417" text-anchor="middle" alignment-baseline="middle" fill="black">+</text><rect x="78" y="429" width="40" height="20" fill="rgb(230,230,230)"><title>9</title></rect><text x="98" y="439" text-anchor="middle" alignment-baseline="middle" fill="black">+</text><rect x="78" y="209" width="40" height="20" fill="rgb(230,230,230)"><title>10</title></rect><text x="98" y="219" text-anchor="middle" alignment-baseline="middle" fill="black">+</text><rect x="78" y="231" width="40" height="20" fill="rgb(230,230,230)"><title>11</title></rect><text x="98" y="241" text-anchor="middle" alignment-baseline="middle" fill="black">+</text><rect x="78" y="253" width="40" height="20" fill="rgb(230,230,230)"><title>12</title></rect><text x="98" y="263" text-anchor="middle" alignment-baseline="middle" fill="black">+</text><rect x="78" y="275" width="40" height="20" fill="rgb(230,230,230)"><title>13</title></rect><text x="98" y="285" text-anchor="middle" alignment-baseline="middle" fill="black">+</text><rect x="122" y="275" width="40" height="20" fill="rgb(230,230,230)"><title>14</title></rect><text x="142" y="285" text-anchor="middle" alignment-baseline="middle" fill="black">+</text><rect x="122" y="253" width="40" height="20" fill="rgb(230,230,230)"><title>15</title></rect><text x="142" y="263" text-anchor="middle" alignment-baseline="middle" fill="black">+</text><rect x="122" y="231" width="40" height="20" fill="rgb(230,230,230)"><title>16</title></rect><text x="142" y="241" text-anchor="middle" alignment-baseline="middle" fill="black">+</text><rect x="122" y="209" width="40" height="20" fill="rgb(230,230,230)"><title>17</title></rect><text x="142" y="219" text-anchor="middle" alignment-baseline="middle" fill="black">+</text><rect x="78" y="451" width="40" height="20" fill="rgb(230,230,230)"><title>18</title></rect><text x="98" y="461" text-anchor="middle" alignment-baseline="middle" fill="black">+</text><rect x="78" y="473" width="40" height="20" fill="rgb(230,230,230)"><title>19</title></rect><text x="98" y="483" text-anchor="middle" alignment-baseline="middle" fill="black">+</text><rect x="78" y="495" width="40" height="20" fill="rgb(230,230,230)"><title>20</title></rect><text x="98" y="505" text-anchor="middle" alignment-baseline="middle" fill="black">+</text><rect x="78" y="517" width="40" height="20" fill="rgb(230,230,230)"><title>21</title></rect><text x="98" y="527" text-anchor="middle" alignment-baseline="middle" fill="black">+</text><rect x="122" y="165" width="40" height="20" fill="rgb(230,230,230)"><title>22</title></rect><text x="142" y="175" text-anchor="middle" alignment-baseline="middle" fill="black">+</text><rect x="122" y="187" width="40" height="20" fill="rgb(230,230,230)"><title>23</title></rect><text x="142" y="197" text-anchor="middle" alignment-baseline="middle" fill="black">+</text><rect x="122" y="99" width="40" height="20" fill="rgb(230,230,230)"><title>24</title></rect><text x="142" y="109" text-anchor="middle" alignment-baseline="middle" fill="black">+</text><rect x="122" y="121" width="40" height="20" fill="rgb(230,230,230)"><title>25</title></rect><text x="142" y="131" text-anchor="middle" alignment-baseline="middle" fill="black">+</text><rect x="166" y="121" width="40" height="20" fill="rgb(230,230,230)"><title>26</title></rect><text x="186" y="131" text-anchor="middle" alignment-baseline="middle" fill="black">+</text><rect x="166" y="77" width="40" height="20" fill="rgb(230,230,230)"><title>27</title></rect><text x="186" y="87" text-anchor="middle" alignment-baseline="middle" fill="black">+</text><rect x="78" y="539" width="40" height="20" fill="rgb(230,230,230)"><title>28</title></rect><text x="98" y="549" text-anchor="middle" alignment-baseline="middle" fill="black">+</text><rect x="78" y="561" width="40" height="20" fill="rgb(230,230,230)"><title>29</title></rect><text x="98" y="571" text-anchor="middle" alignment-baseline="middle" fill="black">+</text><rect x="122" y="77" width="40" height="20" fill="rgb(230,230,230)"><title>30</title></rect><text x="142" y="87" text-anchor="middle" alignment-baseline="middle" fill="black">+</text><rect x="166" y="99" width="40" height="20" fill="rgb(230,230,230)"><title>31</title></rect><text x="186" y="109" text-anchor="middle" alignment-baseline="middle" fill="black">+</text><rect x="166" y="143" width="40" height="20" fill="rgb(230,230,230)"><title>32</title></rect><text x="186" y="153" text-anchor="middle" alignment-baseline="middle" fill="black">+</text><rect x="122" y="143" width="40" height="20" fill="rgb(230,230,230)"><title>33</title></rect><text x="142" y="153" text-anchor="middle" alignment-baseline="middle" fill="black">+</text><rect x="166" y="165" width="40" height="20" fill="rgb(230,230,230)"><title>34</title></rect><text x="186" y="175" text-anchor="middle" alignment-baseline="middle" fill="black">+</text><rect x="166" y="187" width="40" height="20" fill="rgb(230,230,230)"><title>35</title></rect><text x="186" y="197" text-anchor="middle" alignment-baseline="middle" fill="black">+</text><rect x="166" y="231" width="40" height="20" fill="rgb(230,230,230)"><title>36</title></rect><text x="186" y="241" text-anchor="middle" alignment-baseline="middle" fill="black">+</text><rect x="166" y="209" width="40" height="20" fill="rgb(230,230,230)"><title>37</title></rect><text x="186" y="219" text-anchor="middle" alignment-baseline="middle" fill="black">+</text><rect x="122" y="363" width="40" height="20" fill="rgb(230,230,230)"><title>38</title></rect><text x="142" y="373" text-anchor="middle" alignment-baseline="middle" fill="black">+</text><rect x="122" y="385" width="40" height="20" fill="rgb(230,230,230)"><title>39</title></rect><text x="142" y="395" text-anchor="middle" alignment-baseline="middle" fill="black">+</text><rect x="122" y="407" width="40" height="20" fill="rgb(230,230,230)"><title>40</title></rect><text x="142" y="417" text-anchor="middle" alignment-baseline="middle" fill="black">+</text><rect x="122" y="429" width="40" height="20" fill="rgb(230,230,230)"><title>41</title></rect><text x="142" y="439" text-anchor="middle" alignment-baseline="middle" fill="black">+</text><rect x="166" y="253" width="40" height="20" fill="rgb(230,230,230)"><title>42</title></rect><text x="186" y="263" text-anchor="middle" alignment-baseline="middle" fill="black">+</text><rect x="166" y="275" width="40" height="20" fill="rgb(230,230,230)"><title>43</title></rect><text x="186" y="285" text-anchor="middle" alignment-baseline="middle" fill="black">+</text><rect x="122" y="451" width="40" height="20" fill="rgb(230,230,230)"><title>44</title></rect><text x="142" y="461" text-anchor="middle" alignment-baseline="middle" fill="black">+</text><rect x="122" y="473" width="40" height="20" fill="rgb(230,230,230)"><title>45</title></rect><text x="142" y="483" text-anchor="middle" alignment-baseline="middle" fill="black">+</text><rect x="210" y="275" width="40" height="20" fill="rgb(230,230,230)"><title>46</title></rect><text x="230" y="285" text-anchor="middle" alignment-baseline="middle" fill="black">+</text><rect x="210" y="253" width="40" height="20" fill="rgb(230,230,230)"><title>47</title></rect><text x="230" y="263" text-anchor="middle" alignment-baseline="middle" fill="black">+</text><rect x="122" y="495" width="40" height="20" fill="rgb(230,230,230)"><title>48</title></rect><text x="142" y="505" text-anchor="middle" alignment-baseline="middle" fill="black">+</text><rect x="122" y="517" width="40" height="20" fill="rgb(230,230,230)"><title>49</title></rect><text x="142" y="527" text-anchor="middle" alignment-baseline="middle" fill="black">+</text><rect x="122" y="539" width="40" height="20" fill="rgb(230,230,230)"><title>50</title></rect><text x="142" y="549" text-anchor="middle" alignment-baseline="middle" fill="black">+</text><rect x="122" y="561" width="40" height="20" fill="rgb(230,230,230)"><title>51</title></rect><text x="142" y="571" text-anchor="middle" alignment-baseline="middle" fill="black">+</text><rect x="210" y="231" width="40" height="20" fill="rgb(230,230,230)"><title>52</title></rect><text x="230" y="241" text-anchor="middle" alignment-baseline="middle" fill="black">+</text><rect x="210" y="209" width="40" height="20" fill="rgb(230,230,230)"><title>53</title></rect><text x="230" y="219" text-anchor="middle" alignment-baseline="middle" fill="black">+</text><rect x="210" y="165" width="40" height="20" fill="rgb(230,230,230)"><title>54</title></rect><text x="230" y="175" text-anchor="middle" alignment-baseline="middle" fill="black">+</text><rect x="210" y="187" width="40" height="20" fill="rgb(230,230,230)"><title>55</title></rect><text x="230" y="197" text-anchor="middle" alignment-baseline="middle" fill="black">+</text><rect x="210" y="143" width="40" height="20" fill="rgb(230,230,230)"><title>56</title></rect><text x="230" y="153" text-anchor="middle" alignment-baseline="middle" fill="black">+</text><rect x="210" y="121" width="40" height="20" fill="rgb(230,230,230)"><title>57</title></rect><text x="230" y="131" text-anchor="middle" alignment-baseline="middle" fill="black">+</text><rect x="166" y="363" width="40" height="20" fill="rgb(230,230,230)"><title>58</title></rect><text x="186" y="373" text-anchor="middle" alignment-baseline="middle" fill="black">+</text><rect x="166" y="385" width="40" height="20" fill="rgb(230,230,230)"><title>59</title></rect><text x="186" y="395" text-anchor="middle" alignment-baseline="middle" fill="black">+</text><rect x="166" y="407" width="40" height="20" fill="rgb(230,230,230)"><title>60</title></rect><text x="186" y="417" text-anchor="middle" alignment-baseline="middle" fill="black">+</text><rect x="166" y="429" width="40" height="20" fill="rgb(230,230,230)"><title>61</title></rect><text x="186" y="439" text-anchor="middle" alignment-baseline="middle" fill="black">+</text><rect x="166" y="451" width="40" height="20" fill="rgb(230,230,230)"><title>62</title></rect><text x="186" y="461" text-anchor="middle" alignment-baseline="middle" fill="black">+</text><rect x="166" y="473" width="40" height="20" fill="rgb(230,230,230)"><title>63</title></rect><text x="186" y="483" text-anchor="middle" alignment-baseline="middle" fill="black">+</text><rect x="166" y="495" width="40" height="20" fill="rgb(230,230,230)"><title>64</title></rect><text x="186" y="505" text-anchor="middle" alignment-baseline="middle" fill="black">+</text><rect x="166" y="517" width="40" height="20" fill="rgb(230,230,230)"><title>65</title></rect><text x="186" y="527" text-anchor="middle" alignment-baseline="middle" fill="black">+</text><rect x="166" y="539" width="40" height="20" fill="rgb(230,230,230)"><title>66</title></rect><text x="186" y="549" text-anchor="middle" alignment-baseline="middle" fill="black">+</text><rect x="166" y="561" width="40" height="20" fill="rgb(230,230,230)"><title>67</title></rect><text x="186" y="571" text-anchor="middle" alignment-baseline="middle" fill="black">+</text><rect x="210" y="363" width="40" height="20" fill="rgb(230,230,230)"><title>68</title></rect><text x="230" y="373" text-anchor="middle" alignment-baseline="middle" fill="black">+</text><rect x="210" y="385" width="40" height="20" fill="rgb(230,230,230)"><title>69</title></rect><text x="230" y="395" text-anchor="middle" alignment-baseline="middle" fill="black">+</text><rect x="210" y="407" width="40" height="20" fill="rgb(230,230,230)"><title>70</title></rect><text x="230" y="417" text-anchor="middle" alignment-baseline="middle" fill="black">+</text><rect x="210" y="429" width="40" height="20" fill="rgb(230,230,230)"><title>71</title></rect><text x="230" y="439" text-anchor="middle" alignment-baseline="middle" fill="black">+</text><rect x="210" y="99" width="40" height="20" fill="rgb(230,230,230)"><title>72</title></rect><text x="230" y="109" text-anchor="middle" alignment-baseline="middle" fill="black">+</text><rect x="210" y="77" width="40" height="20" fill="rgb(230,230,230)"><title>73</title></rect><text x="230" y="87" text-anchor="middle" alignment-baseline="middle" fill="black">+</text><rect x="254" y="99" width="40" height="20" fill="rgb(230,230,230)"><title>74</title></rect><text x="274" y="109" text-anchor="middle" alignment-baseline="middle" fill="black">+</text><rect x="298" y="121" width="40" height="20" fill="rgb(230,230,230)"><title>75</title></rect><text x="318" y="131" text-anchor="middle" alignment-baseline="middle" fill="black">+</text><rect x="254" y="121" width="40" height="20" fill="rgb(230,230,230)"><title>76</title></rect><text x="274" y="131" text-anchor="middle" alignment-baseline="middle" fill="black">+</text><rect x="254" y="143" width="40" height="20" fill="rgb(230,230,230)"><title>77</title></rect><text x="274" y="153" text-anchor="middle" alignment-baseline="middle" fill="black">+</text><rect x="210" y="451" width="40" height="20" fill="rgb(230,230,230)"><title>78</title></rect><text x="230" y="461" text-anchor="middle" alignment-baseline="middle" fill="black">+</text><rect x="210" y="473" width="40" height="20" fill="rgb(230,230,230)"><title>79</title></rect><text x="230" y="483" text-anchor="middle" alignment-baseline="middle" fill="black">+</text><rect x="210" y="495" width="40" height="20" fill="rgb(230,230,230)"><title>80</title></rect><text x="230" y="505" text-anchor="middle" alignment-baseline="middle" fill="black">+</text><rect x="210" y="517" width="40" height="20" fill="rgb(230,230,230)"><title>81</title></rect><text x="230" y="527" text-anchor="middle" alignment-baseline="middle" fill="black">+</text><rect x="210" y="539" width="40" height="20" fill="rgb(230,230,230)"><title>82</title></rect><text x="230" y="549" text-anchor="middle" alignment-baseline="middle" fill="black">+</text><rect x="210" y="561" width="40" height="20" fill="rgb(230,230,230)"><title>83</title></rect><text x="230" y="571" text-anchor="middle" alignment-baseline="middle" fill="black">+</text><rect x="254" y="363" width="40" height="20" fill="rgb(230,230,230)"><title>84</title></rect><text x="274" y="373" text-anchor="middle" alignment-baseline="middle" fill="black">+</text><rect x="254" y="385" width="40" height="20" fill="rgb(230,230,230)"><title>85</title></rect><text x="274" y="395" text-anchor="middle" alignment-baseline="middle" fill="black">+</text><rect x="254" y="407" width="40" height="20" fill="rgb(230,230,230)"><title>86</title></rect><text x="274" y="417" text-anchor="middle" alignment-baseline="middle" fill="black">+</text><rect x="254" y="429" width="40" height="20" fill="rgb(230,230,230)"><title>87</title></rect><text x="274" y="439" text-anchor="middle" alignment-baseline="middle" fill="black">+</text><rect x="254" y="451" width="40" height="20" fill="rgb(230,230,230)"><title>88</title></rect><text x="274" y="461" text-anchor="middle" alignment-baseline="middle" fill="black">+</text><rect x="254" y="473" width="40" height="20" fill="rgb(230,230,230)"><title>89</title></rect><text x="274" y="483" text-anchor="middle" alignment-baseline="middle" fill="black">+</text><rect x="254" y="495" width="40" height="20" fill="rgb(230,230,230)"><title>90</title></rect><text x="274" y="505" text-anchor="middle" alignment-baseline="middle" fill="black">+</text><rect x="254" y="517" width="40" height="20" fill="rgb(230,230,230)"><title>91</title></rect><text x="274" y="527" text-anchor="middle" alignment-baseline="middle" fill="black">+</text><rect x="298" y="165" width="40" height="20" fill="rgb(230,230,230)"><title>92</title></rect><text x="318" y="175" text-anchor="middle" alignment-baseline="middle" fill="black">+</text><rect x="254" y="165" width="40" height="20" fill="rgb(230,230,230)"><title>93</title></rect><text x="274" y="175" text-anchor="middle" alignment-baseline="middle" fill="black">+</text><rect x="298" y="187" width="40" height="20" fill="rgb(230,230,230)"><title>94</title></rect><text x="318" y="197" text-anchor="middle" alignment-baseline="middle" fill="black">+</text><rect x="298" y="209" width="40" height="20" fill="rgb(230,230,230)"><title>95</title></rect><text x="318" y="219" text-anchor="middle" alignment-baseline="middle" fill="black">+</text><rect x="254" y="253" width="40" height="20" fill="rgb(230,230,230)"><title>96</title></rect><text x="274" y="263" text-anchor="middle" alignment-baseline="middle" fill="black">+</text><rect x="254" y="231" width="40" height="20" fill="rgb(230,230,230)"><title>97</title></rect><text x="274" y="241" text-anchor="middle" alignment-baseline="middle" fill="black">+</text><rect x="254" y="539" width="40" height="20" fill="rgb(230,230,230)"><title>98</title></rect><text x="274" y="549" text-anchor="middle" alignment-baseline="middle" fill="black">+</text><rect x="254" y="561" width="40" height="20" fill="rgb(230,230,230)"><title>99</title></rect><text x="274" y="571" text-anchor="middle" alignment-baseline="middle" fill="black">+</text><circle cx="64" cy="416" r="5" fill="rgb(101,67,33)"></circle><circle cx="64" cy="350" r="5" fill="rgb(101,67,33)"></circle><circle cx="64" cy="438" r="5" fill="rgb(101,67,33)"></circle><circle cx="64" cy="240" r="5" fill="rgb(101,67,33)"></circle><circle cx="108" cy="350" r="5" fill="rgb(101,67,33)"></circle><circle cx="64" cy="262" r="5" fill="rgb(101,67,33)"></circle><circle cx="130" cy="350" r="5" fill="rgb(101,67,33)"></circle><circle cx="64" cy="218" r="5" fill="rgb(101,67,33)"></circle><circle cx="64" cy="284" r="5" fill="rgb(101,67,33)"></circle><circle cx="64" cy="460" r="5" fill="rgb(101,67,33)"></circle><circle cx="64" cy="196" r="5" fill="rgb(101,67,33)"></circle><circle cx="108" cy="328" r="5" fill="rgb(101,67,33)"></circle><circle cx="64" cy="504" r="5" fill="rgb(101,67,33)"></circle><circle cx="306" cy="416" r="5" fill="rgb(101,67,33)"></circle><circle cx="306" cy="460" r="5" fill="rgb(101,67,33)"></circle><circle cx="306" cy="394" r="5" fill="rgb(101,67,33)"></circle><circle cx="306" cy="482" r="5" fill="rgb(101,67,33)"></circle><circle cx="284" cy="284" r="5" fill="rgb(101,67,33)"></circle><line x1="65" y1="351" x2="65" y2="439" stroke="red" stroke-width="1" /><line x1="65" y1="353" x2="65" y2="441" stroke="green" stroke-width="1" /><line x1="65" y1="241" x2="109" y2="351" stroke="red" stroke-width="1" /><line x1="65" y1="243" x2="109" y2="353" stroke="green" stroke-width="1" /><line x1="65" y1="263" x2="131" y2="351" stroke="red" stroke-width="1" /><line x1="65" y1="265" x2="131" y2="353" stroke="green" stroke-width="1" /><line x1="65" y1="219" x2="65" y2="285" stroke="red" stroke-width="1" /><line x1="65" y1="221" x2="65" y2="287" stroke="green" stroke-width="1" /><line x1="65" y1="285" x2="65" y2="461" stroke="red" stroke-width="1" /><line x1="65" y1="287" x2="65" y2="463" stroke="green" stroke-width="1" /><line x1="65" y1="197" x2="109" y2="329" stroke="red" stroke-width="1" /><line x1="65" y1="199" x2="109" y2="331" stroke="green" stroke-width="1" /><line x1="109" y1="329" x2="65" y2="505" stroke="red" stroke-width="1" /><line x1="109" y1="331" x2="65" y2="507" stroke="green" stroke-width="1" /><line x1="307" y1="417" x2="307" y2="461" stroke="red" stroke-width="1" /><line x1="307" y1="419" x2="307" y2="463" stroke="green" stroke-width="1" /><line x1="307" y1="395" x2="307" y2="483" stroke="red" stroke-width="1" /><line x1="307" y1="397" x2="307" y2="485" stroke="green" stroke-width="1" /><line x1="152" y1="280" x2="65" y2="417" stroke="red" stroke-width="1" /><line x1="152" y1="290" x2="65" y2="419" stroke="green" stroke-width="1" /><line x1="152" y1="214" x2="65" y2="351" stroke="red" stroke-width="1" /><line x1="152" y1="224" x2="65" y2="353" stroke="green" stroke-width="1" /><line x1="88" y1="500" x2="65" y2="439" stroke="red" stroke-width="1" /><line x1="88" y1="522" x2="65" y2="417" stroke="red" stroke-width="1" /><line x1="152" y1="104" x2="65" y2="241" stroke="red" stroke-width="1" /><line x1="152" y1="114" x2="65" y2="243" stroke="green" stroke-width="1" /><line x1="152" y1="126" x2="65" y2="263" stroke="red" stroke-width="1" /><line x1="152" y1="136" x2="65" y2="265" stroke="green" stroke-width="1" /><line x1="152" y1="82" x2="65" y2="219" stroke="red" stroke-width="1" /><line x1="152" y1="92" x2="65" y2="221" stroke="green" stroke-width="1" /><line x1="196" y1="104" x2="65" y2="197" stroke="red" stroke-width="1" /><line x1="196" y1="114" x2="65" y2="199" stroke="green" stroke-width="1" /><line x1="132" y1="466" x2="109" y2="353" stroke="green" stroke-width="1" /><line x1="132" y1="488" x2="131" y2="353" stroke="green" stroke-width="1" /><line x1="240" y1="280" x2="307" y2="417" stroke="red" stroke-width="1" /><line x1="240" y1="290" x2="307" y2="419" stroke="green" stroke-width="1" /><line x1="240" y1="258" x2="307" y2="395" stroke="red" stroke-width="1" /><line x1="240" y1="268" x2="307" y2="397" stroke="green" stroke-width="1" /><line x1="132" y1="554" x2="65" y2="463" stroke="green" stroke-width="1" /><line x1="132" y1="576" x2="65" y2="507" stroke="green" stroke-width="1" /><line x1="176" y1="554" x2="307" y2="463" stroke="green" stroke-width="1" /><line x1="176" y1="576" x2="307" y2="485" stroke="green" stroke-width="1" /><line x1="240" y1="390" x2="285" y2="285" stroke="red" stroke-width="1" /><line x1="240" y1="400" x2="285" y2="287" stroke="green" stroke-width="1" /><line x1="264" y1="126" x2="285" y2="285" stroke="red" stroke-width="1" /><line x1="108" y1="378" x2="88" y2="510" stroke="green" stroke-width="1" /><line x1="108" y1="510" x2="132" y2="422" stroke="green" stroke-width="1" /><line x1="152" y1="422" x2="176" y2="422" stroke="green" stroke-width="1" /><line x1="196" y1="422" x2="220" y2="510" stroke="green" stroke-width="1" /><line x1="108" y1="400" x2="88" y2="532" stroke="green" stroke-width="1" /><line x1="108" y1="532" x2="132" y2="444" stroke="green" stroke-width="1" /><line x1="152" y1="444" x2="176" y2="444" stroke="green" stroke-width="1" /><line x1="196" y1="444" x2="220" y2="532" stroke="green" stroke-width="1" /><line x1="108" y1="92" x2="132" y2="180" stroke="green" stroke-width="1" /><line x1="152" y1="180" x2="176" y2="268" stroke="green" stroke-width="1" /><line x1="196" y1="268" x2="176" y2="466" stroke="green" stroke-width="1" /><line x1="196" y1="466" x2="220" y2="554" stroke="green" stroke-width="1" /><line x1="108" y1="158" x2="132" y2="202" stroke="green" stroke-width="1" /><line x1="152" y1="202" x2="176" y2="290" stroke="green" stroke-width="1" /><line x1="196" y1="290" x2="176" y2="488" stroke="green" stroke-width="1" /><line x1="196" y1="488" x2="220" y2="576" stroke="green" stroke-width="1" /><line x1="108" y1="114" x2="132" y2="114" stroke="green" stroke-width="1" /><line x1="152" y1="466" x2="176" y2="510" stroke="green" stroke-width="1" /><line x1="196" y1="510" x2="264" y2="378" stroke="green" stroke-width="1" /><line x1="108" y1="136" x2="132" y2="136" stroke="green" stroke-width="1" /><line x1="152" y1="488" x2="176" y2="532" stroke="green" stroke-width="1" /><line x1="196" y1="532" x2="264" y2="400" stroke="green" stroke-width="1" /><line x1="108" y1="180" x2="176" y2="136" stroke="green" stroke-width="1" /><line x1="196" y1="136" x2="220" y2="290" stroke="green" stroke-width="1" /><line x1="196" y1="554" x2="264" y2="422" stroke="green" stroke-width="1" /><line x1="108" y1="202" x2="176" y2="92" stroke="green" stroke-width="1" /><line x1="196" y1="92" x2="220" y2="268" stroke="green" stroke-width="1" /><line x1="196" y1="576" x2="264" y2="444" stroke="green" stroke-width="1" /><line x1="108" y1="422" x2="88" y2="554" stroke="green" stroke-width="1" /><line x1="108" y1="554" x2="132" y2="510" stroke="green" stroke-width="1" /><line x1="152" y1="510" x2="220" y2="378" stroke="green" stroke-width="1" /><line x1="240" y1="378" x2="264" y2="466" stroke="green" stroke-width="1" /><line x1="108" y1="444" x2="88" y2="576" stroke="green" stroke-width="1" /><line x1="108" y1="576" x2="132" y2="532" stroke="green" stroke-width="1" /><line x1="152" y1="532" x2="220" y2="400" stroke="green" stroke-width="1" /><line x1="240" y1="400" x2="264" y2="488" stroke="green" stroke-width="1" /><line x1="108" y1="224" x2="132" y2="92" stroke="green" stroke-width="1" /><line x1="152" y1="554" x2="220" y2="422" stroke="green" stroke-width="1" /><line x1="240" y1="422" x2="264" y2="510" stroke="green" stroke-width="1" /><line x1="108" y1="246" x2="176" y2="114" stroke="green" stroke-width="1" /><line x1="152" y1="576" x2="220" y2="444" stroke="green" stroke-width="1" /><line x1="240" y1="444" x2="264" y2="532" stroke="green" stroke-width="1" /><line x1="108" y1="268" x2="176" y2="158" stroke="green" stroke-width="1" /><line x1="196" y1="158" x2="220" y2="246" stroke="green" stroke-width="1" /><line x1="240" y1="246" x2="220" y2="114" stroke="green" stroke-width="1" /><line x1="240" y1="114" x2="308" y2="180" stroke="green" stroke-width="1" /><line x1="108" y1="290" x2="132" y2="158" stroke="green" stroke-width="1" /><line x1="152" y1="158" x2="220" y2="224" stroke="green" stroke-width="1" /><line x1="240" y1="224" x2="220" y2="92" stroke="green" stroke-width="1" /><line x1="240" y1="92" x2="264" y2="180" stroke="green" stroke-width="1" /><line x1="152" y1="290" x2="176" y2="180" stroke="green" stroke-width="1" /><line x1="196" y1="180" x2="220" y2="180" stroke="green" stroke-width="1" /><line x1="240" y1="180" x2="264" y2="114" stroke="green" stroke-width="1" /><line x1="284" y1="114" x2="308" y2="202" stroke="green" stroke-width="1" /><line x1="152" y1="268" x2="176" y2="202" stroke="green" stroke-width="1" /><line x1="196" y1="202" x2="220" y2="202" stroke="green" stroke-width="1" /><line x1="240" y1="202" x2="308" y2="136" stroke="green" stroke-width="1" /><line x1="328" y1="136" x2="308" y2="224" stroke="green" stroke-width="1" /><line x1="152" y1="246" x2="176" y2="246" stroke="green" stroke-width="1" /><line x1="196" y1="246" x2="220" y2="158" stroke="green" stroke-width="1" /><line x1="240" y1="158" x2="264" y2="136" stroke="green" stroke-width="1" /><line x1="284" y1="136" x2="264" y2="268" stroke="green" stroke-width="1" /><line x1="152" y1="224" x2="176" y2="224" stroke="green" stroke-width="1" /><line x1="196" y1="224" x2="220" y2="136" stroke="green" stroke-width="1" /><line x1="240" y1="136" x2="264" y2="158" stroke="green" stroke-width="1" /><line x1="284" y1="158" x2="264" y2="246" stroke="green" stroke-width="1" /><line x1="108" y1="466" x2="132" y2="378" stroke="green" stroke-width="1" /><line x1="152" y1="378" x2="176" y2="378" stroke="green" stroke-width="1" /><line x1="196" y1="378" x2="220" y2="466" stroke="green" stroke-width="1" /><line x1="240" y1="466" x2="264" y2="554" stroke="green" stroke-width="1" /><line x1="108" y1="488" x2="132" y2="400" stroke="green" stroke-width="1" /><line x1="152" y1="400" x2="176" y2="400" stroke="green" stroke-width="1" /><line x1="196" y1="400" x2="220" y2="488" stroke="green" stroke-width="1" /><line x1="240" y1="488" x2="264" y2="576" stroke="green" stroke-width="1" /><line x1="108" y1="368" x2="88" y2="390" stroke="red" stroke-width="1" /><line x1="108" y1="82" x2="88" y2="148" stroke="red" stroke-width="1" /><line x1="108" y1="104" x2="88" y2="126" stroke="red" stroke-width="1" /><line x1="108" y1="170" x2="88" y2="192" stroke="red" stroke-width="1" /><line x1="108" y1="412" x2="88" y2="434" stroke="red" stroke-width="1" /><line x1="108" y1="214" x2="88" y2="236" stroke="red" stroke-width="1" /><line x1="108" y1="258" x2="88" y2="280" stroke="red" stroke-width="1" /><line x1="152" y1="280" x2="132" y2="258" stroke="red" stroke-width="1" /><line x1="152" y1="236" x2="132" y2="214" stroke="red" stroke-width="1" /><line x1="108" y1="456" x2="88" y2="478" stroke="red" stroke-width="1" /><line x1="108" y1="500" x2="88" y2="522" stroke="red" stroke-width="1" /><line x1="152" y1="170" x2="132" y2="192" stroke="red" stroke-width="1" /><line x1="152" y1="104" x2="132" y2="126" stroke="red" stroke-width="1" /><line x1="196" y1="126" x2="176" y2="82" stroke="red" stroke-width="1" /><line x1="108" y1="544" x2="88" y2="566" stroke="red" stroke-width="1" /><line x1="152" y1="82" x2="176" y2="104" stroke="red" stroke-width="1" /><line x1="196" y1="148" x2="132" y2="148" stroke="red" stroke-width="1" /><line x1="196" y1="170" x2="176" y2="192" stroke="red" stroke-width="1" /><line x1="196" y1="236" x2="176" y2="214" stroke="red" stroke-width="1" /><line x1="152" y1="368" x2="132" y2="390" stroke="red" stroke-width="1" /><line x1="152" y1="412" x2="132" y2="434" stroke="red" stroke-width="1" /><line x1="196" y1="258" x2="176" y2="280" stroke="red" stroke-width="1" /><line x1="152" y1="456" x2="132" y2="478" stroke="red" stroke-width="1" /><line x1="240" y1="280" x2="220" y2="258" stroke="red" stroke-width="1" /><line x1="152" y1="500" x2="132" y2="522" stroke="red" stroke-width="1" /><line x1="152" y1="544" x2="132" y2="566" stroke="red" stroke-width="1" /><line x1="240" y1="236" x2="220" y2="214" stroke="red" stroke-width="1" /><line x1="240" y1="170" x2="220" y2="192" stroke="red" stroke-width="1" /><line x1="240" y1="148" x2="220" y2="126" stroke="red" stroke-width="1" /><line x1="196" y1="368" x2="176" y2="390" stroke="red" stroke-width="1" /><line x1="196" y1="412" x2="176" y2="434" stroke="red" stroke-width="1" /><line x1="196" y1="456" x2="176" y2="478" stroke="red" stroke-width="1" /><line x1="196" y1="500" x2="176" y2="522" stroke="red" stroke-width="1" /><line x1="196" y1="544" x2="176" y2="566" stroke="red" stroke-width="1" /><line x1="240" y1="368" x2="220" y2="390" stroke="red" stroke-width="1" /><line x1="240" y1="412" x2="220" y2="434" stroke="red" stroke-width="1" /><line x1="240" y1="104" x2="220" y2="82" stroke="red" stroke-width="1" /><line x1="284" y1="104" x2="308" y2="126" stroke="red" stroke-width="1" /><line x1="284" y1="126" x2="264" y2="148" stroke="red" stroke-width="1" /><line x1="240" y1="456" x2="220" y2="478" stroke="red" stroke-width="1" /><line x1="240" y1="500" x2="220" y2="522" stroke="red" stroke-width="1" /><line x1="240" y1="544" x2="220" y2="566" stroke="red" stroke-width="1" /><line x1="284" y1="368" x2="264" y2="390" stroke="red" stroke-width="1" /><line x1="284" y1="412" x2="264" y2="434" stroke="red" stroke-width="1" /><line x1="284" y1="456" x2="264" y2="478" stroke="red" stroke-width="1" /><line x1="284" y1="500" x2="264" y2="522" stroke="red" stroke-width="1" /><line x1="328" y1="170" x2="264" y2="170" stroke="red" stroke-width="1" /><line x1="328" y1="192" x2="308" y2="214" stroke="red" stroke-width="1" /><line x1="284" y1="258" x2="264" y2="236" stroke="red" stroke-width="1" /><line x1="284" y1="544" x2="264" y2="566" stroke="red" stroke-width="1" /><line x1="108" y1="148" x2="88" y2="170" stroke="red" stroke-width="1" /><line x1="108" y1="214" x2="88" y2="280" stroke="red" stroke-width="1" /><line x1="152" y1="104" x2="176" y2="82" stroke="red" stroke-width="1" /><line x1="196" y1="104" x2="176" y2="170" stroke="red" stroke-width="1" /><line x1="152" y1="368" x2="132" y2="434" stroke="red" stroke-width="1" /><line x1="152" y1="478" x2="132" y2="500" stroke="red" stroke-width="1" /><line x1="240" y1="236" x2="220" y2="192" stroke="red" stroke-width="1" /><line x1="196" y1="390" x2="176" y2="456" stroke="red" stroke-width="1" /><line x1="196" y1="544" x2="220" y2="390" stroke="red" stroke-width="1" /><line x1="240" y1="82" x2="264" y2="126" stroke="red" stroke-width="1" /><line x1="240" y1="500" x2="220" y2="566" stroke="red" stroke-width="1" /><line x1="284" y1="434" x2="264" y2="500" stroke="red" stroke-width="1" /><line x1="328" y1="192" x2="264" y2="236" stroke="red" stroke-width="1" /><line x1="108" y1="148" x2="88" y2="214" stroke="red" stroke-width="1" /><line x1="152" y1="126" x2="176" y2="148" stroke="red" stroke-width="1" /><line x1="196" y1="236" x2="176" y2="280" stroke="red" stroke-width="1" /><line x1="240" y1="258" x2="220" y2="170" stroke="red" stroke-width="1" /><line x1="196" y1="368" x2="176" y2="522" stroke="red" stroke-width="1" /><line x1="240" y1="500" x2="264" y2="434" stroke="red" stroke-width="1" /><line x1="284" y1="522" x2="264" y2="544" stroke="red" stroke-width="1" /></svg>