<svg xmlns="http://www.w3.org/2000/svg" width="500" height="460"><rect x="0" y="0" width="500" height="460" fill="rgb(255,255,255)"></rect><rect x="0" y="0" width="480" height="440" fill="rgba(255,255,255,1)"></rect><rect x="210" y="385" width="40" height="20" fill="rgba(230,230,230,1)"></rect><text x="230" y="395" text-anchor="middle" alignment-baseline="middle" fill="black">+</text><rect x="166" y="407" width="40" height="20" fill="rgba(230,230,230,1)"></rect><text x="186" y="417" text-anchor="middle" alignment-baseline="middle" fill="black">+</text><rect x="122" y="407" width="40" height="20" fill="rgba(230,230,230,1)"></rect><text x="142" y="417" text-anchor="middle" alignment-baseline="middle" fill="black">+</text><rect x="78" y="385" width="40" height="20" fill="rgba(230,230,230,1)"></rect><text x="98" y="395" text-anchor="middle" alignment-baseline="middle" fill="black">+</text><rect x="78" y="341" width="40" height="20" fill="rgba(230,230,230,1)"></rect><text x="98" y="351" text-anchor="middle" alignment-baseline="middle" fill="black">+</text><rect x="122" y="297" width="40" height="20" fill="rgba(230,230,230,1)"></rect><text x="142" y="307" text-anchor="middle" alignment-baseline="middle" fill="black">+</text><rect x="122" y="275" width="40" height="20" fill="rgba(230,230,230,1)"></rect><text x="142" y="285" text-anchor="middle" alignment-baseline="middle" fill="black">+</text><rect x="166" y="275" width="40" height="20" fill="rgba(230,230,230,1)"></rect><text x="186" y="285" text-anchor="middle" alignment-baseline="middle" fill="black">+</text><rect x="210" y="275" width="40" height="20" fill="rgba(230,230,230,1)"></rect><text x="230" y="285" text-anchor="middle" alignment-baseline="middle" fill="black">+</text><rect x="232" y="319" width="40" height="20" fill="rgba(230,230,230,1)"></rect><text x="252" y="329" text-anchor="middle" alignment-baseline="middle" fill="black">+</text><rect x="210" y="363" width="40" height="20" fill="rgba(230,230,230,1)"></rect><text x="230" y="373" text-anchor="middle" alignment-baseline="middle" fill="black">+</text><rect x="166" y="385" width="40" height="20" fill="rgba(230,230,230,1)"></rect><text x="186" y="395" text-anchor="middle" alignment-baseline="middle" fill="black">+</text><rect x="122" y="385" width="40" height="20" fill="rgba(230,230,230,1)"></rect><text x="142" y="395" text-anchor="middle" alignment-baseline="middle" fill="black">+</text><rect x="78" y="363" width="40" height="20" fill="rgba(230,230,230,1)"></rect><text x="98" y="373" text-anchor="middle" alignment-baseline="middle" fill="black">+</text><rect x="78" y="319" width="40" height="20" fill="rgba(230,230,230,1)"></rect><text x="98" y="329" text-anchor="middle" alignment-baseline="middle" fill="black">+</text><rect x="122" y="253" width="40" height="20" fill="rgba(230,230,230,1)"></rect><text x="142" y="263" text-anchor="middle" alignment-baseline="middle" fill="black">+</text><rect x="166" y="231" width="40" height="20" fill="rgba(230,230,230,1)"></rect><text x="186" y="241" text-anchor="middle" alignment-baseline="middle" fill="black">+</text><rect x="210" y="231" width="40" height="20" fill="rgba(230,230,230,1)"></rect><text x="230" y="241" text-anchor="middle" alignment-baseline="middle" fill="black">+</text><rect x="254" y="209" width="40" height="20" fill="rgba(230,230,230,1)"></rect><text x="274" y="219" text-anchor="middle" alignment-baseline="middle" fill="black">+</text><rect x="298" y="231" width="40" height="20" fill="rgba(230,230,230,1)"></rect><text x="318" y="241" text-anchor="middle" alignment-baseline="middle" fill="black">+</text><rect x="166" y="341" width="40" height="20" fill="rgba(230,230,230,1)"></rect><text x="186" y="351" text-anchor="middle" alignment-baseline="middle" fill="black">+</text><rect x="166" y="363" width="40" height="20" fill="rgba(230,230,230,1)"></rect><text x="186" y="373" text-anchor="middle" alignment-baseline="middle" fill="black">+</text><rect x="122" y="363" width="40" height="20" fill="rgba(230,230,230,1)"></rect><text x="142" y="373" text-anchor="middle" alignment-baseline="middle" fill="black">+</text><rect x="122" y="341" width="40" height="20" fill="rgba(230,230,230,1)"></rect><text x="142" y="351" text-anchor="middle" alignment-baseline="middle" fill="black">+</text><rect x="78" y="275" width="40" height="20" fill="rgba(230,230,230,1)"></rect><text x="98" y="285" text-anchor="middle" alignment-baseline="middle" fill="black">+</text><rect x="166" y="209" width="40" height="20" fill="rgba(230,230,230,1)"></rect><text x="186" y="219" text-anchor="middle" alignment-baseline="middle" fill="black">+</text><rect x="210" y="209" width="40" height="20" fill="rgba(230,230,230,1)"></rect><text x="230" y="219" text-anchor="middle" alignment-baseline="middle" fill="black">+</text><rect x="254" y="187" width="40" height="20" fill="rgba(230,230,230,1)"></rect><text x="274" y="197" text-anchor="middle" alignment-baseline="middle" fill="black">+</text><rect x="298" y="209" width="40" height="20" fill="rgba(230,230,230,1)"></rect><text x="318" y="219" text-anchor="middle" alignment-baseline="middle" fill="black">+</text><rect x="342" y="231" width="40" height="20" fill="rgba(230,230,230,1)"></rect><text x="362" y="241" text-anchor="middle" alignment-baseline="middle" fill="black">+</text><rect x="166" y="319" width="40" height="20" fill="rgba(230,230,230,1)"></rect><text x="186" y="329" text-anchor="middle" alignment-baseline="middle" fill="black">+</text><rect x="122" y="319" width="40" height="20" fill="rgba(230,230,230,1)"></rect><text x="142" y="329" text-anchor="middle" alignment-baseline="middle" fill="black">+</text><rect x="78" y="297" width="40" height="20" fill="rgba(230,230,230,1)"></rect><text x="98" y="307" text-anchor="middle" alignment-baseline="middle" fill="black">+</text><rect x="78" y="253" width="40" height="20" fill="rgba(230,230,230,1)"></rect><text x="98" y="263" text-anchor="middle" alignment-baseline="middle" fill="black">+</text><rect x="122" y="231" width="40" height="20" fill="rgba(230,230,230,1)"></rect><text x="142" y="241" text-anchor="middle" alignment-baseline="middle" fill="black">+</text><rect x="166" y="253" width="40" height="20" fill="rgba(230,230,230,1)"></rect><text x="186" y="263" text-anchor="middle" alignment-baseline="middle" fill="black">+</text><rect x="210" y="253" width="40" height="20" fill="rgba(230,230,230,1)"></rect><text x="230" y="263" text-anchor="middle" alignment-baseline="middle" fill="black">+</text><rect x="298" y="275" width="40" height="20" fill="rgba(230,230,230,1)"></rect><text x="318" y="285" text-anchor="middle" alignment-baseline="middle" fill="black">+</text><rect x="298" y="253" width="40" height="20" fill="rgba(230,230,230,1)"></rect><text x="318" y="263" text-anchor="middle" alignment-baseline="middle" fill="black">+</text><rect x="342" y="275" width="40" height="20" fill="rgba(230,230,230,1)"></rect><text x="362" y="285" text-anchor="middle" alignment-baseline="middle" fill="black">+</text><rect x="122" y="209" width="40" height="20" fill="rgba(230,230,230,1)"></rect><text x="142" y="219" text-anchor="middle" alignment-baseline="middle" fill="black">+</text><rect x="78" y="231" width="40" height="20" fill="rgba(230,230,230,1)"></rect><text x="98" y="241" text-anchor="middle" alignment-baseline="middle" fill="black">+</text><rect x="78" y="209" width="40" height="20" fill="rgba(230,230,230,1)"></rect><text x="98" y="219" text-anchor="middle" alignment-baseline="middle" fill="black">+</text><rect x="78" y="187" width="40" height="20" fill="rgba(230,230,230,1)"></rect><text x="98" y="197" text-anchor="middle" alignment-baseline="middle" fill="black">+</text><rect x="122" y="187" width="40" height="20" fill="rgba(230,230,230,1)"></rect><text x="142" y="197" text-anchor="middle" alignment-baseline="middle" fill="black">+</text><rect x="166" y="297" width="40" height="20" fill="rgba(230,230,230,1)"></rect><text x="186" y="307" text-anchor="middle" alignment-baseline="middle" fill="black">+</text><rect x="210" y="341" width="40" height="20" fill="rgba(230,230,230,1)"></rect><text x="230" y="351" text-anchor="middle" alignment-baseline="middle" fill="black">+</text><rect x="276" y="319" width="40" height="20" fill="rgba(230,230,230,1)"></rect><text x="296" y="329" text-anchor="middle" alignment-baseline="middle" fill="black">+</text><rect x="276" y="297" width="40" height="20" fill="rgba(230,230,230,1)"></rect><text x="296" y="307" text-anchor="middle" alignment-baseline="middle" fill="black">+</text><rect x="364" y="297" width="40" height="20" fill="rgba(230,230,230,1)"></rect><text x="384" y="307" text-anchor="middle" alignment-baseline="middle" fill="black">+</text><rect x="122" y="165" width="40" height="20" fill="rgba(230,230,230,1)"></rect><text x="142" y="175" text-anchor="middle" alignment-baseline="middle" fill="black">+</text><rect x="78" y="165" width="40" height="20" fill="rgba(230,230,230,1)"></rect><text x="98" y="175" text-anchor="middle" alignment-baseline="middle" fill="black">+</text><rect x="78" y="121" width="40" height="20" fill="rgba(230,230,230,1)"></rect><text x="98" y="131" text-anchor="middle" alignment-baseline="middle" fill="black">+</text><rect x="78" y="143" width="40" height="20" fill="rgba(230,230,230,1)"></rect><text x="98" y="153" text-anchor="middle" alignment-baseline="middle" fill="black">+</text><rect x="166" y="187" width="40" height="20" fill="rgba(230,230,230,1)"></rect><text x="186" y="197" text-anchor="middle" alignment-baseline="middle" fill="black">+</text><rect x="210" y="297" width="40" height="20" fill="rgba(230,230,230,1)"></rect><text x="230" y="307" text-anchor="middle" alignment-baseline="middle" fill="black">+</text><rect x="254" y="341" width="40" height="20" fill="rgba(230,230,230,1)"></rect><text x="274" y="351" text-anchor="middle" alignment-baseline="middle" fill="black">+</text><rect x="298" y="341" width="40" height="20" fill="rgba(230,230,230,1)"></rect><text x="318" y="351" text-anchor="middle" alignment-baseline="middle" fill="black">+</text><rect x="320" y="297" width="40" height="20" fill="rgba(230,230,230,1)"></rect><text x="340" y="307" text-anchor="middle" alignment-baseline="middle" fill="black">+</text><rect x="408" y="275" width="40" height="20" fill="rgba(230,230,230,1)"></rect><text x="428" y="285" text-anchor="middle" alignment-baseline="middle" fill="black">+</text><rect x="122" y="143" width="40" height="20" fill="rgba(230,230,230,1)"></rect><text x="142" y="153" text-anchor="middle" alignment-baseline="middle" fill="black">+</text><rect x="122" y="121" width="40" height="20" fill="rgba(230,230,230,1)"></rect><text x="142" y="131" text-anchor="middle" alignment-baseline="middle" fill="black">+</text><rect x="122" y="99" width="40" height="20" fill="rgba(230,230,230,1)"></rect><text x="142" y="109" text-anchor="middle" alignment-baseline="middle" fill="black">+</text><rect x="166" y="143" width="40" height="20" fill="rgba(230,230,230,1)"></rect><text x="186" y="153" text-anchor="middle" alignment-baseline="middle" fill="black">+</text><rect x="210" y="187" width="40" height="20" fill="rgba(230,230,230,1)"></rect><text x="230" y="197" text-anchor="middle" alignment-baseline="middle" fill="black">+</text><rect x="254" y="231" width="40" height="20" fill="rgba(230,230,230,1)"></rect><text x="274" y="241" text-anchor="middle" alignment-baseline="middle" fill="black">+</text><rect x="320" y="319" width="40" height="20" fill="rgba(230,230,230,1)"></rect><text x="340" y="329" text-anchor="middle" alignment-baseline="middle" fill="black">+</text><rect x="364" y="319" width="40" height="20" fill="rgba(230,230,230,1)"></rect><text x="384" y="329" text-anchor="middle" alignment-baseline="middle" fill="black">+</text><rect x="386" y="253" width="40" height="20" fill="rgba(230,230,230,1)"></rect><text x="406" y="263" text-anchor="middle" alignment-baseline="middle" fill="black">+</text><rect x="342" y="209" width="40" height="20" fill="rgba(230,230,230,1)"></rect><text x="362" y="219" text-anchor="middle" alignment-baseline="middle" fill="black">+</text><rect x="166" y="165" width="40" height="20" fill="rgba(230,230,230,1)"></rect><text x="186" y="175" text-anchor="middle" alignment-baseline="middle" fill="black">+</text><rect x="166" y="121" width="40" height="20" fill="rgba(230,230,230,1)"></rect><text x="186" y="131" text-anchor="middle" alignment-baseline="middle" fill="black">+</text><rect x="166" y="99" width="40" height="20" fill="rgba(230,230,230,1)"></rect><text x="186" y="109" text-anchor="middle" alignment-baseline="middle" fill="black">+</text><rect x="210" y="121" width="40" height="20" fill="rgba(230,230,230,1)"></rect><text x="230" y="131" text-anchor="middle" alignment-baseline="middle" fill="black">+</text><rect x="254" y="165" width="40" height="20" fill="rgba(230,230,230,1)"></rect><text x="274" y="175" text-anchor="middle" alignment-baseline="middle" fill="black">+</text><rect x="298" y="187" width="40" height="20" fill="rgba(230,230,230,1)"></rect><text x="318" y="197" text-anchor="middle" alignment-baseline="middle" fill="black">+</text><rect x="342" y="253" width="40" height="20" fill="rgba(230,230,230,1)"></rect><text x="362" y="263" text-anchor="middle" alignment-baseline="middle" fill="black">+</text><rect x="386" y="231" width="40" height="20" fill="rgba(230,230,230,1)"></rect><text x="406" y="241" text-anchor="middle" alignment-baseline="middle" fill="black">+</text><rect x="386" y="209" width="40" height="20" fill="rgba(230,230,230,1)"></rect><text x="406" y="219" text-anchor="middle" alignment-baseline="middle" fill="black">+</text><rect x="342" y="187" width="40" height="20" fill="rgba(230,230,230,1)"></rect><text x="362" y="197" text-anchor="middle" alignment-baseline="middle" fill="black">+</text><rect x="210" y="165" width="40" height="20" fill="rgba(230,230,230,1)"></rect><text x="230" y="175" text-anchor="middle" alignment-baseline="middle" fill="black">+</text><rect x="210" y="143" width="40" height="20" fill="rgba(230,230,230,1)"></rect><text x="230" y="153" text-anchor="middle" alignment-baseline="middle" fill="black">+</text><rect x="210" y="99" width="40" height="20" fill="rgba(230,230,230,1)"></rect><text x="230" y="109" text-anchor="middle" alignment-baseline="middle" fill="black">+</text><rect x="254" y="121" width="40" height="20" fill="rgba(230,230,230,1)"></rect><text x="274" y="131" text-anchor="middle" alignment-baseline="middle" fill="black">+</text><rect x="298" y="165" width="40" height="20" fill="rgba(230,230,230,1)"></rect><text x="318" y="175" text-anchor="middle" alignment-baseline="middle" fill="black">+</text><rect x="342" y="165" width="40" height="20" fill="rgba(230,230,230,1)"></rect><text x="362" y="175" text-anchor="middle" alignment-baseline="middle" fill="black">+</text><rect x="386" y="165" width="40" height="20" fill="rgba(230,230,230,1)"></rect><text x="406" y="175" text-anchor="middle" alignment-baseline="middle" fill="black">+</text><rect x="430" y="165" width="40" height="20" fill="rgba(230,230,230,1)"></rect><text x="450" y="175" text-anchor="middle" alignment-baseline="middle" fill="black">+</text><rect x="430" y="209" width="40" height="20" fill="rgba(230,230,230,1)"></rect><text x="450" y="219" text-anchor="middle" alignment-baseline="middle" fill="black">+</text><rect x="430" y="231" width="40" height="20" fill="rgba(230,230,230,1)"></rect><text x="450" y="241" text-anchor="middle" alignment-baseline="middle" fill="black">+</text><rect x="254" y="143" width="40" height="20" fill="rgba(230,230,230,1)"></rect><text x="274" y="153" text-anchor="middle" alignment-baseline="middle" fill="black">+</text><rect x="254" y="77" width="40" height="20" fill="rgba(230,230,230,1)"></rect><text x="274" y="87" text-anchor="middle" alignment-baseline="middle" fill="black">+</text><rect x="254" y="99" width="40" height="20" fill="rgba(230,230,230,1)"></rect><text x="274" y="109" text-anchor="middle" alignment-baseline="middle" fill="black">+</text><rect x="298" y="121" width="40" height="20" fill="rgba(230,230,230,1)"></rect><text x="318" y="131" text-anchor="middle" alignment-baseline="middle" fill="black">+</text><rect x="298" y="143" width="40" height="20" fill="rgba(230,230,230,1)"></rect><text x="318" y="153" text-anchor="middle" alignment-baseline="middle" fill="black">+</text><rect x="342" y="143" width="40" height="20" fill="rgba(230,230,230,1)"></rect><text x="362" y="153" text-anchor="middle" alignment-baseline="middle" fill="black">+</text><rect x="386" y="121" width="40" height="20" fill="rgba(230,230,230,1)"></rect><text x="406" y="131" text-anchor="middle" alignment-baseline="middle" fill="black">+</text><rect x="408" y="143" width="40" height="20" fill="rgba(230,230,230,1)"></rect><text x="428" y="153" text-anchor="middle" alignment-baseline="middle" fill="black">+</text><rect x="386" y="187" width="40" height="20" fill="rgba(230,230,230,1)"></rect><text x="406" y="197" text-anchor="middle" alignment-baseline="middle" fill="black">+</text><rect x="430" y="253" width="40" height="20" fill="rgba(230,230,230,1)"></rect><text x="450" y="263" text-anchor="middle" alignment-baseline="middle" fill="black">+</text><rect x="253" y="253" width="40" height="40" fill="rgba(101,101,101,1)"></rect><text x="273" y="273" text-anchor="middle" alignment-baseline="middle" fill="black">SS</text><line x1="240" y1="400" x2="176" y2="422" stroke="green" stroke-width="1" /><line x1="196" y1="422" x2="132" y2="422" stroke="green" stroke-width="1" /><line x1="152" y1="422" x2="88" y2="400" stroke="green" stroke-width="1" /><line x1="108" y1="400" x2="88" y2="356" stroke="green" stroke-width="1" /><line x1="108" y1="356" x2="132" y2="312" stroke="green" stroke-width="1" /><line x1="152" y1="312" x2="132" y2="290" stroke="green" stroke-width="1" /><line x1="152" y1="290" x2="176" y2="290" stroke="green" stroke-width="1" /><line x1="196" y1="290" x2="220" y2="290" stroke="green" stroke-width="1" /><line x1="240" y1="290" x2="242" y2="334" stroke="green" stroke-width="1" /><line x1="240" y1="390" x2="220" y2="368" stroke="red" stroke-width="1" /><line x1="196" y1="412" x2="176" y2="390" stroke="red" stroke-width="1" /><line x1="240" y1="378" x2="176" y2="400" stroke="green" stroke-width="1" /><line x1="152" y1="412" x2="132" y2="390" stroke="red" stroke-width="1" /><line x1="196" y1="400" x2="132" y2="400" stroke="green" stroke-width="1" /><line x1="108" y1="390" x2="88" y2="368" stroke="red" stroke-width="1" /><line x1="152" y1="400" x2="88" y2="378" stroke="green" stroke-width="1" /><line x1="108" y1="346" x2="88" y2="324" stroke="red" stroke-width="1" /><line x1="108" y1="378" x2="88" y2="334" stroke="green" stroke-width="1" /><line x1="152" y1="302" x2="132" y2="258" stroke="red" stroke-width="1" /><line x1="108" y1="334" x2="132" y2="268" stroke="green" stroke-width="1" /><line x1="152" y1="280" x2="176" y2="236" stroke="red" stroke-width="1" /><line x1="152" y1="268" x2="176" y2="246" stroke="green" stroke-width="1" /><line x1="196" y1="280" x2="220" y2="236" stroke="red" stroke-width="1" /><line x1="196" y1="246" x2="220" y2="246" stroke="green" stroke-width="1" /><line x1="240" y1="280" x2="264" y2="214" stroke="red" stroke-width="1" /><line x1="240" y1="246" x2="264" y2="224" stroke="green" stroke-width="1" /><line x1="262" y1="324" x2="308" y2="236" stroke="red" stroke-width="1" /><line x1="284" y1="224" x2="308" y2="246" stroke="green" stroke-width="1" /><line x1="240" y1="368" x2="176" y2="346" stroke="red" stroke-width="1" /><line x1="196" y1="390" x2="176" y2="368" stroke="red" stroke-width="1" /><line x1="196" y1="356" x2="176" y2="378" stroke="green" stroke-width="1" /><line x1="152" y1="390" x2="132" y2="368" stroke="red" stroke-width="1" /><line x1="196" y1="378" x2="132" y2="378" stroke="green" stroke-width="1" /><line x1="108" y1="368" x2="132" y2="346" stroke="red" stroke-width="1" /><line x1="152" y1="378" x2="132" y2="356" stroke="green" stroke-width="1" /><line x1="108" y1="324" x2="88" y2="280" stroke="red" stroke-width="1" /><line x1="152" y1="356" x2="88" y2="290" stroke="green" stroke-width="1" /><line x1="152" y1="258" x2="176" y2="214" stroke="red" stroke-width="1" /><line x1="108" y1="290" x2="176" y2="224" stroke="green" stroke-width="1" /><line x1="196" y1="236" x2="220" y2="214" stroke="red" stroke-width="1" /><line x1="196" y1="224" x2="220" y2="224" stroke="green" stroke-width="1" /><line x1="240" y1="236" x2="264" y2="192" stroke="red" stroke-width="1" /><line x1="240" y1="224" x2="264" y2="202" stroke="green" stroke-width="1" /><line x1="284" y1="214" x2="308" y2="214" stroke="red" stroke-width="1" /><line x1="284" y1="202" x2="308" y2="224" stroke="green" stroke-width="1" /><line x1="328" y1="236" x2="352" y2="236" stroke="red" stroke-width="1" /><line x1="328" y1="224" x2="352" y2="246" stroke="green" stroke-width="1" /><line x1="196" y1="346" x2="176" y2="324" stroke="red" stroke-width="1" /><line x1="196" y1="368" x2="132" y2="324" stroke="red" stroke-width="1" /><line x1="196" y1="334" x2="132" y2="334" stroke="green" stroke-width="1" /><line x1="152" y1="368" x2="88" y2="302" stroke="red" stroke-width="1" /><line x1="152" y1="334" x2="88" y2="312" stroke="green" stroke-width="1" /><line x1="152" y1="346" x2="88" y2="258" stroke="red" stroke-width="1" /><line x1="108" y1="312" x2="88" y2="268" stroke="green" stroke-width="1" /><line x1="108" y1="280" x2="132" y2="236" stroke="red" stroke-width="1" /><line x1="108" y1="268" x2="132" y2="246" stroke="green" stroke-width="1" /><line x1="196" y1="214" x2="176" y2="258" stroke="red" stroke-width="1" /><line x1="152" y1="246" x2="176" y2="268" stroke="green" stroke-width="1" /><line x1="240" y1="214" x2="220" y2="258" stroke="red" stroke-width="1" /><line x1="196" y1="268" x2="220" y2="268" stroke="green" stroke-width="1" /><line x1="284" y1="192" x2="308" y2="280" stroke="red" stroke-width="1" /><line x1="240" y1="268" x2="308" y2="290" stroke="green" stroke-width="1" /><line x1="328" y1="214" x2="308" y2="258" stroke="red" stroke-width="1" /><line x1="328" y1="290" x2="308" y2="268" stroke="green" stroke-width="1" /><line x1="372" y1="236" x2="352" y2="280" stroke="red" stroke-width="1" /><line x1="328" y1="268" x2="352" y2="290" stroke="green" stroke-width="1" /><line x1="196" y1="324" x2="132" y2="214" stroke="red" stroke-width="1" /><line x1="152" y1="324" x2="88" y2="236" stroke="red" stroke-width="1" /><line x1="152" y1="224" x2="88" y2="246" stroke="green" stroke-width="1" /><line x1="108" y1="302" x2="88" y2="214" stroke="red" stroke-width="1" /><line x1="108" y1="246" x2="88" y2="224" stroke="green" stroke-width="1" /><line x1="108" y1="258" x2="88" y2="192" stroke="red" stroke-width="1" /><line x1="108" y1="224" x2="88" y2="202" stroke="green" stroke-width="1" /><line x1="152" y1="236" x2="132" y2="192" stroke="red" stroke-width="1" /><line x1="108" y1="202" x2="132" y2="202" stroke="green" stroke-width="1" /><line x1="196" y1="258" x2="176" y2="302" stroke="red" stroke-width="1" /><line x1="152" y1="202" x2="176" y2="312" stroke="green" stroke-width="1" /><line x1="240" y1="258" x2="220" y2="346" stroke="red" stroke-width="1" /><line x1="196" y1="312" x2="220" y2="356" stroke="green" stroke-width="1" /><line x1="328" y1="280" x2="286" y2="324" stroke="red" stroke-width="1" /><line x1="240" y1="356" x2="286" y2="334" stroke="green" stroke-width="1" /><line x1="328" y1="258" x2="286" y2="302" stroke="red" stroke-width="1" /><line x1="306" y1="334" x2="286" y2="312" stroke="green" stroke-width="1" /><line x1="372" y1="280" x2="374" y2="302" stroke="red" stroke-width="1" /><line x1="306" y1="312" x2="374" y2="312" stroke="green" stroke-width="1" /><line x1="152" y1="214" x2="132" y2="170" stroke="red" stroke-width="1" /><line x1="108" y1="236" x2="88" y2="170" stroke="red" stroke-width="1" /><line x1="152" y1="180" x2="88" y2="180" stroke="green" stroke-width="1" /><line x1="108" y1="214" x2="88" y2="126" stroke="red" stroke-width="1" /><line x1="108" y1="180" x2="88" y2="136" stroke="green" stroke-width="1" /><line x1="108" y1="192" x2="88" y2="148" stroke="red" stroke-width="1" /><line x1="108" y1="136" x2="88" y2="158" stroke="green" stroke-width="1" /><line x1="152" y1="192" x2="176" y2="192" stroke="red" stroke-width="1" /><line x1="108" y1="158" x2="176" y2="202" stroke="green" stroke-width="1" /><line x1="196" y1="302" x2="220" y2="302" stroke="red" stroke-width="1" /><line x1="196" y1="202" x2="220" y2="312" stroke="green" stroke-width="1" /><line x1="240" y1="346" x2="264" y2="346" stroke="red" stroke-width="1" /><line x1="240" y1="312" x2="264" y2="356" stroke="green" stroke-width="1" /><line x1="306" y1="324" x2="308" y2="346" stroke="red" stroke-width="1" /><line x1="284" y1="356" x2="308" y2="356" stroke="green" stroke-width="1" /><line x1="306" y1="302" x2="330" y2="302" stroke="red" stroke-width="1" /><line x1="328" y1="356" x2="330" y2="312" stroke="green" stroke-width="1" /><line x1="394" y1="302" x2="418" y2="280" stroke="red" stroke-width="1" /><line x1="350" y1="312" x2="418" y2="290" stroke="green" stroke-width="1" /><line x1="152" y1="170" x2="132" y2="148" stroke="red" stroke-width="1" /><line x1="108" y1="170" x2="132" y2="126" stroke="red" stroke-width="1" /><line x1="152" y1="158" x2="132" y2="136" stroke="green" stroke-width="1" /><line x1="108" y1="126" x2="132" y2="104" stroke="red" stroke-width="1" /><line x1="152" y1="136" x2="132" y2="114" stroke="green" stroke-width="1" /><line x1="108" y1="148" x2="176" y2="148" stroke="red" stroke-width="1" /><line x1="152" y1="114" x2="176" y2="158" stroke="green" stroke-width="1" /><line x1="196" y1="192" x2="220" y2="192" stroke="red" stroke-width="1" /><line x1="196" y1="158" x2="220" y2="202" stroke="green" stroke-width="1" /><line x1="240" y1="302" x2="264" y2="236" stroke="red" stroke-width="1" /><line x1="240" y1="202" x2="264" y2="246" stroke="green" stroke-width="1" /><line x1="284" y1="346" x2="330" y2="324" stroke="red" stroke-width="1" /><line x1="284" y1="246" x2="330" y2="334" stroke="green" stroke-width="1" /><line x1="328" y1="346" x2="374" y2="324" stroke="red" stroke-width="1" /><line x1="350" y1="334" x2="374" y2="334" stroke="green" stroke-width="1" /><line x1="350" y1="302" x2="396" y2="258" stroke="red" stroke-width="1" /><line x1="394" y1="334" x2="396" y2="268" stroke="green" stroke-width="1" /><line x1="438" y1="280" x2="352" y2="214" stroke="red" stroke-width="1" /><line x1="416" y1="268" x2="352" y2="224" stroke="green" stroke-width="1" /><line x1="152" y1="148" x2="176" y2="170" stroke="red" stroke-width="1" /><line x1="152" y1="126" x2="176" y2="126" stroke="red" stroke-width="1" /><line x1="196" y1="180" x2="176" y2="136" stroke="green" stroke-width="1" /><line x1="152" y1="104" x2="176" y2="104" stroke="red" stroke-width="1" /><line x1="196" y1="136" x2="176" y2="114" stroke="green" stroke-width="1" /><line x1="196" y1="148" x2="220" y2="126" stroke="red" stroke-width="1" /><line x1="196" y1="114" x2="220" y2="136" stroke="green" stroke-width="1" /><line x1="240" y1="192" x2="264" y2="170" stroke="red" stroke-width="1" /><line x1="240" y1="136" x2="264" y2="180" stroke="green" stroke-width="1" /><line x1="284" y1="236" x2="308" y2="192" stroke="red" stroke-width="1" /><line x1="284" y1="180" x2="308" y2="202" stroke="green" stroke-width="1" /><line x1="350" y1="324" x2="352" y2="258" stroke="red" stroke-width="1" /><line x1="328" y1="202" x2="352" y2="268" stroke="green" stroke-width="1" /><line x1="394" y1="324" x2="396" y2="236" stroke="red" stroke-width="1" /><line x1="372" y1="268" x2="396" y2="246" stroke="green" stroke-width="1" /><line x1="416" y1="258" x2="396" y2="214" stroke="red" stroke-width="1" /><line x1="416" y1="246" x2="396" y2="224" stroke="green" stroke-width="1" /><line x1="372" y1="214" x2="352" y2="192" stroke="red" stroke-width="1" /><line x1="416" y1="224" x2="352" y2="202" stroke="green" stroke-width="1" /><line x1="196" y1="170" x2="220" y2="170" stroke="red" stroke-width="1" /><line x1="196" y1="126" x2="220" y2="148" stroke="red" stroke-width="1" /><line x1="240" y1="180" x2="220" y2="158" stroke="green" stroke-width="1" /><line x1="196" y1="104" x2="220" y2="104" stroke="red" stroke-width="1" /><line x1="240" y1="158" x2="220" y2="114" stroke="green" stroke-width="1" /><line x1="240" y1="126" x2="264" y2="126" stroke="red" stroke-width="1" /><line x1="240" y1="114" x2="264" y2="136" stroke="green" stroke-width="1" /><line x1="284" y1="170" x2="308" y2="170" stroke="red" stroke-width="1" /><line x1="284" y1="136" x2="308" y2="180" stroke="green" stroke-width="1" /><line x1="328" y1="192" x2="352" y2="170" stroke="red" stroke-width="1" /><line x1="328" y1="180" x2="352" y2="180" stroke="green" stroke-width="1" /><line x1="372" y1="258" x2="396" y2="170" stroke="red" stroke-width="1" /><line x1="372" y1="180" x2="396" y2="180" stroke="green" stroke-width="1" /><line x1="416" y1="236" x2="440" y2="170" stroke="red" stroke-width="1" /><line x1="416" y1="180" x2="440" y2="180" stroke="green" stroke-width="1" /><line x1="416" y1="214" x2="440" y2="214" stroke="red" stroke-width="1" /><line x1="460" y1="180" x2="440" y2="224" stroke="green" stroke-width="1" /><line x1="372" y1="192" x2="440" y2="236" stroke="red" stroke-width="1" /><line x1="460" y1="224" x2="440" y2="246" stroke="green" stroke-width="1" /><line x1="240" y1="170" x2="264" y2="148" stroke="red" stroke-width="1" /><line x1="240" y1="148" x2="264" y2="82" stroke="red" stroke-width="1" /><line x1="284" y1="158" x2="264" y2="92" stroke="green" stroke-width="1" /><line x1="240" y1="104" x2="264" y2="104" stroke="red" stroke-width="1" /><line x1="284" y1="92" x2="264" y2="114" stroke="green" stroke-width="1" /><line x1="284" y1="126" x2="308" y2="126" stroke="red" stroke-width="1" /><line x1="284" y1="114" x2="308" y2="136" stroke="green" stroke-width="1" /><line x1="328" y1="170" x2="308" y2="148" stroke="red" stroke-width="1" /><line x1="328" y1="136" x2="308" y2="158" stroke="green" stroke-width="1" /><line x1="372" y1="170" x2="352" y2="148" stroke="red" stroke-width="1" /><line x1="328" y1="158" x2="352" y2="158" stroke="green" stroke-width="1" /><line x1="416" y1="170" x2="396" y2="126" stroke="red" stroke-width="1" /><line x1="372" y1="158" x2="396" y2="136" stroke="green" stroke-width="1" /><line x1="460" y1="170" x2="418" y2="148" stroke="red" stroke-width="1" /><line x1="416" y1="136" x2="418" y2="158" stroke="green" stroke-width="1" /><line x1="460" y1="214" x2="396" y2="192" stroke="red" stroke-width="1" /><line x1="438" y1="158" x2="396" y2="202" stroke="green" stroke-width="1" /><line x1="460" y1="236" x2="440" y2="258" stroke="red" stroke-width="1" /><line x1="416" y1="202" x2="440" y2="268" stroke="green" stroke-width="1" /></svg>