<svg xmlns="http://www.w3.org/2000/svg" width="468" height="249"><rect x="12" y="11" width="40" height="20" fill="rgb(230,230,230)"><title>0</title></rect><text x="32" y="21" text-anchor="middle" alignment-baseline="middle" fill="black">+</text><rect x="12" y="33" width="40" height="20" fill="rgb(230,230,230)"><title>1</title></rect><text x="32" y="43" text-anchor="middle" alignment-baseline="middle" fill="black">+</text><rect x="12" y="55" width="40" height="20" fill="rgb(230,230,230)"><title>2</title></rect><text x="32" y="65" text-anchor="middle" alignment-baseline="middle" fill="black">+</text><rect x="12" y="77" width="40" height="20" fill="rgb(230,230,230)"><title>3</title></rect><text x="32" y="87" text-anchor="middle" alignment-baseline="middle" fill="black">+</text><rect x="12" y="99" width="40" height="20" fill="rgb(230,230,230)"><title>4</title></rect><text x="32" y="109" text-anchor="middle" alignment-baseline="middle" fill="black">+</text><rect x="12" y="121" width="40" height="20" fill="rgb(230,230,230)"><title>5</title></rect><text x="32" y="131" text-anchor="middle" alignment-baseline="middle" fill="black">+</text><rect x="12" y="143" width="40" height="20" fill="rgb(230,230,230)"><title>6</title></rect><text x="32" y="153" text-anchor="middle" alignment-baseline="middle" fill="black">+</text><rect x="12" y="165" width="40" height="20" fill="rgb(230,230,230)"><title>7</title></rect><text x="32" y="175" text-anchor="middle" alignment-baseline="middle" fill="black">+</text><rect x="12" y="187" width="40" height="20" fill="rgb(230,230,230)"><title>8</title></rect><text x="32" y="197" text-anchor="middle" alignment-baseline="middle" fill="black">+</text><rect x="12" y="209" width="40" height="20" fill="rgb(230,230,230)"><title>9</title></rect><text x="32" y="219" text-anchor="middle" alignment-baseline="middle" fill="black">+</text><rect x="56" y="11" width="40" height="20" fill="rgb(230,230,230)"><title>10</title></rect><text x="76" y="21" text-anchor="middle" alignment-baseline="middle" fill="black">+</text><rect x="56" y="33" width="40" height="20" fill="rgb(230,230,230)"><title>11</title></rect><text x="76" y="43" text-anchor="middle" alignment-baseline="middle" fill="black">+</text><rect x="56" y="55" width="40" height="20" fill="rgb(230,230,230)"><title>12</title></rect><text x="76" y="65" text-anchor="middle" alignment-baseline="middle" fill="black">+</text><rect x="56" y="77" width="40" height="20" fill="rgb(230,230,230)"><title>13</title></rect><text x="76" y="87" text-anchor="middle" alignment-baseline="middle" fill="black">+</text><rect x="56" y="99" width="40" height="20" fill="rgb(230,230,230)"><title>14</title></rect><text x="76" y="109" text-anchor="middle" alignment-baseline="middle" fill="black">+</text><rect x="56" y="121" width="40" height="20" fill="rgb(230,230,230)"><title>15</title></rect><text x="76" y="131" text-anchor="middle" alignment-baseline="middle" fill="black">+</text><rect x="56" y="143" width="40" height="20" fill="rgb(230,230,230)"><title>16</title></rect><text x="76" y="153" text-anchor="middle" alignment-baseline="middle" fill="black">+</text><rect x="56" y="165" width="40" height="20" fill="rgb(230,230,230)"><title>17</title></rect><text x="76" y="175" text-anchor="middle" alignment-baseline="middle" fill="black">+</text><rect x="56" y="187" width="40" height="20" fill="rgb(230,230,230)"><title>18</title></rect><text x="76" y="197" text-anchor="middle" alignment-baseline="middle" fill="black">+</text><rect x="56" y="209" width="40" height="20" fill="rgb(230,230,230)"><title>19</title></rect><text x="76" y="219" text-anchor="middle" alignment-baseline="middle" fill="black">+</text><rect x="100" y="11" width="40" height="20" fill="rgb(230,230,230)"><title>20</title></rect><text x="120" y="21" text-anchor="middle" alignment-baseline="middle" fill="black">+</text><rect x="100" y="33" width="40" height="20" fill="rgb(230,230,230)"><title>21</title></rect><text x="120" y="43" text-anchor="middle" alignment-baseline="middle" fill="black">+</text><rect x="100" y="55" width="40" height="20" fill="rgb(230,230,230)"><title>22</title></rect><text x="120" y="65" text-anchor="middle" alignment-baseline="middle" fill="black">+</text><rect x="100" y="77" width="40" height="20" fill="rgb(230,230,230)"><title>23</title></rect><text x="120" y="87" text-anchor="middle" alignment-baseline="middle" fill="black">+</text><rect x="100" y="99" width="40" height="20" fill="rgb(230,230,230)"><title>24</title></rect><text x="120" y="109" text-anchor="middle" alignment-baseline="middle" fill="black">+</text><rect x="100" y="121" width="40" height="20" fill="rgb(230,230,230)"><title>25</title></rect><text x="120" y="131" text-anchor="middle" alignment-baseline="middle" fill="black">+</text><rect x="100" y="143" width="40" height="20" fill="rgb(230,230,230)"><title>26</title></rect><text x="120" y="153" text-anchor="middle" alignment-baseline="middle" fill="black">+</text><rect x="100" y="165" width="40" height="20" fill="rgb(230,230,230)"><title>27</title></rect><text x="120" y="175" text-anchor="middle" alignment-baseline="middle" fill="black">+</text><rect x="100" y="187" width="40" height="20" fill="rgb(230,230,230)"><title>28</title></rect><text x="120" y="197" text-anchor="middle" alignment-baseline="middle" fill="black">+</text><rect x="100" y="209" width="40" height="20" fill="rgb(230,230,230)"><title>29</title></rect><text x="120" y="219" text-anchor="middle" alignment-baseline="middle" fill="black">+</text><rect x="144" y="11" width="40" height="20" fill="rgb(230,230,230)"><title>30</title></rect><text x="164" y="21" text-anchor="middle" alignment-baseline="middle" fill="black">+</text><rect x="144" y="33" width="40" height="20" fill="rgb(230,230,230)"><title>31</title></rect><text x="164" y="43" text-anchor="middle" alignment-baseline="middle" fill="black">+</text><rect x="144" y="55" width="40" height="20" fill="rgb(230,230,230)"><title>32</title></rect><text x="164" y="65" text-anchor="middle" alignment-baseline="middle" fill="black">+</text><rect x="144" y="77" width="40" height="20" fill="rgb(230,230,230)"><title>33</title></rect><text x="164" y="87" text-anchor="middle" alignment-baseline="middle" fill="black">+</text><rect x="144" y="99" width="40" height="20" fill="rgb(230,230,230)"><title>34</title></rect><text x="164" y="109" text-anchor="middle" alignment-baseline="middle" fill="black">+</text><rect x="144" y="121" width="40" height="20" fill="rgb(230,230,230)"><title>35</title></rect><text x="164" y="131" text-anchor="middle" alignment-baseline="middle" fill="black">+</text><rect x="144" y="143" width="40" height="20" fill="rgb(230,230,230)"><title>36</title></rect><text x="164" y="153" text-anchor="middle" alignment-baseline="middle" fill="black">+</text><rect x="144" y="165" width="40" height="20" fill="rgb(230,230,230)"><title>37</title></rect><text x="164" y="175" text-anchor="middle" alignment-baseline="middle" fill="black">+</text><rect x="144" y="187" width="40" height="20" fill="rgb(230,230,230)"><title>38</title></rect><text x="164" y="197" text-anchor="middle" alignment-baseline="middle" fill="black">+</text><rect x="144" y="209" width="40" height="20" fill="rgb(230,230,230)"><title>39</title></rect><text x="164" y="219" text-anchor="middle" alignment-baseline="middle" fill="black">+</text><rect x="188" y="11" width="40" height="20" fill="rgb(230,230,230)"><title>40</title></rect><text x="208" y="21" text-anchor="middle" alignment-baseline="middle" fill="black">+</text><rect x="188" y="33" width="40" height="20" fill="rgb(230,230,230)"><title>41</title></rect><text x="208" y="43" text-anchor="middle" alignment-baseline="middle" fill="black">+</text><rect x="188" y="55" width="40" height="20" fill="rgb(230,230,230)"><title>42</title></rect><text x="208" y="65" text-anchor="middle" alignment-baseline="middle" fill="black">+</text><rect x="188" y="77" width="40" height="20" fill="rgb(230,230,230)"><title>43</title></rect><text x="208" y="87" text-anchor="middle" alignment-baseline="middle" fill="black">+</text><rect x="188" y="99" width="40" height="20" fill="rgb(230,230,230)"><title>44</title></rect><text x="208" y="109" text-anchor="middle" alignment-baseline="middle" fill="black">+</text><rect x="188" y="121" width="40" height="20" fill="rgb(230,230,230)"><title>45</title></rect><text x="208" y="131" text-anchor="middle" alignment-baseline="middle" fill="black">+</text><rect x="188" y="143" width="40" height="20" fill="rgb(230,230,230)"><title>46</title></rect><text x="208" y="153" text-anchor="middle" alignment-baseline="middle" fill="black">+</text><rect x="188" y="165" width="40" height="20" fill="rgb(230,230,230)"><title>47</title></rect><text x="208" y="175" text-anchor="middle" alignment-baseline="middle" fill="black">+</text><rect x="188" y="187" width="40" height="20" fill="rgb(230,230,230)"><title>48</title></rect><text x="208" y="197" text-anchor="middle" alignment-baseline="middle" fill="black">+</text><rect x="188" y="209" width="40" height="20" fill="rgb(230,230,230)"><title>49</title></rect><text x="208" y="219" text-anchor="middle" alignment-baseline="middle" fill="black">+</text><rect x="232" y="11" width="40" height="20" fill="rgb(230,230,230)"><title>50</title></rect><text x="252" y="21" text-anchor="middle" alignment-baseline="middle" fill="black">+</text><rect x="232" y="33" width="40" height="20" fill="rgb(230,230,230)"><title>51</title></rect><text x="252" y="43" text-anchor="middle" alignment-baseline="middle" fill="black">+</text><rect x="232" y="55" width="40" height="20" fill="rgb(230,230,230)"><title>52</title></rect><text x="252" y="65" text-anchor="middle" alignment-baseline="middle" fill="black">+</text><rect x="232" y="77" width="40" height="20" fill="rgb(230,230,230)"><title>53</title></rect><text x="252" y="87" text-anchor="middle" alignment-baseline="middle" fill="black">+</text><rect x="232" y="99" width="40" height="20" fill="rgb(230,230,230)"><title>54</title></rect><text x="252" y="109" text-anchor="middle" alignment-baseline="middle" fill="black">+</text><rect x="232" y="121" width="40" height="20" fill="rgb(230,230,230)"><title>55</title></rect><text x="252" y="131" text-anchor="middle" alignment-baseline="middle" fill="black">+</text><rect x="232" y="143" width="40" height="20" fill="rgb(230,230,230)"><title>56</title></rect><text x="252" y="153" text-anchor="middle" alignment-baseline="middle" fill="black">+</text><rect x="232" y="165" width="40" height="20" fill="rgb(230,230,230)"><title>57</title></rect><text x="252" y="175" text-anchor="middle" alignment-baseline="middle" fill="black">+</text><rect x="232" y="187" width="40" height="20" fill="rgb(230,230,230)"><title>58</title></rect><text x="252" y="197" text-anchor="middle" alignment-baseline="middle" fill="black">+</text><rect x="232" y="209" width="40" height="20" fill="rgb(230,230,230)"><title>59</title></rect><text x="252" y="219" text-anchor="middle" alignment-baseline="middle" fill="black">+</text><rect x="276" y="11" width="40" height="20" fill="rgb(230,230,230)"><title>60</title></rect><text x="296" y="21" text-anchor="middle" alignment-baseline="middle" fill="black">+</text><rect x="276" y="33" width="40" height="20" fill="rgb(230,230,230)"><title>61</title></rect><text x="296" y="43" text-anchor="middle" alignment-baseline="middle" fill="black">+</text><rect x="276" y="55" width="40" height="20" fill="rgb(230,230,230)"><title>62</title></rect><text x="296" y="65" text-anchor="middle" alignment-baseline="middle" fill="black">+</text><rect x="276" y="77" width="40" height="20" fill="rgb(230,230,230)"><title>63</title></rect><text x="296" y="87" text-anchor="middle" alignment-baseline="middle" fill="black">+</text><rect x="276" y="99" width="40" height="20" fill="rgb(230,230,230)"><title>64</title></rect><text x="296" y="109" text-anchor="middle" alignment-baseline="middle" fill="black">+</text><rect x="276" y="121" width="40" height="20" fill="rgb(230,230,230)"><title>65</title></rect><text x="296" y="131" text-anchor="middle" alignment-baseline="middle" fill="black">+</text><rect x="276" y="143" width="40" height="20" fill="rgb(230,230,230)"><title>66</title></rect><text x="296" y="153" text-anchor="middle" alignment-baseline="middle" fill="black">+</text><rect x="276" y="165" width="40" height="20" fill="rgb(230,230,230)"><title>67</title></rect><text x="296" y="175" text-anchor="middle" alignment-baseline="middle" fill="black">+</text><rect x="276" y="187" width="40" height="20" fill="rgb(230,230,230)"><title>68</title></rect><text x="296" y="197" text-anchor="middle" alignment-baseline="middle" fill="black">+</text><rect x="276" y="209" width="40" height="20" fill="rgb(230,230,230)"><title>69</title></rect><text x="296" y="219" text-anchor="middle" alignment-baseline="middle" fill="black">+</text><rect x="320" y="11" width="40" height="20" fill="rgb(230,230,230)"><title>70</title></rect><text x="340" y="21" text-anchor="middle" alignment-baseline="middle" fill="black">+</text><rect x="320" y="33" width="40" height="20" fill="rgb(230,230,230)"><title>71</title></rect><text x="340" y="43" text-anchor="middle" alignment-baseline="middle" fill="black">+</text><rect x="320" y="55" width="40" height="20" fill="rgb(230,230,230)"><title>72</title></rect><text x="340" y="65" text-anchor="middle" alignment-baseline="middle" fill="black">+</text><rect x="320" y="77" width="40" height="20" fill="rgb(230,230,230)"><title>73</title></rect><text x="340" y="87" text-anchor="middle" alignment-baseline="middle" fill="black">+</text><rect x="320" y="99" width="40" height="20" fill="rgb(230,230,230)"><title>74</title></rect><text x="340" y="109" text-anchor="middle" alignment-baseline="middle" fill="black">+</text><rect x="320" y="121" width="40" height="20" fill="rgb(230,230,230)"><title>75</title></rect><text x="340" y="131" text-anchor="middle" alignment-baseline="middle" fill="black">+</text><rect x="320" y="143" width="40" height="20" fill="rgb(230,230,230)"><title>76</title></rect><text x="340" y="153" text-anchor="middle" alignment-baseline="middle" fill="black">+</text><rect x="320" y="165" width="40" height="20" fill="rgb(230,230,230)"><title>77</title></rect><text x="340" y="175" text-anchor="middle" alignment-baseline="middle" fill="black">+</text><rect x="320" y="187" width="40" height="20" fill="rgb(230,230,230)"><title>78</title></rect><text x="340" y="197" text-anchor="middle" alignment-baseline="middle" fill="black">+</text><rect x="320" y="209" width="40" height="20" fill="rgb(230,230,230)"><title>79</title></rect><text x="340" y="219" text-anchor="middle" alignment-baseline="middle" fill="black">+</text><rect x="364" y="11" width="40" height="20" fill="rgb(230,230,230)"><title>80</title></rect><text x="384" y="21" text-anchor="middle" alignment-baseline="middle" fill="black">+</text><rect x="364" y="33" width="40" height="20" fill="rgb(230,230,230)"><title>81</title></rect><text x="384" y="43" text-anchor="middle" alignment-baseline="middle" fill="black">+</text><rect x="364" y="55" width="40" height="20" fill="rgb(230,230,230)"><title>82</title></rect><text x="384" y="65" text-anchor="middle" alignment-baseline="middle" fill="black">+</text><rect x="364" y="77" width="40" height="20" fill="rgb(230,230,230)"><title>83</title></rect><text x="384" y="87" text-anchor="middle" alignment-baseline="middle" fill="black">+</text><rect x="364" y="99" width="40" height="20" fill="rgb(230,230,230)"><title>84</title></rect><text x="384" y="109" text-anchor="middle" alignment-baseline="middle" fill="black">+</text><rect x="364" y="121" width="40" height="20" fill="rgb(230,230,230)"><title>85</title></rect><text x="384" y="131" text-anchor="middle" alignment-baseline="middle" fill="black">+</text><rect x="364" y="143" width="40" height="20" fill="rgb(230,230,230)"><title>86</title></rect><text x="384" y="153" text-anchor="middle" alignment-baseline="middle" fill="black">+</text><rect x="364" y="165" width="40" height="20" fill="rgb(230,230,230)"><title>87</title></rect><text x="384" y="175" text-anchor="middle" alignment-baseline="middle" fill="black">+</text><rect x="364" y="187" width="40" height="20" fill="rgb(230,230,230)"><title>88</title></rect><text x="384" y="197" text-anchor="middle" alignment-baseline="middle" fill="black">+</text><rect x="364" y="209" width="40" height="20" fill="rgb(230,230,230)"><title>89</title></rect><text x="384" y="219" text-anchor="middle" alignment-baseline="middle" fill="black">+</text><rect x="408" y="11" width="40" height="20" fill="rgb(230,230,230)"><title>90</title></rect><text x="428" y="21" text-anchor="middle" alignment-baseline="middle" fill="black">+</text><rect x="408" y="33" width="40" height="20" fill="rgb(230,230,230)"><title>91</title></rect><text x="428" y="43" text-anchor="middle" alignment-baseline="middle" fill="black">+</text><rect x="408" y="55" width="40" height="20" fill="rgb(230,230,230)"><title>92</title></rect><text x="428" y="65" text-anchor="middle" alignment-baseline="middle" fill="black">+</text><rect x="408" y="77" width="40" height="20" fill="rgb(230,230,230)"><title>93</title></rect><text x="428" y="87" text-anchor="middle" alignment-baseline="middle" fill="black">+</text><rect x="408" y="99" width="40" height="20" fill="rgb(230,230,230)"><title>94</title></rect><text x="428" y="109" text-anchor="middle" alignment-baseline="middle" fill="black">+</text><rect x="408" y="121" width="40" height="20" fill="rgb(230,230,230)"><title>95</title></rect><text x="428" y="131" text-anchor="middle" alignment-baseline="middle" fill="black">+</text><rect x="408" y="143" width="40" height="20" fill="rgb(230,230,230)"><title>96</title></rect><text x="428" y="153" text-anchor="middle" alignment-baseline="middle" fill="black">+</text><rect x="408" y="165" width="40" height="20" fill="rgb(230,230,230)"><title>97</title></rect><text x="428" y="175" text-anchor="middle" alignment-baseline="middle" fill="black">+</text><rect x="408" y="187" width="40" height="20" fill="rgb(230,230,230)"><title>98</title></rect><text x="428" y="197" text-anchor="middle" alignment-baseline="middle" fill="black">+</text><rect x="408" y="209" width="40" height="20" fill="rgb(230,230,230)"><title>99</title></rect><text x="428" y="219" text-anchor="middle" alignment-baseline="middle" fill="black">+</text><line x1="22" y1="16" x2="130" y2="16" stroke="green" stroke-width="1" /><line x1="110" y1="16" x2="218" y2="16" stroke="green" stroke-width="1" /><line x1="198" y1="16" x2="306" y2="16" stroke="green" stroke-width="1" /><line x1="286" y1="16" x2="394" y2="16" stroke="green" stroke-width="1" /><line x1="22" y1="38" x2="130" y2="38" stroke="green" stroke-width="1" /><line x1="110" y1="38" x2="218" y2="38" stroke="green" stroke-width="1" /><line x1="198" y1="38" x2="306" y2="38" stroke="green" stroke-width="1" /><line x1="286" y1="38" x2="394" y2="38" stroke="green" stroke-width="1" /><line x1="22" y1="60" x2="130" y2="60" stroke="green" stroke-width="1" /><line x1="110" y1="60" x2="218" y2="60" stroke="green" stroke-width="1" /><line x1="198" y1="60" x2="306" y2="60" stroke="green" stroke-width="1" /><line x1="286" y1="60" x2="394" y2="60" stroke="green" stroke-width="1" /><line x1="22" y1="82" x2="130" y2="82" stroke="green" stroke-width="1" /><line x1="110" y1="82" x2="218" y2="82" stroke="green" stroke-width="1" /><line x1="198" y1="82" x2="306" y2="82" stroke="green" stroke-width="1" /><line x1="286" y1="82" x2="394" y2="82" stroke="green" stroke-width="1" /><line x1="22" y1="104" x2="130" y2="104" stroke="green" stroke-width="1" /><line x1="110" y1="104" x2="218" y2="104" stroke="green" stroke-width="1" /><line x1="198" y1="104" x2="306" y2="104" stroke="green" stroke-width="1" /><line x1="286" y1="104" x2="394" y2="104" stroke="green" stroke-width="1" /><line x1="22" y1="126" x2="130" y2="126" stroke="green" stroke-width="1" /><line x1="110" y1="126" x2="218" y2="126" stroke="green" stroke-width="1" /><line x1="198" y1="126" x2="306" y2="126" stroke="green" stroke-width="1" /><line x1="286" y1="126" x2="394" y2="126" stroke="green" stroke-width="1" /><line x1="22" y1="148" x2="130" y2="148" stroke="green" stroke-width="1" /><line x1="110" y1="148" x2="218" y2="148" stroke="green" stroke-width="1" /><line x1="198" y1="148" x2="306" y2="148" stroke="green" stroke-width="1" /><line x1="286" y1="148" x2="394" y2="148" stroke="green" stroke-width="1" /><line x1="22" y1="170" x2="130" y2="170" stroke="green" stroke-width="1" /><line x1="110" y1="170" x2="218" y2="170" stroke="green" stroke-width="1" /><line x1="198" y1="170" x2="306" y2="170" stroke="green" stroke-width="1" /><line x1="286" y1="170" x2="394" y2="170" stroke="green" stroke-width="1" /><line x1="22" y1="192" x2="130" y2="192" stroke="green" stroke-width="1" /><line x1="110" y1="192" x2="218" y2="192" stroke="green" stroke-width="1" /><line x1="198" y1="192" x2="306" y2="192" stroke="green" stroke-width="1" /><line x1="286" y1="192" x2="394" y2="192" stroke="green" stroke-width="1" /><line x1="22" y1="214" x2="130" y2="214" stroke="green" stroke-width="1" /><line x1="110" y1="214" x2="218" y2="214" stroke="green" stroke-width="1" /><line x1="198" y1="214" x2="306" y2="214" stroke="green" stroke-width="1" /><line x1="286" y1="214" x2="394" y2="214" stroke="green" stroke-width="1" /><line x1="66" y1="16" x2="174" y2="16" stroke="green" stroke-width="1" /><line x1="154" y1="16" x2="262" y2="16" stroke="green" stroke-width="1" /><line x1="242" y1="16" x2="350" y2="16" stroke="green" stroke-width="1" /><line x1="330" y1="16" x2="438" y2="16" stroke="green" stroke-width="1" /><line x1="66" y1="38" x2="174" y2="38" stroke="green" stroke-width="1" /><line x1="154" y1="38" x2="262" y2="38" stroke="green" stroke-width="1" /><line x1="242" y1="38" x2="350" y2="38" stroke="green" stroke-width="1" /><line x1="330" y1="38" x2="438" y2="38" stroke="green" stroke-width="1" /><line x1="66" y1="60" x2="174" y2="60" stroke="green" stroke-width="1" /><line x1="154" y1="60" x2="262" y2="60" stroke="green" stroke-width="1" /><line x1="242" y1="60" x2="350" y2="60" stroke="green" stroke-width="1" /><line x1="330" y1="60" x2="438" y2="60" stroke="green" stroke-width="1" /><line x1="66" y1="82" x2="174" y2="82" stroke="green" stroke-width="1" /><line x1="154" y1="82" x2="262" y2="82" stroke="green" stroke-width="1" /><line x1="242" y1="82" x2="350" y2="82" stroke="green" stroke-width="1" /><line x1="330" y1="82" x2="438" y2="82" stroke="green" stroke-width="1" /><line x1="66" y1="104" x2="174" y2="104" stroke="green" stroke-width="1" /><line x1="154" y1="104" x2="262" y2="104" stroke="green" stroke-width="1" /><line x1="242" y1="104" x2="350" y2="104" stroke="green" stroke-width="1" /><line x1="330" y1="104" x2="438" y2="104" stroke="green" stroke-width="1" /><line x1="66" y1="126" x2="174" y2="126" stroke="green" stroke-width="1" /><line x1="154" y1="126" x2="262" y2="126" stroke="green" stroke-width="1" /><line x1="242" y1="126" x2="350" y2="126" stroke="green" stroke-width="1" /><line x1="330" y1="126" x2="438" y2="126" stroke="green" stroke-width="1" /><line x1="66" y1="148" x2="174" y2="148" stroke="green" stroke-width="1" /><line x1="154" y1="148" x2="262" y2="148" stroke="green" stroke-width="1" /><line x1="242" y1="148" x2="350" y2="148" stroke="green" stroke-width="1" /><line x1="330" y1="148" x2="438" y2="148" stroke="green" stroke-width="1" /><line x1="66" y1="170" x2="174" y2="170" stroke="green" stroke-width="1" /><line x1="154" y1="170" x2="262" y2="170" stroke="green" stroke-width="1" /><line x1="242" y1="170" x2="350" y2="170" stroke="green" stroke-width="1" /><line x1="330" y1="170" x2="438" y2="170" stroke="green" stroke-width="1" /><line x1="66" y1="192" x2="174" y2="192" stroke="green" stroke-width="1" /><line x1="154" y1="192" x2="262" y2="192" stroke="green" stroke-width="1" /><line x1="242" y1="192" x2="350" y2="192" stroke="green" stroke-width="1" /><line x1="330" y1="192" x2="438" y2="192" stroke="green" stroke-width="1" /><line x1="66" y1="214" x2="174" y2="214" stroke="green" stroke-width="1" /><line x1="154" y1="214" x2="262" y2="214" stroke="green" stroke-width="1" /><line x1="242" y1="214" x2="350" y2="214" stroke="green" stroke-width="1" /><line x1="330" y1="214" x2="438" y2="214" stroke="green" stroke-width="1" /><line x1="22" y1="26" x2="42" y2="48" stroke="red" stroke-width="1" /><line x1="22" y1="70" x2="42" y2="92" stroke="red" stroke-width="1" /><line x1="22" y1="114" x2="42" y2="136" stroke="red" stroke-width="1" /><line x1="22" y1="158" x2="42" y2="180" stroke="red" stroke-width="1" /><line x1="22" y1="202" x2="42" y2="224" stroke="red" stroke-width="1" /><line x1="66" y1="26" x2="86" y2="48" stroke="red" stroke-width="1" /><line x1="66" y1="70" x2="86" y2="92" stroke="red" stroke-width="1" /><line x1="66" y1="114" x2="86" y2="136" stroke="red" stroke-width="1" /><line x1="66" y1="158" x2="86" y2="180" stroke="red" stroke-width="1" /><line x1="66" y1="202" x2="86" y2="224" stroke="red" stroke-width="1" /><line x1="110" y1="26" x2="130" y2="48" stroke="red" stroke-width="1" /><line x1="110" y1="70" x2="130" y2="92" stroke="red" stroke-width="1" /><line x1="110" y1="114" x2="130" y2="136" stroke="red" stroke-width="1" /><line x1="110" y1="158" x2="130" y2="180" stroke="red" stroke-width="1" /><line x1="110" y1="202" x2="130" y2="224" stroke="red" stroke-width="1" /><line x1="154" y1="26" x2="174" y2="48" stroke="red" stroke-width="1" /><line x1="154" y1="70" x2="174" y2="92" stroke="red" stroke-width="1" /><line x1="154" y1="114" x2="174" y2="136" stroke="red" stroke-width="1" /><line x1="154" y1="158" x2="174" y2="180" stroke="red" stroke-width="1" /><line x1="154" y1="202" x2="174" y2="224" stroke="red" stroke-width="1" /><line x1="198" y1="26" x2="218" y2="48" stroke="red" stroke-width="1" /><line x1="198" y1="70" x2="218" y2="92" stroke="red" stroke-width="1" /><line x1="198" y1="114" x2="218" y2="136" stroke="red" stroke-width="1" /><line x1="198" y1="158" x2="218" y2="180" stroke="red" stroke-width="1" /><line x1="198" y1="202" x2="218" y2="224" stroke="red" stroke-width="1" /><line x1="242" y1="26" x2="262" y2="48" stroke="red" stroke-width="1" /><line x1="242" y1="70" x2="262" y2="92" stroke="red" stroke-width="1" /><line x1="242" y1="114" x2="262" y2="136" stroke="red" stroke-width="1" /><line x1="242" y1="158" x2="262" y2="180" stroke="red" stroke-width="1" /><line x1="242" y1="202" x2="262" y2="224" stroke="red" stroke-width="1" /><line x1="286" y1="26" x2="306" y2="48" stroke="red" stroke-width="1" /><line x1="286" y1="70" x2="306" y2="92" stroke="red" stroke-width="1" /><line x1="286" y1="114" x2="306" y2="136" stroke="red" stroke-width="1" /><line x1="286" y1="158" x2="306" y2="180" stroke="red" stroke-width="1" /><line x1="286" y1="202" x2="306" y2="224" stroke="red" stroke-width="1" /><line x1="330" y1="26" x2="350" y2="48" stroke="red" stroke-width="1" /><line x1="330" y1="70" x2="350" y2="92" stroke="red" stroke-width="1" /><line x1="330" y1="114" x2="350" y2="136" stroke="red" stroke-width="1" /><line x1="330" y1="158" x2="350" y2="180" stroke="red" stroke-width="1" /><line x1="330" y1="202" x2="350" y2="224" stroke="red" stroke-width="1" /><line x1="374" y1="26" x2="394" y2="48" stroke="red" stroke-width="1" /><line x1="374" y1="70" x2="394" y2="92" stroke="red" stroke-width="1" /><line x1="374" y1="114" x2="394" y2="136" stroke="red" stroke-width="1" /><line x1="374" y1="158" x2="394" y2="180" stroke="red" stroke-width="1" /><line x1="374" y1="202" x2="394" y2="224" stroke="red" stroke-width="1" /><line x1="418" y1="26" x2="438" y2="48" stroke="red" stroke-width="1" /><line x1="418" y1="70" x2="438" y2="92" stroke="red" stroke-width="1" /><line x1="418" y1="114" x2="438" y2="136" stroke="red" stroke-width="1" /><line x1="418" y1="158" x2="438" y2="180" stroke="red" stroke-width="1" /><line x1="418" y1="202" x2="438" y2="224" stroke="red" stroke-width="1" /><line x1="22" y1="92" x2="42" y2="158" stroke="red" stroke-width="1" /><line x1="66" y1="26" x2="86" y2="92" stroke="red" stroke-width="1" /><line x1="66" y1="180" x2="130" y2="26" stroke="red" stroke-width="1" /><line x1="110" y1="114" x2="130" y2="180" stroke="red" stroke-width="1" /><line x1="154" y1="48" x2="174" y2="114" stroke="red" stroke-width="1" /><line x1="154" y1="202" x2="218" y2="48" stroke="red" stroke-width="1" /><line x1="198" y1="136" x2="218" y2="202" stroke="red" stroke-width="1" /><line x1="242" y1="70" x2="262" y2="136" stroke="red" stroke-width="1" /><line x1="242" y1="224" x2="306" y2="70" stroke="red" stroke-width="1" /><line x1="286" y1="158" x2="306" y2="224" stroke="red" stroke-width="1" /><line x1="330" y1="92" x2="350" y2="158" stroke="red" stroke-width="1" /><line x1="374" y1="26" x2="394" y2="92" stroke="red" stroke-width="1" /><line x1="374" y1="180" x2="438" y2="26" stroke="red" stroke-width="1" /><line x1="418" y1="114" x2="438" y2="180" stroke="red" stroke-width="1" /><line x1="22" y1="92" x2="86" y2="26" stroke="red" stroke-width="1" /><line x1="66" y1="114" x2="130" y2="48" stroke="red" stroke-width="1" /><line x1="110" y1="136" x2="174" y2="70" stroke="red" stroke-width="1" /><line x1="154" y1="158" x2="218" y2="92" stroke="red" stroke-width="1" /><line x1="198" y1="180" x2="262" y2="114" stroke="red" stroke-width="1" /><line x1="242" y1="202" x2="306" y2="136" stroke="red" stroke-width="1" /><line x1="286" y1="224" x2="350" y2="158" stroke="red" stroke-width="1" /><line x1="374" y1="26" x2="394" y2="180" stroke="red" stroke-width="1" /><line x1="418" y1="48" x2="438" y2="202" stroke="red" stroke-width="1" /></svg>