<svg xmlns="http://www.w3.org/2000/svg" width="360" height="315"><rect x="0" y="0" width="360" height="315" fill="rgb(255,255,255)"></rect><rect x="0" y="0" width="340" height="280" fill="rgba(255,255,255,1)"></rect><rect x="77" y="165" width="20" height="20" fill="rgba(230,100,100,1)"><title>signal_S_op_select</title></rect><text x="87" y="175" text-anchor="middle" alignment-baseline="middle" fill="black">C</text><rect x="187" y="143" width="20" height="20" fill="rgba(230,100,100,1)"><title>signal_A</title></rect><text x="197" y="153" text-anchor="middle" alignment-baseline="middle" fill="black">C</text><rect x="319" y="231" width="20" height="20" fill="rgba(100,100,230,1)"><title>signal_Y</title></rect><text x="329" y="241" text-anchor="middle" alignment-baseline="middle" fill="black">L</text><rect x="187" y="165" width="20" height="20" fill="rgba(230,100,100,1)"><title>signal_B</title></rect><text x="197" y="175" text-anchor="middle" alignment-baseline="middle" fill="black">C</text><rect x="78" y="55" width="40" height="20" fill="rgba(230,230,230,1)"><title>$procmux$32_CMP0:A
$procmux$32_CMP0:B
$procmux$32_CMP0:Y</title></rect><text x="98" y="65" text-anchor="middle" alignment-baseline="middle" fill="black">=</text><rect x="78" y="99" width="40" height="20" fill="rgba(230,230,230,1)"><title>$procmux$26_CMP0:A
$procmux$26_CMP0:B
$procmux$26_CMP0:Y</title></rect><text x="98" y="109" text-anchor="middle" alignment-baseline="middle" fill="black">=</text><rect x="210" y="121" width="40" height="20" fill="rgba(230,230,230,1)"><title>$eq$alu.v:52$14:A
$eq$alu.v:52$14:B
$eq$alu.v:52$14:Y</title></rect><text x="230" y="131" text-anchor="middle" alignment-baseline="middle" fill="black">=</text><rect x="254" y="187" width="40" height="20" fill="rgba(230,230,230,1)"><title>$auto$opt_share.cc:199:merge_operators$40:A
$auto$opt_share.cc:199:merge_operators$40:Y</title></rect><text x="274" y="197" text-anchor="middle" alignment-baseline="middle" fill="black">-</text><rect x="166" y="253" width="40" height="20" fill="rgba(230,230,230,1)"><title>$procmux$21_CMP0:A
$procmux$21_CMP0:B
$procmux$21_CMP0:Y</title></rect><text x="186" y="263" text-anchor="middle" alignment-baseline="middle" fill="black">=</text><rect x="78" y="275" width="40" height="20" fill="rgba(230,230,230,1)"><title>$procmux$30_CMP0:A
$procmux$30_CMP0:B
$procmux$30_CMP0:Y</title></rect><text x="98" y="285" text-anchor="middle" alignment-baseline="middle" fill="black">=</text><rect x="34" y="143" width="40" height="20" fill="rgba(230,230,230,1)"><title>$procmux$23_CMP0:A
$procmux$23_CMP0:B
$procmux$23_CMP0:Y</title></rect><text x="54" y="153" text-anchor="middle" alignment-baseline="middle" fill="black">=</text><rect x="78" y="187" width="40" height="20" fill="rgba(230,230,230,1)"><title>$procmux$24_CMP0:A
$procmux$24_CMP0:B
$procmux$24_CMP0:Y</title></rect><text x="98" y="197" text-anchor="middle" alignment-baseline="middle" fill="black">=</text><rect x="254" y="231" width="40" height="20" fill="rgba(230,230,230,1)"><title>$auto$opt_share.cc:246:merge_operators$43:B0
$auto$opt_share.cc:246:merge_operators$43:B1
$auto$opt_share.cc:246:merge_operators$43:S0</title></rect><text x="274" y="241" text-anchor="middle" alignment-baseline="middle" fill="black">≠</text><rect x="166" y="275" width="40" height="20" fill="rgba(230,230,230,1)"><title>$auto$opt_share.cc:246:merge_operators$43:S1
$auto$opt_share.cc:246:merge_operators$43:A</title></rect><text x="186" y="285" text-anchor="middle" alignment-baseline="middle" fill="black">≠</text><rect x="254" y="253" width="40" height="20" fill="rgba(230,230,230,1)"></rect><text x="274" y="263" text-anchor="middle" alignment-baseline="middle" fill="black">=</text><rect x="298" y="187" width="40" height="20" fill="rgba(230,230,230,1)"><title>$auto$opt_share.cc:246:merge_operators$43:Y</title></rect><text x="318" y="197" text-anchor="middle" alignment-baseline="middle" fill="black">+</text><rect x="78" y="77" width="40" height="20" fill="rgba(230,230,230,1)"><title>$procmux$31_CMP0:A
$procmux$31_CMP0:B
$procmux$31_CMP0:Y</title></rect><text x="98" y="87" text-anchor="middle" alignment-baseline="middle" fill="black">=</text><rect x="254" y="165" width="40" height="20" fill="rgba(230,230,230,1)"><title>$mod$alu.v:28$6:A
$mod$alu.v:28$6:B
$mod$alu.v:28$6:Y</title></rect><text x="274" y="175" text-anchor="middle" alignment-baseline="middle" fill="black">%</text><rect x="122" y="77" width="40" height="20" fill="rgba(230,230,230,1)"><title>$auto$opt_reduce.cc:131:opt_pmux$37:A1
$auto$opt_reduce.cc:131:opt_pmux$37:A0
$auto$opt_reduce.cc:131:opt_pmux$37:Y</title></rect><text x="142" y="87" text-anchor="middle" alignment-baseline="middle" fill="black">≠</text><rect x="210" y="253" width="40" height="20" fill="rgba(230,230,230,1)"><title>$mul$alu.v:22$4:A
$mul$alu.v:22$4:B
$mul$alu.v:22$4:Y</title></rect><text x="230" y="263" text-anchor="middle" alignment-baseline="middle" fill="black">*</text><rect x="122" y="121" width="40" height="20" fill="rgba(230,230,230,1)"><title>$div$alu.v:25$5:A
$div$alu.v:25$5:B
$div$alu.v:25$5:Y</title></rect><text x="142" y="131" text-anchor="middle" alignment-baseline="middle" fill="black">/</text><rect x="210" y="143" width="40" height="20" fill="rgba(230,230,230,1)"><title>$procmux$29_CMP0:A
$procmux$29_CMP0:B
$procmux$29_CMP0:Y</title></rect><text x="230" y="153" text-anchor="middle" alignment-baseline="middle" fill="black">=</text><rect x="34" y="77" width="40" height="20" fill="rgba(230,230,230,1)"><title>$procmux$33_CMP0:A
$procmux$33_CMP0:B
$procmux$33_CMP0:Y</title></rect><text x="54" y="87" text-anchor="middle" alignment-baseline="middle" fill="black">=</text><rect x="298" y="165" width="40" height="20" fill="rgba(230,230,230,1)"><title>$procmux$20:B10
$procmux$20:S13</title></rect><text x="318" y="175" text-anchor="middle" alignment-baseline="middle" fill="black">≠</text><rect x="298" y="143" width="40" height="20" fill="rgba(230,230,230,1)"><title>$procmux$20:S8
$procmux$20:B14</title></rect><text x="318" y="153" text-anchor="middle" alignment-baseline="middle" fill="black">≠</text><rect x="254" y="121" width="40" height="20" fill="rgba(230,230,230,1)"><title>$procmux$20:B13
$procmux$20:B3</title></rect><text x="274" y="131" text-anchor="middle" alignment-baseline="middle" fill="black">≠</text><rect x="210" y="99" width="40" height="20" fill="rgba(230,230,230,1)"><title>$procmux$20:B8
$procmux$20:S4</title></rect><text x="230" y="109" text-anchor="middle" alignment-baseline="middle" fill="black">≠</text><rect x="166" y="231" width="40" height="20" fill="rgba(230,230,230,1)"><title>$procmux$20:B7
$procmux$20:S14</title></rect><text x="186" y="241" text-anchor="middle" alignment-baseline="middle" fill="black">≠</text><rect x="210" y="275" width="40" height="20" fill="rgba(230,230,230,1)"><title>$procmux$20:S0
$procmux$20:B12</title></rect><text x="230" y="285" text-anchor="middle" alignment-baseline="middle" fill="black">≠</text><rect x="210" y="165" width="40" height="20" fill="rgba(230,230,230,1)"><title>$procmux$20:S10
$procmux$20:B9</title></rect><text x="230" y="175" text-anchor="middle" alignment-baseline="middle" fill="black">≠</text><rect x="166" y="187" width="40" height="20" fill="rgba(230,230,230,1)"><title>$procmux$20:B0
$procmux$20:B4</title></rect><text x="186" y="197" text-anchor="middle" alignment-baseline="middle" fill="black">≠</text><rect x="122" y="187" width="40" height="20" fill="rgba(230,230,230,1)"><title>$procmux$20:S7
$procmux$20:S3</title></rect><text x="142" y="197" text-anchor="middle" alignment-baseline="middle" fill="black">≠</text><rect x="78" y="121" width="40" height="20" fill="rgba(230,230,230,1)"><title>$procmux$20:B11
$procmux$20:S11</title></rect><text x="98" y="131" text-anchor="middle" alignment-baseline="middle" fill="black">≠</text><rect x="122" y="231" width="40" height="20" fill="rgba(230,230,230,1)"><title>$procmux$20:S9
$procmux$20:B1</title></rect><text x="142" y="241" text-anchor="middle" alignment-baseline="middle" fill="black">≠</text><rect x="100" y="143" width="40" height="20" fill="rgba(230,230,230,1)"><title>$procmux$20:B5
$procmux$20:S6</title></rect><text x="120" y="153" text-anchor="middle" alignment-baseline="middle" fill="black">≠</text><rect x="34" y="99" width="40" height="20" fill="rgba(230,230,230,1)"><title>$procmux$20:S2
$procmux$20:S12</title></rect><text x="54" y="109" text-anchor="middle" alignment-baseline="middle" fill="black">≠</text><rect x="34" y="55" width="40" height="20" fill="rgba(230,230,230,1)"><title>$procmux$20:B6
$procmux$20:S5</title></rect><text x="54" y="65" text-anchor="middle" alignment-baseline="middle" fill="black">≠</text><rect x="100" y="33" width="40" height="20" fill="rgba(230,230,230,1)"><title>$procmux$20:S1
$procmux$20:B2</title></rect><text x="120" y="43" text-anchor="middle" alignment-baseline="middle" fill="black">≠</text><rect x="298" y="209" width="40" height="20" fill="rgba(230,230,230,1)"><title>$procmux$20:Y</title></rect><text x="318" y="219" text-anchor="middle" alignment-baseline="middle" fill="black">+</text><rect x="166" y="99" width="40" height="20" fill="rgba(230,230,230,1)"><title>$pow$alu.v:34$8:A
$pow$alu.v:34$8:B
$pow$alu.v:34$8:Y</title></rect><text x="186" y="109" text-anchor="middle" alignment-baseline="middle" fill="black">^</text><rect x="122" y="253" width="40" height="20" fill="rgba(230,230,230,1)"><title>$shr$alu.v:58$16:A
$shr$alu.v:58$16:B
$shr$alu.v:58$16:Y</title></rect><text x="142" y="263" text-anchor="middle" alignment-baseline="middle" fill="black">&gt;&gt;</text><rect x="122" y="99" width="40" height="20" fill="rgba(230,230,230,1)"><title>$and$alu.v:43$11:A
$and$alu.v:43$11:B
$and$alu.v:43$11:Y</title></rect><text x="142" y="109" text-anchor="middle" alignment-baseline="middle" fill="black">AND</text><rect x="166" y="209" width="40" height="20" fill="rgba(230,230,230,1)"><title>$gt$alu.v:49$13:A
$gt$alu.v:49$13:B
$gt$alu.v:49$13:Y</title></rect><text x="186" y="219" text-anchor="middle" alignment-baseline="middle" fill="black">&gt;</text><rect x="188" y="55" width="40" height="20" fill="rgba(230,230,230,1)"><title>$procmux$25_CMP0:A
$procmux$25_CMP0:B
$procmux$25_CMP0:Y</title></rect><text x="208" y="65" text-anchor="middle" alignment-baseline="middle" fill="black">=</text><rect x="210" y="77" width="40" height="20" fill="rgba(230,230,230,1)"><title>$neg$alu.v:37$9:A
$neg$alu.v:37$9:Y</title></rect><text x="230" y="87" text-anchor="middle" alignment-baseline="middle" fill="black">-</text><rect x="78" y="253" width="40" height="20" fill="rgba(230,230,230,1)"><title>$auto$flowmap.cc:1414:pack_cells$116:A1
$auto$flowmap.cc:1414:pack_cells$116:A0
$auto$flowmap.cc:1414:pack_cells$116:Y
$auto$flowmap.cc:1414:pack_cells$116:A3
$auto$flowmap.cc:1414:pack_cells$116:A2</title></rect><text x="98" y="263" text-anchor="middle" alignment-baseline="middle" fill="black">=</text><rect x="254" y="143" width="40" height="20" fill="rgba(230,230,230,1)"><title>$sub$alu.v:19$3:A
$sub$alu.v:19$3:B
$sub$alu.v:19$3:Y</title></rect><text x="274" y="153" text-anchor="middle" alignment-baseline="middle" fill="black">-</text><rect x="144" y="55" width="40" height="20" fill="rgba(230,230,230,1)"><title>$procmux$22_CMP0:A
$procmux$22_CMP0:B
$procmux$22_CMP0:Y</title></rect><text x="164" y="65" text-anchor="middle" alignment-baseline="middle" fill="black">=</text><rect x="34" y="121" width="40" height="20" fill="rgba(230,230,230,1)"><title>$procmux$34_CMP0:A
$procmux$34_CMP0:B
$procmux$34_CMP0:Y</title></rect><text x="54" y="131" text-anchor="middle" alignment-baseline="middle" fill="black">=</text><rect x="166" y="121" width="40" height="20" fill="rgba(230,230,230,1)"><title>$xor$alu.v:46$12:A
$xor$alu.v:46$12:B
$xor$alu.v:46$12:Y</title></rect><text x="186" y="131" text-anchor="middle" alignment-baseline="middle" fill="black">XOR</text><rect x="166" y="77" width="40" height="20" fill="rgba(230,230,230,1)"><title>$shl$alu.v:55$15:A
$shl$alu.v:55$15:B
$shl$alu.v:55$15:Y</title></rect><text x="186" y="87" text-anchor="middle" alignment-baseline="middle" fill="black">&lt;&lt;</text><rect x="254" y="209" width="40" height="20" fill="rgba(230,230,230,1)"><title>$procmux$35_CMP0:A
$procmux$35_CMP0:B
$procmux$35_CMP0:Y</title></rect><text x="274" y="219" text-anchor="middle" alignment-baseline="middle" fill="black">=</text><rect x="122" y="209" width="40" height="20" fill="rgba(230,230,230,1)"><title>$or$alu.v:40$10:A
$or$alu.v:40$10:B
$or$alu.v:40$10:Y</title></rect><text x="142" y="219" text-anchor="middle" alignment-baseline="middle" fill="black">OR</text><rect x="144" y="143" width="40" height="20" fill="rgba(230,230,230,1)"><title>$procmux$27_CMP0:A
$procmux$27_CMP0:B
$procmux$27_CMP0:Y</title></rect><text x="164" y="153" text-anchor="middle" alignment-baseline="middle" fill="black">=</text><rect x="78" y="209" width="40" height="20" fill="rgba(230,230,230,1)"><title>$procmux$28_CMP0:A
$procmux$28_CMP0:B
$procmux$28_CMP0:Y</title></rect><text x="98" y="219" text-anchor="middle" alignment-baseline="middle" fill="black">=</text><rect x="121" y="275" width="20" height="20" fill="rgba(230,230,230,1)"><title>$constant:Y</title></rect><text x="131" y="285" text-anchor="middle" alignment-baseline="middle" fill="black">C</text><rect x="34" y="253" width="40" height="20" fill="rgba(230,230,230,1)"><title>$swizzle:A</title></rect><text x="54" y="263" text-anchor="middle" alignment-baseline="middle" fill="black">AND</text><rect x="34" y="231" width="40" height="20" fill="rgba(230,230,230,1)"><title>$swizzle:Y</title></rect><text x="54" y="241" text-anchor="middle" alignment-baseline="middle" fill="black">&gt;&gt;</text><rect x="34" y="187" width="40" height="20" fill="rgba(230,230,230,1)"><title>$swizzle:A</title></rect><text x="54" y="197" text-anchor="middle" alignment-baseline="middle" fill="black">AND</text><rect x="78" y="231" width="40" height="20" fill="rgba(230,230,230,1)"><title>$swizzle:Y</title></rect><text x="98" y="241" text-anchor="middle" alignment-baseline="middle" fill="black">&gt;&gt;</text><rect x="34" y="165" width="40" height="20" fill="rgba(230,230,230,1)"><title>$swizzle:A</title></rect><text x="54" y="175" text-anchor="middle" alignment-baseline="middle" fill="black">AND</text><rect x="34" y="209" width="40" height="20" fill="rgba(230,230,230,1)"><title>$swizzle:Y</title></rect><text x="54" y="219" text-anchor="middle" alignment-baseline="middle" fill="black">&gt;&gt;</text><rect x="209" y="209" width="40" height="40" fill="rgba(101,101,101,1)"></rect><text x="229" y="229" text-anchor="middle" alignment-baseline="middle" fill="black">SS</text><line x1="284" y1="192" x2="264" y2="236" stroke="red" stroke-width="1" /><line x1="284" y1="214" x2="264" y2="236" stroke="red" stroke-width="1" /><line x1="126" y1="280" x2="176" y2="280" stroke="red" stroke-width="1" /><line x1="108" y1="258" x2="176" y2="280" stroke="red" stroke-width="1" /><line x1="284" y1="236" x2="196" y2="280" stroke="red" stroke-width="1" /><line x1="196" y1="280" x2="284" y2="236" stroke="red" stroke-width="1" /><line x1="264" y1="236" x2="176" y2="280" stroke="red" stroke-width="1" /><line x1="176" y1="280" x2="264" y2="236" stroke="red" stroke-width="1" /><line x1="284" y1="236" x2="284" y2="258" stroke="red" stroke-width="1" /><line x1="284" y1="258" x2="284" y2="236" stroke="red" stroke-width="1" /><line x1="192" y1="170" x2="264" y2="236" stroke="red" stroke-width="1" /><line x1="192" y1="170" x2="264" y2="258" stroke="red" stroke-width="1" /><line x1="284" y1="236" x2="308" y2="192" stroke="red" stroke-width="1" /><line x1="108" y1="60" x2="132" y2="82" stroke="red" stroke-width="1" /><line x1="108" y1="82" x2="132" y2="82" stroke="red" stroke-width="1" /><line x1="284" y1="214" x2="308" y2="170" stroke="red" stroke-width="1" /><line x1="284" y1="170" x2="308" y2="170" stroke="red" stroke-width="1" /><line x1="240" y1="148" x2="308" y2="148" stroke="red" stroke-width="1" /><line x1="284" y1="148" x2="308" y2="148" stroke="red" stroke-width="1" /><line x1="328" y1="170" x2="328" y2="148" stroke="red" stroke-width="1" /><line x1="328" y1="148" x2="328" y2="170" stroke="red" stroke-width="1" /><line x1="308" y1="170" x2="308" y2="148" stroke="red" stroke-width="1" /><line x1="308" y1="148" x2="308" y2="170" stroke="red" stroke-width="1" /><line x1="284" y1="148" x2="264" y2="126" stroke="red" stroke-width="1" /><line x1="240" y1="126" x2="264" y2="126" stroke="red" stroke-width="1" /><line x1="328" y1="148" x2="284" y2="126" stroke="red" stroke-width="1" /><line x1="284" y1="126" x2="328" y2="148" stroke="red" stroke-width="1" /><line x1="308" y1="148" x2="264" y2="126" stroke="red" stroke-width="1" /><line x1="264" y1="126" x2="308" y2="148" stroke="red" stroke-width="1" /><line x1="240" y1="82" x2="220" y2="104" stroke="red" stroke-width="1" /><line x1="218" y1="60" x2="220" y2="104" stroke="red" stroke-width="1" /><line x1="240" y1="104" x2="284" y2="126" stroke="red" stroke-width="1" /><line x1="284" y1="126" x2="240" y2="104" stroke="red" stroke-width="1" /><line x1="220" y1="104" x2="264" y2="126" stroke="red" stroke-width="1" /><line x1="264" y1="126" x2="220" y2="104" stroke="red" stroke-width="1" /><line x1="108" y1="258" x2="176" y2="236" stroke="red" stroke-width="1" /><line x1="152" y1="214" x2="176" y2="236" stroke="red" stroke-width="1" /><line x1="240" y1="104" x2="196" y2="236" stroke="red" stroke-width="1" /><line x1="196" y1="236" x2="240" y2="104" stroke="red" stroke-width="1" /><line x1="220" y1="104" x2="176" y2="236" stroke="red" stroke-width="1" /><line x1="176" y1="236" x2="220" y2="104" stroke="red" stroke-width="1" /><line x1="196" y1="258" x2="220" y2="280" stroke="red" stroke-width="1" /><line x1="240" y1="258" x2="220" y2="280" stroke="red" stroke-width="1" /><line x1="240" y1="280" x2="196" y2="236" stroke="red" stroke-width="1" /><line x1="196" y1="236" x2="240" y2="280" stroke="red" stroke-width="1" /><line x1="176" y1="236" x2="220" y2="280" stroke="red" stroke-width="1" /><line x1="220" y1="280" x2="176" y2="236" stroke="red" stroke-width="1" /><line x1="152" y1="82" x2="220" y2="170" stroke="red" stroke-width="1" /><line x1="196" y1="104" x2="220" y2="170" stroke="red" stroke-width="1" /><line x1="240" y1="170" x2="240" y2="280" stroke="red" stroke-width="1" /><line x1="240" y1="280" x2="240" y2="170" stroke="red" stroke-width="1" /><line x1="220" y1="280" x2="220" y2="170" stroke="red" stroke-width="1" /><line x1="220" y1="170" x2="220" y2="280" stroke="red" stroke-width="1" /><line x1="192" y1="148" x2="176" y2="192" stroke="red" stroke-width="1" /><line x1="196" y1="214" x2="176" y2="192" stroke="red" stroke-width="1" /><line x1="240" y1="170" x2="196" y2="192" stroke="red" stroke-width="1" /><line x1="196" y1="192" x2="240" y2="170" stroke="red" stroke-width="1" /><line x1="176" y1="192" x2="220" y2="170" stroke="red" stroke-width="1" /><line x1="220" y1="170" x2="176" y2="192" stroke="red" stroke-width="1" /><line x1="108" y1="214" x2="132" y2="192" stroke="red" stroke-width="1" /><line x1="108" y1="192" x2="132" y2="192" stroke="red" stroke-width="1" /><line x1="196" y1="192" x2="152" y2="192" stroke="red" stroke-width="1" /><line x1="152" y1="192" x2="196" y2="192" stroke="red" stroke-width="1" /><line x1="176" y1="192" x2="132" y2="192" stroke="red" stroke-width="1" /><line x1="132" y1="192" x2="176" y2="192" stroke="red" stroke-width="1" /><line x1="64" y1="82" x2="88" y2="126" stroke="red" stroke-width="1" /><line x1="152" y1="126" x2="88" y2="126" stroke="red" stroke-width="1" /><line x1="152" y1="192" x2="108" y2="126" stroke="red" stroke-width="1" /><line x1="108" y1="126" x2="152" y2="192" stroke="red" stroke-width="1" /><line x1="132" y1="192" x2="88" y2="126" stroke="red" stroke-width="1" /><line x1="88" y1="126" x2="132" y2="192" stroke="red" stroke-width="1" /><line x1="108" y1="280" x2="132" y2="236" stroke="red" stroke-width="1" /><line x1="152" y1="258" x2="132" y2="236" stroke="red" stroke-width="1" /><line x1="108" y1="126" x2="152" y2="236" stroke="red" stroke-width="1" /><line x1="152" y1="236" x2="108" y2="126" stroke="red" stroke-width="1" /><line x1="132" y1="236" x2="88" y2="126" stroke="red" stroke-width="1" /><line x1="88" y1="126" x2="132" y2="236" stroke="red" stroke-width="1" /><line x1="174" y1="148" x2="110" y2="148" stroke="red" stroke-width="1" /><line x1="196" y1="126" x2="110" y2="148" stroke="red" stroke-width="1" /><line x1="152" y1="236" x2="130" y2="148" stroke="red" stroke-width="1" /><line x1="130" y1="148" x2="152" y2="236" stroke="red" stroke-width="1" /><line x1="132" y1="236" x2="110" y2="148" stroke="red" stroke-width="1" /><line x1="110" y1="148" x2="132" y2="236" stroke="red" stroke-width="1" /><line x1="64" y1="148" x2="44" y2="104" stroke="red" stroke-width="1" /><line x1="64" y1="126" x2="44" y2="104" stroke="red" stroke-width="1" /><line x1="130" y1="148" x2="64" y2="104" stroke="red" stroke-width="1" /><line x1="64" y1="104" x2="130" y2="148" stroke="red" stroke-width="1" /><line x1="110" y1="148" x2="44" y2="104" stroke="red" stroke-width="1" /><line x1="44" y1="104" x2="110" y2="148" stroke="red" stroke-width="1" /><line x1="108" y1="104" x2="44" y2="60" stroke="red" stroke-width="1" /><line x1="152" y1="104" x2="44" y2="60" stroke="red" stroke-width="1" /><line x1="64" y1="104" x2="64" y2="60" stroke="red" stroke-width="1" /><line x1="64" y1="60" x2="64" y2="104" stroke="red" stroke-width="1" /><line x1="44" y1="60" x2="44" y2="104" stroke="red" stroke-width="1" /><line x1="44" y1="104" x2="44" y2="60" stroke="red" stroke-width="1" /><line x1="174" y1="60" x2="110" y2="38" stroke="red" stroke-width="1" /><line x1="196" y1="82" x2="110" y2="38" stroke="red" stroke-width="1" /><line x1="64" y1="60" x2="130" y2="38" stroke="red" stroke-width="1" /><line x1="130" y1="38" x2="64" y2="60" stroke="red" stroke-width="1" /><line x1="110" y1="38" x2="44" y2="60" stroke="red" stroke-width="1" /><line x1="44" y1="60" x2="110" y2="38" stroke="red" stroke-width="1" /><line x1="328" y1="170" x2="308" y2="214" stroke="red" stroke-width="1" /><line x1="82" y1="170" x2="88" y2="258" stroke="red" stroke-width="1" /><line x1="108" y1="236" x2="88" y2="258" stroke="red" stroke-width="1" /><line x1="64" y1="236" x2="88" y2="258" stroke="red" stroke-width="1" /><line x1="64" y1="214" x2="88" y2="258" stroke="red" stroke-width="1" /><line x1="328" y1="214" x2="324" y2="236" stroke="red" stroke-width="1" /><line x1="82" y1="170" x2="88" y2="60" stroke="red" stroke-width="1" /><line x1="82" y1="170" x2="88" y2="104" stroke="red" stroke-width="1" /><line x1="192" y1="148" x2="220" y2="126" stroke="red" stroke-width="1" /><line x1="192" y1="170" x2="220" y2="126" stroke="red" stroke-width="1" /><line x1="192" y1="170" x2="264" y2="192" stroke="red" stroke-width="1" /><line x1="82" y1="170" x2="176" y2="258" stroke="red" stroke-width="1" /><line x1="82" y1="170" x2="88" y2="280" stroke="red" stroke-width="1" /><line x1="82" y1="170" x2="44" y2="148" stroke="red" stroke-width="1" /><line x1="82" y1="170" x2="88" y2="192" stroke="red" stroke-width="1" /><line x1="82" y1="170" x2="88" y2="82" stroke="red" stroke-width="1" /><line x1="192" y1="148" x2="264" y2="170" stroke="red" stroke-width="1" /><line x1="192" y1="170" x2="264" y2="170" stroke="red" stroke-width="1" /><line x1="192" y1="148" x2="220" y2="258" stroke="red" stroke-width="1" /><line x1="192" y1="170" x2="220" y2="258" stroke="red" stroke-width="1" /><line x1="192" y1="148" x2="132" y2="126" stroke="red" stroke-width="1" /><line x1="192" y1="170" x2="132" y2="126" stroke="red" stroke-width="1" /><line x1="82" y1="170" x2="220" y2="148" stroke="red" stroke-width="1" /><line x1="82" y1="170" x2="44" y2="82" stroke="red" stroke-width="1" /><line x1="192" y1="148" x2="176" y2="104" stroke="red" stroke-width="1" /><line x1="192" y1="170" x2="176" y2="104" stroke="red" stroke-width="1" /><line x1="192" y1="148" x2="132" y2="258" stroke="red" stroke-width="1" /><line x1="192" y1="170" x2="132" y2="258" stroke="red" stroke-width="1" /><line x1="192" y1="148" x2="132" y2="104" stroke="red" stroke-width="1" /><line x1="192" y1="170" x2="132" y2="104" stroke="red" stroke-width="1" /><line x1="192" y1="148" x2="176" y2="214" stroke="red" stroke-width="1" /><line x1="192" y1="170" x2="176" y2="214" stroke="red" stroke-width="1" /><line x1="82" y1="170" x2="198" y2="60" stroke="red" stroke-width="1" /><line x1="192" y1="148" x2="220" y2="82" stroke="red" stroke-width="1" /><line x1="192" y1="148" x2="264" y2="148" stroke="red" stroke-width="1" /><line x1="328" y1="192" x2="264" y2="148" stroke="red" stroke-width="1" /><line x1="82" y1="170" x2="154" y2="60" stroke="red" stroke-width="1" /><line x1="82" y1="170" x2="44" y2="126" stroke="red" stroke-width="1" /><line x1="192" y1="148" x2="176" y2="126" stroke="red" stroke-width="1" /><line x1="192" y1="170" x2="176" y2="126" stroke="red" stroke-width="1" /><line x1="192" y1="148" x2="176" y2="82" stroke="red" stroke-width="1" /><line x1="192" y1="170" x2="176" y2="82" stroke="red" stroke-width="1" /><line x1="82" y1="170" x2="264" y2="214" stroke="red" stroke-width="1" /><line x1="192" y1="148" x2="132" y2="214" stroke="red" stroke-width="1" /><line x1="192" y1="170" x2="132" y2="214" stroke="red" stroke-width="1" /><line x1="82" y1="170" x2="154" y2="148" stroke="red" stroke-width="1" /><line x1="82" y1="170" x2="88" y2="214" stroke="red" stroke-width="1" /><line x1="82" y1="170" x2="44" y2="258" stroke="red" stroke-width="1" /><line x1="64" y1="258" x2="44" y2="236" stroke="red" stroke-width="1" /><line x1="82" y1="170" x2="44" y2="192" stroke="red" stroke-width="1" /><line x1="64" y1="192" x2="88" y2="236" stroke="red" stroke-width="1" /><line x1="82" y1="170" x2="44" y2="170" stroke="red" stroke-width="1" /><line x1="64" y1="170" x2="44" y2="214" stroke="red" stroke-width="1" /></svg>