<svg xmlns="http://www.w3.org/2000/svg" width="640" height="579"><rect x="0" y="0" width="640" height="579" fill="rgb(255,255,255)"></rect><rect x="0" y="0" width="620" height="540" fill="rgba(255,255,255,1)"></rect><rect x="77" y="121" width="20" height="20" fill="rgba(230,230,230,1)"><title>signal_S_op_select</title></rect><text x="87" y="131" text-anchor="middle" alignment-baseline="middle" fill="black">C</text><rect x="121" y="451" width="20" height="20" fill="rgba(230,230,230,1)"><title>signal_A</title></rect><text x="131" y="461" text-anchor="middle" alignment-baseline="middle" fill="black">C</text><rect x="209" y="539" width="20" height="20" fill="rgba(230,230,230,1)"><title>signal_Y</title></rect><text x="219" y="549" text-anchor="middle" alignment-baseline="middle" fill="black">L</text><rect x="121" y="429" width="20" height="20" fill="rgba(230,230,230,1)"><title>signal_B</title></rect><text x="131" y="439" text-anchor="middle" alignment-baseline="middle" fill="black">C</text><rect x="122" y="165" width="40" height="20" fill="rgba(230,230,230,1)"><title>$procmux$32_CMP0:A
$procmux$32_CMP0:B
$procmux$32_CMP0:Y</title></rect><text x="142" y="175" text-anchor="middle" alignment-baseline="middle" fill="black">=</text><rect x="166" y="143" width="40" height="20" fill="rgba(230,230,230,1)"><title>$procmux$26_CMP0:A
$procmux$26_CMP0:B
$procmux$26_CMP0:Y</title></rect><text x="186" y="153" text-anchor="middle" alignment-baseline="middle" fill="black">=</text><rect x="34" y="429" width="40" height="20" fill="rgba(230,230,230,1)"><title>$eq$alu.v:52$14:A
$eq$alu.v:52$14:B
$eq$alu.v:52$14:Y</title></rect><text x="54" y="439" text-anchor="middle" alignment-baseline="middle" fill="black">=</text><rect x="166" y="385" width="40" height="20" fill="rgba(230,230,230,1)"><title>$auto$opt_share.cc:199:merge_operators$40:A
$auto$opt_share.cc:199:merge_operators$40:Y</title></rect><text x="186" y="395" text-anchor="middle" alignment-baseline="middle" fill="black">-</text><rect x="254" y="407" width="40" height="20" fill="rgba(230,230,230,1)"><title>$procmux$21_CMP0:A
$procmux$21_CMP0:B
$procmux$21_CMP0:Y</title></rect><text x="274" y="417" text-anchor="middle" alignment-baseline="middle" fill="black">=</text><rect x="254" y="473" width="40" height="20" fill="rgba(230,230,230,1)"><title>$procmux$30_CMP0:A
$procmux$30_CMP0:B
$procmux$30_CMP0:Y</title></rect><text x="274" y="483" text-anchor="middle" alignment-baseline="middle" fill="black">=</text><rect x="254" y="143" width="40" height="20" fill="rgba(230,230,230,1)"><title>$procmux$23_CMP0:A
$procmux$23_CMP0:B
$procmux$23_CMP0:Y</title></rect><text x="274" y="153" text-anchor="middle" alignment-baseline="middle" fill="black">=</text><rect x="166" y="187" width="40" height="20" fill="rgba(230,230,230,1)"><title>$procmux$24_CMP0:A
$procmux$24_CMP0:B
$procmux$24_CMP0:Y</title></rect><text x="186" y="197" text-anchor="middle" alignment-baseline="middle" fill="black">=</text><rect x="166" y="363" width="40" height="20" fill="rgba(230,230,230,1)"><title>$auto$opt_share.cc:246:merge_operators$43:B0
$auto$opt_share.cc:246:merge_operators$43:B1
$auto$opt_share.cc:246:merge_operators$43:S0</title></rect><text x="186" y="373" text-anchor="middle" alignment-baseline="middle" fill="black">≠</text><rect x="122" y="275" width="40" height="20" fill="rgba(230,230,230,1)"><title>$auto$opt_share.cc:246:merge_operators$43:S1
$auto$opt_share.cc:246:merge_operators$43:A</title></rect><text x="142" y="285" text-anchor="middle" alignment-baseline="middle" fill="black">≠</text><rect x="166" y="341" width="40" height="20" fill="rgba(230,230,230,1)"></rect><text x="186" y="351" text-anchor="middle" alignment-baseline="middle" fill="black">=</text><rect x="122" y="341" width="40" height="20" fill="rgba(230,230,230,1)"><title>$auto$opt_share.cc:246:merge_operators$43:Y</title></rect><text x="142" y="351" text-anchor="middle" alignment-baseline="middle" fill="black">+</text><rect x="232" y="165" width="40" height="20" fill="rgba(230,230,230,1)"><title>$procmux$31_CMP0:A
$procmux$31_CMP0:B
$procmux$31_CMP0:Y</title></rect><text x="252" y="175" text-anchor="middle" alignment-baseline="middle" fill="black">=</text><rect x="144" y="451" width="40" height="20" fill="rgba(230,230,230,1)"><title>$mod$alu.v:28$6:A
$mod$alu.v:28$6:B
$mod$alu.v:28$6:Y</title></rect><text x="164" y="461" text-anchor="middle" alignment-baseline="middle" fill="black">%</text><rect x="276" y="121" width="40" height="20" fill="rgba(230,230,230,1)"><title>$auto$opt_reduce.cc:131:opt_pmux$37:A1
$auto$opt_reduce.cc:131:opt_pmux$37:A0
$auto$opt_reduce.cc:131:opt_pmux$37:Y</title></rect><text x="296" y="131" text-anchor="middle" alignment-baseline="middle" fill="black">≠</text><rect x="166" y="429" width="40" height="20" fill="rgba(230,230,230,1)"><title>$mul$alu.v:22$4:A
$mul$alu.v:22$4:B
$mul$alu.v:22$4:Y</title></rect><text x="186" y="439" text-anchor="middle" alignment-baseline="middle" fill="black">*</text><rect x="78" y="517" width="40" height="20" fill="rgba(230,230,230,1)"><title>$div$alu.v:25$5:A
$div$alu.v:25$5:B
$div$alu.v:25$5:Y</title></rect><text x="98" y="527" text-anchor="middle" alignment-baseline="middle" fill="black">/</text><rect x="56" y="209" width="40" height="20" fill="rgba(230,230,230,1)"><title>$procmux$29_CMP0:A
$procmux$29_CMP0:B
$procmux$29_CMP0:Y</title></rect><text x="76" y="219" text-anchor="middle" alignment-baseline="middle" fill="black">=</text><rect x="78" y="187" width="40" height="20" fill="rgba(230,230,230,1)"><title>$procmux$33_CMP0:A
$procmux$33_CMP0:B
$procmux$33_CMP0:Y</title></rect><text x="98" y="197" text-anchor="middle" alignment-baseline="middle" fill="black">=</text><rect x="188" y="451" width="40" height="20" fill="rgba(230,230,230,1)"><title>$procmux$20:B10
$procmux$20:S13</title></rect><text x="208" y="461" text-anchor="middle" alignment-baseline="middle" fill="black">≠</text><rect x="78" y="451" width="40" height="20" fill="rgba(230,230,230,1)"><title>$procmux$20:S8
$procmux$20:B14</title></rect><text x="98" y="461" text-anchor="middle" alignment-baseline="middle" fill="black">≠</text><rect x="34" y="407" width="40" height="20" fill="rgba(230,230,230,1)"><title>$procmux$20:B13
$procmux$20:B3</title></rect><text x="54" y="417" text-anchor="middle" alignment-baseline="middle" fill="black">≠</text><rect x="78" y="407" width="40" height="20" fill="rgba(230,230,230,1)"><title>$procmux$20:B8
$procmux$20:S4</title></rect><text x="98" y="417" text-anchor="middle" alignment-baseline="middle" fill="black">≠</text><rect x="78" y="363" width="40" height="20" fill="rgba(230,230,230,1)"><title>$procmux$20:B7
$procmux$20:S14</title></rect><text x="98" y="373" text-anchor="middle" alignment-baseline="middle" fill="black">≠</text><rect x="166" y="407" width="40" height="20" fill="rgba(230,230,230,1)"><title>$procmux$20:S0
$procmux$20:B12</title></rect><text x="186" y="417" text-anchor="middle" alignment-baseline="middle" fill="black">≠</text><rect x="166" y="473" width="40" height="20" fill="rgba(230,230,230,1)"><title>$procmux$20:S10
$procmux$20:B9</title></rect><text x="186" y="483" text-anchor="middle" alignment-baseline="middle" fill="black">≠</text><rect x="122" y="495" width="40" height="20" fill="rgba(230,230,230,1)"><title>$procmux$20:B0
$procmux$20:B4</title></rect><text x="142" y="505" text-anchor="middle" alignment-baseline="middle" fill="black">≠</text><rect x="254" y="231" width="40" height="20" fill="rgba(230,230,230,1)"><title>$procmux$20:S7
$procmux$20:S3</title></rect><text x="274" y="241" text-anchor="middle" alignment-baseline="middle" fill="black">≠</text><rect x="122" y="539" width="40" height="20" fill="rgba(230,230,230,1)"><title>$procmux$20:B11
$procmux$20:S11</title></rect><text x="142" y="549" text-anchor="middle" alignment-baseline="middle" fill="black">≠</text><rect x="166" y="517" width="40" height="20" fill="rgba(230,230,230,1)"><title>$procmux$20:S9
$procmux$20:B1</title></rect><text x="186" y="527" text-anchor="middle" alignment-baseline="middle" fill="black">≠</text><rect x="122" y="407" width="40" height="20" fill="rgba(230,230,230,1)"><title>$procmux$20:B5
$procmux$20:S6</title></rect><text x="142" y="417" text-anchor="middle" alignment-baseline="middle" fill="black">≠</text><rect x="210" y="77" width="40" height="20" fill="rgba(230,230,230,1)"><title>$procmux$20:S2
$procmux$20:S12</title></rect><text x="230" y="87" text-anchor="middle" alignment-baseline="middle" fill="black">≠</text><rect x="34" y="473" width="40" height="20" fill="rgba(230,230,230,1)"><title>$procmux$20:B6
$procmux$20:S5</title></rect><text x="54" y="483" text-anchor="middle" alignment-baseline="middle" fill="black">≠</text><rect x="34" y="385" width="40" height="20" fill="rgba(230,230,230,1)"><title>$procmux$20:S1
$procmux$20:B2</title></rect><text x="54" y="395" text-anchor="middle" alignment-baseline="middle" fill="black">≠</text><rect x="210" y="473" width="40" height="20" fill="rgba(230,230,230,1)"><title>$procmux$20:Y</title></rect><text x="230" y="483" text-anchor="middle" alignment-baseline="middle" fill="black">+</text><rect x="122" y="473" width="40" height="20" fill="rgba(230,230,230,1)"><title>$pow$alu.v:34$8:A
$pow$alu.v:34$8:B
$pow$alu.v:34$8:Y</title></rect><text x="142" y="483" text-anchor="middle" alignment-baseline="middle" fill="black">^</text><rect x="122" y="517" width="40" height="20" fill="rgba(230,230,230,1)"><title>$shr$alu.v:58$16:A
$shr$alu.v:58$16:B
$shr$alu.v:58$16:Y</title></rect><text x="142" y="527" text-anchor="middle" alignment-baseline="middle" fill="black">&gt;&gt;</text><rect x="34" y="495" width="40" height="20" fill="rgba(230,230,230,1)"><title>$and$alu.v:43$11:A
$and$alu.v:43$11:B
$and$alu.v:43$11:Y</title></rect><text x="54" y="505" text-anchor="middle" alignment-baseline="middle" fill="black">AND</text><rect x="78" y="495" width="40" height="20" fill="rgba(230,230,230,1)"><title>$gt$alu.v:49$13:A
$gt$alu.v:49$13:B
$gt$alu.v:49$13:Y</title></rect><text x="98" y="505" text-anchor="middle" alignment-baseline="middle" fill="black">&gt;</text><rect x="210" y="363" width="40" height="20" fill="rgba(230,230,230,1)"><title>$procmux$25_CMP0:A
$procmux$25_CMP0:B
$procmux$25_CMP0:Y</title></rect><text x="230" y="373" text-anchor="middle" alignment-baseline="middle" fill="black">=</text><rect x="78" y="473" width="40" height="20" fill="rgba(230,230,230,1)"><title>$neg$alu.v:37$9:A
$neg$alu.v:37$9:Y</title></rect><text x="98" y="483" text-anchor="middle" alignment-baseline="middle" fill="black">-</text><rect x="78" y="99" width="40" height="20" fill="rgba(230,230,230,1)"><title>$auto$flowmap.cc:1414:pack_cells$116:A1
$auto$flowmap.cc:1414:pack_cells$116:A0
$auto$flowmap.cc:1414:pack_cells$116:Y
$auto$flowmap.cc:1414:pack_cells$116:A3
$auto$flowmap.cc:1414:pack_cells$116:A2</title></rect><text x="98" y="109" text-anchor="middle" alignment-baseline="middle" fill="black">=</text><rect x="78" y="429" width="40" height="20" fill="rgba(230,230,230,1)"><title>$sub$alu.v:19$3:A
$sub$alu.v:19$3:B
$sub$alu.v:19$3:Y</title></rect><text x="98" y="439" text-anchor="middle" alignment-baseline="middle" fill="black">-</text><rect x="166" y="165" width="40" height="20" fill="rgba(230,230,230,1)"><title>$procmux$22_CMP0:A
$procmux$22_CMP0:B
$procmux$22_CMP0:Y</title></rect><text x="186" y="175" text-anchor="middle" alignment-baseline="middle" fill="black">=</text><rect x="100" y="209" width="40" height="20" fill="rgba(230,230,230,1)"><title>$procmux$34_CMP0:A
$procmux$34_CMP0:B
$procmux$34_CMP0:Y</title></rect><text x="120" y="219" text-anchor="middle" alignment-baseline="middle" fill="black">=</text><rect x="122" y="363" width="40" height="20" fill="rgba(230,230,230,1)"><title>$xor$alu.v:46$12:A
$xor$alu.v:46$12:B
$xor$alu.v:46$12:Y</title></rect><text x="142" y="373" text-anchor="middle" alignment-baseline="middle" fill="black">XOR</text><rect x="34" y="363" width="40" height="20" fill="rgba(230,230,230,1)"><title>$shl$alu.v:55$15:A
$shl$alu.v:55$15:B
$shl$alu.v:55$15:Y</title></rect><text x="54" y="373" text-anchor="middle" alignment-baseline="middle" fill="black">&lt;&lt;</text><rect x="254" y="451" width="40" height="20" fill="rgba(230,230,230,1)"><title>$procmux$35_CMP0:A
$procmux$35_CMP0:B
$procmux$35_CMP0:Y</title></rect><text x="274" y="461" text-anchor="middle" alignment-baseline="middle" fill="black">=</text><rect x="78" y="385" width="40" height="20" fill="rgba(230,230,230,1)"><title>$or$alu.v:40$10:A
$or$alu.v:40$10:B
$or$alu.v:40$10:Y</title></rect><text x="98" y="395" text-anchor="middle" alignment-baseline="middle" fill="black">OR</text><rect x="166" y="231" width="40" height="20" fill="rgba(230,230,230,1)"><title>$procmux$27_CMP0:A
$procmux$27_CMP0:B
$procmux$27_CMP0:Y</title></rect><text x="186" y="241" text-anchor="middle" alignment-baseline="middle" fill="black">=</text><rect x="166" y="99" width="40" height="20" fill="rgba(230,230,230,1)"><title>$procmux$28_CMP0:A
$procmux$28_CMP0:B
$procmux$28_CMP0:Y</title></rect><text x="186" y="109" text-anchor="middle" alignment-baseline="middle" fill="black">=</text><rect x="100" y="121" width="40" height="20" fill="rgba(230,230,230,1)"><title>$swizzle:Y
$swizzle:A</title></rect><text x="120" y="131" text-anchor="middle" alignment-baseline="middle" fill="black">AND</text><rect x="55" y="77" width="20" height="20" fill="rgba(230,230,230,1)"><title>$constant:Y</title></rect><text x="65" y="87" text-anchor="middle" alignment-baseline="middle" fill="black">C</text><rect x="78" y="231" width="40" height="20" fill="rgba(230,230,230,1)"><title>$swizzle:Y
$swizzle:A</title></rect><text x="98" y="241" text-anchor="middle" alignment-baseline="middle" fill="black">AND</text><rect x="165" y="209" width="20" height="20" fill="rgba(230,230,230,1)"><title>$constant:Y</title></rect><text x="175" y="219" text-anchor="middle" alignment-baseline="middle" fill="black">C</text><rect x="122" y="187" width="40" height="20" fill="rgba(230,230,230,1)"><title>$swizzle:Y
$swizzle:A</title></rect><text x="142" y="197" text-anchor="middle" alignment-baseline="middle" fill="black">AND</text><rect x="297" y="407" width="20" height="20" fill="rgba(230,230,230,1)"><title>$constant:Y</title></rect><text x="307" y="417" text-anchor="middle" alignment-baseline="middle" fill="black">C</text><rect x="34" y="99" width="40" height="20" fill="rgba(230,230,230,1)"><title>$swizzle:Y
$swizzle:A</title></rect><text x="54" y="109" text-anchor="middle" alignment-baseline="middle" fill="black">AND</text><rect x="231" y="451" width="20" height="20" fill="rgba(230,230,230,1)"><title>$constant:Y</title></rect><text x="241" y="461" text-anchor="middle" alignment-baseline="middle" fill="black">C</text><rect x="122" y="99" width="40" height="20" fill="rgba(230,230,230,1)"><title>$swizzle:Y
$swizzle:A</title></rect><text x="142" y="109" text-anchor="middle" alignment-baseline="middle" fill="black">AND</text><rect x="253" y="55" width="20" height="20" fill="rgba(230,230,230,1)"><title>$constant:Y</title></rect><text x="263" y="65" text-anchor="middle" alignment-baseline="middle" fill="black">C</text><rect x="34" y="121" width="40" height="20" fill="rgba(230,230,230,1)"><title>$swizzle:Y
$swizzle:A</title></rect><text x="54" y="131" text-anchor="middle" alignment-baseline="middle" fill="black">AND</text><rect x="253" y="209" width="20" height="20" fill="rgba(230,230,230,1)"><title>$constant:Y</title></rect><text x="263" y="219" text-anchor="middle" alignment-baseline="middle" fill="black">C</text><rect x="122" y="231" width="40" height="20" fill="rgba(230,230,230,1)"><title>$swizzle:Y
$swizzle:A</title></rect><text x="142" y="241" text-anchor="middle" alignment-baseline="middle" fill="black">AND</text><rect x="210" y="385" width="40" height="20" fill="rgba(230,230,230,1)"><title>$swizzle:Y
$swizzle:A</title></rect><text x="230" y="395" text-anchor="middle" alignment-baseline="middle" fill="black">AND</text><rect x="121" y="253" width="20" height="20" fill="rgba(230,230,230,1)"><title>$constant:Y</title></rect><text x="131" y="263" text-anchor="middle" alignment-baseline="middle" fill="black">C</text><rect x="122" y="143" width="40" height="20" fill="rgba(230,230,230,1)"><title>$swizzle:Y
$swizzle:A</title></rect><text x="142" y="153" text-anchor="middle" alignment-baseline="middle" fill="black">AND</text><rect x="275" y="99" width="20" height="20" fill="rgba(230,230,230,1)"><title>$constant:Y</title></rect><text x="285" y="109" text-anchor="middle" alignment-baseline="middle" fill="black">C</text><rect x="210" y="99" width="40" height="20" fill="rgba(230,230,230,1)"><title>$swizzle:Y
$swizzle:A</title></rect><text x="230" y="109" text-anchor="middle" alignment-baseline="middle" fill="black">AND</text><rect x="232" y="121" width="40" height="20" fill="rgba(230,230,230,1)"><title>$swizzle:Y
$swizzle:A</title></rect><text x="252" y="131" text-anchor="middle" alignment-baseline="middle" fill="black">AND</text><rect x="78" y="165" width="40" height="20" fill="rgba(230,230,230,1)"><title>$swizzle:Y
$swizzle:A</title></rect><text x="98" y="175" text-anchor="middle" alignment-baseline="middle" fill="black">AND</text><rect x="33" y="209" width="20" height="20" fill="rgba(230,230,230,1)"><title>$constant:Y</title></rect><text x="43" y="219" text-anchor="middle" alignment-baseline="middle" fill="black">C</text><rect x="34" y="165" width="40" height="20" fill="rgba(230,230,230,1)"><title>$swizzle:Y
$swizzle:A</title></rect><text x="54" y="175" text-anchor="middle" alignment-baseline="middle" fill="black">AND</text><rect x="143" y="121" width="20" height="20" fill="rgba(230,230,230,1)"><title>$constant:Y</title></rect><text x="153" y="131" text-anchor="middle" alignment-baseline="middle" fill="black">C</text><rect x="34" y="451" width="40" height="20" fill="rgba(230,230,230,1)"><title>$swizzle:Y
$swizzle:A</title></rect><text x="54" y="461" text-anchor="middle" alignment-baseline="middle" fill="black">AND</text><rect x="210" y="407" width="40" height="20" fill="rgba(230,230,230,1)"><title>$swizzle:Y
$swizzle:A</title></rect><text x="230" y="417" text-anchor="middle" alignment-baseline="middle" fill="black">AND</text><rect x="166" y="495" width="40" height="20" fill="rgba(230,230,230,1)"><title>$swizzle:Y
$swizzle:A</title></rect><text x="186" y="505" text-anchor="middle" alignment-baseline="middle" fill="black">AND</text><rect x="232" y="187" width="40" height="20" fill="rgba(230,230,230,1)"><title>$swizzle:Y
$swizzle:A</title></rect><text x="252" y="197" text-anchor="middle" alignment-baseline="middle" fill="black">AND</text><rect x="166" y="539" width="40" height="20" fill="rgba(230,230,230,1)"><title>$swizzle:Y
$swizzle:A</title></rect><text x="186" y="549" text-anchor="middle" alignment-baseline="middle" fill="black">AND</text><rect x="254" y="77" width="40" height="20" fill="rgba(230,230,230,1)"><title>$swizzle:Y
$swizzle:A</title></rect><text x="274" y="87" text-anchor="middle" alignment-baseline="middle" fill="black">AND</text><rect x="34" y="341" width="40" height="20" fill="rgba(230,230,230,1)"><title>$swizzle:Y
$swizzle:A</title></rect><text x="54" y="351" text-anchor="middle" alignment-baseline="middle" fill="black">AND</text><rect x="210" y="429" width="40" height="20" fill="rgba(230,230,230,1)"><title>$swizzle:Y
$swizzle:A</title></rect><text x="230" y="439" text-anchor="middle" alignment-baseline="middle" fill="black">AND</text><rect x="122" y="385" width="40" height="20" fill="rgba(230,230,230,1)"><title>$swizzle:Y
$swizzle:A</title></rect><text x="142" y="395" text-anchor="middle" alignment-baseline="middle" fill="black">AND</text><rect x="78" y="319" width="40" height="20" fill="rgba(230,230,230,1)"><title>$swizzle:Y
$swizzle:A</title></rect><text x="98" y="329" text-anchor="middle" alignment-baseline="middle" fill="black">AND</text><rect x="232" y="253" width="40" height="20" fill="rgba(230,230,230,1)"><title>$swizzle:Y
$swizzle:A</title></rect><text x="252" y="263" text-anchor="middle" alignment-baseline="middle" fill="black">AND</text><rect x="78" y="539" width="40" height="20" fill="rgba(230,230,230,1)"><title>$swizzle:Y
$swizzle:A</title></rect><text x="98" y="549" text-anchor="middle" alignment-baseline="middle" fill="black">AND</text><rect x="122" y="319" width="40" height="20" fill="rgba(230,230,230,1)"><title>$swizzle:Y
$swizzle:A</title></rect><text x="142" y="329" text-anchor="middle" alignment-baseline="middle" fill="black">AND</text><rect x="210" y="143" width="40" height="20" fill="rgba(230,230,230,1)"><title>$swizzle:Y
$swizzle:A</title></rect><text x="230" y="153" text-anchor="middle" alignment-baseline="middle" fill="black">AND</text><rect x="34" y="517" width="40" height="20" fill="rgba(230,230,230,1)"><title>$swizzle:Y
$swizzle:A</title></rect><text x="54" y="527" text-anchor="middle" alignment-baseline="middle" fill="black">AND</text><rect x="210" y="341" width="40" height="20" fill="rgba(230,230,230,1)"><title>$swizzle:Y
$swizzle:A</title></rect><text x="230" y="351" text-anchor="middle" alignment-baseline="middle" fill="black">AND</text><rect x="253" y="363" width="20" height="20" fill="rgba(230,230,230,1)"><title>$constant:Y</title></rect><text x="263" y="373" text-anchor="middle" alignment-baseline="middle" fill="black">C</text><rect x="122" y="33" width="40" height="20" fill="rgba(230,230,230,1)"><title>$swizzle:A</title></rect><text x="142" y="43" text-anchor="middle" alignment-baseline="middle" fill="black">AND</text><rect x="166" y="55" width="40" height="20" fill="rgba(230,230,230,1)"><title>$swizzle:Y</title></rect><text x="186" y="65" text-anchor="middle" alignment-baseline="middle" fill="black">&gt;&gt;</text><rect x="122" y="55" width="40" height="20" fill="rgba(230,230,230,1)"><title>$swizzle:Y
$swizzle:A</title></rect><text x="142" y="65" text-anchor="middle" alignment-baseline="middle" fill="black">AND</text><rect x="78" y="55" width="40" height="20" fill="rgba(230,230,230,1)"><title>$swizzle:A</title></rect><text x="98" y="65" text-anchor="middle" alignment-baseline="middle" fill="black">AND</text><rect x="166" y="121" width="40" height="20" fill="rgba(230,230,230,1)"><title>$swizzle:Y</title></rect><text x="186" y="131" text-anchor="middle" alignment-baseline="middle" fill="black">&gt;&gt;</text><rect x="78" y="77" width="40" height="20" fill="rgba(230,230,230,1)"><title>$swizzle:A</title></rect><text x="98" y="87" text-anchor="middle" alignment-baseline="middle" fill="black">AND</text><rect x="122" y="77" width="40" height="20" fill="rgba(230,230,230,1)"><title>$swizzle:Y</title></rect><text x="142" y="87" text-anchor="middle" alignment-baseline="middle" fill="black">&gt;&gt;</text><rect x="34" y="143" width="40" height="20" fill="rgba(230,230,230,1)"><title>$swizzle:Y
$swizzle:A</title></rect><text x="54" y="153" text-anchor="middle" alignment-baseline="middle" fill="black">AND</text><rect x="209" y="121" width="20" height="20" fill="rgba(230,230,230,1)"><title>$constant:Y</title></rect><text x="219" y="131" text-anchor="middle" alignment-baseline="middle" fill="black">C</text><rect x="34" y="231" width="40" height="20" fill="rgba(230,230,230,1)"><title>$swizzle:Y
$swizzle:A</title></rect><text x="54" y="241" text-anchor="middle" alignment-baseline="middle" fill="black">AND</text><rect x="209" y="165" width="20" height="20" fill="rgba(230,230,230,1)"><title>$constant:Y</title></rect><text x="219" y="175" text-anchor="middle" alignment-baseline="middle" fill="black">C</text><rect x="254" y="429" width="40" height="20" fill="rgba(230,230,230,1)"><title>$swizzle:Y
$swizzle:A</title></rect><text x="274" y="439" text-anchor="middle" alignment-baseline="middle" fill="black">AND</text><rect x="253" y="495" width="20" height="20" fill="rgba(230,230,230,1)"><title>$constant:Y</title></rect><text x="263" y="505" text-anchor="middle" alignment-baseline="middle" fill="black">C</text><rect x="34" y="187" width="40" height="20" fill="rgba(230,230,230,1)"><title>$swizzle:Y
$swizzle:A</title></rect><text x="54" y="197" text-anchor="middle" alignment-baseline="middle" fill="black">AND</text><rect x="187" y="253" width="20" height="20" fill="rgba(230,230,230,1)"><title>$constant:Y</title></rect><text x="197" y="263" text-anchor="middle" alignment-baseline="middle" fill="black">C</text><rect x="166" y="77" width="40" height="20" fill="rgba(230,230,230,1)"><title>$swizzle:Y
$swizzle:A</title></rect><text x="186" y="87" text-anchor="middle" alignment-baseline="middle" fill="black">AND</text><rect x="77" y="143" width="20" height="20" fill="rgba(230,230,230,1)"><title>$constant:Y</title></rect><text x="87" y="153" text-anchor="middle" alignment-baseline="middle" fill="black">C</text><rect x="209" y="209" width="40" height="40" fill="rgba(101,101,101,1)"></rect><text x="229" y="229" text-anchor="middle" alignment-baseline="middle" fill="black">SS</text><rect x="209" y="495" width="40" height="40" fill="rgba(101,101,101,1)"></rect><text x="229" y="515" text-anchor="middle" alignment-baseline="middle" fill="black">SS</text><circle cx="174" cy="262" r="5" fill="rgb(101,67,33)"></circle><circle cx="174" cy="262" r="5" fill="rgb(101,67,33)"></circle><circle cx="218" cy="328" r="5" fill="rgb(101,67,33)"></circle><circle cx="152" cy="306" r="5" fill="rgb(101,67,33)"></circle><circle cx="152" cy="438" r="5" fill="rgb(101,67,33)"></circle><circle cx="262" cy="284" r="5" fill="rgb(101,67,33)"></circle><circle cx="262" cy="394" r="5" fill="rgb(101,67,33)"></circle><circle cx="86" cy="350" r="5" fill="rgb(101,67,33)"></circle><circle cx="20" cy="328" r="5" fill="rgb(101,67,33)"></circle><circle cx="20" cy="460" r="5" fill="rgb(101,67,33)"></circle><circle cx="284" cy="394" r="5" fill="rgb(101,67,33)"></circle><circle cx="196" cy="570" r="5" fill="rgb(101,67,33)"></circle><circle cx="306" cy="394" r="5" fill="rgb(101,67,33)"></circle><circle cx="262" cy="526" r="5" fill="rgb(101,67,33)"></circle><circle cx="152" cy="218" r="5" fill="rgb(101,67,33)"></circle><circle cx="108" cy="350" r="5" fill="rgb(101,67,33)"></circle><circle cx="196" cy="218" r="5" fill="rgb(101,67,33)"></circle><circle cx="130" cy="306" r="5" fill="rgb(101,67,33)"></circle><circle cx="20" cy="438" r="5" fill="rgb(101,67,33)"></circle><circle cx="108" cy="262" r="5" fill="rgb(101,67,33)"></circle><circle cx="108" cy="306" r="5" fill="rgb(101,67,33)"></circle><circle cx="196" cy="306" r="5" fill="rgb(101,67,33)"></circle><circle cx="262" cy="350" r="5" fill="rgb(101,67,33)"></circle><circle cx="218" cy="284" r="5" fill="rgb(101,67,33)"></circle><circle cx="108" cy="152" r="5" fill="rgb(101,67,33)"></circle><circle cx="284" cy="504" r="5" fill="rgb(101,67,33)"></circle><circle cx="284" cy="372" r="5" fill="rgb(101,67,33)"></circle><circle cx="284" cy="526" r="5" fill="rgb(101,67,33)"></circle><circle cx="284" cy="350" r="5" fill="rgb(101,67,33)"></circle><circle cx="196" cy="284" r="5" fill="rgb(101,67,33)"></circle><circle cx="218" cy="196" r="5" fill="rgb(101,67,33)"></circle><circle cx="174" cy="284" r="5" fill="rgb(101,67,33)"></circle><circle cx="262" cy="108" r="5" fill="rgb(101,67,33)"></circle><line x1="175" y1="263" x2="219" y2="329" stroke="red" stroke-width="1" /><line x1="175" y1="265" x2="219" y2="331" stroke="green" stroke-width="1" /><line x1="153" y1="307" x2="153" y2="439" stroke="red" stroke-width="1" /><line x1="153" y1="309" x2="153" y2="441" stroke="green" stroke-width="1" /><line x1="263" y1="285" x2="263" y2="395" stroke="red" stroke-width="1" /><line x1="263" y1="287" x2="263" y2="397" stroke="green" stroke-width="1" /><line x1="21" y1="329" x2="21" y2="461" stroke="red" stroke-width="1" /><line x1="21" y1="331" x2="21" y2="463" stroke="green" stroke-width="1" /><line x1="285" y1="395" x2="197" y2="571" stroke="red" stroke-width="1" /><line x1="285" y1="397" x2="197" y2="573" stroke="green" stroke-width="1" /><line x1="307" y1="395" x2="263" y2="527" stroke="red" stroke-width="1" /><line x1="307" y1="397" x2="263" y2="529" stroke="green" stroke-width="1" /><line x1="153" y1="219" x2="109" y2="351" stroke="red" stroke-width="1" /><line x1="153" y1="221" x2="109" y2="353" stroke="green" stroke-width="1" /><line x1="197" y1="219" x2="131" y2="307" stroke="red" stroke-width="1" /><line x1="197" y1="221" x2="131" y2="309" stroke="green" stroke-width="1" /><line x1="131" y1="307" x2="21" y2="439" stroke="red" stroke-width="1" /><line x1="131" y1="309" x2="21" y2="441" stroke="green" stroke-width="1" /><line x1="263" y1="351" x2="219" y2="285" stroke="red" stroke-width="1" /><line x1="263" y1="353" x2="219" y2="287" stroke="green" stroke-width="1" /><line x1="219" y1="285" x2="109" y2="153" stroke="red" stroke-width="1" /><line x1="219" y1="287" x2="109" y2="155" stroke="green" stroke-width="1" /><line x1="285" y1="505" x2="285" y2="373" stroke="red" stroke-width="1" /><line x1="285" y1="507" x2="285" y2="375" stroke="green" stroke-width="1" /><line x1="285" y1="527" x2="285" y2="351" stroke="red" stroke-width="1" /><line x1="285" y1="529" x2="285" y2="353" stroke="green" stroke-width="1" /><line x1="197" y1="285" x2="219" y2="197" stroke="red" stroke-width="1" /><line x1="197" y1="287" x2="219" y2="199" stroke="green" stroke-width="1" /><line x1="175" y1="285" x2="263" y2="109" stroke="red" stroke-width="1" /><line x1="175" y1="287" x2="263" y2="111" stroke="green" stroke-width="1" /><line x1="82" y1="126" x2="175" y2="263" stroke="red" stroke-width="1" /><line x1="82" y1="136" x2="175" y2="265" stroke="green" stroke-width="1" /><line x1="82" y1="126" x2="175" y2="263" stroke="red" stroke-width="1" /><line x1="82" y1="136" x2="175" y2="265" stroke="green" stroke-width="1" /><line x1="196" y1="148" x2="153" y2="307" stroke="red" stroke-width="1" /><line x1="196" y1="158" x2="153" y2="309" stroke="green" stroke-width="1" /><line x1="264" y1="412" x2="197" y2="307" stroke="red" stroke-width="1" /><line x1="264" y1="422" x2="197" y2="309" stroke="green" stroke-width="1" /><line x1="264" y1="478" x2="263" y2="351" stroke="red" stroke-width="1" /><line x1="264" y1="488" x2="263" y2="353" stroke="green" stroke-width="1" /><line x1="306" y1="126" x2="263" y2="285" stroke="red" stroke-width="1" /><line x1="306" y1="136" x2="263" y2="287" stroke="green" stroke-width="1" /><line x1="86" y1="214" x2="87" y2="351" stroke="red" stroke-width="1" /><line x1="86" y1="224" x2="87" y2="353" stroke="green" stroke-width="1" /><line x1="108" y1="192" x2="21" y2="329" stroke="red" stroke-width="1" /><line x1="108" y1="202" x2="21" y2="331" stroke="green" stroke-width="1" /><line x1="132" y1="500" x2="285" y2="505" stroke="red" stroke-width="1" /><line x1="132" y1="510" x2="285" y2="507" stroke="green" stroke-width="1" /><line x1="152" y1="500" x2="285" y2="527" stroke="red" stroke-width="1" /><line x1="152" y1="510" x2="285" y2="529" stroke="green" stroke-width="1" /><line x1="264" y1="236" x2="285" y2="395" stroke="red" stroke-width="1" /><line x1="264" y1="246" x2="285" y2="397" stroke="green" stroke-width="1" /><line x1="284" y1="236" x2="307" y2="395" stroke="red" stroke-width="1" /><line x1="284" y1="246" x2="307" y2="397" stroke="green" stroke-width="1" /><line x1="284" y1="236" x2="285" y2="373" stroke="red" stroke-width="1" /><line x1="264" y1="236" x2="285" y2="373" stroke="red" stroke-width="1" /><line x1="284" y1="236" x2="285" y2="351" stroke="red" stroke-width="1" /><line x1="284" y1="236" x2="285" y2="373" stroke="red" stroke-width="1" /><line x1="264" y1="236" x2="285" y2="373" stroke="red" stroke-width="1" /><line x1="284" y1="236" x2="285" y2="351" stroke="red" stroke-width="1" /><line x1="152" y1="544" x2="197" y2="571" stroke="red" stroke-width="1" /><line x1="132" y1="544" x2="197" y2="571" stroke="red" stroke-width="1" /><line x1="152" y1="544" x2="263" y2="527" stroke="red" stroke-width="1" /><line x1="152" y1="544" x2="197" y2="571" stroke="red" stroke-width="1" /><line x1="132" y1="544" x2="197" y2="571" stroke="red" stroke-width="1" /><line x1="152" y1="544" x2="263" y2="527" stroke="red" stroke-width="1" /><line x1="132" y1="412" x2="197" y2="285" stroke="red" stroke-width="1" /><line x1="132" y1="422" x2="197" y2="287" stroke="green" stroke-width="1" /><line x1="152" y1="412" x2="175" y2="285" stroke="red" stroke-width="1" /><line x1="152" y1="422" x2="175" y2="287" stroke="green" stroke-width="1" /><line x1="220" y1="82" x2="153" y2="219" stroke="red" stroke-width="1" /><line x1="220" y1="92" x2="153" y2="221" stroke="green" stroke-width="1" /><line x1="240" y1="82" x2="197" y2="219" stroke="red" stroke-width="1" /><line x1="240" y1="92" x2="197" y2="221" stroke="green" stroke-width="1" /><line x1="240" y1="82" x2="219" y2="197" stroke="red" stroke-width="1" /><line x1="220" y1="82" x2="219" y2="197" stroke="red" stroke-width="1" /><line x1="240" y1="82" x2="263" y2="109" stroke="red" stroke-width="1" /><line x1="240" y1="82" x2="219" y2="197" stroke="red" stroke-width="1" /><line x1="220" y1="82" x2="219" y2="197" stroke="red" stroke-width="1" /><line x1="240" y1="82" x2="263" y2="109" stroke="red" stroke-width="1" /><line x1="64" y1="478" x2="109" y2="351" stroke="red" stroke-width="1" /><line x1="44" y1="478" x2="109" y2="351" stroke="red" stroke-width="1" /><line x1="64" y1="478" x2="21" y2="439" stroke="red" stroke-width="1" /><line x1="64" y1="478" x2="109" y2="351" stroke="red" stroke-width="1" /><line x1="44" y1="478" x2="109" y2="351" stroke="red" stroke-width="1" /><line x1="64" y1="478" x2="21" y2="439" stroke="red" stroke-width="1" /><line x1="108" y1="104" x2="109" y2="263" stroke="red" stroke-width="1" /><line x1="108" y1="114" x2="109" y2="265" stroke="green" stroke-width="1" /><line x1="196" y1="170" x2="109" y2="307" stroke="red" stroke-width="1" /><line x1="196" y1="180" x2="109" y2="309" stroke="green" stroke-width="1" /><line x1="152" y1="192" x2="197" y2="307" stroke="red" stroke-width="1" /><line x1="64" y1="104" x2="109" y2="153" stroke="red" stroke-width="1" /><line x1="44" y1="456" x2="87" y2="351" stroke="red" stroke-width="1" /><line x1="176" y1="500" x2="263" y2="395" stroke="red" stroke-width="1" /><line x1="44" y1="346" x2="109" y2="307" stroke="red" stroke-width="1" /><line x1="88" y1="324" x2="109" y2="263" stroke="red" stroke-width="1" /><line x1="88" y1="544" x2="21" y2="461" stroke="red" stroke-width="1" /><line x1="44" y1="522" x2="153" y2="439" stroke="red" stroke-width="1" /><line x1="220" y1="346" x2="175" y2="263" stroke="red" stroke-width="1" /><line x1="264" y1="434" x2="219" y2="329" stroke="red" stroke-width="1" /><line x1="240" y1="390" x2="176" y2="368" stroke="red" stroke-width="1" /><line x1="196" y1="390" x2="176" y2="368" stroke="red" stroke-width="1" /><line x1="152" y1="236" x2="132" y2="280" stroke="red" stroke-width="1" /><line x1="126" y1="258" x2="132" y2="280" stroke="red" stroke-width="1" /><line x1="196" y1="368" x2="152" y2="280" stroke="red" stroke-width="1" /><line x1="152" y1="280" x2="196" y2="368" stroke="red" stroke-width="1" /><line x1="176" y1="368" x2="132" y2="280" stroke="red" stroke-width="1" /><line x1="132" y1="280" x2="176" y2="368" stroke="red" stroke-width="1" /><line x1="196" y1="368" x2="196" y2="346" stroke="red" stroke-width="1" /><line x1="196" y1="346" x2="196" y2="368" stroke="red" stroke-width="1" /><line x1="126" y1="434" x2="176" y2="368" stroke="red" stroke-width="1" /><line x1="126" y1="434" x2="176" y2="346" stroke="red" stroke-width="1" /><line x1="196" y1="368" x2="132" y2="346" stroke="red" stroke-width="1" /><line x1="240" y1="104" x2="286" y2="126" stroke="red" stroke-width="1" /><line x1="262" y1="126" x2="286" y2="126" stroke="red" stroke-width="1" /><line x1="174" y1="456" x2="198" y2="456" stroke="red" stroke-width="1" /><line x1="240" y1="434" x2="198" y2="456" stroke="red" stroke-width="1" /><line x1="64" y1="456" x2="88" y2="456" stroke="red" stroke-width="1" /><line x1="108" y1="434" x2="88" y2="456" stroke="red" stroke-width="1" /><line x1="108" y1="456" x2="218" y2="456" stroke="red" stroke-width="1" /><line x1="218" y1="456" x2="108" y2="456" stroke="red" stroke-width="1" /><line x1="198" y1="456" x2="88" y2="456" stroke="red" stroke-width="1" /><line x1="88" y1="456" x2="198" y2="456" stroke="red" stroke-width="1" /><line x1="64" y1="434" x2="44" y2="412" stroke="red" stroke-width="1" /><line x1="108" y1="434" x2="44" y2="412" stroke="red" stroke-width="1" /><line x1="108" y1="456" x2="64" y2="412" stroke="red" stroke-width="1" /><line x1="64" y1="412" x2="108" y2="456" stroke="red" stroke-width="1" /><line x1="88" y1="456" x2="44" y2="412" stroke="red" stroke-width="1" /><line x1="44" y1="412" x2="88" y2="456" stroke="red" stroke-width="1" /><line x1="152" y1="390" x2="88" y2="412" stroke="red" stroke-width="1" /><line x1="108" y1="478" x2="88" y2="412" stroke="red" stroke-width="1" /><line x1="108" y1="412" x2="64" y2="412" stroke="red" stroke-width="1" /><line x1="64" y1="412" x2="108" y2="412" stroke="red" stroke-width="1" /><line x1="44" y1="412" x2="88" y2="412" stroke="red" stroke-width="1" /><line x1="88" y1="412" x2="44" y2="412" stroke="red" stroke-width="1" /><line x1="108" y1="390" x2="88" y2="368" stroke="red" stroke-width="1" /><line x1="108" y1="324" x2="88" y2="368" stroke="red" stroke-width="1" /><line x1="108" y1="412" x2="108" y2="368" stroke="red" stroke-width="1" /><line x1="108" y1="368" x2="108" y2="412" stroke="red" stroke-width="1" /><line x1="88" y1="368" x2="88" y2="412" stroke="red" stroke-width="1" /><line x1="88" y1="412" x2="88" y2="368" stroke="red" stroke-width="1" /><line x1="196" y1="434" x2="176" y2="412" stroke="red" stroke-width="1" /><line x1="240" y1="412" x2="176" y2="412" stroke="red" stroke-width="1" /><line x1="108" y1="368" x2="196" y2="412" stroke="red" stroke-width="1" /><line x1="196" y1="412" x2="108" y2="368" stroke="red" stroke-width="1" /><line x1="88" y1="368" x2="176" y2="412" stroke="red" stroke-width="1" /><line x1="176" y1="412" x2="88" y2="368" stroke="red" stroke-width="1" /><line x1="152" y1="478" x2="176" y2="478" stroke="red" stroke-width="1" /><line x1="196" y1="500" x2="176" y2="478" stroke="red" stroke-width="1" /><line x1="196" y1="412" x2="196" y2="478" stroke="red" stroke-width="1" /><line x1="196" y1="478" x2="196" y2="412" stroke="red" stroke-width="1" /><line x1="176" y1="478" x2="176" y2="412" stroke="red" stroke-width="1" /><line x1="176" y1="412" x2="176" y2="478" stroke="red" stroke-width="1" /><line x1="126" y1="456" x2="132" y2="500" stroke="red" stroke-width="1" /><line x1="108" y1="500" x2="132" y2="500" stroke="red" stroke-width="1" /><line x1="196" y1="478" x2="152" y2="500" stroke="red" stroke-width="1" /><line x1="152" y1="500" x2="196" y2="478" stroke="red" stroke-width="1" /><line x1="176" y1="478" x2="132" y2="500" stroke="red" stroke-width="1" /><line x1="132" y1="500" x2="176" y2="478" stroke="red" stroke-width="1" /><line x1="262" y1="258" x2="264" y2="236" stroke="red" stroke-width="1" /><line x1="262" y1="192" x2="264" y2="236" stroke="red" stroke-width="1" /><line x1="108" y1="522" x2="132" y2="544" stroke="red" stroke-width="1" /><line x1="108" y1="544" x2="132" y2="544" stroke="red" stroke-width="1" /><line x1="152" y1="522" x2="176" y2="522" stroke="red" stroke-width="1" /><line x1="196" y1="544" x2="176" y2="522" stroke="red" stroke-width="1" /><line x1="196" y1="522" x2="152" y2="544" stroke="red" stroke-width="1" /><line x1="152" y1="544" x2="196" y2="522" stroke="red" stroke-width="1" /><line x1="132" y1="544" x2="176" y2="522" stroke="red" stroke-width="1" /><line x1="176" y1="522" x2="132" y2="544" stroke="red" stroke-width="1" /><line x1="152" y1="368" x2="132" y2="412" stroke="red" stroke-width="1" /><line x1="152" y1="324" x2="132" y2="412" stroke="red" stroke-width="1" /><line x1="196" y1="522" x2="152" y2="412" stroke="red" stroke-width="1" /><line x1="152" y1="412" x2="196" y2="522" stroke="red" stroke-width="1" /><line x1="176" y1="522" x2="132" y2="412" stroke="red" stroke-width="1" /><line x1="132" y1="412" x2="176" y2="522" stroke="red" stroke-width="1" /><line x1="284" y1="82" x2="220" y2="82" stroke="red" stroke-width="1" /><line x1="240" y1="148" x2="220" y2="82" stroke="red" stroke-width="1" /><line x1="64" y1="522" x2="44" y2="478" stroke="red" stroke-width="1" /><line x1="64" y1="500" x2="44" y2="478" stroke="red" stroke-width="1" /><line x1="64" y1="346" x2="44" y2="390" stroke="red" stroke-width="1" /><line x1="64" y1="368" x2="44" y2="390" stroke="red" stroke-width="1" /><line x1="64" y1="390" x2="64" y2="478" stroke="red" stroke-width="1" /><line x1="64" y1="478" x2="64" y2="390" stroke="red" stroke-width="1" /><line x1="44" y1="478" x2="44" y2="390" stroke="red" stroke-width="1" /><line x1="44" y1="390" x2="44" y2="478" stroke="red" stroke-width="1" /><line x1="218" y1="456" x2="220" y2="478" stroke="red" stroke-width="1" /><line x1="152" y1="60" x2="88" y2="104" stroke="red" stroke-width="1" /><line x1="196" y1="60" x2="88" y2="104" stroke="red" stroke-width="1" /><line x1="152" y1="82" x2="88" y2="104" stroke="red" stroke-width="1" /><line x1="196" y1="126" x2="88" y2="104" stroke="red" stroke-width="1" /><line x1="240" y1="478" x2="214" y2="544" stroke="red" stroke-width="1" /><line x1="130" y1="126" x2="132" y2="170" stroke="red" stroke-width="1" /><line x1="60" y1="82" x2="132" y2="170" stroke="red" stroke-width="1" /><line x1="108" y1="236" x2="176" y2="148" stroke="red" stroke-width="1" /><line x1="170" y1="214" x2="176" y2="148" stroke="red" stroke-width="1" /><line x1="126" y1="456" x2="44" y2="434" stroke="red" stroke-width="1" /><line x1="126" y1="434" x2="44" y2="434" stroke="red" stroke-width="1" /><line x1="126" y1="434" x2="176" y2="390" stroke="red" stroke-width="1" /><line x1="302" y1="412" x2="264" y2="412" stroke="red" stroke-width="1" /><line x1="236" y1="456" x2="264" y2="478" stroke="red" stroke-width="1" /><line x1="152" y1="104" x2="264" y2="148" stroke="red" stroke-width="1" /><line x1="258" y1="60" x2="264" y2="148" stroke="red" stroke-width="1" /><line x1="64" y1="126" x2="176" y2="192" stroke="red" stroke-width="1" /><line x1="258" y1="214" x2="176" y2="192" stroke="red" stroke-width="1" /><line x1="152" y1="148" x2="242" y2="170" stroke="red" stroke-width="1" /><line x1="280" y1="104" x2="242" y2="170" stroke="red" stroke-width="1" /><line x1="126" y1="456" x2="154" y2="456" stroke="red" stroke-width="1" /><line x1="126" y1="434" x2="154" y2="456" stroke="red" stroke-width="1" /><line x1="126" y1="456" x2="176" y2="434" stroke="red" stroke-width="1" /><line x1="126" y1="434" x2="176" y2="434" stroke="red" stroke-width="1" /><line x1="126" y1="456" x2="88" y2="522" stroke="red" stroke-width="1" /><line x1="126" y1="434" x2="88" y2="522" stroke="red" stroke-width="1" /><line x1="108" y1="170" x2="66" y2="214" stroke="red" stroke-width="1" /><line x1="38" y1="214" x2="66" y2="214" stroke="red" stroke-width="1" /><line x1="64" y1="170" x2="88" y2="192" stroke="red" stroke-width="1" /><line x1="148" y1="126" x2="88" y2="192" stroke="red" stroke-width="1" /><line x1="126" y1="456" x2="132" y2="478" stroke="red" stroke-width="1" /><line x1="126" y1="434" x2="132" y2="478" stroke="red" stroke-width="1" /><line x1="126" y1="456" x2="132" y2="522" stroke="red" stroke-width="1" /><line x1="126" y1="434" x2="132" y2="522" stroke="red" stroke-width="1" /><line x1="126" y1="456" x2="44" y2="500" stroke="red" stroke-width="1" /><line x1="126" y1="434" x2="44" y2="500" stroke="red" stroke-width="1" /><line x1="126" y1="456" x2="88" y2="500" stroke="red" stroke-width="1" /><line x1="126" y1="434" x2="88" y2="500" stroke="red" stroke-width="1" /><line x1="240" y1="346" x2="220" y2="368" stroke="red" stroke-width="1" /><line x1="258" y1="368" x2="220" y2="368" stroke="red" stroke-width="1" /><line x1="126" y1="456" x2="88" y2="478" stroke="red" stroke-width="1" /><line x1="126" y1="456" x2="88" y2="434" stroke="red" stroke-width="1" /><line x1="152" y1="346" x2="88" y2="434" stroke="red" stroke-width="1" /><line x1="64" y1="148" x2="176" y2="170" stroke="red" stroke-width="1" /><line x1="214" y1="126" x2="176" y2="170" stroke="red" stroke-width="1" /><line x1="64" y1="236" x2="110" y2="214" stroke="red" stroke-width="1" /><line x1="214" y1="170" x2="110" y2="214" stroke="red" stroke-width="1" /><line x1="126" y1="456" x2="132" y2="368" stroke="red" stroke-width="1" /><line x1="126" y1="434" x2="132" y2="368" stroke="red" stroke-width="1" /><line x1="126" y1="456" x2="44" y2="368" stroke="red" stroke-width="1" /><line x1="126" y1="434" x2="44" y2="368" stroke="red" stroke-width="1" /><line x1="284" y1="434" x2="264" y2="456" stroke="red" stroke-width="1" /><line x1="258" y1="500" x2="264" y2="456" stroke="red" stroke-width="1" /><line x1="126" y1="456" x2="88" y2="390" stroke="red" stroke-width="1" /><line x1="126" y1="434" x2="88" y2="390" stroke="red" stroke-width="1" /><line x1="64" y1="192" x2="176" y2="236" stroke="red" stroke-width="1" /><line x1="192" y1="258" x2="176" y2="236" stroke="red" stroke-width="1" /><line x1="196" y1="82" x2="176" y2="104" stroke="red" stroke-width="1" /><line x1="82" y1="148" x2="176" y2="104" stroke="red" stroke-width="1" /><line x1="82" y1="126" x2="110" y2="126" stroke="red" stroke-width="1" /><line x1="82" y1="126" x2="88" y2="236" stroke="red" stroke-width="1" /><line x1="82" y1="126" x2="132" y2="192" stroke="red" stroke-width="1" /><line x1="82" y1="126" x2="44" y2="104" stroke="red" stroke-width="1" /><line x1="82" y1="126" x2="132" y2="104" stroke="red" stroke-width="1" /><line x1="82" y1="126" x2="44" y2="126" stroke="red" stroke-width="1" /><line x1="108" y1="104" x2="132" y2="236" stroke="red" stroke-width="1" /><line x1="284" y1="456" x2="220" y2="390" stroke="red" stroke-width="1" /><line x1="82" y1="126" x2="132" y2="148" stroke="red" stroke-width="1" /><line x1="152" y1="170" x2="220" y2="104" stroke="red" stroke-width="1" /><line x1="262" y1="170" x2="242" y2="126" stroke="red" stroke-width="1" /><line x1="82" y1="126" x2="88" y2="170" stroke="red" stroke-width="1" /><line x1="82" y1="126" x2="44" y2="170" stroke="red" stroke-width="1" /><line x1="284" y1="412" x2="220" y2="412" stroke="red" stroke-width="1" /><line x1="196" y1="104" x2="242" y2="192" stroke="red" stroke-width="1" /><line x1="284" y1="478" x2="176" y2="544" stroke="red" stroke-width="1" /><line x1="284" y1="148" x2="264" y2="82" stroke="red" stroke-width="1" /><line x1="284" y1="456" x2="220" y2="434" stroke="red" stroke-width="1" /><line x1="240" y1="368" x2="132" y2="390" stroke="red" stroke-width="1" /><line x1="196" y1="192" x2="242" y2="258" stroke="red" stroke-width="1" /><line x1="196" y1="236" x2="132" y2="324" stroke="red" stroke-width="1" /><line x1="130" y1="214" x2="220" y2="148" stroke="red" stroke-width="1" /><line x1="82" y1="126" x2="132" y2="38" stroke="red" stroke-width="1" /><line x1="152" y1="38" x2="176" y2="60" stroke="red" stroke-width="1" /><line x1="82" y1="126" x2="132" y2="60" stroke="red" stroke-width="1" /><line x1="82" y1="126" x2="88" y2="60" stroke="red" stroke-width="1" /><line x1="108" y1="60" x2="176" y2="126" stroke="red" stroke-width="1" /><line x1="82" y1="126" x2="88" y2="82" stroke="red" stroke-width="1" /><line x1="108" y1="82" x2="132" y2="82" stroke="red" stroke-width="1" /><line x1="82" y1="126" x2="44" y2="148" stroke="red" stroke-width="1" /><line x1="82" y1="126" x2="44" y2="236" stroke="red" stroke-width="1" /><line x1="82" y1="126" x2="44" y2="192" stroke="red" stroke-width="1" /><line x1="82" y1="126" x2="176" y2="82" stroke="red" stroke-width="1" /></svg>