<svg xmlns="http://www.w3.org/2000/svg" width="336" height="337"><rect x="0" y="0" width="336" height="337" fill="rgb(255,255,255)"></rect><rect x="0" y="0" width="300" height="300" fill="rgba(255,255,255,1)"></rect><rect x="33" y="55" width="20" height="20" fill="rgba(230,100,100,1)"><title>data_b</title></rect><text x="43" y="65" text-anchor="middle" alignment-baseline="middle" fill="black">C</text><rect x="33" y="187" width="20" height="20" fill="rgba(100,100,230,1)"><title>result_y</title></rect><text x="43" y="197" text-anchor="middle" alignment-baseline="middle" fill="black">L</text><rect x="121" y="55" width="20" height="20" fill="rgba(230,100,100,1)"><title>data_a</title></rect><text x="131" y="65" text-anchor="middle" alignment-baseline="middle" fill="black">C</text><rect x="33" y="143" width="20" height="20" fill="rgba(230,100,100,1)"><title>select</title></rect><text x="43" y="153" text-anchor="middle" alignment-baseline="middle" fill="black">C</text><rect x="34" y="99" width="40" height="20" fill="rgba(230,230,230,1)"><title>$and$alu.v:43$10:A
$and$alu.v:43$10:B
$and$alu.v:43$10:Y</title></rect><text x="54" y="109" text-anchor="middle" alignment-baseline="middle" fill="black">AND</text><rect x="34" y="77" width="40" height="20" fill="rgba(230,230,230,1)"><title>$gt$alu.v:49$12:A
$gt$alu.v:49$12:B
$gt$alu.v:49$12:Y</title></rect><text x="54" y="87" text-anchor="middle" alignment-baseline="middle" fill="black">&gt;</text><rect x="78" y="187" width="40" height="20" fill="rgba(230,230,230,1)"><title>16-pmux|i=0,s=(Id(3), Equal, Constant(15)),b=Id(0)
$procmux$22:B0
$procmux$22:S0</title></rect><text x="98" y="197" text-anchor="middle" alignment-baseline="middle" fill="black">=</text><rect x="122" y="99" width="40" height="20" fill="rgba(230,230,230,1)"><title>16-pmux|i=1,s=(Id(3), Equal, Constant(14)),b=Id(1)
$procmux$22:B1
$procmux$22:S1</title></rect><text x="142" y="109" text-anchor="middle" alignment-baseline="middle" fill="black">=</text><rect x="122" y="77" width="40" height="20" fill="rgba(230,230,230,1)"><title>16-pmux|i=2,s=(Id(3), Equal, Constant(13)),b=Id(2)
$procmux$22:B2
$procmux$22:S2</title></rect><text x="142" y="87" text-anchor="middle" alignment-baseline="middle" fill="black">=</text><rect x="34" y="231" width="40" height="20" fill="rgba(230,230,230,1)"><title>16-pmux|i=3,s=(Id(3), Equal, Constant(12)),b=Id(3)
$procmux$22:B3
$procmux$22:S3</title></rect><text x="54" y="241" text-anchor="middle" alignment-baseline="middle" fill="black">=</text><rect x="34" y="253" width="40" height="20" fill="rgba(230,230,230,1)"><title>16-pmux|i=4,s=(Id(3), Equal, Constant(11)),b=Id(4)
$procmux$22:B4
$procmux$22:S4</title></rect><text x="54" y="263" text-anchor="middle" alignment-baseline="middle" fill="black">=</text><rect x="34" y="275" width="40" height="20" fill="rgba(230,230,230,1)"><title>16-pmux|i=5,s=(Id(3), Equal, Constant(10)),b=Id(5)
$procmux$22:B5
$procmux$22:S5</title></rect><text x="54" y="285" text-anchor="middle" alignment-baseline="middle" fill="black">=</text><rect x="34" y="297" width="40" height="20" fill="rgba(230,230,230,1)"><title>16-pmux|i=6,s=(Id(3), Equal, Constant(9)),b=Id(6)
$procmux$22:B6
$procmux$22:S6</title></rect><text x="54" y="307" text-anchor="middle" alignment-baseline="middle" fill="black">=</text><rect x="78" y="297" width="40" height="20" fill="rgba(230,230,230,1)"><title>16-pmux|i=7,s=(Id(3), Equal, Constant(8)),b=Id(7)
$procmux$22:B7
$procmux$22:S7</title></rect><text x="98" y="307" text-anchor="middle" alignment-baseline="middle" fill="black">=</text><rect x="78" y="275" width="40" height="20" fill="rgba(230,230,230,1)"><title>16-pmux|i=8,s=(Id(3), Equal, Constant(7)),b=Id(8)
$procmux$22:B8
$procmux$22:S8</title></rect><text x="98" y="285" text-anchor="middle" alignment-baseline="middle" fill="black">=</text><rect x="78" y="253" width="40" height="20" fill="rgba(230,230,230,1)"><title>16-pmux|i=9,s=(Id(3), Equal, Constant(6)),b=Id(9)
$procmux$22:B9
$procmux$22:S9</title></rect><text x="98" y="263" text-anchor="middle" alignment-baseline="middle" fill="black">=</text><rect x="78" y="143" width="40" height="20" fill="rgba(230,230,230,1)"><title>16-pmux|i=10,s=(Id(3), Equal, Constant(5)),b=Id(10)
$procmux$22:B10
$procmux$22:S10</title></rect><text x="98" y="153" text-anchor="middle" alignment-baseline="middle" fill="black">=</text><rect x="188" y="55" width="40" height="20" fill="rgba(230,230,230,1)"><title>16-pmux|i=11,s=(Id(3), Equal, Constant(4)),b=Id(11)
$procmux$22:B11
$procmux$22:S11</title></rect><text x="208" y="65" text-anchor="middle" alignment-baseline="middle" fill="black">=</text><rect x="188" y="77" width="40" height="20" fill="rgba(230,230,230,1)"><title>16-pmux|i=12,s=(Id(3), Equal, Constant(3)),b=Id(12)
$procmux$22:B12
$procmux$22:S12</title></rect><text x="208" y="87" text-anchor="middle" alignment-baseline="middle" fill="black">=</text><rect x="188" y="99" width="40" height="20" fill="rgba(230,230,230,1)"><title>16-pmux|i=13,s=(Id(3), Equal, Constant(2)),b=Id(13)
$procmux$22:B13
$procmux$22:S13</title></rect><text x="208" y="109" text-anchor="middle" alignment-baseline="middle" fill="black">=</text><rect x="188" y="121" width="40" height="20" fill="rgba(230,230,230,1)"><title>16-pmux|i=14,s=(Id(3), Equal, Constant(1)),b=Id(14)
$procmux$22:B14
$procmux$22:S14</title></rect><text x="208" y="131" text-anchor="middle" alignment-baseline="middle" fill="black">=</text><rect x="232" y="143" width="40" height="20" fill="rgba(230,230,230,1)"><title>16-pmux|i=15,s=(Id(17), NotEqual, Constant(0)),b=Id(15)
$procmux$22:B15
$procmux$22:S15</title></rect><text x="252" y="153" text-anchor="middle" alignment-baseline="middle" fill="black">≠</text><rect x="78" y="231" width="40" height="20" fill="rgba(230,230,230,1)"><title>16-pmux output y
$procmux$22:Y</title></rect><text x="98" y="241" text-anchor="middle" alignment-baseline="middle" fill="black">+</text><rect x="34" y="121" width="40" height="20" fill="rgba(230,230,230,1)"><title>$or$alu.v:40$9:A
$or$alu.v:40$9:B
$or$alu.v:40$9:Y</title></rect><text x="54" y="131" text-anchor="middle" alignment-baseline="middle" fill="black">OR</text><rect x="122" y="121" width="40" height="20" fill="rgba(230,230,230,1)"><title>$sshl$alu.v:55$14:Y</title></rect><text x="142" y="131" text-anchor="middle" alignment-baseline="middle" fill="black">*</text><rect x="78" y="99" width="40" height="20" fill="rgba(230,230,230,1)"><title>$sshl$alu.v:55$14:B</title></rect><text x="98" y="109" text-anchor="middle" alignment-baseline="middle" fill="black">^</text><rect x="122" y="143" width="40" height="20" fill="rgba(230,230,230,1)"><title>$sshl$alu.v:55$14:A</title></rect><text x="142" y="153" text-anchor="middle" alignment-baseline="middle" fill="black">+</text><rect x="78" y="209" width="40" height="20" fill="rgba(230,230,230,1)"><title>$xor$alu.v:46$11:A
$xor$alu.v:46$11:B
$xor$alu.v:46$11:Y</title></rect><text x="98" y="219" text-anchor="middle" alignment-baseline="middle" fill="black">XOR</text><rect x="78" y="121" width="40" height="20" fill="rgba(230,230,230,1)"><title>$mod$alu.v:28$6:A
$mod$alu.v:28$6:B
$mod$alu.v:28$6:Y</title></rect><text x="98" y="131" text-anchor="middle" alignment-baseline="middle" fill="black">%</text><rect x="78" y="33" width="40" height="20" fill="rgba(230,230,230,1)"><title>$div$alu.v:25$5:A
$div$alu.v:25$5:B
$div$alu.v:25$5:Y</title></rect><text x="98" y="43" text-anchor="middle" alignment-baseline="middle" fill="black">/</text><rect x="78" y="55" width="40" height="20" fill="rgba(230,230,230,1)"><title>$mul$alu.v:22$4:A
$mul$alu.v:22$4:B
$mul$alu.v:22$4:Y</title></rect><text x="98" y="65" text-anchor="middle" alignment-baseline="middle" fill="black">*</text><rect x="232" y="99" width="40" height="20" fill="rgba(230,230,230,1)"><title>$add$alu.v:16$2:A
$add$alu.v:16$2:B
$add$alu.v:16$2:Y</title></rect><text x="252" y="109" text-anchor="middle" alignment-baseline="middle" fill="black">+</text><rect x="232" y="121" width="40" height="20" fill="rgba(230,230,230,1)"><title>$abc$188$auto$blifparse.cc:519:parse_blif$189:A0
$abc$188$auto$blifparse.cc:519:parse_blif$189:A1
$abc$188$auto$blifparse.cc:519:parse_blif$189:A2
$abc$188$auto$blifparse.cc:519:parse_blif$189:A3
$abc$188$auto$blifparse.cc:519:parse_blif$189:Y</title></rect><text x="252" y="131" text-anchor="middle" alignment-baseline="middle" fill="black">=</text><rect x="78" y="77" width="40" height="20" fill="rgba(230,230,230,1)"><title>$sshr$alu.v:58$15:A
$sshr$alu.v:58$15:B
$sshr$alu.v:58$15:Y</title></rect><text x="98" y="87" text-anchor="middle" alignment-baseline="middle" fill="black">&gt;&gt;</text><rect x="188" y="143" width="40" height="20" fill="rgba(230,230,230,1)"><title>$sub$alu.v:19$3:A
$sub$alu.v:19$3:B
$sub$alu.v:19$3:Y</title></rect><text x="208" y="153" text-anchor="middle" alignment-baseline="middle" fill="black">-</text><rect x="34" y="209" width="40" height="20" fill="rgba(230,230,230,1)"><title>$neg$alu.v:37$8:A
$neg$alu.v:37$8:Y</title></rect><text x="54" y="219" text-anchor="middle" alignment-baseline="middle" fill="black">-</text><rect x="122" y="187" width="40" height="20" fill="rgba(230,230,230,1)"><title>$eq$alu.v:52$13:A
$eq$alu.v:52$13:B
$eq$alu.v:52$13:Y</title></rect><text x="142" y="197" text-anchor="middle" alignment-baseline="middle" fill="black">=</text><rect x="122" y="33" width="40" height="20" fill="rgba(230,230,230,1)"><title>$pow$alu.v:34$7:A
$pow$alu.v:34$7:B
$pow$alu.v:34$7:Y</title></rect><text x="142" y="43" text-anchor="middle" alignment-baseline="middle" fill="black">^</text><rect x="232" y="77" width="40" height="20" fill="rgba(230,230,230,1)"><title>$swizzle:Y</title></rect><text x="252" y="87" text-anchor="middle" alignment-baseline="middle" fill="black">AND</text><rect x="276" y="33" width="40" height="20" fill="rgba(230,230,230,1)"><title>$swizzle:A</title></rect><text x="296" y="43" text-anchor="middle" alignment-baseline="middle" fill="black">&gt;&gt;</text><rect x="232" y="33" width="40" height="20" fill="rgba(230,230,230,1)"><title>$swizzle:Y</title></rect><text x="252" y="43" text-anchor="middle" alignment-baseline="middle" fill="black">AND</text><rect x="276" y="77" width="40" height="20" fill="rgba(230,230,230,1)"><title>$swizzle:A</title></rect><text x="296" y="87" text-anchor="middle" alignment-baseline="middle" fill="black">&gt;&gt;</text><rect x="232" y="55" width="40" height="20" fill="rgba(230,230,230,1)"><title>$swizzle:Y</title></rect><text x="252" y="65" text-anchor="middle" alignment-baseline="middle" fill="black">AND</text><rect x="276" y="55" width="40" height="20" fill="rgba(230,230,230,1)"><title>$swizzle:A</title></rect><text x="296" y="65" text-anchor="middle" alignment-baseline="middle" fill="black">&gt;&gt;</text><circle cx="174" cy="108" r="5" fill="rgb(101,67,33)"></circle><circle cx="174" cy="86" r="5" fill="rgb(101,67,33)"></circle><circle cx="196" cy="174" r="5" fill="rgb(101,67,33)"></circle><circle cx="174" cy="152" r="5" fill="rgb(101,67,33)"></circle><line x1="38" y1="60" x2="175" y2="109" stroke="red" stroke-width="1" /><line x1="38" y1="70" x2="175" y2="111" stroke="green" stroke-width="1" /><line x1="38" y1="148" x2="175" y2="87" stroke="red" stroke-width="1" /><line x1="38" y1="158" x2="175" y2="89" stroke="green" stroke-width="1" /><line x1="38" y1="148" x2="175" y2="87" stroke="red" stroke-width="1" /><line x1="38" y1="158" x2="175" y2="89" stroke="green" stroke-width="1" /><line x1="38" y1="148" x2="175" y2="87" stroke="red" stroke-width="1" /><line x1="38" y1="158" x2="175" y2="89" stroke="green" stroke-width="1" /><line x1="38" y1="148" x2="175" y2="87" stroke="red" stroke-width="1" /><line x1="38" y1="158" x2="175" y2="89" stroke="green" stroke-width="1" /><line x1="38" y1="148" x2="197" y2="175" stroke="red" stroke-width="1" /><line x1="38" y1="158" x2="197" y2="177" stroke="green" stroke-width="1" /><line x1="38" y1="148" x2="175" y2="87" stroke="red" stroke-width="1" /><line x1="38" y1="158" x2="175" y2="89" stroke="green" stroke-width="1" /><line x1="38" y1="148" x2="175" y2="87" stroke="red" stroke-width="1" /><line x1="38" y1="158" x2="175" y2="89" stroke="green" stroke-width="1" /><line x1="88" y1="258" x2="175" y2="153" stroke="red" stroke-width="1" /><line x1="88" y1="268" x2="175" y2="155" stroke="green" stroke-width="1" /><line x1="242" y1="104" x2="175" y2="109" stroke="red" stroke-width="1" /><line x1="242" y1="126" x2="197" y2="175" stroke="red" stroke-width="1" /><line x1="152" y1="38" x2="175" y2="153" stroke="red" stroke-width="1" /><line x1="262" y1="82" x2="175" y2="87" stroke="red" stroke-width="1" /><line x1="286" y1="38" x2="175" y2="87" stroke="red" stroke-width="1" /><line x1="262" y1="38" x2="175" y2="87" stroke="red" stroke-width="1" /><line x1="286" y1="82" x2="175" y2="87" stroke="red" stroke-width="1" /><line x1="262" y1="60" x2="175" y2="87" stroke="red" stroke-width="1" /><line x1="286" y1="60" x2="175" y2="87" stroke="red" stroke-width="1" /><line x1="38" y1="148" x2="88" y2="192" stroke="red" stroke-width="1" /><line x1="126" y1="60" x2="88" y2="192" stroke="red" stroke-width="1" /><line x1="38" y1="148" x2="132" y2="104" stroke="red" stroke-width="1" /><line x1="108" y1="82" x2="132" y2="104" stroke="red" stroke-width="1" /><line x1="152" y1="104" x2="108" y2="192" stroke="red" stroke-width="1" /><line x1="108" y1="192" x2="152" y2="104" stroke="red" stroke-width="1" /><line x1="88" y1="192" x2="132" y2="104" stroke="red" stroke-width="1" /><line x1="132" y1="104" x2="88" y2="192" stroke="red" stroke-width="1" /><line x1="152" y1="126" x2="132" y2="82" stroke="red" stroke-width="1" /><line x1="38" y1="148" x2="132" y2="82" stroke="red" stroke-width="1" /><line x1="152" y1="104" x2="152" y2="82" stroke="red" stroke-width="1" /><line x1="152" y1="82" x2="152" y2="104" stroke="red" stroke-width="1" /><line x1="132" y1="82" x2="132" y2="104" stroke="red" stroke-width="1" /><line x1="132" y1="104" x2="132" y2="82" stroke="red" stroke-width="1" /><line x1="152" y1="192" x2="44" y2="236" stroke="red" stroke-width="1" /><line x1="38" y1="148" x2="44" y2="236" stroke="red" stroke-width="1" /><line x1="152" y1="82" x2="64" y2="236" stroke="red" stroke-width="1" /><line x1="64" y1="236" x2="152" y2="82" stroke="red" stroke-width="1" /><line x1="44" y1="236" x2="132" y2="82" stroke="red" stroke-width="1" /><line x1="132" y1="82" x2="44" y2="236" stroke="red" stroke-width="1" /><line x1="38" y1="148" x2="44" y2="258" stroke="red" stroke-width="1" /><line x1="64" y1="82" x2="44" y2="258" stroke="red" stroke-width="1" /><line x1="64" y1="258" x2="64" y2="236" stroke="red" stroke-width="1" /><line x1="64" y1="236" x2="64" y2="258" stroke="red" stroke-width="1" /><line x1="44" y1="236" x2="44" y2="258" stroke="red" stroke-width="1" /><line x1="44" y1="258" x2="44" y2="236" stroke="red" stroke-width="1" /><line x1="38" y1="148" x2="44" y2="280" stroke="red" stroke-width="1" /><line x1="108" y1="214" x2="44" y2="280" stroke="red" stroke-width="1" /><line x1="64" y1="280" x2="64" y2="258" stroke="red" stroke-width="1" /><line x1="64" y1="258" x2="64" y2="280" stroke="red" stroke-width="1" /><line x1="44" y1="258" x2="44" y2="280" stroke="red" stroke-width="1" /><line x1="44" y1="280" x2="44" y2="258" stroke="red" stroke-width="1" /><line x1="38" y1="148" x2="44" y2="302" stroke="red" stroke-width="1" /><line x1="64" y1="104" x2="44" y2="302" stroke="red" stroke-width="1" /><line x1="64" y1="280" x2="64" y2="302" stroke="red" stroke-width="1" /><line x1="64" y1="302" x2="64" y2="280" stroke="red" stroke-width="1" /><line x1="44" y1="280" x2="44" y2="302" stroke="red" stroke-width="1" /><line x1="44" y1="302" x2="44" y2="280" stroke="red" stroke-width="1" /><line x1="64" y1="126" x2="88" y2="302" stroke="red" stroke-width="1" /><line x1="38" y1="148" x2="88" y2="302" stroke="red" stroke-width="1" /><line x1="64" y1="302" x2="108" y2="302" stroke="red" stroke-width="1" /><line x1="108" y1="302" x2="64" y2="302" stroke="red" stroke-width="1" /><line x1="88" y1="302" x2="44" y2="302" stroke="red" stroke-width="1" /><line x1="44" y1="302" x2="88" y2="302" stroke="red" stroke-width="1" /><line x1="38" y1="148" x2="88" y2="280" stroke="red" stroke-width="1" /><line x1="64" y1="214" x2="88" y2="280" stroke="red" stroke-width="1" /><line x1="108" y1="302" x2="108" y2="280" stroke="red" stroke-width="1" /><line x1="108" y1="280" x2="108" y2="302" stroke="red" stroke-width="1" /><line x1="88" y1="280" x2="88" y2="302" stroke="red" stroke-width="1" /><line x1="88" y1="302" x2="88" y2="280" stroke="red" stroke-width="1" /><line x1="38" y1="148" x2="88" y2="258" stroke="red" stroke-width="1" /><line x1="108" y1="258" x2="108" y2="280" stroke="red" stroke-width="1" /><line x1="108" y1="280" x2="108" y2="258" stroke="red" stroke-width="1" /><line x1="88" y1="258" x2="88" y2="280" stroke="red" stroke-width="1" /><line x1="88" y1="280" x2="88" y2="258" stroke="red" stroke-width="1" /><line x1="38" y1="60" x2="88" y2="148" stroke="red" stroke-width="1" /><line x1="38" y1="148" x2="88" y2="148" stroke="red" stroke-width="1" /><line x1="108" y1="148" x2="108" y2="258" stroke="red" stroke-width="1" /><line x1="108" y1="258" x2="108" y2="148" stroke="red" stroke-width="1" /><line x1="88" y1="148" x2="88" y2="258" stroke="red" stroke-width="1" /><line x1="88" y1="258" x2="88" y2="148" stroke="red" stroke-width="1" /><line x1="108" y1="126" x2="198" y2="60" stroke="red" stroke-width="1" /><line x1="38" y1="148" x2="198" y2="60" stroke="red" stroke-width="1" /><line x1="218" y1="60" x2="108" y2="148" stroke="red" stroke-width="1" /><line x1="108" y1="148" x2="218" y2="60" stroke="red" stroke-width="1" /><line x1="88" y1="148" x2="198" y2="60" stroke="red" stroke-width="1" /><line x1="198" y1="60" x2="88" y2="148" stroke="red" stroke-width="1" /><line x1="108" y1="38" x2="198" y2="82" stroke="red" stroke-width="1" /><line x1="38" y1="148" x2="198" y2="82" stroke="red" stroke-width="1" /><line x1="218" y1="60" x2="218" y2="82" stroke="red" stroke-width="1" /><line x1="218" y1="82" x2="218" y2="60" stroke="red" stroke-width="1" /><line x1="198" y1="82" x2="198" y2="60" stroke="red" stroke-width="1" /><line x1="198" y1="60" x2="198" y2="82" stroke="red" stroke-width="1" /><line x1="38" y1="148" x2="198" y2="104" stroke="red" stroke-width="1" /><line x1="108" y1="60" x2="198" y2="104" stroke="red" stroke-width="1" /><line x1="218" y1="104" x2="218" y2="82" stroke="red" stroke-width="1" /><line x1="218" y1="82" x2="218" y2="104" stroke="red" stroke-width="1" /><line x1="198" y1="104" x2="198" y2="82" stroke="red" stroke-width="1" /><line x1="198" y1="82" x2="198" y2="104" stroke="red" stroke-width="1" /><line x1="218" y1="148" x2="198" y2="126" stroke="red" stroke-width="1" /><line x1="38" y1="148" x2="198" y2="126" stroke="red" stroke-width="1" /><line x1="218" y1="126" x2="218" y2="104" stroke="red" stroke-width="1" /><line x1="218" y1="104" x2="218" y2="126" stroke="red" stroke-width="1" /><line x1="198" y1="104" x2="198" y2="126" stroke="red" stroke-width="1" /><line x1="198" y1="126" x2="198" y2="104" stroke="red" stroke-width="1" /><line x1="262" y1="104" x2="242" y2="148" stroke="red" stroke-width="1" /><line x1="262" y1="126" x2="242" y2="148" stroke="red" stroke-width="1" /><line x1="218" y1="126" x2="262" y2="148" stroke="red" stroke-width="1" /><line x1="262" y1="148" x2="218" y2="126" stroke="red" stroke-width="1" /><line x1="198" y1="126" x2="242" y2="148" stroke="red" stroke-width="1" /><line x1="242" y1="148" x2="198" y2="126" stroke="red" stroke-width="1" /><line x1="108" y1="192" x2="88" y2="236" stroke="red" stroke-width="1" /><line x1="152" y1="148" x2="132" y2="126" stroke="red" stroke-width="1" /><line x1="108" y1="104" x2="132" y2="126" stroke="red" stroke-width="1" /><line x1="126" y1="60" x2="132" y2="148" stroke="red" stroke-width="1" /><line x1="38" y1="60" x2="88" y2="104" stroke="red" stroke-width="1" /><line x1="262" y1="60" x2="242" y2="126" stroke="red" stroke-width="1" /><line x1="262" y1="82" x2="242" y2="126" stroke="red" stroke-width="1" /><line x1="262" y1="38" x2="242" y2="126" stroke="red" stroke-width="1" /><line x1="108" y1="236" x2="38" y2="192" stroke="red" stroke-width="1" /><line x1="126" y1="60" x2="44" y2="104" stroke="red" stroke-width="1" /><line x1="38" y1="60" x2="44" y2="104" stroke="red" stroke-width="1" /><line x1="126" y1="60" x2="44" y2="82" stroke="red" stroke-width="1" /><line x1="38" y1="60" x2="44" y2="82" stroke="red" stroke-width="1" /><line x1="126" y1="60" x2="44" y2="126" stroke="red" stroke-width="1" /><line x1="38" y1="60" x2="44" y2="126" stroke="red" stroke-width="1" /><line x1="126" y1="60" x2="88" y2="214" stroke="red" stroke-width="1" /><line x1="38" y1="60" x2="88" y2="214" stroke="red" stroke-width="1" /><line x1="126" y1="60" x2="88" y2="126" stroke="red" stroke-width="1" /><line x1="38" y1="60" x2="88" y2="126" stroke="red" stroke-width="1" /><line x1="126" y1="60" x2="88" y2="38" stroke="red" stroke-width="1" /><line x1="38" y1="60" x2="88" y2="38" stroke="red" stroke-width="1" /><line x1="126" y1="60" x2="88" y2="60" stroke="red" stroke-width="1" /><line x1="38" y1="60" x2="88" y2="60" stroke="red" stroke-width="1" /><line x1="126" y1="60" x2="242" y2="104" stroke="red" stroke-width="1" /><line x1="126" y1="60" x2="88" y2="82" stroke="red" stroke-width="1" /><line x1="38" y1="60" x2="88" y2="82" stroke="red" stroke-width="1" /><line x1="126" y1="60" x2="198" y2="148" stroke="red" stroke-width="1" /><line x1="38" y1="60" x2="198" y2="148" stroke="red" stroke-width="1" /><line x1="126" y1="60" x2="44" y2="214" stroke="red" stroke-width="1" /><line x1="126" y1="60" x2="132" y2="192" stroke="red" stroke-width="1" /><line x1="38" y1="60" x2="132" y2="192" stroke="red" stroke-width="1" /><line x1="126" y1="60" x2="132" y2="38" stroke="red" stroke-width="1" /><line x1="38" y1="60" x2="132" y2="38" stroke="red" stroke-width="1" /><line x1="306" y1="38" x2="242" y2="82" stroke="red" stroke-width="1" /><line x1="306" y1="82" x2="242" y2="38" stroke="red" stroke-width="1" /><line x1="306" y1="60" x2="242" y2="60" stroke="red" stroke-width="1" /></svg>