<svg xmlns="http://www.w3.org/2000/svg" width="360" height="359"><rect x="0" y="0" width="360" height="359" fill="rgb(255,255,255)"></rect><rect x="0" y="0" width="340" height="320" fill="rgba(255,255,255,1)"></rect><rect x="99" y="187" width="20" height="20" fill="rgba(230,100,100,1)"><title>data_b</title></rect><text x="109" y="197" text-anchor="middle" alignment-baseline="middle" fill="black">C</text><rect x="297" y="77" width="20" height="20" fill="rgba(100,100,230,1)"><title>result_y</title></rect><text x="307" y="87" text-anchor="middle" alignment-baseline="middle" fill="black">L</text><rect x="143" y="165" width="20" height="20" fill="rgba(230,100,100,1)"><title>data_a</title></rect><text x="153" y="175" text-anchor="middle" alignment-baseline="middle" fill="black">C</text><rect x="209" y="187" width="20" height="20" fill="rgba(230,100,100,1)"><title>select</title></rect><text x="219" y="197" text-anchor="middle" alignment-baseline="middle" fill="black">C</text><rect x="78" y="143" width="40" height="20" fill="rgba(230,230,230,1)"><title>$and$alu.v:43$10:A
$and$alu.v:43$10:B
$and$alu.v:43$10:Y</title></rect><text x="98" y="153" text-anchor="middle" alignment-baseline="middle" fill="black">AND</text><rect x="122" y="121" width="40" height="20" fill="rgba(230,230,230,1)"><title>$gt$alu.v:49$12:A
$gt$alu.v:49$12:B
$gt$alu.v:49$12:Y</title></rect><text x="142" y="131" text-anchor="middle" alignment-baseline="middle" fill="black">&gt;</text><rect x="78" y="99" width="40" height="20" fill="rgba(230,230,230,1)"><title>$procmux$26_CMP0:A
$procmux$26_CMP0:B
$procmux$26_CMP0:Y</title></rect><text x="98" y="109" text-anchor="middle" alignment-baseline="middle" fill="black">=</text><rect x="78" y="121" width="40" height="20" fill="rgba(230,230,230,1)"><title>$or$alu.v:40$9:A
$or$alu.v:40$9:B
$or$alu.v:40$9:Y</title></rect><text x="98" y="131" text-anchor="middle" alignment-baseline="middle" fill="black">OR</text><rect x="56" y="275" width="40" height="20" fill="rgba(230,230,230,1)"><title>$procmux$30_CMP0:A
$procmux$30_CMP0:B
$procmux$30_CMP0:Y</title></rect><text x="76" y="285" text-anchor="middle" alignment-baseline="middle" fill="black">=</text><rect x="254" y="99" width="40" height="20" fill="rgba(230,230,230,1)"><title>$procmux$21_CMP0:A
$procmux$21_CMP0:B
$procmux$21_CMP0:Y</title></rect><text x="274" y="109" text-anchor="middle" alignment-baseline="middle" fill="black">=</text><rect x="232" y="275" width="40" height="20" fill="rgba(230,230,230,1)"><title>$procmux$32_CMP0:A
$procmux$32_CMP0:B
$procmux$32_CMP0:Y</title></rect><text x="252" y="285" text-anchor="middle" alignment-baseline="middle" fill="black">=</text><rect x="232" y="187" width="40" height="20" fill="rgba(230,230,230,1)"><title>$procmux$23_CMP0:A
$procmux$23_CMP0:B
$procmux$23_CMP0:Y</title></rect><text x="252" y="197" text-anchor="middle" alignment-baseline="middle" fill="black">=</text><rect x="166" y="99" width="40" height="20" fill="rgba(230,230,230,1)"><title>$procmux$24_CMP0:A
$procmux$24_CMP0:B
$procmux$24_CMP0:Y</title></rect><text x="186" y="109" text-anchor="middle" alignment-baseline="middle" fill="black">=</text><rect x="78" y="77" width="40" height="20" fill="rgba(230,230,230,1)"><title>$shl$alu.v:55$14:Y</title></rect><text x="98" y="87" text-anchor="middle" alignment-baseline="middle" fill="black">*</text><rect x="34" y="143" width="40" height="20" fill="rgba(230,230,230,1)"><title>$shl$alu.v:55$14:B</title></rect><text x="54" y="153" text-anchor="middle" alignment-baseline="middle" fill="black">^</text><rect x="34" y="99" width="40" height="20" fill="rgba(230,230,230,1)"><title>$shl$alu.v:55$14:A</title></rect><text x="54" y="109" text-anchor="middle" alignment-baseline="middle" fill="black">+</text><rect x="166" y="319" width="40" height="20" fill="rgba(230,230,230,1)"><title>$procmux$31_CMP0:A
$procmux$31_CMP0:B
$procmux$31_CMP0:Y</title></rect><text x="186" y="329" text-anchor="middle" alignment-baseline="middle" fill="black">=</text><rect x="56" y="187" width="40" height="20" fill="rgba(230,230,230,1)"><title>$xor$alu.v:46$11:A
$xor$alu.v:46$11:B
$xor$alu.v:46$11:Y</title></rect><text x="76" y="197" text-anchor="middle" alignment-baseline="middle" fill="black">XOR</text><rect x="122" y="275" width="40" height="20" fill="rgba(230,230,230,1)"><title>$mod$alu.v:28$6:A
$mod$alu.v:28$6:B
$mod$alu.v:28$6:Y</title></rect><text x="142" y="285" text-anchor="middle" alignment-baseline="middle" fill="black">%</text><rect x="166" y="275" width="40" height="20" fill="rgba(230,230,230,1)"><title>$div$alu.v:25$5:A
$div$alu.v:25$5:B
$div$alu.v:25$5:Y</title></rect><text x="186" y="285" text-anchor="middle" alignment-baseline="middle" fill="black">/</text><rect x="166" y="187" width="40" height="20" fill="rgba(230,230,230,1)"><title>$mul$alu.v:22$4:A
$mul$alu.v:22$4:B
$mul$alu.v:22$4:Y</title></rect><text x="186" y="197" text-anchor="middle" alignment-baseline="middle" fill="black">*</text><rect x="210" y="253" width="40" height="20" fill="rgba(230,230,230,1)"><title>$procmux$29_CMP0:A
$procmux$29_CMP0:B
$procmux$29_CMP0:Y</title></rect><text x="230" y="263" text-anchor="middle" alignment-baseline="middle" fill="black">=</text><rect x="210" y="165" width="40" height="20" fill="rgba(230,230,230,1)"><title>$procmux$33_CMP0:A
$procmux$33_CMP0:B
$procmux$33_CMP0:Y</title></rect><text x="230" y="175" text-anchor="middle" alignment-baseline="middle" fill="black">=</text><rect x="210" y="121" width="40" height="20" fill="rgba(230,230,230,1)"><title>$shr$alu.v:58$15:A
$shr$alu.v:58$15:B
$shr$alu.v:58$15:Y</title></rect><text x="230" y="131" text-anchor="middle" alignment-baseline="middle" fill="black">&gt;&gt;</text><rect x="78" y="253" width="40" height="20" fill="rgba(230,230,230,1)"><title>$procmux$25_CMP0:A
$procmux$25_CMP0:B
$procmux$25_CMP0:Y</title></rect><text x="98" y="263" text-anchor="middle" alignment-baseline="middle" fill="black">=</text><rect x="166" y="209" width="40" height="20" fill="rgba(230,230,230,1)"><title>$auto$flowmap.cc:1414:pack_cells$115:A0
$auto$flowmap.cc:1414:pack_cells$115:A1
$auto$flowmap.cc:1414:pack_cells$115:A2
$auto$flowmap.cc:1414:pack_cells$115:A3
$auto$flowmap.cc:1414:pack_cells$115:Y</title></rect><text x="186" y="219" text-anchor="middle" alignment-baseline="middle" fill="black">=</text><rect x="34" y="253" width="40" height="20" fill="rgba(230,230,230,1)"><title>2-pmux|i=0,s=(Id(26), NotEqual, Constant(0)),b=Id(0)
$auto$opt_share.cc:246:merge_operators$41:A
$auto$opt_share.cc:246:merge_operators$41:B0
$auto$opt_share.cc:246:merge_operators$41:S0</title></rect><text x="54" y="263" text-anchor="middle" alignment-baseline="middle" fill="black">≠</text><rect x="34" y="231" width="40" height="20" fill="rgba(230,230,230,1)"><title>2-pmux|i=1,s=(Id(27), NotEqual, Constant(0)),b=Id(25)
$auto$opt_share.cc:246:merge_operators$41:B1
$auto$opt_share.cc:246:merge_operators$41:S1</title></rect><text x="54" y="241" text-anchor="middle" alignment-baseline="middle" fill="black">≠</text><rect x="34" y="297" width="40" height="20" fill="rgba(230,230,230,1)"><title>2-pmux fallback</title></rect><text x="54" y="307" text-anchor="middle" alignment-baseline="middle" fill="black">=</text><rect x="78" y="209" width="40" height="20" fill="rgba(230,230,230,1)"><title>2-pmux output y
$auto$opt_share.cc:246:merge_operators$41:Y</title></rect><text x="98" y="219" text-anchor="middle" alignment-baseline="middle" fill="black">+</text><rect x="34" y="209" width="40" height="20" fill="rgba(230,230,230,1)"><title>$auto$opt_share.cc:199:merge_operators$38:A
$auto$opt_share.cc:199:merge_operators$38:Y</title></rect><text x="54" y="219" text-anchor="middle" alignment-baseline="middle" fill="black">-</text><rect x="122" y="209" width="40" height="20" fill="rgba(230,230,230,1)"><title>$sub$alu.v:19$3:A
$sub$alu.v:19$3:B
$sub$alu.v:19$3:Y</title></rect><text x="142" y="219" text-anchor="middle" alignment-baseline="middle" fill="black">-</text><rect x="166" y="77" width="40" height="20" fill="rgba(230,230,230,1)"><title>$procmux$22_CMP0:A
$procmux$22_CMP0:B
$procmux$22_CMP0:Y</title></rect><text x="186" y="87" text-anchor="middle" alignment-baseline="middle" fill="black">=</text><rect x="122" y="187" width="40" height="20" fill="rgba(230,230,230,1)"><title>$procmux$34_CMP0:A
$procmux$34_CMP0:B
$procmux$34_CMP0:Y</title></rect><text x="142" y="197" text-anchor="middle" alignment-baseline="middle" fill="black">=</text><rect x="210" y="99" width="40" height="20" fill="rgba(230,230,230,1)"><title>16-pmux|i=0,s=(Id(61), NotEqual, Constant(0)),b=Id(2)
$procmux$19:B0
$procmux$19:S0</title></rect><text x="230" y="109" text-anchor="middle" alignment-baseline="middle" fill="black">≠</text><rect x="232" y="77" width="40" height="20" fill="rgba(230,230,230,1)"><title>16-pmux|i=1,s=(Id(62), NotEqual, Constant(0)),b=Id(36)
$procmux$19:B1
$procmux$19:S1</title></rect><text x="252" y="87" text-anchor="middle" alignment-baseline="middle" fill="black">≠</text><rect x="166" y="55" width="40" height="20" fill="rgba(230,230,230,1)"><title>16-pmux|i=2,s=(Id(64), NotEqual, Constant(0)),b=Id(38)
$procmux$19:B2
$procmux$19:S2</title></rect><text x="186" y="65" text-anchor="middle" alignment-baseline="middle" fill="black">≠</text><rect x="166" y="143" width="40" height="20" fill="rgba(230,230,230,1)"><title>16-pmux|i=3,s=(Id(66), NotEqual, Constant(0)),b=Id(40)
$procmux$19:B3
$procmux$19:S3</title></rect><text x="186" y="153" text-anchor="middle" alignment-baseline="middle" fill="black">≠</text><rect x="122" y="99" width="40" height="20" fill="rgba(230,230,230,1)"><title>16-pmux|i=4,s=(Id(68), NotEqual, Constant(0)),b=Id(41)
$procmux$19:B4
$procmux$19:S4</title></rect><text x="142" y="109" text-anchor="middle" alignment-baseline="middle" fill="black">≠</text><rect x="78" y="165" width="40" height="20" fill="rgba(230,230,230,1)"><title>16-pmux|i=5,s=(Id(70), NotEqual, Constant(0)),b=Id(43)
$procmux$19:B5
$procmux$19:S5</title></rect><text x="98" y="175" text-anchor="middle" alignment-baseline="middle" fill="black">≠</text><rect x="34" y="121" width="40" height="20" fill="rgba(230,230,230,1)"><title>16-pmux|i=6,s=(Id(72), NotEqual, Constant(0)),b=Id(45)
$procmux$19:B6
$procmux$19:S6</title></rect><text x="54" y="131" text-anchor="middle" alignment-baseline="middle" fill="black">≠</text><rect x="122" y="55" width="40" height="20" fill="rgba(230,230,230,1)"><title>16-pmux|i=7,s=(Id(74), NotEqual, Constant(0)),b=Id(47)
$procmux$19:B7
$procmux$19:S7</title></rect><text x="142" y="65" text-anchor="middle" alignment-baseline="middle" fill="black">≠</text><rect x="254" y="143" width="40" height="20" fill="rgba(230,230,230,1)"><title>16-pmux|i=8,s=(Id(75), NotEqual, Constant(0)),b=Id(49)
$procmux$19:B8
$procmux$19:S8</title></rect><text x="274" y="153" text-anchor="middle" alignment-baseline="middle" fill="black">≠</text><rect x="122" y="253" width="40" height="20" fill="rgba(230,230,230,1)"><title>16-pmux|i=9,s=(Id(76), NotEqual, Constant(0)),b=Id(50)
$procmux$19:B9
$procmux$19:S9</title></rect><text x="142" y="263" text-anchor="middle" alignment-baseline="middle" fill="black">≠</text><rect x="100" y="297" width="40" height="20" fill="rgba(230,230,230,1)"><title>16-pmux|i=10,s=(Id(78), NotEqual, Constant(0)),b=Id(0)
$procmux$19:B10
$procmux$19:S10</title></rect><text x="120" y="307" text-anchor="middle" alignment-baseline="middle" fill="black">≠</text><rect x="144" y="297" width="40" height="20" fill="rgba(230,230,230,1)"><title>16-pmux|i=11,s=(Id(80), NotEqual, Constant(0)),b=Id(52)
$procmux$19:B11
$procmux$19:S11</title></rect><text x="164" y="307" text-anchor="middle" alignment-baseline="middle" fill="black">≠</text><rect x="188" y="297" width="40" height="20" fill="rgba(230,230,230,1)"><title>16-pmux|i=12,s=(Id(82), NotEqual, Constant(0)),b=Id(54)
$procmux$19:B12
$procmux$19:S12</title></rect><text x="208" y="307" text-anchor="middle" alignment-baseline="middle" fill="black">≠</text><rect x="166" y="253" width="40" height="20" fill="rgba(230,230,230,1)"><title>16-pmux|i=13,s=(Id(84), NotEqual, Constant(0)),b=Id(56)
$procmux$19:B13
$procmux$19:S13</title></rect><text x="186" y="263" text-anchor="middle" alignment-baseline="middle" fill="black">≠</text><rect x="166" y="231" width="40" height="20" fill="rgba(230,230,230,1)"><title>16-pmux|i=14,s=(Id(26), NotEqual, Constant(0)),b=Id(58)
$procmux$19:B14
$procmux$19:S14</title></rect><text x="186" y="241" text-anchor="middle" alignment-baseline="middle" fill="black">≠</text><rect x="210" y="143" width="40" height="20" fill="rgba(230,230,230,1)"><title>16-pmux|i=15,s=(Id(27), NotEqual, Constant(0)),b=Id(58)
$procmux$19:B15
$procmux$19:S15</title></rect><text x="230" y="153" text-anchor="middle" alignment-baseline="middle" fill="black">≠</text><rect x="254" y="55" width="40" height="20" fill="rgba(230,230,230,1)"><title>16-pmux output y
$procmux$19:Y</title></rect><text x="274" y="65" text-anchor="middle" alignment-baseline="middle" fill="black">+</text><rect x="166" y="121" width="40" height="20" fill="rgba(230,230,230,1)"><title>$procmux$20_CMP0:A
$procmux$20_CMP0:B
$procmux$20_CMP0:Y</title></rect><text x="186" y="131" text-anchor="middle" alignment-baseline="middle" fill="black">=</text><rect x="276" y="121" width="40" height="20" fill="rgba(230,230,230,1)"><title>$neg$alu.v:37$8:A
$neg$alu.v:37$8:Y</title></rect><text x="296" y="131" text-anchor="middle" alignment-baseline="middle" fill="black">-</text><rect x="122" y="231" width="40" height="20" fill="rgba(230,230,230,1)"><title>$eq$alu.v:52$13:A
$eq$alu.v:52$13:B
$eq$alu.v:52$13:Y</title></rect><text x="142" y="241" text-anchor="middle" alignment-baseline="middle" fill="black">=</text><rect x="122" y="77" width="40" height="20" fill="rgba(230,230,230,1)"><title>$procmux$27_CMP0:A
$procmux$27_CMP0:B
$procmux$27_CMP0:Y</title></rect><text x="142" y="87" text-anchor="middle" alignment-baseline="middle" fill="black">=</text><rect x="298" y="143" width="40" height="20" fill="rgba(230,230,230,1)"><title>$procmux$28_CMP0:A
$procmux$28_CMP0:B
$procmux$28_CMP0:Y</title></rect><text x="318" y="153" text-anchor="middle" alignment-baseline="middle" fill="black">=</text><rect x="78" y="231" width="40" height="20" fill="rgba(230,230,230,1)"><title>$pow$alu.v:34$7:A
$pow$alu.v:34$7:B
$pow$alu.v:34$7:Y</title></rect><text x="98" y="241" text-anchor="middle" alignment-baseline="middle" fill="black">^</text><rect x="55" y="55" width="20" height="20" fill="rgba(230,230,230,1)"><title>$constant:Y</title></rect><text x="65" y="65" text-anchor="middle" alignment-baseline="middle" fill="black">C</text><rect x="33" y="275" width="20" height="20" fill="rgba(230,230,230,1)"><title>$constant:Y</title></rect><text x="43" y="285" text-anchor="middle" alignment-baseline="middle" fill="black">C</text><rect x="297" y="99" width="20" height="20" fill="rgba(230,230,230,1)"><title>$constant:Y</title></rect><text x="307" y="109" text-anchor="middle" alignment-baseline="middle" fill="black">C</text><rect x="231" y="297" width="20" height="20" fill="rgba(230,230,230,1)"><title>$constant:Y</title></rect><text x="241" y="307" text-anchor="middle" alignment-baseline="middle" fill="black">C</text><rect x="297" y="209" width="20" height="20" fill="rgba(230,230,230,1)"><title>$constant:Y</title></rect><text x="307" y="219" text-anchor="middle" alignment-baseline="middle" fill="black">C</text><rect x="143" y="33" width="20" height="20" fill="rgba(230,230,230,1)"><title>$constant:Y</title></rect><text x="153" y="43" text-anchor="middle" alignment-baseline="middle" fill="black">C</text><rect x="143" y="319" width="20" height="20" fill="rgba(230,230,230,1)"><title>$constant:Y</title></rect><text x="153" y="329" text-anchor="middle" alignment-baseline="middle" fill="black">C</text><rect x="275" y="275" width="20" height="20" fill="rgba(230,230,230,1)"><title>$constant:Y</title></rect><text x="285" y="285" text-anchor="middle" alignment-baseline="middle" fill="black">C</text><rect x="253" y="121" width="20" height="20" fill="rgba(230,230,230,1)"><title>$constant:Y</title></rect><text x="263" y="131" text-anchor="middle" alignment-baseline="middle" fill="black">C</text><rect x="77" y="319" width="20" height="20" fill="rgba(230,230,230,1)"><title>$constant:Y</title></rect><text x="87" y="329" text-anchor="middle" alignment-baseline="middle" fill="black">C</text><rect x="298" y="165" width="40" height="20" fill="rgba(230,230,230,1)"><title>$swizzle:A</title></rect><text x="318" y="175" text-anchor="middle" alignment-baseline="middle" fill="black">AND</text><rect x="254" y="165" width="40" height="20" fill="rgba(230,230,230,1)"><title>$swizzle:Y</title></rect><text x="274" y="175" text-anchor="middle" alignment-baseline="middle" fill="black">&gt;&gt;</text><rect x="254" y="253" width="40" height="20" fill="rgba(230,230,230,1)"><title>$swizzle:A</title></rect><text x="274" y="263" text-anchor="middle" alignment-baseline="middle" fill="black">AND</text><rect x="254" y="209" width="40" height="20" fill="rgba(230,230,230,1)"><title>$swizzle:Y</title></rect><text x="274" y="219" text-anchor="middle" alignment-baseline="middle" fill="black">&gt;&gt;</text><rect x="254" y="231" width="40" height="20" fill="rgba(230,230,230,1)"><title>$swizzle:A</title></rect><text x="274" y="241" text-anchor="middle" alignment-baseline="middle" fill="black">AND</text><rect x="276" y="187" width="40" height="20" fill="rgba(230,230,230,1)"><title>$swizzle:Y</title></rect><text x="296" y="197" text-anchor="middle" alignment-baseline="middle" fill="black">&gt;&gt;</text><rect x="33" y="319" width="20" height="20" fill="rgba(230,230,230,1)"><title>$constant:Y</title></rect><text x="43" y="329" text-anchor="middle" alignment-baseline="middle" fill="black">C</text><rect x="209" y="77" width="20" height="20" fill="rgba(230,230,230,1)"><title>$constant:Y</title></rect><text x="219" y="87" text-anchor="middle" alignment-baseline="middle" fill="black">C</text><rect x="55" y="77" width="20" height="20" fill="rgba(230,230,230,1)"><title>$constant:Y</title></rect><text x="65" y="87" text-anchor="middle" alignment-baseline="middle" fill="black">C</text><rect x="209" y="55" width="20" height="20" fill="rgba(230,230,230,1)"><title>$constant:Y</title></rect><text x="219" y="65" text-anchor="middle" alignment-baseline="middle" fill="black">C</text><rect x="121" y="33" width="20" height="20" fill="rgba(230,230,230,1)"><title>$constant:Y</title></rect><text x="131" y="43" text-anchor="middle" alignment-baseline="middle" fill="black">C</text><rect x="319" y="121" width="20" height="20" fill="rgba(230,230,230,1)"><title>$constant:Y</title></rect><text x="329" y="131" text-anchor="middle" alignment-baseline="middle" fill="black">C</text><rect x="209" y="209" width="40" height="40" fill="rgba(101,101,101,1)"></rect><text x="229" y="229" text-anchor="middle" alignment-baseline="middle" fill="black">SS</text><line x1="64" y1="104" x2="88" y2="82" stroke="red" stroke-width="1" /><line x1="64" y1="148" x2="88" y2="82" stroke="red" stroke-width="1" /><line x1="148" y1="170" x2="44" y2="104" stroke="red" stroke-width="1" /><line x1="104" y1="192" x2="44" y2="148" stroke="red" stroke-width="1" /><line x1="214" y1="192" x2="176" y2="214" stroke="red" stroke-width="1" /><line x1="284" y1="170" x2="176" y2="214" stroke="red" stroke-width="1" /><line x1="306" y1="192" x2="176" y2="214" stroke="red" stroke-width="1" /><line x1="284" y1="214" x2="176" y2="214" stroke="red" stroke-width="1" /><line x1="104" y1="192" x2="44" y2="258" stroke="red" stroke-width="1" /><line x1="152" y1="192" x2="44" y2="258" stroke="red" stroke-width="1" /><line x1="64" y1="214" x2="44" y2="236" stroke="red" stroke-width="1" /><line x1="196" y1="214" x2="44" y2="236" stroke="red" stroke-width="1" /><line x1="64" y1="258" x2="64" y2="236" stroke="red" stroke-width="1" /><line x1="64" y1="236" x2="64" y2="258" stroke="red" stroke-width="1" /><line x1="44" y1="258" x2="44" y2="236" stroke="red" stroke-width="1" /><line x1="44" y1="236" x2="44" y2="258" stroke="red" stroke-width="1" /><line x1="64" y1="258" x2="64" y2="302" stroke="red" stroke-width="1" /><line x1="64" y1="302" x2="64" y2="258" stroke="red" stroke-width="1" /><line x1="38" y1="324" x2="44" y2="258" stroke="red" stroke-width="1" /><line x1="38" y1="324" x2="44" y2="302" stroke="red" stroke-width="1" /><line x1="64" y1="258" x2="88" y2="214" stroke="red" stroke-width="1" /><line x1="196" y1="126" x2="220" y2="104" stroke="red" stroke-width="1" /><line x1="148" y1="170" x2="220" y2="104" stroke="red" stroke-width="1" /><line x1="284" y1="104" x2="242" y2="82" stroke="red" stroke-width="1" /><line x1="240" y1="126" x2="242" y2="82" stroke="red" stroke-width="1" /><line x1="262" y1="82" x2="240" y2="104" stroke="red" stroke-width="1" /><line x1="240" y1="104" x2="262" y2="82" stroke="red" stroke-width="1" /><line x1="242" y1="82" x2="220" y2="104" stroke="red" stroke-width="1" /><line x1="220" y1="104" x2="242" y2="82" stroke="red" stroke-width="1" /><line x1="196" y1="82" x2="176" y2="60" stroke="red" stroke-width="1" /><line x1="108" y1="82" x2="176" y2="60" stroke="red" stroke-width="1" /><line x1="262" y1="82" x2="196" y2="60" stroke="red" stroke-width="1" /><line x1="196" y1="60" x2="262" y2="82" stroke="red" stroke-width="1" /><line x1="242" y1="82" x2="176" y2="60" stroke="red" stroke-width="1" /><line x1="176" y1="60" x2="242" y2="82" stroke="red" stroke-width="1" /><line x1="152" y1="236" x2="176" y2="148" stroke="red" stroke-width="1" /><line x1="262" y1="192" x2="176" y2="148" stroke="red" stroke-width="1" /><line x1="196" y1="148" x2="196" y2="60" stroke="red" stroke-width="1" /><line x1="196" y1="60" x2="196" y2="148" stroke="red" stroke-width="1" /><line x1="176" y1="60" x2="176" y2="148" stroke="red" stroke-width="1" /><line x1="176" y1="148" x2="176" y2="60" stroke="red" stroke-width="1" /><line x1="196" y1="104" x2="132" y2="104" stroke="red" stroke-width="1" /><line x1="152" y1="126" x2="132" y2="104" stroke="red" stroke-width="1" /><line x1="152" y1="104" x2="196" y2="148" stroke="red" stroke-width="1" /><line x1="196" y1="148" x2="152" y2="104" stroke="red" stroke-width="1" /><line x1="132" y1="104" x2="176" y2="148" stroke="red" stroke-width="1" /><line x1="176" y1="148" x2="132" y2="104" stroke="red" stroke-width="1" /><line x1="86" y1="192" x2="88" y2="170" stroke="red" stroke-width="1" /><line x1="108" y1="258" x2="88" y2="170" stroke="red" stroke-width="1" /><line x1="152" y1="104" x2="108" y2="170" stroke="red" stroke-width="1" /><line x1="108" y1="170" x2="152" y2="104" stroke="red" stroke-width="1" /><line x1="132" y1="104" x2="88" y2="170" stroke="red" stroke-width="1" /><line x1="88" y1="170" x2="132" y2="104" stroke="red" stroke-width="1" /><line x1="108" y1="148" x2="44" y2="126" stroke="red" stroke-width="1" /><line x1="108" y1="104" x2="44" y2="126" stroke="red" stroke-width="1" /><line x1="64" y1="126" x2="108" y2="170" stroke="red" stroke-width="1" /><line x1="108" y1="170" x2="64" y2="126" stroke="red" stroke-width="1" /><line x1="88" y1="170" x2="44" y2="126" stroke="red" stroke-width="1" /><line x1="44" y1="126" x2="88" y2="170" stroke="red" stroke-width="1" /><line x1="152" y1="82" x2="132" y2="60" stroke="red" stroke-width="1" /><line x1="108" y1="126" x2="132" y2="60" stroke="red" stroke-width="1" /><line x1="64" y1="126" x2="152" y2="60" stroke="red" stroke-width="1" /><line x1="152" y1="60" x2="64" y2="126" stroke="red" stroke-width="1" /><line x1="132" y1="60" x2="44" y2="126" stroke="red" stroke-width="1" /><line x1="44" y1="126" x2="132" y2="60" stroke="red" stroke-width="1" /><line x1="306" y1="126" x2="264" y2="148" stroke="red" stroke-width="1" /><line x1="328" y1="148" x2="264" y2="148" stroke="red" stroke-width="1" /><line x1="284" y1="148" x2="152" y2="60" stroke="red" stroke-width="1" /><line x1="152" y1="60" x2="284" y2="148" stroke="red" stroke-width="1" /><line x1="264" y1="148" x2="132" y2="60" stroke="red" stroke-width="1" /><line x1="132" y1="60" x2="264" y2="148" stroke="red" stroke-width="1" /><line x1="240" y1="258" x2="132" y2="258" stroke="red" stroke-width="1" /><line x1="108" y1="236" x2="132" y2="258" stroke="red" stroke-width="1" /><line x1="284" y1="148" x2="152" y2="258" stroke="red" stroke-width="1" /><line x1="152" y1="258" x2="284" y2="148" stroke="red" stroke-width="1" /><line x1="132" y1="258" x2="264" y2="148" stroke="red" stroke-width="1" /><line x1="264" y1="148" x2="132" y2="258" stroke="red" stroke-width="1" /><line x1="104" y1="192" x2="110" y2="302" stroke="red" stroke-width="1" /><line x1="86" y1="280" x2="110" y2="302" stroke="red" stroke-width="1" /><line x1="130" y1="302" x2="152" y2="258" stroke="red" stroke-width="1" /><line x1="152" y1="258" x2="130" y2="302" stroke="red" stroke-width="1" /><line x1="132" y1="258" x2="110" y2="302" stroke="red" stroke-width="1" /><line x1="110" y1="302" x2="132" y2="258" stroke="red" stroke-width="1" /><line x1="196" y1="324" x2="154" y2="302" stroke="red" stroke-width="1" /><line x1="152" y1="280" x2="154" y2="302" stroke="red" stroke-width="1" /><line x1="130" y1="302" x2="174" y2="302" stroke="red" stroke-width="1" /><line x1="174" y1="302" x2="130" y2="302" stroke="red" stroke-width="1" /><line x1="110" y1="302" x2="154" y2="302" stroke="red" stroke-width="1" /><line x1="154" y1="302" x2="110" y2="302" stroke="red" stroke-width="1" /><line x1="262" y1="280" x2="198" y2="302" stroke="red" stroke-width="1" /><line x1="196" y1="280" x2="198" y2="302" stroke="red" stroke-width="1" /><line x1="218" y1="302" x2="174" y2="302" stroke="red" stroke-width="1" /><line x1="174" y1="302" x2="218" y2="302" stroke="red" stroke-width="1" /><line x1="198" y1="302" x2="154" y2="302" stroke="red" stroke-width="1" /><line x1="154" y1="302" x2="198" y2="302" stroke="red" stroke-width="1" /><line x1="240" y1="170" x2="176" y2="258" stroke="red" stroke-width="1" /><line x1="196" y1="192" x2="176" y2="258" stroke="red" stroke-width="1" /><line x1="218" y1="302" x2="196" y2="258" stroke="red" stroke-width="1" /><line x1="196" y1="258" x2="218" y2="302" stroke="red" stroke-width="1" /><line x1="176" y1="258" x2="198" y2="302" stroke="red" stroke-width="1" /><line x1="198" y1="302" x2="176" y2="258" stroke="red" stroke-width="1" /><line x1="152" y1="192" x2="176" y2="236" stroke="red" stroke-width="1" /><line x1="152" y1="214" x2="176" y2="236" stroke="red" stroke-width="1" /><line x1="196" y1="236" x2="196" y2="258" stroke="red" stroke-width="1" /><line x1="196" y1="258" x2="196" y2="236" stroke="red" stroke-width="1" /><line x1="176" y1="236" x2="176" y2="258" stroke="red" stroke-width="1" /><line x1="176" y1="258" x2="176" y2="236" stroke="red" stroke-width="1" /><line x1="152" y1="214" x2="220" y2="148" stroke="red" stroke-width="1" /><line x1="196" y1="214" x2="220" y2="148" stroke="red" stroke-width="1" /><line x1="240" y1="148" x2="196" y2="236" stroke="red" stroke-width="1" /><line x1="196" y1="236" x2="240" y2="148" stroke="red" stroke-width="1" /><line x1="220" y1="148" x2="176" y2="236" stroke="red" stroke-width="1" /><line x1="176" y1="236" x2="220" y2="148" stroke="red" stroke-width="1" /><line x1="240" y1="104" x2="264" y2="60" stroke="red" stroke-width="1" /><line x1="284" y1="60" x2="302" y2="82" stroke="red" stroke-width="1" /><line x1="148" y1="170" x2="88" y2="148" stroke="red" stroke-width="1" /><line x1="104" y1="192" x2="88" y2="148" stroke="red" stroke-width="1" /><line x1="148" y1="170" x2="132" y2="126" stroke="red" stroke-width="1" /><line x1="104" y1="192" x2="132" y2="126" stroke="red" stroke-width="1" /><line x1="214" y1="192" x2="88" y2="104" stroke="red" stroke-width="1" /><line x1="60" y1="60" x2="88" y2="104" stroke="red" stroke-width="1" /><line x1="148" y1="170" x2="88" y2="126" stroke="red" stroke-width="1" /><line x1="104" y1="192" x2="88" y2="126" stroke="red" stroke-width="1" /><line x1="214" y1="192" x2="66" y2="280" stroke="red" stroke-width="1" /><line x1="38" y1="280" x2="66" y2="280" stroke="red" stroke-width="1" /><line x1="214" y1="192" x2="264" y2="104" stroke="red" stroke-width="1" /><line x1="302" y1="104" x2="264" y2="104" stroke="red" stroke-width="1" /><line x1="214" y1="192" x2="242" y2="280" stroke="red" stroke-width="1" /><line x1="236" y1="302" x2="242" y2="280" stroke="red" stroke-width="1" /><line x1="214" y1="192" x2="242" y2="192" stroke="red" stroke-width="1" /><line x1="302" y1="214" x2="242" y2="192" stroke="red" stroke-width="1" /><line x1="214" y1="192" x2="176" y2="104" stroke="red" stroke-width="1" /><line x1="148" y1="38" x2="176" y2="104" stroke="red" stroke-width="1" /><line x1="214" y1="192" x2="176" y2="324" stroke="red" stroke-width="1" /><line x1="148" y1="324" x2="176" y2="324" stroke="red" stroke-width="1" /><line x1="148" y1="170" x2="66" y2="192" stroke="red" stroke-width="1" /><line x1="104" y1="192" x2="66" y2="192" stroke="red" stroke-width="1" /><line x1="148" y1="170" x2="132" y2="280" stroke="red" stroke-width="1" /><line x1="104" y1="192" x2="132" y2="280" stroke="red" stroke-width="1" /><line x1="148" y1="170" x2="176" y2="280" stroke="red" stroke-width="1" /><line x1="104" y1="192" x2="176" y2="280" stroke="red" stroke-width="1" /><line x1="148" y1="170" x2="176" y2="192" stroke="red" stroke-width="1" /><line x1="104" y1="192" x2="176" y2="192" stroke="red" stroke-width="1" /><line x1="214" y1="192" x2="220" y2="258" stroke="red" stroke-width="1" /><line x1="280" y1="280" x2="220" y2="258" stroke="red" stroke-width="1" /><line x1="214" y1="192" x2="220" y2="170" stroke="red" stroke-width="1" /><line x1="258" y1="126" x2="220" y2="170" stroke="red" stroke-width="1" /><line x1="148" y1="170" x2="220" y2="126" stroke="red" stroke-width="1" /><line x1="104" y1="192" x2="220" y2="126" stroke="red" stroke-width="1" /><line x1="214" y1="192" x2="88" y2="258" stroke="red" stroke-width="1" /><line x1="82" y1="324" x2="88" y2="258" stroke="red" stroke-width="1" /><line x1="104" y1="192" x2="44" y2="214" stroke="red" stroke-width="1" /><line x1="148" y1="170" x2="132" y2="214" stroke="red" stroke-width="1" /><line x1="108" y1="214" x2="132" y2="214" stroke="red" stroke-width="1" /><line x1="214" y1="192" x2="176" y2="82" stroke="red" stroke-width="1" /><line x1="214" y1="82" x2="176" y2="82" stroke="red" stroke-width="1" /><line x1="214" y1="192" x2="132" y2="192" stroke="red" stroke-width="1" /><line x1="60" y1="82" x2="132" y2="192" stroke="red" stroke-width="1" /><line x1="214" y1="192" x2="176" y2="126" stroke="red" stroke-width="1" /><line x1="214" y1="60" x2="176" y2="126" stroke="red" stroke-width="1" /><line x1="148" y1="170" x2="286" y2="126" stroke="red" stroke-width="1" /><line x1="148" y1="170" x2="132" y2="236" stroke="red" stroke-width="1" /><line x1="104" y1="192" x2="132" y2="236" stroke="red" stroke-width="1" /><line x1="214" y1="192" x2="132" y2="82" stroke="red" stroke-width="1" /><line x1="126" y1="38" x2="132" y2="82" stroke="red" stroke-width="1" /><line x1="214" y1="192" x2="308" y2="148" stroke="red" stroke-width="1" /><line x1="324" y1="126" x2="308" y2="148" stroke="red" stroke-width="1" /><line x1="148" y1="170" x2="88" y2="236" stroke="red" stroke-width="1" /><line x1="104" y1="192" x2="88" y2="236" stroke="red" stroke-width="1" /><line x1="214" y1="192" x2="308" y2="170" stroke="red" stroke-width="1" /><line x1="328" y1="170" x2="264" y2="170" stroke="red" stroke-width="1" /><line x1="214" y1="192" x2="264" y2="258" stroke="red" stroke-width="1" /><line x1="284" y1="258" x2="264" y2="214" stroke="red" stroke-width="1" /><line x1="214" y1="192" x2="264" y2="236" stroke="red" stroke-width="1" /><line x1="284" y1="236" x2="286" y2="192" stroke="red" stroke-width="1" /></svg>