<svg xmlns="http://www.w3.org/2000/svg" width="360" height="269"><rect x="0" y="0" width="360" height="269" fill="rgb(255,255,255)"></rect><rect x="0" y="0" width="340" height="220" fill="rgba(255,255,255,1)"></rect><rect x="121" y="143" width="20" height="20" fill="rgba(230,100,100,1)"><title>signal_S_op_select</title></rect><text x="131" y="153" text-anchor="middle" alignment-baseline="middle" fill="black">C</text><rect x="209" y="121" width="20" height="20" fill="rgba(230,100,100,1)"><title>signal_A</title></rect><text x="219" y="131" text-anchor="middle" alignment-baseline="middle" fill="black">C</text><rect x="319" y="187" width="20" height="20" fill="rgba(100,100,230,1)"><title>signal_Y</title></rect><text x="329" y="197" text-anchor="middle" alignment-baseline="middle" fill="black">L</text><rect x="209" y="99" width="20" height="20" fill="rgba(230,100,100,1)"><title>signal_B</title></rect><text x="219" y="109" text-anchor="middle" alignment-baseline="middle" fill="black">C</text><rect x="210" y="187" width="40" height="20" fill="rgba(230,230,230,1)"><title>$and$alu.v:43$10:A
$and$alu.v:43$10:B
$and$alu.v:43$10:Y</title></rect><text x="230" y="197" text-anchor="middle" alignment-baseline="middle" fill="black">AND</text><rect x="232" y="55" width="40" height="20" fill="rgba(230,230,230,1)"><title>$gt$alu.v:49$12:A
$gt$alu.v:49$12:B
$gt$alu.v:49$12:Y</title></rect><text x="252" y="65" text-anchor="middle" alignment-baseline="middle" fill="black">&gt;</text><rect x="78" y="143" width="40" height="20" fill="rgba(230,230,230,1)"><title>$or$alu.v:40$9:A
$or$alu.v:40$9:B
$or$alu.v:40$9:Y</title></rect><text x="98" y="153" text-anchor="middle" alignment-baseline="middle" fill="black">OR</text><rect x="122" y="77" width="40" height="20" fill="rgba(230,230,230,1)"><title>$shl$alu.v:55$14:Y</title></rect><text x="142" y="87" text-anchor="middle" alignment-baseline="middle" fill="black">*</text><rect x="254" y="165" width="40" height="20" fill="rgba(230,230,230,1)"><title>$shl$alu.v:55$14:B</title></rect><text x="274" y="175" text-anchor="middle" alignment-baseline="middle" fill="black">^</text><rect x="276" y="121" width="40" height="20" fill="rgba(230,230,230,1)"><title>$shl$alu.v:55$14:A</title></rect><text x="296" y="131" text-anchor="middle" alignment-baseline="middle" fill="black">+</text><rect x="34" y="121" width="40" height="20" fill="rgba(230,230,230,1)"><title>$xor$alu.v:46$11:A
$xor$alu.v:46$11:B
$xor$alu.v:46$11:Y</title></rect><text x="54" y="131" text-anchor="middle" alignment-baseline="middle" fill="black">XOR</text><rect x="276" y="55" width="40" height="20" fill="rgba(230,230,230,1)"><title>$mod$alu.v:28$6:A
$mod$alu.v:28$6:B
$mod$alu.v:28$6:Y</title></rect><text x="296" y="65" text-anchor="middle" alignment-baseline="middle" fill="black">%</text><rect x="122" y="165" width="40" height="20" fill="rgba(230,230,230,1)"><title>$div$alu.v:25$5:A
$div$alu.v:25$5:B
$div$alu.v:25$5:Y</title></rect><text x="142" y="175" text-anchor="middle" alignment-baseline="middle" fill="black">/</text><rect x="254" y="77" width="40" height="20" fill="rgba(230,230,230,1)"><title>$mul$alu.v:22$4:A
$mul$alu.v:22$4:B
$mul$alu.v:22$4:Y</title></rect><text x="274" y="87" text-anchor="middle" alignment-baseline="middle" fill="black">*</text><rect x="298" y="77" width="40" height="20" fill="rgba(230,230,230,1)"><title>$shr$alu.v:58$15:A
$shr$alu.v:58$15:B
$shr$alu.v:58$15:Y</title></rect><text x="318" y="87" text-anchor="middle" alignment-baseline="middle" fill="black">&gt;&gt;</text><rect x="78" y="99" width="40" height="20" fill="rgba(230,230,230,1)"><title>$auto$flowmap.cc:1414:pack_cells$115:A1
$auto$flowmap.cc:1414:pack_cells$115:A0
$auto$flowmap.cc:1414:pack_cells$115:Y
$auto$flowmap.cc:1414:pack_cells$115:A3
$auto$flowmap.cc:1414:pack_cells$115:A2</title></rect><text x="98" y="109" text-anchor="middle" alignment-baseline="middle" fill="black">=</text><rect x="232" y="99" width="40" height="20" fill="rgba(230,230,230,1)"><title>2-pmux one-hot, i = 0, s = (Id(235), Equal, Constant(1)), b = Id(0)
$auto$opt_share.cc:246:merge_operators$41:B0
$auto$opt_share.cc:246:merge_operators$41:B1
$auto$opt_share.cc:246:merge_operators$41:S0</title></rect><text x="252" y="109" text-anchor="middle" alignment-baseline="middle" fill="black">=</text><rect x="232" y="121" width="40" height="20" fill="rgba(230,230,230,1)"><title>2-pmux one-hot, i = 1, s = (Constant(0), NotEqual, Constant(0)), b = Id(10)
$auto$opt_share.cc:246:merge_operators$41:S1
$auto$opt_share.cc:246:merge_operators$41:A</title></rect><text x="252" y="131" text-anchor="middle" alignment-baseline="middle" fill="black">≠</text><rect x="276" y="99" width="40" height="20" fill="rgba(230,230,230,1)"></rect><text x="296" y="109" text-anchor="middle" alignment-baseline="middle" fill="black">≠</text><rect x="210" y="165" width="40" height="20" fill="rgba(230,230,230,1)"><title>2-pmux output y
$auto$opt_share.cc:246:merge_operators$41:Y</title></rect><text x="230" y="175" text-anchor="middle" alignment-baseline="middle" fill="black">+</text><rect x="188" y="55" width="40" height="20" fill="rgba(230,230,230,1)"><title>$auto$opt_share.cc:199:merge_operators$38:A
$auto$opt_share.cc:199:merge_operators$38:Y</title></rect><text x="208" y="65" text-anchor="middle" alignment-baseline="middle" fill="black">-</text><rect x="166" y="165" width="40" height="20" fill="rgba(230,230,230,1)"><title>$sub$alu.v:19$3:A
$sub$alu.v:19$3:B
$sub$alu.v:19$3:Y</title></rect><text x="186" y="175" text-anchor="middle" alignment-baseline="middle" fill="black">-</text><rect x="166" y="121" width="40" height="20" fill="rgba(230,230,230,1)"><title>16-pmux one-hot, i = 0, s = (Id(235), Equal, Constant(2)), b = Id(218)
$procmux$19:B10
$procmux$19:S13</title></rect><text x="186" y="131" text-anchor="middle" alignment-baseline="middle" fill="black">=</text><rect x="166" y="209" width="40" height="20" fill="rgba(230,230,230,1)"><title>16-pmux one-hot, i = 1, s = (Id(18), NotEqual, Constant(0)), b = Id(235)
$procmux$19:S8
$procmux$19:B14</title></rect><text x="186" y="219" text-anchor="middle" alignment-baseline="middle" fill="black">≠</text><rect x="254" y="143" width="40" height="20" fill="rgba(230,230,230,1)"><title>16-pmux one-hot, i = 2, s = (Id(19), NotEqual, Constant(0)), b = Id(4)
$procmux$19:B13
$procmux$19:B3</title></rect><text x="274" y="153" text-anchor="middle" alignment-baseline="middle" fill="black">≠</text><rect x="144" y="143" width="40" height="20" fill="rgba(230,230,230,1)"><title>16-pmux one-hot, i = 3, s = (Id(235), Equal, Constant(11)), b = Id(0)
$procmux$19:B8
$procmux$19:S4</title></rect><text x="164" y="153" text-anchor="middle" alignment-baseline="middle" fill="black">=</text><rect x="122" y="209" width="40" height="20" fill="rgba(230,230,230,1)"><title>16-pmux one-hot, i = 4, s = (Id(235), Equal, Constant(1)), b = Id(5)
$procmux$19:B7
$procmux$19:S14</title></rect><text x="142" y="219" text-anchor="middle" alignment-baseline="middle" fill="black">=</text><rect x="166" y="187" width="40" height="20" fill="rgba(230,230,230,1)"><title>16-pmux one-hot, i = 5, s = (Id(22), NotEqual, Constant(0)), b = Id(235)
$procmux$19:S0
$procmux$19:B12</title></rect><text x="186" y="197" text-anchor="middle" alignment-baseline="middle" fill="black">≠</text><rect x="166" y="99" width="40" height="20" fill="rgba(230,230,230,1)"><title>16-pmux one-hot, i = 6, s = (Id(23), NotEqual, Constant(0)), b = Id(235)
$procmux$19:S10
$procmux$19:B9</title></rect><text x="186" y="109" text-anchor="middle" alignment-baseline="middle" fill="black">≠</text><rect x="188" y="143" width="40" height="20" fill="rgba(230,230,230,1)"><title>16-pmux one-hot, i = 7, s = (Id(24), NotEqual, Constant(0)), b = Id(217)
$procmux$19:B0
$procmux$19:B4</title></rect><text x="208" y="153" text-anchor="middle" alignment-baseline="middle" fill="black">≠</text><rect x="122" y="187" width="40" height="20" fill="rgba(230,230,230,1)"><title>16-pmux one-hot, i = 8, s = (Id(235), Equal, Constant(12)), b = Id(235)
$procmux$19:S7
$procmux$19:S3</title></rect><text x="142" y="197" text-anchor="middle" alignment-baseline="middle" fill="black">=</text><rect x="78" y="121" width="40" height="20" fill="rgba(230,230,230,1)"><title>16-pmux one-hot, i = 9, s = (Id(235), Equal, Constant(4)), b = Id(10)
$procmux$19:S15
$procmux$19:S11</title></rect><text x="98" y="131" text-anchor="middle" alignment-baseline="middle" fill="black">=</text><rect x="166" y="77" width="40" height="20" fill="rgba(230,230,230,1)"><title>16-pmux one-hot, i = 10, s = (Id(27), NotEqual, Constant(0)), b = Id(11)
$procmux$19:B11
$procmux$19:B1</title></rect><text x="186" y="87" text-anchor="middle" alignment-baseline="middle" fill="black">≠</text><rect x="78" y="77" width="40" height="20" fill="rgba(230,230,230,1)"><title>16-pmux one-hot, i = 11, s = (Id(235), Equal, Constant(9)), b = Id(235)
$procmux$19:S9
$procmux$19:S6</title></rect><text x="98" y="87" text-anchor="middle" alignment-baseline="middle" fill="black">=</text><rect x="78" y="165" width="40" height="20" fill="rgba(230,230,230,1)"><title>16-pmux one-hot, i = 12, s = (Id(235), Equal, Constant(3)), b = Id(13)
$procmux$19:B5
$procmux$19:S12</title></rect><text x="98" y="175" text-anchor="middle" alignment-baseline="middle" fill="black">=</text><rect x="34" y="143" width="40" height="20" fill="rgba(230,230,230,1)"><title>16-pmux one-hot, i = 13, s = (Id(18), NotEqual, Constant(0)), b = Id(235)
$procmux$19:S2
$procmux$19:B15</title></rect><text x="54" y="153" text-anchor="middle" alignment-baseline="middle" fill="black">≠</text><rect x="78" y="187" width="40" height="20" fill="rgba(230,230,230,1)"><title>16-pmux one-hot, i = 14, s = (Id(235), Equal, Constant(10)), b = Id(15)
$procmux$19:B6
$procmux$19:S5</title></rect><text x="98" y="197" text-anchor="middle" alignment-baseline="middle" fill="black">=</text><rect x="34" y="165" width="40" height="20" fill="rgba(230,230,230,1)"><title>16-pmux one-hot, i = 15, s = (Id(32), NotEqual, Constant(0)), b = Id(235)
$procmux$19:S1
$procmux$19:B2</title></rect><text x="54" y="175" text-anchor="middle" alignment-baseline="middle" fill="black">≠</text><rect x="298" y="165" width="40" height="20" fill="rgba(230,230,230,1)"><title>16-pmux output y
$procmux$19:Y</title></rect><text x="318" y="175" text-anchor="middle" alignment-baseline="middle" fill="black">+</text><rect x="122" y="121" width="40" height="20" fill="rgba(230,230,230,1)"><title>$neg$alu.v:37$8:A
$neg$alu.v:37$8:Y</title></rect><text x="142" y="131" text-anchor="middle" alignment-baseline="middle" fill="black">-</text><rect x="210" y="77" width="40" height="20" fill="rgba(230,230,230,1)"><title>$eq$alu.v:52$13:A
$eq$alu.v:52$13:B
$eq$alu.v:52$13:Y</title></rect><text x="230" y="87" text-anchor="middle" alignment-baseline="middle" fill="black">=</text><rect x="144" y="33" width="40" height="20" fill="rgba(230,230,230,1)"><title>$pow$alu.v:34$7:A
$pow$alu.v:34$7:B
$pow$alu.v:34$7:Y</title></rect><text x="164" y="43" text-anchor="middle" alignment-baseline="middle" fill="black">^</text><rect x="100" y="55" width="40" height="20" fill="rgba(230,230,230,1)"><title>$swizzle:A</title></rect><text x="120" y="65" text-anchor="middle" alignment-baseline="middle" fill="black">AND</text><rect x="122" y="99" width="40" height="20" fill="rgba(230,230,230,1)"><title>$swizzle:Y</title></rect><text x="142" y="109" text-anchor="middle" alignment-baseline="middle" fill="black">&gt;&gt;</text><rect x="34" y="209" width="40" height="20" fill="rgba(230,230,230,1)"><title>$swizzle:A</title></rect><text x="54" y="219" text-anchor="middle" alignment-baseline="middle" fill="black">AND</text><rect x="34" y="99" width="40" height="20" fill="rgba(230,230,230,1)"><title>$swizzle:Y</title></rect><text x="54" y="109" text-anchor="middle" alignment-baseline="middle" fill="black">&gt;&gt;</text><rect x="34" y="55" width="40" height="20" fill="rgba(230,230,230,1)"><title>$swizzle:A</title></rect><text x="54" y="65" text-anchor="middle" alignment-baseline="middle" fill="black">AND</text><rect x="34" y="77" width="40" height="20" fill="rgba(230,230,230,1)"><title>$swizzle:Y</title></rect><text x="54" y="87" text-anchor="middle" alignment-baseline="middle" fill="black">&gt;&gt;</text><rect x="209" y="209" width="40" height="40" fill="rgba(101,101,101,1)"></rect><text x="229" y="229" text-anchor="middle" alignment-baseline="middle" fill="black">SS</text><line x1="306" y1="126" x2="132" y2="82" stroke="red" stroke-width="1" /><line x1="284" y1="170" x2="132" y2="82" stroke="red" stroke-width="1" /><line x1="214" y1="126" x2="286" y2="126" stroke="red" stroke-width="1" /><line x1="214" y1="104" x2="264" y2="170" stroke="red" stroke-width="1" /><line x1="152" y1="104" x2="88" y2="104" stroke="red" stroke-width="1" /><line x1="64" y1="82" x2="88" y2="104" stroke="red" stroke-width="1" /><line x1="126" y1="148" x2="88" y2="104" stroke="red" stroke-width="1" /><line x1="64" y1="104" x2="88" y2="104" stroke="red" stroke-width="1" /><line x1="218" y1="60" x2="242" y2="104" stroke="red" stroke-width="1" /><line x1="126" y1="148" x2="242" y2="104" stroke="red" stroke-width="1" /><line x1="108" y1="104" x2="242" y2="126" stroke="red" stroke-width="1" /><line x1="262" y1="104" x2="262" y2="126" stroke="red" stroke-width="1" /><line x1="262" y1="126" x2="262" y2="104" stroke="red" stroke-width="1" /><line x1="242" y1="104" x2="242" y2="126" stroke="red" stroke-width="1" /><line x1="242" y1="126" x2="242" y2="104" stroke="red" stroke-width="1" /><line x1="262" y1="104" x2="306" y2="104" stroke="red" stroke-width="1" /><line x1="306" y1="104" x2="262" y2="104" stroke="red" stroke-width="1" /><line x1="214" y1="104" x2="242" y2="104" stroke="red" stroke-width="1" /><line x1="214" y1="104" x2="286" y2="104" stroke="red" stroke-width="1" /><line x1="262" y1="104" x2="220" y2="170" stroke="red" stroke-width="1" /><line x1="214" y1="104" x2="176" y2="126" stroke="red" stroke-width="1" /><line x1="126" y1="148" x2="176" y2="126" stroke="red" stroke-width="1" /><line x1="126" y1="148" x2="176" y2="214" stroke="red" stroke-width="1" /><line x1="196" y1="170" x2="176" y2="214" stroke="red" stroke-width="1" /><line x1="196" y1="214" x2="196" y2="126" stroke="red" stroke-width="1" /><line x1="196" y1="126" x2="196" y2="214" stroke="red" stroke-width="1" /><line x1="176" y1="214" x2="176" y2="126" stroke="red" stroke-width="1" /><line x1="176" y1="126" x2="176" y2="214" stroke="red" stroke-width="1" /><line x1="284" y1="82" x2="264" y2="148" stroke="red" stroke-width="1" /><line x1="240" y1="82" x2="264" y2="148" stroke="red" stroke-width="1" /><line x1="284" y1="148" x2="196" y2="214" stroke="red" stroke-width="1" /><line x1="196" y1="214" x2="284" y2="148" stroke="red" stroke-width="1" /><line x1="264" y1="148" x2="176" y2="214" stroke="red" stroke-width="1" /><line x1="176" y1="214" x2="264" y2="148" stroke="red" stroke-width="1" /><line x1="152" y1="126" x2="154" y2="148" stroke="red" stroke-width="1" /><line x1="126" y1="148" x2="154" y2="148" stroke="red" stroke-width="1" /><line x1="174" y1="148" x2="284" y2="148" stroke="red" stroke-width="1" /><line x1="284" y1="148" x2="174" y2="148" stroke="red" stroke-width="1" /><line x1="154" y1="148" x2="264" y2="148" stroke="red" stroke-width="1" /><line x1="264" y1="148" x2="154" y2="148" stroke="red" stroke-width="1" /><line x1="126" y1="148" x2="132" y2="214" stroke="red" stroke-width="1" /><line x1="108" y1="148" x2="132" y2="214" stroke="red" stroke-width="1" /><line x1="152" y1="214" x2="174" y2="148" stroke="red" stroke-width="1" /><line x1="174" y1="148" x2="152" y2="214" stroke="red" stroke-width="1" /><line x1="132" y1="214" x2="154" y2="148" stroke="red" stroke-width="1" /><line x1="154" y1="148" x2="132" y2="214" stroke="red" stroke-width="1" /><line x1="126" y1="148" x2="176" y2="192" stroke="red" stroke-width="1" /><line x1="152" y1="170" x2="176" y2="192" stroke="red" stroke-width="1" /><line x1="152" y1="214" x2="196" y2="192" stroke="red" stroke-width="1" /><line x1="196" y1="192" x2="152" y2="214" stroke="red" stroke-width="1" /><line x1="176" y1="192" x2="132" y2="214" stroke="red" stroke-width="1" /><line x1="132" y1="214" x2="176" y2="192" stroke="red" stroke-width="1" /><line x1="126" y1="148" x2="176" y2="104" stroke="red" stroke-width="1" /><line x1="174" y1="38" x2="176" y2="104" stroke="red" stroke-width="1" /><line x1="196" y1="192" x2="196" y2="104" stroke="red" stroke-width="1" /><line x1="196" y1="104" x2="196" y2="192" stroke="red" stroke-width="1" /><line x1="176" y1="192" x2="176" y2="104" stroke="red" stroke-width="1" /><line x1="176" y1="104" x2="176" y2="192" stroke="red" stroke-width="1" /><line x1="214" y1="126" x2="198" y2="148" stroke="red" stroke-width="1" /><line x1="262" y1="60" x2="198" y2="148" stroke="red" stroke-width="1" /><line x1="218" y1="148" x2="196" y2="104" stroke="red" stroke-width="1" /><line x1="196" y1="104" x2="218" y2="148" stroke="red" stroke-width="1" /><line x1="176" y1="104" x2="198" y2="148" stroke="red" stroke-width="1" /><line x1="198" y1="148" x2="176" y2="104" stroke="red" stroke-width="1" /><line x1="126" y1="148" x2="132" y2="192" stroke="red" stroke-width="1" /><line x1="218" y1="148" x2="152" y2="192" stroke="red" stroke-width="1" /><line x1="152" y1="192" x2="218" y2="148" stroke="red" stroke-width="1" /><line x1="132" y1="192" x2="198" y2="148" stroke="red" stroke-width="1" /><line x1="198" y1="148" x2="132" y2="192" stroke="red" stroke-width="1" /><line x1="126" y1="148" x2="88" y2="126" stroke="red" stroke-width="1" /><line x1="108" y1="104" x2="88" y2="126" stroke="red" stroke-width="1" /><line x1="152" y1="192" x2="108" y2="126" stroke="red" stroke-width="1" /><line x1="108" y1="126" x2="152" y2="192" stroke="red" stroke-width="1" /><line x1="132" y1="192" x2="88" y2="126" stroke="red" stroke-width="1" /><line x1="88" y1="126" x2="132" y2="192" stroke="red" stroke-width="1" /><line x1="306" y1="60" x2="176" y2="82" stroke="red" stroke-width="1" /><line x1="328" y1="82" x2="176" y2="82" stroke="red" stroke-width="1" /><line x1="108" y1="126" x2="196" y2="82" stroke="red" stroke-width="1" /><line x1="196" y1="82" x2="108" y2="126" stroke="red" stroke-width="1" /><line x1="176" y1="82" x2="88" y2="126" stroke="red" stroke-width="1" /><line x1="88" y1="126" x2="176" y2="82" stroke="red" stroke-width="1" /><line x1="126" y1="148" x2="88" y2="82" stroke="red" stroke-width="1" /><line x1="196" y1="82" x2="108" y2="82" stroke="red" stroke-width="1" /><line x1="108" y1="82" x2="196" y2="82" stroke="red" stroke-width="1" /><line x1="88" y1="82" x2="176" y2="82" stroke="red" stroke-width="1" /><line x1="176" y1="82" x2="88" y2="82" stroke="red" stroke-width="1" /><line x1="126" y1="148" x2="88" y2="170" stroke="red" stroke-width="1" /><line x1="64" y1="126" x2="88" y2="170" stroke="red" stroke-width="1" /><line x1="108" y1="170" x2="108" y2="82" stroke="red" stroke-width="1" /><line x1="108" y1="82" x2="108" y2="170" stroke="red" stroke-width="1" /><line x1="88" y1="170" x2="88" y2="82" stroke="red" stroke-width="1" /><line x1="88" y1="82" x2="88" y2="170" stroke="red" stroke-width="1" /><line x1="126" y1="148" x2="44" y2="148" stroke="red" stroke-width="1" /><line x1="196" y1="170" x2="44" y2="148" stroke="red" stroke-width="1" /><line x1="108" y1="170" x2="64" y2="148" stroke="red" stroke-width="1" /><line x1="64" y1="148" x2="108" y2="170" stroke="red" stroke-width="1" /><line x1="44" y1="148" x2="88" y2="170" stroke="red" stroke-width="1" /><line x1="88" y1="170" x2="44" y2="148" stroke="red" stroke-width="1" /><line x1="126" y1="148" x2="88" y2="192" stroke="red" stroke-width="1" /><line x1="240" y1="192" x2="88" y2="192" stroke="red" stroke-width="1" /><line x1="64" y1="148" x2="108" y2="192" stroke="red" stroke-width="1" /><line x1="108" y1="192" x2="64" y2="148" stroke="red" stroke-width="1" /><line x1="88" y1="192" x2="44" y2="148" stroke="red" stroke-width="1" /><line x1="44" y1="148" x2="88" y2="192" stroke="red" stroke-width="1" /><line x1="152" y1="82" x2="44" y2="170" stroke="red" stroke-width="1" /><line x1="126" y1="148" x2="44" y2="170" stroke="red" stroke-width="1" /><line x1="108" y1="192" x2="64" y2="170" stroke="red" stroke-width="1" /><line x1="64" y1="170" x2="108" y2="192" stroke="red" stroke-width="1" /><line x1="88" y1="192" x2="44" y2="170" stroke="red" stroke-width="1" /><line x1="44" y1="170" x2="88" y2="192" stroke="red" stroke-width="1" /><line x1="196" y1="126" x2="308" y2="170" stroke="red" stroke-width="1" /><line x1="328" y1="170" x2="324" y2="192" stroke="red" stroke-width="1" /><line x1="214" y1="126" x2="220" y2="192" stroke="red" stroke-width="1" /><line x1="214" y1="104" x2="220" y2="192" stroke="red" stroke-width="1" /><line x1="214" y1="126" x2="242" y2="60" stroke="red" stroke-width="1" /><line x1="214" y1="104" x2="242" y2="60" stroke="red" stroke-width="1" /><line x1="214" y1="126" x2="88" y2="148" stroke="red" stroke-width="1" /><line x1="214" y1="104" x2="88" y2="148" stroke="red" stroke-width="1" /><line x1="214" y1="126" x2="44" y2="126" stroke="red" stroke-width="1" /><line x1="214" y1="104" x2="44" y2="126" stroke="red" stroke-width="1" /><line x1="214" y1="126" x2="286" y2="60" stroke="red" stroke-width="1" /><line x1="214" y1="104" x2="286" y2="60" stroke="red" stroke-width="1" /><line x1="214" y1="126" x2="132" y2="170" stroke="red" stroke-width="1" /><line x1="214" y1="104" x2="132" y2="170" stroke="red" stroke-width="1" /><line x1="214" y1="126" x2="264" y2="82" stroke="red" stroke-width="1" /><line x1="214" y1="104" x2="264" y2="82" stroke="red" stroke-width="1" /><line x1="214" y1="126" x2="308" y2="82" stroke="red" stroke-width="1" /><line x1="214" y1="104" x2="308" y2="82" stroke="red" stroke-width="1" /><line x1="214" y1="104" x2="198" y2="60" stroke="red" stroke-width="1" /><line x1="214" y1="126" x2="176" y2="170" stroke="red" stroke-width="1" /><line x1="240" y1="170" x2="176" y2="170" stroke="red" stroke-width="1" /><line x1="214" y1="126" x2="132" y2="126" stroke="red" stroke-width="1" /><line x1="214" y1="126" x2="220" y2="82" stroke="red" stroke-width="1" /><line x1="214" y1="104" x2="220" y2="82" stroke="red" stroke-width="1" /><line x1="214" y1="126" x2="154" y2="38" stroke="red" stroke-width="1" /><line x1="214" y1="104" x2="154" y2="38" stroke="red" stroke-width="1" /><line x1="126" y1="148" x2="110" y2="60" stroke="red" stroke-width="1" /><line x1="130" y1="60" x2="132" y2="104" stroke="red" stroke-width="1" /><line x1="126" y1="148" x2="44" y2="214" stroke="red" stroke-width="1" /><line x1="64" y1="214" x2="44" y2="104" stroke="red" stroke-width="1" /><line x1="126" y1="148" x2="44" y2="60" stroke="red" stroke-width="1" /><line x1="64" y1="60" x2="44" y2="82" stroke="red" stroke-width="1" /></svg>