<svg xmlns="http://www.w3.org/2000/svg" width="260" height="260"><rect x="0" y="0" width="260" height="260" fill="rgb(255,255,255)"></rect><rect x="0" y="0" width="240" height="240" fill="rgba(255,255,255,1)"></rect><rect x="77" y="99" width="20" height="20" fill="rgba(230,230,230,1)"><title>iron_plate_1</title></rect><text x="87" y="109" text-anchor="middle" alignment-baseline="middle" fill="black">C</text><rect x="121" y="121" width="20" height="20" fill="rgba(230,230,230,1)"><title>signal_B</title></rect><text x="131" y="131" text-anchor="middle" alignment-baseline="middle" fill="black">L</text><rect x="165" y="77" width="20" height="20" fill="rgba(230,230,230,1)"><title>signal_A</title></rect><text x="175" y="87" text-anchor="middle" alignment-baseline="middle" fill="black">L</text><rect x="165" y="165" width="20" height="20" fill="rgba(230,230,230,1)"><title>iron_plate_0</title></rect><text x="175" y="175" text-anchor="middle" alignment-baseline="middle" fill="black">C</text><rect x="122" y="99" width="40" height="20" fill="rgba(230,230,230,1)"><title>$add$balancer.v:13$4:Y
$add$balancer.v:13$4:B
$add$balancer.v:13$4:A</title></rect><text x="142" y="109" text-anchor="middle" alignment-baseline="middle" fill="black">+</text><rect x="166" y="121" width="40" height="20" fill="rgba(230,230,230,1)"></rect><text x="186" y="131" text-anchor="middle" alignment-baseline="middle" fill="black">+</text><rect x="166" y="143" width="40" height="20" fill="rgba(230,230,230,1)"><title>iron0:A</title></rect><text x="186" y="153" text-anchor="middle" alignment-baseline="middle" fill="black">*</text><rect x="122" y="77" width="40" height="20" fill="rgba(230,230,230,1)"><title>iron0:Y</title></rect><text x="142" y="87" text-anchor="middle" alignment-baseline="middle" fill="black">*</text><rect x="78" y="187" width="40" height="20" fill="rgba(230,230,230,1)"><title>$add$balancer.v:12$2:Y
$add$balancer.v:12$2:A
$add$balancer.v:12$2:B</title></rect><text x="98" y="197" text-anchor="middle" alignment-baseline="middle" fill="black">+</text><rect x="122" y="187" width="40" height="20" fill="rgba(230,230,230,1)"><title>$gt$balancer.v:13$5:B
$gt$balancer.v:13$5:A
$gt$balancer.v:13$5:Y</title></rect><text x="142" y="197" text-anchor="middle" alignment-baseline="middle" fill="black">&gt;</text><rect x="122" y="143" width="40" height="20" fill="rgba(230,230,230,1)"><title>$gt$balancer.v:12$3:A
$gt$balancer.v:12$3:B
$gt$balancer.v:12$3:Y</title></rect><text x="142" y="153" text-anchor="middle" alignment-baseline="middle" fill="black">&gt;</text><rect x="78" y="143" width="40" height="20" fill="rgba(230,230,230,1)"></rect><text x="98" y="153" text-anchor="middle" alignment-baseline="middle" fill="black">+</text><rect x="78" y="121" width="40" height="20" fill="rgba(230,230,230,1)"><title>iron1:A</title></rect><text x="98" y="131" text-anchor="middle" alignment-baseline="middle" fill="black">*</text><rect x="78" y="165" width="40" height="20" fill="rgba(230,230,230,1)"><title>iron1:Y</title></rect><text x="98" y="175" text-anchor="middle" alignment-baseline="middle" fill="black">*</text><rect x="165" y="99" width="20" height="20" fill="rgba(230,230,230,1)"><title>$constant:Y</title></rect><text x="175" y="109" text-anchor="middle" alignment-baseline="middle" fill="black">C</text><rect x="121" y="165" width="20" height="20" fill="rgba(230,230,230,1)"><title>$constant:Y</title></rect><text x="131" y="175" text-anchor="middle" alignment-baseline="middle" fill="black">C</text><line x1="196" y1="148" x2="132" y2="82" stroke="red" stroke-width="1" /><line x1="196" y1="126" x2="176" y2="126" stroke="red" stroke-width="1" /><line x1="196" y1="126" x2="132" y2="82" stroke="red" stroke-width="1" /><line x1="196" y1="148" x2="176" y2="126" stroke="red" stroke-width="1" /><line x1="108" y1="126" x2="88" y2="148" stroke="red" stroke-width="1" /><line x1="108" y1="148" x2="88" y2="170" stroke="red" stroke-width="1" /><line x1="108" y1="148" x2="88" y2="148" stroke="red" stroke-width="1" /><line x1="108" y1="126" x2="88" y2="170" stroke="red" stroke-width="1" /><line x1="152" y1="192" x2="126" y2="126" stroke="red" stroke-width="1" /><line x1="152" y1="148" x2="170" y2="82" stroke="red" stroke-width="1" /><line x1="170" y1="104" x2="132" y2="104" stroke="red" stroke-width="1" /><line x1="152" y1="82" x2="132" y2="104" stroke="red" stroke-width="1" /><line x1="170" y1="170" x2="176" y2="148" stroke="red" stroke-width="1" /><line x1="108" y1="170" x2="88" y2="192" stroke="red" stroke-width="1" /><line x1="126" y1="170" x2="88" y2="192" stroke="red" stroke-width="1" /><line x1="152" y1="104" x2="132" y2="192" stroke="red" stroke-width="1" /><line x1="108" y1="170" x2="132" y2="192" stroke="red" stroke-width="1" /><line x1="152" y1="82" x2="132" y2="148" stroke="red" stroke-width="1" /><line x1="108" y1="192" x2="132" y2="148" stroke="red" stroke-width="1" /><line x1="82" y1="104" x2="88" y2="126" stroke="red" stroke-width="1" /></svg>