<svg xmlns="http://www.w3.org/2000/svg" width="182" height="183"><rect x="0" y="0" width="182" height="183" fill="rgb(255,255,255)"></rect><rect x="0" y="0" width="160" height="160" fill="rgba(255,255,255,1)"></rect><rect x="33" y="55" width="20" height="20" fill="rgba(230,100,100,1)"><title>iron_plate_0</title></rect><text x="43" y="65" text-anchor="middle" alignment-baseline="middle" fill="black">C</text><rect x="121" y="77" width="20" height="20" fill="rgba(230,100,100,1)"><title>iron_plate_1</title></rect><text x="131" y="87" text-anchor="middle" alignment-baseline="middle" fill="black">C</text><rect x="77" y="99" width="20" height="20" fill="rgba(100,100,230,1)"><title>signal_A</title></rect><text x="87" y="109" text-anchor="middle" alignment-baseline="middle" fill="black">L</text><rect x="77" y="33" width="20" height="20" fill="rgba(100,100,230,1)"><title>signal_B</title></rect><text x="87" y="43" text-anchor="middle" alignment-baseline="middle" fill="black">L</text><rect x="78" y="121" width="40" height="20" fill="rgba(230,230,230,1)"><title>$add$balancer.v:12$2:A
$add$balancer.v:12$2:B
$add$balancer.v:12$2:Y</title></rect><text x="98" y="131" text-anchor="middle" alignment-baseline="middle" fill="black">+</text><rect x="34" y="99" width="40" height="20" fill="rgba(230,230,230,1)"></rect><text x="54" y="109" text-anchor="middle" alignment-baseline="middle" fill="black">+</text><rect x="34" y="77" width="40" height="20" fill="rgba(230,230,230,1)"><title>iron0:A</title></rect><text x="54" y="87" text-anchor="middle" alignment-baseline="middle" fill="black">*</text><rect x="34" y="121" width="40" height="20" fill="rgba(230,230,230,1)"><title>iron0:Y</title></rect><text x="54" y="131" text-anchor="middle" alignment-baseline="middle" fill="black">*</text><rect x="78" y="143" width="40" height="20" fill="rgba(230,230,230,1)"><title>$add$balancer.v:13$4:A
$add$balancer.v:13$4:B
$add$balancer.v:13$4:Y</title></rect><text x="98" y="153" text-anchor="middle" alignment-baseline="middle" fill="black">+</text><rect x="78" y="77" width="40" height="20" fill="rgba(230,230,230,1)"><title>$gt$balancer.v:13$5:A
$gt$balancer.v:13$5:B
$gt$balancer.v:13$5:Y</title></rect><text x="98" y="87" text-anchor="middle" alignment-baseline="middle" fill="black">&gt;</text><rect x="122" y="55" width="40" height="20" fill="rgba(230,230,230,1)"></rect><text x="142" y="65" text-anchor="middle" alignment-baseline="middle" fill="black">+</text><rect x="122" y="33" width="40" height="20" fill="rgba(230,230,230,1)"><title>iron1:A</title></rect><text x="142" y="43" text-anchor="middle" alignment-baseline="middle" fill="black">*</text><rect x="78" y="55" width="40" height="20" fill="rgba(230,230,230,1)"><title>iron1:Y</title></rect><text x="98" y="65" text-anchor="middle" alignment-baseline="middle" fill="black">*</text><rect x="34" y="143" width="40" height="20" fill="rgba(230,230,230,1)"><title>$gt$balancer.v:12$3:A
$gt$balancer.v:12$3:B
$gt$balancer.v:12$3:Y</title></rect><text x="54" y="153" text-anchor="middle" alignment-baseline="middle" fill="black">&gt;</text><line x1="64" y1="104" x2="44" y2="126" stroke="red" stroke-width="1" /><line x1="64" y1="82" x2="44" y2="104" stroke="red" stroke-width="1" /><line x1="64" y1="82" x2="44" y2="126" stroke="red" stroke-width="1" /><line x1="64" y1="104" x2="44" y2="104" stroke="red" stroke-width="1" /><line x1="152" y1="38" x2="88" y2="60" stroke="red" stroke-width="1" /><line x1="152" y1="60" x2="132" y2="60" stroke="red" stroke-width="1" /><line x1="152" y1="60" x2="88" y2="60" stroke="red" stroke-width="1" /><line x1="152" y1="38" x2="132" y2="60" stroke="red" stroke-width="1" /><line x1="64" y1="148" x2="82" y2="104" stroke="red" stroke-width="1" /><line x1="108" y1="82" x2="82" y2="38" stroke="red" stroke-width="1" /><line x1="108" y1="60" x2="88" y2="126" stroke="red" stroke-width="1" /><line x1="38" y1="60" x2="44" y2="82" stroke="red" stroke-width="1" /><line x1="64" y1="126" x2="88" y2="148" stroke="red" stroke-width="1" /><line x1="108" y1="60" x2="88" y2="82" stroke="red" stroke-width="1" /><line x1="108" y1="148" x2="88" y2="82" stroke="red" stroke-width="1" /><line x1="126" y1="82" x2="132" y2="38" stroke="red" stroke-width="1" /><line x1="64" y1="126" x2="44" y2="148" stroke="red" stroke-width="1" /><line x1="108" y1="126" x2="44" y2="148" stroke="red" stroke-width="1" /></svg>